<svg width="20" height="20" viewBox="0 0 20 20" fill="none" xmlns="http://www.w3.org/2000/svg">
<path d="M10.0037 4.86499C7.1679 4.86499 4.87207 7.16332 4.87207 9.99666C4.87207 12.8325 7.1704 15.1283 10.0037 15.1283C12.8396 15.1283 15.1354 12.83 15.1354 9.99666C15.1354 7.16082 12.8371 4.86499 10.0037 4.86499ZM10.0037 13.3275C8.1629 13.3275 6.6729 11.8367 6.6729 9.99666C6.6729 8.15666 8.16374 6.66582 10.0037 6.66582C11.8437 6.66582 13.3346 8.15666 13.3346 9.99666C13.3354 11.8367 11.8446 13.3275 10.0037 13.3275Z" fill="#FF6435"/>
<path d="M14.1235 0.0633105C12.2835 -0.0225228 7.72602 -0.0183562 5.88436 0.0633105C4.26602 0.139144 2.83852 0.529977 1.68769 1.68081C-0.235644 3.60414 0.0101894 6.19581 0.0101894 9.99664C0.0101894 13.8866 -0.206477 16.4183 1.68769 18.3125C3.61852 20.2425 6.24769 19.99 10.0035 19.99C13.8569 19.99 15.1869 19.9925 16.5494 19.465C18.4019 18.7458 19.8002 17.09 19.9369 14.1158C20.0235 12.275 20.0185 7.71831 19.9369 5.87664C19.7719 2.36581 17.8877 0.236644 14.1235 0.0633105ZM17.036 17.04C15.7752 18.3008 14.026 18.1883 9.97936 18.1883C5.81269 18.1883 4.14186 18.25 2.92269 17.0275C1.51852 15.63 1.77269 13.3858 1.77269 9.98331C1.77269 5.37914 1.30019 2.06331 5.92102 1.82664C6.98269 1.78914 7.29519 1.77664 9.96769 1.77664L10.0052 1.80164C14.446 1.80164 17.9302 1.33664 18.1394 5.95664C18.1869 7.01081 18.1977 7.32748 18.1977 9.99581C18.1969 14.1141 18.2752 15.795 17.036 17.04Z" fill="#FF6435"/>
<path d="M15.3383 5.86147C16.0006 5.86147 16.5375 5.32458 16.5375 4.6623C16.5375 4.00002 16.0006 3.46313 15.3383 3.46313C14.676 3.46313 14.1392 4.00002 14.1392 4.6623C14.1392 5.32458 14.676 5.86147 15.3383 5.86147Z" fill="#FF6435"/>
</svg>
