<svg width="20" height="20" viewBox="0 0 20 20" fill="none" xmlns="http://www.w3.org/2000/svg">
<path d="M14.1235 0.0633105C12.2835 -0.0225228 7.72602 -0.0183562 5.88436 0.0633105C4.26602 0.139144 2.83852 0.529977 1.68769 1.68081C-0.235644 3.60414 0.0101894 6.19581 0.0101894 9.99664C0.0101894 13.8866 -0.206477 16.4183 1.68769 18.3125C3.61852 20.2425 6.24769 19.99 10.0035 19.99C13.8569 19.99 15.1869 19.9925 16.5494 19.465C18.4019 18.7458 19.8002 17.09 19.9369 14.1158C20.0235 12.275 20.0185 7.71831 19.9369 5.87664C19.7719 2.36581 17.8877 0.236644 14.1235 0.0633105ZM17.036 17.04C15.7752 18.3008 14.026 18.1883 9.97936 18.1883C5.81269 18.1883 4.14186 18.25 2.92269 17.0275C1.51852 15.63 1.77269 13.3858 1.77269 9.98331C1.77269 5.37914 1.30019 2.06331 5.92102 1.82664C6.98269 1.78914 7.29519 1.77664 9.96769 1.77664L10.0052 1.80164C14.446 1.80164 17.9302 1.33664 18.1394 5.95664C18.1869 7.01081 18.1977 7.32748 18.1977 9.99581C18.1969 14.1141 18.2752 15.795 17.036 17.04Z" fill="#FF6435"/>
<path d="M15 6.94708C14.6281 7.10769 14.2319 7.21415 13.8187 7.26585C14.2437 7.016 14.5681 6.62338 14.7206 6.15015C14.3244 6.38277 13.8869 6.54708 13.4206 6.63877C13.0444 6.24431 12.5081 6 11.9231 6C10.7881 6 9.87437 6.90708 9.87437 8.01908C9.87437 8.17908 9.88812 8.33292 9.92188 8.47938C8.2175 8.39754 6.70938 7.59323 5.69625 6.368C5.51937 6.67015 5.41563 7.016 5.41563 7.38831C5.41563 8.08738 5.78125 8.70708 6.32625 9.06585C5.99687 9.05969 5.67375 8.96554 5.4 8.81723C5.4 8.82338 5.4 8.83138 5.4 8.83938C5.4 9.82031 6.11062 10.6351 7.0425 10.8228C6.87562 10.8677 6.69375 10.8892 6.505 10.8892C6.37375 10.8892 6.24125 10.8818 6.11687 10.8548C6.3825 11.6542 7.13625 12.2418 8.0325 12.2609C7.335 12.7982 6.44938 13.1218 5.49063 13.1218C5.3225 13.1218 5.16125 13.1145 5 13.0942C5.90812 13.6708 6.98438 14 8.145 14C11.9175 14 13.98 10.9231 13.98 8.256C13.98 8.16677 13.9769 8.08062 13.9725 7.99508C14.3794 7.71077 14.7212 7.35569 15 6.94708Z" fill="#FF6435"/>
</svg>
