<svg width="20" height="20" viewBox="0 0 20 20" fill="none" xmlns="http://www.w3.org/2000/svg">
<g clip-path="url(#clip0_1009_2844)">
<path d="M14.1235 0.0633105C12.2835 -0.0225228 7.72602 -0.0183562 5.88436 0.0633105C4.26602 0.139144 2.83852 0.529977 1.68769 1.68081C-0.235644 3.60414 0.0101894 6.19581 0.0101894 9.99664C0.0101894 13.8866 -0.206477 16.4183 1.68769 18.3125C3.61852 20.2425 6.24769 19.99 10.0035 19.99C13.8569 19.99 15.1869 19.9925 16.5494 19.465C18.4019 18.7458 19.8002 17.09 19.9369 14.1158C20.0235 12.275 20.0185 7.71831 19.9369 5.87664C19.7719 2.36581 17.8877 0.236644 14.1235 0.0633105ZM17.036 17.04C15.7752 18.3008 14.026 18.1883 9.97936 18.1883C5.81269 18.1883 4.14186 18.25 2.92269 17.0275C1.51852 15.63 1.77269 13.3858 1.77269 9.98331C1.77269 5.37914 1.30019 2.06331 5.92102 1.82664C6.98269 1.78914 7.29519 1.77664 9.96769 1.77664L10.0052 1.80164C14.446 1.80164 17.9302 1.33664 18.1394 5.95664C18.1869 7.01081 18.1977 7.32748 18.1977 9.99581C18.1969 14.1141 18.2752 15.795 17.036 17.04Z" fill="#FF6435"/>
<path d="M13.25 9.56699C13.5833 9.75944 13.5833 10.2406 13.25 10.433L8.75 13.0311C8.41667 13.2235 8 12.983 8 12.5981L8 7.40192C8 7.01702 8.41667 6.77646 8.75 6.96891L13.25 9.56699Z" fill="#FF6435"/>
</g>
<defs>
<clipPath id="clip0_1009_2844">
<rect width="20" height="20" fill="white"/>
</clipPath>
</defs>
</svg>
