<svg width="80" height="80" viewBox="0 0 80 80" fill="none" xmlns="http://www.w3.org/2000/svg">
<path opacity="0.2" d="M34 3.4641C37.7128 1.32051 42.2872 1.32051 46 3.4641L68.641 16.5359C72.3538 18.6795 74.641 22.641 74.641 26.9282V53.0718C74.641 57.359 72.3538 61.3205 68.641 63.4641L46 76.5359C42.2872 78.6795 37.7128 78.6795 34 76.5359L11.359 63.4641C7.64617 61.3205 5.35898 57.359 5.35898 53.0718V26.9282C5.35898 22.641 7.64617 18.6795 11.359 16.5359L34 3.4641Z" fill="url(#paint0_linear_295_7874)"/>
<path opacity="0.4" d="M34 9.4641C37.7128 7.32051 42.2872 7.32051 46 9.4641L63.4449 19.5359C67.1577 21.6795 69.4449 25.641 69.4449 29.9282V50.0718C69.4449 54.359 67.1577 58.3205 63.4449 60.4641L46 70.5359C42.2872 72.6795 37.7128 72.6795 34 70.5359L16.5551 60.4641C12.8423 58.3205 10.5551 54.359 10.5551 50.0718V29.9282C10.5551 25.641 12.8423 21.6795 16.5551 19.5359L34 9.4641Z" fill="url(#paint1_linear_295_7874)"/>
<path d="M34.75 15.0311C37.9987 13.1554 42.0013 13.1554 45.25 15.0311L58.9987 22.9689C62.2474 24.8446 64.2487 28.3109 64.2487 32.0622V47.9378C64.2487 51.6891 62.2474 55.1554 58.9987 57.0311L45.25 64.9689C42.0013 66.8446 37.9987 66.8446 34.75 64.9689L21.0013 57.0311C17.7526 55.1554 15.7513 51.6891 15.7513 47.9378V32.0622C15.7513 28.3109 17.7526 24.8446 21.0013 22.9689L34.75 15.0311Z" fill="url(#paint2_linear_295_7874)"/>
<g opacity="0.6" filter="url(#filter0_f_295_7874)">
<path d="M48.1478 52.5981C48.3076 52.7608 48.4859 52.9042 48.6788 53.0255C45.8716 54.7334 42.5126 55.2864 39.3069 54.5683C39.1632 54.5389 39.0273 54.4793 38.9082 54.3936C38.789 54.3079 38.6893 54.198 38.6156 54.071C38.5418 53.9441 38.4957 53.8029 38.4803 53.6569C38.4648 53.5109 38.4804 53.3632 38.5259 53.2236C38.5752 53.0583 38.6646 52.9079 38.7862 52.7858C38.9085 52.6674 39.0578 52.5809 39.2212 52.5336C39.3845 52.4864 39.557 52.4799 39.7234 52.5148C42.3392 53.1137 45.0844 52.7003 47.4084 51.3577C47.5511 51.8249 47.8048 52.2505 48.1478 52.5981Z" fill="#B82F05"/>
<path d="M52.9486 35.4084C54.7114 38.2273 55.295 41.6274 54.5731 44.8736C54.5422 45.0154 54.4821 45.1491 54.3967 45.2662C54.3112 45.3834 54.2023 45.4814 54.0768 45.554C53.9514 45.6266 53.8121 45.6722 53.6681 45.6879C53.524 45.7036 53.3783 45.689 53.2402 45.645C52.9875 45.5761 52.7701 45.4145 52.6311 45.1924C52.4922 44.9702 52.4419 44.7038 52.4904 44.4462C53.0719 41.8738 52.6785 39.1769 51.3866 36.8783C51.7766 36.7315 52.1314 36.5042 52.4279 36.2111C52.6458 35.9751 52.8219 35.7037 52.9486 35.4084Z" fill="#B82F05"/>
<path d="M45.6287 30.9574C45.5795 31.1227 45.49 31.2731 45.3684 31.3953C45.2462 31.5136 45.0968 31.6002 44.9335 31.6474C44.7701 31.6947 44.5976 31.7012 44.4312 31.6663C41.8615 31.0842 39.1673 31.4779 36.8712 32.7713C36.7246 32.3808 36.4975 32.0256 36.2047 31.7288C35.9785 31.4978 35.7143 31.3074 35.4237 31.1659C38.2382 29.427 41.6202 28.8584 44.8477 29.5815C44.9951 29.6102 45.1346 29.6705 45.2565 29.7582C45.3785 29.8459 45.48 29.959 45.5542 30.0897C45.6284 30.2204 45.6735 30.3656 45.6863 30.5154C45.6992 30.6652 45.6795 30.816 45.6287 30.9574Z" fill="#B82F05"/>
<path d="M31.3932 38.7964C31.5114 38.9188 31.5979 39.0683 31.6451 39.2318C31.6923 39.3954 31.6987 39.568 31.6639 39.7346C31.0824 42.307 31.4758 45.004 32.7677 47.3026C32.3777 47.4493 32.0229 47.6766 31.7264 47.9697C31.4956 48.1962 31.3054 48.4606 31.1641 48.7516C29.4269 45.9342 28.8589 42.5486 29.5813 39.3177C29.6107 39.1738 29.6702 39.0378 29.7558 38.9185C29.8414 38.7992 29.9512 38.6994 30.078 38.6256C30.2048 38.5518 30.3458 38.5056 30.4917 38.4902C30.6376 38.4747 30.7851 38.4903 30.9246 38.5358C31.1008 38.5803 31.2624 38.6701 31.3932 38.7964Z" fill="#B82F05"/>
<path d="M50.3567 54.5996C49.5667 54.5967 48.7938 54.3689 48.1282 53.9429C47.875 53.7824 47.6409 53.5936 47.4305 53.38C46.9529 52.9172 46.5955 52.3446 46.3892 51.7121C46.1188 50.8747 46.1201 49.973 46.3929 49.1364C46.6656 48.2997 47.1958 47.5709 47.9076 47.0542C48.6194 46.5376 49.4762 46.2597 50.3554 46.2603C51.2345 46.2608 52.091 46.5398 52.8021 47.0574C53.5132 47.5749 54.0425 48.3044 54.3141 49.1414C54.5858 49.9785 54.586 50.8801 54.3145 51.7172C54.0431 52.5543 53.5141 53.284 52.8031 53.8017C52.0922 54.3195 51.2358 54.5988 50.3567 54.5996ZM50.3567 48.3451C50.0291 48.3459 49.7064 48.4239 49.4147 48.573C49.123 48.722 48.8705 48.9379 48.6778 49.2029C48.485 49.468 48.3574 49.7748 48.3054 50.0985C48.2533 50.4222 48.2782 50.7536 48.3781 51.0658C48.473 51.3841 48.6446 51.6741 48.878 51.9102C48.9813 52.0169 49.0966 52.1114 49.2216 52.1916C49.492 52.3624 49.798 52.4687 50.116 52.502C50.434 52.5354 50.7554 52.495 51.0553 52.3841C51.3552 52.2731 51.6255 52.0945 51.8454 51.8621C52.0652 51.6297 52.2287 51.3498 52.323 51.044C52.4174 50.7382 52.4402 50.4147 52.3896 50.0987C52.339 49.7826 52.2164 49.4825 52.0313 49.2215C51.8462 48.9606 51.6035 48.7458 51.3222 48.5938C51.0408 48.4418 50.7282 48.3567 50.4087 48.3451H50.3567Z" fill="#B82F05"/>
<path d="M33.9752 38.1501C33.344 38.1507 32.7209 38.0076 32.1531 37.7317C31.5853 37.4558 31.0875 37.0543 30.6974 36.5576C30.3072 36.0609 30.035 35.4819 29.9012 34.8644C29.7674 34.2469 29.7755 33.6071 29.925 32.9932C30.0744 32.3793 30.3613 31.8074 30.7639 31.3208C31.1665 30.8342 31.6743 30.4455 32.249 30.1842C32.8237 29.9228 33.4501 29.7956 34.0811 29.8122C34.7121 29.8288 35.3311 29.9887 35.8912 30.2799C36.2787 30.4685 36.631 30.7223 36.9326 31.0304C37.3203 31.4163 37.625 31.8775 37.8281 32.3856C38.1544 33.1451 38.2435 33.9857 38.0837 34.7969C37.9239 35.6081 37.5226 36.3519 36.9326 36.9305C36.5442 37.3188 36.083 37.6265 35.5755 37.8358C35.068 38.0451 34.5241 38.1519 33.9752 38.1501ZM33.9752 31.8956C33.4288 31.8979 32.9052 32.1151 32.5173 32.5002C32.3237 32.6939 32.1701 32.9238 32.0653 33.1769C31.9605 33.43 31.9065 33.7013 31.9065 33.9753C31.9065 34.2492 31.9605 34.5205 32.0653 34.7736C32.1701 35.0267 32.3237 35.2567 32.5173 35.4503C32.7108 35.6441 32.9404 35.7979 33.1933 35.9028C33.4461 36.0077 33.7171 36.0617 33.9908 36.0617C34.2645 36.0617 34.5355 36.0077 34.7883 35.9028C35.0412 35.7979 35.2709 35.6441 35.4643 35.4503C35.7529 35.1591 35.9494 34.7892 36.029 34.3869C36.1087 33.9845 36.068 33.5676 35.9121 33.1882C35.8122 32.9302 35.6597 32.6959 35.4643 32.5002C35.3222 32.3554 35.1568 32.2355 34.9749 32.1458C34.6594 31.9835 34.309 31.9011 33.9544 31.9061L33.9752 31.8956Z" fill="#B82F05"/>
<path d="M33.9753 54.3702C33.2613 54.3681 32.5598 54.1823 31.9381 53.8306C31.3165 53.4789 30.7956 52.9732 30.4255 52.3619C30.0553 51.7507 29.8484 51.0544 29.8245 50.3401C29.8006 49.6257 29.9605 48.9171 30.289 48.2825C30.4776 47.8946 30.7312 47.5421 31.0388 47.24C31.4242 46.8519 31.8849 46.5469 32.3925 46.3436C33.1512 46.0169 33.991 45.9277 34.8013 46.0877C35.6117 46.2477 36.3547 46.6494 36.9327 47.24C37.5159 47.8232 37.9131 48.5664 38.0741 49.3757C38.2351 50.185 38.1526 51.0239 37.8371 51.7862C37.5215 52.5485 36.9871 53.2 36.3016 53.6581C35.616 54.1162 34.81 54.3604 33.9857 54.3598L33.9753 54.3702ZM33.9753 48.1157C33.4195 48.1266 32.888 48.3461 32.4862 48.7307C32.3416 48.873 32.222 49.0386 32.1322 49.2206C31.9195 49.6144 31.8392 50.0662 31.9029 50.5093C31.9667 50.9523 32.1712 51.3631 32.4862 51.6807C32.6796 51.8746 32.9093 52.0284 33.1622 52.1333C33.415 52.2382 33.686 52.2922 33.9597 52.2922C34.2334 52.2922 34.5044 52.2382 34.7572 52.1333C35.01 52.0284 35.2397 51.8746 35.4332 51.6807C35.6268 51.4871 35.7804 51.2572 35.8852 51.0041C35.99 50.751 36.044 50.4797 36.044 50.2057C36.044 49.9317 35.99 49.6604 35.8852 49.4073C35.7804 49.1543 35.6268 48.9243 35.4332 48.7307C35.0538 48.3429 34.5382 48.1185 33.9961 48.1052L33.9753 48.1157Z" fill="#B82F05"/>
<path d="M50.1683 38.1606C49.4851 38.1566 48.8133 37.9844 48.2122 37.6593C47.6112 37.3341 47.0992 36.8659 46.7215 36.296C46.3438 35.726 46.112 35.0718 46.0464 34.391C45.9809 33.7102 46.0836 33.0237 46.3456 32.392C46.6076 31.7604 47.0208 31.2029 47.5488 30.7688C48.0768 30.3347 48.7033 30.0373 49.3732 29.9027C50.0431 29.7682 50.7358 29.8007 51.3902 29.9974C52.0446 30.194 52.6406 30.5488 53.1257 31.0304C53.7509 31.657 54.1606 32.4666 54.2954 33.3418C54.4302 34.2171 54.2831 35.1126 53.8754 35.8985C53.6867 36.2862 53.4331 36.6388 53.1257 36.9409C52.3325 37.7132 51.2747 38.1531 50.1683 38.171V38.1606ZM50.1683 31.9061C49.7577 31.9078 49.3567 32.031 49.0158 32.2602C48.6749 32.4894 48.4094 32.8144 48.2524 33.1942C48.0955 33.5741 48.0543 33.9919 48.1339 34.3952C48.2136 34.7985 48.4105 35.1692 48.7 35.4607C48.9909 35.7497 49.3604 35.9463 49.7623 36.026C50.1643 36.1058 50.5808 36.065 50.9597 35.9089C51.214 35.8082 51.4445 35.6556 51.6366 35.4607C51.7812 35.3184 51.9008 35.1528 51.9906 34.9708C52.2033 34.577 52.2836 34.1252 52.2199 33.6821C52.1561 33.2391 51.9516 32.8283 51.6366 32.5107C51.2504 32.1217 50.7266 31.9007 50.1787 31.8956L50.1683 31.9061Z" fill="#B82F05"/>
</g>
<path d="M45.7475 50.198C45.9074 50.3606 46.0856 50.504 46.2786 50.6254C43.4713 52.3333 40.1124 52.8862 36.9066 52.1682C36.7629 52.1387 36.627 52.0792 36.5079 51.9935C36.3888 51.9078 36.289 51.7978 36.2153 51.6709C36.1416 51.5439 36.0955 51.4028 36.08 51.2568C36.0646 51.1107 36.0801 50.9631 36.1256 50.8235C36.1749 50.6582 36.2643 50.5078 36.386 50.3856C36.5082 50.2673 36.6575 50.1807 36.8209 50.1335C36.9843 50.0862 37.1567 50.0797 37.3232 50.1146C39.9389 50.7135 42.6841 50.3002 45.0082 48.9575C45.1509 49.4247 45.4045 49.8504 45.7475 50.198Z" fill="white" stroke="white" stroke-width="0.875"/>
<path d="M50.5483 33.0083C52.3112 35.8271 52.8947 39.2273 52.1728 42.4735C52.1419 42.6152 52.0818 42.7489 51.9964 42.8661C51.9109 42.9833 51.802 43.0813 51.6765 43.1539C51.5511 43.2265 51.4119 43.2721 51.2678 43.2877C51.1237 43.3034 50.978 43.2888 50.8399 43.2449C50.5873 43.176 50.3698 43.0144 50.2308 42.7922C50.0919 42.5701 50.0417 42.3037 50.0901 42.0461C50.6716 39.4737 50.2783 36.7767 48.9863 34.4781C49.3764 34.3314 49.7312 34.1041 50.0277 33.811C50.2456 33.575 50.4216 33.3036 50.5483 33.0083Z" fill="white" stroke="white" stroke-width="0.875"/>
<path d="M43.2285 28.5573C43.1792 28.7225 43.0897 28.873 42.9681 28.9951C42.8459 29.1135 42.6966 29.2 42.5332 29.2473C42.3698 29.2945 42.1974 29.301 42.0309 29.2661C39.4612 28.684 36.7671 29.0778 34.4709 30.3711C34.3243 29.9807 34.0972 29.6255 33.8044 29.3287C33.5782 29.0977 33.314 28.9073 33.0234 28.7658C35.8379 27.0268 39.2199 26.4582 42.4475 27.1813C42.5949 27.21 42.7343 27.2703 42.8563 27.358C42.9782 27.4458 43.0798 27.5589 43.154 27.6896C43.2281 27.8203 43.2732 27.9655 43.2861 28.1153C43.2989 28.265 43.2793 28.4158 43.2285 28.5573Z" fill="white" stroke="white" stroke-width="0.875"/>
<path d="M28.9929 36.3963C29.1111 36.5187 29.1976 36.6681 29.2448 36.8317C29.292 36.9952 29.2985 37.1679 29.2636 37.3345C28.6821 39.9069 29.0755 42.6038 30.3674 44.9024C29.9774 45.0492 29.6226 45.2765 29.3261 45.5696C29.0953 45.796 28.9051 46.0605 28.7638 46.3514C27.0267 43.534 26.4586 40.1484 27.181 36.9175C27.2104 36.7736 27.2699 36.6376 27.3555 36.5184C27.4411 36.3991 27.5509 36.2993 27.6777 36.2255C27.8046 36.1517 27.9456 36.1055 28.0914 36.09C28.2373 36.0746 28.3848 36.0901 28.5243 36.1357C28.7005 36.1801 28.8621 36.27 28.9929 36.3963Z" fill="white" stroke="white" stroke-width="0.875"/>
<path d="M47.9564 52.1992C47.1664 52.1963 46.3935 51.9685 45.7279 51.5425C45.4747 51.3821 45.2407 51.1932 45.0303 50.9796C44.5527 50.5168 44.1952 49.9443 43.9889 49.3117C43.7186 48.4743 43.7199 47.5727 43.9926 46.736C44.2654 45.8993 44.7956 45.1705 45.5073 44.6539C46.2191 44.1372 47.0759 43.8593 47.9551 43.8599C48.8343 43.8604 49.6907 44.1395 50.4018 44.657C51.1129 45.1745 51.6422 45.904 51.9139 46.7411C52.1855 47.5781 52.1857 48.4797 51.9143 49.3168C51.6429 50.1539 51.1138 50.8836 50.4029 51.4013C49.6919 51.9191 48.8356 52.1984 47.9564 52.1992ZM47.9564 45.9447C47.6289 45.9455 47.3062 46.0236 47.0145 46.1726C46.7228 46.3216 46.4703 46.5375 46.2775 46.8025C46.0848 47.0676 45.9572 47.3744 45.9051 47.6981C45.853 48.0218 45.878 48.3532 45.9779 48.6654C46.0727 48.9837 46.2444 49.2737 46.4777 49.5098C46.581 49.6165 46.6963 49.711 46.8213 49.7912C47.0917 49.9621 47.3978 50.0683 47.7157 50.1016C48.0337 50.135 48.3551 50.0947 48.655 49.9837C48.9549 49.8727 49.2253 49.6941 49.4451 49.4617C49.6649 49.2293 49.8284 48.9494 49.9228 48.6436C50.0171 48.3378 50.0399 48.0143 49.9893 47.6983C49.9387 47.3823 49.8161 47.0821 49.631 46.8212C49.4459 46.5602 49.2033 46.3454 48.9219 46.1934C48.6405 46.0414 48.328 45.9563 48.0085 45.9447H47.9564Z" fill="white" stroke="white" stroke-width="0.875"/>
<path d="M31.5749 35.75C30.9437 35.7505 30.3207 35.6074 29.7528 35.3315C29.185 35.0556 28.6872 34.6542 28.2971 34.1574C27.907 33.6607 27.6347 33.0818 27.5009 32.4643C27.3671 31.8468 27.3752 31.2069 27.5247 30.593C27.6741 29.9791 27.961 29.4073 28.3636 28.9207C28.7662 28.434 29.2741 28.0454 29.8487 27.784C30.4234 27.5227 31.0499 27.3955 31.6809 27.4121C32.3118 27.4287 32.9308 27.5886 33.491 27.8797C33.8785 28.0683 34.2307 28.3222 34.5323 28.6303C34.92 29.0161 35.2247 29.4773 35.4278 29.9854C35.7542 30.745 35.8433 31.5856 35.6834 32.3968C35.5236 33.208 35.1223 33.9517 34.5323 34.5304C34.1439 34.9187 33.6827 35.2264 33.1752 35.4357C32.6677 35.645 32.1238 35.7518 31.5749 35.75ZM31.5749 29.4955C31.0286 29.4978 30.505 29.7149 30.1171 30.1001C29.9234 30.2937 29.7698 30.5236 29.665 30.7767C29.5602 31.0298 29.5062 31.3011 29.5062 31.5751C29.5062 31.8491 29.5602 32.1204 29.665 32.3735C29.7698 32.6266 29.9234 32.8565 30.1171 33.0501C30.3105 33.244 30.5402 33.3977 30.793 33.5027C31.0458 33.6076 31.3168 33.6616 31.5905 33.6616C31.8642 33.6616 32.1352 33.6076 32.3881 33.5027C32.6409 33.3977 32.8706 33.244 33.064 33.0501C33.3527 32.759 33.5491 32.3891 33.6288 31.9867C33.7084 31.5844 33.6677 31.1674 33.5118 30.7881C33.4119 30.5301 33.2594 30.2958 33.064 30.1001C32.922 29.9552 32.7565 29.8354 32.5746 29.7457C32.2592 29.5833 31.9087 29.501 31.5541 29.5059L31.5749 29.4955Z" fill="white" stroke="white" stroke-width="0.875"/>
<path d="M31.575 51.97C30.861 51.968 30.1595 51.7822 29.5378 51.4305C28.9162 51.0788 28.3953 50.5731 28.0252 49.9618C27.6551 49.3505 27.4481 48.6543 27.4242 47.9399C27.4003 47.2255 27.5603 46.517 27.8887 45.8823C28.0773 45.4945 28.3309 45.1419 28.6385 44.8399C29.024 44.4518 29.4846 44.1467 29.9922 43.9434C30.751 43.6167 31.5907 43.5275 32.4011 43.6876C33.2114 43.8476 33.9544 44.2493 34.5324 44.8399C35.1156 45.423 35.5128 46.1663 35.6738 46.9756C35.8348 47.7848 35.7523 48.6237 35.4368 49.386C35.1213 50.1484 34.5869 50.7998 33.9013 51.2579C33.2157 51.7161 32.4097 51.9603 31.5855 51.9596L31.575 51.97ZM31.575 45.7155C31.0192 45.7265 30.4878 45.946 30.0859 46.3305C29.9414 46.4729 29.8217 46.6385 29.7319 46.8205C29.5193 47.2143 29.4389 47.6661 29.5027 48.1091C29.5664 48.5522 29.7709 48.9629 30.0859 49.2806C30.2794 49.4744 30.5091 49.6282 30.7619 49.7331C31.0147 49.838 31.2857 49.892 31.5594 49.892C31.8331 49.892 32.1041 49.838 32.357 49.7331C32.6098 49.6282 32.8395 49.4744 33.0329 49.2806C33.2265 49.087 33.3801 48.857 33.485 48.6039C33.5898 48.3508 33.6437 48.0795 33.6437 47.8056C33.6437 47.5316 33.5898 47.2603 33.485 47.0072C33.3801 46.7541 33.2265 46.5242 33.0329 46.3305C32.6535 45.9427 32.1379 45.7184 31.5959 45.7051L31.575 45.7155Z" fill="white" stroke="white" stroke-width="0.875"/>
<path d="M47.768 35.7604C47.0848 35.7564 46.4131 35.5843 45.812 35.2591C45.2109 34.934 44.6989 34.4658 44.3212 33.8958C43.9436 33.3259 43.7117 32.6717 43.6462 31.9909C43.5806 31.3101 43.6834 30.6236 43.9454 29.9919C44.2074 29.3602 44.6206 28.8028 45.1485 28.3687C45.6765 27.9346 46.3031 27.6371 46.973 27.5026C47.6428 27.3681 48.3355 27.4006 48.9899 27.5972C49.6443 27.7939 50.2403 28.1486 50.7254 28.6303C51.3506 29.2568 51.7603 30.0664 51.8951 30.9417C52.0299 31.8169 51.8828 32.7124 51.4752 33.4984C51.2864 33.8861 51.0329 34.2386 50.7254 34.5408C49.9322 35.313 48.8744 35.753 47.768 35.7709V35.7604ZM47.768 29.5059C47.3574 29.5076 46.9564 29.6308 46.6156 29.86C46.2747 30.0892 46.0091 30.4142 45.8522 30.7941C45.6953 31.174 45.654 31.5918 45.7337 31.9951C45.8133 32.3983 46.0103 32.769 46.2998 33.0606C46.5906 33.3495 46.9601 33.5462 47.3621 33.6259C47.764 33.7056 48.1805 33.6649 48.5595 33.5088C48.8137 33.4081 49.0443 33.2554 49.2363 33.0606C49.3809 32.9182 49.5006 32.7526 49.5904 32.5706C49.803 32.1768 49.8834 31.725 49.8196 31.282C49.7558 30.8389 49.5513 30.4282 49.2363 30.1105C48.8501 29.7215 48.3263 29.5006 47.7785 29.4955L47.768 29.5059Z" fill="white" stroke="white" stroke-width="0.875"/>
<defs>
<filter id="filter0_f_295_7874" x="24.0253" y="24.0251" width="36.1" height="36.1001" filterUnits="userSpaceOnUse" color-interpolation-filters="sRGB">
<feFlood flood-opacity="0" result="BackgroundImageFix"/>
<feBlend mode="normal" in="SourceGraphic" in2="BackgroundImageFix" result="shape"/>
<feGaussianBlur stdDeviation="2.625" result="effect1_foregroundBlur_295_7874"/>
</filter>
<linearGradient id="paint0_linear_295_7874" x1="40" y1="0" x2="40" y2="80" gradientUnits="userSpaceOnUse">
<stop stop-color="#FFB29A"/>
<stop offset="1" stop-color="#FF6435"/>
</linearGradient>
<linearGradient id="paint1_linear_295_7874" x1="40" y1="6" x2="40" y2="74" gradientUnits="userSpaceOnUse">
<stop stop-color="#FFB29A"/>
<stop offset="1" stop-color="#FF6435"/>
</linearGradient>
<linearGradient id="paint2_linear_295_7874" x1="40" y1="12" x2="40" y2="68" gradientUnits="userSpaceOnUse">
<stop stop-color="#FFB29A"/>
<stop offset="1" stop-color="#FF6435"/>
</linearGradient>
</defs>
</svg>
