<svg width="80" height="80" viewBox="0 0 80 80" fill="none" xmlns="http://www.w3.org/2000/svg">
<path opacity="0.2" d="M34 3.4641C37.7128 1.32051 42.2872 1.32051 46 3.4641L68.641 16.5359C72.3538 18.6795 74.641 22.641 74.641 26.9282V53.0718C74.641 57.359 72.3538 61.3205 68.641 63.4641L46 76.5359C42.2872 78.6795 37.7128 78.6795 34 76.5359L11.359 63.4641C7.64617 61.3205 5.35898 57.359 5.35898 53.0718V26.9282C5.35898 22.641 7.64617 18.6795 11.359 16.5359L34 3.4641Z" fill="url(#paint0_linear_295_7855)"/>
<path opacity="0.4" d="M34 9.4641C37.7128 7.32051 42.2872 7.32051 46 9.4641L63.4449 19.5359C67.1577 21.6795 69.4449 25.641 69.4449 29.9282V50.0718C69.4449 54.359 67.1577 58.3205 63.4449 60.4641L46 70.5359C42.2872 72.6795 37.7128 72.6795 34 70.5359L16.5551 60.4641C12.8423 58.3205 10.5551 54.359 10.5551 50.0718V29.9282C10.5551 25.641 12.8423 21.6795 16.5551 19.5359L34 9.4641Z" fill="url(#paint1_linear_295_7855)"/>
<path d="M34.75 15.0311C37.9987 13.1554 42.0013 13.1554 45.25 15.0311L58.9987 22.9689C62.2474 24.8446 64.2487 28.3109 64.2487 32.0622V47.9378C64.2487 51.6891 62.2474 55.1554 58.9987 57.0311L45.25 64.9689C42.0013 66.8446 37.9987 66.8446 34.75 64.9689L21.0013 57.0311C17.7526 55.1554 15.7513 51.6891 15.7513 47.9378V32.0622C15.7513 28.3109 17.7526 24.8446 21.0013 22.9689L34.75 15.0311Z" fill="url(#paint2_linear_295_7855)"/>
<g opacity="0.6" filter="url(#filter0_f_295_7855)">
<path fill-rule="evenodd" clip-rule="evenodd" d="M39.4885 31.1882C37.0351 31.1882 35.0391 33.1843 35.0391 35.6378C35.0391 37.302 35.9576 38.7554 37.3141 39.5185C37.9575 39.8804 38.6992 40.0873 39.4885 40.0873C40.2779 40.0873 41.0196 39.8804 41.663 39.5185C43.0196 38.7554 43.938 37.3019 43.938 35.6378C43.938 33.1843 41.942 31.1882 39.4885 31.1882ZM46.9355 43.8311C46.9355 42.9524 47.5532 42.0588 48.4319 42.0588H48.6052C50.6452 42.0588 52.305 43.7186 52.3049 45.7586V46.5046V47.1248V47.8708C52.305 49.9108 50.6452 51.5706 48.6052 51.5706H48.4319C47.5532 51.5706 46.9355 50.6769 46.9355 49.7983V49.3446V48.6047V45.0247V44.2283V43.8311ZM41.7027 42.0588H37.5741C35.7153 42.0588 34.2031 43.6212 34.2031 45.5417V47.4339V47.477V49.1542C34.2031 50.8612 35.7153 52.25 37.5741 52.25H41.7027C43.5615 52.25 45.0737 50.8612 45.0737 49.1542V47.477V47.4339V45.5417C45.0737 43.6212 43.5615 42.0588 41.7027 42.0588ZM45.334 37.3044C45.334 35.4695 46.8267 33.9768 48.6616 33.9768C50.4965 33.9768 51.9892 35.4695 51.9892 37.3044C51.9892 39.1393 50.4965 40.6321 48.6616 40.6321C48.1962 40.6321 47.753 40.5357 47.3503 40.3623C46.6542 40.0627 46.0803 39.5322 45.7251 38.8676C45.4758 38.4013 45.334 37.8692 45.334 37.3044Z" fill="#B82F05"/>
</g>
<path fill-rule="evenodd" clip-rule="evenodd" d="M36.3325 27.75C33.5677 27.75 31.3184 29.9993 31.3184 32.7641C31.3184 34.6395 32.3534 36.2774 33.882 37.1373C34.6071 37.5452 35.443 37.7782 36.3325 37.7782C37.2219 37.7782 38.0578 37.5452 38.7829 37.1373C40.3115 36.2774 41.3465 34.6395 41.3465 32.7641C41.3465 29.9994 39.0972 27.75 36.3325 27.75ZM38.8263 40H34.1737C32.0791 40 30.375 41.7606 30.375 43.9248V46.0571V46.1057V47.9957C30.375 49.9194 32.0791 51.4844 34.1737 51.4844H38.8263C40.9209 51.4844 42.625 49.9194 42.625 47.9957V46.1057V46.0571V43.9248C42.625 41.7606 40.9209 40 38.8263 40ZM44.7212 41.9972C44.7212 41.007 45.4174 40 46.4075 40H46.6028C48.9017 40 50.7721 41.8703 50.772 44.1692V45.01V45.7087V46.5495C50.7721 48.8484 48.9017 50.7188 46.6028 50.7188H46.4075C45.4174 50.7188 44.7212 49.7117 44.7212 48.7216V48.2103V47.3765V43.3423V42.4449V41.9972ZM42.9181 34.6423C42.9181 32.5746 44.6002 30.8924 46.668 30.8924C48.7357 30.8924 50.4178 32.5746 50.4178 34.6423C50.4178 36.71 48.7357 38.3922 46.668 38.3922C46.1435 38.3922 45.644 38.2835 45.1903 38.0882C44.4059 37.7505 43.7591 37.1527 43.3588 36.4038C43.0779 35.8783 42.9181 35.2787 42.9181 34.6423Z" fill="white"/>
<defs>
<filter id="filter0_f_295_7855" x="28.9531" y="25.9382" width="28.6018" height="31.5618" filterUnits="userSpaceOnUse" color-interpolation-filters="sRGB">
<feFlood flood-opacity="0" result="BackgroundImageFix"/>
<feBlend mode="normal" in="SourceGraphic" in2="BackgroundImageFix" result="shape"/>
<feGaussianBlur stdDeviation="2.625" result="effect1_foregroundBlur_295_7855"/>
</filter>
<linearGradient id="paint0_linear_295_7855" x1="40" y1="0" x2="40" y2="80" gradientUnits="userSpaceOnUse">
<stop stop-color="#FFB29A"/>
<stop offset="1" stop-color="#FF6435"/>
</linearGradient>
<linearGradient id="paint1_linear_295_7855" x1="40" y1="6" x2="40" y2="74" gradientUnits="userSpaceOnUse">
<stop stop-color="#FFB29A"/>
<stop offset="1" stop-color="#FF6435"/>
</linearGradient>
<linearGradient id="paint2_linear_295_7855" x1="40" y1="12" x2="40" y2="68" gradientUnits="userSpaceOnUse">
<stop stop-color="#FFB29A"/>
<stop offset="1" stop-color="#FF6435"/>
</linearGradient>
</defs>
</svg>
