<svg width="80" height="80" viewBox="0 0 80 80" fill="none" xmlns="http://www.w3.org/2000/svg">
<path opacity="0.2" d="M34 3.4641C37.7128 1.32051 42.2872 1.32051 46 3.4641L68.641 16.5359C72.3538 18.6795 74.641 22.641 74.641 26.9282V53.0718C74.641 57.359 72.3538 61.3205 68.641 63.4641L46 76.5359C42.2872 78.6795 37.7128 78.6795 34 76.5359L11.359 63.4641C7.64617 61.3205 5.35898 57.359 5.35898 53.0718V26.9282C5.35898 22.641 7.64617 18.6795 11.359 16.5359L34 3.4641Z" fill="url(#paint0_linear_295_7896)"/>
<path opacity="0.4" d="M34 9.4641C37.7128 7.32051 42.2872 7.32051 46 9.4641L63.4449 19.5359C67.1577 21.6795 69.4449 25.641 69.4449 29.9282V50.0718C69.4449 54.359 67.1577 58.3205 63.4449 60.4641L46 70.5359C42.2872 72.6795 37.7128 72.6795 34 70.5359L16.5551 60.4641C12.8423 58.3205 10.5551 54.359 10.5551 50.0718V29.9282C10.5551 25.641 12.8423 21.6795 16.5551 19.5359L34 9.4641Z" fill="url(#paint1_linear_295_7896)"/>
<path d="M34.75 15.0311C37.9987 13.1554 42.0013 13.1554 45.25 15.0311L58.9987 22.9689C62.2474 24.8446 64.2487 28.3109 64.2487 32.0622V47.9378C64.2487 51.6891 62.2474 55.1554 58.9987 57.0311L45.25 64.9689C42.0013 66.8446 37.9987 66.8446 34.75 64.9689L21.0013 57.0311C17.7526 55.1554 15.7513 51.6891 15.7513 47.9378V32.0622C15.7513 28.3109 17.7526 24.8446 21.0013 22.9689L34.75 15.0311Z" fill="url(#paint2_linear_295_7896)"/>
<g opacity="0.6" filter="url(#filter0_f_295_7896)">
<path fill-rule="evenodd" clip-rule="evenodd" d="M54.3653 41.3731H47.0845C46.8508 41.3731 46.6486 41.2123 46.5944 40.9849C46.0836 38.844 44.3913 37.157 42.2475 36.6538C42.0192 36.6002 41.8574 36.3976 41.8574 36.1633V28.8852C41.8574 28.5847 42.1186 28.3521 42.4174 28.3837C45.5977 28.7208 48.5446 30.1219 50.8383 32.415C53.1254 34.7027 54.5256 37.6412 54.8667 40.8124C54.8988 41.1115 54.6661 41.3731 54.3653 41.3731ZM54.8725 43.8238C54.592 46.5104 53.5521 49.0312 51.8573 51.1327C51.6684 51.3668 51.3189 51.3874 51.1062 51.1746L47.0301 47.0985L45.9576 46.026C45.7916 45.86 45.7635 45.6023 45.8868 45.4026C46.2152 44.871 46.4605 44.2831 46.6051 43.6569C46.658 43.4275 46.8609 43.2644 47.0963 43.2644H54.371C54.6713 43.2643 54.9037 43.5251 54.8725 43.8238ZM49.73 53.2647C49.9634 53.0756 49.9835 52.7269 49.7711 52.5145L44.6248 47.3684C44.4582 47.2017 44.1991 47.1741 43.9992 47.299C43.103 47.8591 42.0449 48.1834 40.9123 48.1834C37.6909 48.1834 35.0703 45.5622 35.0703 42.3415C35.0703 39.5795 36.9964 37.2601 39.5756 36.6542C39.8043 36.6005 39.9668 36.3981 39.9668 36.1633V28.8854C39.9668 28.5853 39.7063 28.3522 39.4079 28.3838C36.2272 28.7206 33.2799 30.1217 30.9866 32.415C28.3411 35.0604 26.8587 38.6637 26.8751 42.4049C26.8915 46.1303 28.35 49.6307 30.9866 52.2672C33.6382 54.9181 37.1634 56.3787 40.9124 56.3787C44.1612 56.3787 47.2407 55.2816 49.73 53.2647Z" fill="#B82F05"/>
</g>
<path fill-rule="evenodd" clip-rule="evenodd" d="M53.4903 38.7481H46.2095C45.9758 38.7481 45.7736 38.5873 45.7194 38.3599C45.2086 36.219 43.5163 34.532 41.3725 34.0288C41.1442 33.9752 40.9824 33.7726 40.9824 33.5383V26.2602C40.9824 25.9597 41.2436 25.7271 41.5424 25.7587C44.7227 26.0958 47.6696 27.4969 49.9633 29.79C52.2504 32.0777 53.6506 35.0162 53.9917 38.1874C54.0238 38.4865 53.7911 38.7481 53.4903 38.7481ZM53.9975 41.1988C53.717 43.8854 52.6771 46.4062 50.9823 48.5077C50.7934 48.7418 50.4439 48.7624 50.2312 48.5496L46.1551 44.4735L45.0826 43.401C44.9166 43.235 44.8885 42.9773 45.0118 42.7776C45.3402 42.246 45.5855 41.6581 45.7301 41.0319C45.783 40.8025 45.9859 40.6394 46.2213 40.6394H53.496C53.7963 40.6393 54.0287 40.9001 53.9975 41.1988ZM48.855 50.6397C49.0884 50.4506 49.1085 50.1019 48.8961 49.8895L43.7498 44.7434C43.5832 44.5767 43.3241 44.5491 43.1242 44.674C42.228 45.2341 41.1699 45.5584 40.0373 45.5584C36.8159 45.5584 34.1953 42.9372 34.1953 39.7165C34.1953 36.9545 36.1214 34.6351 38.7006 34.0292C38.9293 33.9755 39.0918 33.7731 39.0918 33.5383V26.2604C39.0918 25.9603 38.8313 25.7272 38.5329 25.7588C35.3522 26.0956 32.4049 27.4967 30.1116 29.79C27.4661 32.4354 25.9837 36.0387 26.0001 39.7799C26.0165 43.5053 27.475 47.0057 30.1116 49.6422C32.7632 52.2931 36.2884 53.7537 40.0374 53.7537C43.2862 53.7537 46.3657 52.6566 48.855 50.6397Z" fill="white"/>
<path fill-rule="evenodd" clip-rule="evenodd" d="M44.6789 45.6629L43.6042 44.5881C43.4375 44.4215 43.1785 44.3938 42.9786 44.5186C42.0824 45.0788 41.0243 45.4031 39.8917 45.4031C36.6703 45.4031 34.0497 42.7819 34.0497 39.5611C34.0497 36.7992 35.9757 34.4798 38.555 33.8738C38.7836 33.8201 38.9461 33.6178 38.9461 33.383V31.8809C35.0969 32.3412 32.1144 35.6226 32.125 39.598C32.1364 43.8918 35.5843 47.3293 39.8782 47.3284C41.6912 47.328 43.3593 46.7052 44.6789 45.6629ZM40.875 33.3792V31.8809C44.3801 32.3139 47.1602 35.0871 47.604 38.5891H46.1021C45.8685 38.5891 45.6662 38.4283 45.612 38.2009C45.1012 36.06 43.4089 34.373 41.2651 33.8698C41.0368 33.8162 40.875 33.6136 40.875 33.3792ZM47.5752 40.4842C47.4081 41.9183 46.8495 43.2327 46.0086 44.3183L44.9361 43.2457C44.7701 43.0798 44.742 42.8221 44.8653 42.6224C45.1937 42.0908 45.4391 41.5029 45.5836 40.8767C45.6365 40.6473 45.8394 40.4842 46.0748 40.4842H47.5752Z" fill="#FFD0C1"/>
<defs>
<filter id="filter0_f_295_7896" x="21.625" y="23.1309" width="38.5002" height="38.4978" filterUnits="userSpaceOnUse" color-interpolation-filters="sRGB">
<feFlood flood-opacity="0" result="BackgroundImageFix"/>
<feBlend mode="normal" in="SourceGraphic" in2="BackgroundImageFix" result="shape"/>
<feGaussianBlur stdDeviation="2.625" result="effect1_foregroundBlur_295_7896"/>
</filter>
<linearGradient id="paint0_linear_295_7896" x1="40" y1="0" x2="40" y2="80" gradientUnits="userSpaceOnUse">
<stop stop-color="#FFB29A"/>
<stop offset="1" stop-color="#FF6435"/>
</linearGradient>
<linearGradient id="paint1_linear_295_7896" x1="40" y1="6" x2="40" y2="74" gradientUnits="userSpaceOnUse">
<stop stop-color="#FFB29A"/>
<stop offset="1" stop-color="#FF6435"/>
</linearGradient>
<linearGradient id="paint2_linear_295_7896" x1="40" y1="12" x2="40" y2="68" gradientUnits="userSpaceOnUse">
<stop stop-color="#FFB29A"/>
<stop offset="1" stop-color="#FF6435"/>
</linearGradient>
</defs>
</svg>
