<svg width="80" height="80" viewBox="0 0 80 80" fill="none" xmlns="http://www.w3.org/2000/svg">
<path opacity="0.2" d="M34 3.4641C37.7128 1.32051 42.2872 1.32051 46 3.4641L68.641 16.5359C72.3538 18.6795 74.641 22.641 74.641 26.9282V53.0718C74.641 57.359 72.3538 61.3205 68.641 63.4641L46 76.5359C42.2872 78.6795 37.7128 78.6795 34 76.5359L11.359 63.4641C7.64617 61.3205 5.35898 57.359 5.35898 53.0718V26.9282C5.35898 22.641 7.64617 18.6795 11.359 16.5359L34 3.4641Z" fill="url(#paint0_linear_295_7846)"/>
<path opacity="0.4" d="M34 9.4641C37.7128 7.32051 42.2872 7.32051 46 9.4641L63.4449 19.5359C67.1577 21.6795 69.4449 25.641 69.4449 29.9282V50.0718C69.4449 54.359 67.1577 58.3205 63.4449 60.4641L46 70.5359C42.2872 72.6795 37.7128 72.6795 34 70.5359L16.5551 60.4641C12.8423 58.3205 10.5551 54.359 10.5551 50.0718V29.9282C10.5551 25.641 12.8423 21.6795 16.5551 19.5359L34 9.4641Z" fill="url(#paint1_linear_295_7846)"/>
<path d="M34 15.4641C37.7128 13.3205 42.2872 13.3205 46 15.4641L58.2487 22.5359C61.9615 24.6795 64.2487 28.641 64.2487 32.9282V47.0718C64.2487 51.359 61.9615 55.3205 58.2487 57.4641L46 64.5359C42.2872 66.6795 37.7128 66.6795 34 64.5359L21.7513 57.4641C18.0385 55.3205 15.7513 51.359 15.7513 47.0718V32.9282C15.7513 28.641 18.0385 24.6795 21.7513 22.5359L34 15.4641Z" fill="url(#paint2_linear_295_7846)"/>
<mask id="mask0_295_7846" style="mask-type:alpha" maskUnits="userSpaceOnUse" x="15" y="13" width="50" height="54">
<path d="M34 15.4641C37.7128 13.3205 42.2872 13.3205 46 15.4641L58.2487 22.5359C61.9615 24.6795 64.2487 28.641 64.2487 32.9282V47.0718C64.2487 51.359 61.9615 55.3205 58.2487 57.4641L46 64.5359C42.2872 66.6795 37.7128 66.6795 34 64.5359L21.7513 57.4641C18.0385 55.3205 15.7513 51.359 15.7513 47.0718V32.9282C15.7513 28.641 18.0385 24.6795 21.7513 22.5359L34 15.4641Z" fill="url(#paint3_linear_295_7846)"/>
</mask>
<g mask="url(#mask0_295_7846)">
<g opacity="0.6" filter="url(#filter0_f_295_7846)">
<path d="M41.3125 36.5C39.1414 36.5 37.375 38.363 37.375 40.6528C37.375 42.9427 39.1414 44.8057 41.3125 44.8057C43.4836 44.8057 45.25 42.9427 45.25 40.6528C45.25 38.363 43.4836 36.5 41.3125 36.5Z" fill="#B82F05"/>
<path d="M46.2115 47.5187C45.1335 46.3643 43.7044 45.7285 42.1875 45.7285H40.4375C38.9206 45.7285 37.4915 46.3643 36.4135 47.5187C35.3408 48.6675 34.75 50.1838 34.75 51.7886C34.75 52.0434 34.9459 52.25 35.1875 52.25H47.4375C47.6791 52.25 47.875 52.0434 47.875 51.7886C47.875 50.1838 47.2842 48.6675 46.2115 47.5187Z" fill="#B82F05"/>
<path fill-rule="evenodd" clip-rule="evenodd" d="M41.3553 26.875C33.358 26.875 26.875 33.3803 26.875 41.4051C26.875 49.4299 33.358 55.9353 41.3553 55.9353C49.3525 55.9353 55.8355 49.4299 55.8355 41.4051C55.8355 33.3803 49.3525 26.875 41.3553 26.875ZM60.4032 60.3752C59.5975 61.198 58.2721 61.2096 57.4521 60.4012L51.664 54.6941C52.7652 53.8327 53.7562 52.8365 54.6131 51.7303L60.3774 57.414C61.1973 58.2224 61.209 59.5524 60.4032 60.3752ZM41.3553 30.9206C47.1259 30.9206 51.8038 35.6147 51.8038 41.4051C51.8038 47.1955 47.1258 51.8896 41.3553 51.8896C35.5847 51.8896 30.9067 47.1955 30.9067 41.4051C30.9067 35.6147 35.5847 30.9206 41.3553 30.9206Z" fill="#B82F05"/>
</g>
<path d="M40 33.875C37.3946 33.875 35.275 35.945 35.275 38.4893C35.275 41.0336 37.3946 43.1035 40 43.1035C42.6054 43.1035 44.725 41.0336 44.725 38.4893C44.725 35.945 42.6054 33.875 40 33.875Z" fill="#FFE2DA"/>
<path d="M40 33.875C37.3946 33.875 35.275 35.945 35.275 38.4893C35.275 41.0336 37.3946 43.1035 40 43.1035C42.6054 43.1035 44.725 41.0336 44.725 38.4893C44.725 35.945 42.6054 33.875 40 33.875Z" fill="url(#paint4_linear_295_7846)"/>
<path d="M45.8788 46.118C44.5852 44.8353 42.8703 44.1289 41.05 44.1289H38.95C37.1297 44.1289 35.4148 44.8353 34.1212 46.118C32.8339 47.3944 32.125 49.0793 32.125 50.8623C32.125 51.1454 32.3601 51.375 32.65 51.375H47.35C47.6399 51.375 47.875 51.1454 47.875 50.8623C47.875 49.0793 47.1661 47.3944 45.8788 46.118Z" fill="#FFE2DA"/>
<path d="M45.8788 46.118C44.5852 44.8353 42.8703 44.1289 41.05 44.1289H38.95C37.1297 44.1289 35.4148 44.8353 34.1212 46.118C32.8339 47.3944 32.125 49.0793 32.125 50.8623C32.125 51.1454 32.3601 51.375 32.65 51.375H47.35C47.6399 51.375 47.875 51.1454 47.875 50.8623C47.875 49.0793 47.1661 47.3944 45.8788 46.118Z" fill="url(#paint5_linear_295_7846)"/>
<path fill-rule="evenodd" clip-rule="evenodd" d="M39.6053 26C31.608 26 25.125 32.5053 25.125 40.5301C25.125 48.5549 31.608 55.0603 39.6053 55.0603C47.6025 55.0603 54.0855 48.5549 54.0855 40.5301C54.0855 32.5053 47.6025 26 39.6053 26ZM58.6532 59.5002C57.8475 60.323 56.5221 60.3346 55.7021 59.5262L49.914 53.8191C51.0152 52.9577 52.0062 51.9615 52.8631 50.8553L58.6274 56.539C59.4473 57.3474 59.459 58.6774 58.6532 59.5002ZM39.6053 30.0456C45.3759 30.0456 50.0538 34.7397 50.0538 40.5301C50.0538 46.3205 45.3758 51.0146 39.6053 51.0146C33.8347 51.0146 29.1567 46.3205 29.1567 40.5301C29.1567 34.7397 33.8347 30.0456 39.6053 30.0456Z" fill="white"/>
</g>
<defs>
<filter id="filter0_f_295_7846" x="20.875" y="20.875" width="46.125" height="46.125" filterUnits="userSpaceOnUse" color-interpolation-filters="sRGB">
<feFlood flood-opacity="0" result="BackgroundImageFix"/>
<feBlend mode="normal" in="SourceGraphic" in2="BackgroundImageFix" result="shape"/>
<feGaussianBlur stdDeviation="3" result="effect1_foregroundBlur_295_7846"/>
</filter>
<linearGradient id="paint0_linear_295_7846" x1="40" y1="0" x2="40" y2="80" gradientUnits="userSpaceOnUse">
<stop stop-color="#FFB29A"/>
<stop offset="1" stop-color="#FF6435"/>
</linearGradient>
<linearGradient id="paint1_linear_295_7846" x1="40" y1="6" x2="40" y2="74" gradientUnits="userSpaceOnUse">
<stop stop-color="#FFB29A"/>
<stop offset="1" stop-color="#FF6435"/>
</linearGradient>
<linearGradient id="paint2_linear_295_7846" x1="40" y1="12" x2="40" y2="68" gradientUnits="userSpaceOnUse">
<stop stop-color="#FFB29A"/>
<stop offset="1" stop-color="#FF6435"/>
</linearGradient>
<linearGradient id="paint3_linear_295_7846" x1="40" y1="12" x2="40" y2="68" gradientUnits="userSpaceOnUse">
<stop stop-color="#FFB29A"/>
<stop offset="1" stop-color="#FF6435"/>
</linearGradient>
<linearGradient id="paint4_linear_295_7846" x1="40" y1="33.875" x2="40" y2="48.0096" gradientUnits="userSpaceOnUse">
<stop stop-color="white"/>
<stop offset="1" stop-color="#FDCBBC"/>
</linearGradient>
<linearGradient id="paint5_linear_295_7846" x1="40" y1="33.875" x2="40" y2="48.0096" gradientUnits="userSpaceOnUse">
<stop stop-color="white"/>
<stop offset="1" stop-color="#FDCBBC"/>
</linearGradient>
</defs>
</svg>
