<svg width="26" height="26" viewBox="0 0 26 26" fill="none" xmlns="http://www.w3.org/2000/svg">
<rect x="0.5" y="0.5" width="21" height="21" rx="1.83333" fill="#FFEDE8"/>
<path fill-rule="evenodd" clip-rule="evenodd" d="M5.93335 21V24.4667C5.93335 25.203 6.5303 25.8 7.26668 25.8H24.6C25.3364 25.8 25.9333 25.203 25.9333 24.4667V7.13332C25.9333 6.39694 25.3364 5.79999 24.6 5.79999H20.9999V19.6666C20.9999 20.403 20.403 21 19.6666 21H5.93335Z" fill="#FF6435"/>
<path d="M12.2375 6.02292C12.301 6.09138 12.3618 6.15839 12.4185 6.22889C12.7622 6.65627 12.9856 7.1375 13.0848 7.6743C13.0936 7.7218 13.1229 7.74558 13.1727 7.74562C13.6082 7.74562 14.0438 7.74518 14.4793 7.74575C14.7746 7.74613 15.0061 7.97912 14.9998 8.26773C14.9938 8.54077 14.7658 8.76231 14.4885 8.76269C14.0368 8.76333 13.5851 8.7632 13.1335 8.76212C13.1046 8.76205 13.0955 8.77108 13.091 8.79746C12.9052 9.90512 12.1229 10.8615 11.067 11.2752C10.6687 11.4313 10.256 11.5096 9.82739 11.5086C9.48754 11.5079 9.14775 11.5085 8.8079 11.5085C8.79635 11.5085 8.7848 11.5085 8.77312 11.5085C8.77105 11.5215 8.7808 11.525 8.78622 11.5303C9.38204 12.1177 9.97806 12.705 10.574 13.2922C11.1875 13.8967 11.801 14.5011 12.4145 15.1055C12.7612 15.4471 13.1078 15.7887 13.4547 16.13C13.6557 16.3279 13.6572 16.6498 13.4574 16.8482C13.2563 17.0477 12.9307 17.0517 12.729 16.8533C12.094 16.2293 11.4603 15.6041 10.8262 14.9793C9.85333 14.0209 8.88055 13.0624 7.90771 12.104C7.65677 11.8567 7.40583 11.6096 7.15477 11.3625C7.00417 11.2143 6.95964 10.999 7.03991 10.805C7.11818 10.6158 7.30634 10.4914 7.51817 10.4913C8.29247 10.4909 9.06677 10.4911 9.84107 10.4911C10.6712 10.4911 11.4407 10.0375 11.834 9.31703C11.9235 9.15302 11.9918 8.98106 12.0385 8.80071C12.0451 8.77545 12.0352 8.76284 12.009 8.76288C10.5121 8.76288 9.01509 8.76288 7.51811 8.76288C7.22962 8.76288 6.99939 8.53523 7.00049 8.25152C7.00152 7.97975 7.2222 7.75586 7.49882 7.746C7.51172 7.74556 7.52463 7.74562 7.53753 7.74562C9.02696 7.74562 10.5165 7.74562 12.0059 7.74562C12.0337 7.74562 12.0444 7.73297 12.038 7.70767C11.8288 6.87655 11.1286 6.22215 10.2757 6.05992C10.1263 6.0315 9.97567 6.01777 9.82378 6.0177C9.05593 6.01732 8.28808 6.01758 7.52024 6.01751C7.26349 6.01751 7.05069 5.84155 7.00733 5.59381C6.96513 5.35263 7.1056 5.11633 7.34234 5.03064C7.40358 5.00845 7.4672 5.00006 7.53217 5.00006C9.8443 5.00006 12.1565 5.00013 14.4686 5C14.5873 5 14.6955 5.03121 14.7916 5.10101C14.9691 5.23006 15.0432 5.46044 14.9742 5.66819C14.9049 5.87664 14.709 6.01739 14.4861 6.01745C13.7484 6.0177 13.0106 6.01751 12.2729 6.0177C12.2626 6.0177 12.2517 6.01453 12.2374 6.02285L12.2375 6.02292Z" fill="#FF6435" stroke="#FF6435" stroke-width="0.5"/>
<rect x="0.5" y="0.5" width="21" height="21" rx="1.83333" stroke="#FF6435"/>
</svg>
