<svg width="38" height="38" viewBox="0 0 38 38" fill="none" xmlns="http://www.w3.org/2000/svg">
<g clip-path="url(#clip0_3620_6322)">
<path d="M37.75 32.5417C37.75 35.4187 35.4187 37.75 32.5417 37.75H5.45833C2.58229 37.75 0.25 35.4187 0.25 32.5417V5.45833C0.25 2.58125 2.58229 0.25 5.45833 0.25H32.5417C35.4187 0.25 37.75 2.58125 37.75 5.45833V32.5417Z" fill="#0288D1"/>
<path d="M6.5 13.7917H11.7083V31.5H6.5V13.7917ZM9.08854 11.7083H9.05937C7.50521 11.7083 6.5 10.55 6.5 9.10312C6.5 7.625 7.53646 6.5 9.11875 6.5C10.7031 6.5 11.6792 7.625 11.7083 9.10312C11.7083 10.549 10.7031 11.7083 9.08854 11.7083ZM31.5 31.5H26.2917V22.0219C26.2917 19.7323 25.0156 18.1698 22.9667 18.1698C21.4031 18.1698 20.5573 19.224 20.1469 20.2427C19.9969 20.6073 20.0417 21.6156 20.0417 22.125V31.5H14.8333V13.7917H20.0417V16.5167C20.7927 15.3542 21.9688 13.7917 24.9771 13.7917C28.7042 13.7917 31.499 16.1354 31.499 21.3687L31.5 31.5Z" fill="white"/>
</g>
<defs>
<clipPath id="clip0_3620_6322">
<rect width="38" height="38" fill="white"/>
</clipPath>
</defs>
</svg>
