<svg width="26" height="26" viewBox="0 0 26 26" fill="none" xmlns="http://www.w3.org/2000/svg">
<rect x="0.5" y="0.5" width="21" height="21" rx="1.83333" fill="#FFEDE8"/>
<path fill-rule="evenodd" clip-rule="evenodd" d="M5.93335 21V24.4667C5.93335 25.203 6.5303 25.8 7.26668 25.8H24.6C25.3364 25.8 25.9333 25.203 25.9333 24.4667V7.13332C25.9333 6.39694 25.3364 5.79999 24.6 5.79999H20.9999V19.6666C20.9999 20.403 20.403 21 19.6666 21H5.93335Z" fill="#FF6435"/>
<path d="M3.5 15L6.62005 6.80986C6.94006 5.96985 8.11959 5.94572 8.47369 6.77194L10.2403 10.8939C10.3978 11.2616 10.7594 11.5 11.1594 11.5H17.5" stroke="#FF6435" stroke-width="2" stroke-linecap="round"/>
<rect x="12" y="4" width="4" height="8" rx="1" fill="#FF6435"/>
<rect x="0.5" y="0.5" width="21" height="21" rx="1.83333" stroke="#FF6435"/>
</svg>
