<svg width="25" height="24" viewBox="0 0 25 24" fill="none" xmlns="http://www.w3.org/2000/svg">
<path d="M21.25 7H3.75C3.06 7 2.5 6.328 2.5 5.5C2.5 4.672 3.06 4 3.75 4H21.25C21.94 4 22.5 4.672 22.5 5.5C22.5 6.328 21.94 7 21.25 7Z" fill="#666666"/>
<path d="M21.25 13H3.75C3.06 13 2.5 12.328 2.5 11.5C2.5 10.672 3.06 10 3.75 10H21.25C21.94 10 22.5 10.672 22.5 11.5C22.5 12.328 21.94 13 21.25 13Z" fill="#666666"/>
<path d="M21.25 19H3.75C3.06 19 2.5 18.328 2.5 17.5C2.5 16.672 3.06 16 3.75 16H21.25C21.94 16 22.5 16.672 22.5 17.5C22.5 18.328 21.94 19 21.25 19Z" fill="#666666"/>
<circle cx="18" cy="17.5" r="2.5" fill="white" stroke="#666666" stroke-width="2"/>
<circle cx="7" cy="11.5" r="2.5" fill="white" stroke="#666666" stroke-width="2"/>
<circle cx="15" cy="5.5" r="2.5" fill="white" stroke="#666666" stroke-width="2"/>
</svg>
