<svg width="16" height="16" viewBox="0 0 16 16" fill="none" xmlns="http://www.w3.org/2000/svg">
<path d="M10.59 7.658L8 5.5L5.41 7.658C5.3735 7.6884 5.32909 7.70778 5.28198 7.71385C5.23487 7.71993 5.187 7.71246 5.14398 7.69231C5.10096 7.67216 5.06457 7.64018 5.03907 7.6001C5.01357 7.56002 5.00002 7.5135 5 7.466V0H11V7.466C11 7.5135 10.9864 7.56002 10.9609 7.6001C10.9354 7.64018 10.899 7.67216 10.856 7.69231C10.813 7.71246 10.7651 7.71993 10.718 7.71385C10.6709 7.70778 10.6265 7.6884 10.59 7.658Z" fill="#666666"/>
<path d="M14 16H2C1.46957 16 0.960859 15.7893 0.585786 15.4142C0.210714 15.0391 0 14.5304 0 14V2C0 1.46957 0.210714 0.960859 0.585786 0.585786C0.960859 0.210714 1.46957 0 2 0L4 0V2H2V14H14V2H12V0H14C14.5304 0 15.0391 0.210714 15.4142 0.585786C15.7893 0.960859 16 1.46957 16 2V14C16 14.5304 15.7893 15.0391 15.4142 15.4142C15.0391 15.7893 14.5304 16 14 16Z" fill="#666666"/>
</svg>
