<svg width="24" height="20" viewBox="0 0 24 20" fill="none" xmlns="http://www.w3.org/2000/svg">
<path d="M0.762362 5.44727C0.341335 5.44727 0 5.7886 0 6.20963V12.1601C0 12.5811 0.341335 12.9225 0.762362 12.9225C1.18339 12.9225 1.52472 12.5811 1.52472 12.1601V6.20963C1.52472 5.7886 1.18339 5.44727 0.762362 5.44727Z" fill="#666666" stroke="#666666" stroke-width="0.3"/>
<path d="M16.9172 1H13.7453C13.3243 1 12.983 1.34133 12.983 1.76236V2.45103L2.77393 5.47842C2.45028 5.57438 2.22828 5.8718 2.22828 6.20927V12.1569C2.22808 12.195 2.23174 12.2335 2.23743 12.272C2.23844 12.2791 2.23946 12.2862 2.24068 12.2932C2.24637 12.3247 2.25329 12.3562 2.26314 12.3876L4.42429 19.2895C4.52634 19.6155 4.82712 19.8242 5.15158 19.8242C5.2269 19.8242 5.30355 19.813 5.37927 19.7893L8.52641 18.8052C8.71944 18.7448 8.88055 18.6103 8.97427 18.4312C9.06809 18.252 9.08679 18.043 9.02641 17.8499L7.95545 14.4275L12.9829 15.9187V16.6073C12.9829 17.0283 13.3242 17.3696 13.7452 17.3696H16.9171C17.3381 17.3696 17.6794 17.0283 17.6794 16.6073V1.76236C17.6795 1.34133 17.3382 1 16.9172 1ZM7.34363 17.5775L5.65159 18.1066L4.14577 13.2975L6.19439 13.9051L7.34363 17.5775ZM7.02171 12.5603C7.01957 12.5596 7.01734 12.5589 7.0152 12.5583L3.75311 11.5907V6.7784L12.9831 4.04142V14.3284L7.02171 12.5603ZM16.1548 15.845H14.5077V15.3497V3.02016V2.52483H16.1548V15.845Z" fill="#666666" stroke="#666666" stroke-width="0.3"/>
<path d="M22.8671 13.4529L19.5684 11.8033C19.1917 11.6151 18.7339 11.7675 18.5455 12.1442C18.3572 12.5208 18.5098 12.9787 18.8865 13.1671L22.1851 14.8167C22.2946 14.8715 22.4109 14.8973 22.5256 14.8973C22.8052 14.8973 23.0745 14.7429 23.208 14.4758C23.3963 14.0992 23.2436 13.6413 22.8671 13.4529Z" fill="#666666" stroke="#666666" stroke-width="0.3"/>
<path d="M19.228 6.64672C19.3425 6.64672 19.4589 6.6208 19.5683 6.56601L22.8671 4.91656C23.2437 4.72821 23.3964 4.27039 23.208 3.89378C23.0198 3.51717 22.5617 3.3645 22.1852 3.55285L18.8865 5.2023C18.5098 5.39065 18.3572 5.84847 18.5455 6.22508C18.6791 6.49231 18.9484 6.64672 19.228 6.64672Z" fill="#666666" stroke="#666666" stroke-width="0.3"/>
<path d="M23.2375 8.42249H20.4831C20.062 8.42249 19.7207 8.76382 19.7207 9.18485C19.7207 9.60587 20.062 9.94721 20.4831 9.94721H23.2375C23.6586 9.94721 23.9999 9.60587 23.9999 9.18485C23.9999 8.76372 23.6586 8.42249 23.2375 8.42249Z" fill="#666666" stroke="#666666" stroke-width="0.3"/>
</svg>
