<svg width="16" height="14" viewBox="0 0 16 14" fill="none" xmlns="http://www.w3.org/2000/svg">
<path d="M5 6C5.59337 6 6.17341 5.82404 6.66676 5.49437C7.16012 5.16471 7.54464 4.69614 7.77169 4.14793C7.99873 3.59972 8.05812 2.99649 7.94232 2.41454C7.82652 1.83258 7.54074 1.29803 7.12113 0.878495C6.70152 0.458959 6.16693 0.173278 5.58495 0.0575816C5.00297 -0.0581148 4.39975 0.00136991 3.85159 0.228513C3.30342 0.455657 2.83492 0.840256 2.50534 1.33367C2.17575 1.82709 1.9999 2.40716 2 3.00053C2.00083 3.79587 2.31719 4.55839 2.87963 5.12074C3.44208 5.68308 4.20465 5.99931 5 6Z" fill="#666666"/>
<path d="M12 6C13.1046 6 14 5.10457 14 4C14 2.89543 13.1046 2 12 2C10.8954 2 10 2.89543 10 4C10 5.10457 10.8954 6 12 6Z" fill="#666666"/>
<path d="M9.44172 9.6538C8.67807 8.87401 7.69825 8.33854 6.62743 8.11579C5.5566 7.89305 4.44339 7.99314 3.42999 8.40329C2.41658 8.81343 1.54899 9.515 0.938033 10.4184C0.327077 11.3218 0.000494305 12.386 0 13.475C0 13.6143 0.0555571 13.7478 0.154449 13.8462C0.253342 13.9447 0.387468 14 0.527323 14H10.4726C10.6125 14 10.7466 13.9447 10.8455 13.8462C10.9444 13.7478 11 13.6143 11 13.475C11.002 12.9184 10.9157 12.3649 10.7442 11.835C10.4889 11.0159 10.0426 10.2685 9.44172 9.6538Z" fill="#666666"/>
<path d="M12.0198 8C11.3084 8.00237 10.6109 8.17416 10 8.49741C10.1152 8.58871 10.2314 8.67859 10.3402 8.77741C11.0628 9.43602 11.5996 10.2368 11.9068 11.1144C12.012 11.4033 12.0896 11.6995 12.1387 12H15.4693C15.6101 12 15.745 11.9504 15.8446 11.8622C15.9441 11.7739 16 11.6542 16 11.5294C15.9989 10.5937 15.5792 9.69652 14.833 9.03484C14.0868 8.37316 13.0751 8.001 12.0198 8Z" fill="#666666"/>
</svg>
