<svg width="97" height="9" viewBox="0 0 97 9" fill="none" xmlns="http://www.w3.org/2000/svg">
<path d="M86.3098 5.88189C88.0022 5.821 89.6947 5.83219 91.3928 5.84461C92.3824 5.84461 93.2202 6.08817 94.1687 6.51191C94.9593 6.86357 95.8843 5.40845 96.605 4.88779C97.1555 4.50008 97.1201 1.88186 96.564 1.54262C95.9607 1.17853 94.9942 -0.0690741 94.3678 0.0029986C94.0923 0.0402776 93.8758 0.426736 93.6301 0.609403C93.2022 0.923789 92.781 0.875326 92.3475 0.936215C90.6607 1.17853 88.9626 1.27545 87.2702 1.38481C84.2249 1.56623 81.1739 1.67558 78.1287 1.82097C71.8688 2.11175 65.6027 2.41495 59.3424 2.70572L21.7636 4.48766C14.6721 4.8269 7.51599 4.71755 0.44147 5.94154C-0.16702 6.05089 -0.138246 8.74243 0.476848 8.79089C6.72543 9.32398 13.0207 8.69397 19.2693 8.48769C25.5353 8.28141 31.7952 8.00306 38.0617 7.76075C50.5876 7.27612 63.1136 6.77907 75.64 6.29445L86.3041 5.88189H86.3098Z" fill="#ffb6a0"/>
</svg>
