<svg width="149" height="44" viewBox="0 0 149 44" fill="none" xmlns="http://www.w3.org/2000/svg">
<path d="M68.1439 38.744V9.66739L65.1608 9.41799C64.4349 9.3573 63.704 9.41838 62.9982 9.5987V9.5987C62.8195 9.64437 62.6465 9.71071 62.4784 9.78678C60.0756 10.8742 60.1373 9.15578 56.59 9.15578C50.4933 9.15578 46.5283 13.9735 46.5283 20.1128C46.5283 26.4227 50.7918 31.1551 56.7606 31.1551C59.5318 31.1551 61.6209 30.1319 62.6015 28.5544V37.9581C62.6015 38.4314 62.8934 38.8557 63.3355 39.0248V39.0248C63.8137 39.2077 64.3302 39.2671 64.8374 39.1975L68.1439 38.744ZM52.2413 20.1128C52.2413 16.361 54.5436 14.2293 57.4427 14.2293C60.3418 14.2293 62.6441 16.361 62.6441 20.1128C62.6441 23.8646 60.3418 26.0816 57.4427 26.0816C54.5436 26.0816 52.2413 23.8646 52.2413 20.1128Z" fill="white"/>
<path d="M81.5018 26.1242C78.7305 26.1242 76.1725 24.0778 76.1725 20.1554C76.1725 16.1904 78.7305 14.1866 81.5018 14.1866C84.273 14.1866 86.8311 16.1904 86.8311 20.1554C86.8311 24.1204 84.273 26.1242 81.5018 26.1242ZM81.5018 9.02788C75.2345 9.02788 70.5021 13.675 70.5021 20.1554C70.5021 26.5932 75.2345 31.283 81.5018 31.283C87.769 31.283 92.5014 26.5932 92.5014 20.1554C92.5014 13.675 87.769 9.02788 81.5018 9.02788Z" fill="white"/>
<path d="M107.365 9.58212C106.938 9.53949 106.512 9.49686 106.043 9.49686C104.252 9.49686 101.353 8.67615 100.074 11.4474L99.6719 11.0011C98.3906 9.58003 96.3876 9.05595 94.5745 9.66739V9.66739V30.6435H100.245V21.0508C100.245 16.5315 102.76 15.1246 105.659 15.1246C106.171 15.1246 106.725 15.1672 107.365 15.2951V9.58212Z" fill="white"/>
<path d="M123.718 30.6435H129.132C129.047 29.9187 128.919 28.4691 128.919 26.849V9.66739H123.249V21.8608C123.249 24.291 121.799 25.9963 119.284 25.9963C116.64 25.9963 115.447 24.1204 115.447 21.7755V9.66739H109.776V22.9267C109.776 27.4885 112.675 31.1977 117.749 31.1977C119.966 31.1977 122.396 30.345 123.547 28.3839C123.547 29.2365 123.632 30.2171 123.718 30.6435Z" fill="white"/>
<path d="M145.773 30.6044C146.636 30.6277 147.416 30.0949 147.709 29.2828L149 25.6979H138.597L148.829 14.3998V9.66739L145.887 9.99248L135.037 9.70629C134.16 9.68316 133.371 10.2338 133.09 11.0645L131.903 14.5703H141.581L131.648 25.6553V30.6435L134.895 30.3104L145.773 30.6044Z" fill="white"/>
<path fill-rule="evenodd" clip-rule="evenodd" d="M32.2629 37.5328C32.9941 36.4669 34.4536 36.1942 35.5226 36.9224L39.6097 39.6988C40.6818 40.427 40.9545 41.8802 40.2263 42.9461C39.495 44.0121 38.0356 44.2878 36.9635 43.5597L32.8764 40.7802C31.8074 40.052 31.5316 38.5988 32.2629 37.5328ZM28.6065 32.2435L30.1155 31.2767C31.2 30.5826 31.8538 29.3866 31.8538 28.1068V17.8628C31.8538 15.229 31.8291 14.4078 31.609 13.7013C31.3921 13.0041 31.0389 12.3565 30.5679 11.7988C30.0907 11.2348 29.409 10.77 27.1842 9.34467L23.7695 7.16014C21.1698 5.49928 20.3394 5.0066 19.512 4.81449C18.6971 4.62547 17.8481 4.62547 17.0331 4.81449C16.2058 5.0066 15.3754 5.49928 12.7787 7.16014L8.00994 10.2092C7.18261 10.7391 6.92542 10.9095 6.71162 11.083C5.59921 11.9847 4.88653 13.283 4.7254 14.7022C4.69751 14.9532 4.69131 15.2321 4.69131 16.0377L28.6065 32.2435ZM15.9703 0.262609C17.4855 -0.0875362 19.0596 -0.0875362 20.5749 0.262609C22.2977 0.662331 23.847 1.65699 25.9789 3.02038C26.0842 3.08855 26.1927 3.15982 26.3042 3.23109L29.7189 5.41562C29.8149 5.47449 29.9048 5.53337 29.9978 5.59224C31.8291 6.76352 33.1646 7.61564 34.1561 8.79002C35.033 9.82806 35.6899 11.0272 36.0928 12.3194C36.5483 13.7881 36.5483 15.3684 36.5452 17.5343C36.5452 17.6428 36.5452 17.7512 36.5452 17.8628V28.1068C36.5452 30.9793 35.0795 33.6534 32.6533 35.2058L26.3042 39.2681C26.1927 39.3393 26.0842 39.4075 25.9789 39.4788C23.847 40.8422 22.2977 41.8368 20.5749 42.2335C19.0596 42.5836 17.4855 42.5836 15.9703 42.2335C14.2506 41.8368 12.6982 40.8422 10.5694 39.4788C10.4609 39.4075 10.3525 39.3393 10.2409 39.2681L5.77273 36.408C5.72625 36.3802 5.67668 36.3492 5.6302 36.3182C4.69751 35.7201 4.01581 35.2863 3.42708 34.7658C1.65157 33.201 0.480287 31.0691 0.117748 28.7359C0.055776 28.3206 0.024789 27.4685 0.0123945 26.5761C0.00619764 26.2724 0.00309823 26.1206 0.0216904 25.9843C0.130142 25.095 0.842826 24.373 1.72903 24.249C1.86537 24.2305 2.0265 24.2305 2.34566 24.2305C2.67101 24.2305 2.83524 24.2305 2.96848 24.249C3.85779 24.3699 4.54258 25.0454 4.67582 25.9316C4.69751 26.0679 4.69751 26.2353 4.70371 26.5761C4.71301 27.2702 4.7285 27.8404 4.75639 28.0201C4.9516 29.275 5.58062 30.4246 6.53809 31.2674C6.82007 31.5184 7.17331 31.7508 8.31051 32.479L12.7787 35.3359C15.3754 36.9999 16.2058 37.4926 17.0331 37.6816C17.8481 37.8706 18.6971 37.8706 19.512 37.6816C20.3394 37.4926 21.1698 36.9999 23.7695 35.3359L24.3149 34.9858L1.86227 19.7715C1.85298 19.7653 1.84368 19.756 1.83129 19.7498C1.71974 19.6755 1.54001 19.5515 1.36959 19.409C0.613526 18.7645 0.130142 17.8597 0.0216904 16.8712C-1.9799e-07 16.6543 0 16.4343 0 16.3011C0 16.2887 0 16.2763 0 16.2639C0 16.2236 0 16.1802 0 16.14C0 15.3343 2.00945e-07 14.7456 0.0650711 14.1785C0.362539 11.5447 1.68565 9.13397 3.74933 7.45761C4.19244 7.09817 4.68822 6.78211 5.36991 6.3452C5.404 6.32351 5.44118 6.30182 5.47527 6.28013L10.2409 3.23109C10.3525 3.15982 10.4609 3.08855 10.5694 3.02038C12.6982 1.65699 14.2506 0.662331 15.9703 0.262609Z" fill="white"/>
</svg>
