<svg width="47" height="54" viewBox="0 0 47 54" fill="none" xmlns="http://www.w3.org/2000/svg">
<path d="M23.0103 0.133256L17.3207 3.45215C17.0199 3.62762 16.835 3.94965 16.835 4.2979V16.4688C16.835 17.2003 17.6079 17.6735 18.2594 17.3409L29.3815 11.6615C29.7091 11.4942 29.9153 11.1574 29.9153 10.7895V4.28578C29.9153 3.94407 29.7372 3.62708 29.4453 3.44941L24.0127 0.142636C23.7056 -0.0442871 23.3208 -0.0478879 23.0103 0.133256Z" fill="url(#paint0_angular_1_1853)"/>
<path d="M46.2565 13.1333L40.5375 9.86545C40.2351 9.69268 39.8637 9.69351 39.5621 9.86763L29.0218 15.9531C28.3883 16.3189 28.365 17.2248 28.9788 17.6227L39.4583 24.415C39.767 24.6151 40.1618 24.6253 40.4804 24.4413L46.1128 21.1895C46.4087 21.0186 46.5942 20.7058 46.6021 20.3642L46.7496 14.0061C46.7579 13.6467 46.5686 13.3116 46.2565 13.1333Z" fill="url(#paint1_angular_1_1853)"/>
<path d="M46.6213 39.7651L46.5919 33.1784C46.5903 32.8302 46.4039 32.509 46.1023 32.3348L35.562 26.2494C34.9285 25.8836 34.1322 26.3164 34.0946 27.0469L33.452 39.5186C33.4331 39.886 33.6217 40.233 33.9403 40.4169L39.5726 43.6688C39.8686 43.8396 40.2322 43.8439 40.532 43.6799L46.112 40.6286C46.4274 40.4561 46.6229 40.1246 46.6213 39.7651Z" fill="url(#paint2_angular_1_1853)"/>
<path d="M23.7398 53.3972L29.4293 50.0783C29.7301 49.9028 29.9151 49.5808 29.9151 49.2325V37.0616C29.9151 36.3301 29.1421 35.8569 28.4906 36.1896L17.3686 41.8689C17.0409 42.0362 16.8347 42.3731 16.8347 42.741V49.2447C16.8347 49.5864 17.0129 49.9034 17.3047 50.081L22.7373 53.3878C23.0444 53.5747 23.4292 53.5783 23.7398 53.3972Z" fill="url(#paint3_angular_1_1853)"/>
<path d="M0.493365 40.3972L6.21237 43.6651C6.51474 43.8378 6.88611 43.837 7.1877 43.6629L17.7281 37.5774C18.3615 37.2117 18.3849 36.3057 17.771 35.9078L7.29152 29.1155C6.98282 28.9154 6.58801 28.9052 6.26942 29.0892L0.637037 32.341C0.341108 32.5119 0.155659 32.8247 0.147736 33.1663L0.000264424 39.5244C-0.00807177 39.8838 0.181224 40.2189 0.493365 40.3972Z" fill="url(#paint4_angular_1_1853)"/>
<path d="M0.128611 13.7652L0.15809 20.3519C0.159649 20.7002 0.346057 21.0214 0.647645 21.1955L11.188 27.281C11.8215 27.6467 12.6178 27.2139 12.6554 26.4834L13.298 14.0117C13.3169 13.6443 13.1283 13.2973 12.8097 13.1134L7.17732 9.86153C6.88139 9.69067 6.5178 9.68645 6.21798 9.8504L0.637959 12.9017C0.322534 13.0742 0.127002 13.4057 0.128611 13.7652Z" fill="url(#paint5_angular_1_1853)"/>
<path d="M22.2436 19.008C22.8494 18.6582 23.5959 18.6582 24.2018 19.008L29.0272 21.7939C29.633 22.1437 30.0063 22.7902 30.0063 23.4898V29.0616C30.0063 29.7612 29.633 30.4077 29.0272 30.7575L24.2018 33.5434C23.5959 33.8932 22.8494 33.8932 22.2436 33.5434L17.4182 30.7575C16.8123 30.4077 16.4391 29.7612 16.4391 29.0616V23.4898C16.4391 22.7902 16.8123 22.1437 17.4182 21.7939L22.2436 19.008Z" fill="#FF6435"/>
<path d="M22.2436 19.008C22.8494 18.6582 23.5959 18.6582 24.2018 19.008L29.0272 21.7939C29.633 22.1437 30.0063 22.7902 30.0063 23.4898V29.0616C30.0063 29.7612 29.633 30.4077 29.0272 30.7575L24.2018 33.5434C23.5959 33.8932 22.8494 33.8932 22.2436 33.5434L17.4182 30.7575C16.8123 30.4077 16.4391 29.7612 16.4391 29.0616V23.4898C16.4391 22.7902 16.8123 22.1437 17.4182 21.7939L22.2436 19.008Z" fill="url(#paint6_angular_1_1853)"/>
<defs>
<radialGradient id="paint0_angular_1_1853" cx="0" cy="0" r="1" gradientUnits="userSpaceOnUse" gradientTransform="translate(23 8.99988) rotate(126.027) scale(13.6015 13.9697)">
<stop stop-color="#FF6435"/>
<stop offset="1" stop-color="#FFB648"/>
</radialGradient>
<radialGradient id="paint1_angular_1_1853" cx="0" cy="0" r="1" gradientUnits="userSpaceOnUse" gradientTransform="translate(39.5 17.4996) rotate(-177.397) scale(11.0114 13.3517)">
<stop stop-color="#FF6435"/>
<stop offset="1" stop-color="#FFB648"/>
</radialGradient>
<radialGradient id="paint2_angular_1_1853" cx="0" cy="0" r="1" gradientUnits="userSpaceOnUse" gradientTransform="translate(40.036 36.0055) rotate(-119.879) scale(12.1163 12.4011)">
<stop stop-color="#FF6435"/>
<stop offset="1" stop-color="#FFB648"/>
</radialGradient>
<radialGradient id="paint3_angular_1_1853" cx="0" cy="0" r="1" gradientUnits="userSpaceOnUse" gradientTransform="translate(23.3749 45.8391) rotate(-56.0454) scale(11.8616 12.1827)">
<stop stop-color="#FF6435"/>
<stop offset="1" stop-color="#FFB648"/>
</radialGradient>
<radialGradient id="paint4_angular_1_1853" cx="0" cy="0" r="1" gradientUnits="userSpaceOnUse" gradientTransform="translate(8.5 36.5) scale(11 13.338)">
<stop stop-color="#FF6435"/>
<stop offset="1" stop-color="#FFB648"/>
</radialGradient>
<radialGradient id="paint5_angular_1_1853" cx="0" cy="0" r="1" gradientUnits="userSpaceOnUse" gradientTransform="translate(7 17.9999) rotate(59.0362) scale(11.6619 11.9361)">
<stop stop-color="#FF6435"/>
<stop offset="1" stop-color="#FFB648"/>
</radialGradient>
<radialGradient id="paint6_angular_1_1853" cx="0" cy="0" r="1" gradientUnits="userSpaceOnUse" gradientTransform="translate(23.2227 26.2757) rotate(90) scale(7.42693 6.69067)">
<stop stop-color="#EC2CF0"/>
<stop offset="1" stop-color="#AF48FF"/>
</radialGradient>
</defs>
</svg>
