<svg width="18" height="18" viewBox="0 0 18 18" fill="none" xmlns="http://www.w3.org/2000/svg">
<path d="M9 2.441C11.136 2.441 11.389 2.45 12.233 2.488C12.7402 2.49409 13.2425 2.58746 13.718 2.764C14.0658 2.89248 14.3802 3.09754 14.638 3.364C14.9045 3.62179 15.1095 3.93622 15.238 4.284C15.4145 4.75949 15.5079 5.26183 15.514 5.769C15.552 6.613 15.561 6.869 15.561 9.002C15.561 11.135 15.552 11.391 15.514 12.235C15.5079 12.7422 15.4145 13.2445 15.238 13.72C15.1052 14.0651 14.9015 14.3785 14.64 14.64C14.3785 14.9015 14.0651 15.1052 13.72 15.238C13.2445 15.4145 12.7422 15.5079 12.235 15.514C11.391 15.552 11.135 15.561 9.002 15.561C6.869 15.561 6.613 15.552 5.769 15.514C5.26183 15.5079 4.75949 15.4145 4.284 15.238C3.93622 15.1095 3.62179 14.9045 3.364 14.638C3.09754 14.3802 2.89248 14.0658 2.764 13.718C2.58746 13.2425 2.49409 12.7402 2.488 12.233C2.45 11.389 2.441 11.133 2.441 9C2.441 6.867 2.45 6.611 2.488 5.767C2.49409 5.25983 2.58746 4.75749 2.764 4.282C2.89248 3.93422 3.09754 3.61979 3.364 3.362C3.62179 3.09554 3.93622 2.89048 4.284 2.762C4.75949 2.58546 5.26183 2.49209 5.769 2.486C6.613 2.448 6.869 2.439 9.002 2.439M9 1C6.827 1 6.555 1.009 5.7 1.048C5.03696 1.06148 4.381 1.18727 3.76 1.42C3.22596 1.62056 2.74231 1.9356 2.343 2.343C1.9356 2.74231 1.62056 3.22596 1.42 3.76C1.18727 4.381 1.06148 5.03696 1.048 5.7C1.009 6.555 1 6.827 1 9C1 11.173 1.009 11.445 1.048 12.3C1.06148 12.963 1.18727 13.619 1.42 14.24C1.62056 14.774 1.9356 15.2577 2.343 15.657C2.74231 16.0644 3.22596 16.3794 3.76 16.58C4.38163 16.813 5.03828 16.9387 5.702 16.952C6.555 16.991 6.827 17 9 17C11.173 17 11.445 16.991 12.3 16.952C12.9637 16.9387 13.6204 16.813 14.242 16.58C14.7734 16.3743 15.256 16.0599 15.659 15.657C16.0619 15.254 16.3763 14.7714 16.582 14.24C16.815 13.6184 16.9407 12.9617 16.954 12.298C16.993 11.445 17.002 11.173 17.002 8.998C17.002 6.823 16.993 6.553 16.954 5.698C16.9397 5.03552 16.8132 4.38025 16.58 3.76C16.3794 3.22596 16.0644 2.74231 15.657 2.343C15.2577 1.9356 14.774 1.62056 14.24 1.42C13.619 1.18727 12.963 1.06148 12.3 1.048C11.445 1.009 11.173 1 9 1Z" fill="#666666"/>
<path d="M9 2.441C11.136 2.441 11.389 2.45 12.233 2.488C12.7402 2.49409 13.2425 2.58746 13.718 2.764C14.0658 2.89248 14.3802 3.09754 14.638 3.364C14.9045 3.62179 15.1095 3.93622 15.238 4.284C15.4145 4.75949 15.5079 5.26183 15.514 5.769C15.552 6.613 15.561 6.869 15.561 9.002C15.561 11.135 15.552 11.391 15.514 12.235C15.5079 12.7422 15.4145 13.2445 15.238 13.72C15.1052 14.0651 14.9015 14.3785 14.64 14.64C14.3785 14.9015 14.0651 15.1052 13.72 15.238C13.2445 15.4145 12.7422 15.5079 12.235 15.514C11.391 15.552 11.135 15.561 9.002 15.561C6.869 15.561 6.613 15.552 5.769 15.514C5.26183 15.5079 4.75949 15.4145 4.284 15.238C3.93622 15.1095 3.62179 14.9045 3.364 14.638C3.09754 14.3802 2.89248 14.0658 2.764 13.718C2.58746 13.2425 2.49409 12.7402 2.488 12.233C2.45 11.389 2.441 11.133 2.441 9C2.441 6.867 2.45 6.611 2.488 5.767C2.49409 5.25983 2.58746 4.75749 2.764 4.282C2.89248 3.93422 3.09754 3.61979 3.364 3.362C3.62179 3.09554 3.93622 2.89048 4.284 2.762C4.75949 2.58546 5.26183 2.49209 5.769 2.486C6.613 2.448 6.869 2.439 9.002 2.439M9 1C6.827 1 6.555 1.009 5.7 1.048C5.03696 1.06148 4.381 1.18727 3.76 1.42C3.22596 1.62056 2.74231 1.9356 2.343 2.343C1.9356 2.74231 1.62056 3.22596 1.42 3.76C1.18727 4.381 1.06148 5.03696 1.048 5.7C1.009 6.555 1 6.827 1 9C1 11.173 1.009 11.445 1.048 12.3C1.06148 12.963 1.18727 13.619 1.42 14.24C1.62056 14.774 1.9356 15.2577 2.343 15.657C2.74231 16.0644 3.22596 16.3794 3.76 16.58C4.38163 16.813 5.03828 16.9387 5.702 16.952C6.555 16.991 6.827 17 9 17C11.173 17 11.445 16.991 12.3 16.952C12.9637 16.9387 13.6204 16.813 14.242 16.58C14.7734 16.3743 15.256 16.0599 15.659 15.657C16.0619 15.254 16.3763 14.7714 16.582 14.24C16.815 13.6184 16.9407 12.9617 16.954 12.298C16.993 11.445 17.002 11.173 17.002 8.998C17.002 6.823 16.993 6.553 16.954 5.698C16.9397 5.03552 16.8132 4.38025 16.58 3.76C16.3794 3.22596 16.0644 2.74231 15.657 2.343C15.2577 1.9356 14.774 1.62056 14.24 1.42C13.619 1.18727 12.963 1.06148 12.3 1.048C11.445 1.009 11.173 1 9 1Z" stroke="#666666" stroke-width="0.3"/>
<path d="M8.99997 4.89209C8.18748 4.89209 7.39324 5.13302 6.71769 5.58441C6.04213 6.03581 5.5156 6.67739 5.20467 7.42803C4.89375 8.17866 4.8124 9.00465 4.9709 9.80152C5.12941 10.5984 5.52066 11.3304 6.09517 11.9049C6.66969 12.4794 7.40166 12.8706 8.19854 13.0292C8.99541 13.1877 9.82139 13.1063 10.572 12.7954C11.3227 12.4845 11.9643 11.9579 12.4156 11.2824C12.867 10.6068 13.108 9.81257 13.108 9.00009C13.108 8.46062 13.0017 7.92643 12.7953 7.42803C12.5888 6.92962 12.2862 6.47676 11.9048 6.0953C11.5233 5.71383 11.0704 5.41124 10.572 5.20479C10.0736 4.99835 9.53944 4.89209 8.99997 4.89209ZM8.99997 11.6671C8.47249 11.6671 7.95685 11.5107 7.51826 11.2176C7.07968 10.9246 6.73784 10.508 6.53598 10.0207C6.33412 9.53338 6.28131 8.99713 6.38422 8.47978C6.48712 7.96244 6.74113 7.48722 7.11412 7.11424C7.4871 6.74125 7.96232 6.48724 8.47966 6.38434C8.99701 6.28143 9.53326 6.33424 10.0206 6.5361C10.5079 6.73796 10.9244 7.0798 11.2175 7.51838C11.5106 7.95697 11.667 8.47261 11.667 9.00009C11.667 9.70742 11.386 10.3858 10.8858 10.8859C10.3857 11.3861 9.7073 11.6671 8.99997 11.6671Z" fill="#666666" stroke="#666666" stroke-width="0.3"/>
<path d="M13.2701 5.69002C13.8003 5.69002 14.2301 5.26021 14.2301 4.73002C14.2301 4.19983 13.8003 3.77002 13.2701 3.77002C12.7399 3.77002 12.3101 4.19983 12.3101 4.73002C12.3101 5.26021 12.7399 5.69002 13.2701 5.69002Z" fill="#666666" stroke="#666666" stroke-width="0.3"/>
</svg>
