<svg width="24" height="24" viewBox="0 0 24 24" fill="none" xmlns="http://www.w3.org/2000/svg">
<path fill-rule="evenodd" clip-rule="evenodd" d="M6.02417 7.4719C5.33312 7.4719 4.77227 6.91766 4.77227 6.23469C4.77227 5.55172 5.33312 4.99718 6.02417 4.99718C6.71522 4.99718 7.27608 5.55172 7.27608 6.23469C7.27608 6.91766 6.71522 7.4719 6.02417 7.4719ZM23.2667 12.7773L19.1204 8.67952C12.0734 1.71497 13.7222 3.38278 10.9892 0.502443C10.7539 0.269834 10.4359 0 10.1041 0H2.50257C1.12046 0 0 1.38828 0 2.75421V10.2657C0 10.5948 0.131454 10.909 0.365561 11.1416C5.27554 15.9929 1.74014 12.4987 12.6443 23.2753C13.622 24.2416 15.2069 24.2416 16.1847 23.2753C21.6217 17.9031 20.4149 19.0947 23.2667 16.2762C24.2444 15.3099 24.2444 13.7436 23.2667 12.7773Z" fill="#666666"/>
</svg>
