<svg width="19" height="18" viewBox="0 0 19 18" fill="none" xmlns="http://www.w3.org/2000/svg">
<path d="M18.1667 9.66675H-0.166667C-0.626667 9.66675 -1 9.21875 -1 8.66675C-1 8.11475 -0.626667 7.66675 -0.166667 7.66675H18.1667C18.6267 7.66675 19 8.11475 19 8.66675C19 9.21875 18.6267 9.66675 18.1667 9.66675ZM18.1667 2H-0.166667C-0.626667 2 -1 1.552 -1 1C-1 0.448 -0.626667 0 -0.166667 0H18.1667C18.6267 0 19 0.448 19 1C19 1.552 18.6267 2 18.1667 2ZM18.1667 17.3333H-0.166667C-0.626667 17.3333 -1 16.8853 -1 16.3333C-1 15.7812 -0.626667 15.3333 -0.166667 15.3333H18.1667C18.6267 15.3333 19 15.7812 19 16.3333C19 16.8853 18.6267 17.3333 18.1667 17.3333Z" fill="white"/>
</svg>
