<svg width="20" height="20" viewBox="0 0 20 20" fill="none" xmlns="http://www.w3.org/2000/svg">
<g clip-path="url(#clip0_2529_568)">
<path d="M17.8019 0.802837L10.0001 8.60471L2.19819 0.802837C2.01054 0.631123 1.76388 0.538428 1.50958 0.544063C1.25529 0.549697 1.01298 0.653227 0.833119 0.833083C0.653263 1.01294 0.549733 1.25525 0.544099 1.50955C0.538465 1.76384 0.631159 2.0105 0.802873 2.19815L8.60079 10L0.800894 17.7999C0.705602 17.8907 0.629426 17.9997 0.576844 18.1204C0.524262 18.241 0.496335 18.371 0.494705 18.5026C0.493074 18.6343 0.517774 18.7649 0.567351 18.8868C0.616929 19.0088 0.690383 19.1196 0.783397 19.2127C0.87641 19.3059 0.987107 19.3795 1.10898 19.4292C1.23085 19.479 1.36144 19.5038 1.49306 19.5024C1.62469 19.501 1.7547 19.4732 1.87545 19.4208C1.9962 19.3684 2.10526 19.2924 2.19621 19.1972L10.0001 11.3973L17.8019 19.1992C17.9896 19.3709 18.2362 19.4636 18.4905 19.458C18.7448 19.4523 18.9871 19.3488 19.167 19.1689C19.3469 18.9891 19.4504 18.7468 19.456 18.4925C19.4617 18.2382 19.369 17.9915 19.1972 17.8039L11.3954 10.002L19.1972 2.19815C19.2925 2.10734 19.3687 1.99839 19.4213 1.87771C19.4739 1.75704 19.5018 1.62706 19.5034 1.49544C19.5051 1.36382 19.4804 1.23319 19.4308 1.11125C19.3812 0.989309 19.3078 0.878509 19.2147 0.785363C19.1217 0.692217 19.011 0.618606 18.8892 0.568856C18.7673 0.519106 18.6367 0.494221 18.5051 0.495665C18.3735 0.497108 18.2434 0.524851 18.1227 0.577262C18.0019 0.629673 17.8929 0.705694 17.8019 0.800858V0.802837Z" fill="white"/>
</g>
<defs>
<clipPath id="clip0_2529_568">
<rect width="20" height="20" fill="white"/>
</clipPath>
</defs>
</svg>
