<svg width="20" height="20" viewBox="0 0 20 20" fill="none" xmlns="http://www.w3.org/2000/svg">
<g clip-path="url(#clip0_1_2289)">
<path d="M14.1233 0.0633105C12.2833 -0.0225228 7.72578 -0.0183562 5.88411 0.0633105C4.26578 0.139144 2.83828 0.529977 1.68745 1.68081C-0.235888 3.60414 0.00994525 6.19581 0.00994525 9.99664C0.00994525 13.8866 -0.206721 16.4183 1.68745 18.3125C3.61828 20.2425 6.24745 19.99 10.0033 19.99C13.8566 19.99 15.1866 19.9925 16.5491 19.465C18.4016 18.7458 19.7999 17.09 19.9366 14.1158C20.0233 12.275 20.0183 7.71831 19.9366 5.87664C19.7716 2.36581 17.8874 0.236644 14.1233 0.0633105ZM17.0358 17.04C15.7749 18.3008 14.0258 18.1883 9.97911 18.1883C5.81245 18.1883 4.14161 18.25 2.92245 17.0275C1.51828 15.63 1.77245 13.3858 1.77245 9.98331C1.77245 5.37914 1.29995 2.06331 5.92078 1.82664C6.98245 1.78914 7.29495 1.77664 9.96745 1.77664L10.0049 1.80164C14.4458 1.80164 17.9299 1.33664 18.1391 5.95664C18.1866 7.01081 18.1974 7.32748 18.1974 9.99581C18.1966 14.1141 18.2749 15.795 17.0358 17.04Z" fill="#FF6435"/>
<path d="M14.9998 6.94708C14.6279 7.10769 14.2316 7.21415 13.8185 7.26585C14.2435 7.016 14.5679 6.62338 14.7204 6.15015C14.3241 6.38277 13.8866 6.54708 13.4204 6.63877C13.0441 6.24431 12.5079 6 11.9229 6C10.7879 6 9.87413 6.90708 9.87413 8.01908C9.87413 8.17908 9.88788 8.33292 9.92163 8.47938C8.21726 8.39754 6.70913 7.59323 5.69601 6.368C5.51913 6.67015 5.41538 7.016 5.41538 7.38831C5.41538 8.08738 5.78101 8.70708 6.32601 9.06585C5.99663 9.05969 5.67351 8.96554 5.39976 8.81723C5.39976 8.82338 5.39976 8.83138 5.39976 8.83938C5.39976 9.82031 6.11038 10.6351 7.04226 10.8228C6.87538 10.8677 6.69351 10.8892 6.50476 10.8892C6.37351 10.8892 6.24101 10.8818 6.11663 10.8548C6.38226 11.6542 7.13601 12.2418 8.03226 12.2609C7.33476 12.7982 6.44913 13.1218 5.49038 13.1218C5.32226 13.1218 5.16101 13.1145 4.99976 13.0942C5.90788 13.6708 6.98413 14 8.14476 14C11.9173 14 13.9798 10.9231 13.9798 8.256C13.9798 8.16677 13.9766 8.08062 13.9723 7.99508C14.3791 7.71077 14.721 7.35569 14.9998 6.94708Z" fill="#FF6435"/>
</g>
<defs>
<clipPath id="clip0_1_2289">
<rect width="20" height="20" fill="white"/>
</clipPath>
</defs>
</svg>
