<svg width="78" height="18" viewBox="0 0 78 18" fill="none" xmlns="http://www.w3.org/2000/svg">
<rect width="78" height="18" rx="9" fill="#7120FD"/>
<path d="M23.18 13L25.64 5.9H24.12L22.4 11.37L20.67 5.9H19.1L21.55 13H23.18ZM32.2483 13V11.79H28.5383V9.98H31.8483V8.78H28.5383V7.11H32.1783V5.9H27.0783V13H32.2483ZM35.4025 13V10.48H36.6125L38.2225 13H39.8825L38.1125 10.33C39.0325 10.04 39.6325 9.34 39.6325 8.25V8.13C39.6325 6.68 38.5425 5.9 37.0625 5.9H33.9525V13H35.4025ZM35.4025 7.12H36.9125C37.6125 7.12 38.1125 7.42 38.1125 8.13V8.25C38.1125 8.95 37.6125 9.26 36.9125 9.26H35.4025V7.12ZM42.8455 13V5.9H41.3655V13H42.8455ZM46.2508 13V10.14H49.3108V8.94H46.2508V7.11H49.6508V5.9H44.7908V13H46.2508ZM52.8244 13V5.9H51.3444V13H52.8244ZM59.9397 13V11.79H56.2297V9.98H59.5397V8.78H56.2297V7.11H59.8697V5.9H54.7697V13H59.9397ZM64.2739 13C66.4039 13 67.8739 11.77 67.8739 9.56V9.34C67.8739 7.12 66.4039 5.9 64.2739 5.9H61.6439V13H64.2739ZM63.1039 7.12H64.1739C65.5039 7.12 66.3439 7.76 66.3439 9.34V9.56C66.3439 11.14 65.5039 11.78 64.1739 11.78H63.1039V7.12Z" fill="white"/>
<path d="M9 3C5.7 3 3 5.7 3 9C3 12.3 5.7 15 9 15C12.3 15 15 12.3 15 9C15 5.7 12.3 3 9 3ZM8.25 11.55L5.7 9L6.75 7.95L8.25 9.45L11.25 6.45L12.3 7.5L8.25 11.55Z" fill="white"/>
</svg>
