<svg width="20" height="20" viewBox="0 0 20 20" fill="none" xmlns="http://www.w3.org/2000/svg">
<g clip-path="url(#clip0_1_2308)">
<path d="M14.1233 0.0633105C12.2833 -0.0225228 7.72578 -0.0183562 5.88411 0.0633105C4.26578 0.139144 2.83828 0.529977 1.68745 1.68081C-0.235888 3.60414 0.00994525 6.19581 0.00994525 9.99664C0.00994525 13.8866 -0.206721 16.4183 1.68745 18.3125C3.61828 20.2425 6.24745 19.99 10.0033 19.99C13.8566 19.99 15.1866 19.9925 16.5491 19.465C18.4016 18.7458 19.7999 17.09 19.9366 14.1158C20.0233 12.275 20.0183 7.71831 19.9366 5.87664C19.7716 2.36581 17.8874 0.236644 14.1233 0.0633105ZM17.0358 17.04C15.7749 18.3008 14.0258 18.1883 9.97911 18.1883C5.81245 18.1883 4.14161 18.25 2.92245 17.0275C1.51828 15.63 1.77245 13.3858 1.77245 9.98331C1.77245 5.37914 1.29995 2.06331 5.92078 1.82664C6.98245 1.78914 7.29495 1.77664 9.96745 1.77664L10.0049 1.80164C14.4458 1.80164 17.9299 1.33664 18.1391 5.95664C18.1866 7.01081 18.1974 7.32748 18.1974 9.99581C18.1966 14.1141 18.2749 15.795 17.0358 17.04Z" fill="#FF6435"/>
<path d="M13.25 9.56699C13.5833 9.75944 13.5833 10.2406 13.25 10.433L8.75 13.0311C8.41667 13.2235 8 12.983 8 12.5981L8 7.40192C8 7.01702 8.41667 6.77646 8.75 6.96891L13.25 9.56699Z" fill="#FF6435"/>
</g>
<defs>
<clipPath id="clip0_1_2308">
<rect width="20" height="20" fill="white"/>
</clipPath>
</defs>
</svg>
