<svg width="24" height="24" viewBox="0 0 24 24" fill="none" xmlns="http://www.w3.org/2000/svg">
<g clip-path="url(#clip0_1046_1435)">
<path d="M12.0035 5.83801C8.60049 5.83801 5.84549 8.59601 5.84549 11.996C5.84549 15.399 8.60349 18.154 12.0035 18.154C15.4065 18.154 18.1615 15.396 18.1615 11.996C18.1615 8.59301 15.4035 5.83801 12.0035 5.83801V5.83801ZM12.0035 15.993C9.79449 15.993 8.00649 14.204 8.00649 11.996C8.00649 9.78801 9.79549 7.99901 12.0035 7.99901C14.2115 7.99901 16.0005 9.78801 16.0005 11.996C16.0015 14.204 14.2125 15.993 12.0035 15.993V15.993Z" fill="white"/>
<path d="M16.948 0.075997C14.74 -0.027003 9.27101 -0.022003 7.06101 0.075997C5.11901 0.166997 3.40601 0.635997 2.02501 2.017C-0.28299 4.325 0.0120098 7.435 0.0120098 11.996C0.0120098 16.664 -0.24799 19.702 2.02501 21.975C4.34201 24.291 7.49701 23.988 12.004 23.988C16.628 23.988 18.224 23.991 19.859 23.358C22.082 22.495 23.76 20.508 23.924 16.939C24.028 14.73 24.022 9.262 23.924 7.052C23.726 2.839 21.465 0.283997 16.948 0.075997V0.075997ZM20.443 20.448C18.93 21.961 16.831 21.826 11.975 21.826C6.97501 21.826 4.97001 21.9 3.50701 20.433C1.82201 18.756 2.12701 16.063 2.12701 11.98C2.12701 6.455 1.56001 2.476 7.10501 2.192C8.37901 2.147 8.75401 2.132 11.961 2.132L12.006 2.162C17.335 2.162 21.516 1.604 21.767 7.148C21.824 8.413 21.837 8.793 21.837 11.995C21.836 16.937 21.93 18.954 20.443 20.448V20.448Z" fill="white"/>
<path d="M18.4056 7.03413C19.2003 7.03413 19.8446 6.38987 19.8446 5.59513C19.8446 4.80039 19.2003 4.15613 18.4056 4.15613C17.6108 4.15613 16.9666 4.80039 16.9666 5.59513C16.9666 6.38987 17.6108 7.03413 18.4056 7.03413Z" fill="white"/>
</g>
<defs>
<clipPath id="clip0_1046_1435">
<rect width="24" height="24" fill="white"/>
</clipPath>
</defs>
</svg>
