<svg width="24" height="24" viewBox="0 0 24 24" fill="none" xmlns="http://www.w3.org/2000/svg">
<path d="M22.224 0.999939H1.77C0.792 0.999939 0 1.72841 0 2.6277V21.9548C0.00514549 22.3924 0.194585 22.8101 0.526724 23.1164C0.858863 23.4226 1.30655 23.5923 1.7715 23.5882H22.224C23.2035 23.5882 24 22.8555 24 21.9604V2.6277C24 1.72841 23.2035 0.999939 22.224 0.999939V0.999939ZM7.119 20.2494H3.5595V9.46629H7.122V20.2494H7.119ZM5.34 7.99523C5.06439 8.0026 4.79 7.95791 4.53304 7.86381C4.27608 7.76972 4.04176 7.62812 3.8439 7.44738C3.64605 7.26664 3.48868 7.05042 3.38109 6.81149C3.27349 6.57256 3.21785 6.31576 3.21745 6.05625C3.21705 5.79675 3.27189 5.5398 3.37875 5.30057C3.48561 5.06135 3.64231 4.8447 3.8396 4.66342C4.0369 4.48214 4.27078 4.3399 4.52745 4.2451C4.78412 4.1503 5.05837 4.10486 5.334 4.11147C5.87161 4.12436 6.38265 4.33423 6.75833 4.6964C7.13401 5.05857 7.34466 5.54445 7.34544 6.0506C7.34622 6.55675 7.13708 7.0432 6.76252 7.40641C6.38796 7.76961 5.87757 7.98087 5.34 7.99523V7.99523ZM20.4525 20.2465H16.8945V15.0061C16.8945 13.7581 16.872 12.1472 15.0435 12.1472C13.1925 12.1472 12.9105 13.511 12.9105 14.9185V20.2465H9.3555V9.4677H12.768V10.9416H12.816C13.2885 10.0945 14.451 9.19806 16.1805 9.19806C19.7865 9.19806 20.451 11.4315 20.451 14.3341V20.2494L20.4525 20.2465Z" fill="white"/>
</svg>
