<svg width="24" height="24" viewBox="0 0 24 24" fill="none" xmlns="http://www.w3.org/2000/svg">
<path d="M20 9.6C20 10.6098 19.5255 11.9507 18.6543 13.498C17.8012 15.0132 16.6481 16.588 15.4707 18.0289C14.2971 19.4653 13.1202 20.7434 12.2351 21.6638C12.0006 21.9075 11.787 22.1258 11.6 22.3147C11.4129 22.1258 11.1993 21.9075 10.9649 21.6638C10.0798 20.7434 8.90287 19.4653 7.72922 18.0289C6.55186 16.588 5.39869 15.0132 4.54563 13.498C3.67445 11.9507 3.19997 10.6098 3.19997 9.6C3.19997 4.96081 6.96078 1.2 11.6 1.2C16.2392 1.2 20 4.96081 20 9.6Z" stroke="#666666" stroke-width="2.4"/>
<circle cx="11.5999" cy="9.60005" r="3.6" stroke="#666666" stroke-width="2.4"/>
</svg>
