<svg width="24" height="24" viewBox="0 0 24 24" fill="none" xmlns="http://www.w3.org/2000/svg">
<path d="M10.6618 6.81732C10.6529 7.13604 10.5276 7.4843 10.2788 7.79194C9.92859 8.22515 9.58706 8.66554 9.23836 9.09983C9.17361 9.18044 9.16753 9.248 9.20903 9.34403C9.54686 10.1257 9.92989 10.884 10.3692 11.6135C10.7954 12.3209 11.2654 12.9977 11.7809 13.6438C12.2124 14.1848 12.6765 14.6958 13.1577 15.192C13.2224 15.2587 13.2813 15.2704 13.368 15.2443C13.9083 15.0823 14.4504 14.9263 14.9914 14.7661C15.6344 14.5758 16.1887 14.7379 16.6727 15.185C16.9888 15.4772 17.3054 15.769 17.6226 16.0601C18.2305 16.6178 18.8394 17.1742 19.4464 17.7328C19.6379 17.909 19.8484 18.0661 20.0063 18.2764C20.456 18.8751 20.4734 19.6232 20.0372 20.2369C19.7578 20.6299 19.4258 20.9795 19.0788 21.3147C18.5133 21.8611 17.8798 22.3156 17.1991 22.7061C16.911 22.8714 16.608 22.9959 16.2682 23C15.9725 23.0035 15.6957 22.9294 15.4346 22.7932C14.4771 22.2939 13.5575 21.7325 12.6765 21.1088C12.2837 20.8307 11.903 20.5359 11.5274 20.2345C10.9284 19.7542 10.3598 19.2393 9.81235 18.7018C9.30093 18.1999 8.81948 17.6698 8.35868 17.1203C7.92351 16.6015 7.51181 16.0653 7.12205 15.5118C6.70708 14.9226 6.32297 14.3142 5.96536 13.689C5.44003 12.7704 4.9814 11.8195 4.58664 10.8381C4.00439 9.39074 3.574 7.89883 3.29005 6.36477C3.16295 5.67845 3.06214 4.98779 3.00631 4.29235C2.96177 3.73856 3.15317 3.2645 3.57987 2.90233C4.60815 2.02982 5.77526 1.41542 7.07533 1.05933C7.89918 0.833599 8.73323 1.27094 9.03153 2.0711C9.53839 3.43027 10.0448 4.78965 10.5517 6.14882C10.6232 6.34044 10.6627 6.53793 10.6618 6.81732ZM13.0853 16.4844C12.93 16.4829 12.8255 16.4462 12.7084 16.3437C12.6187 16.265 12.5285 16.1859 12.4449 16.101C11.812 15.459 11.2098 14.7905 10.6599 14.0746C9.90121 13.087 9.24422 12.0372 8.68674 10.9242C8.43385 10.4192 8.20247 9.90456 7.99151 9.38053C7.89614 9.14372 7.91482 8.92777 8.07298 8.72789C8.50359 8.18301 8.93246 7.63638 9.36936 7.09671C9.51971 6.91118 9.5499 6.72586 9.46604 6.50295C8.96874 5.17898 8.47752 3.85262 7.9826 2.52778C7.8579 2.19385 7.63847 2.08501 7.29824 2.18234C6.20413 2.49541 5.22321 3.01987 4.35048 3.75072C4.1934 3.88216 4.12714 4.03772 4.14604 4.23586C4.19471 4.75055 4.25945 5.26349 4.34505 5.77318C4.50083 6.70109 4.71374 7.61553 4.98357 8.51758C5.44394 10.0558 6.06747 11.5238 6.8483 12.926C7.32605 13.7839 7.86355 14.603 8.44819 15.3921C9.05238 16.2076 9.71654 16.972 10.4257 17.6961C10.9597 18.2416 11.527 18.7526 12.1181 19.2371C12.8809 19.8619 13.6804 20.4338 14.5177 20.9539C14.9914 21.248 15.4743 21.5257 15.9697 21.7821C16.1233 21.8616 16.2771 21.8872 16.4376 21.8096C16.7316 21.6676 17.0086 21.4961 17.2758 21.3097C17.6771 21.0299 18.0538 20.721 18.3997 20.3725C18.6552 20.115 18.8987 19.8487 19.1153 19.5586C19.2605 19.3644 19.2335 19.1026 19.0599 18.9368C18.9946 18.8743 18.9307 18.81 18.864 18.7489C18.1305 18.0769 17.3968 17.4054 16.6632 16.7338C16.4044 16.497 16.1411 16.2648 15.8873 16.0223C15.7122 15.855 15.5262 15.7914 15.2857 15.8655C14.7259 16.0378 14.1629 16.1998 13.5998 16.3615C13.4306 16.4101 13.2668 16.4849 13.0856 16.4847L13.0853 16.4844Z" fill="#666666" stroke="#666666"/>
</svg>
