<svg width="24" height="24" viewBox="0 0 24 24" fill="none" xmlns="http://www.w3.org/2000/svg">
<g clip-path="url(#clip0_1046_1440)">
<path d="M16.948 0.0755087C14.74 -0.0274913 9.27101 -0.0224913 7.06101 0.0755087C5.11901 0.166509 3.40601 0.635509 2.02501 2.01651C-0.282994 4.32451 0.012006 7.43451 0.012006 11.9955C0.012006 16.6635 -0.247994 19.7015 2.02501 21.9745C4.34201 24.2905 7.49701 23.9875 12.004 23.9875C16.628 23.9875 18.224 23.9905 19.859 23.3575C22.082 22.4945 23.76 20.5075 23.924 16.9385C24.028 14.7295 24.022 9.26151 23.924 7.05151C23.726 2.83851 21.465 0.283509 16.948 0.0755087V0.0755087ZM20.443 20.4475C18.93 21.9605 16.831 21.8255 11.975 21.8255C6.97501 21.8255 4.97001 21.8995 3.50701 20.4325C1.82201 18.7555 2.12701 16.0625 2.12701 11.9795C2.12701 6.45451 1.56001 2.47551 7.10501 2.19151C8.37901 2.14651 8.75401 2.13151 11.961 2.13151L12.006 2.16151C17.335 2.16151 21.516 1.60351 21.767 7.14751C21.824 8.41251 21.837 8.79251 21.837 11.9945C21.836 16.9365 21.93 18.9535 20.443 20.4475V20.4475Z" fill="white"/>
<path d="M18.9998 8.30235C18.5163 8.5232 18.0012 8.66958 17.4642 8.74066C18.0167 8.39712 18.4383 7.85728 18.6366 7.20658C18.1215 7.52643 17.5527 7.75235 16.9466 7.87843C16.4575 7.33605 15.7603 7.00012 14.9998 7.00012C13.5243 7.00012 12.3365 8.24735 12.3365 9.77635C12.3365 9.99635 12.3543 10.2079 12.3982 10.4093C10.1825 10.2967 8.22197 9.19081 6.9049 7.50612C6.67497 7.92158 6.54009 8.39712 6.54009 8.90905C6.54009 9.87028 7.0154 10.7224 7.7239 11.2157C7.29572 11.2072 6.87565 11.0777 6.51978 10.8738C6.51978 10.8823 6.51978 10.8933 6.51978 10.9043C6.51978 12.253 7.44359 13.3734 8.65503 13.6314C8.43809 13.6932 8.20165 13.7228 7.95628 13.7228C7.78565 13.7228 7.6134 13.7127 7.45172 13.6754C7.79703 14.7746 8.7769 15.5827 9.94203 15.6089C9.03528 16.3476 7.88397 16.7927 6.63759 16.7927C6.41903 16.7927 6.2094 16.7825 5.99978 16.7546C7.18034 17.5474 8.57947 18.0001 10.0883 18.0001C14.9925 18.0001 17.6738 13.7694 17.6738 10.1021C17.6738 9.97943 17.6697 9.86097 17.664 9.74335C18.193 9.35243 18.6374 8.8642 18.9998 8.30235Z" fill="white"/>
</g>
<defs>
<clipPath id="clip0_1046_1440">
<rect width="24" height="24" fill="white"/>
</clipPath>
</defs>
</svg>
