<svg width="196" height="218" viewBox="0 0 196 218" fill="none" xmlns="http://www.w3.org/2000/svg">
<g filter="url(#filter0_dddd_1_5276)">
<rect x="26" y="1.72119" width="144" height="152" rx="16" fill="black"/>
</g>
<path d="M26 55.7212H170V137.721C170 146.558 162.837 153.721 154 153.721H42C33.1634 153.721 26 146.558 26 137.721V55.7212Z" fill="#353434"/>
<g filter="url(#filter1_d_1_5276)">
<circle cx="28" cy="27.7212" r="14" fill="#8D4AFF"/>
</g>
<mask id="mask0_1_5276" style="mask-type:alpha" maskUnits="userSpaceOnUse" x="14" y="13" width="28" height="29">
<circle cx="28" cy="27.7212" r="14" fill="#FF6435"/>
</mask>
<g mask="url(#mask0_1_5276)">
<path d="M28.2605 18.1755C24.8058 18.1755 21.9952 21.0358 21.9952 24.5516C21.9952 28.0674 24.8058 30.9277 28.2605 30.9277C31.7152 30.9277 34.5258 28.0674 34.5258 24.5516C34.5258 21.0358 31.7152 18.1755 28.2605 18.1755Z" fill="white"/>
<path d="M28.2605 18.1755C24.8058 18.1755 21.9952 21.0358 21.9952 24.5516C21.9952 28.0674 24.8058 30.9277 28.2605 30.9277C31.7152 30.9277 34.5258 28.0674 34.5258 24.5516C34.5258 21.0358 31.7152 18.1755 28.2605 18.1755Z" fill="url(#paint0_linear_1_5276)"/>
<path d="M36.0557 35.0931C34.3404 33.3207 32.0665 32.3446 29.6528 32.3446H26.8682C24.4546 32.3446 22.1806 33.3207 20.4653 35.0931C18.7584 36.8569 17.8184 39.1851 17.8184 41.6489C17.8184 42.0402 18.13 42.3574 18.5145 42.3574H38.0065C38.391 42.3574 38.7027 42.0402 38.7027 41.6489C38.7027 39.1851 37.7626 36.8569 36.0557 35.0931Z" fill="white"/>
<path d="M36.0557 35.0931C34.3404 33.3207 32.0665 32.3446 29.6528 32.3446H26.8682C24.4546 32.3446 22.1806 33.3207 20.4653 35.0931C18.7584 36.8569 17.8184 39.1851 17.8184 41.6489C17.8184 42.0402 18.13 42.3574 18.5145 42.3574H38.0065C38.391 42.3574 38.7027 42.0402 38.7027 41.6489C38.7027 39.1851 37.7626 36.8569 36.0557 35.0931Z" fill="url(#paint1_linear_1_5276)"/>
</g>
<path d="M61.016 100.189C66.956 100.189 70.844 97.2372 70.844 92.6652V92.3052C70.844 89.2092 68.756 87.0852 66.056 86.3292C68.36 85.4652 69.908 83.4492 69.908 81.0012V80.6772C69.908 76.4652 66.128 73.6932 61.016 73.6932C55.868 73.6932 51.908 76.8972 51.692 81.9732H57.272C57.38 79.5972 58.712 78.2652 61.052 78.2652C63.176 78.2652 64.364 79.4172 64.364 81.1452V81.4332C64.364 83.2332 63.104 84.2412 61.016 84.2412H58.388V88.5972H61.016C63.428 88.5972 64.796 89.8572 64.796 91.9092V92.1972C64.796 94.1772 63.392 95.5092 60.98 95.5092C58.496 95.5092 57.092 94.1052 56.984 91.6932H51.116C51.188 96.9132 55.004 100.189 61.016 100.189ZM81.4215 99.7212C82.5015 91.8732 85.6335 84.6372 90.6375 78.1932V74.1612H71.5935V79.1652H84.0495C79.4415 85.4292 76.2735 92.3052 75.0135 99.7212H81.4215ZM99.9396 100.189C105.7 100.189 109.588 96.6972 109.588 91.4412V91.0812C109.588 86.1492 106.024 83.0172 101.452 83.0172C99.6516 83.0172 97.9596 83.5212 96.7716 84.4932L97.5996 79.1652H108.184V74.1612H93.4596L91.1556 88.9212L96.3036 89.2812C96.9516 88.2732 98.2476 87.4452 99.9036 87.4452C102.208 87.4452 103.72 88.8852 103.72 91.3332V91.6212C103.72 93.9612 102.208 95.5092 99.9396 95.5092C97.8876 95.5092 96.3756 94.3572 96.0876 92.2332H90.2916C90.6516 97.2012 94.1796 100.189 99.9396 100.189ZM118.272 99.7212V93.4572L119.892 91.8372L124.896 99.7212H131.268L123.888 88.3452L130.98 81.1092H124.464L118.272 87.5172V72.6492H112.512V99.7212H118.272ZM140.993 95.9772V88.9572H147.545V84.4572H140.993V77.4372H136.349V84.4572H129.797V88.9572H136.349V95.9772H140.993Z" fill="white"/>
<path d="M54.662 120.903C57 120.903 58.484 119.685 58.484 117.963V117.823C58.484 116.185 57.308 115.359 54.942 114.967C52.996 114.645 52.562 114.197 52.562 113.469V113.371C52.562 112.503 53.276 111.929 54.48 111.929C55.712 111.929 56.524 112.475 56.678 113.525H58.302C58.064 111.593 56.608 110.599 54.508 110.599C52.352 110.599 50.924 111.817 50.924 113.441V113.581C50.924 115.051 51.82 115.905 54.228 116.353C56.188 116.717 56.832 117.165 56.832 117.963V118.103C56.832 119.055 55.852 119.545 54.704 119.545C53.346 119.545 52.366 118.999 52.198 117.711H50.574C50.742 119.741 52.268 120.903 54.662 120.903ZM62.9981 120.903C64.7621 120.903 65.9661 119.993 66.3161 118.537H64.7901C64.5661 119.223 63.9921 119.671 62.9981 119.671C61.7521 119.671 61.0241 118.901 60.9541 117.445H66.3581C66.4841 114.967 65.3361 113.343 62.9841 113.343C60.8001 113.343 59.4561 114.827 59.4561 117.011V117.221C59.4561 119.405 60.7721 120.903 62.9981 120.903ZM60.9961 116.353C61.1641 115.177 61.8361 114.547 62.9841 114.547C64.0901 114.547 64.7061 115.233 64.8041 116.353H60.9961ZM69.7453 120.903C70.7813 120.903 71.6633 120.413 72.1113 119.601L72.1673 120.721H73.5813V115.821C73.5813 114.323 72.5313 113.343 70.6693 113.343C68.9053 113.343 67.7573 114.183 67.6033 115.583H69.0733C69.1993 114.925 69.7453 114.547 70.6413 114.547C71.5513 114.547 72.0973 114.967 72.0973 115.765V116.283L69.2553 116.703C68.0233 116.871 67.3233 117.627 67.3233 118.775C67.3233 120.007 68.2613 120.903 69.7453 120.903ZM70.0953 119.685C69.2833 119.685 68.8213 119.307 68.8213 118.705C68.8213 118.145 69.1293 117.837 69.7873 117.739L72.0973 117.417V118.075C72.0973 119.013 71.1733 119.685 70.0953 119.685ZM76.8512 120.721V117.053C76.8512 115.625 77.6352 114.883 78.9372 114.883C79.1052 114.883 79.2732 114.897 79.4132 114.911V113.413C79.2872 113.385 79.1332 113.371 79.0212 113.371C77.9852 113.371 77.2292 113.987 76.8372 114.911L76.7952 113.511H75.3112V120.721H76.8512ZM83.3479 120.903C85.1539 120.903 86.3299 119.895 86.5819 118.285H85.0559C84.8739 119.111 84.3559 119.643 83.3339 119.643C82.0879 119.643 81.4579 118.775 81.4579 117.221V117.011C81.4579 115.457 82.0879 114.589 83.3339 114.589C84.3559 114.589 84.8599 115.107 85.0419 115.919H86.5539C86.3299 114.351 85.1679 113.343 83.3619 113.343C81.1639 113.343 79.8759 114.827 79.8759 117.011V117.221C79.8759 119.405 81.1639 120.903 83.3479 120.903ZM89.3342 120.721V116.689C89.3342 115.401 90.0482 114.617 91.1122 114.617C92.1622 114.617 92.5962 115.275 92.5962 116.451V120.721H94.1222V116.073C94.1222 114.435 93.3802 113.343 91.6302 113.343C90.4822 113.343 89.7402 113.903 89.3482 114.617V110.193H87.7942V120.721H89.3342ZM97.842 120.903C98.878 120.903 99.76 120.413 100.208 119.601L100.264 120.721H101.678V115.821C101.678 114.323 100.628 113.343 98.766 113.343C97.002 113.343 95.854 114.183 95.7 115.583H97.17C97.296 114.925 97.842 114.547 98.738 114.547C99.648 114.547 100.194 114.967 100.194 115.765V116.283L97.352 116.703C96.12 116.871 95.42 117.627 95.42 118.775C95.42 120.007 96.358 120.903 97.842 120.903ZM98.192 119.685C97.38 119.685 96.918 119.307 96.918 118.705C96.918 118.145 97.226 117.837 97.884 117.739L100.194 117.417V118.075C100.194 119.013 99.27 119.685 98.192 119.685ZM107.272 120.903C109.162 120.903 110.394 119.377 110.394 117.221V117.011C110.394 114.869 109.204 113.343 107.314 113.343C106.166 113.343 105.382 113.889 104.962 114.575V110.193H103.408V120.721H104.85L104.892 119.531C105.242 120.217 106.054 120.903 107.272 120.903ZM106.894 119.657C105.606 119.657 104.906 118.775 104.906 117.221V117.011C104.906 115.457 105.606 114.561 106.894 114.561C108.126 114.561 108.826 115.457 108.826 117.011V117.221C108.826 118.761 108.126 119.657 106.894 119.657ZM113.35 120.721V110.193H111.81V120.721H113.35ZM118.303 120.903C120.067 120.903 121.271 119.993 121.621 118.537H120.095C119.871 119.223 119.297 119.671 118.303 119.671C117.057 119.671 116.329 118.901 116.259 117.445H121.663C121.789 114.967 120.641 113.343 118.289 113.343C116.105 113.343 114.761 114.827 114.761 117.011V117.221C114.761 119.405 116.077 120.903 118.303 120.903ZM116.301 116.353C116.469 115.177 117.141 114.547 118.289 114.547C119.395 114.547 120.011 115.233 120.109 116.353H116.301ZM52.59 139.101V135.629C52.982 136.315 53.78 136.903 54.9 136.903C56.804 136.903 58.022 135.377 58.022 133.221V133.011C58.022 130.855 56.832 129.343 54.942 129.343C53.71 129.343 52.87 130.015 52.52 130.701L52.478 129.511H51.036V139.101H52.59ZM54.522 135.657C53.234 135.657 52.534 134.775 52.534 133.221V133.011C52.534 131.457 53.234 130.561 54.522 130.561C55.754 130.561 56.454 131.457 56.454 133.011V133.221C56.454 134.775 55.754 135.657 54.522 135.657ZM60.9776 136.721V133.053C60.9776 131.625 61.7616 130.883 63.0636 130.883C63.2316 130.883 63.3996 130.897 63.5396 130.911V129.413C63.4136 129.385 63.2596 129.371 63.1476 129.371C62.1116 129.371 61.3556 129.987 60.9636 130.911L60.9216 129.511H59.4376V136.721H60.9776ZM67.5583 136.903C69.7283 136.903 71.1283 135.419 71.1283 133.221V133.011C71.1283 130.813 69.7283 129.343 67.5583 129.343C65.4023 129.343 64.0023 130.813 64.0023 133.011V133.221C64.0023 135.419 65.4023 136.903 67.5583 136.903ZM67.5583 135.657C66.2563 135.657 65.5703 134.775 65.5703 133.221V133.011C65.5703 131.457 66.2563 130.589 67.5583 130.589C68.8743 130.589 69.5603 131.457 69.5603 133.011V133.221C69.5603 134.775 68.8743 135.657 67.5583 135.657ZM74.6498 136.721V130.673H76.6098V129.511H74.6498V128.307C74.6498 127.593 74.9158 127.257 75.7698 127.257C76.0778 127.257 76.4418 127.341 76.6518 127.397V126.179C76.3298 126.095 75.8398 126.011 75.4758 126.011C73.8938 126.011 73.1098 126.739 73.1098 128.139V129.511H71.7098V130.673H73.1098V136.721H74.6498ZM79.5498 128.139V126.193H77.9258V128.139H79.5498ZM79.5078 136.721V129.511H77.9678V136.721H79.5078ZM82.8466 136.721V126.193H81.3066V136.721H82.8466ZM87.8 136.903C89.564 136.903 90.768 135.993 91.118 134.537H89.592C89.368 135.223 88.794 135.671 87.8 135.671C86.554 135.671 85.826 134.901 85.756 133.445H91.16C91.286 130.967 90.138 129.343 87.786 129.343C85.602 129.343 84.258 130.827 84.258 133.011V133.221C84.258 135.405 85.574 136.903 87.8 136.903ZM85.798 132.353C85.966 131.177 86.638 130.547 87.786 130.547C88.892 130.547 89.508 131.233 89.606 132.353H85.798ZM95.1241 136.903C96.9301 136.903 98.1341 135.979 98.1341 134.607C98.1341 133.347 97.2381 132.745 95.4321 132.451C94.1161 132.241 93.6961 131.975 93.6961 131.415C93.6961 130.827 94.2141 130.477 95.0261 130.477C95.8381 130.477 96.4121 130.869 96.5101 131.597H97.9801C97.8401 130.169 96.7621 129.343 95.0401 129.343C93.3741 129.343 92.2121 130.211 92.2121 131.499C92.2121 132.787 93.0661 133.347 94.8301 133.641C96.1881 133.893 96.5941 134.173 96.5941 134.747C96.5941 135.391 96.0061 135.741 95.1381 135.741C94.2001 135.741 93.5841 135.335 93.4441 134.481H91.9741C92.1001 136.021 93.2621 136.903 95.1241 136.903Z" fill="#999999"/>
<path d="M50.304 24.7212H52.512L53.312 22.4332H58.192L58.992 24.7212H61.216L57.104 13.5212H54.416L50.304 24.7212ZM53.872 20.8652L55.696 15.6812H55.824L57.648 20.8652H53.872ZM64.8236 24.8812C66.0396 24.8812 66.9996 24.3052 67.3996 23.5212V24.7212H69.4476V13.5212H67.3996V17.6012C66.9996 16.8172 66.0396 16.2412 64.8236 16.2412C63.0316 16.2412 61.1596 17.5212 61.1596 20.5612C61.1596 23.6012 63.0316 24.8812 64.8236 24.8812ZM63.0796 20.5612C63.0796 18.7692 64.1516 17.9532 65.3036 17.9532C66.4236 17.9532 67.4956 18.7692 67.4956 20.5612C67.4956 22.3532 66.4236 23.1692 65.3036 23.1692C64.1516 23.1692 63.0796 22.3532 63.0796 20.5612ZM73.2829 24.7212H75.8589L78.9469 16.4012H76.8509L74.6109 22.7692H74.5309L72.2909 16.4012H70.2109L73.2829 24.7212ZM81.4573 24.8812C83.3133 24.8812 84.0653 23.6972 84.2413 23.2332H84.3213V24.7212H86.2893V18.9612C86.2893 17.1212 85.2653 16.2412 82.8173 16.2412C80.3373 16.2412 79.2333 17.1372 79.2333 18.7532V19.1212H81.1533V18.9452C81.1533 18.0332 81.8573 17.7292 82.7693 17.7292C83.6653 17.7292 84.2733 18.0332 84.2733 19.0412V19.2172C84.2733 19.6492 84.0333 19.7932 83.2173 19.9052L81.6653 20.1132C80.1453 20.3212 78.7853 20.8172 78.7853 22.5452C78.7853 24.2092 80.0493 24.8812 81.4573 24.8812ZM80.8333 22.3692C80.8333 21.8732 81.1053 21.4732 81.9693 21.3452L83.2973 21.1372C83.7613 21.0732 84.1613 20.9772 84.2733 20.7852V21.8412C84.2733 22.5132 83.4413 23.3932 82.1293 23.3932C81.2653 23.3932 80.8333 23.0092 80.8333 22.3692ZM93.4359 19.9692V24.7212H95.4839V19.4892C95.4839 17.2332 94.2199 16.2412 92.5879 16.2412C90.8279 16.2412 90.0279 17.3932 89.8679 18.1132H89.8039V16.4012H87.7559V24.7212H89.8039V19.9692C89.8039 18.6092 90.6199 17.9372 91.7399 17.9372C92.8439 17.9372 93.4359 18.6092 93.4359 19.9692ZM100.633 24.8812C102.105 24.8812 104.105 24.2572 104.361 21.5852H102.505C102.297 22.6892 101.593 23.1532 100.617 23.1532C99.193 23.1532 98.409 22.1452 98.409 20.5772C98.409 19.0092 99.193 17.9692 100.617 17.9692C101.561 17.9692 102.297 18.4012 102.505 19.5212H104.361C104.057 16.8332 102.089 16.2412 100.633 16.2412C98.553 16.2412 96.489 17.5052 96.489 20.5772C96.489 23.6492 98.553 24.8812 100.633 24.8812ZM109.015 24.8812C110.871 24.8812 112.327 24.0012 112.775 22.1132H110.951C110.711 22.9132 110.103 23.3132 109.063 23.3132C107.751 23.3132 106.967 22.6412 106.839 21.0892H112.839C112.871 20.9132 112.887 20.7532 112.887 20.4652C112.887 17.4252 111.127 16.2412 108.983 16.2412C106.807 16.2412 104.903 17.4732 104.903 20.5452C104.903 23.6492 106.855 24.8812 109.015 24.8812ZM106.855 19.8412C106.999 18.4812 107.751 17.8092 108.951 17.8092C110.295 17.8092 110.903 18.6732 110.951 19.8412H106.855ZM117.216 24.8812C118.432 24.8812 119.392 24.3052 119.792 23.5212V24.7212H121.84V13.5212H119.792V17.6012C119.392 16.8172 118.432 16.2412 117.216 16.2412C115.424 16.2412 113.552 17.5212 113.552 20.5612C113.552 23.6012 115.424 24.8812 117.216 24.8812ZM115.472 20.5612C115.472 18.7692 116.544 17.9532 117.696 17.9532C118.816 17.9532 119.888 18.7692 119.888 20.5612C119.888 22.3532 118.816 23.1692 117.696 23.1692C116.544 23.1692 115.472 22.3532 115.472 20.5612ZM53.92 40.8812C55.872 40.8812 57.568 40.1132 57.568 38.2732C57.568 36.8172 56.496 36.2412 55.184 35.9372L53.6 35.5852C52.928 35.4572 52.592 35.1532 52.592 34.6732C52.592 34.0972 53.056 33.7932 53.968 33.7932C54.864 33.7932 55.472 34.0972 55.6 35.0092H57.296C57.264 33.2492 56.064 32.2412 53.952 32.2412C51.952 32.2412 50.608 33.1372 50.608 34.7052C50.608 35.8252 51.264 36.7052 52.944 37.0892L54.48 37.4252C55.12 37.5532 55.456 37.8092 55.456 38.3212C55.456 39.0252 54.832 39.3292 53.952 39.3292C52.992 39.3292 52.32 38.9772 52.208 38.0972H50.384C50.4 39.9692 51.792 40.8812 53.92 40.8812ZM62.1935 40.8812C64.0495 40.8812 65.5055 40.0012 65.9535 38.1132H64.1295C63.8895 38.9132 63.2815 39.3132 62.2415 39.3132C60.9295 39.3132 60.1455 38.6412 60.0175 37.0892H66.0175C66.0495 36.9132 66.0655 36.7532 66.0655 36.4652C66.0655 33.4252 64.3055 32.2412 62.1615 32.2412C59.9855 32.2412 58.0815 33.4732 58.0815 36.5452C58.0815 39.6492 60.0335 40.8812 62.1935 40.8812ZM60.0335 35.8412C60.1775 34.4812 60.9295 33.8092 62.1295 33.8092C63.4735 33.8092 64.0815 34.6732 64.1295 35.8412H60.0335ZM69.3241 40.8812C71.1801 40.8812 71.9321 39.6972 72.1081 39.2332H72.1881V40.7212H74.1561V34.9612C74.1561 33.1212 73.1321 32.2412 70.6841 32.2412C68.2041 32.2412 67.1001 33.1372 67.1001 34.7532V35.1212H69.0201V34.9452C69.0201 34.0332 69.7241 33.7292 70.6361 33.7292C71.5321 33.7292 72.1401 34.0332 72.1401 35.0412V35.2172C72.1401 35.6492 71.9001 35.7932 71.0841 35.9052L69.5321 36.1132C68.0121 36.3212 66.6521 36.8172 66.6521 38.5452C66.6521 40.2092 67.9161 40.8812 69.3241 40.8812ZM68.7001 38.3692C68.7001 37.8732 68.9721 37.4732 69.8361 37.3452L71.1641 37.1372C71.6281 37.0732 72.0281 36.9772 72.1401 36.7852V37.8412C72.1401 38.5132 71.3081 39.3932 69.9961 39.3932C69.1321 39.3932 68.7001 39.0092 68.7001 38.3692ZM75.6228 40.7212H77.6708V36.8492C77.6708 34.8972 78.8068 34.0652 80.1828 34.0652C80.3908 34.0652 80.5828 34.0812 80.8228 34.1132V32.3852C80.5988 32.3212 80.3748 32.3052 80.1828 32.3052C78.7748 32.3052 77.9908 33.2652 77.7188 34.3852H77.6708V32.4012H75.6228V40.7212ZM85.1717 40.8812C86.6437 40.8812 88.6437 40.2572 88.8997 37.5852H87.0437C86.8357 38.6892 86.1317 39.1532 85.1557 39.1532C83.7317 39.1532 82.9477 38.1452 82.9477 36.5772C82.9477 35.0092 83.7317 33.9692 85.1557 33.9692C86.0997 33.9692 86.8357 34.4012 87.0437 35.5212H88.8997C88.5957 32.8332 86.6277 32.2412 85.1717 32.2412C83.0917 32.2412 81.0277 33.5052 81.0277 36.5772C81.0277 39.6492 83.0917 40.8812 85.1717 40.8812ZM95.6003 35.9692V40.7212H97.6483V35.4892C97.6483 33.2332 96.3843 32.2412 94.7523 32.2412C92.9923 32.2412 92.1923 33.3932 92.0323 34.1132H91.9683V29.5212H89.9203V40.7212H91.9683V35.9692C91.9683 34.6092 92.7843 33.9372 93.9043 33.9372C95.0083 33.9372 95.6003 34.6092 95.6003 35.9692ZM106.133 40.8812C107.989 40.8812 109.445 40.0012 109.893 38.1132H108.069C107.829 38.9132 107.221 39.3132 106.181 39.3132C104.869 39.3132 104.085 38.6412 103.957 37.0892H109.957C109.989 36.9132 110.005 36.7532 110.005 36.4652C110.005 33.4252 108.245 32.2412 106.101 32.2412C103.925 32.2412 102.021 33.4732 102.021 36.5452C102.021 39.6492 103.973 40.8812 106.133 40.8812ZM103.973 35.8412C104.117 34.4812 104.869 33.8092 106.069 33.8092C107.413 33.8092 108.021 34.6732 108.069 35.8412H103.973ZM116.671 35.9692V40.7212H118.719V35.4892C118.719 33.2332 117.455 32.2412 115.823 32.2412C114.063 32.2412 113.263 33.3932 113.103 34.1132H113.039V32.4012H110.991V40.7212H113.039V35.9692C113.039 34.6092 113.855 33.9372 114.975 33.9372C116.079 33.9372 116.671 34.6092 116.671 35.9692ZM123.709 44.0652C125.421 44.0652 127.917 43.4572 127.917 40.4652V32.4012H125.869V33.4732H125.837C125.373 32.7532 124.429 32.2412 123.277 32.2412C121.565 32.2412 119.725 33.3932 119.725 36.3852C119.725 39.3772 121.533 40.5132 123.277 40.5132C124.429 40.5132 125.373 40.0012 125.837 39.2812H125.869V40.4652C125.869 41.8892 124.877 42.4812 123.661 42.4812C122.749 42.4812 121.773 42.1292 121.725 41.2812H119.917C119.933 43.5852 122.173 44.0652 123.709 44.0652ZM121.645 36.3852C121.645 34.7212 122.669 33.9532 123.805 33.9532C124.941 33.9532 125.949 34.7212 125.949 36.3852C125.949 38.0332 124.941 38.8172 123.805 38.8172C122.669 38.8172 121.645 38.0332 121.645 36.3852ZM129.305 40.7212H131.353V32.4012H129.305V40.7212ZM129.161 30.0812C129.161 30.7372 129.705 31.2332 130.329 31.2332C130.937 31.2332 131.481 30.7372 131.481 30.0812C131.481 29.4252 130.937 28.9292 130.329 28.9292C129.705 28.9292 129.161 29.4252 129.161 30.0812ZM138.43 35.9692V40.7212H140.478V35.4892C140.478 33.2332 139.214 32.2412 137.582 32.2412C135.822 32.2412 135.022 33.3932 134.862 34.1132H134.798V32.4012H132.75V40.7212H134.798V35.9692C134.798 34.6092 135.614 33.9372 136.734 33.9372C137.838 33.9372 138.43 34.6092 138.43 35.9692ZM145.595 40.8812C147.451 40.8812 148.907 40.0012 149.355 38.1132H147.531C147.291 38.9132 146.683 39.3132 145.643 39.3132C144.331 39.3132 143.547 38.6412 143.419 37.0892H149.419C149.451 36.9132 149.467 36.7532 149.467 36.4652C149.467 33.4252 147.707 32.2412 145.563 32.2412C143.387 32.2412 141.483 33.4732 141.483 36.5452C141.483 39.6492 143.435 40.8812 145.595 40.8812ZM143.435 35.8412C143.579 34.4812 144.331 33.8092 145.531 33.8092C146.875 33.8092 147.483 34.6732 147.531 35.8412H143.435Z" fill="#CCAEFF"/>
<defs>
<filter id="filter0_dddd_1_5276" x="0.518499" y="0.424891" width="194.963" height="217.296" filterUnits="userSpaceOnUse" color-interpolation-filters="sRGB">
<feFlood flood-opacity="0" result="BackgroundImageFix"/>
<feColorMatrix in="SourceAlpha" type="matrix" values="0 0 0 0 0 0 0 0 0 0 0 0 0 0 0 0 0 0 127 0" result="hardAlpha"/>
<feOffset dy="38.5185"/>
<feGaussianBlur stdDeviation="12.7408"/>
<feComposite in2="hardAlpha" operator="out"/>
<feColorMatrix type="matrix" values="0 0 0 0 0.32549 0 0 0 0 0.117647 0 0 0 0 0 0 0 0 0.08 0"/>
<feBlend mode="normal" in2="BackgroundImageFix" result="effect1_dropShadow_1_5276"/>
<feColorMatrix in="SourceAlpha" type="matrix" values="0 0 0 0 0 0 0 0 0 0 0 0 0 0 0 0 0 0 127 0" result="hardAlpha"/>
<feOffset dy="20"/>
<feGaussianBlur stdDeviation="6.5"/>
<feComposite in2="hardAlpha" operator="out"/>
<feColorMatrix type="matrix" values="0 0 0 0 0.32549 0 0 0 0 0.117647 0 0 0 0 0 0 0 0 0.08 0"/>
<feBlend mode="normal" in2="effect1_dropShadow_1_5276" result="effect2_dropShadow_1_5276"/>
<feColorMatrix in="SourceAlpha" type="matrix" values="0 0 0 0 0 0 0 0 0 0 0 0 0 0 0 0 0 0 127 0" result="hardAlpha"/>
<feOffset dy="8.14815"/>
<feGaussianBlur stdDeviation="3.25926"/>
<feComposite in2="hardAlpha" operator="out"/>
<feColorMatrix type="matrix" values="0 0 0 0 0.32549 0 0 0 0 0.117647 0 0 0 0 0 0 0 0 0.05 0"/>
<feBlend mode="normal" in2="effect2_dropShadow_1_5276" result="effect3_dropShadow_1_5276"/>
<feColorMatrix in="SourceAlpha" type="matrix" values="0 0 0 0 0 0 0 0 0 0 0 0 0 0 0 0 0 0 127 0" result="hardAlpha"/>
<feOffset dy="1.85185"/>
<feGaussianBlur stdDeviation="1.57407"/>
<feComposite in2="hardAlpha" operator="out"/>
<feColorMatrix type="matrix" values="0 0 0 0 0.325 0 0 0 0 0.117867 0 0 0 0 0.00135416 0 0 0 0.05 0"/>
<feBlend mode="normal" in2="effect3_dropShadow_1_5276" result="effect4_dropShadow_1_5276"/>
<feBlend mode="normal" in="SourceGraphic" in2="effect4_dropShadow_1_5276" result="shape"/>
</filter>
<filter id="filter1_d_1_5276" x="1" y="13.7212" width="54" height="59" filterUnits="userSpaceOnUse" color-interpolation-filters="sRGB">
<feFlood flood-opacity="0" result="BackgroundImageFix"/>
<feColorMatrix in="SourceAlpha" type="matrix" values="0 0 0 0 0 0 0 0 0 0 0 0 0 0 0 0 0 0 127 0" result="hardAlpha"/>
<feMorphology radius="3" operator="erode" in="SourceAlpha" result="effect1_dropShadow_1_5276"/>
<feOffset dy="18"/>
<feGaussianBlur stdDeviation="8"/>
<feComposite in2="hardAlpha" operator="out"/>
<feColorMatrix type="matrix" values="0 0 0 0 0 0 0 0 0 0 0 0 0 0 0 0 0 0 0.1 0"/>
<feBlend mode="normal" in2="BackgroundImageFix" result="effect1_dropShadow_1_5276"/>
<feBlend mode="normal" in="SourceGraphic" in2="effect1_dropShadow_1_5276" result="shape"/>
</filter>
<linearGradient id="paint0_linear_1_5276" x1="28.2605" y1="18.1755" x2="28.2605" y2="37.707" gradientUnits="userSpaceOnUse">
<stop stop-color="white"/>
<stop offset="1" stop-color="#E9CEFF"/>
</linearGradient>
<linearGradient id="paint1_linear_1_5276" x1="28.2605" y1="18.1755" x2="28.2605" y2="37.707" gradientUnits="userSpaceOnUse">
<stop stop-color="white"/>
<stop offset="1" stop-color="#E9CEFF"/>
</linearGradient>
</defs>
</svg>
