<svg width="196" height="218" viewBox="0 0 196 218" fill="none" xmlns="http://www.w3.org/2000/svg">
<g filter="url(#filter0_dddd_1_5288)">
<rect x="26" y="1.7207" width="144" height="152" rx="16" fill="black"/>
</g>
<path d="M26 55.7207H170V137.721C170 146.557 162.837 153.721 154 153.721H42C33.1634 153.721 26 146.557 26 137.721V55.7207Z" fill="#353434"/>
<g filter="url(#filter1_d_1_5288)">
<circle cx="29" cy="27.7207" r="14" fill="#8D4AFF"/>
</g>
<mask id="mask0_1_5288" style="mask-type:alpha" maskUnits="userSpaceOnUse" x="15" y="13" width="28" height="29">
<circle cx="29" cy="27.7207" r="14" fill="#FF6435"/>
</mask>
<g mask="url(#mask0_1_5288)">
<circle cx="26.5" cy="25.2207" r="2.5" fill="#D9D9D9"/>
<circle cx="26.5" cy="25.2207" r="2.5" fill="url(#paint0_linear_1_5288)"/>
<circle cx="31.5" cy="21.2207" r="2.5" fill="#D9D9D9"/>
<circle cx="31.5" cy="21.2207" r="2.5" fill="url(#paint1_linear_1_5288)"/>
<path d="M36.6667 25.7207H21.6667C20.7476 25.7207 20 26.4683 20 27.3874V29.2217C20 29.9217 20.2724 30.5798 20.7676 31.074L26.3181 36.6207C26.539 36.8417 26.6667 37.1493 26.6667 37.4626V45.0064C26.6667 45.2855 26.8286 45.5388 27.0829 45.655C27.1781 45.6998 27.28 45.7207 27.381 45.7207C27.5486 45.7207 27.7143 45.6617 27.8457 45.5483L30.5133 43.2617C31.0952 42.7645 31.4286 42.0388 31.4286 41.2731V37.4826C31.4286 37.1617 31.561 36.8483 31.7924 36.6255L37.5324 31.0874C38.041 30.5969 38.3324 29.9093 38.3324 29.2026V27.3874C38.3333 26.4683 37.5857 25.7207 36.6667 25.7207V25.7207Z" fill="black"/>
<path d="M36.6667 25.7207H21.6667C20.7476 25.7207 20 26.4683 20 27.3874V29.2217C20 29.9217 20.2724 30.5798 20.7676 31.074L26.3181 36.6207C26.539 36.8417 26.6667 37.1493 26.6667 37.4626V45.0064C26.6667 45.2855 26.8286 45.5388 27.0829 45.655C27.1781 45.6998 27.28 45.7207 27.381 45.7207C27.5486 45.7207 27.7143 45.6617 27.8457 45.5483L30.5133 43.2617C31.0952 42.7645 31.4286 42.0388 31.4286 41.2731V37.4826C31.4286 37.1617 31.561 36.8483 31.7924 36.6255L37.5324 31.0874C38.041 30.5969 38.3324 29.9093 38.3324 29.2026V27.3874C38.3333 26.4683 37.5857 25.7207 36.6667 25.7207V25.7207Z" fill="url(#paint2_linear_1_5288)"/>
</g>
<path d="M62.384 101.721V76.1607H58.028C56.264 78.6447 53.96 80.0847 51.224 80.6247V85.8807C53.132 85.5207 54.824 84.8007 56.264 83.7567V101.721H62.384ZM82.2206 101.721V96.2847H85.6046V91.6047H82.2206V76.1607H76.0286L64.9046 91.7847V96.2847H76.3526V101.721H82.2206ZM76.3526 82.8567V91.6407H70.1606L76.3526 82.8567Z" fill="white"/>
<path d="M60.136 117.583C60.136 114.643 58.302 112.599 55.418 112.599C52.52 112.599 50.686 114.643 50.686 117.583V117.919C50.686 120.845 52.52 122.903 55.418 122.903C55.95 122.903 56.44 122.833 56.902 122.707L57.658 123.911H59.282L58.162 122.105C59.408 121.251 60.136 119.753 60.136 117.919V117.583ZM58.456 117.919C58.456 119.193 58.078 120.201 57.364 120.817L56.58 119.557H54.942L56.118 121.433C55.894 121.475 55.67 121.503 55.418 121.503C53.5 121.503 52.38 120.089 52.38 117.919V117.583C52.38 115.413 53.486 113.999 55.418 113.999C57.336 113.999 58.456 115.413 58.456 117.583V117.919ZM64.0061 122.903C65.0421 122.903 65.8121 122.329 66.2321 121.629L66.2601 122.721H67.7581V115.511H66.2041V119.515C66.2041 120.803 65.5741 121.615 64.5101 121.615C63.4741 121.615 63.0681 120.957 63.0681 119.851V115.511H61.5141V120.145C61.5141 121.839 62.3261 122.903 64.0061 122.903ZM71.5363 122.903C72.5723 122.903 73.4543 122.413 73.9023 121.601L73.9583 122.721H75.3723V117.821C75.3723 116.323 74.3223 115.343 72.4603 115.343C70.6963 115.343 69.5483 116.183 69.3943 117.583H70.8643C70.9903 116.925 71.5363 116.547 72.4323 116.547C73.3423 116.547 73.8883 116.967 73.8883 117.765V118.283L71.0463 118.703C69.8143 118.871 69.1143 119.627 69.1143 120.775C69.1143 122.007 70.0523 122.903 71.5363 122.903ZM71.8863 121.685C71.0743 121.685 70.6123 121.307 70.6123 120.705C70.6123 120.145 70.9203 119.837 71.5783 119.739L73.8883 119.417V120.075C73.8883 121.013 72.9643 121.685 71.8863 121.685ZM78.6423 122.721V112.193H77.1022V122.721H78.6423ZM82.0136 114.139V112.193H80.3896V114.139H82.0136ZM81.9716 122.721V115.511H80.4316V122.721H81.9716ZM86.701 122.903C87.065 122.903 87.555 122.819 87.877 122.735V121.503C87.667 121.573 87.303 121.643 86.995 121.643C86.141 121.643 85.875 121.321 85.875 120.607V116.673H87.835V115.511H85.875V113.257H84.335V115.511H82.935V116.673H84.335V120.775C84.335 122.175 85.119 122.903 86.701 122.903ZM91.1565 122.903C92.1925 122.903 93.0745 122.413 93.5225 121.601L93.5785 122.721H94.9925V117.821C94.9925 116.323 93.9425 115.343 92.0805 115.343C90.3165 115.343 89.1685 116.183 89.0145 117.583H90.4845C90.6105 116.925 91.1565 116.547 92.0525 116.547C92.9625 116.547 93.5085 116.967 93.5085 117.765V118.283L90.6665 118.703C89.4345 118.871 88.7345 119.627 88.7345 120.775C88.7345 122.007 89.6725 122.903 91.1565 122.903ZM91.5065 121.685C90.6945 121.685 90.2325 121.307 90.2325 120.705C90.2325 120.145 90.5405 119.837 91.1985 119.739L93.5085 119.417V120.075C93.5085 121.013 92.5845 121.685 91.5065 121.685ZM99.5121 122.903C99.8761 122.903 100.366 122.819 100.688 122.735V121.503C100.478 121.573 100.114 121.643 99.8061 121.643C98.9521 121.643 98.6861 121.321 98.6861 120.607V116.673H100.646V115.511H98.6861V113.257H97.1461V115.511H95.7461V116.673H97.1461V120.775C97.1461 122.175 97.9301 122.903 99.5121 122.903ZM103.589 114.139V112.193H101.965V114.139H103.589ZM103.547 122.721V115.511H102.007V122.721H103.547ZM108.892 122.721L111.552 115.511H109.984L108.08 121.153L106.148 115.511H104.51L107.198 122.721H108.892ZM115.562 122.903C117.326 122.903 118.53 121.993 118.88 120.537H117.354C117.13 121.223 116.556 121.671 115.562 121.671C114.316 121.671 113.588 120.901 113.518 119.445H118.922C119.048 116.967 117.9 115.343 115.548 115.343C113.364 115.343 112.02 116.827 112.02 119.011V119.221C112.02 121.405 113.336 122.903 115.562 122.903ZM113.56 118.353C113.728 117.177 114.4 116.547 115.548 116.547C116.654 116.547 117.27 117.233 117.368 118.353H113.56ZM52.772 138.721V134.493H57.182V133.135H52.772V130.139H57.63V128.781H51.134V138.721H52.772ZM60.5548 130.139V128.193H58.9308V130.139H60.5548ZM60.5128 138.721V131.511H58.9728V138.721H60.5128ZM63.8422 138.721V128.193H62.3022V138.721H63.8422ZM68.6262 138.903C68.9902 138.903 69.4802 138.819 69.8022 138.735V137.503C69.5922 137.573 69.2282 137.643 68.9202 137.643C68.0662 137.643 67.8002 137.321 67.8002 136.607V132.673H69.7602V131.511H67.8002V129.257H66.2602V131.511H64.8602V132.673H66.2602V136.775C66.2602 138.175 67.0442 138.903 68.6262 138.903ZM74.121 138.903C75.885 138.903 77.089 137.993 77.439 136.537H75.913C75.689 137.223 75.115 137.671 74.121 137.671C72.875 137.671 72.147 136.901 72.077 135.445H77.481C77.607 132.967 76.459 131.343 74.107 131.343C71.923 131.343 70.579 132.827 70.579 135.011V135.221C70.579 137.405 71.895 138.903 74.121 138.903ZM72.119 134.353C72.287 133.177 72.959 132.547 74.107 132.547C75.213 132.547 75.829 133.233 75.927 134.353H72.119ZM80.4201 138.721V135.053C80.4201 133.625 81.2041 132.883 82.5061 132.883C82.6741 132.883 82.8421 132.897 82.9821 132.911V131.413C82.8561 131.385 82.7021 131.371 82.5901 131.371C81.5541 131.371 80.7981 131.987 80.4061 132.911L80.3641 131.511H78.8801V138.721H80.4201ZM89.838 138.903C92.008 138.903 93.408 137.419 93.408 135.221V135.011C93.408 132.813 92.008 131.343 89.838 131.343C87.682 131.343 86.282 132.813 86.282 135.011V135.221C86.282 137.419 87.682 138.903 89.838 138.903ZM89.838 137.657C88.536 137.657 87.85 136.775 87.85 135.221V135.011C87.85 133.457 88.536 132.589 89.838 132.589C91.154 132.589 91.84 133.457 91.84 135.011V135.221C91.84 136.775 91.154 137.657 89.838 137.657ZM96.3695 141.101V137.629C96.7615 138.315 97.5595 138.903 98.6795 138.903C100.584 138.903 101.802 137.377 101.802 135.221V135.011C101.802 132.855 100.612 131.343 98.7215 131.343C97.4895 131.343 96.6495 132.015 96.2995 132.701L96.2575 131.511H94.8155V141.101H96.3695ZM98.3015 137.657C97.0135 137.657 96.3135 136.775 96.3135 135.221V135.011C96.3135 133.457 97.0135 132.561 98.3015 132.561C99.5335 132.561 100.234 133.457 100.234 135.011V135.221C100.234 136.775 99.5335 137.657 98.3015 137.657ZM105.966 138.903C106.33 138.903 106.82 138.819 107.142 138.735V137.503C106.932 137.573 106.568 137.643 106.26 137.643C105.406 137.643 105.14 137.321 105.14 136.607V132.673H107.1V131.511H105.14V129.257H103.6V131.511H102.2V132.673H103.6V136.775C103.6 138.175 104.384 138.903 105.966 138.903ZM110.043 130.139V128.193H108.419V130.139H110.043ZM110.001 138.721V131.511H108.461V138.721H110.001ZM114.968 138.903C117.138 138.903 118.538 137.419 118.538 135.221V135.011C118.538 132.813 117.138 131.343 114.968 131.343C112.812 131.343 111.412 132.813 111.412 135.011V135.221C111.412 137.419 112.812 138.903 114.968 138.903ZM114.968 137.657C113.666 137.657 112.98 136.775 112.98 135.221V135.011C112.98 133.457 113.666 132.589 114.968 132.589C116.284 132.589 116.97 133.457 116.97 135.011V135.221C116.97 136.775 116.284 137.657 114.968 137.657ZM121.486 138.721V134.689C121.486 133.401 122.2 132.617 123.264 132.617C124.314 132.617 124.748 133.275 124.748 134.451V138.721H126.274V134.073C126.274 132.435 125.532 131.343 123.782 131.343C122.62 131.343 121.864 131.945 121.486 132.659L121.43 131.511H119.946V138.721H121.486ZM130.693 138.903C132.499 138.903 133.703 137.979 133.703 136.607C133.703 135.347 132.807 134.745 131.001 134.451C129.685 134.241 129.265 133.975 129.265 133.415C129.265 132.827 129.783 132.477 130.595 132.477C131.407 132.477 131.981 132.869 132.079 133.597H133.549C133.409 132.169 132.331 131.343 130.609 131.343C128.943 131.343 127.781 132.211 127.781 133.499C127.781 134.787 128.635 135.347 130.399 135.641C131.757 135.893 132.163 136.173 132.163 136.747C132.163 137.391 131.575 137.741 130.707 137.741C129.769 137.741 129.153 137.335 129.013 136.481H127.543C127.669 138.021 128.831 138.903 130.693 138.903Z" fill="#999999"/>
<path d="M50.864 24.7207H52.96V13.5207H50.864V24.7207ZM60.0365 19.9687V24.7207H62.0845V19.4887C62.0845 17.2327 60.8205 16.2407 59.1885 16.2407C57.4285 16.2407 56.6285 17.3927 56.4685 18.1127H56.4045V16.4007H54.3565V24.7207H56.4045V19.9687C56.4045 18.6087 57.2205 17.9367 58.3405 17.9367C59.4445 17.9367 60.0365 18.6087 60.0365 19.9687ZM66.7574 24.8327C67.1894 24.8327 67.5894 24.7847 67.9414 24.6887V23.1527C67.6374 23.1847 67.4934 23.1847 67.3014 23.1847C66.4374 23.1847 66.2134 22.7847 66.2134 22.0647V18.0007H67.8454V16.4007H66.2134V14.2727H64.1654V16.4007H62.7734V18.0007H64.1654V22.3847C64.1654 24.1447 65.1894 24.8327 66.7574 24.8327ZM70.8891 21.1527L70.9051 16.4007H68.8571V21.6327C68.8411 23.8887 70.1051 24.8807 71.7371 24.8807C73.4971 24.8807 74.2971 23.7287 74.4571 23.0087H74.5211V24.7207H76.5691L76.5851 16.4007H74.5371L74.5211 21.3607C74.4251 22.5767 73.6411 23.1847 72.5851 23.1847C71.4811 23.1847 70.8891 22.5127 70.8891 21.1527ZM81.4142 24.8327C81.8462 24.8327 82.2462 24.7847 82.5982 24.6887V23.1527C82.2942 23.1847 82.1502 23.1847 81.9582 23.1847C81.0942 23.1847 80.8702 22.7847 80.8702 22.0647V18.0007H82.5022V16.4007H80.8702V14.2727H78.8222V16.4007H77.4302V18.0007H78.8222V22.3847C78.8222 24.1447 79.8462 24.8327 81.4142 24.8327ZM83.514 24.7207H85.562V16.4007H83.514V24.7207ZM83.37 14.0807C83.37 14.7367 83.914 15.2327 84.538 15.2327C85.146 15.2327 85.69 14.7367 85.69 14.0807C85.69 13.4247 85.146 12.9287 84.538 12.9287C83.914 12.9287 83.37 13.4247 83.37 14.0807ZM89.3935 24.7207H91.9695L95.0575 16.4007H92.9615L90.7215 22.7687H90.6415L88.4015 16.4007H86.3215L89.3935 24.7207ZM99.0391 24.8807C100.895 24.8807 102.351 24.0007 102.799 22.1127H100.975C100.735 22.9127 100.127 23.3127 99.0871 23.3127C97.7751 23.3127 96.9911 22.6407 96.8631 21.0887H102.863C102.895 20.9127 102.911 20.7527 102.911 20.4647C102.911 17.4247 101.151 16.2407 99.0071 16.2407C96.8311 16.2407 94.9271 17.4727 94.9271 20.5447C94.9271 23.6487 96.8791 24.8807 99.0391 24.8807ZM96.8791 19.8407C97.0231 18.4807 97.7751 17.8087 98.9751 17.8087C100.319 17.8087 100.927 18.6727 100.975 19.8407H96.8791ZM54.448 44.0647C56.16 44.0647 58.656 43.4567 58.656 40.4647V32.4007H56.608V33.4727H56.576C56.112 32.7527 55.168 32.2407 54.016 32.2407C52.304 32.2407 50.464 33.3927 50.464 36.3847C50.464 39.3767 52.272 40.5127 54.016 40.5127C55.168 40.5127 56.112 40.0007 56.576 39.2807H56.608V40.4647C56.608 41.8887 55.616 42.4807 54.4 42.4807C53.488 42.4807 52.512 42.1287 52.464 41.2807H50.656C50.672 43.5847 52.912 44.0647 54.448 44.0647ZM52.384 36.3847C52.384 34.7207 53.408 33.9527 54.544 33.9527C55.68 33.9527 56.688 34.7207 56.688 36.3847C56.688 38.0327 55.68 38.8167 54.544 38.8167C53.408 38.8167 52.384 38.0327 52.384 36.3847ZM60.044 40.7207H62.092V29.5207H60.044V40.7207ZM67.2176 40.8807C69.2976 40.8807 71.3456 39.5687 71.3456 36.5607C71.3456 33.5527 69.2976 32.2407 67.2176 32.2407C65.1216 32.2407 63.0896 33.5527 63.0896 36.5607C63.0896 39.5687 65.1216 40.8807 67.2176 40.8807ZM65.0096 36.5607C65.0096 34.7527 66.0016 33.9527 67.2176 33.9527C68.4176 33.9527 69.4096 34.7527 69.4096 36.5607C69.4096 38.3687 68.4176 39.1687 67.2176 39.1687C66.0016 39.1687 65.0096 38.3687 65.0096 36.5607ZM76.9655 40.8807C78.7575 40.8807 80.6295 39.6007 80.6295 36.5607C80.6295 33.5207 78.7575 32.2407 76.9655 32.2407C75.7495 32.2407 74.7895 32.8167 74.3895 33.6007V29.5207H72.3415V40.7207H74.3895V39.5207C74.7895 40.3047 75.7495 40.8807 76.9655 40.8807ZM74.2935 36.5607C74.2935 34.7687 75.3655 33.9527 76.4855 33.9527C77.6375 33.9527 78.7095 34.7687 78.7095 36.5607C78.7095 38.3527 77.6375 39.1687 76.4855 39.1687C75.3655 39.1687 74.2935 38.3527 74.2935 36.5607ZM83.9029 40.8807C85.7589 40.8807 86.5109 39.6967 86.6869 39.2327H86.7669V40.7207H88.7349V34.9607C88.7349 33.1207 87.7109 32.2407 85.2629 32.2407C82.7829 32.2407 81.6789 33.1367 81.6789 34.7527V35.1207H83.5989V34.9447C83.5989 34.0327 84.3029 33.7287 85.2149 33.7287C86.1109 33.7287 86.7189 34.0327 86.7189 35.0407V35.2167C86.7189 35.6487 86.4789 35.7927 85.6629 35.9047L84.1109 36.1127C82.5909 36.3207 81.2309 36.8167 81.2309 38.5447C81.2309 40.2087 82.4949 40.8807 83.9029 40.8807ZM83.2789 38.3687C83.2789 37.8727 83.5509 37.4727 84.4149 37.3447L85.7429 37.1367C86.2069 37.0727 86.6069 36.9767 86.7189 36.7847V37.8407C86.7189 38.5127 85.8869 39.3927 84.5749 39.3927C83.7109 39.3927 83.2789 39.0087 83.2789 38.3687ZM90.1234 40.7207H92.1714V29.5207H90.1234V40.7207ZM97.5445 31.6967V32.4007H96.3765V33.9847H97.5445V40.7207H99.5925V33.9847H101.224V32.4007H99.5925V31.9367C99.5925 31.2167 99.8645 30.8327 100.616 30.8327H101.272V29.2647H100.12C98.5845 29.2647 97.5445 29.9367 97.5445 31.6967ZM102.054 40.7207H104.102V32.4007H102.054V40.7207ZM101.91 30.0807C101.91 30.7367 102.454 31.2327 103.078 31.2327C103.686 31.2327 104.23 30.7367 104.23 30.0807C104.23 29.4247 103.686 28.9287 103.078 28.9287C102.454 28.9287 101.91 29.4247 101.91 30.0807ZM105.5 40.7207H107.548V29.5207H105.5V40.7207ZM112.369 40.8327C112.801 40.8327 113.201 40.7847 113.553 40.6887V39.1527C113.249 39.1847 113.105 39.1847 112.913 39.1847C112.049 39.1847 111.825 38.7847 111.825 38.0647V34.0007H113.457V32.4007H111.825V30.2727H109.777V32.4007H108.385V34.0007H109.777V38.3847C109.777 40.1447 110.801 40.8327 112.369 40.8327ZM118.103 40.8807C119.959 40.8807 121.415 40.0007 121.863 38.1127H120.039C119.799 38.9127 119.191 39.3127 118.151 39.3127C116.839 39.3127 116.055 38.6407 115.927 37.0887H121.927C121.959 36.9127 121.975 36.7527 121.975 36.4647C121.975 33.4247 120.215 32.2407 118.071 32.2407C115.895 32.2407 113.991 33.4727 113.991 36.5447C113.991 39.6487 115.943 40.8807 118.103 40.8807ZM115.943 35.8407C116.087 34.4807 116.839 33.8087 118.039 33.8087C119.383 33.8087 119.991 34.6727 120.039 35.8407H115.943ZM122.962 40.7207H125.01V36.8487C125.01 34.8967 126.146 34.0647 127.522 34.0647C127.73 34.0647 127.922 34.0807 128.162 34.1127V32.3847C127.938 32.3207 127.714 32.3047 127.522 32.3047C126.114 32.3047 125.33 33.2647 125.058 34.3847H125.01V32.4007H122.962V40.7207ZM131.916 40.8807C133.868 40.8807 135.564 40.1127 135.564 38.2727C135.564 36.8167 134.492 36.2407 133.18 35.9367L131.596 35.5847C130.924 35.4567 130.588 35.1527 130.588 34.6727C130.588 34.0967 131.052 33.7927 131.964 33.7927C132.86 33.7927 133.468 34.0967 133.596 35.0087H135.292C135.26 33.2487 134.06 32.2407 131.948 32.2407C129.948 32.2407 128.604 33.1367 128.604 34.7047C128.604 35.8247 129.26 36.7047 130.94 37.0887L132.476 37.4247C133.116 37.5527 133.452 37.8087 133.452 38.3207C133.452 39.0247 132.828 39.3287 131.948 39.3287C130.988 39.3287 130.316 38.9767 130.204 38.0967H128.38C128.396 39.9687 129.788 40.8807 131.916 40.8807Z" fill="#CCAEFF"/>
<defs>
<filter id="filter0_dddd_1_5288" x="0.518499" y="0.424403" width="194.963" height="217.296" filterUnits="userSpaceOnUse" color-interpolation-filters="sRGB">
<feFlood flood-opacity="0" result="BackgroundImageFix"/>
<feColorMatrix in="SourceAlpha" type="matrix" values="0 0 0 0 0 0 0 0 0 0 0 0 0 0 0 0 0 0 127 0" result="hardAlpha"/>
<feOffset dy="38.5185"/>
<feGaussianBlur stdDeviation="12.7408"/>
<feComposite in2="hardAlpha" operator="out"/>
<feColorMatrix type="matrix" values="0 0 0 0 0.32549 0 0 0 0 0.117647 0 0 0 0 0 0 0 0 0.08 0"/>
<feBlend mode="normal" in2="BackgroundImageFix" result="effect1_dropShadow_1_5288"/>
<feColorMatrix in="SourceAlpha" type="matrix" values="0 0 0 0 0 0 0 0 0 0 0 0 0 0 0 0 0 0 127 0" result="hardAlpha"/>
<feOffset dy="20"/>
<feGaussianBlur stdDeviation="6.5"/>
<feComposite in2="hardAlpha" operator="out"/>
<feColorMatrix type="matrix" values="0 0 0 0 0.32549 0 0 0 0 0.117647 0 0 0 0 0 0 0 0 0.08 0"/>
<feBlend mode="normal" in2="effect1_dropShadow_1_5288" result="effect2_dropShadow_1_5288"/>
<feColorMatrix in="SourceAlpha" type="matrix" values="0 0 0 0 0 0 0 0 0 0 0 0 0 0 0 0 0 0 127 0" result="hardAlpha"/>
<feOffset dy="8.14815"/>
<feGaussianBlur stdDeviation="3.25926"/>
<feComposite in2="hardAlpha" operator="out"/>
<feColorMatrix type="matrix" values="0 0 0 0 0.32549 0 0 0 0 0.117647 0 0 0 0 0 0 0 0 0.05 0"/>
<feBlend mode="normal" in2="effect2_dropShadow_1_5288" result="effect3_dropShadow_1_5288"/>
<feColorMatrix in="SourceAlpha" type="matrix" values="0 0 0 0 0 0 0 0 0 0 0 0 0 0 0 0 0 0 127 0" result="hardAlpha"/>
<feOffset dy="1.85185"/>
<feGaussianBlur stdDeviation="1.57407"/>
<feComposite in2="hardAlpha" operator="out"/>
<feColorMatrix type="matrix" values="0 0 0 0 0.325 0 0 0 0 0.117867 0 0 0 0 0.00135416 0 0 0 0.05 0"/>
<feBlend mode="normal" in2="effect3_dropShadow_1_5288" result="effect4_dropShadow_1_5288"/>
<feBlend mode="normal" in="SourceGraphic" in2="effect4_dropShadow_1_5288" result="shape"/>
</filter>
<filter id="filter1_d_1_5288" x="2" y="13.7207" width="54" height="59" filterUnits="userSpaceOnUse" color-interpolation-filters="sRGB">
<feFlood flood-opacity="0" result="BackgroundImageFix"/>
<feColorMatrix in="SourceAlpha" type="matrix" values="0 0 0 0 0 0 0 0 0 0 0 0 0 0 0 0 0 0 127 0" result="hardAlpha"/>
<feMorphology radius="3" operator="erode" in="SourceAlpha" result="effect1_dropShadow_1_5288"/>
<feOffset dy="18"/>
<feGaussianBlur stdDeviation="8"/>
<feComposite in2="hardAlpha" operator="out"/>
<feColorMatrix type="matrix" values="0 0 0 0 0 0 0 0 0 0 0 0 0 0 0 0 0 0 0.1 0"/>
<feBlend mode="normal" in2="BackgroundImageFix" result="effect1_dropShadow_1_5288"/>
<feBlend mode="normal" in="SourceGraphic" in2="effect1_dropShadow_1_5288" result="shape"/>
</filter>
<linearGradient id="paint0_linear_1_5288" x1="26.5" y1="22.7207" x2="26.5" y2="26.7592" gradientUnits="userSpaceOnUse">
<stop stop-color="white"/>
<stop offset="1" stop-color="#E9CEFF"/>
</linearGradient>
<linearGradient id="paint1_linear_1_5288" x1="31.5" y1="18.7207" x2="31.5" y2="22.7592" gradientUnits="userSpaceOnUse">
<stop stop-color="white"/>
<stop offset="1" stop-color="#E9CEFF"/>
</linearGradient>
<linearGradient id="paint2_linear_1_5288" x1="29.1662" y1="25.7207" x2="29.1662" y2="41.8745" gradientUnits="userSpaceOnUse">
<stop stop-color="white"/>
<stop offset="1" stop-color="#E9CEFF"/>
</linearGradient>
</defs>
</svg>
