<svg width="196" height="218" viewBox="0 0 196 218" fill="none" xmlns="http://www.w3.org/2000/svg">
<g filter="url(#filter0_dddd_1_5450)">
<rect x="26" y="2" width="144" height="152" rx="16" fill="black"/>
</g>
<path d="M26 56H170V138C170 146.837 162.837 154 154 154H42C33.1634 154 26 146.837 26 138V56Z" fill="#353434"/>
<path d="M61.304 98.468C66.992 98.468 70.7 94.868 70.7 89.72V89.36C70.7 84.536 67.244 81.44 62.672 81.44C59.648 81.44 57.74 82.7 56.768 84.356V83.564C56.768 78.704 58.46 76.616 61.304 76.616C63.392 76.616 64.652 77.66 65.012 79.46H70.592C69.908 74.852 66.56 71.972 61.304 71.972C55.112 71.972 51.296 76.472 51.296 84.788V86.048C51.296 93.824 54.932 98.468 61.304 98.468ZM61.232 93.86C58.928 93.86 57.632 92.24 57.632 89.9V89.612C57.632 87.452 59 85.904 61.196 85.904C63.428 85.904 64.76 87.452 64.76 89.612V89.9C64.76 92.24 63.5 93.86 61.232 93.86ZM82.9653 94.256V87.236H89.5173V82.736H82.9653V75.716H78.3213V82.736H71.7693V87.236H78.3213V94.256H82.9653Z" fill="white"/>
<path d="M60.136 113.862C60.136 110.922 58.302 108.878 55.418 108.878C52.52 108.878 50.686 110.922 50.686 113.862V114.198C50.686 117.124 52.52 119.182 55.418 119.182C55.95 119.182 56.44 119.112 56.902 118.986L57.658 120.19H59.282L58.162 118.384C59.408 117.53 60.136 116.032 60.136 114.198V113.862ZM58.456 114.198C58.456 115.472 58.078 116.48 57.364 117.096L56.58 115.836H54.942L56.118 117.712C55.894 117.754 55.67 117.782 55.418 117.782C53.5 117.782 52.38 116.368 52.38 114.198V113.862C52.38 111.692 53.486 110.278 55.418 110.278C57.336 110.278 58.456 111.692 58.456 113.862V114.198ZM64.0061 119.182C65.0421 119.182 65.8121 118.608 66.2321 117.908L66.2601 119H67.7581V111.79H66.2041V115.794C66.2041 117.082 65.5741 117.894 64.5101 117.894C63.4741 117.894 63.0681 117.236 63.0681 116.13V111.79H61.5141V116.424C61.5141 118.118 62.3261 119.182 64.0061 119.182ZM71.5363 119.182C72.5723 119.182 73.4543 118.692 73.9023 117.88L73.9583 119H75.3723V114.1C75.3723 112.602 74.3223 111.622 72.4603 111.622C70.6963 111.622 69.5483 112.462 69.3943 113.862H70.8643C70.9903 113.204 71.5363 112.826 72.4323 112.826C73.3423 112.826 73.8883 113.246 73.8883 114.044V114.562L71.0463 114.982C69.8143 115.15 69.1143 115.906 69.1143 117.054C69.1143 118.286 70.0523 119.182 71.5363 119.182ZM71.8863 117.964C71.0743 117.964 70.6123 117.586 70.6123 116.984C70.6123 116.424 70.9203 116.116 71.5783 116.018L73.8883 115.696V116.354C73.8883 117.292 72.9643 117.964 71.8863 117.964ZM78.6423 119V108.472H77.1022V119H78.6423ZM82.0136 110.418V108.472H80.3896V110.418H82.0136ZM81.9716 119V111.79H80.4316V119H81.9716ZM86.701 119.182C87.065 119.182 87.555 119.098 87.877 119.014V117.782C87.667 117.852 87.303 117.922 86.995 117.922C86.141 117.922 85.875 117.6 85.875 116.886V112.952H87.835V111.79H85.875V109.536H84.335V111.79H82.935V112.952H84.335V117.054C84.335 118.454 85.119 119.182 86.701 119.182ZM91.8138 121.38L95.4258 111.79H93.8438L91.9678 117.264L90.0218 111.79H88.3698L91.1558 118.958L90.2178 121.38H91.8138ZM101.673 119.182C103.479 119.182 104.683 118.258 104.683 116.886C104.683 115.626 103.787 115.024 101.981 114.73C100.665 114.52 100.245 114.254 100.245 113.694C100.245 113.106 100.763 112.756 101.575 112.756C102.387 112.756 102.961 113.148 103.059 113.876H104.529C104.389 112.448 103.311 111.622 101.589 111.622C99.9235 111.622 98.7615 112.49 98.7615 113.778C98.7615 115.066 99.6155 115.626 101.379 115.92C102.737 116.172 103.143 116.452 103.143 117.026C103.143 117.67 102.555 118.02 101.687 118.02C100.749 118.02 100.133 117.614 99.9935 116.76H98.5235C98.6495 118.3 99.8115 119.182 101.673 119.182ZM108.456 119.182C109.492 119.182 110.262 118.608 110.682 117.908L110.71 119H112.208V111.79H110.654V115.794C110.654 117.082 110.024 117.894 108.96 117.894C107.924 117.894 107.518 117.236 107.518 116.13V111.79H105.964V116.424C105.964 118.118 106.776 119.182 108.456 119.182ZM117.092 119.182C118.898 119.182 120.074 118.174 120.326 116.564H118.8C118.618 117.39 118.1 117.922 117.078 117.922C115.832 117.922 115.202 117.054 115.202 115.5V115.29C115.202 113.736 115.832 112.868 117.078 112.868C118.1 112.868 118.604 113.386 118.786 114.198H120.298C120.074 112.63 118.912 111.622 117.106 111.622C114.908 111.622 113.62 113.106 113.62 115.29V115.5C113.62 117.684 114.908 119.182 117.092 119.182ZM124.7 119.182C126.506 119.182 127.682 118.174 127.934 116.564H126.408C126.226 117.39 125.708 117.922 124.686 117.922C123.44 117.922 122.81 117.054 122.81 115.5V115.29C122.81 113.736 123.44 112.868 124.686 112.868C125.708 112.868 126.212 113.386 126.394 114.198H127.906C127.682 112.63 126.52 111.622 124.714 111.622C122.516 111.622 121.228 113.106 121.228 115.29V115.5C121.228 117.684 122.516 119.182 124.7 119.182ZM132.379 119.182C134.143 119.182 135.347 118.272 135.697 116.816H134.171C133.947 117.502 133.373 117.95 132.379 117.95C131.133 117.95 130.405 117.18 130.335 115.724H135.739C135.865 113.246 134.717 111.622 132.365 111.622C130.181 111.622 128.837 113.106 128.837 115.29V115.5C128.837 117.684 130.153 119.182 132.379 119.182ZM130.377 114.632C130.545 113.456 131.217 112.826 132.365 112.826C133.471 112.826 134.087 113.512 134.185 114.632H130.377ZM139.703 119.182C141.509 119.182 142.713 118.258 142.713 116.886C142.713 115.626 141.817 115.024 140.011 114.73C138.695 114.52 138.275 114.254 138.275 113.694C138.275 113.106 138.793 112.756 139.605 112.756C140.417 112.756 140.991 113.148 141.089 113.876H142.559C142.419 112.448 141.341 111.622 139.619 111.622C137.953 111.622 136.791 112.49 136.791 113.778C136.791 115.066 137.645 115.626 139.409 115.92C140.767 116.172 141.173 116.452 141.173 117.026C141.173 117.67 140.585 118.02 139.717 118.02C138.779 118.02 138.163 117.614 138.023 116.76H136.553C136.679 118.3 137.841 119.182 139.703 119.182ZM146.437 119.182C148.243 119.182 149.447 118.258 149.447 116.886C149.447 115.626 148.551 115.024 146.745 114.73C145.429 114.52 145.009 114.254 145.009 113.694C145.009 113.106 145.527 112.756 146.339 112.756C147.151 112.756 147.725 113.148 147.823 113.876H149.293C149.153 112.448 148.075 111.622 146.353 111.622C144.687 111.622 143.525 112.49 143.525 113.778C143.525 115.066 144.379 115.626 146.143 115.92C147.501 116.172 147.907 116.452 147.907 117.026C147.907 117.67 147.319 118.02 146.451 118.02C145.513 118.02 144.897 117.614 144.757 116.76H143.287C143.413 118.3 144.575 119.182 146.437 119.182ZM52.59 137.38V133.908C52.982 134.594 53.78 135.182 54.9 135.182C56.804 135.182 58.022 133.656 58.022 131.5V131.29C58.022 129.134 56.832 127.622 54.942 127.622C53.71 127.622 52.87 128.294 52.52 128.98L52.478 127.79H51.036V137.38H52.59ZM54.522 133.936C53.234 133.936 52.534 133.054 52.534 131.5V131.29C52.534 129.736 53.234 128.84 54.522 128.84C55.754 128.84 56.454 129.736 56.454 131.29V131.5C56.454 133.054 55.754 133.936 54.522 133.936ZM60.9776 135V131.332C60.9776 129.904 61.7616 129.162 63.0636 129.162C63.2316 129.162 63.3996 129.176 63.5396 129.19V127.692C63.4136 127.664 63.2596 127.65 63.1476 127.65C62.1116 127.65 61.3556 128.266 60.9636 129.19L60.9216 127.79H59.4376V135H60.9776ZM66.3546 135.182C67.3906 135.182 68.2726 134.692 68.7206 133.88L68.7766 135H70.1906V130.1C70.1906 128.602 69.1406 127.622 67.2786 127.622C65.5146 127.622 64.3666 128.462 64.2126 129.862H65.6826C65.8086 129.204 66.3546 128.826 67.2506 128.826C68.1606 128.826 68.7066 129.246 68.7066 130.044V130.562L65.8646 130.982C64.6326 131.15 63.9326 131.906 63.9326 133.054C63.9326 134.286 64.8706 135.182 66.3546 135.182ZM66.7046 133.964C65.8926 133.964 65.4306 133.586 65.4306 132.984C65.4306 132.424 65.7386 132.116 66.3966 132.018L68.7066 131.696V132.354C68.7066 133.292 67.7826 133.964 66.7046 133.964ZM73.4606 135V131.01C73.4606 129.652 74.1046 128.896 75.1406 128.896C76.0926 128.896 76.5126 129.498 76.5126 130.674V135H78.0526V130.996C78.0526 129.666 78.6546 128.896 79.6906 128.896C80.6426 128.896 81.0766 129.47 81.0766 130.66V135H82.6166V130.352C82.6166 128.686 81.8606 127.622 80.2086 127.622C79.1446 127.622 78.3326 128.14 77.8286 129.022C77.4926 128.112 76.7506 127.622 75.6726 127.622C74.5386 127.622 73.8106 128.224 73.4466 128.91L73.4046 127.79H71.9206V135H73.4606ZM87.5195 135.182C89.2835 135.182 90.4875 134.272 90.8375 132.816H89.3115C89.0875 133.502 88.5135 133.95 87.5195 133.95C86.2735 133.95 85.5455 133.18 85.4755 131.724H90.8795C91.0055 129.246 89.8575 127.622 87.5055 127.622C85.3215 127.622 83.9775 129.106 83.9775 131.29V131.5C83.9775 133.684 85.2935 135.182 87.5195 135.182ZM85.5175 130.632C85.6855 129.456 86.3575 128.826 87.5055 128.826C88.6115 128.826 89.2275 129.512 89.3255 130.632H85.5175ZM95.0272 135.182C95.3912 135.182 95.8812 135.098 96.2032 135.014V133.782C95.9932 133.852 95.6292 133.922 95.3212 133.922C94.4672 133.922 94.2012 133.6 94.2012 132.886V128.952H96.1612V127.79H94.2012V125.536H92.6612V127.79H91.2612V128.952H92.6612V133.054C92.6612 134.454 93.4452 135.182 95.0272 135.182ZM100.522 135.182C102.286 135.182 103.49 134.272 103.84 132.816H102.314C102.09 133.502 101.516 133.95 100.522 133.95C99.276 133.95 98.548 133.18 98.478 131.724H103.882C104.008 129.246 102.86 127.622 100.508 127.622C98.324 127.622 96.98 129.106 96.98 131.29V131.5C96.98 133.684 98.296 135.182 100.522 135.182ZM98.52 130.632C98.688 129.456 99.36 128.826 100.508 128.826C101.614 128.826 102.23 129.512 102.328 130.632H98.52ZM106.821 135V131.332C106.821 129.904 107.605 129.162 108.907 129.162C109.075 129.162 109.243 129.176 109.383 129.19V127.692C109.257 127.664 109.103 127.65 108.991 127.65C107.955 127.65 107.199 128.266 106.807 129.19L106.765 127.79H105.281V135H106.821ZM112.953 135.182C114.759 135.182 115.963 134.258 115.963 132.886C115.963 131.626 115.067 131.024 113.261 130.73C111.945 130.52 111.525 130.254 111.525 129.694C111.525 129.106 112.043 128.756 112.855 128.756C113.667 128.756 114.241 129.148 114.339 129.876H115.809C115.669 128.448 114.591 127.622 112.869 127.622C111.203 127.622 110.041 128.49 110.041 129.778C110.041 131.066 110.895 131.626 112.659 131.92C114.017 132.172 114.423 132.452 114.423 133.026C114.423 133.67 113.835 134.02 112.967 134.02C112.029 134.02 111.413 133.614 111.273 132.76H109.803C109.929 134.3 111.091 135.182 112.953 135.182Z" fill="#999999"/>
<g filter="url(#filter1_d_1_5450)">
<circle cx="29" cy="28" r="14" fill="#8D4AFF"/>
</g>
<mask id="mask0_1_5450" style="mask-type:alpha" maskUnits="userSpaceOnUse" x="15" y="14" width="28" height="28">
<circle cx="29" cy="28" r="14" fill="#FF6435"/>
</mask>
<g mask="url(#mask0_1_5450)">
<path d="M28.8193 19.187C27.6016 25.8015 26.6144 26.7886 20 28.0063C26.6145 29.224 27.6016 30.2111 28.8193 36.8256C30.037 30.2111 31.0241 29.224 37.6386 28.0063C31.0241 26.7886 30.0369 25.8015 28.8193 19.187Z" fill="black"/>
<path d="M28.8193 19.187C27.6016 25.8015 26.6144 26.7886 20 28.0063C26.6145 29.224 27.6016 30.2111 28.8193 36.8256C30.037 30.2111 31.0241 29.224 37.6386 28.0063C31.0241 26.7886 30.0369 25.8015 28.8193 19.187Z" fill="url(#paint0_linear_1_5450)"/>
<path d="M38.3913 29.5955C37.617 33.802 36.9891 34.4298 32.7826 35.2042C36.9891 35.9786 37.617 36.6064 38.3913 40.8129C39.1657 36.6064 39.7935 35.9785 44 35.2042C39.7934 34.4298 39.1657 33.802 38.3913 29.5955Z" fill="black"/>
<path d="M38.3913 29.5955C37.617 33.802 36.9891 34.4298 32.7826 35.2042C36.9891 35.9786 37.617 36.6064 38.3913 40.8129C39.1657 36.6064 39.7935 35.9785 44 35.2042C39.7934 34.4298 39.1657 33.802 38.3913 29.5955Z" fill="url(#paint1_linear_1_5450)"/>
</g>
<path d="M53.712 25H55.808V15.672H59.136V13.8H50.384V15.672H53.712V25ZM58.9346 25H60.9826V21.128C60.9826 19.176 62.1186 18.344 63.4946 18.344C63.7026 18.344 63.8946 18.36 64.1346 18.392V16.664C63.9106 16.6 63.6866 16.584 63.4946 16.584C62.0866 16.584 61.3026 17.544 61.0306 18.664H60.9826V16.68H58.9346V25ZM66.8397 25.16C68.6957 25.16 69.4478 23.976 69.6237 23.512H69.7038V25H71.6718V19.24C71.6718 17.4 70.6477 16.52 68.1997 16.52C65.7197 16.52 64.6157 17.416 64.6157 19.032V19.4H66.5357V19.224C66.5357 18.312 67.2397 18.008 68.1518 18.008C69.0477 18.008 69.6557 18.312 69.6557 19.32V19.496C69.6557 19.928 69.4158 20.072 68.5998 20.184L67.0477 20.392C65.5277 20.6 64.1677 21.096 64.1677 22.824C64.1677 24.488 65.4317 25.16 66.8397 25.16ZM66.2157 22.648C66.2157 22.152 66.4877 21.752 67.3517 21.624L68.6797 21.416C69.1437 21.352 69.5437 21.256 69.6557 21.064V22.12C69.6557 22.792 68.8238 23.672 67.5117 23.672C66.6477 23.672 66.2157 23.288 66.2157 22.648ZM76.7261 25.16C78.1981 25.16 80.1981 24.536 80.4541 21.864H78.5981C78.3901 22.968 77.6861 23.432 76.7101 23.432C75.2861 23.432 74.5021 22.424 74.5021 20.856C74.5021 19.288 75.2861 18.248 76.7101 18.248C77.6541 18.248 78.3901 18.68 78.5981 19.8H80.4541C80.1501 17.112 78.1821 16.52 76.7261 16.52C74.6461 16.52 72.5821 17.784 72.5821 20.856C72.5821 23.928 74.6461 25.16 76.7261 25.16ZM81.4746 25H83.5226V22.6L84.5306 21.544L87.3626 25H89.6346L85.7786 20.248L89.1866 16.68H86.9146L83.5226 20.408V13.8H81.4746V25ZM90.0765 25H92.1245V16.68H90.0765V25ZM89.9325 14.36C89.9325 15.016 90.4765 15.512 91.1005 15.512C91.7085 15.512 92.2525 15.016 92.2525 14.36C92.2525 13.704 91.7085 13.208 91.1005 13.208C90.4765 13.208 89.9325 13.704 89.9325 14.36ZM99.2021 20.248V25H101.25V19.768C101.25 17.512 99.9861 16.52 98.3541 16.52C96.5941 16.52 95.7941 17.672 95.6341 18.392H95.5701V16.68H93.5221V25H95.5701V20.248C95.5701 18.888 96.3861 18.216 97.5061 18.216C98.6101 18.216 99.2021 18.888 99.2021 20.248ZM106.239 28.344C107.951 28.344 110.447 27.736 110.447 24.744V16.68H108.399V17.752H108.367C107.903 17.032 106.959 16.52 105.807 16.52C104.095 16.52 102.255 17.672 102.255 20.664C102.255 23.656 104.063 24.792 105.807 24.792C106.959 24.792 107.903 24.28 108.367 23.56H108.399V24.744C108.399 26.168 107.407 26.76 106.191 26.76C105.279 26.76 104.303 26.408 104.255 25.56H102.447C102.463 27.864 104.703 28.344 106.239 28.344ZM104.175 20.664C104.175 19 105.199 18.232 106.335 18.232C107.471 18.232 108.479 19 108.479 20.664C108.479 22.312 107.471 23.096 106.335 23.096C105.199 23.096 104.175 22.312 104.175 20.664ZM54.576 41.16C56.432 41.16 57.888 40.28 58.336 38.392H56.512C56.272 39.192 55.664 39.592 54.624 39.592C53.312 39.592 52.528 38.92 52.4 37.368H58.4C58.432 37.192 58.448 37.032 58.448 36.744C58.448 33.704 56.688 32.52 54.544 32.52C52.368 32.52 50.464 33.752 50.464 36.824C50.464 39.928 52.416 41.16 54.576 41.16ZM52.416 36.12C52.56 34.76 53.312 34.088 54.512 34.088C55.856 34.088 56.464 34.952 56.512 36.12H52.416ZM58.3471 41H60.5551L62.4111 38.28L64.2511 41H66.4751L63.5631 36.792L66.3151 32.68H64.0911L62.4111 35.32L60.7151 32.68H58.4911L61.2431 36.792L58.3471 41ZM67.474 44.04H69.522V39.8C69.922 40.584 70.882 41.16 72.098 41.16C73.89 41.16 75.762 39.88 75.762 36.84C75.762 33.8 73.89 32.52 72.098 32.52C70.882 32.52 69.922 33.096 69.522 33.88V32.68H67.474V44.04ZM69.426 36.84C69.426 35.048 70.498 34.232 71.618 34.232C72.77 34.232 73.842 35.048 73.842 36.84C73.842 38.632 72.77 39.448 71.618 39.448C70.498 39.448 69.426 38.632 69.426 36.84ZM80.5535 41.16C82.4095 41.16 83.8655 40.28 84.3135 38.392H82.4895C82.2495 39.192 81.6415 39.592 80.6015 39.592C79.2895 39.592 78.5055 38.92 78.3775 37.368H84.3775C84.4095 37.192 84.4255 37.032 84.4255 36.744C84.4255 33.704 82.6655 32.52 80.5215 32.52C78.3455 32.52 76.4415 33.752 76.4415 36.824C76.4415 39.928 78.3935 41.16 80.5535 41.16ZM78.3935 36.12C78.5375 34.76 79.2895 34.088 80.4895 34.088C81.8335 34.088 82.4415 34.952 82.4895 36.12H78.3935ZM85.4121 41H87.4601V37.128C87.4601 35.176 88.5961 34.344 89.9721 34.344C90.1801 34.344 90.3721 34.36 90.6121 34.392V32.664C90.3881 32.6 90.1641 32.584 89.9721 32.584C88.5641 32.584 87.7801 33.544 87.5081 34.664H87.4601V32.68H85.4121V41ZM91.4515 41H93.4995V32.68H91.4515V41ZM91.3075 30.36C91.3075 31.016 91.8515 31.512 92.4755 31.512C93.0835 31.512 93.6275 31.016 93.6275 30.36C93.6275 29.704 93.0835 29.208 92.4755 29.208C91.8515 29.208 91.3075 29.704 91.3075 30.36ZM98.6091 41.16C100.465 41.16 101.921 40.28 102.369 38.392H100.545C100.305 39.192 99.6971 39.592 98.6571 39.592C97.3451 39.592 96.5611 38.92 96.4331 37.368H102.433C102.465 37.192 102.481 37.032 102.481 36.744C102.481 33.704 100.721 32.52 98.5771 32.52C96.4011 32.52 94.4971 33.752 94.4971 36.824C94.4971 39.928 96.4491 41.16 98.6091 41.16ZM96.4491 36.12C96.5931 34.76 97.3451 34.088 98.5451 34.088C99.8891 34.088 100.497 34.952 100.545 36.12H96.4491ZM109.148 36.248V41H111.196V35.768C111.196 33.512 109.932 32.52 108.3 32.52C106.54 32.52 105.74 33.672 105.58 34.392H105.516V32.68H103.468V41H105.516V36.248C105.516 34.888 106.332 34.216 107.452 34.216C108.556 34.216 109.148 34.888 109.148 36.248ZM116.345 41.16C117.817 41.16 119.817 40.536 120.073 37.864H118.217C118.009 38.968 117.305 39.432 116.329 39.432C114.905 39.432 114.121 38.424 114.121 36.856C114.121 35.288 114.905 34.248 116.329 34.248C117.273 34.248 118.009 34.68 118.217 35.8H120.073C119.769 33.112 117.801 32.52 116.345 32.52C114.265 32.52 112.201 33.784 112.201 36.856C112.201 39.928 114.265 41.16 116.345 41.16ZM124.727 41.16C126.583 41.16 128.039 40.28 128.487 38.392H126.663C126.423 39.192 125.815 39.592 124.775 39.592C123.463 39.592 122.679 38.92 122.551 37.368H128.551C128.583 37.192 128.599 37.032 128.599 36.744C128.599 33.704 126.839 32.52 124.695 32.52C122.519 32.52 120.615 33.752 120.615 36.824C120.615 39.928 122.567 41.16 124.727 41.16ZM122.567 36.12C122.711 34.76 123.463 34.088 124.663 34.088C126.007 34.088 126.615 34.952 126.663 36.12H122.567Z" fill="#CCAEFF"/>
<defs>
<filter id="filter0_dddd_1_5450" x="0.518499" y="0.7037" width="194.963" height="217.296" filterUnits="userSpaceOnUse" color-interpolation-filters="sRGB">
<feFlood flood-opacity="0" result="BackgroundImageFix"/>
<feColorMatrix in="SourceAlpha" type="matrix" values="0 0 0 0 0 0 0 0 0 0 0 0 0 0 0 0 0 0 127 0" result="hardAlpha"/>
<feOffset dy="38.5185"/>
<feGaussianBlur stdDeviation="12.7408"/>
<feComposite in2="hardAlpha" operator="out"/>
<feColorMatrix type="matrix" values="0 0 0 0 0.32549 0 0 0 0 0.117647 0 0 0 0 0 0 0 0 0.08 0"/>
<feBlend mode="normal" in2="BackgroundImageFix" result="effect1_dropShadow_1_5450"/>
<feColorMatrix in="SourceAlpha" type="matrix" values="0 0 0 0 0 0 0 0 0 0 0 0 0 0 0 0 0 0 127 0" result="hardAlpha"/>
<feOffset dy="20"/>
<feGaussianBlur stdDeviation="6.5"/>
<feComposite in2="hardAlpha" operator="out"/>
<feColorMatrix type="matrix" values="0 0 0 0 0.32549 0 0 0 0 0.117647 0 0 0 0 0 0 0 0 0.08 0"/>
<feBlend mode="normal" in2="effect1_dropShadow_1_5450" result="effect2_dropShadow_1_5450"/>
<feColorMatrix in="SourceAlpha" type="matrix" values="0 0 0 0 0 0 0 0 0 0 0 0 0 0 0 0 0 0 127 0" result="hardAlpha"/>
<feOffset dy="8.14815"/>
<feGaussianBlur stdDeviation="3.25926"/>
<feComposite in2="hardAlpha" operator="out"/>
<feColorMatrix type="matrix" values="0 0 0 0 0.32549 0 0 0 0 0.117647 0 0 0 0 0 0 0 0 0.05 0"/>
<feBlend mode="normal" in2="effect2_dropShadow_1_5450" result="effect3_dropShadow_1_5450"/>
<feColorMatrix in="SourceAlpha" type="matrix" values="0 0 0 0 0 0 0 0 0 0 0 0 0 0 0 0 0 0 127 0" result="hardAlpha"/>
<feOffset dy="1.85185"/>
<feGaussianBlur stdDeviation="1.57407"/>
<feComposite in2="hardAlpha" operator="out"/>
<feColorMatrix type="matrix" values="0 0 0 0 0.325 0 0 0 0 0.117867 0 0 0 0 0.00135416 0 0 0 0.05 0"/>
<feBlend mode="normal" in2="effect3_dropShadow_1_5450" result="effect4_dropShadow_1_5450"/>
<feBlend mode="normal" in="SourceGraphic" in2="effect4_dropShadow_1_5450" result="shape"/>
</filter>
<filter id="filter1_d_1_5450" x="2" y="14" width="54" height="59" filterUnits="userSpaceOnUse" color-interpolation-filters="sRGB">
<feFlood flood-opacity="0" result="BackgroundImageFix"/>
<feColorMatrix in="SourceAlpha" type="matrix" values="0 0 0 0 0 0 0 0 0 0 0 0 0 0 0 0 0 0 127 0" result="hardAlpha"/>
<feMorphology radius="3" operator="erode" in="SourceAlpha" result="effect1_dropShadow_1_5450"/>
<feOffset dy="18"/>
<feGaussianBlur stdDeviation="8"/>
<feComposite in2="hardAlpha" operator="out"/>
<feColorMatrix type="matrix" values="0 0 0 0 0 0 0 0 0 0 0 0 0 0 0 0 0 0 0.1 0"/>
<feBlend mode="normal" in2="BackgroundImageFix" result="effect1_dropShadow_1_5450"/>
<feBlend mode="normal" in="SourceGraphic" in2="effect1_dropShadow_1_5450" result="shape"/>
</filter>
<linearGradient id="paint0_linear_1_5450" x1="28.8193" y1="19.187" x2="28.8193" y2="33.4335" gradientUnits="userSpaceOnUse">
<stop stop-color="white"/>
<stop offset="1" stop-color="#E9CEFF"/>
</linearGradient>
<linearGradient id="paint1_linear_1_5450" x1="38.3913" y1="29.5955" x2="38.3913" y2="38.6557" gradientUnits="userSpaceOnUse">
<stop stop-color="white"/>
<stop offset="1" stop-color="#E9CEFF"/>
</linearGradient>
</defs>
</svg>
