<svg width="196" height="218" viewBox="0 0 196 218" fill="none" xmlns="http://www.w3.org/2000/svg">
<g filter="url(#filter0_dddd_1_5465)">
<rect x="26" y="2" width="144" height="152" rx="16" fill="black"/>
</g>
<path d="M26 56H170V138C170 146.837 162.837 154 154 154H42C33.1634 154 26 146.837 26 138V56Z" fill="#353434"/>
<g filter="url(#filter1_d_1_5465)">
<circle cx="29" cy="28" r="14" fill="#8D4AFF"/>
</g>
<mask id="mask0_1_5465" style="mask-type:alpha" maskUnits="userSpaceOnUse" x="15" y="14" width="28" height="28">
<circle cx="29" cy="28" r="14" fill="#FF6435"/>
</mask>
<g mask="url(#mask0_1_5465)">
<path fill-rule="evenodd" clip-rule="evenodd" d="M39.6065 17.3934C39.1905 16.9774 38.516 16.9774 38.0999 17.3934L33.2894 22.2039L33.2894 18.7494C33.2894 18.161 32.8125 17.684 32.2241 17.684C31.6357 17.684 31.1588 18.161 31.1588 18.7494L31.1588 24.7758C31.1588 25.3642 31.6357 25.8412 32.2241 25.8412L38.2506 25.8412C38.8389 25.8412 39.3159 25.3642 39.3159 24.7758C39.3159 24.1875 38.8389 23.7105 38.2506 23.7105L34.7961 23.7105L39.6065 18.9C40.0226 18.484 40.0226 17.8094 39.6065 17.3934ZM39.3159 31.2242C39.3159 30.6358 38.8389 30.1588 38.2506 30.1588L32.2241 30.1588C31.6357 30.1588 31.1588 30.6358 31.1588 31.2242L31.1588 37.2506C31.1588 37.839 31.6357 38.316 32.2241 38.316C32.8125 38.316 33.2894 37.839 33.2894 37.2506L33.2894 33.7961L38.0999 38.6066C38.516 39.0226 39.1905 39.0226 39.6065 38.6066C40.0226 38.1906 40.0226 37.516 39.6065 37.1L34.7961 32.2895L38.2506 32.2895C38.8389 32.2895 39.3159 31.8125 39.3159 31.2242ZM25.7758 17.684C25.1874 17.684 24.7104 18.161 24.7104 18.7494L24.7104 22.2039L19.8999 17.3934C19.4839 16.9774 18.8094 16.9774 18.3933 17.3934C17.9773 17.8094 17.9773 18.484 18.3933 18.9L23.2038 23.7105L19.7493 23.7105C19.1609 23.7105 18.6839 24.1875 18.6839 24.7758C18.6839 25.3642 19.1609 25.8412 19.7493 25.8412L25.7758 25.8412C26.3641 25.8412 26.8411 25.3642 26.8411 24.7758L26.8411 18.7494C26.8411 18.161 26.3641 17.684 25.7758 17.684ZM24.7104 33.7961L24.7104 37.2506C24.7104 37.839 25.1874 38.316 25.7758 38.316C26.3641 38.316 26.8411 37.839 26.8411 37.2506L26.8411 31.2242C26.8411 30.6358 26.3641 30.1588 25.7758 30.1588L19.7493 30.1588C19.1609 30.1588 18.6839 30.6358 18.6839 31.2242C18.6839 31.8125 19.1609 32.2895 19.7493 32.2895L23.2038 32.2895L18.3933 37.1C17.9773 37.516 17.9773 38.1906 18.3933 38.6066C18.8094 39.0226 19.4839 39.0226 19.9 38.6066L24.7104 33.7961Z" fill="url(#paint0_linear_1_5465)"/>
</g>
<path d="M52.772 84V79.772H57.182V78.414H52.772V75.418H57.63V74.06H51.134V84H52.772ZM60.5548 75.418V73.472H58.9308V75.418H60.5548ZM60.5128 84V76.79H58.9728V84H60.5128ZM63.8422 84V79.968C63.8422 78.68 64.5562 77.896 65.6202 77.896C66.6702 77.896 67.1042 78.554 67.1042 79.73V84H68.6302V79.352C68.6302 77.714 67.8882 76.622 66.1382 76.622C64.9762 76.622 64.2202 77.224 63.8422 77.938L63.7862 76.79H62.3022V84H63.8422ZM73.092 84.182C74.324 84.182 75.136 83.482 75.486 82.796L75.528 84H76.956V73.472H75.416V77.84C74.996 77.168 74.212 76.622 73.064 76.622C71.16 76.622 69.984 78.148 69.984 80.29V80.5C69.984 82.656 71.202 84.182 73.092 84.182ZM73.484 82.936C72.238 82.936 71.552 82.04 71.552 80.5V80.29C71.552 78.736 72.252 77.84 73.484 77.84C74.758 77.84 75.472 78.736 75.472 80.29V80.5C75.472 82.054 74.772 82.936 73.484 82.936ZM84.4351 84.182C86.2411 84.182 87.4171 83.174 87.6691 81.564H86.1431C85.9611 82.39 85.4431 82.922 84.4211 82.922C83.1751 82.922 82.5451 82.054 82.5451 80.5V80.29C82.5451 78.736 83.1751 77.868 84.4211 77.868C85.4431 77.868 85.9471 78.386 86.1291 79.198H87.6411C87.4171 77.63 86.2551 76.622 84.4491 76.622C82.2511 76.622 80.9631 78.106 80.9631 80.29V80.5C80.9631 82.684 82.2511 84.182 84.4351 84.182ZM90.4897 84V80.332C90.4897 78.904 91.2737 78.162 92.5757 78.162C92.7438 78.162 92.9118 78.176 93.0517 78.19V76.692C92.9257 76.664 92.7717 76.65 92.6597 76.65C91.6237 76.65 90.8677 77.266 90.4757 78.19L90.4337 76.79H88.9497V84H90.4897ZM97.0564 84.182C98.8204 84.182 100.024 83.272 100.374 81.816H98.8484C98.6244 82.502 98.0504 82.95 97.0564 82.95C95.8104 82.95 95.0824 82.18 95.0124 80.724H100.416C100.542 78.246 99.3944 76.622 97.0424 76.622C94.8584 76.622 93.5144 78.106 93.5144 80.29V80.5C93.5144 82.684 94.8304 84.182 97.0564 84.182ZM95.0544 79.632C95.2224 78.456 95.8944 77.826 97.0424 77.826C98.1484 77.826 98.7644 78.512 98.8624 79.632H95.0544ZM103.804 84.182C104.84 84.182 105.722 83.692 106.17 82.88L106.226 84H107.64V79.1C107.64 77.602 106.59 76.622 104.728 76.622C102.964 76.622 101.816 77.462 101.662 78.862H103.132C103.258 78.204 103.804 77.826 104.7 77.826C105.61 77.826 106.156 78.246 106.156 79.044V79.562L103.314 79.982C102.082 80.15 101.382 80.906 101.382 82.054C101.382 83.286 102.32 84.182 103.804 84.182ZM104.154 82.964C103.342 82.964 102.88 82.586 102.88 81.984C102.88 81.424 103.188 81.116 103.846 81.018L106.156 80.696V81.354C106.156 82.292 105.232 82.964 104.154 82.964ZM112.159 84.182C112.523 84.182 113.013 84.098 113.335 84.014V82.782C113.125 82.852 112.761 82.922 112.453 82.922C111.599 82.922 111.333 82.6 111.333 81.886V77.952H113.293V76.79H111.333V74.536H109.793V76.79H108.393V77.952H109.793V82.054C109.793 83.454 110.577 84.182 112.159 84.182ZM117.668 84.182C119.838 84.182 121.238 82.698 121.238 80.5V80.29C121.238 78.092 119.838 76.622 117.668 76.622C115.512 76.622 114.112 78.092 114.112 80.29V80.5C114.112 82.698 115.512 84.182 117.668 84.182ZM117.668 82.936C116.366 82.936 115.68 82.054 115.68 80.5V80.29C115.68 78.736 116.366 77.868 117.668 77.868C118.984 77.868 119.67 78.736 119.67 80.29V80.5C119.67 82.054 118.984 82.936 117.668 82.936ZM124.185 84V80.332C124.185 78.904 124.969 78.162 126.271 78.162C126.439 78.162 126.607 78.176 126.747 78.19V76.692C126.621 76.664 126.467 76.65 126.355 76.65C125.319 76.65 124.563 77.266 124.171 78.19L124.129 76.79H122.645V84H124.185ZM130.317 84.182C132.123 84.182 133.327 83.258 133.327 81.886C133.327 80.626 132.431 80.024 130.625 79.73C129.309 79.52 128.889 79.254 128.889 78.694C128.889 78.106 129.407 77.756 130.219 77.756C131.031 77.756 131.605 78.148 131.703 78.876H133.173C133.033 77.448 131.955 76.622 130.233 76.622C128.567 76.622 127.405 77.49 127.405 78.778C127.405 80.066 128.259 80.626 130.023 80.92C131.381 81.172 131.787 81.452 131.787 82.026C131.787 82.67 131.199 83.02 130.331 83.02C129.393 83.02 128.777 82.614 128.637 81.76H127.167C127.293 83.3 128.455 84.182 130.317 84.182ZM54.004 100L55.53 94.54L57.084 100H58.694L60.892 92.79H59.352L57.826 98.348L56.3 92.79H54.788L53.276 98.334L51.778 92.79H50.21L52.38 100H54.004ZM63.4396 91.418V89.472H61.8156V91.418H63.4396ZM63.3976 100V92.79H61.8576V100H63.3976ZM68.1269 100.182C68.4909 100.182 68.9809 100.098 69.3029 100.014V98.782C69.0929 98.852 68.7289 98.922 68.4209 98.922C67.5669 98.922 67.3009 98.6 67.3009 97.886V93.952H69.2609V92.79H67.3009V90.536H65.7609V92.79H64.3609V93.952H65.7609V98.054C65.7609 99.454 66.5449 100.182 68.1269 100.182ZM72.1618 100V95.968C72.1618 94.68 72.8758 93.896 73.9398 93.896C74.9898 93.896 75.4238 94.554 75.4238 95.73V100H76.9498V95.352C76.9498 93.714 76.2078 92.622 74.4578 92.622C73.3098 92.622 72.5678 93.182 72.1758 93.896V89.472H70.6218V100H72.1618ZM84.2127 100.182C84.5767 100.182 85.0667 100.098 85.3887 100.014V98.782C85.1787 98.852 84.8147 98.922 84.5067 98.922C83.6527 98.922 83.3867 98.6 83.3867 97.886V93.952H85.3467V92.79H83.3867V90.536H81.8467V92.79H80.4467V93.952H81.8467V98.054C81.8467 99.454 82.6307 100.182 84.2127 100.182ZM88.2476 100V95.968C88.2476 94.68 88.9616 93.896 90.0256 93.896C91.0756 93.896 91.5096 94.554 91.5096 95.73V100H93.0356V95.352C93.0356 93.714 92.2936 92.622 90.5436 92.622C89.3956 92.622 88.6536 93.182 88.2616 93.896V89.472H86.7076V100H88.2476ZM97.9314 100.182C99.6954 100.182 100.899 99.272 101.249 97.816H99.7234C99.4994 98.502 98.9254 98.95 97.9314 98.95C96.6854 98.95 95.9574 98.18 95.8874 96.724H101.291C101.417 94.246 100.269 92.622 97.9174 92.622C95.7334 92.622 94.3894 94.106 94.3894 96.29V96.5C94.3894 98.684 95.7054 100.182 97.9314 100.182ZM95.9294 95.632C96.0974 94.456 96.7694 93.826 97.9174 93.826C99.0234 93.826 99.6394 94.512 99.7374 95.632H95.9294ZM106.822 100V96.332C106.822 94.904 107.606 94.162 108.908 94.162C109.076 94.162 109.244 94.176 109.384 94.19V92.692C109.258 92.664 109.104 92.65 108.992 92.65C107.956 92.65 107.2 93.266 106.808 94.19L106.766 92.79H105.282V100H106.822ZM112.052 91.418V89.472H110.428V91.418H112.052ZM112.01 100V92.79H110.47V100H112.01ZM116.866 102.562C119.148 102.562 120.394 101.4 120.394 99.538V92.79H118.966L118.924 93.98C118.56 93.294 117.734 92.622 116.502 92.622C114.612 92.622 113.422 94.092 113.422 96.094V96.36C113.422 98.362 114.626 99.86 116.544 99.86C117.664 99.86 118.476 99.3 118.854 98.614V99.706C118.854 100.854 118.154 101.428 116.95 101.428C115.9 101.428 115.396 101.092 115.284 100.476H113.604C113.772 101.68 114.878 102.562 116.866 102.562ZM116.922 98.614C115.69 98.614 114.99 97.746 114.99 96.36V96.094C114.99 94.694 115.676 93.84 116.922 93.84C118.21 93.84 118.91 94.68 118.91 96.094V96.36C118.91 97.746 118.196 98.614 116.922 98.614ZM123.728 100V95.968C123.728 94.68 124.442 93.896 125.506 93.896C126.556 93.896 126.99 94.554 126.99 95.73V100H128.516V95.352C128.516 93.714 127.774 92.622 126.024 92.622C124.876 92.622 124.134 93.182 123.742 93.896V89.472H122.188V100H123.728ZM133.037 100.182C133.401 100.182 133.891 100.098 134.213 100.014V98.782C134.003 98.852 133.639 98.922 133.331 98.922C132.477 98.922 132.211 98.6 132.211 97.886V93.952H134.171V92.79H132.211V90.536H130.671V92.79H129.271V93.952H130.671V98.054C130.671 99.454 131.455 100.182 133.037 100.182ZM53.976 116.182C54.34 116.182 54.83 116.098 55.152 116.014V114.782C54.942 114.852 54.578 114.922 54.27 114.922C53.416 114.922 53.15 114.6 53.15 113.886V109.952H55.11V108.79H53.15V106.536H51.61V108.79H50.21V109.952H51.61V114.054C51.61 115.454 52.394 116.182 53.976 116.182ZM59.4848 116.182C61.6548 116.182 63.0548 114.698 63.0548 112.5V112.29C63.0548 110.092 61.6548 108.622 59.4848 108.622C57.3288 108.622 55.9288 110.092 55.9288 112.29V112.5C55.9288 114.698 57.3288 116.182 59.4848 116.182ZM59.4848 114.936C58.1828 114.936 57.4968 114.054 57.4968 112.5V112.29C57.4968 110.736 58.1828 109.868 59.4848 109.868C60.8008 109.868 61.4868 110.736 61.4868 112.29V112.5C61.4868 114.054 60.8008 114.936 59.4848 114.936ZM67.6403 116.182C69.8103 116.182 71.2103 114.698 71.2103 112.5V112.29C71.2103 110.092 69.8103 108.622 67.6403 108.622C65.4843 108.622 64.0843 110.092 64.0843 112.29V112.5C64.0843 114.698 65.4843 116.182 67.6403 116.182ZM67.6403 114.936C66.3383 114.936 65.6523 114.054 65.6523 112.5V112.29C65.6523 110.736 66.3383 109.868 67.6403 109.868C68.9563 109.868 69.6423 110.736 69.6423 112.29V112.5C69.6423 114.054 68.9563 114.936 67.6403 114.936ZM74.1579 116V105.472H72.6179V116H74.1579ZM78.6352 116.182C80.4412 116.182 81.6452 115.258 81.6452 113.886C81.6452 112.626 80.7492 112.024 78.9432 111.73C77.6272 111.52 77.2072 111.254 77.2072 110.694C77.2072 110.106 77.7252 109.756 78.5372 109.756C79.3492 109.756 79.9232 110.148 80.0212 110.876H81.4912C81.3512 109.448 80.2732 108.622 78.5512 108.622C76.8852 108.622 75.7232 109.49 75.7232 110.778C75.7232 112.066 76.5772 112.626 78.3412 112.92C79.6992 113.172 80.1052 113.452 80.1052 114.026C80.1052 114.67 79.5172 115.02 78.6492 115.02C77.7112 115.02 77.0952 114.614 76.9552 113.76H75.4852C75.6112 115.3 76.7732 116.182 78.6352 116.182ZM86.0773 116.182C87.8413 116.182 89.0453 115.272 89.3953 113.816H87.8693C87.6453 114.502 87.0713 114.95 86.0773 114.95C84.8313 114.95 84.1033 114.18 84.0333 112.724H89.4373C89.5633 110.246 88.4153 108.622 86.0633 108.622C83.8793 108.622 82.5353 110.106 82.5353 112.29V112.5C82.5353 114.684 83.8513 116.182 86.0773 116.182ZM84.0753 111.632C84.2433 110.456 84.9153 109.826 86.0633 109.826C87.1693 109.826 87.7853 110.512 87.8833 111.632H84.0753ZM93.5851 116.182C93.9491 116.182 94.4391 116.098 94.7611 116.014V114.782C94.5511 114.852 94.1871 114.922 93.8791 114.922C93.0251 114.922 92.7591 114.6 92.7591 113.886V109.952H94.7191V108.79H92.7591V106.536H91.2191V108.79H89.8191V109.952H91.2191V114.054C91.2191 115.454 92.0031 116.182 93.5851 116.182ZM100.785 116V109.952H102.745V108.79H100.785V107.586C100.785 106.872 101.051 106.536 101.905 106.536C102.213 106.536 102.577 106.62 102.787 106.676V105.458C102.465 105.374 101.975 105.29 101.611 105.29C100.029 105.29 99.245 106.018 99.245 107.418V108.79H97.845V109.952H99.245V116H100.785ZM106.723 116.182C108.893 116.182 110.293 114.698 110.293 112.5V112.29C110.293 110.092 108.893 108.622 106.723 108.622C104.567 108.622 103.167 110.092 103.167 112.29V112.5C103.167 114.698 104.567 116.182 106.723 116.182ZM106.723 114.936C105.421 114.936 104.735 114.054 104.735 112.5V112.29C104.735 110.736 105.421 109.868 106.723 109.868C108.039 109.868 108.725 110.736 108.725 112.29V112.5C108.725 114.054 108.039 114.936 106.723 114.936ZM113.241 116V112.332C113.241 110.904 114.025 110.162 115.327 110.162C115.495 110.162 115.663 110.176 115.803 110.19V108.692C115.677 108.664 115.523 108.65 115.411 108.65C114.375 108.65 113.619 109.266 113.227 110.19L113.185 108.79H111.701V116H113.241ZM122.099 118.38L125.711 108.79H124.129L122.253 114.264L120.307 108.79H118.655L121.441 115.958L120.503 118.38H122.099ZM129.72 116.182C131.89 116.182 133.29 114.698 133.29 112.5V112.29C133.29 110.092 131.89 108.622 129.72 108.622C127.564 108.622 126.164 110.092 126.164 112.29V112.5C126.164 114.698 127.564 116.182 129.72 116.182ZM129.72 114.936C128.418 114.936 127.732 114.054 127.732 112.5V112.29C127.732 110.736 128.418 109.868 129.72 109.868C131.036 109.868 131.722 110.736 131.722 112.29V112.5C131.722 114.054 131.036 114.936 129.72 114.936ZM137.12 116.182C138.156 116.182 138.926 115.608 139.346 114.908L139.374 116H140.872V108.79H139.318V112.794C139.318 114.082 138.688 114.894 137.624 114.894C136.588 114.894 136.182 114.236 136.182 113.13V108.79H134.628V113.424C134.628 115.118 135.44 116.182 137.12 116.182ZM144.202 116V112.332C144.202 110.904 144.986 110.162 146.288 110.162C146.456 110.162 146.624 110.176 146.764 110.19V108.692C146.638 108.664 146.484 108.65 146.372 108.65C145.336 108.65 144.58 109.266 144.188 110.19L144.146 108.79H142.662V116H144.202ZM52.576 132V127.968C52.576 126.68 53.29 125.896 54.354 125.896C55.404 125.896 55.838 126.554 55.838 127.73V132H57.364V127.352C57.364 125.714 56.622 124.622 54.872 124.622C53.71 124.622 52.954 125.224 52.576 125.938L52.52 124.79H51.036V132H52.576ZM62.2598 132.182C64.0238 132.182 65.2278 131.272 65.5778 129.816H64.0518C63.8278 130.502 63.2538 130.95 62.2598 130.95C61.0138 130.95 60.2858 130.18 60.2158 128.724H65.6198C65.7458 126.246 64.5978 124.622 62.2458 124.622C60.0618 124.622 58.7178 126.106 58.7178 128.29V128.5C58.7178 130.684 60.0338 132.182 62.2598 132.182ZM60.2578 127.632C60.4258 126.456 61.0978 125.826 62.2458 125.826C63.3518 125.826 63.9678 126.512 64.0658 127.632H60.2578ZM70.183 132.182C71.947 132.182 73.151 131.272 73.501 129.816H71.975C71.751 130.502 71.177 130.95 70.183 130.95C68.937 130.95 68.209 130.18 68.139 128.724H73.543C73.669 126.246 72.521 124.622 70.169 124.622C67.985 124.622 66.641 126.106 66.641 128.29V128.5C66.641 130.684 67.957 132.182 70.183 132.182ZM68.181 127.632C68.349 126.456 69.021 125.826 70.169 125.826C71.275 125.826 71.891 126.512 71.989 127.632H68.181ZM77.6721 132.182C78.9041 132.182 79.7161 131.482 80.0661 130.796L80.1081 132H81.5361V121.472H79.9961V125.84C79.5761 125.168 78.7921 124.622 77.6441 124.622C75.7401 124.622 74.5641 126.148 74.5641 128.29V128.5C74.5641 130.656 75.7821 132.182 77.6721 132.182ZM78.0641 130.936C76.8181 130.936 76.1321 130.04 76.1321 128.5V128.29C76.1321 126.736 76.8321 125.84 78.0641 125.84C79.3381 125.84 80.0521 126.736 80.0521 128.29V128.5C80.0521 130.054 79.3521 130.936 78.0641 130.936ZM86.0181 132.182C87.8241 132.182 89.0281 131.258 89.0281 129.886C89.0281 128.626 88.1321 128.024 86.3261 127.73C85.0101 127.52 84.5901 127.254 84.5901 126.694C84.5901 126.106 85.1081 125.756 85.9201 125.756C86.7321 125.756 87.3061 126.148 87.4041 126.876H88.8741C88.7341 125.448 87.6561 124.622 85.9341 124.622C84.2681 124.622 83.1061 125.49 83.1061 126.778C83.1061 128.066 83.9601 128.626 85.7241 128.92C87.0821 129.172 87.4881 129.452 87.4881 130.026C87.4881 130.67 86.9001 131.02 86.0321 131.02C85.0941 131.02 84.4781 130.614 84.3381 129.76H82.8681C82.9941 131.3 84.1561 132.182 86.0181 132.182Z" fill="#999999"/>
<path d="M50.864 25H52.96V21.112H55.232L57.456 25H59.552L57.12 20.84C58.72 20.328 59.456 19.08 59.456 17.464C59.456 15.288 58.144 13.8 55.264 13.8H50.864V25ZM52.96 19.272V15.64H55.184C56.624 15.64 57.28 16.328 57.28 17.464C57.28 18.584 56.624 19.272 55.184 19.272H52.96ZM64.1935 25.16C66.0495 25.16 67.5055 24.28 67.9535 22.392H66.1295C65.8895 23.192 65.2815 23.592 64.2415 23.592C62.9295 23.592 62.1455 22.92 62.0175 21.368H68.0175C68.0495 21.192 68.0655 21.032 68.0655 20.744C68.0655 17.704 66.3055 16.52 64.1615 16.52C61.9855 16.52 60.0815 17.752 60.0815 20.824C60.0815 23.928 62.0335 25.16 64.1935 25.16ZM62.0335 20.12C62.1775 18.76 62.9295 18.088 64.1295 18.088C65.4735 18.088 66.0815 18.952 66.1295 20.12H62.0335ZM69.0521 25H71.1001V13.8H69.0521V25ZM76.2098 25.16C78.0658 25.16 79.5218 24.28 79.9698 22.392H78.1458C77.9058 23.192 77.2978 23.592 76.2578 23.592C74.9458 23.592 74.1618 22.92 74.0338 21.368H80.0338C80.0658 21.192 80.0818 21.032 80.0818 20.744C80.0818 17.704 78.3218 16.52 76.1778 16.52C74.0018 16.52 72.0978 17.752 72.0978 20.824C72.0978 23.928 74.0498 25.16 76.2098 25.16ZM74.0498 20.12C74.1938 18.76 74.9458 18.088 76.1458 18.088C77.4898 18.088 78.0978 18.952 78.1458 20.12H74.0498ZM83.0179 25H85.5939L88.6819 16.68H86.5859L84.3459 23.048H84.2659L82.0259 16.68H79.9459L83.0179 25ZM91.1923 25.16C93.0483 25.16 93.8003 23.976 93.9763 23.512H94.0563V25H96.0243V19.24C96.0243 17.4 95.0003 16.52 92.5523 16.52C90.0723 16.52 88.9683 17.416 88.9683 19.032V19.4H90.8883V19.224C90.8883 18.312 91.5923 18.008 92.5043 18.008C93.4003 18.008 94.0083 18.312 94.0083 19.32V19.496C94.0083 19.928 93.7683 20.072 92.9523 20.184L91.4003 20.392C89.8803 20.6 88.5203 21.096 88.5203 22.824C88.5203 24.488 89.7843 25.16 91.1923 25.16ZM90.5683 22.648C90.5683 22.152 90.8403 21.752 91.7043 21.624L93.0323 21.416C93.4963 21.352 93.8963 21.256 94.0083 21.064V22.12C94.0083 22.792 93.1763 23.672 91.8643 23.672C91.0003 23.672 90.5683 23.288 90.5683 22.648ZM103.171 20.248V25H105.219V19.768C105.219 17.512 103.955 16.52 102.323 16.52C100.563 16.52 99.7629 17.672 99.6029 18.392H99.5389V16.68H97.4909V25H99.5389V20.248C99.5389 18.888 100.355 18.216 101.475 18.216C102.579 18.216 103.171 18.888 103.171 20.248ZM110.368 25.16C111.84 25.16 113.84 24.536 114.096 21.864H112.24C112.032 22.968 111.328 23.432 110.352 23.432C108.928 23.432 108.144 22.424 108.144 20.856C108.144 19.288 108.928 18.248 110.352 18.248C111.296 18.248 112.032 18.68 112.24 19.8H114.096C113.792 17.112 111.824 16.52 110.368 16.52C108.288 16.52 106.224 17.784 106.224 20.856C106.224 23.928 108.288 25.16 110.368 25.16ZM118.75 25.16C120.606 25.16 122.062 24.28 122.51 22.392H120.686C120.446 23.192 119.838 23.592 118.798 23.592C117.486 23.592 116.702 22.92 116.574 21.368H122.574C122.606 21.192 122.622 21.032 122.622 20.744C122.622 17.704 120.862 16.52 118.718 16.52C116.542 16.52 114.638 17.752 114.638 20.824C114.638 23.928 116.59 25.16 118.75 25.16ZM116.59 20.12C116.734 18.76 117.486 18.088 118.686 18.088C120.03 18.088 120.638 18.952 120.686 20.12H116.59ZM53.712 41H55.808V31.672H59.136V29.8H50.384V31.672H53.712V41ZM60.8941 41.16C62.7501 41.16 63.5021 39.976 63.6781 39.512H63.7581V41H65.7261V35.24C65.7261 33.4 64.7021 32.52 62.2541 32.52C59.7741 32.52 58.6701 33.416 58.6701 35.032V35.4H60.5901V35.224C60.5901 34.312 61.2941 34.008 62.2061 34.008C63.1021 34.008 63.7101 34.312 63.7101 35.32V35.496C63.7101 35.928 63.4701 36.072 62.6541 36.184L61.1021 36.392C59.5821 36.6 58.2221 37.096 58.2221 38.824C58.2221 40.488 59.4861 41.16 60.8941 41.16ZM60.2701 38.648C60.2701 38.152 60.5421 37.752 61.4061 37.624L62.7341 37.416C63.1981 37.352 63.5981 37.256 63.7101 37.064V38.12C63.7101 38.792 62.8781 39.672 61.5661 39.672C60.7021 39.672 60.2701 39.288 60.2701 38.648ZM67.1928 41H69.2408V37.128C69.2408 35.176 70.3768 34.344 71.7528 34.344C71.9608 34.344 72.1528 34.36 72.3928 34.392V32.664C72.1688 32.6 71.9448 32.584 71.7528 32.584C70.3448 32.584 69.5608 33.544 69.2888 34.664H69.2408V32.68H67.1928V41ZM76.5818 44.344C78.2938 44.344 80.7898 43.736 80.7898 40.744V32.68H78.7418V33.752H78.7098C78.2458 33.032 77.3018 32.52 76.1498 32.52C74.4378 32.52 72.5978 33.672 72.5978 36.664C72.5978 39.656 74.4058 40.792 76.1498 40.792C77.3018 40.792 78.2458 40.28 78.7098 39.56H78.7418V40.744C78.7418 42.168 77.7498 42.76 76.5338 42.76C75.6218 42.76 74.6458 42.408 74.5978 41.56H72.7898C72.8058 43.864 75.0458 44.344 76.5818 44.344ZM74.5178 36.664C74.5178 35 75.5418 34.232 76.6778 34.232C77.8138 34.232 78.8218 35 78.8218 36.664C78.8218 38.312 77.8138 39.096 76.6778 39.096C75.5418 39.096 74.5178 38.312 74.5178 36.664ZM85.8897 41.16C87.7457 41.16 89.2017 40.28 89.6497 38.392H87.8257C87.5857 39.192 86.9777 39.592 85.9377 39.592C84.6257 39.592 83.8417 38.92 83.7137 37.368H89.7137C89.7457 37.192 89.7617 37.032 89.7617 36.744C89.7617 33.704 88.0017 32.52 85.8577 32.52C83.6817 32.52 81.7777 33.752 81.7777 36.824C81.7777 39.928 83.7297 41.16 85.8897 41.16ZM83.7297 36.12C83.8737 34.76 84.6257 34.088 85.8257 34.088C87.1697 34.088 87.7777 34.952 87.8257 36.12H83.7297ZM93.9068 41.112C94.3388 41.112 94.7388 41.064 95.0908 40.968V39.432C94.7868 39.464 94.6428 39.464 94.4508 39.464C93.5868 39.464 93.3628 39.064 93.3628 38.344V34.28H94.9948V32.68H93.3628V30.552H91.3148V32.68H89.9228V34.28H91.3148V38.664C91.3148 40.424 92.3388 41.112 93.9068 41.112ZM99.4305 41.112C99.8625 41.112 100.263 41.064 100.615 40.968V39.432C100.311 39.464 100.167 39.464 99.9745 39.464C99.1105 39.464 98.8865 39.064 98.8865 38.344V34.28H100.519V32.68H98.8865V30.552H96.8385V32.68H95.4465V34.28H96.8385V38.664C96.8385 40.424 97.8625 41.112 99.4305 41.112ZM101.53 41H103.578V32.68H101.53V41ZM101.386 30.36C101.386 31.016 101.93 31.512 102.554 31.512C103.162 31.512 103.706 31.016 103.706 30.36C103.706 29.704 103.162 29.208 102.554 29.208C101.93 29.208 101.386 29.704 101.386 30.36ZM110.656 36.248V41H112.704V35.768C112.704 33.512 111.44 32.52 109.808 32.52C108.048 32.52 107.248 33.672 107.088 34.392H107.024V32.68H104.976V41H107.024V36.248C107.024 34.888 107.84 34.216 108.96 34.216C110.064 34.216 110.656 34.888 110.656 36.248ZM117.693 44.344C119.405 44.344 121.901 43.736 121.901 40.744V32.68H119.853V33.752H119.821C119.357 33.032 118.413 32.52 117.261 32.52C115.549 32.52 113.709 33.672 113.709 36.664C113.709 39.656 115.517 40.792 117.261 40.792C118.413 40.792 119.357 40.28 119.821 39.56H119.853V40.744C119.853 42.168 118.861 42.76 117.645 42.76C116.733 42.76 115.757 42.408 115.709 41.56H113.901C113.917 43.864 116.157 44.344 117.693 44.344ZM115.629 36.664C115.629 35 116.653 34.232 117.789 34.232C118.925 34.232 119.933 35 119.933 36.664C119.933 38.312 118.925 39.096 117.789 39.096C116.653 39.096 115.629 38.312 115.629 36.664Z" fill="#CCAEFF"/>
<defs>
<filter id="filter0_dddd_1_5465" x="0.518499" y="0.7037" width="194.963" height="217.296" filterUnits="userSpaceOnUse" color-interpolation-filters="sRGB">
<feFlood flood-opacity="0" result="BackgroundImageFix"/>
<feColorMatrix in="SourceAlpha" type="matrix" values="0 0 0 0 0 0 0 0 0 0 0 0 0 0 0 0 0 0 127 0" result="hardAlpha"/>
<feOffset dy="38.5185"/>
<feGaussianBlur stdDeviation="12.7408"/>
<feComposite in2="hardAlpha" operator="out"/>
<feColorMatrix type="matrix" values="0 0 0 0 0.32549 0 0 0 0 0.117647 0 0 0 0 0 0 0 0 0.08 0"/>
<feBlend mode="normal" in2="BackgroundImageFix" result="effect1_dropShadow_1_5465"/>
<feColorMatrix in="SourceAlpha" type="matrix" values="0 0 0 0 0 0 0 0 0 0 0 0 0 0 0 0 0 0 127 0" result="hardAlpha"/>
<feOffset dy="20"/>
<feGaussianBlur stdDeviation="6.5"/>
<feComposite in2="hardAlpha" operator="out"/>
<feColorMatrix type="matrix" values="0 0 0 0 0.32549 0 0 0 0 0.117647 0 0 0 0 0 0 0 0 0.08 0"/>
<feBlend mode="normal" in2="effect1_dropShadow_1_5465" result="effect2_dropShadow_1_5465"/>
<feColorMatrix in="SourceAlpha" type="matrix" values="0 0 0 0 0 0 0 0 0 0 0 0 0 0 0 0 0 0 127 0" result="hardAlpha"/>
<feOffset dy="8.14815"/>
<feGaussianBlur stdDeviation="3.25926"/>
<feComposite in2="hardAlpha" operator="out"/>
<feColorMatrix type="matrix" values="0 0 0 0 0.32549 0 0 0 0 0.117647 0 0 0 0 0 0 0 0 0.05 0"/>
<feBlend mode="normal" in2="effect2_dropShadow_1_5465" result="effect3_dropShadow_1_5465"/>
<feColorMatrix in="SourceAlpha" type="matrix" values="0 0 0 0 0 0 0 0 0 0 0 0 0 0 0 0 0 0 127 0" result="hardAlpha"/>
<feOffset dy="1.85185"/>
<feGaussianBlur stdDeviation="1.57407"/>
<feComposite in2="hardAlpha" operator="out"/>
<feColorMatrix type="matrix" values="0 0 0 0 0.325 0 0 0 0 0.117867 0 0 0 0 0.00135416 0 0 0 0.05 0"/>
<feBlend mode="normal" in2="effect3_dropShadow_1_5465" result="effect4_dropShadow_1_5465"/>
<feBlend mode="normal" in="SourceGraphic" in2="effect4_dropShadow_1_5465" result="shape"/>
</filter>
<filter id="filter1_d_1_5465" x="2" y="14" width="54" height="59" filterUnits="userSpaceOnUse" color-interpolation-filters="sRGB">
<feFlood flood-opacity="0" result="BackgroundImageFix"/>
<feColorMatrix in="SourceAlpha" type="matrix" values="0 0 0 0 0 0 0 0 0 0 0 0 0 0 0 0 0 0 127 0" result="hardAlpha"/>
<feMorphology radius="3" operator="erode" in="SourceAlpha" result="effect1_dropShadow_1_5465"/>
<feOffset dy="18"/>
<feGaussianBlur stdDeviation="8"/>
<feComposite in2="hardAlpha" operator="out"/>
<feColorMatrix type="matrix" values="0 0 0 0 0 0 0 0 0 0 0 0 0 0 0 0 0 0 0.1 0"/>
<feBlend mode="normal" in2="BackgroundImageFix" result="effect1_dropShadow_1_5465"/>
<feBlend mode="normal" in="SourceGraphic" in2="effect1_dropShadow_1_5465" result="shape"/>
</filter>
<linearGradient id="paint0_linear_1_5465" x1="39.6065" y1="17.3934" x2="22.4728" y2="34.5271" gradientUnits="userSpaceOnUse">
<stop stop-color="white"/>
<stop offset="1" stop-color="#E9CEFF"/>
</linearGradient>
</defs>
</svg>
