<svg width="196" height="218" viewBox="0 0 196 218" fill="none" xmlns="http://www.w3.org/2000/svg">
<g filter="url(#filter0_dddd_1_6045)">
<rect x="26" y="2" width="144" height="152" rx="16" fill="black"/>
</g>
<path d="M26 56H170V138C170 146.837 162.837 154 154 154H42C33.1634 154 26 146.837 26 138V56Z" fill="#353434"/>
<g filter="url(#filter1_d_1_6045)">
<circle cx="29" cy="28" r="14" fill="#8D4AFF"/>
</g>
<mask id="mask0_1_6045" style="mask-type:alpha" maskUnits="userSpaceOnUse" x="15" y="14" width="28" height="28">
<circle cx="29" cy="28" r="14" fill="#FF6435"/>
</mask>
<g mask="url(#mask0_1_6045)">
</g>
<g clip-path="url(#clip0_1_6045)">
<path d="M36 21H22C21.448 21 21 21.448 21 22V26H27V24L31 27L27 30V28H21V32C21 32.552 21.448 33 22 33H25V37L31 33H36C36.552 33 37 32.552 37 32V22C37 21.448 36.552 21 36 21Z" fill="#212121"/>
<path d="M36 21H22C21.448 21 21 21.448 21 22V26H27V24L31 27L27 30V28H21V32C21 32.552 21.448 33 22 33H25V37L31 33H36C36.552 33 37 32.552 37 32V22C37 21.448 36.552 21 36 21Z" fill="url(#paint0_linear_1_6045)"/>
</g>
<path d="M52.758 84V80.22H54.648L57.056 84H58.932L56.384 80.094C57.812 79.786 58.722 78.82 58.722 77.252V77.028C58.722 75.096 57.322 74.06 55.32 74.06H51.134V84H52.758ZM52.758 75.432H55.18C56.3 75.432 57.042 75.936 57.042 77.028V77.252C57.042 78.344 56.3 78.848 55.18 78.848H52.758V75.432ZM62.9845 84.182C64.7485 84.182 65.9525 83.272 66.3025 81.816H64.7765C64.5525 82.502 63.9785 82.95 62.9845 82.95C61.7385 82.95 61.0105 82.18 60.9405 80.724H66.3445C66.4705 78.246 65.3225 76.622 62.9705 76.622C60.7865 76.622 59.4425 78.106 59.4425 80.29V80.5C59.4425 82.684 60.7585 84.182 62.9845 84.182ZM60.9825 79.632C61.1505 78.456 61.8225 77.826 62.9705 77.826C64.0765 77.826 64.6925 78.512 64.7905 79.632H60.9825ZM69.7316 84.182C70.7676 84.182 71.6496 83.692 72.0976 82.88L72.1536 84H73.5676V79.1C73.5676 77.602 72.5176 76.622 70.6556 76.622C68.8916 76.622 67.7436 77.462 67.5896 78.862H69.0596C69.1856 78.204 69.7316 77.826 70.6276 77.826C71.5376 77.826 72.0836 78.246 72.0836 79.044V79.562L69.2416 79.982C68.0096 80.15 67.3096 80.906 67.3096 82.054C67.3096 83.286 68.2476 84.182 69.7316 84.182ZM70.0816 82.964C69.2696 82.964 68.8076 82.586 68.8076 81.984C68.8076 81.424 69.1156 81.116 69.7736 81.018L72.0836 80.696V81.354C72.0836 82.292 71.1596 82.964 70.0816 82.964ZM78.3916 84.182C80.1976 84.182 81.3736 83.174 81.6256 81.564H80.0996C79.9176 82.39 79.3996 82.922 78.3776 82.922C77.1316 82.922 76.5016 82.054 76.5016 80.5V80.29C76.5016 78.736 77.1316 77.868 78.3776 77.868C79.3996 77.868 79.9036 78.386 80.0856 79.198H81.5976C81.3736 77.63 80.2116 76.622 78.4056 76.622C76.2076 76.622 74.9196 78.106 74.9196 80.29V80.5C74.9196 82.684 76.2076 84.182 78.3916 84.182ZM84.3779 84V79.968C84.3779 78.68 85.0919 77.896 86.1559 77.896C87.2059 77.896 87.6399 78.554 87.6399 79.73V84H89.1659V79.352C89.1659 77.714 88.4239 76.622 86.6739 76.622C85.5259 76.622 84.7839 77.182 84.3919 77.896V73.472H82.8379V84H84.3779ZM96.6668 84.182C98.8368 84.182 100.237 82.698 100.237 80.5V80.29C100.237 78.092 98.8368 76.622 96.6668 76.622C94.5108 76.622 93.1108 78.092 93.1108 80.29V80.5C93.1108 82.698 94.5108 84.182 96.6668 84.182ZM96.6668 82.936C95.3648 82.936 94.6788 82.054 94.6788 80.5V80.29C94.6788 78.736 95.3648 77.868 96.6668 77.868C97.9828 77.868 98.6688 78.736 98.6688 80.29V80.5C98.6688 82.054 97.9828 82.936 96.6668 82.936ZM104.066 84.182C105.102 84.182 105.872 83.608 106.292 82.908L106.32 84H107.818V76.79H106.264V80.794C106.264 82.082 105.634 82.894 104.57 82.894C103.534 82.894 103.128 82.236 103.128 81.13V76.79H101.574V81.424C101.574 83.118 102.386 84.182 104.066 84.182ZM112.548 84.182C112.912 84.182 113.402 84.098 113.724 84.014V82.782C113.514 82.852 113.15 82.922 112.842 82.922C111.988 82.922 111.722 82.6 111.722 81.886V77.952H113.682V76.79H111.722V74.536H110.182V76.79H108.782V77.952H110.182V82.054C110.182 83.454 110.966 84.182 112.548 84.182ZM120.574 84.182C120.938 84.182 121.428 84.098 121.75 84.014V82.782C121.54 82.852 121.176 82.922 120.868 82.922C120.014 82.922 119.748 82.6 119.748 81.886V77.952H121.708V76.79H119.748V74.536H118.208V76.79H116.808V77.952H118.208V82.054C118.208 83.454 118.992 84.182 120.574 84.182ZM126.083 84.182C128.253 84.182 129.653 82.698 129.653 80.5V80.29C129.653 78.092 128.253 76.622 126.083 76.622C123.927 76.622 122.527 78.092 122.527 80.29V80.5C122.527 82.698 123.927 84.182 126.083 84.182ZM126.083 82.936C124.781 82.936 124.095 82.054 124.095 80.5V80.29C124.095 78.736 124.781 77.868 126.083 77.868C127.399 77.868 128.085 78.736 128.085 80.29V80.5C128.085 82.054 127.399 82.936 126.083 82.936ZM135.64 84.182C136.676 84.182 137.558 83.692 138.006 82.88L138.062 84H139.476V79.1C139.476 77.602 138.426 76.622 136.564 76.622C134.8 76.622 133.652 77.462 133.498 78.862H134.968C135.094 78.204 135.64 77.826 136.536 77.826C137.446 77.826 137.992 78.246 137.992 79.044V79.562L135.15 79.982C133.918 80.15 133.218 80.906 133.218 82.054C133.218 83.286 134.156 84.182 135.64 84.182ZM135.99 82.964C135.178 82.964 134.716 82.586 134.716 81.984C134.716 81.424 135.024 81.116 135.682 81.018L137.992 80.696V81.354C137.992 82.292 137.068 82.964 135.99 82.964ZM143.894 84.182C145.7 84.182 146.904 83.258 146.904 81.886C146.904 80.626 146.008 80.024 144.202 79.73C142.886 79.52 142.466 79.254 142.466 78.694C142.466 78.106 142.984 77.756 143.796 77.756C144.608 77.756 145.182 78.148 145.28 78.876H146.75C146.61 77.448 145.532 76.622 143.81 76.622C142.144 76.622 140.982 77.49 140.982 78.778C140.982 80.066 141.836 80.626 143.6 80.92C144.958 81.172 145.364 81.452 145.364 82.026C145.364 82.67 144.776 83.02 143.908 83.02C142.97 83.02 142.354 82.614 142.214 81.76H140.744C140.87 83.3 142.032 84.182 143.894 84.182ZM52.576 100V96.01C52.576 94.652 53.22 93.896 54.256 93.896C55.208 93.896 55.628 94.498 55.628 95.674V100H57.168V95.996C57.168 94.666 57.77 93.896 58.806 93.896C59.758 93.896 60.192 94.47 60.192 95.66V100H61.732V95.352C61.732 93.686 60.976 92.622 59.324 92.622C58.26 92.622 57.448 93.14 56.944 94.022C56.608 93.112 55.866 92.622 54.788 92.622C53.654 92.622 52.926 93.224 52.562 93.91L52.52 92.79H51.036V100H52.576ZM65.4588 100.182C66.4948 100.182 67.3768 99.692 67.8248 98.88L67.8808 100H69.2948V95.1C69.2948 93.602 68.2448 92.622 66.3828 92.622C64.6188 92.622 63.4708 93.462 63.3168 94.862H64.7868C64.9128 94.204 65.4588 93.826 66.3548 93.826C67.2648 93.826 67.8108 94.246 67.8108 95.044V95.562L64.9688 95.982C63.7368 96.15 63.0368 96.906 63.0368 98.054C63.0368 99.286 63.9748 100.182 65.4588 100.182ZM65.8088 98.964C64.9968 98.964 64.5348 98.586 64.5348 97.984C64.5348 97.424 64.8428 97.116 65.5008 97.018L67.8108 96.696V97.354C67.8108 98.292 66.8868 98.964 65.8088 98.964ZM72.5648 100V95.968C72.5648 94.68 73.2788 93.896 74.3428 93.896C75.3928 93.896 75.8268 94.554 75.8268 95.73V100H77.3528V95.352C77.3528 93.714 76.6108 92.622 74.8608 92.622C73.6988 92.622 72.9428 93.224 72.5648 93.938L72.5088 92.79H71.0248V100H72.5648ZM81.566 102.38L85.178 92.79H83.596L81.72 98.264L79.774 92.79H78.122L80.908 99.958L79.97 102.38H81.566ZM91.8316 100.182C93.6376 100.182 94.8136 99.174 95.0656 97.564H93.5396C93.3576 98.39 92.8396 98.922 91.8176 98.922C90.5716 98.922 89.9416 98.054 89.9416 96.5V96.29C89.9416 94.736 90.5716 93.868 91.8176 93.868C92.8396 93.868 93.3436 94.386 93.5256 95.198H95.0376C94.8136 93.63 93.6516 92.622 91.8456 92.622C89.6476 92.622 88.3596 94.106 88.3596 96.29V96.5C88.3596 98.684 89.6476 100.182 91.8316 100.182ZM97.8862 100V96.332C97.8862 94.904 98.6702 94.162 99.9722 94.162C100.14 94.162 100.308 94.176 100.448 94.19V92.692C100.322 92.664 100.168 92.65 100.056 92.65C99.0202 92.65 98.2642 93.266 97.8722 94.19L97.8302 92.79H96.3462V100H97.8862ZM104.453 100.182C106.217 100.182 107.421 99.272 107.771 97.816H106.245C106.021 98.502 105.447 98.95 104.453 98.95C103.207 98.95 102.479 98.18 102.409 96.724H107.813C107.939 94.246 106.791 92.622 104.439 92.622C102.255 92.622 100.911 94.106 100.911 96.29V96.5C100.911 98.684 102.227 100.182 104.453 100.182ZM102.451 95.632C102.619 94.456 103.291 93.826 104.439 93.826C105.545 93.826 106.161 94.512 106.259 95.632H102.451ZM111.2 100.182C112.236 100.182 113.118 99.692 113.566 98.88L113.622 100H115.036V95.1C115.036 93.602 113.986 92.622 112.124 92.622C110.36 92.622 109.212 93.462 109.058 94.862H110.528C110.654 94.204 111.2 93.826 112.096 93.826C113.006 93.826 113.552 94.246 113.552 95.044V95.562L110.71 95.982C109.478 96.15 108.778 96.906 108.778 98.054C108.778 99.286 109.716 100.182 111.2 100.182ZM111.55 98.964C110.738 98.964 110.276 98.586 110.276 97.984C110.276 97.424 110.584 97.116 111.242 97.018L113.552 96.696V97.354C113.552 98.292 112.628 98.964 111.55 98.964ZM119.556 100.182C119.92 100.182 120.41 100.098 120.732 100.014V98.782C120.522 98.852 120.158 98.922 119.85 98.922C118.996 98.922 118.73 98.6 118.73 97.886V93.952H120.69V92.79H118.73V90.536H117.19V92.79H115.79V93.952H117.19V98.054C117.19 99.454 117.974 100.182 119.556 100.182ZM125.064 100.182C127.234 100.182 128.634 98.698 128.634 96.5V96.29C128.634 94.092 127.234 92.622 125.064 92.622C122.908 92.622 121.508 94.092 121.508 96.29V96.5C121.508 98.698 122.908 100.182 125.064 100.182ZM125.064 98.936C123.762 98.936 123.076 98.054 123.076 96.5V96.29C123.076 94.736 123.762 93.868 125.064 93.868C126.38 93.868 127.066 94.736 127.066 96.29V96.5C127.066 98.054 126.38 98.936 125.064 98.936ZM131.582 100V96.332C131.582 94.904 132.366 94.162 133.668 94.162C133.836 94.162 134.004 94.176 134.144 94.19V92.692C134.018 92.664 133.864 92.65 133.752 92.65C132.716 92.65 131.96 93.266 131.568 94.19L131.526 92.79H130.042V100H131.582ZM137.714 100.182C139.52 100.182 140.724 99.258 140.724 97.886C140.724 96.626 139.828 96.024 138.022 95.73C136.706 95.52 136.286 95.254 136.286 94.694C136.286 94.106 136.804 93.756 137.616 93.756C138.428 93.756 139.002 94.148 139.1 94.876H140.57C140.43 93.448 139.352 92.622 137.63 92.622C135.964 92.622 134.802 93.49 134.802 94.778C134.802 96.066 135.656 96.626 137.42 96.92C138.778 97.172 139.184 97.452 139.184 98.026C139.184 98.67 138.596 99.02 137.728 99.02C136.79 99.02 136.174 98.614 136.034 97.76H134.564C134.69 99.3 135.852 100.182 137.714 100.182ZM54.004 116L55.53 110.54L57.084 116H58.694L60.892 108.79H59.352L57.826 114.348L56.3 108.79H54.788L53.276 114.334L51.778 108.79H50.21L52.38 116H54.004ZM63.4396 107.418V105.472H61.8156V107.418H63.4396ZM63.3976 116V108.79H61.8576V116H63.3976ZM68.1269 116.182C68.4909 116.182 68.9809 116.098 69.3029 116.014V114.782C69.0929 114.852 68.7289 114.922 68.4209 114.922C67.5669 114.922 67.3009 114.6 67.3009 113.886V109.952H69.2609V108.79H67.3009V106.536H65.7609V108.79H64.3609V109.952H65.7609V114.054C65.7609 115.454 66.5449 116.182 68.1269 116.182ZM72.1618 116V111.968C72.1618 110.68 72.8758 109.896 73.9398 109.896C74.9898 109.896 75.4238 110.554 75.4238 111.73V116H76.9498V111.352C76.9498 109.714 76.2078 108.622 74.4578 108.622C73.3098 108.622 72.5678 109.182 72.1758 109.896V105.472H70.6218V116H72.1618ZM83.2607 116.182C84.2967 116.182 85.1787 115.692 85.6267 114.88L85.6827 116H87.0967V111.1C87.0967 109.602 86.0467 108.622 84.1847 108.622C82.4207 108.622 81.2727 109.462 81.1187 110.862H82.5887C82.7147 110.204 83.2607 109.826 84.1567 109.826C85.0667 109.826 85.6127 110.246 85.6127 111.044V111.562L82.7707 111.982C81.5387 112.15 80.8387 112.906 80.8387 114.054C80.8387 115.286 81.7767 116.182 83.2607 116.182ZM83.6107 114.964C82.7987 114.964 82.3367 114.586 82.3367 113.984C82.3367 113.424 82.6447 113.116 83.3027 113.018L85.6127 112.696V113.354C85.6127 114.292 84.6887 114.964 83.6107 114.964ZM94.5118 116.182C96.3178 116.182 97.4938 115.174 97.7458 113.564H96.2198C96.0378 114.39 95.5198 114.922 94.4978 114.922C93.2518 114.922 92.6218 114.054 92.6218 112.5V112.29C92.6218 110.736 93.2518 109.868 94.4978 109.868C95.5198 109.868 96.0238 110.386 96.2058 111.198H97.7178C97.4938 109.63 96.3318 108.622 94.5258 108.622C92.3278 108.622 91.0398 110.106 91.0398 112.29V112.5C91.0398 114.684 92.3278 116.182 94.5118 116.182ZM102.204 116.182C104.374 116.182 105.774 114.698 105.774 112.5V112.29C105.774 110.092 104.374 108.622 102.204 108.622C100.048 108.622 98.6485 110.092 98.6485 112.29V112.5C98.6485 114.698 100.048 116.182 102.204 116.182ZM102.204 114.936C100.902 114.936 100.216 114.054 100.216 112.5V112.29C100.216 110.736 100.902 109.868 102.204 109.868C103.52 109.868 104.206 110.736 104.206 112.29V112.5C104.206 114.054 103.52 114.936 102.204 114.936ZM108.722 116V112.01C108.722 110.652 109.366 109.896 110.402 109.896C111.354 109.896 111.774 110.498 111.774 111.674V116H113.314V111.996C113.314 110.666 113.916 109.896 114.952 109.896C115.904 109.896 116.338 110.47 116.338 111.66V116H117.878V111.352C117.878 109.686 117.122 108.622 115.47 108.622C114.406 108.622 113.594 109.14 113.09 110.022C112.754 109.112 112.012 108.622 110.934 108.622C109.8 108.622 109.072 109.224 108.708 109.91L108.666 108.79H107.182V116H108.722ZM121.157 116V112.01C121.157 110.652 121.801 109.896 122.837 109.896C123.789 109.896 124.209 110.498 124.209 111.674V116H125.749V111.996C125.749 110.666 126.351 109.896 127.387 109.896C128.339 109.896 128.773 110.47 128.773 111.66V116H130.313V111.352C130.313 109.686 129.557 108.622 127.905 108.622C126.841 108.622 126.029 109.14 125.525 110.022C125.189 109.112 124.447 108.622 123.369 108.622C122.235 108.622 121.507 109.224 121.143 109.91L121.101 108.79H119.617V116H121.157ZM135.23 116.182C137.4 116.182 138.8 114.698 138.8 112.5V112.29C138.8 110.092 137.4 108.622 135.23 108.622C133.074 108.622 131.674 110.092 131.674 112.29V112.5C131.674 114.698 133.074 116.182 135.23 116.182ZM135.23 114.936C133.928 114.936 133.242 114.054 133.242 112.5V112.29C133.242 110.736 133.928 109.868 135.23 109.868C136.546 109.868 137.232 110.736 137.232 112.29V112.5C137.232 114.054 136.546 114.936 135.23 114.936ZM141.747 116V111.968C141.747 110.68 142.461 109.896 143.525 109.896C144.575 109.896 145.009 110.554 145.009 111.73V116H146.535V111.352C146.535 109.714 145.793 108.622 144.043 108.622C142.881 108.622 142.125 109.224 141.747 109.938L141.691 108.79H140.207V116H141.747ZM54.9 132.182C56.79 132.182 58.022 130.656 58.022 128.5V128.29C58.022 126.148 56.832 124.622 54.942 124.622C53.794 124.622 53.01 125.168 52.59 125.854V121.472H51.036V132H52.478L52.52 130.81C52.87 131.496 53.682 132.182 54.9 132.182ZM54.522 130.936C53.234 130.936 52.534 130.054 52.534 128.5V128.29C52.534 126.736 53.234 125.84 54.522 125.84C55.754 125.84 56.454 126.736 56.454 128.29V128.5C56.454 130.04 55.754 130.936 54.522 130.936ZM60.9776 132V128.332C60.9776 126.904 61.7616 126.162 63.0636 126.162C63.2316 126.162 63.3996 126.176 63.5396 126.19V124.692C63.4136 124.664 63.2596 124.65 63.1476 124.65C62.1116 124.65 61.3556 125.266 60.9636 126.19L60.9216 124.79H59.4376V132H60.9776ZM66.2084 123.418V121.472H64.5844V123.418H66.2084ZM66.1664 132V124.79H64.6264V132H66.1664ZM71.1198 132.182C72.8838 132.182 74.0878 131.272 74.4378 129.816H72.9118C72.6878 130.502 72.1138 130.95 71.1198 130.95C69.8738 130.95 69.1458 130.18 69.0758 128.724H74.4798C74.6058 126.246 73.4578 124.622 71.1058 124.622C68.9218 124.622 67.5778 126.106 67.5778 128.29V128.5C67.5778 130.684 68.8938 132.182 71.1198 132.182ZM69.1178 127.632C69.2858 126.456 69.9578 125.826 71.1058 125.826C72.2118 125.826 72.8278 126.512 72.9258 127.632H69.1178ZM77.9929 132V125.952H79.9529V124.79H77.9929V123.586C77.9929 122.872 78.2589 122.536 79.1129 122.536C79.4209 122.536 79.7849 122.62 79.9949 122.676V121.458C79.6729 121.374 79.1829 121.29 78.8189 121.29C77.2369 121.29 76.4529 122.018 76.4529 123.418V124.79H75.0529V125.952H76.4529V132H77.9929ZM82.3486 132V130.124H80.4726V132H82.3486Z" fill="#999999"/>
<path d="M50.864 25H52.96V21.112H55.232L57.456 25H59.552L57.12 20.84C58.72 20.328 59.456 19.08 59.456 17.464C59.456 15.288 58.144 13.8 55.264 13.8H50.864V25ZM52.96 19.272V15.64H55.184C56.624 15.64 57.28 16.328 57.28 17.464C57.28 18.584 56.624 19.272 55.184 19.272H52.96ZM64.1935 25.16C66.0495 25.16 67.5055 24.28 67.9535 22.392H66.1295C65.8895 23.192 65.2815 23.592 64.2415 23.592C62.9295 23.592 62.1455 22.92 62.0175 21.368H68.0175C68.0495 21.192 68.0655 21.032 68.0655 20.744C68.0655 17.704 66.3055 16.52 64.1615 16.52C61.9855 16.52 60.0815 17.752 60.0815 20.824C60.0815 23.928 62.0335 25.16 64.1935 25.16ZM62.0335 20.12C62.1775 18.76 62.9295 18.088 64.1295 18.088C65.4735 18.088 66.0815 18.952 66.1295 20.12H62.0335ZM71.3241 25.16C73.1801 25.16 73.9321 23.976 74.1081 23.512H74.1881V25H76.1561V19.24C76.1561 17.4 75.1321 16.52 72.6841 16.52C70.2041 16.52 69.1001 17.416 69.1001 19.032V19.4H71.0201V19.224C71.0201 18.312 71.7241 18.008 72.6361 18.008C73.5321 18.008 74.1401 18.312 74.1401 19.32V19.496C74.1401 19.928 73.9001 20.072 73.0841 20.184L71.5321 20.392C70.0121 20.6 68.6521 21.096 68.6521 22.824C68.6521 24.488 69.9161 25.16 71.3241 25.16ZM70.7001 22.648C70.7001 22.152 70.9721 21.752 71.8361 21.624L73.1641 21.416C73.6281 21.352 74.0281 21.256 74.1401 21.064V22.12C74.1401 22.792 73.3081 23.672 71.9961 23.672C71.1321 23.672 70.7001 23.288 70.7001 22.648ZM81.2105 25.16C82.6825 25.16 84.6825 24.536 84.9385 21.864H83.0825C82.8745 22.968 82.1705 23.432 81.1945 23.432C79.7705 23.432 78.9865 22.424 78.9865 20.856C78.9865 19.288 79.7705 18.248 81.1945 18.248C82.1385 18.248 82.8745 18.68 83.0825 19.8H84.9385C84.6345 17.112 82.6665 16.52 81.2105 16.52C79.1305 16.52 77.0665 17.784 77.0665 20.856C77.0665 23.928 79.1305 25.16 81.2105 25.16ZM91.639 20.248V25H93.687V19.768C93.687 17.512 92.423 16.52 90.791 16.52C89.031 16.52 88.231 17.672 88.071 18.392H88.007V13.8H85.959V25H88.007V20.248C88.007 18.888 88.823 18.216 89.943 18.216C91.047 18.216 91.639 18.888 91.639 20.248ZM102.188 25.16C104.268 25.16 106.316 23.848 106.316 20.84C106.316 17.832 104.268 16.52 102.188 16.52C100.092 16.52 98.0596 17.832 98.0596 20.84C98.0596 23.848 100.092 25.16 102.188 25.16ZM99.9796 20.84C99.9796 19.032 100.972 18.232 102.188 18.232C103.388 18.232 104.38 19.032 104.38 20.84C104.38 22.648 103.388 23.448 102.188 23.448C100.972 23.448 99.9796 22.648 99.9796 20.84ZM109.343 21.432L109.359 16.68H107.311V21.912C107.295 24.168 108.559 25.16 110.191 25.16C111.951 25.16 112.751 24.008 112.911 23.288H112.975V25H115.023L115.039 16.68H112.991L112.975 21.64C112.879 22.856 112.095 23.464 111.039 23.464C109.935 23.464 109.343 22.792 109.343 21.432ZM119.869 25.112C120.301 25.112 120.701 25.064 121.053 24.968V23.432C120.749 23.464 120.605 23.464 120.413 23.464C119.549 23.464 119.325 23.064 119.325 22.344V18.28H120.957V16.68H119.325V14.552H117.277V16.68H115.885V18.28H117.277V22.664C117.277 24.424 118.301 25.112 119.869 25.112ZM54.576 41.16C56.432 41.16 57.888 40.28 58.336 38.392H56.512C56.272 39.192 55.664 39.592 54.624 39.592C53.312 39.592 52.528 38.92 52.4 37.368H58.4C58.432 37.192 58.448 37.032 58.448 36.744C58.448 33.704 56.688 32.52 54.544 32.52C52.368 32.52 50.464 33.752 50.464 36.824C50.464 39.928 52.416 41.16 54.576 41.16ZM52.416 36.12C52.56 34.76 53.312 34.088 54.512 34.088C55.856 34.088 56.464 34.952 56.512 36.12H52.416ZM65.1146 36.248V41H67.1626V35.768C67.1626 33.512 65.8986 32.52 64.2666 32.52C62.5066 32.52 61.7066 33.672 61.5466 34.392H61.4826V32.68H59.4346V41H61.4826V36.248C61.4826 34.888 62.2986 34.216 63.4186 34.216C64.5226 34.216 65.1146 34.888 65.1146 36.248ZM82.5113 36.248V41H84.5593V35.768C84.5593 33.512 83.3593 32.52 81.7593 32.52C80.1113 32.52 79.2473 33.704 79.0873 34.44C78.7033 33.112 77.7113 32.52 76.5433 32.52C75.0073 32.52 74.1753 33.672 74.0473 34.392H73.9833V32.68H71.9353V41H73.9833V36.248C73.9833 34.888 74.7033 34.216 75.6793 34.216C76.6713 34.216 77.2153 34.888 77.2153 36.248V41H79.2633V36.248C79.2633 34.888 79.9833 34.216 80.9593 34.216C81.9513 34.216 82.5113 34.888 82.5113 36.248ZM88.231 41.16C90.087 41.16 90.839 39.976 91.015 39.512H91.095V41H93.063V35.24C93.063 33.4 92.039 32.52 89.591 32.52C87.111 32.52 86.007 33.416 86.007 35.032V35.4H87.927V35.224C87.927 34.312 88.631 34.008 89.543 34.008C90.439 34.008 91.047 34.312 91.047 35.32V35.496C91.047 35.928 90.807 36.072 89.991 36.184L88.439 36.392C86.919 36.6 85.559 37.096 85.559 38.824C85.559 40.488 86.823 41.16 88.231 41.16ZM87.607 38.648C87.607 38.152 87.879 37.752 88.743 37.624L90.071 37.416C90.535 37.352 90.935 37.256 91.047 37.064V38.12C91.047 38.792 90.215 39.672 88.903 39.672C88.039 39.672 87.607 39.288 87.607 38.648ZM97.5075 41.16C99.4595 41.16 101.156 40.392 101.156 38.552C101.156 37.096 100.084 36.52 98.7715 36.216L97.1875 35.864C96.5155 35.736 96.1795 35.432 96.1795 34.952C96.1795 34.376 96.6435 34.072 97.5555 34.072C98.4515 34.072 99.0595 34.376 99.1875 35.288H100.884C100.852 33.528 99.6515 32.52 97.5395 32.52C95.5395 32.52 94.1955 33.416 94.1955 34.984C94.1955 36.104 94.8515 36.984 96.5315 37.368L98.0675 37.704C98.7075 37.832 99.0435 38.088 99.0435 38.6C99.0435 39.304 98.4195 39.608 97.5395 39.608C96.5795 39.608 95.9075 39.256 95.7955 38.376H93.9715C93.9875 40.248 95.3795 41.16 97.5075 41.16ZM105.125 41.16C107.077 41.16 108.773 40.392 108.773 38.552C108.773 37.096 107.701 36.52 106.389 36.216L104.805 35.864C104.133 35.736 103.797 35.432 103.797 34.952C103.797 34.376 104.261 34.072 105.173 34.072C106.069 34.072 106.677 34.376 106.805 35.288H108.501C108.469 33.528 107.269 32.52 105.157 32.52C103.157 32.52 101.813 33.416 101.813 34.984C101.813 36.104 102.469 36.984 104.149 37.368L105.685 37.704C106.325 37.832 106.661 38.088 106.661 38.6C106.661 39.304 106.037 39.608 105.157 39.608C104.197 39.608 103.525 39.256 103.413 38.376H101.589C101.605 40.248 102.997 41.16 105.125 41.16ZM113.398 41.16C115.254 41.16 116.71 40.28 117.158 38.392H115.334C115.094 39.192 114.486 39.592 113.446 39.592C112.134 39.592 111.35 38.92 111.222 37.368H117.222C117.254 37.192 117.27 37.032 117.27 36.744C117.27 33.704 115.51 32.52 113.366 32.52C111.19 32.52 109.286 33.752 109.286 36.824C109.286 39.928 111.238 41.16 113.398 41.16ZM111.238 36.12C111.382 34.76 112.134 34.088 113.334 34.088C114.678 34.088 115.286 34.952 115.334 36.12H111.238Z" fill="#CCAEFF"/>
<defs>
<filter id="filter0_dddd_1_6045" x="0.518499" y="0.7037" width="194.963" height="217.296" filterUnits="userSpaceOnUse" color-interpolation-filters="sRGB">
<feFlood flood-opacity="0" result="BackgroundImageFix"/>
<feColorMatrix in="SourceAlpha" type="matrix" values="0 0 0 0 0 0 0 0 0 0 0 0 0 0 0 0 0 0 127 0" result="hardAlpha"/>
<feOffset dy="38.5185"/>
<feGaussianBlur stdDeviation="12.7408"/>
<feComposite in2="hardAlpha" operator="out"/>
<feColorMatrix type="matrix" values="0 0 0 0 0.32549 0 0 0 0 0.117647 0 0 0 0 0 0 0 0 0.08 0"/>
<feBlend mode="normal" in2="BackgroundImageFix" result="effect1_dropShadow_1_6045"/>
<feColorMatrix in="SourceAlpha" type="matrix" values="0 0 0 0 0 0 0 0 0 0 0 0 0 0 0 0 0 0 127 0" result="hardAlpha"/>
<feOffset dy="20"/>
<feGaussianBlur stdDeviation="6.5"/>
<feComposite in2="hardAlpha" operator="out"/>
<feColorMatrix type="matrix" values="0 0 0 0 0.32549 0 0 0 0 0.117647 0 0 0 0 0 0 0 0 0.08 0"/>
<feBlend mode="normal" in2="effect1_dropShadow_1_6045" result="effect2_dropShadow_1_6045"/>
<feColorMatrix in="SourceAlpha" type="matrix" values="0 0 0 0 0 0 0 0 0 0 0 0 0 0 0 0 0 0 127 0" result="hardAlpha"/>
<feOffset dy="8.14815"/>
<feGaussianBlur stdDeviation="3.25926"/>
<feComposite in2="hardAlpha" operator="out"/>
<feColorMatrix type="matrix" values="0 0 0 0 0.32549 0 0 0 0 0.117647 0 0 0 0 0 0 0 0 0.05 0"/>
<feBlend mode="normal" in2="effect2_dropShadow_1_6045" result="effect3_dropShadow_1_6045"/>
<feColorMatrix in="SourceAlpha" type="matrix" values="0 0 0 0 0 0 0 0 0 0 0 0 0 0 0 0 0 0 127 0" result="hardAlpha"/>
<feOffset dy="1.85185"/>
<feGaussianBlur stdDeviation="1.57407"/>
<feComposite in2="hardAlpha" operator="out"/>
<feColorMatrix type="matrix" values="0 0 0 0 0.325 0 0 0 0 0.117867 0 0 0 0 0.00135416 0 0 0 0.05 0"/>
<feBlend mode="normal" in2="effect3_dropShadow_1_6045" result="effect4_dropShadow_1_6045"/>
<feBlend mode="normal" in="SourceGraphic" in2="effect4_dropShadow_1_6045" result="shape"/>
</filter>
<filter id="filter1_d_1_6045" x="2" y="14" width="54" height="59" filterUnits="userSpaceOnUse" color-interpolation-filters="sRGB">
<feFlood flood-opacity="0" result="BackgroundImageFix"/>
<feColorMatrix in="SourceAlpha" type="matrix" values="0 0 0 0 0 0 0 0 0 0 0 0 0 0 0 0 0 0 127 0" result="hardAlpha"/>
<feMorphology radius="3" operator="erode" in="SourceAlpha" result="effect1_dropShadow_1_6045"/>
<feOffset dy="18"/>
<feGaussianBlur stdDeviation="8"/>
<feComposite in2="hardAlpha" operator="out"/>
<feColorMatrix type="matrix" values="0 0 0 0 0 0 0 0 0 0 0 0 0 0 0 0 0 0 0.1 0"/>
<feBlend mode="normal" in2="BackgroundImageFix" result="effect1_dropShadow_1_6045"/>
<feBlend mode="normal" in="SourceGraphic" in2="effect1_dropShadow_1_6045" result="shape"/>
</filter>
<linearGradient id="paint0_linear_1_6045" x1="29" y1="21" x2="29" y2="33.9231" gradientUnits="userSpaceOnUse">
<stop stop-color="white"/>
<stop offset="1" stop-color="#E9CEFF"/>
</linearGradient>
<clipPath id="clip0_1_6045">
<rect width="16" height="16" fill="white" transform="translate(21 21)"/>
</clipPath>
</defs>
</svg>
