<svg width="196" height="218" viewBox="0 0 196 218" fill="none" xmlns="http://www.w3.org/2000/svg">
<g filter="url(#filter0_dddd_1_6027)">
<rect x="26" y="2" width="144" height="152" rx="16" fill="black"/>
</g>
<path d="M26 56H170V154C170 162.837 162.837 170 154 170H42C33.1634 170 26 162.837 26 154V56Z" fill="#353434"/>
<path d="M62.384 98V72.44H58.028C56.264 74.924 53.96 76.364 51.224 76.904V82.16C53.132 81.8 54.824 81.08 56.264 80.036V98H62.384ZM75.0633 98.468C81.0033 98.468 84.7833 95.516 84.7833 90.944V90.584C84.7833 87.488 82.8033 85.364 80.1393 84.608C82.4433 83.744 83.8473 81.728 83.8473 79.28V78.92C83.8473 74.744 80.1753 71.972 75.0633 71.972C69.9153 71.972 66.2433 74.744 66.2433 78.92V79.28C66.2433 81.728 67.6473 83.744 69.9513 84.608C67.2513 85.364 65.3073 87.488 65.3073 90.584V90.944C65.3073 95.516 69.1233 98.468 75.0633 98.468ZM75.0633 82.484C72.9753 82.484 71.7153 81.368 71.7153 79.604V79.316C71.7153 77.552 73.0113 76.436 75.0633 76.436C77.0793 76.436 78.3753 77.552 78.3753 79.316V79.604C78.3753 81.368 77.1153 82.484 75.0633 82.484ZM75.0633 93.896C72.8313 93.896 71.2473 92.564 71.2473 90.548V90.26C71.2473 88.244 72.7953 86.948 75.0633 86.948C77.2953 86.948 78.8073 88.244 78.8073 90.26V90.548C78.8073 92.564 77.2953 93.896 75.0633 93.896Z" fill="white"/>
<path d="M52.618 110.418V108.472H50.994V110.418H52.618ZM52.576 119V111.79H51.036V119H52.576ZM55.9054 119V114.968C55.9054 113.68 56.6194 112.896 57.6834 112.896C58.7334 112.896 59.1674 113.554 59.1674 114.73V119H60.6934V114.352C60.6934 112.714 59.9514 111.622 58.2014 111.622C57.0394 111.622 56.2834 112.224 55.9054 112.938L55.8494 111.79H54.3654V119H55.9054ZM65.1552 119.182C66.3872 119.182 67.1992 118.482 67.5492 117.796L67.5912 119H69.0192V108.472H67.4792V112.84C67.0592 112.168 66.2752 111.622 65.1272 111.622C63.2232 111.622 62.0472 113.148 62.0472 115.29V115.5C62.0472 117.656 63.2652 119.182 65.1552 119.182ZM65.5472 117.936C64.3012 117.936 63.6152 117.04 63.6152 115.5V115.29C63.6152 113.736 64.3152 112.84 65.5472 112.84C66.8212 112.84 67.5352 113.736 67.5352 115.29V115.5C67.5352 117.054 66.8352 117.936 65.5472 117.936ZM73.2352 119.182C74.2712 119.182 75.0412 118.608 75.4612 117.908L75.4892 119H76.9872V111.79H75.4332V115.794C75.4332 117.082 74.8032 117.894 73.7392 117.894C72.7032 117.894 72.2972 117.236 72.2972 116.13V111.79H70.7432V116.424C70.7432 118.118 71.5552 119.182 73.2352 119.182ZM81.4653 119.182C83.2713 119.182 84.4753 118.258 84.4753 116.886C84.4753 115.626 83.5793 115.024 81.7733 114.73C80.4573 114.52 80.0373 114.254 80.0373 113.694C80.0373 113.106 80.5553 112.756 81.3673 112.756C82.1793 112.756 82.7533 113.148 82.8513 113.876H84.3213C84.1813 112.448 83.1033 111.622 81.3813 111.622C79.7153 111.622 78.5533 112.49 78.5533 113.778C78.5533 115.066 79.4073 115.626 81.1713 115.92C82.5293 116.172 82.9353 116.452 82.9353 117.026C82.9353 117.67 82.3473 118.02 81.4793 118.02C80.5413 118.02 79.9253 117.614 79.7853 116.76H78.3153C78.4413 118.3 79.6033 119.182 81.4653 119.182ZM88.6834 119.182C89.0474 119.182 89.5374 119.098 89.8594 119.014V117.782C89.6494 117.852 89.2854 117.922 88.9774 117.922C88.1234 117.922 87.8574 117.6 87.8574 116.886V112.952H89.8174V111.79H87.8574V109.536H86.3174V111.79H84.9174V112.952H86.3174V117.054C86.3174 118.454 87.1014 119.182 88.6834 119.182ZM92.7183 119V115.332C92.7183 113.904 93.5023 113.162 94.8043 113.162C94.9723 113.162 95.1403 113.176 95.2803 113.19V111.692C95.1543 111.664 95.0003 111.65 94.8883 111.65C93.8523 111.65 93.0963 112.266 92.7043 113.19L92.6623 111.79H91.1783V119H92.7183ZM97.949 110.418V108.472H96.325V110.418H97.949ZM97.907 119V111.79H96.367V119H97.907ZM102.86 119.182C104.624 119.182 105.828 118.272 106.178 116.816H104.652C104.428 117.502 103.854 117.95 102.86 117.95C101.614 117.95 100.886 117.18 100.816 115.724H106.22C106.346 113.246 105.198 111.622 102.846 111.622C100.662 111.622 99.3184 113.106 99.3184 115.29V115.5C99.3184 117.684 100.634 119.182 102.86 119.182ZM100.858 114.632C101.026 113.456 101.698 112.826 102.846 112.826C103.952 112.826 104.568 113.512 104.666 114.632H100.858ZM110.184 119.182C111.99 119.182 113.194 118.258 113.194 116.886C113.194 115.626 112.298 115.024 110.492 114.73C109.176 114.52 108.756 114.254 108.756 113.694C108.756 113.106 109.274 112.756 110.086 112.756C110.898 112.756 111.472 113.148 111.57 113.876H113.04C112.9 112.448 111.822 111.622 110.1 111.622C108.434 111.622 107.272 112.49 107.272 113.778C107.272 115.066 108.126 115.626 109.89 115.92C111.248 116.172 111.654 116.452 111.654 117.026C111.654 117.67 111.066 118.02 110.198 118.02C109.26 118.02 108.644 117.614 108.504 116.76H107.034C107.16 118.3 108.322 119.182 110.184 119.182ZM54.13 135.182C55.936 135.182 57.112 134.174 57.364 132.564H55.838C55.656 133.39 55.138 133.922 54.116 133.922C52.87 133.922 52.24 133.054 52.24 131.5V131.29C52.24 129.736 52.87 128.868 54.116 128.868C55.138 128.868 55.642 129.386 55.824 130.198H57.336C57.112 128.63 55.95 127.622 54.144 127.622C51.946 127.622 50.658 129.106 50.658 131.29V131.5C50.658 133.684 51.946 135.182 54.13 135.182ZM61.8227 135.182C63.9927 135.182 65.3927 133.698 65.3927 131.5V131.29C65.3927 129.092 63.9927 127.622 61.8227 127.622C59.6667 127.622 58.2667 129.092 58.2667 131.29V131.5C58.2667 133.698 59.6667 135.182 61.8227 135.182ZM61.8227 133.936C60.5207 133.936 59.8347 133.054 59.8347 131.5V131.29C59.8347 129.736 60.5207 128.868 61.8227 128.868C63.1387 128.868 63.8247 129.736 63.8247 131.29V131.5C63.8247 133.054 63.1387 133.936 61.8227 133.936ZM70.2195 135L72.8795 127.79H71.3115L69.4075 133.432L67.4755 127.79H65.8375L68.5255 135H70.2195ZM76.8893 135.182C78.6533 135.182 79.8573 134.272 80.2073 132.816H78.6813C78.4573 133.502 77.8833 133.95 76.8893 133.95C75.6433 133.95 74.9153 133.18 74.8453 131.724H80.2493C80.3753 129.246 79.2273 127.622 76.8753 127.622C74.6913 127.622 73.3473 129.106 73.3473 131.29V131.5C73.3473 133.684 74.6633 135.182 76.8893 135.182ZM74.8873 130.632C75.0553 129.456 75.7273 128.826 76.8753 128.826C77.9813 128.826 78.5973 129.512 78.6953 130.632H74.8873ZM83.1884 135V131.332C83.1884 129.904 83.9724 129.162 85.2744 129.162C85.4424 129.162 85.6104 129.176 85.7504 129.19V127.692C85.6244 127.664 85.4704 127.65 85.3584 127.65C84.3224 127.65 83.5664 128.266 83.1744 129.19L83.1324 127.79H81.6484V135H83.1884ZM89.7551 135.182C91.5191 135.182 92.7231 134.272 93.0731 132.816H91.5471C91.3231 133.502 90.7491 133.95 89.7551 133.95C88.5091 133.95 87.7811 133.18 87.7111 131.724H93.1151C93.2411 129.246 92.0931 127.622 89.7411 127.622C87.5571 127.622 86.2131 129.106 86.2131 131.29V131.5C86.2131 133.684 87.5291 135.182 89.7551 135.182ZM87.7531 130.632C87.9211 129.456 88.5931 128.826 89.7411 128.826C90.8471 128.826 91.4631 129.512 91.5611 130.632H87.7531ZM97.2442 135.182C98.4762 135.182 99.2882 134.482 99.6382 133.796L99.6802 135H101.108V124.472H99.5682V128.84C99.1482 128.168 98.3642 127.622 97.2162 127.622C95.3122 127.622 94.1362 129.148 94.1362 131.29V131.5C94.1362 133.656 95.3542 135.182 97.2442 135.182ZM97.6362 133.936C96.3902 133.936 95.7042 133.04 95.7042 131.5V131.29C95.7042 129.736 96.4042 128.84 97.6362 128.84C98.9102 128.84 99.6242 129.736 99.6242 131.29V131.5C99.6242 133.054 98.9242 133.936 97.6362 133.936ZM109.357 135.182C111.247 135.182 112.479 133.656 112.479 131.5V131.29C112.479 129.148 111.289 127.622 109.399 127.622C108.251 127.622 107.467 128.168 107.047 128.854V124.472H105.493V135H106.935L106.977 133.81C107.327 134.496 108.139 135.182 109.357 135.182ZM108.979 133.936C107.691 133.936 106.991 133.054 106.991 131.5V131.29C106.991 129.736 107.691 128.84 108.979 128.84C110.211 128.84 110.911 129.736 110.911 131.29V131.5C110.911 133.04 110.211 133.936 108.979 133.936ZM116.376 137.38L119.988 127.79H118.406L116.53 133.264L114.584 127.79H112.932L115.718 134.958L114.78 137.38H116.376ZM54.13 151.182C55.936 151.182 57.112 150.174 57.364 148.564H55.838C55.656 149.39 55.138 149.922 54.116 149.922C52.87 149.922 52.24 149.054 52.24 147.5V147.29C52.24 145.736 52.87 144.868 54.116 144.868C55.138 144.868 55.642 145.386 55.824 146.198H57.336C57.112 144.63 55.95 143.622 54.144 143.622C51.946 143.622 50.658 145.106 50.658 147.29V147.5C50.658 149.684 51.946 151.182 54.13 151.182ZM60.1847 151V147.332C60.1847 145.904 60.9687 145.162 62.2707 145.162C62.4387 145.162 62.6067 145.176 62.7467 145.19V143.692C62.6207 143.664 62.4667 143.65 62.3547 143.65C61.3187 143.65 60.5627 144.266 60.1707 145.19L60.1287 143.79H58.6447V151H60.1847ZM66.7513 151.182C68.5153 151.182 69.7193 150.272 70.0693 148.816H68.5433C68.3193 149.502 67.7453 149.95 66.7513 149.95C65.5053 149.95 64.7773 149.18 64.7073 147.724H70.1113C70.2373 145.246 69.0893 143.622 66.7373 143.622C64.5533 143.622 63.2093 145.106 63.2093 147.29V147.5C63.2093 149.684 64.5253 151.182 66.7513 151.182ZM64.7493 146.632C64.9173 145.456 65.5893 144.826 66.7373 144.826C67.8433 144.826 68.4593 145.512 68.5573 146.632H64.7493ZM73.4985 151.182C74.5345 151.182 75.4165 150.692 75.8645 149.88L75.9205 151H77.3345V146.1C77.3345 144.602 76.2845 143.622 74.4225 143.622C72.6585 143.622 71.5105 144.462 71.3565 145.862H72.8265C72.9525 145.204 73.4985 144.826 74.3945 144.826C75.3045 144.826 75.8505 145.246 75.8505 146.044V146.562L73.0085 146.982C71.7765 147.15 71.0765 147.906 71.0765 149.054C71.0765 150.286 72.0145 151.182 73.4985 151.182ZM73.8485 149.964C73.0365 149.964 72.5745 149.586 72.5745 148.984C72.5745 148.424 72.8825 148.116 73.5405 148.018L75.8505 147.696V148.354C75.8505 149.292 74.9265 149.964 73.8485 149.964ZM81.854 151.182C82.218 151.182 82.708 151.098 83.03 151.014V149.782C82.82 149.852 82.456 149.922 82.148 149.922C81.294 149.922 81.028 149.6 81.028 148.886V144.952H82.988V143.79H81.028V141.536H79.488V143.79H78.088V144.952H79.488V149.054C79.488 150.454 80.272 151.182 81.854 151.182ZM87.3628 151.182C89.5328 151.182 90.9328 149.698 90.9328 147.5V147.29C90.9328 145.092 89.5328 143.622 87.3628 143.622C85.2068 143.622 83.8068 145.092 83.8068 147.29V147.5C83.8068 149.698 85.2068 151.182 87.3628 151.182ZM87.3628 149.936C86.0608 149.936 85.3748 149.054 85.3748 147.5V147.29C85.3748 145.736 86.0608 144.868 87.3628 144.868C88.6788 144.868 89.3648 145.736 89.3648 147.29V147.5C89.3648 149.054 88.6788 149.936 87.3628 149.936ZM93.8804 151V147.332C93.8804 145.904 94.6644 145.162 95.9664 145.162C96.1344 145.162 96.3024 145.176 96.4424 145.19V143.692C96.3164 143.664 96.1624 143.65 96.0504 143.65C95.0144 143.65 94.2584 144.266 93.8664 145.19L93.8244 143.79H92.3404V151H93.8804ZM100.012 151.182C101.818 151.182 103.022 150.258 103.022 148.886C103.022 147.626 102.126 147.024 100.32 146.73C99.004 146.52 98.584 146.254 98.584 145.694C98.584 145.106 99.102 144.756 99.914 144.756C100.726 144.756 101.3 145.148 101.398 145.876H102.868C102.728 144.448 101.65 143.622 99.928 143.622C98.262 143.622 97.1 144.49 97.1 145.778C97.1 147.066 97.954 147.626 99.718 147.92C101.076 148.172 101.482 148.452 101.482 149.026C101.482 149.67 100.894 150.02 100.026 150.02C99.088 150.02 98.472 149.614 98.332 148.76H96.862C96.988 150.3 98.15 151.182 100.012 151.182Z" fill="#999999"/>
<g filter="url(#filter1_d_1_6027)">
<circle cx="29" cy="28" r="14" fill="#8D4AFF"/>
</g>
<mask id="mask0_1_6027" style="mask-type:alpha" maskUnits="userSpaceOnUse" x="15" y="14" width="28" height="28">
<circle cx="29" cy="28" r="14" fill="#FF6435"/>
</mask>
<g mask="url(#mask0_1_6027)">
<path d="M29 26.523L35 23.189L29.486 20.126C29.3374 20.0434 29.1701 20 29 20C28.8299 20 28.6626 20.0434 28.514 20.126L23 23.189L29 26.523Z" fill="#212121"/>
<path d="M29 26.523L35 23.189L29.486 20.126C29.3374 20.0434 29.1701 20 29 20C28.8299 20 28.6626 20.0434 28.514 20.126L23 23.189L29 26.523Z" fill="url(#paint0_linear_1_6027)"/>
<path d="M30 28.2549V35.5879L35.486 32.5399C35.6418 32.4532 35.7716 32.3265 35.862 32.1729C35.9524 32.0192 36 31.8441 36 31.6659V24.9219L30 28.2549Z" fill="#212121"/>
<path d="M30 28.2549V35.5879L35.486 32.5399C35.6418 32.4532 35.7716 32.3265 35.862 32.1729C35.9524 32.0192 36 31.8441 36 31.6659V24.9219L30 28.2549Z" fill="url(#paint1_linear_1_6027)"/>
<path d="M28 28.2549L22 24.9219V31.6659C22 31.8441 22.0476 32.0192 22.138 32.1729C22.2284 32.3265 22.3582 32.4532 22.514 32.5399L28 35.5879V28.2549Z" fill="#212121"/>
<path d="M28 28.2549L22 24.9219V31.6659C22 31.8441 22.0476 32.0192 22.138 32.1729C22.2284 32.3265 22.3582 32.4532 22.514 32.5399L28 35.5879V28.2549Z" fill="url(#paint2_linear_1_6027)"/>
</g>
<path d="M50.864 25H52.96V13.8H50.864V25ZM60.0365 20.248V25H62.0845V19.768C62.0845 17.512 60.8205 16.52 59.1885 16.52C57.4285 16.52 56.6285 17.672 56.4685 18.392H56.4045V16.68H54.3565V25H56.4045V20.248C56.4045 18.888 57.2205 18.216 58.3405 18.216C59.4445 18.216 60.0365 18.888 60.0365 20.248ZM66.7536 25.16C67.9696 25.16 68.9296 24.584 69.3296 23.8V25H71.3776V13.8H69.3296V17.88C68.9296 17.096 67.9696 16.52 66.7536 16.52C64.9616 16.52 63.0896 17.8 63.0896 20.84C63.0896 23.88 64.9616 25.16 66.7536 25.16ZM65.0096 20.84C65.0096 19.048 66.0816 18.232 67.2336 18.232C68.3536 18.232 69.4256 19.048 69.4256 20.84C69.4256 22.632 68.3536 23.448 67.2336 23.448C66.0816 23.448 65.0096 22.632 65.0096 20.84ZM74.811 21.432L74.827 16.68H72.779V21.912C72.763 24.168 74.027 25.16 75.659 25.16C77.419 25.16 78.219 24.008 78.379 23.288H78.443V25H80.491L80.507 16.68H78.459L78.443 21.64C78.347 22.856 77.563 23.464 76.507 23.464C75.403 23.464 74.811 22.792 74.811 21.432ZM84.9681 25.16C86.9201 25.16 88.6161 24.392 88.6161 22.552C88.6161 21.096 87.5441 20.52 86.2321 20.216L84.6481 19.864C83.9761 19.736 83.6401 19.432 83.6401 18.952C83.6401 18.376 84.1041 18.072 85.0161 18.072C85.9121 18.072 86.5201 18.376 86.6481 19.288H88.3441C88.3121 17.528 87.1121 16.52 85.0001 16.52C83.0001 16.52 81.6561 17.416 81.6561 18.984C81.6561 20.104 82.3121 20.984 83.9921 21.368L85.5281 21.704C86.1681 21.832 86.5041 22.088 86.5041 22.6C86.5041 23.304 85.8801 23.608 85.0001 23.608C84.0401 23.608 83.3681 23.256 83.2561 22.376H81.4321C81.4481 24.248 82.8401 25.16 84.9681 25.16ZM92.9536 25.112C93.3856 25.112 93.7856 25.064 94.1376 24.968V23.432C93.8336 23.464 93.6896 23.464 93.4976 23.464C92.6336 23.464 92.4096 23.064 92.4096 22.344V18.28H94.0416V16.68H92.4096V14.552H90.3616V16.68H88.9696V18.28H90.3616V22.664C90.3616 24.424 91.3856 25.112 92.9536 25.112ZM95.0534 25H97.1014V21.128C97.1014 19.176 98.2374 18.344 99.6134 18.344C99.8214 18.344 100.013 18.36 100.253 18.392V16.664C100.029 16.6 99.8054 16.584 99.6134 16.584C98.2054 16.584 97.4214 17.544 97.1494 18.664H97.1014V16.68H95.0534V25ZM101.365 26.424V28.168C103.541 28.408 104.581 27.624 105.557 25.224L109.013 16.68H106.901L104.757 22.44L102.629 16.68H100.533L103.605 24.344C103.781 24.776 103.781 25.032 103.605 25.464C103.365 26.056 102.901 26.632 101.365 26.424ZM117.842 25.16C119.634 25.16 121.506 23.88 121.506 20.84C121.506 17.8 119.634 16.52 117.842 16.52C116.626 16.52 115.666 17.096 115.266 17.88V13.8H113.218V25H115.266V23.8C115.666 24.584 116.626 25.16 117.842 25.16ZM115.17 20.84C115.17 19.048 116.242 18.232 117.362 18.232C118.514 18.232 119.586 19.048 119.586 20.84C119.586 22.632 118.514 23.448 117.362 23.448C116.242 23.448 115.17 22.632 115.17 20.84ZM124.78 25.16C126.636 25.16 127.388 23.976 127.564 23.512H127.644V25H129.612V19.24C129.612 17.4 128.588 16.52 126.14 16.52C123.66 16.52 122.556 17.416 122.556 19.032V19.4H124.476V19.224C124.476 18.312 125.18 18.008 126.092 18.008C126.988 18.008 127.596 18.312 127.596 19.32V19.496C127.596 19.928 127.356 20.072 126.54 20.184L124.988 20.392C123.468 20.6 122.108 21.096 122.108 22.824C122.108 24.488 123.372 25.16 124.78 25.16ZM124.156 22.648C124.156 22.152 124.428 21.752 125.292 21.624L126.62 21.416C127.084 21.352 127.484 21.256 127.596 21.064V22.12C127.596 22.792 126.764 23.672 125.452 23.672C124.588 23.672 124.156 23.288 124.156 22.648ZM134.056 25.16C136.008 25.16 137.704 24.392 137.704 22.552C137.704 21.096 136.632 20.52 135.32 20.216L133.736 19.864C133.064 19.736 132.728 19.432 132.728 18.952C132.728 18.376 133.192 18.072 134.104 18.072C135 18.072 135.608 18.376 135.736 19.288H137.432C137.4 17.528 136.2 16.52 134.088 16.52C132.088 16.52 130.744 17.416 130.744 18.984C130.744 20.104 131.4 20.984 133.08 21.368L134.616 21.704C135.256 21.832 135.592 22.088 135.592 22.6C135.592 23.304 134.968 23.608 134.088 23.608C133.128 23.608 132.456 23.256 132.344 22.376H130.52C130.536 24.248 131.928 25.16 134.056 25.16ZM142.33 25.16C144.186 25.16 145.642 24.28 146.09 22.392H144.266C144.026 23.192 143.418 23.592 142.378 23.592C141.066 23.592 140.282 22.92 140.154 21.368H146.154C146.186 21.192 146.202 21.032 146.202 20.744C146.202 17.704 144.442 16.52 142.298 16.52C140.122 16.52 138.218 17.752 138.218 20.824C138.218 23.928 140.17 25.16 142.33 25.16ZM140.17 20.12C140.314 18.76 141.066 18.088 142.266 18.088C143.61 18.088 144.218 18.952 144.266 20.12H140.17ZM150.53 25.16C151.746 25.16 152.706 24.584 153.106 23.8V25H155.154V13.8H153.106V17.88C152.706 17.096 151.746 16.52 150.53 16.52C148.738 16.52 146.866 17.8 146.866 20.84C146.866 23.88 148.738 25.16 150.53 25.16ZM148.786 20.84C148.786 19.048 149.858 18.232 151.01 18.232C152.13 18.232 153.202 19.048 153.202 20.84C153.202 22.632 152.13 23.448 151.01 23.448C149.858 23.448 148.786 22.632 148.786 20.84ZM54.608 41.16C56.08 41.16 58.08 40.536 58.336 37.864H56.48C56.272 38.968 55.568 39.432 54.592 39.432C53.168 39.432 52.384 38.424 52.384 36.856C52.384 35.288 53.168 34.248 54.592 34.248C55.536 34.248 56.272 34.68 56.48 35.8H58.336C58.032 33.112 56.064 32.52 54.608 32.52C52.528 32.52 50.464 33.784 50.464 36.856C50.464 39.928 52.528 41.16 54.608 41.16ZM59.3565 41H61.4045V37.128C61.4045 35.176 62.5405 34.344 63.9165 34.344C64.1245 34.344 64.3165 34.36 64.5565 34.392V32.664C64.3325 32.6 64.1085 32.584 63.9165 32.584C62.5085 32.584 61.7245 33.544 61.4525 34.664H61.4045V32.68H59.3565V41ZM68.8735 41.16C70.7295 41.16 72.1855 40.28 72.6335 38.392H70.8095C70.5695 39.192 69.9615 39.592 68.9215 39.592C67.6095 39.592 66.8255 38.92 66.6975 37.368H72.6975C72.7295 37.192 72.7455 37.032 72.7455 36.744C72.7455 33.704 70.9855 32.52 68.8415 32.52C66.6655 32.52 64.7615 33.752 64.7615 36.824C64.7615 39.928 66.7135 41.16 68.8735 41.16ZM66.7135 36.12C66.8575 34.76 67.6095 34.088 68.8095 34.088C70.1535 34.088 70.7615 34.952 70.8095 36.12H66.7135ZM76.0041 41.16C77.8601 41.16 78.6121 39.976 78.7881 39.512H78.8681V41H80.8361V35.24C80.8361 33.4 79.8121 32.52 77.3641 32.52C74.8841 32.52 73.7801 33.416 73.7801 35.032V35.4H75.7001V35.224C75.7001 34.312 76.4041 34.008 77.3161 34.008C78.2121 34.008 78.8201 34.312 78.8201 35.32V35.496C78.8201 35.928 78.5801 36.072 77.7641 36.184L76.2121 36.392C74.6921 36.6 73.3321 37.096 73.3321 38.824C73.3321 40.488 74.5961 41.16 76.0041 41.16ZM75.3801 38.648C75.3801 38.152 75.6521 37.752 76.5161 37.624L77.8441 37.416C78.3081 37.352 78.7081 37.256 78.8201 37.064V38.12C78.8201 38.792 77.9881 39.672 76.6761 39.672C75.8121 39.672 75.3801 39.288 75.3801 38.648ZM85.4142 41.112C85.8462 41.112 86.2462 41.064 86.5982 40.968V39.432C86.2942 39.464 86.1502 39.464 85.9582 39.464C85.0942 39.464 84.8702 39.064 84.8702 38.344V34.28H86.5022V32.68H84.8702V30.552H82.8222V32.68H81.4302V34.28H82.8222V38.664C82.8222 40.424 83.8462 41.112 85.4142 41.112ZM91.1639 41.16C93.2439 41.16 95.2919 39.848 95.2919 36.84C95.2919 33.832 93.2439 32.52 91.1639 32.52C89.0679 32.52 87.0359 33.832 87.0359 36.84C87.0359 39.848 89.0679 41.16 91.1639 41.16ZM88.9559 36.84C88.9559 35.032 89.9479 34.232 91.1639 34.232C92.3639 34.232 93.3559 35.032 93.3559 36.84C93.3559 38.648 92.3639 39.448 91.1639 39.448C89.9479 39.448 88.9559 38.648 88.9559 36.84ZM96.2878 41H98.3358V37.128C98.3358 35.176 99.4718 34.344 100.848 34.344C101.056 34.344 101.248 34.36 101.488 34.392V32.664C101.264 32.6 101.04 32.584 100.848 32.584C99.4398 32.584 98.6558 33.544 98.3838 34.664H98.3358V32.68H96.2878V41ZM105.242 41.16C107.194 41.16 108.89 40.392 108.89 38.552C108.89 37.096 107.818 36.52 106.506 36.216L104.922 35.864C104.25 35.736 103.914 35.432 103.914 34.952C103.914 34.376 104.378 34.072 105.29 34.072C106.186 34.072 106.794 34.376 106.922 35.288H108.618C108.586 33.528 107.386 32.52 105.274 32.52C103.274 32.52 101.93 33.416 101.93 34.984C101.93 36.104 102.586 36.984 104.266 37.368L105.802 37.704C106.442 37.832 106.778 38.088 106.778 38.6C106.778 39.304 106.154 39.608 105.274 39.608C104.314 39.608 103.642 39.256 103.53 38.376H101.706C101.722 40.248 103.114 41.16 105.242 41.16Z" fill="#CCAEFF"/>
<defs>
<filter id="filter0_dddd_1_6027" x="0.518499" y="0.7037" width="194.963" height="217.296" filterUnits="userSpaceOnUse" color-interpolation-filters="sRGB">
<feFlood flood-opacity="0" result="BackgroundImageFix"/>
<feColorMatrix in="SourceAlpha" type="matrix" values="0 0 0 0 0 0 0 0 0 0 0 0 0 0 0 0 0 0 127 0" result="hardAlpha"/>
<feOffset dy="38.5185"/>
<feGaussianBlur stdDeviation="12.7408"/>
<feComposite in2="hardAlpha" operator="out"/>
<feColorMatrix type="matrix" values="0 0 0 0 0.32549 0 0 0 0 0.117647 0 0 0 0 0 0 0 0 0.08 0"/>
<feBlend mode="normal" in2="BackgroundImageFix" result="effect1_dropShadow_1_6027"/>
<feColorMatrix in="SourceAlpha" type="matrix" values="0 0 0 0 0 0 0 0 0 0 0 0 0 0 0 0 0 0 127 0" result="hardAlpha"/>
<feOffset dy="20"/>
<feGaussianBlur stdDeviation="6.5"/>
<feComposite in2="hardAlpha" operator="out"/>
<feColorMatrix type="matrix" values="0 0 0 0 0.32549 0 0 0 0 0.117647 0 0 0 0 0 0 0 0 0.08 0"/>
<feBlend mode="normal" in2="effect1_dropShadow_1_6027" result="effect2_dropShadow_1_6027"/>
<feColorMatrix in="SourceAlpha" type="matrix" values="0 0 0 0 0 0 0 0 0 0 0 0 0 0 0 0 0 0 127 0" result="hardAlpha"/>
<feOffset dy="8.14815"/>
<feGaussianBlur stdDeviation="3.25926"/>
<feComposite in2="hardAlpha" operator="out"/>
<feColorMatrix type="matrix" values="0 0 0 0 0.32549 0 0 0 0 0.117647 0 0 0 0 0 0 0 0 0.05 0"/>
<feBlend mode="normal" in2="effect2_dropShadow_1_6027" result="effect3_dropShadow_1_6027"/>
<feColorMatrix in="SourceAlpha" type="matrix" values="0 0 0 0 0 0 0 0 0 0 0 0 0 0 0 0 0 0 127 0" result="hardAlpha"/>
<feOffset dy="1.85185"/>
<feGaussianBlur stdDeviation="1.57407"/>
<feComposite in2="hardAlpha" operator="out"/>
<feColorMatrix type="matrix" values="0 0 0 0 0.325 0 0 0 0 0.117867 0 0 0 0 0.00135416 0 0 0 0.05 0"/>
<feBlend mode="normal" in2="effect3_dropShadow_1_6027" result="effect4_dropShadow_1_6027"/>
<feBlend mode="normal" in="SourceGraphic" in2="effect4_dropShadow_1_6027" result="shape"/>
</filter>
<filter id="filter1_d_1_6027" x="2" y="14" width="54" height="59" filterUnits="userSpaceOnUse" color-interpolation-filters="sRGB">
<feFlood flood-opacity="0" result="BackgroundImageFix"/>
<feColorMatrix in="SourceAlpha" type="matrix" values="0 0 0 0 0 0 0 0 0 0 0 0 0 0 0 0 0 0 127 0" result="hardAlpha"/>
<feMorphology radius="3" operator="erode" in="SourceAlpha" result="effect1_dropShadow_1_6027"/>
<feOffset dy="18"/>
<feGaussianBlur stdDeviation="8"/>
<feComposite in2="hardAlpha" operator="out"/>
<feColorMatrix type="matrix" values="0 0 0 0 0 0 0 0 0 0 0 0 0 0 0 0 0 0 0.1 0"/>
<feBlend mode="normal" in2="BackgroundImageFix" result="effect1_dropShadow_1_6027"/>
<feBlend mode="normal" in="SourceGraphic" in2="effect1_dropShadow_1_6027" result="shape"/>
</filter>
<linearGradient id="paint0_linear_1_6027" x1="29" y1="20" x2="29" y2="25.2686" gradientUnits="userSpaceOnUse">
<stop stop-color="white"/>
<stop offset="1" stop-color="#E9CEFF"/>
</linearGradient>
<linearGradient id="paint1_linear_1_6027" x1="33" y1="24.9219" x2="33" y2="33.5367" gradientUnits="userSpaceOnUse">
<stop stop-color="white"/>
<stop offset="1" stop-color="#E9CEFF"/>
</linearGradient>
<linearGradient id="paint2_linear_1_6027" x1="25" y1="24.9219" x2="25" y2="33.5367" gradientUnits="userSpaceOnUse">
<stop stop-color="white"/>
<stop offset="1" stop-color="#E9CEFF"/>
</linearGradient>
</defs>
</svg>
