<svg width="196" height="218" viewBox="0 0 196 218" fill="none" xmlns="http://www.w3.org/2000/svg">
<g filter="url(#filter0_dddd_1_5791)">
<rect x="26.0001" y="2" width="144" height="152" rx="16" fill="black"/>
</g>
<path d="M26.0001 56H170V138C170 146.837 162.837 154 154 154H42.0001C33.1636 154 26.0001 146.837 26.0001 138V56Z" fill="#353434"/>
<g filter="url(#filter1_d_1_5791)">
<circle cx="29.0001" cy="28" r="14" fill="#8D4AFF"/>
</g>
<mask id="mask0_1_5791" style="mask-type:alpha" maskUnits="userSpaceOnUse" x="15" y="14" width="28" height="28">
<circle cx="29" cy="28.0001" r="14" fill="#FF6435"/>
</mask>
<g mask="url(#mask0_1_5791)">
<path d="M34.2004 33.6001C34.2004 34.9256 33.1259 36.0001 31.8004 36.0001H25.4004C24.0749 36.0001 23.0004 34.9256 23.0004 33.6001V22.4001C23.0004 21.0746 24.0749 20.0001 25.4004 20.0001H31.8004C33.1259 20.0001 34.2004 21.0746 34.2004 22.4001V33.6001Z" fill="black"/>
<path d="M34.2004 33.6001C34.2004 34.9256 33.1259 36.0001 31.8004 36.0001H25.4004C24.0749 36.0001 23.0004 34.9256 23.0004 33.6001V22.4001C23.0004 21.0746 24.0749 20.0001 25.4004 20.0001H31.8004C33.1259 20.0001 34.2004 21.0746 34.2004 22.4001V33.6001Z" fill="url(#paint0_linear_1_5791)"/>
<path d="M35.7999 35.1999C36.2417 35.1999 36.5999 34.8417 36.5999 34.3999V21.5999C36.5999 21.158 36.2417 20.7999 35.7999 20.7999C35.358 20.7999 34.9999 21.158 34.9999 21.5999V34.3999C34.9999 34.8417 35.358 35.1999 35.7999 35.1999Z" fill="black"/>
<path d="M35.7999 35.1999C36.2417 35.1999 36.5999 34.8417 36.5999 34.3999V21.5999C36.5999 21.158 36.2417 20.7999 35.7999 20.7999C35.358 20.7999 34.9999 21.158 34.9999 21.5999V34.3999C34.9999 34.8417 35.358 35.1999 35.7999 35.1999Z" fill="url(#paint1_linear_1_5791)"/>
<path d="M39.0002 32.8005C39.0002 33.2423 38.6421 33.6005 38.2002 33.6005C37.7584 33.6005 37.4002 33.2423 37.4002 32.8005V23.2005C37.4002 22.7586 37.7584 22.4005 38.2002 22.4005C38.6421 22.4005 39.0002 22.7586 39.0002 23.2005V32.8005Z" fill="black"/>
<path d="M39.0002 32.8005C39.0002 33.2423 38.6421 33.6005 38.2002 33.6005C37.7584 33.6005 37.4002 33.2423 37.4002 32.8005V23.2005C37.4002 22.7586 37.7584 22.4005 38.2002 22.4005C38.6421 22.4005 39.0002 22.7586 39.0002 23.2005V32.8005Z" fill="url(#paint2_linear_1_5791)"/>
</g>
<path d="M54.6622 84.182C57.0002 84.182 58.4842 82.964 58.4842 81.242V81.102C58.4842 79.464 57.3082 78.638 54.9422 78.246C52.9962 77.924 52.5622 77.476 52.5622 76.748V76.65C52.5622 75.782 53.2762 75.208 54.4802 75.208C55.7122 75.208 56.5242 75.754 56.6782 76.804H58.3022C58.0642 74.872 56.6082 73.878 54.5082 73.878C52.3522 73.878 50.9242 75.096 50.9242 76.72V76.86C50.9242 78.33 51.8202 79.184 54.2282 79.632C56.1882 79.996 56.8322 80.444 56.8322 81.242V81.382C56.8322 82.334 55.8522 82.824 54.7042 82.824C53.3462 82.824 52.3662 82.278 52.1982 80.99H50.5742C50.7422 83.02 52.2682 84.182 54.6622 84.182ZM61.4164 75.418V73.472H59.7924V75.418H61.4164ZM61.3744 84V76.79H59.8344V84H61.3744ZM64.7037 84V79.968C64.7037 78.68 65.4177 77.896 66.4817 77.896C67.5317 77.896 67.9657 78.554 67.9657 79.73V84H69.4917V79.352C69.4917 77.714 68.7497 76.622 66.9997 76.622C65.8377 76.622 65.0817 77.224 64.7037 77.938L64.6477 76.79H63.1637V84H64.7037ZM74.2896 86.562C76.5716 86.562 77.8176 85.4 77.8176 83.538V76.79H76.3896L76.3476 77.98C75.9836 77.294 75.1576 76.622 73.9256 76.622C72.0356 76.622 70.8456 78.092 70.8456 80.094V80.36C70.8456 82.362 72.0496 83.86 73.9676 83.86C75.0876 83.86 75.8996 83.3 76.2776 82.614V83.706C76.2776 84.854 75.5776 85.428 74.3736 85.428C73.3236 85.428 72.8196 85.092 72.7076 84.476H71.0276C71.1956 85.68 72.3016 86.562 74.2896 86.562ZM74.3456 82.614C73.1136 82.614 72.4136 81.746 72.4136 80.36V80.094C72.4136 78.694 73.0996 77.84 74.3456 77.84C75.6336 77.84 76.3336 78.68 76.3336 80.094V80.36C76.3336 81.746 75.6196 82.614 74.3456 82.614ZM82.0336 84.182C83.0696 84.182 83.8396 83.608 84.2596 82.908L84.2876 84H85.7856V76.79H84.2316V80.794C84.2316 82.082 83.6016 82.894 82.5376 82.894C81.5016 82.894 81.0956 82.236 81.0956 81.13V76.79H79.5416V81.424C79.5416 83.118 80.3536 84.182 82.0336 84.182ZM89.1157 84V73.472H87.5757V84H89.1157ZM92.8931 84.182C93.9291 84.182 94.8111 83.692 95.2591 82.88L95.3151 84H96.7291V79.1C96.7291 77.602 95.6791 76.622 93.8171 76.622C92.0531 76.622 90.9051 77.462 90.7511 78.862H92.2211C92.3471 78.204 92.8931 77.826 93.7891 77.826C94.6991 77.826 95.2451 78.246 95.2451 79.044V79.562L92.4031 79.982C91.1711 80.15 90.4711 80.906 90.4711 82.054C90.4711 83.286 91.4091 84.182 92.8931 84.182ZM93.2431 82.964C92.4311 82.964 91.9691 82.586 91.9691 81.984C91.9691 81.424 92.2771 81.116 92.9351 81.018L95.2451 80.696V81.354C95.2451 82.292 94.3211 82.964 93.2431 82.964ZM99.9991 84V80.332C99.9991 78.904 100.783 78.162 102.085 78.162C102.253 78.162 102.421 78.176 102.561 78.19V76.692C102.435 76.664 102.281 76.65 102.169 76.65C101.133 76.65 100.377 77.266 99.9851 78.19L99.9431 76.79H98.4591V84H99.9991ZM107.793 86.38V82.908C108.185 83.594 108.983 84.182 110.103 84.182C112.007 84.182 113.225 82.656 113.225 80.5V80.29C113.225 78.134 112.035 76.622 110.145 76.622C108.913 76.622 108.073 77.294 107.723 77.98L107.681 76.79H106.239V86.38H107.793ZM109.725 82.936C108.437 82.936 107.737 82.054 107.737 80.5V80.29C107.737 78.736 108.437 77.84 109.725 77.84C110.957 77.84 111.657 78.736 111.657 80.29V80.5C111.657 82.054 110.957 82.936 109.725 82.936ZM116.181 84V73.472H114.641V84H116.181ZM119.958 84.182C120.994 84.182 121.876 83.692 122.324 82.88L122.38 84H123.794V79.1C123.794 77.602 122.744 76.622 120.882 76.622C119.118 76.622 117.97 77.462 117.816 78.862H119.286C119.412 78.204 119.958 77.826 120.854 77.826C121.764 77.826 122.31 78.246 122.31 79.044V79.562L119.468 79.982C118.236 80.15 117.536 80.906 117.536 82.054C117.536 83.286 118.474 84.182 119.958 84.182ZM120.308 82.964C119.496 82.964 119.034 82.586 119.034 81.984C119.034 81.424 119.342 81.116 120 81.018L122.31 80.696V81.354C122.31 82.292 121.386 82.964 120.308 82.964ZM128.618 84.182C130.424 84.182 131.6 83.174 131.852 81.564H130.326C130.144 82.39 129.626 82.922 128.604 82.922C127.358 82.922 126.728 82.054 126.728 80.5V80.29C126.728 78.736 127.358 77.868 128.604 77.868C129.626 77.868 130.13 78.386 130.312 79.198H131.824C131.6 77.63 130.438 76.622 128.632 76.622C126.434 76.622 125.146 78.106 125.146 80.29V80.5C125.146 82.684 126.434 84.182 128.618 84.182ZM136.297 84.182C138.061 84.182 139.265 83.272 139.615 81.816H138.089C137.865 82.502 137.291 82.95 136.297 82.95C135.051 82.95 134.323 82.18 134.253 80.724H139.657C139.783 78.246 138.635 76.622 136.283 76.622C134.099 76.622 132.755 78.106 132.755 80.29V80.5C132.755 82.684 134.071 84.182 136.297 84.182ZM134.295 79.632C134.463 78.456 135.135 77.826 136.283 77.826C137.389 77.826 138.005 78.512 138.103 79.632H134.295ZM53.1502 100V93.952H55.1102V92.79H53.1502V91.586C53.1502 90.872 53.4162 90.536 54.2702 90.536C54.5782 90.536 54.9422 90.62 55.1522 90.676V89.458C54.8302 89.374 54.3402 89.29 53.9762 89.29C52.3942 89.29 51.6102 90.018 51.6102 91.418V92.79H50.2102V93.952H51.6102V100H53.1502ZM59.0885 100.182C61.2585 100.182 62.6585 98.698 62.6585 96.5V96.29C62.6585 94.092 61.2585 92.622 59.0885 92.622C56.9325 92.622 55.5325 94.092 55.5325 96.29V96.5C55.5325 98.698 56.9325 100.182 59.0885 100.182ZM59.0885 98.936C57.7865 98.936 57.1005 98.054 57.1005 96.5V96.29C57.1005 94.736 57.7865 93.868 59.0885 93.868C60.4045 93.868 61.0905 94.736 61.0905 96.29V96.5C61.0905 98.054 60.4045 98.936 59.0885 98.936ZM65.6061 100V96.332C65.6061 94.904 66.3901 94.162 67.6921 94.162C67.8601 94.162 68.0281 94.176 68.1681 94.19V92.692C68.0421 92.664 67.8881 92.65 67.7761 92.65C66.7401 92.65 65.9841 93.266 65.5921 94.19L65.5501 92.79H64.0661V100H65.6061ZM74.5759 100.182C75.8079 100.182 76.6199 99.482 76.9699 98.796L77.0119 100H78.4399V89.472H76.8999V93.84C76.4799 93.168 75.6959 92.622 74.5479 92.622C72.6439 92.622 71.4679 94.148 71.4679 96.29V96.5C71.4679 98.656 72.6859 100.182 74.5759 100.182ZM74.9679 98.936C73.7219 98.936 73.0359 98.04 73.0359 96.5V96.29C73.0359 94.736 73.7359 93.84 74.9679 93.84C76.2419 93.84 76.9559 94.736 76.9559 96.29V96.5C76.9559 98.054 76.2559 98.936 74.9679 98.936ZM82.2219 100.182C83.2579 100.182 84.1399 99.692 84.5879 98.88L84.6439 100H86.0579V95.1C86.0579 93.602 85.0079 92.622 83.1459 92.622C81.3819 92.622 80.2339 93.462 80.0799 94.862H81.5499C81.6759 94.204 82.2219 93.826 83.1179 93.826C84.0279 93.826 84.5739 94.246 84.5739 95.044V95.562L81.7319 95.982C80.4999 96.15 79.7999 96.906 79.7999 98.054C79.7999 99.286 80.7379 100.182 82.2219 100.182ZM82.5719 98.964C81.7599 98.964 81.2979 98.586 81.2979 97.984C81.2979 97.424 81.6059 97.116 82.2639 97.018L84.5739 96.696V97.354C84.5739 98.292 83.6499 98.964 82.5719 98.964ZM90.5775 100.182C90.9415 100.182 91.4315 100.098 91.7535 100.014V98.782C91.5435 98.852 91.1795 98.922 90.8715 98.922C90.0175 98.922 89.7515 98.6 89.7515 97.886V93.952H91.7115V92.79H89.7515V90.536H88.2115V92.79H86.8115V93.952H88.2115V98.054C88.2115 99.454 88.9955 100.182 90.5775 100.182ZM95.033 100.182C96.069 100.182 96.951 99.692 97.399 98.88L97.455 100H98.869V95.1C98.869 93.602 97.819 92.622 95.957 92.622C94.193 92.622 93.045 93.462 92.891 94.862H94.361C94.487 94.204 95.033 93.826 95.929 93.826C96.839 93.826 97.385 94.246 97.385 95.044V95.562L94.543 95.982C93.311 96.15 92.611 96.906 92.611 98.054C92.611 99.286 93.549 100.182 95.033 100.182ZM95.383 98.964C94.571 98.964 94.109 98.586 94.109 97.984C94.109 97.424 94.417 97.116 95.075 97.018L97.385 96.696V97.354C97.385 98.292 96.461 98.964 95.383 98.964ZM53.0242 116.182C54.0602 116.182 54.9422 115.692 55.3902 114.88L55.4462 116H56.8602V111.1C56.8602 109.602 55.8102 108.622 53.9482 108.622C52.1842 108.622 51.0362 109.462 50.8822 110.862H52.3522C52.4782 110.204 53.0242 109.826 53.9202 109.826C54.8302 109.826 55.3762 110.246 55.3762 111.044V111.562L52.5342 111.982C51.3022 112.15 50.6022 112.906 50.6022 114.054C50.6022 115.286 51.5402 116.182 53.0242 116.182ZM53.3742 114.964C52.5622 114.964 52.1002 114.586 52.1002 113.984C52.1002 113.424 52.4082 113.116 53.0662 113.018L55.3762 112.696V113.354C55.3762 114.292 54.4522 114.964 53.3742 114.964ZM61.6562 118.562C63.9382 118.562 65.1842 117.4 65.1842 115.538V108.79H63.7562L63.7142 109.98C63.3502 109.294 62.5242 108.622 61.2922 108.622C59.4022 108.622 58.2122 110.092 58.2122 112.094V112.36C58.2122 114.362 59.4162 115.86 61.3342 115.86C62.4542 115.86 63.2662 115.3 63.6442 114.614V115.706C63.6442 116.854 62.9442 117.428 61.7402 117.428C60.6902 117.428 60.1862 117.092 60.0742 116.476H58.3942C58.5622 117.68 59.6682 118.562 61.6562 118.562ZM61.7122 114.614C60.4802 114.614 59.7802 113.746 59.7802 112.36V112.094C59.7802 110.694 60.4662 109.84 61.7122 109.84C63.0002 109.84 63.7002 110.68 63.7002 112.094V112.36C63.7002 113.746 62.9862 114.614 61.7122 114.614ZM70.0442 118.562C72.3262 118.562 73.5722 117.4 73.5722 115.538V108.79H72.1442L72.1022 109.98C71.7382 109.294 70.9122 108.622 69.6802 108.622C67.7902 108.622 66.6002 110.092 66.6002 112.094V112.36C66.6002 114.362 67.8042 115.86 69.7222 115.86C70.8422 115.86 71.6542 115.3 72.0322 114.614V115.706C72.0322 116.854 71.3322 117.428 70.1282 117.428C69.0782 117.428 68.5742 117.092 68.4622 116.476H66.7822C66.9502 117.68 68.0562 118.562 70.0442 118.562ZM70.1002 114.614C68.8682 114.614 68.1682 113.746 68.1682 112.36V112.094C68.1682 110.694 68.8542 109.84 70.1002 109.84C71.3882 109.84 72.0882 110.68 72.0882 112.094V112.36C72.0882 113.746 71.3742 114.614 70.1002 114.614ZM76.9062 116V112.332C76.9062 110.904 77.6902 110.162 78.9922 110.162C79.1602 110.162 79.3282 110.176 79.4682 110.19V108.692C79.3422 108.664 79.1882 108.65 79.0762 108.65C78.0402 108.65 77.2842 109.266 76.8922 110.19L76.8502 108.79H75.3662V116H76.9062ZM83.4728 116.182C85.2368 116.182 86.4408 115.272 86.7908 113.816H85.2648C85.0408 114.502 84.4668 114.95 83.4728 114.95C82.2268 114.95 81.4988 114.18 81.4288 112.724H86.8328C86.9588 110.246 85.8108 108.622 83.4588 108.622C81.2748 108.622 79.9308 110.106 79.9308 112.29V112.5C79.9308 114.684 81.2468 116.182 83.4728 116.182ZM81.4708 111.632C81.6388 110.456 82.3108 109.826 83.4588 109.826C84.5648 109.826 85.1808 110.512 85.2788 111.632H81.4708ZM91.2979 118.562C93.5799 118.562 94.8259 117.4 94.8259 115.538V108.79H93.3979L93.3559 109.98C92.9919 109.294 92.1659 108.622 90.9339 108.622C89.0439 108.622 87.8539 110.092 87.8539 112.094V112.36C87.8539 114.362 89.0579 115.86 90.9759 115.86C92.0959 115.86 92.9079 115.3 93.2859 114.614V115.706C93.2859 116.854 92.5859 117.428 91.3819 117.428C90.3319 117.428 89.8279 117.092 89.7159 116.476H88.0359C88.2039 117.68 89.3099 118.562 91.2979 118.562ZM91.3539 114.614C90.1219 114.614 89.4219 113.746 89.4219 112.36V112.094C89.4219 110.694 90.1079 109.84 91.3539 109.84C92.6419 109.84 93.3419 110.68 93.3419 112.094V112.36C93.3419 113.746 92.6279 114.614 91.3539 114.614ZM98.6079 116.182C99.6439 116.182 100.526 115.692 100.974 114.88L101.03 116H102.444V111.1C102.444 109.602 101.394 108.622 99.5319 108.622C97.7679 108.622 96.6199 109.462 96.4659 110.862H97.9359C98.0619 110.204 98.6079 109.826 99.5039 109.826C100.414 109.826 100.96 110.246 100.96 111.044V111.562L98.1179 111.982C96.8859 112.15 96.1859 112.906 96.1859 114.054C96.1859 115.286 97.1239 116.182 98.6079 116.182ZM98.9579 114.964C98.1459 114.964 97.6839 114.586 97.6839 113.984C97.6839 113.424 97.9919 113.116 98.6499 113.018L100.96 112.696V113.354C100.96 114.292 100.036 114.964 98.9579 114.964ZM106.964 116.182C107.328 116.182 107.818 116.098 108.14 116.014V114.782C107.93 114.852 107.566 114.922 107.258 114.922C106.404 114.922 106.138 114.6 106.138 113.886V109.952H108.098V108.79H106.138V106.536H104.598V108.79H103.198V109.952H104.598V114.054C104.598 115.454 105.382 116.182 106.964 116.182ZM111.04 107.418V105.472H109.416V107.418H111.04ZM110.998 116V108.79H109.458V116H110.998ZM115.966 116.182C118.136 116.182 119.536 114.698 119.536 112.5V112.29C119.536 110.092 118.136 108.622 115.966 108.622C113.81 108.622 112.41 110.092 112.41 112.29V112.5C112.41 114.698 113.81 116.182 115.966 116.182ZM115.966 114.936C114.664 114.936 113.978 114.054 113.978 112.5V112.29C113.978 110.736 114.664 109.868 115.966 109.868C117.282 109.868 117.968 110.736 117.968 112.29V112.5C117.968 114.054 117.282 114.936 115.966 114.936ZM122.483 116V111.968C122.483 110.68 123.197 109.896 124.261 109.896C125.311 109.896 125.745 110.554 125.745 111.73V116H127.271V111.352C127.271 109.714 126.529 108.622 124.779 108.622C123.617 108.622 122.861 109.224 122.483 109.938L122.427 108.79H120.943V116H122.483ZM53.0242 132.182C54.0602 132.182 54.9422 131.692 55.3902 130.88L55.4462 132H56.8602V127.1C56.8602 125.602 55.8102 124.622 53.9482 124.622C52.1842 124.622 51.0362 125.462 50.8822 126.862H52.3522C52.4782 126.204 53.0242 125.826 53.9202 125.826C54.8302 125.826 55.3762 126.246 55.3762 127.044V127.562L52.5342 127.982C51.3022 128.15 50.6022 128.906 50.6022 130.054C50.6022 131.286 51.5402 132.182 53.0242 132.182ZM53.3742 130.964C52.5622 130.964 52.1002 130.586 52.1002 129.984C52.1002 129.424 52.4082 129.116 53.0662 129.018L55.3762 128.696V129.354C55.3762 130.292 54.4522 130.964 53.3742 130.964ZM60.1302 132V127.968C60.1302 126.68 60.8442 125.896 61.9082 125.896C62.9582 125.896 63.3922 126.554 63.3922 127.73V132H64.9182V127.352C64.9182 125.714 64.1762 124.622 62.4262 124.622C61.2642 124.622 60.5082 125.224 60.1302 125.938L60.0742 124.79H58.5902V132H60.1302ZM69.3801 132.182C70.6121 132.182 71.4241 131.482 71.7741 130.796L71.8161 132H73.2441V121.472H71.7041V125.84C71.2841 125.168 70.5001 124.622 69.3521 124.622C67.4481 124.622 66.2721 126.148 66.2721 128.29V128.5C66.2721 130.656 67.4901 132.182 69.3801 132.182ZM69.7721 130.936C68.5261 130.936 67.8401 130.04 67.8401 128.5V128.29C67.8401 126.736 68.5401 125.84 69.7721 125.84C71.0461 125.84 71.7601 126.736 71.7601 128.29V128.5C71.7601 130.054 71.0601 130.936 69.7721 130.936ZM79.1691 132V128.332C79.1691 126.904 79.9531 126.162 81.2551 126.162C81.4231 126.162 81.5911 126.176 81.7311 126.19V124.692C81.6051 124.664 81.4511 124.65 81.3391 124.65C80.3031 124.65 79.5471 125.266 79.1551 126.19L79.1131 124.79H77.6291V132H79.1691ZM85.7358 132.182C87.4998 132.182 88.7038 131.272 89.0538 129.816H87.5278C87.3038 130.502 86.7298 130.95 85.7358 130.95C84.4898 130.95 83.7618 130.18 83.6918 128.724H89.0958C89.2218 126.246 88.0738 124.622 85.7218 124.622C83.5378 124.622 82.1938 126.106 82.1938 128.29V128.5C82.1938 130.684 83.5098 132.182 85.7358 132.182ZM83.7338 127.632C83.9018 126.456 84.5738 125.826 85.7218 125.826C86.8278 125.826 87.4438 126.512 87.5418 127.632H83.7338ZM93.5889 132.182C95.3949 132.182 96.5709 131.174 96.8229 129.564H95.2969C95.1149 130.39 94.5969 130.922 93.5749 130.922C92.3289 130.922 91.6989 130.054 91.6989 128.5V128.29C91.6989 126.736 92.3289 125.868 93.5749 125.868C94.5969 125.868 95.1009 126.386 95.2829 127.198H96.7949C96.5709 125.63 95.4089 124.622 93.6029 124.622C91.4049 124.622 90.1169 126.106 90.1169 128.29V128.5C90.1169 130.684 91.4049 132.182 93.5889 132.182ZM101.282 132.182C103.452 132.182 104.852 130.698 104.852 128.5V128.29C104.852 126.092 103.452 124.622 101.282 124.622C99.1256 124.622 97.7256 126.092 97.7256 128.29V128.5C97.7256 130.698 99.1256 132.182 101.282 132.182ZM101.282 130.936C99.9796 130.936 99.2936 130.054 99.2936 128.5V128.29C99.2936 126.736 99.9796 125.868 101.282 125.868C102.598 125.868 103.284 126.736 103.284 128.29V128.5C103.284 130.054 102.598 130.936 101.282 130.936ZM108.681 132.182C109.717 132.182 110.487 131.608 110.907 130.908L110.935 132H112.433V124.79H110.879V128.794C110.879 130.082 110.249 130.894 109.185 130.894C108.149 130.894 107.743 130.236 107.743 129.13V124.79H106.189V129.424C106.189 131.118 107.001 132.182 108.681 132.182ZM115.763 132V128.332C115.763 126.904 116.547 126.162 117.849 126.162C118.017 126.162 118.185 126.176 118.325 126.19V124.692C118.199 124.664 118.045 124.65 117.933 124.65C116.897 124.65 116.141 125.266 115.749 126.19L115.707 124.79H114.223V132H115.763ZM121.895 132.182C123.701 132.182 124.905 131.258 124.905 129.886C124.905 128.626 124.009 128.024 122.203 127.73C120.887 127.52 120.467 127.254 120.467 126.694C120.467 126.106 120.985 125.756 121.797 125.756C122.609 125.756 123.183 126.148 123.281 126.876H124.751C124.611 125.448 123.533 124.622 121.811 124.622C120.145 124.622 118.983 125.49 118.983 126.778C118.983 128.066 119.837 128.626 121.601 128.92C122.959 129.172 123.365 129.452 123.365 130.026C123.365 130.67 122.777 131.02 121.909 131.02C120.971 131.02 120.355 130.614 120.215 129.76H118.745C118.871 131.3 120.033 132.182 121.895 132.182ZM129.337 132.182C131.101 132.182 132.305 131.272 132.655 129.816H131.129C130.905 130.502 130.331 130.95 129.337 130.95C128.091 130.95 127.363 130.18 127.293 128.724H132.697C132.823 126.246 131.675 124.622 129.323 124.622C127.139 124.622 125.795 126.106 125.795 128.29V128.5C125.795 130.684 127.111 132.182 129.337 132.182ZM127.335 127.632C127.503 126.456 128.175 125.826 129.323 125.826C130.429 125.826 131.045 126.512 131.143 127.632H127.335ZM135.61 132V130.124H133.734V132H135.61Z" fill="#999999"/>
<path d="M50.3042 25H52.5122L53.3122 22.712H58.1922L58.9922 25H61.2162L57.1042 13.8H54.4162L50.3042 25ZM53.8722 21.144L55.6962 15.96H55.8242L57.6482 21.144H53.8722ZM64.944 25.16C66.896 25.16 68.592 24.392 68.592 22.552C68.592 21.096 67.52 20.52 66.208 20.216L64.624 19.864C63.952 19.736 63.616 19.432 63.616 18.952C63.616 18.376 64.08 18.072 64.992 18.072C65.888 18.072 66.496 18.376 66.624 19.288H68.32C68.288 17.528 67.088 16.52 64.976 16.52C62.976 16.52 61.632 17.416 61.632 18.984C61.632 20.104 62.288 20.984 63.968 21.368L65.504 21.704C66.144 21.832 66.48 22.088 66.48 22.6C66.48 23.304 65.856 23.608 64.976 23.608C64.016 23.608 63.344 23.256 63.232 22.376H61.408C61.424 24.248 62.816 25.16 64.944 25.16ZM72.5615 25.16C74.5135 25.16 76.2095 24.392 76.2095 22.552C76.2095 21.096 75.1375 20.52 73.8255 20.216L72.2415 19.864C71.5695 19.736 71.2335 19.432 71.2335 18.952C71.2335 18.376 71.6975 18.072 72.6095 18.072C73.5055 18.072 74.1135 18.376 74.2415 19.288H75.9375C75.9055 17.528 74.7055 16.52 72.5935 16.52C70.5935 16.52 69.2495 17.416 69.2495 18.984C69.2495 20.104 69.9055 20.984 71.5855 21.368L73.1215 21.704C73.7615 21.832 74.0975 22.088 74.0975 22.6C74.0975 23.304 73.4735 23.608 72.5935 23.608C71.6335 23.608 70.9615 23.256 70.8495 22.376H69.0255C69.0415 24.248 70.4335 25.16 72.5615 25.16ZM80.835 25.16C82.691 25.16 84.147 24.28 84.595 22.392H82.771C82.531 23.192 81.923 23.592 80.883 23.592C79.571 23.592 78.787 22.92 78.659 21.368H84.659C84.691 21.192 84.707 21.032 84.707 20.744C84.707 17.704 82.947 16.52 80.803 16.52C78.627 16.52 76.723 17.752 76.723 20.824C76.723 23.928 78.675 25.16 80.835 25.16ZM78.675 20.12C78.819 18.76 79.571 18.088 80.771 18.088C82.115 18.088 82.723 18.952 82.771 20.12H78.675ZM88.852 25.112C89.284 25.112 89.684 25.064 90.036 24.968V23.432C89.732 23.464 89.588 23.464 89.396 23.464C88.532 23.464 88.308 23.064 88.308 22.344V18.28H89.94V16.68H88.308V14.552H86.26V16.68H84.868V18.28H86.26V22.664C86.26 24.424 87.284 25.112 88.852 25.112ZM53.1362 41.16C54.9922 41.16 55.7442 39.976 55.9202 39.512H56.0002V41H57.9682V35.24C57.9682 33.4 56.9442 32.52 54.4962 32.52C52.0162 32.52 50.9122 33.416 50.9122 35.032V35.4H52.8322V35.224C52.8322 34.312 53.5362 34.008 54.4482 34.008C55.3442 34.008 55.9522 34.312 55.9522 35.32V35.496C55.9522 35.928 55.7122 36.072 54.8962 36.184L53.3442 36.392C51.8242 36.6 50.4642 37.096 50.4642 38.824C50.4642 40.488 51.7282 41.16 53.1362 41.16ZM52.5122 38.648C52.5122 38.152 52.7842 37.752 53.6482 37.624L54.9762 37.416C55.4402 37.352 55.8402 37.256 55.9522 37.064V38.12C55.9522 38.792 55.1202 39.672 53.8082 39.672C52.9442 39.672 52.5122 39.288 52.5122 38.648ZM62.8626 44.344C64.5746 44.344 67.0706 43.736 67.0706 40.744V32.68H65.0226V33.752H64.9906C64.5266 33.032 63.5826 32.52 62.4306 32.52C60.7186 32.52 58.8786 33.672 58.8786 36.664C58.8786 39.656 60.6866 40.792 62.4306 40.792C63.5826 40.792 64.5266 40.28 64.9906 39.56H65.0226V40.744C65.0226 42.168 64.0306 42.76 62.8146 42.76C61.9026 42.76 60.9266 42.408 60.8786 41.56H59.0706C59.0866 43.864 61.3266 44.344 62.8626 44.344ZM60.7986 36.664C60.7986 35 61.8226 34.232 62.9586 34.232C64.0946 34.232 65.1026 35 65.1026 36.664C65.1026 38.312 64.0946 39.096 62.9586 39.096C61.8226 39.096 60.7986 38.312 60.7986 36.664ZM72.0426 44.344C73.7546 44.344 76.2506 43.736 76.2506 40.744V32.68H74.2026V33.752H74.1706C73.7066 33.032 72.7626 32.52 71.6106 32.52C69.8986 32.52 68.0586 33.672 68.0586 36.664C68.0586 39.656 69.8666 40.792 71.6106 40.792C72.7626 40.792 73.7066 40.28 74.1706 39.56H74.2026V40.744C74.2026 42.168 73.2106 42.76 71.9946 42.76C71.0826 42.76 70.1066 42.408 70.0586 41.56H68.2506C68.2666 43.864 70.5066 44.344 72.0426 44.344ZM69.9786 36.664C69.9786 35 71.0026 34.232 72.1386 34.232C73.2746 34.232 74.2826 35 74.2826 36.664C74.2826 38.312 73.2746 39.096 72.1386 39.096C71.0026 39.096 69.9786 38.312 69.9786 36.664ZM77.6386 41H79.6866V37.128C79.6866 35.176 80.8226 34.344 82.1986 34.344C82.4066 34.344 82.5986 34.36 82.8386 34.392V32.664C82.6146 32.6 82.3906 32.584 82.1986 32.584C80.7906 32.584 80.0066 33.544 79.7346 34.664H79.6866V32.68H77.6386V41ZM87.1556 41.16C89.0116 41.16 90.4676 40.28 90.9156 38.392H89.0916C88.8516 39.192 88.2436 39.592 87.2036 39.592C85.8916 39.592 85.1076 38.92 84.9796 37.368H90.9796C91.0116 37.192 91.0276 37.032 91.0276 36.744C91.0276 33.704 89.2676 32.52 87.1236 32.52C84.9476 32.52 83.0436 33.752 83.0436 36.824C83.0436 39.928 84.9956 41.16 87.1556 41.16ZM84.9956 36.12C85.1396 34.76 85.8916 34.088 87.0916 34.088C88.4356 34.088 89.0436 34.952 89.0916 36.12H84.9956ZM95.6764 44.344C97.3884 44.344 99.8844 43.736 99.8844 40.744V32.68H97.8364V33.752H97.8044C97.3404 33.032 96.3964 32.52 95.2444 32.52C93.5324 32.52 91.6924 33.672 91.6924 36.664C91.6924 39.656 93.5004 40.792 95.2444 40.792C96.3964 40.792 97.3404 40.28 97.8044 39.56H97.8364V40.744C97.8364 42.168 96.8444 42.76 95.6284 42.76C94.7164 42.76 93.7404 42.408 93.6924 41.56H91.8844C91.9004 43.864 94.1404 44.344 95.6764 44.344ZM93.6124 36.664C93.6124 35 94.6364 34.232 95.7724 34.232C96.9084 34.232 97.9164 35 97.9164 36.664C97.9164 38.312 96.9084 39.096 95.7724 39.096C94.6364 39.096 93.6124 38.312 93.6124 36.664ZM103.544 41.16C105.4 41.16 106.152 39.976 106.328 39.512H106.408V41H108.376V35.24C108.376 33.4 107.352 32.52 104.904 32.52C102.424 32.52 101.32 33.416 101.32 35.032V35.4H103.24V35.224C103.24 34.312 103.944 34.008 104.856 34.008C105.752 34.008 106.36 34.312 106.36 35.32V35.496C106.36 35.928 106.12 36.072 105.304 36.184L103.752 36.392C102.232 36.6 100.872 37.096 100.872 38.824C100.872 40.488 102.136 41.16 103.544 41.16ZM102.92 38.648C102.92 38.152 103.192 37.752 104.056 37.624L105.384 37.416C105.848 37.352 106.248 37.256 106.36 37.064V38.12C106.36 38.792 105.528 39.672 104.216 39.672C103.352 39.672 102.92 39.288 102.92 38.648ZM112.954 41.112C113.386 41.112 113.786 41.064 114.138 40.968V39.432C113.834 39.464 113.69 39.464 113.498 39.464C112.634 39.464 112.41 39.064 112.41 38.344V34.28H114.042V32.68H112.41V30.552H110.362V32.68H108.97V34.28H110.362V38.664C110.362 40.424 111.386 41.112 112.954 41.112ZM115.054 41H117.102V32.68H115.054V41ZM114.91 30.36C114.91 31.016 115.454 31.512 116.078 31.512C116.686 31.512 117.23 31.016 117.23 30.36C117.23 29.704 116.686 29.208 116.078 29.208C115.454 29.208 114.91 29.704 114.91 30.36ZM122.228 41.16C124.308 41.16 126.356 39.848 126.356 36.84C126.356 33.832 124.308 32.52 122.228 32.52C120.132 32.52 118.1 33.832 118.1 36.84C118.1 39.848 120.132 41.16 122.228 41.16ZM120.02 36.84C120.02 35.032 121.012 34.232 122.228 34.232C123.428 34.232 124.42 35.032 124.42 36.84C124.42 38.648 123.428 39.448 122.228 39.448C121.012 39.448 120.02 38.648 120.02 36.84ZM133.032 36.248V41H135.08V35.768C135.08 33.512 133.816 32.52 132.184 32.52C130.424 32.52 129.624 33.672 129.464 34.392H129.4V32.68H127.352V41H129.4V36.248C129.4 34.888 130.216 34.216 131.336 34.216C132.44 34.216 133.032 34.888 133.032 36.248Z" fill="#CCAEFF"/>
<defs>
<filter id="filter0_dddd_1_5791" x="0.518621" y="0.7037" width="194.963" height="217.296" filterUnits="userSpaceOnUse" color-interpolation-filters="sRGB">
<feFlood flood-opacity="0" result="BackgroundImageFix"/>
<feColorMatrix in="SourceAlpha" type="matrix" values="0 0 0 0 0 0 0 0 0 0 0 0 0 0 0 0 0 0 127 0" result="hardAlpha"/>
<feOffset dy="38.5185"/>
<feGaussianBlur stdDeviation="12.7408"/>
<feComposite in2="hardAlpha" operator="out"/>
<feColorMatrix type="matrix" values="0 0 0 0 0.32549 0 0 0 0 0.117647 0 0 0 0 0 0 0 0 0.08 0"/>
<feBlend mode="normal" in2="BackgroundImageFix" result="effect1_dropShadow_1_5791"/>
<feColorMatrix in="SourceAlpha" type="matrix" values="0 0 0 0 0 0 0 0 0 0 0 0 0 0 0 0 0 0 127 0" result="hardAlpha"/>
<feOffset dy="20"/>
<feGaussianBlur stdDeviation="6.5"/>
<feComposite in2="hardAlpha" operator="out"/>
<feColorMatrix type="matrix" values="0 0 0 0 0.32549 0 0 0 0 0.117647 0 0 0 0 0 0 0 0 0.08 0"/>
<feBlend mode="normal" in2="effect1_dropShadow_1_5791" result="effect2_dropShadow_1_5791"/>
<feColorMatrix in="SourceAlpha" type="matrix" values="0 0 0 0 0 0 0 0 0 0 0 0 0 0 0 0 0 0 127 0" result="hardAlpha"/>
<feOffset dy="8.14815"/>
<feGaussianBlur stdDeviation="3.25926"/>
<feComposite in2="hardAlpha" operator="out"/>
<feColorMatrix type="matrix" values="0 0 0 0 0.32549 0 0 0 0 0.117647 0 0 0 0 0 0 0 0 0.05 0"/>
<feBlend mode="normal" in2="effect2_dropShadow_1_5791" result="effect3_dropShadow_1_5791"/>
<feColorMatrix in="SourceAlpha" type="matrix" values="0 0 0 0 0 0 0 0 0 0 0 0 0 0 0 0 0 0 127 0" result="hardAlpha"/>
<feOffset dy="1.85185"/>
<feGaussianBlur stdDeviation="1.57407"/>
<feComposite in2="hardAlpha" operator="out"/>
<feColorMatrix type="matrix" values="0 0 0 0 0.325 0 0 0 0 0.117867 0 0 0 0 0.00135416 0 0 0 0.05 0"/>
<feBlend mode="normal" in2="effect3_dropShadow_1_5791" result="effect4_dropShadow_1_5791"/>
<feBlend mode="normal" in="SourceGraphic" in2="effect4_dropShadow_1_5791" result="shape"/>
</filter>
<filter id="filter1_d_1_5791" x="2.00012" y="14" width="54" height="59" filterUnits="userSpaceOnUse" color-interpolation-filters="sRGB">
<feFlood flood-opacity="0" result="BackgroundImageFix"/>
<feColorMatrix in="SourceAlpha" type="matrix" values="0 0 0 0 0 0 0 0 0 0 0 0 0 0 0 0 0 0 127 0" result="hardAlpha"/>
<feMorphology radius="3" operator="erode" in="SourceAlpha" result="effect1_dropShadow_1_5791"/>
<feOffset dy="18"/>
<feGaussianBlur stdDeviation="8"/>
<feComposite in2="hardAlpha" operator="out"/>
<feColorMatrix type="matrix" values="0 0 0 0 0 0 0 0 0 0 0 0 0 0 0 0 0 0 0.1 0"/>
<feBlend mode="normal" in2="BackgroundImageFix" result="effect1_dropShadow_1_5791"/>
<feBlend mode="normal" in="SourceGraphic" in2="effect1_dropShadow_1_5791" result="shape"/>
</filter>
<linearGradient id="paint0_linear_1_5791" x1="28.6004" y1="20.0001" x2="28.6004" y2="32.9231" gradientUnits="userSpaceOnUse">
<stop stop-color="white"/>
<stop offset="1" stop-color="#E9CEFF"/>
</linearGradient>
<linearGradient id="paint1_linear_1_5791" x1="35.7999" y1="20.7999" x2="35.7999" y2="32.4306" gradientUnits="userSpaceOnUse">
<stop stop-color="white"/>
<stop offset="1" stop-color="#E9CEFF"/>
</linearGradient>
<linearGradient id="paint2_linear_1_5791" x1="38.2002" y1="22.4005" x2="38.2002" y2="31.4466" gradientUnits="userSpaceOnUse">
<stop stop-color="white"/>
<stop offset="1" stop-color="#E9CEFF"/>
</linearGradient>
</defs>
</svg>
