<svg width="196" height="218" viewBox="0 0 196 218" fill="none" xmlns="http://www.w3.org/2000/svg">
<g filter="url(#filter0_dddd_1_5616)">
<rect x="26" y="2" width="144" height="152" rx="16" fill="black"/>
</g>
<path d="M26 56H170V154C170 162.837 162.837 170 154 170H42C33.1634 170 26 162.837 26 154V56Z" fill="#353434"/>
<path d="M68.036 87.056V83.06L52.376 77.012V81.044L62.996 85.004L52.376 89V93.14L68.036 87.056ZM78.9991 98.468C84.9391 98.468 88.8271 95.516 88.8271 90.944V90.584C88.8271 87.488 86.7391 85.364 84.0391 84.608C86.3431 83.744 87.8911 81.728 87.8911 79.28V78.956C87.8911 74.744 84.1111 71.972 78.9991 71.972C73.8511 71.972 69.8911 75.176 69.6751 80.252H75.2551C75.3631 77.876 76.6951 76.544 79.0351 76.544C81.1591 76.544 82.3471 77.696 82.3471 79.424V79.712C82.3471 81.512 81.0871 82.52 78.9991 82.52H76.3711V86.876H78.9991C81.4111 86.876 82.7791 88.136 82.7791 90.188V90.476C82.7791 92.456 81.3751 93.788 78.9631 93.788C76.4791 93.788 75.0751 92.384 74.9671 89.972H69.0991C69.1711 95.192 72.9871 98.468 78.9991 98.468ZM99.8308 98.468C106.599 98.468 109.443 93.032 109.443 85.58V84.86C109.443 77.444 106.599 71.972 99.8308 71.972C93.2068 71.972 90.2548 77.444 90.2548 84.86V85.58C90.2548 93.032 93.2068 98.468 99.8308 98.468ZM99.8308 93.608C97.1308 93.608 96.4108 91.304 96.4108 85.616V84.896C96.4108 79.136 97.1308 76.832 99.8308 76.832C102.675 76.832 103.287 79.136 103.287 84.896V85.616C103.287 91.304 102.675 93.608 99.8308 93.608ZM116.851 84.536C119.695 84.536 123.295 82.592 123.295 78.272C123.295 73.88 119.695 71.972 116.851 71.972C114.007 71.972 110.407 73.88 110.407 78.272C110.407 82.592 114.007 84.536 116.851 84.536ZM117.787 98L136.543 72.44H131.647L112.927 98H117.787ZM116.851 80.936C115.411 80.936 114.223 79.928 114.223 78.272C114.223 76.472 115.411 75.572 116.851 75.572C118.291 75.572 119.479 76.472 119.479 78.272C119.479 79.928 118.291 80.936 116.851 80.936ZM133.303 98.468C136.147 98.468 139.747 96.524 139.747 92.204C139.747 87.812 136.147 85.904 133.303 85.904C130.459 85.904 126.859 87.812 126.859 92.204C126.859 96.524 130.459 98.468 133.303 98.468ZM133.303 94.868C131.863 94.868 130.675 93.896 130.675 92.204C130.675 90.44 131.863 89.504 133.303 89.504C134.743 89.504 135.931 90.44 135.931 92.204C135.931 93.896 134.743 94.868 133.303 94.868Z" fill="white"/>
<path d="M52.758 119V115.22H54.648L57.056 119H58.932L56.384 115.094C57.812 114.786 58.722 113.82 58.722 112.252V112.028C58.722 110.096 57.322 109.06 55.32 109.06H51.134V119H52.758ZM52.758 110.432H55.18C56.3 110.432 57.042 110.936 57.042 112.028V112.252C57.042 113.344 56.3 113.848 55.18 113.848H52.758V110.432ZM62.9985 119.182C65.1685 119.182 66.5685 117.698 66.5685 115.5V115.29C66.5685 113.092 65.1685 111.622 62.9985 111.622C60.8425 111.622 59.4425 113.092 59.4425 115.29V115.5C59.4425 117.698 60.8425 119.182 62.9985 119.182ZM62.9985 117.936C61.6965 117.936 61.0105 117.054 61.0105 115.5V115.29C61.0105 113.736 61.6965 112.868 62.9985 112.868C64.3145 112.868 65.0005 113.736 65.0005 115.29V115.5C65.0005 117.054 64.3145 117.936 62.9985 117.936ZM69.824 119V109.06H68.186V119H69.824ZM75.998 110.418V108.472H74.374V110.418H75.998ZM75.956 119V111.79H74.416V119H75.956ZM79.2854 119V114.968C79.2854 113.68 79.9994 112.896 81.0634 112.896C82.1134 112.896 82.5474 113.554 82.5474 114.73V119H84.0734V114.352C84.0734 112.714 83.3314 111.622 81.5814 111.622C80.4194 111.622 79.6634 112.224 79.2854 112.938L79.2294 111.79H77.7454V119H79.2854ZM88.8992 119.182C90.7052 119.182 91.8812 118.174 92.1332 116.564H90.6072C90.4252 117.39 89.9072 117.922 88.8852 117.922C87.6392 117.922 87.0092 117.054 87.0092 115.5V115.29C87.0092 113.736 87.6392 112.868 88.8852 112.868C89.9072 112.868 90.4112 113.386 90.5932 114.198H92.1052C91.8812 112.63 90.7192 111.622 88.9132 111.622C86.7152 111.622 85.4272 113.106 85.4272 115.29V115.5C85.4272 117.684 86.7152 119.182 88.8992 119.182ZM94.9539 119V115.332C94.9539 113.904 95.7379 113.162 97.0399 113.162C97.2079 113.162 97.3759 113.176 97.5159 113.19V111.692C97.3899 111.664 97.2359 111.65 97.1239 111.65C96.0879 111.65 95.3319 112.266 94.9399 113.19L94.8979 111.79H93.4139V119H94.9539ZM101.521 119.182C103.285 119.182 104.489 118.272 104.839 116.816H103.313C103.089 117.502 102.515 117.95 101.521 117.95C100.275 117.95 99.5465 117.18 99.4765 115.724H104.881C105.007 113.246 103.859 111.622 101.507 111.622C99.3225 111.622 97.9785 113.106 97.9785 115.29V115.5C97.9785 117.684 99.2945 119.182 101.521 119.182ZM99.5185 114.632C99.6865 113.456 100.359 112.826 101.507 112.826C102.613 112.826 103.229 113.512 103.327 114.632H99.5185ZM108.268 119.182C109.304 119.182 110.186 118.692 110.634 117.88L110.69 119H112.104V114.1C112.104 112.602 111.054 111.622 109.192 111.622C107.428 111.622 106.28 112.462 106.126 113.862H107.596C107.722 113.204 108.268 112.826 109.164 112.826C110.074 112.826 110.62 113.246 110.62 114.044V114.562L107.778 114.982C106.546 115.15 105.846 115.906 105.846 117.054C105.846 118.286 106.784 119.182 108.268 119.182ZM108.618 117.964C107.806 117.964 107.344 117.586 107.344 116.984C107.344 116.424 107.652 116.116 108.31 116.018L110.62 115.696V116.354C110.62 117.292 109.696 117.964 108.618 117.964ZM116.522 119.182C118.328 119.182 119.532 118.258 119.532 116.886C119.532 115.626 118.636 115.024 116.83 114.73C115.514 114.52 115.094 114.254 115.094 113.694C115.094 113.106 115.612 112.756 116.424 112.756C117.236 112.756 117.81 113.148 117.908 113.876H119.378C119.238 112.448 118.16 111.622 116.438 111.622C114.772 111.622 113.61 112.49 113.61 113.778C113.61 115.066 114.464 115.626 116.228 115.92C117.586 116.172 117.992 116.452 117.992 117.026C117.992 117.67 117.404 118.02 116.536 118.02C115.598 118.02 114.982 117.614 114.842 116.76H113.372C113.498 118.3 114.66 119.182 116.522 119.182ZM123.964 119.182C125.728 119.182 126.932 118.272 127.282 116.816H125.756C125.532 117.502 124.958 117.95 123.964 117.95C122.718 117.95 121.99 117.18 121.92 115.724H127.324C127.45 113.246 126.302 111.622 123.95 111.622C121.766 111.622 120.422 113.106 120.422 115.29V115.5C120.422 117.684 121.738 119.182 123.964 119.182ZM121.962 114.632C122.13 113.456 122.802 112.826 123.95 112.826C125.056 112.826 125.672 113.512 125.77 114.632H121.962ZM53.15 135V128.952H55.11V127.79H53.15V126.586C53.15 125.872 53.416 125.536 54.27 125.536C54.578 125.536 54.942 125.62 55.152 125.676V124.458C54.83 124.374 54.34 124.29 53.976 124.29C52.394 124.29 51.61 125.018 51.61 126.418V127.79H50.21V128.952H51.61V135H53.15ZM57.6554 135V131.332C57.6554 129.904 58.4394 129.162 59.7414 129.162C59.9094 129.162 60.0774 129.176 60.2174 129.19V127.692C60.0914 127.664 59.9374 127.65 59.8254 127.65C58.7894 127.65 58.0334 128.266 57.6414 129.19L57.5994 127.79H56.1154V135H57.6554ZM64.236 135.182C66.406 135.182 67.806 133.698 67.806 131.5V131.29C67.806 129.092 66.406 127.622 64.236 127.622C62.08 127.622 60.68 129.092 60.68 131.29V131.5C60.68 133.698 62.08 135.182 64.236 135.182ZM64.236 133.936C62.934 133.936 62.248 133.054 62.248 131.5V131.29C62.248 129.736 62.934 128.868 64.236 128.868C65.552 128.868 66.238 129.736 66.238 131.29V131.5C66.238 133.054 65.552 133.936 64.236 133.936ZM70.7536 135V131.01C70.7536 129.652 71.3976 128.896 72.4336 128.896C73.3856 128.896 73.8056 129.498 73.8056 130.674V135H75.3456V130.996C75.3456 129.666 75.9476 128.896 76.9836 128.896C77.9356 128.896 78.3696 129.47 78.3696 130.66V135H79.9096V130.352C79.9096 128.686 79.1536 127.622 77.5016 127.622C76.4376 127.622 75.6256 128.14 75.1216 129.022C74.7856 128.112 74.0436 127.622 72.9656 127.622C71.8316 127.622 71.1036 128.224 70.7396 128.91L70.6976 127.79H69.2136V135H70.7536ZM87.1795 135.182C87.5435 135.182 88.0335 135.098 88.3555 135.014V133.782C88.1455 133.852 87.7815 133.922 87.4735 133.922C86.6195 133.922 86.3535 133.6 86.3535 132.886V128.952H88.3135V127.79H86.3535V125.536H84.8135V127.79H83.4135V128.952H84.8135V133.054C84.8135 134.454 85.5975 135.182 87.1795 135.182ZM91.2144 135V131.332C91.2144 129.904 91.9984 129.162 93.3004 129.162C93.4684 129.162 93.6364 129.176 93.7764 129.19V127.692C93.6504 127.664 93.4964 127.65 93.3844 127.65C92.3484 127.65 91.5924 128.266 91.2004 129.19L91.1584 127.79H89.6744V135H91.2144ZM96.5913 135.182C97.6273 135.182 98.5093 134.692 98.9573 133.88L99.0133 135H100.427V130.1C100.427 128.602 99.3773 127.622 97.5153 127.622C95.7513 127.622 94.6033 128.462 94.4493 129.862H95.9193C96.0453 129.204 96.5913 128.826 97.4873 128.826C98.3973 128.826 98.9433 129.246 98.9433 130.044V130.562L96.1013 130.982C94.8693 131.15 94.1693 131.906 94.1693 133.054C94.1693 134.286 95.1073 135.182 96.5913 135.182ZM96.9413 133.964C96.1293 133.964 95.6673 133.586 95.6673 132.984C95.6673 132.424 95.9753 132.116 96.6333 132.018L98.9433 131.696V132.354C98.9433 133.292 98.0193 133.964 96.9413 133.964ZM104.887 135.182C106.119 135.182 106.931 134.482 107.281 133.796L107.323 135H108.751V124.472H107.211V128.84C106.791 128.168 106.007 127.622 104.859 127.622C102.955 127.622 101.779 129.148 101.779 131.29V131.5C101.779 133.656 102.997 135.182 104.887 135.182ZM105.279 133.936C104.033 133.936 103.347 133.04 103.347 131.5V131.29C103.347 129.736 104.047 128.84 105.279 128.84C106.553 128.84 107.267 129.736 107.267 131.29V131.5C107.267 133.054 106.567 133.936 105.279 133.936ZM112.127 126.418V124.472H110.503V126.418H112.127ZM112.085 135V127.79H110.545V135H112.085ZM116.815 135.182C117.179 135.182 117.669 135.098 117.991 135.014V133.782C117.781 133.852 117.417 133.922 117.109 133.922C116.255 133.922 115.989 133.6 115.989 132.886V128.952H117.949V127.79H115.989V125.536H114.449V127.79H113.049V128.952H114.449V133.054C114.449 134.454 115.233 135.182 116.815 135.182ZM120.892 126.418V124.472H119.268V126.418H120.892ZM120.85 135V127.79H119.31V135H120.85ZM125.817 135.182C127.987 135.182 129.387 133.698 129.387 131.5V131.29C129.387 129.092 127.987 127.622 125.817 127.622C123.661 127.622 122.261 129.092 122.261 131.29V131.5C122.261 133.698 123.661 135.182 125.817 135.182ZM125.817 133.936C124.515 133.936 123.829 133.054 123.829 131.5V131.29C123.829 129.736 124.515 128.868 125.817 128.868C127.133 128.868 127.819 129.736 127.819 131.29V131.5C127.819 133.054 127.133 133.936 125.817 133.936ZM132.334 135V130.968C132.334 129.68 133.048 128.896 134.112 128.896C135.162 128.896 135.596 129.554 135.596 130.73V135H137.122V130.352C137.122 128.714 136.38 127.622 134.63 127.622C133.468 127.622 132.712 128.224 132.334 128.938L132.278 127.79H130.794V135H132.334ZM140.842 135.182C141.878 135.182 142.76 134.692 143.208 133.88L143.264 135H144.678V130.1C144.678 128.602 143.628 127.622 141.766 127.622C140.002 127.622 138.854 128.462 138.7 129.862H140.17C140.296 129.204 140.842 128.826 141.738 128.826C142.648 128.826 143.194 129.246 143.194 130.044V130.562L140.352 130.982C139.12 131.15 138.42 131.906 138.42 133.054C138.42 134.286 139.358 135.182 140.842 135.182ZM141.192 133.964C140.38 133.964 139.918 133.586 139.918 132.984C139.918 132.424 140.226 132.116 140.884 132.018L143.194 131.696V132.354C143.194 133.292 142.27 133.964 141.192 133.964ZM147.948 135V124.472H146.408V135H147.948ZM52.576 151V147.01C52.576 145.652 53.22 144.896 54.256 144.896C55.208 144.896 55.628 145.498 55.628 146.674V151H57.168V146.996C57.168 145.666 57.77 144.896 58.806 144.896C59.758 144.896 60.192 145.47 60.192 146.66V151H61.732V146.352C61.732 144.686 60.976 143.622 59.324 143.622C58.26 143.622 57.448 144.14 56.944 145.022C56.608 144.112 55.866 143.622 54.788 143.622C53.654 143.622 52.926 144.224 52.562 144.91L52.52 143.79H51.036V151H52.576ZM66.6348 151.182C68.3988 151.182 69.6028 150.272 69.9528 148.816H68.4268C68.2028 149.502 67.6288 149.95 66.6348 149.95C65.3888 149.95 64.6608 149.18 64.5908 147.724H69.9948C70.1208 145.246 68.9728 143.622 66.6208 143.622C64.4368 143.622 63.0928 145.106 63.0928 147.29V147.5C63.0928 149.684 64.4088 151.182 66.6348 151.182ZM64.6328 146.632C64.8008 145.456 65.4728 144.826 66.6208 144.826C67.7268 144.826 68.3428 145.512 68.4408 146.632H64.6328ZM74.1426 151.182C74.5066 151.182 74.9966 151.098 75.3186 151.014V149.782C75.1086 149.852 74.7446 149.922 74.4366 149.922C73.5826 149.922 73.3166 149.6 73.3166 148.886V144.952H75.2766V143.79H73.3166V141.536H71.7766V143.79H70.3766V144.952H71.7766V149.054C71.7766 150.454 72.5606 151.182 74.1426 151.182ZM78.1774 151V146.968C78.1774 145.68 78.8914 144.896 79.9554 144.896C81.0054 144.896 81.4394 145.554 81.4394 146.73V151H82.9654V146.352C82.9654 144.714 82.2234 143.622 80.4734 143.622C79.3254 143.622 78.5834 144.182 78.1914 144.896V140.472H76.6374V151H78.1774ZM87.8753 151.182C90.0453 151.182 91.4453 149.698 91.4453 147.5V147.29C91.4453 145.092 90.0453 143.622 87.8753 143.622C85.7193 143.622 84.3193 145.092 84.3193 147.29V147.5C84.3193 149.698 85.7193 151.182 87.8753 151.182ZM87.8753 149.936C86.5733 149.936 85.8873 149.054 85.8873 147.5V147.29C85.8873 145.736 86.5733 144.868 87.8753 144.868C89.1913 144.868 89.8773 145.736 89.8773 147.29V147.5C89.8773 149.054 89.1913 149.936 87.8753 149.936ZM95.5828 151.182C96.8148 151.182 97.6268 150.482 97.9768 149.796L98.0188 151H99.4468V140.472H97.9068V144.84C97.4868 144.168 96.7028 143.622 95.5548 143.622C93.6508 143.622 92.4748 145.148 92.4748 147.29V147.5C92.4748 149.656 93.6928 151.182 95.5828 151.182ZM95.9748 149.936C94.7288 149.936 94.0428 149.04 94.0428 147.5V147.29C94.0428 145.736 94.7428 144.84 95.9748 144.84C97.2488 144.84 97.9628 145.736 97.9628 147.29V147.5C97.9628 149.054 97.2628 149.936 95.9748 149.936ZM103.929 151.182C105.735 151.182 106.939 150.258 106.939 148.886C106.939 147.626 106.043 147.024 104.237 146.73C102.921 146.52 102.501 146.254 102.501 145.694C102.501 145.106 103.019 144.756 103.831 144.756C104.643 144.756 105.217 145.148 105.315 145.876H106.785C106.645 144.448 105.567 143.622 103.845 143.622C102.179 143.622 101.017 144.49 101.017 145.778C101.017 147.066 101.871 147.626 103.635 147.92C104.993 148.172 105.399 148.452 105.399 149.026C105.399 149.67 104.811 150.02 103.943 150.02C103.005 150.02 102.389 149.614 102.249 148.76H100.779C100.905 150.3 102.067 151.182 103.929 151.182Z" fill="#999999"/>
<g filter="url(#filter1_d_1_5616)">
<circle cx="29" cy="28" r="14" fill="#8D4AFF"/>
</g>
<mask id="mask0_1_5616" style="mask-type:alpha" maskUnits="userSpaceOnUse" x="15" y="14" width="28" height="28">
<circle cx="29" cy="28.0001" r="14" fill="#FF6435"/>
</mask>
<g mask="url(#mask0_1_5616)">
<path d="M35.5005 28.4117C35.4075 29.8704 34.8366 31.1978 33.9375 32.2397L36.4396 34.6901C37.9509 33.0129 38.9015 30.8221 39.0004 28.4117H35.5005Z" fill="black"/>
<path d="M35.5005 28.4117C35.4075 29.8704 34.8366 31.1978 33.9375 32.2397L36.4396 34.6901C37.9509 33.0129 38.9015 30.8221 39.0004 28.4117H35.5005Z" fill="url(#paint0_linear_1_5616)"/>
<path d="M33.352 32.8333C32.1975 33.87 30.6765 34.5066 29.0053 34.5066C25.4159 34.5066 22.4935 31.5884 22.4935 27.9948C22.4935 24.5415 25.1943 21.7196 28.5903 21.504V18.0001C23.259 18.218 19 22.6102 19 27.9948C19 33.5185 23.4815 38.0001 29.0053 38.0001C31.6568 38.0001 34.0649 36.9671 35.8548 35.2844L33.352 32.8333Z" fill="black"/>
<path d="M33.352 32.8333C32.1975 33.87 30.6765 34.5066 29.0053 34.5066C25.4159 34.5066 22.4935 31.5884 22.4935 27.9948C22.4935 24.5415 25.1943 21.7196 28.5903 21.504V18.0001C23.259 18.218 19 22.6102 19 27.9948C19 33.5185 23.4815 38.0001 29.0053 38.0001C31.6568 38.0001 34.0649 36.9671 35.8548 35.2844L33.352 32.8333Z" fill="url(#paint1_linear_1_5616)"/>
<path d="M33.8916 23.6995C34.8163 24.7489 35.4059 26.0951 35.5004 27.5778H39.0003C38.8998 25.1301 37.9209 22.9091 36.3686 21.2222L33.8916 23.6995Z" fill="black"/>
<path d="M33.8916 23.6995C34.8163 24.7489 35.4059 26.0951 35.5004 27.5778H39.0003C38.8998 25.1301 37.9209 22.9091 36.3686 21.2222L33.8916 23.6995Z" fill="url(#paint2_linear_1_5616)"/>
</g>
<path d="M50.864 25H52.96V21.112H55.232L57.456 25H59.552L57.12 20.84C58.72 20.328 59.456 19.08 59.456 17.464C59.456 15.288 58.144 13.8 55.264 13.8H50.864V25ZM52.96 19.272V15.64H55.184C56.624 15.64 57.28 16.328 57.28 17.464C57.28 18.584 56.624 19.272 55.184 19.272H52.96ZM64.1935 25.16C66.0495 25.16 67.5055 24.28 67.9535 22.392H66.1295C65.8895 23.192 65.2815 23.592 64.2415 23.592C62.9295 23.592 62.1455 22.92 62.0175 21.368H68.0175C68.0495 21.192 68.0655 21.032 68.0655 20.744C68.0655 17.704 66.3055 16.52 64.1615 16.52C61.9855 16.52 60.0815 17.752 60.0815 20.824C60.0815 23.928 62.0335 25.16 64.1935 25.16ZM62.0335 20.12C62.1775 18.76 62.9295 18.088 64.1295 18.088C65.4735 18.088 66.0815 18.952 66.1295 20.12H62.0335ZM71.3241 25.16C73.1801 25.16 73.9321 23.976 74.1081 23.512H74.1881V25H76.1561V19.24C76.1561 17.4 75.1321 16.52 72.6841 16.52C70.2041 16.52 69.1001 17.416 69.1001 19.032V19.4H71.0201V19.224C71.0201 18.312 71.7241 18.008 72.6361 18.008C73.5321 18.008 74.1401 18.312 74.1401 19.32V19.496C74.1401 19.928 73.9001 20.072 73.0841 20.184L71.5321 20.392C70.0121 20.6 68.6521 21.096 68.6521 22.824C68.6521 24.488 69.9161 25.16 71.3241 25.16ZM70.7001 22.648C70.7001 22.152 70.9721 21.752 71.8361 21.624L73.1641 21.416C73.6281 21.352 74.0281 21.256 74.1401 21.064V22.12C74.1401 22.792 73.3081 23.672 71.9961 23.672C71.1321 23.672 70.7001 23.288 70.7001 22.648ZM77.5446 25H79.5926V13.8H77.5446V25ZM84.4142 25.112C84.8462 25.112 85.2462 25.064 85.5982 24.968V23.432C85.2942 23.464 85.1502 23.464 84.9582 23.464C84.0942 23.464 83.8702 23.064 83.8702 22.344V18.28H85.5022V16.68H83.8702V14.552H81.8222V16.68H80.4302V18.28H81.8222V22.664C81.8222 24.424 82.8462 25.112 84.4142 25.112ZM86.514 25H88.562V16.68H86.514V25ZM86.37 14.36C86.37 15.016 86.914 15.512 87.538 15.512C88.146 15.512 88.69 15.016 88.69 14.36C88.69 13.704 88.146 13.208 87.538 13.208C86.914 13.208 86.37 13.704 86.37 14.36ZM100.536 20.248V25H102.584V19.768C102.584 17.512 101.384 16.52 99.7836 16.52C98.1356 16.52 97.2716 17.704 97.1116 18.44C96.7276 17.112 95.7356 16.52 94.5676 16.52C93.0316 16.52 92.1996 17.672 92.0716 18.392H92.0076V16.68H89.9596V25H92.0076V20.248C92.0076 18.888 92.7276 18.216 93.7036 18.216C94.6956 18.216 95.2396 18.888 95.2396 20.248V25H97.2876V20.248C97.2876 18.888 98.0076 18.216 98.9836 18.216C99.9756 18.216 100.536 18.888 100.536 20.248ZM107.695 25.16C109.551 25.16 111.007 24.28 111.455 22.392H109.631C109.391 23.192 108.783 23.592 107.743 23.592C106.431 23.592 105.647 22.92 105.519 21.368H111.519C111.551 21.192 111.567 21.032 111.567 20.744C111.567 17.704 109.807 16.52 107.663 16.52C105.487 16.52 103.583 17.752 103.583 20.824C103.583 23.928 105.535 25.16 107.695 25.16ZM105.535 20.12C105.679 18.76 106.431 18.088 107.631 18.088C108.975 18.088 109.583 18.952 109.631 20.12H105.535ZM53.92 41.16C55.872 41.16 57.568 40.392 57.568 38.552C57.568 37.096 56.496 36.52 55.184 36.216L53.6 35.864C52.928 35.736 52.592 35.432 52.592 34.952C52.592 34.376 53.056 34.072 53.968 34.072C54.864 34.072 55.472 34.376 55.6 35.288H57.296C57.264 33.528 56.064 32.52 53.952 32.52C51.952 32.52 50.608 33.416 50.608 34.984C50.608 36.104 51.264 36.984 52.944 37.368L54.48 37.704C55.12 37.832 55.456 38.088 55.456 38.6C55.456 39.304 54.832 39.608 53.952 39.608C52.992 39.608 52.32 39.256 52.208 38.376H50.384C50.4 40.248 51.792 41.16 53.92 41.16ZM58.4815 44.04H60.5295V39.8C60.9295 40.584 61.8895 41.16 63.1055 41.16C64.8975 41.16 66.7695 39.88 66.7695 36.84C66.7695 33.8 64.8975 32.52 63.1055 32.52C61.8895 32.52 60.9295 33.096 60.5295 33.88V32.68H58.4815V44.04ZM60.4335 36.84C60.4335 35.048 61.5055 34.232 62.6255 34.232C63.7775 34.232 64.8495 35.048 64.8495 36.84C64.8495 38.632 63.7775 39.448 62.6255 39.448C61.5055 39.448 60.4335 38.632 60.4335 36.84ZM71.561 41.16C73.417 41.16 74.873 40.28 75.321 38.392H73.497C73.257 39.192 72.649 39.592 71.609 39.592C70.297 39.592 69.513 38.92 69.385 37.368H75.385C75.417 37.192 75.433 37.032 75.433 36.744C75.433 33.704 73.673 32.52 71.529 32.52C69.353 32.52 67.449 33.752 67.449 36.824C67.449 39.928 69.401 41.16 71.561 41.16ZM69.401 36.12C69.545 34.76 70.297 34.088 71.497 34.088C72.841 34.088 73.449 34.952 73.497 36.12H69.401ZM82.0996 36.248V41H84.1476V35.768C84.1476 33.512 82.8836 32.52 81.2516 32.52C79.4916 32.52 78.6916 33.672 78.5316 34.392H78.4676V32.68H76.4196V41H78.4676V36.248C78.4676 34.888 79.2836 34.216 80.4036 34.216C81.5076 34.216 82.0996 34.888 82.0996 36.248ZM88.8168 41.16C90.0328 41.16 90.9928 40.584 91.3928 39.8V41H93.4408V29.8H91.3928V33.88C90.9928 33.096 90.0328 32.52 88.8168 32.52C87.0248 32.52 85.1528 33.8 85.1528 36.84C85.1528 39.88 87.0248 41.16 88.8168 41.16ZM87.0728 36.84C87.0728 35.048 88.1448 34.232 89.2968 34.232C90.4168 34.232 91.4888 35.048 91.4888 36.84C91.4888 38.632 90.4168 39.448 89.2968 39.448C88.1448 39.448 87.0728 38.632 87.0728 36.84ZM94.8421 41H96.8901V32.68H94.8421V41ZM94.6981 30.36C94.6981 31.016 95.2421 31.512 95.8661 31.512C96.4741 31.512 97.0181 31.016 97.0181 30.36C97.0181 29.704 96.4741 29.208 95.8661 29.208C95.2421 29.208 94.6981 29.704 94.6981 30.36ZM103.968 36.248V41H106.016V35.768C106.016 33.512 104.752 32.52 103.12 32.52C101.36 32.52 100.56 33.672 100.4 34.392H100.336V32.68H98.2878V41H100.336V36.248C100.336 34.888 101.152 34.216 102.272 34.216C103.376 34.216 103.968 34.888 103.968 36.248ZM111.005 44.344C112.717 44.344 115.213 43.736 115.213 40.744V32.68H113.165V33.752H113.133C112.669 33.032 111.725 32.52 110.573 32.52C108.861 32.52 107.021 33.672 107.021 36.664C107.021 39.656 108.829 40.792 110.573 40.792C111.725 40.792 112.669 40.28 113.133 39.56H113.165V40.744C113.165 42.168 112.173 42.76 110.957 42.76C110.045 42.76 109.069 42.408 109.021 41.56H107.213C107.229 43.864 109.469 44.344 111.005 44.344ZM108.941 36.664C108.941 35 109.965 34.232 111.101 34.232C112.237 34.232 113.245 35 113.245 36.664C113.245 38.312 112.237 39.096 111.101 39.096C109.965 39.096 108.941 38.312 108.941 36.664Z" fill="#CCAEFF"/>
<defs>
<filter id="filter0_dddd_1_5616" x="0.518499" y="0.7037" width="194.963" height="217.296" filterUnits="userSpaceOnUse" color-interpolation-filters="sRGB">
<feFlood flood-opacity="0" result="BackgroundImageFix"/>
<feColorMatrix in="SourceAlpha" type="matrix" values="0 0 0 0 0 0 0 0 0 0 0 0 0 0 0 0 0 0 127 0" result="hardAlpha"/>
<feOffset dy="38.5185"/>
<feGaussianBlur stdDeviation="12.7408"/>
<feComposite in2="hardAlpha" operator="out"/>
<feColorMatrix type="matrix" values="0 0 0 0 0.32549 0 0 0 0 0.117647 0 0 0 0 0 0 0 0 0.08 0"/>
<feBlend mode="normal" in2="BackgroundImageFix" result="effect1_dropShadow_1_5616"/>
<feColorMatrix in="SourceAlpha" type="matrix" values="0 0 0 0 0 0 0 0 0 0 0 0 0 0 0 0 0 0 127 0" result="hardAlpha"/>
<feOffset dy="20"/>
<feGaussianBlur stdDeviation="6.5"/>
<feComposite in2="hardAlpha" operator="out"/>
<feColorMatrix type="matrix" values="0 0 0 0 0.32549 0 0 0 0 0.117647 0 0 0 0 0 0 0 0 0.08 0"/>
<feBlend mode="normal" in2="effect1_dropShadow_1_5616" result="effect2_dropShadow_1_5616"/>
<feColorMatrix in="SourceAlpha" type="matrix" values="0 0 0 0 0 0 0 0 0 0 0 0 0 0 0 0 0 0 127 0" result="hardAlpha"/>
<feOffset dy="8.14815"/>
<feGaussianBlur stdDeviation="3.25926"/>
<feComposite in2="hardAlpha" operator="out"/>
<feColorMatrix type="matrix" values="0 0 0 0 0.32549 0 0 0 0 0.117647 0 0 0 0 0 0 0 0 0.05 0"/>
<feBlend mode="normal" in2="effect2_dropShadow_1_5616" result="effect3_dropShadow_1_5616"/>
<feColorMatrix in="SourceAlpha" type="matrix" values="0 0 0 0 0 0 0 0 0 0 0 0 0 0 0 0 0 0 127 0" result="hardAlpha"/>
<feOffset dy="1.85185"/>
<feGaussianBlur stdDeviation="1.57407"/>
<feComposite in2="hardAlpha" operator="out"/>
<feColorMatrix type="matrix" values="0 0 0 0 0.325 0 0 0 0 0.117867 0 0 0 0 0.00135416 0 0 0 0.05 0"/>
<feBlend mode="normal" in2="effect3_dropShadow_1_5616" result="effect4_dropShadow_1_5616"/>
<feBlend mode="normal" in="SourceGraphic" in2="effect4_dropShadow_1_5616" result="shape"/>
</filter>
<filter id="filter1_d_1_5616" x="2" y="14" width="54" height="59" filterUnits="userSpaceOnUse" color-interpolation-filters="sRGB">
<feFlood flood-opacity="0" result="BackgroundImageFix"/>
<feColorMatrix in="SourceAlpha" type="matrix" values="0 0 0 0 0 0 0 0 0 0 0 0 0 0 0 0 0 0 127 0" result="hardAlpha"/>
<feMorphology radius="3" operator="erode" in="SourceAlpha" result="effect1_dropShadow_1_5616"/>
<feOffset dy="18"/>
<feGaussianBlur stdDeviation="8"/>
<feComposite in2="hardAlpha" operator="out"/>
<feColorMatrix type="matrix" values="0 0 0 0 0 0 0 0 0 0 0 0 0 0 0 0 0 0 0.1 0"/>
<feBlend mode="normal" in2="BackgroundImageFix" result="effect1_dropShadow_1_5616"/>
<feBlend mode="normal" in="SourceGraphic" in2="effect1_dropShadow_1_5616" result="shape"/>
</filter>
<linearGradient id="paint0_linear_1_5616" x1="36.469" y1="28.4117" x2="36.469" y2="33.4827" gradientUnits="userSpaceOnUse">
<stop stop-color="white"/>
<stop offset="1" stop-color="#E9CEFF"/>
</linearGradient>
<linearGradient id="paint1_linear_1_5616" x1="27.4274" y1="18.0001" x2="27.4274" y2="34.1539" gradientUnits="userSpaceOnUse">
<stop stop-color="white"/>
<stop offset="1" stop-color="#E9CEFF"/>
</linearGradient>
<linearGradient id="paint2_linear_1_5616" x1="36.4459" y1="21.2222" x2="36.4459" y2="26.3556" gradientUnits="userSpaceOnUse">
<stop stop-color="white"/>
<stop offset="1" stop-color="#E9CEFF"/>
</linearGradient>
</defs>
</svg>
