<svg width="49" height="54" viewBox="0 0 49 54" fill="none" xmlns="http://www.w3.org/2000/svg">
<path d="M18.9992 2.031C22.2479 0.155357 26.2505 0.155356 29.4992 2.031L43.2479 9.96882C46.4966 11.8445 48.4979 15.3108 48.4979 19.0621V34.9377C48.4979 38.689 46.4966 42.1554 43.2479 44.031L29.4992 51.9688C26.2505 53.8445 22.2479 53.8445 18.9992 51.9688L5.25049 44.031C2.00178 42.1554 0.000488281 38.689 0.000488281 34.9377V19.0621C0.000488281 15.3108 2.00178 11.8445 5.25049 9.96882L18.9992 2.031Z" fill="url(#paint0_linear_1009_2453)"/>
<g opacity="0.6" filter="url(#filter0_f_1009_2453)">
<path fill-rule="evenodd" clip-rule="evenodd" d="M38.6143 28.373H31.3335C31.0999 28.373 30.8976 28.2122 30.8434 27.9848C30.3326 25.8439 28.6403 24.1569 26.4965 23.6537C26.2683 23.6001 26.1064 23.3975 26.1064 23.1631V15.8851C26.1064 15.5845 26.3676 15.352 26.6664 15.3836C29.8467 15.7207 32.7936 17.1218 35.0873 19.4149C37.3744 21.7026 38.7746 24.6411 39.1157 27.8123C39.1478 28.1114 38.9151 28.373 38.6143 28.373ZM39.1215 30.8237C38.841 33.5103 37.8012 36.0311 36.1063 38.1326C35.9174 38.3667 35.5679 38.3872 35.3553 38.1745L31.2791 34.0984L30.2066 33.0258C30.0406 32.8599 30.0125 32.6022 30.1358 32.4025C30.4642 31.8709 30.7096 31.283 30.8541 30.6568C30.907 30.4274 31.1099 30.2643 31.3453 30.2643H38.6201C38.9203 30.2642 39.1527 30.525 39.1215 30.8237ZM33.9791 40.2645C34.2124 40.0755 34.2325 39.7267 34.0201 39.5143L28.8738 34.3683C28.7072 34.2016 28.4481 34.1739 28.2483 34.2989C27.352 34.859 26.294 35.1833 25.1613 35.1833C21.94 35.1833 19.3193 32.5621 19.3193 29.3413C19.3193 26.5794 21.2454 24.26 23.8246 23.6541C24.0533 23.6004 24.2158 23.398 24.2158 23.1632V15.8853C24.2158 15.5852 23.9554 15.3521 23.6569 15.3836C20.4762 15.7205 17.5289 17.1216 15.2357 19.4149C12.5902 22.0603 11.1077 25.6636 11.1242 29.4048C11.1406 33.1301 12.599 36.6306 15.2356 39.2671C17.8872 41.918 21.4124 43.3786 25.1614 43.3786C28.4102 43.3786 31.4897 42.2815 33.9791 40.2645Z" fill="#B82F05"/>
</g>
<path fill-rule="evenodd" clip-rule="evenodd" d="M37.7393 25.748H30.4585C30.2249 25.748 30.0226 25.5872 29.9684 25.3598C29.4576 23.2189 27.7653 21.5319 25.6215 21.0287C25.3933 20.9751 25.2314 20.7725 25.2314 20.5381V13.2601C25.2314 12.9595 25.4926 12.727 25.7914 12.7586C28.9717 13.0957 31.9186 14.4968 34.2123 16.7899C36.4994 19.0776 37.8996 22.0161 38.2407 25.1873C38.2728 25.4864 38.0401 25.748 37.7393 25.748ZM38.2465 28.1987C37.966 30.8853 36.9262 33.4061 35.2313 35.5076C35.0424 35.7417 34.6929 35.7622 34.4803 35.5495L30.4041 31.4734L29.3316 30.4008C29.1656 30.2349 29.1375 29.9772 29.2608 29.7775C29.5892 29.2459 29.8346 28.658 29.9791 28.0318C30.032 27.8024 30.2349 27.6393 30.4703 27.6393H37.7451C38.0453 27.6392 38.2777 27.9 38.2465 28.1987ZM33.1041 37.6395C33.3374 37.4505 33.3575 37.1017 33.1451 36.8893L27.9988 31.7433C27.8322 31.5766 27.5731 31.5489 27.3733 31.6739C26.477 32.234 25.419 32.5583 24.2863 32.5583C21.065 32.5583 18.4443 29.9371 18.4443 26.7163C18.4443 23.9544 20.3704 21.635 22.9496 21.0291C23.1783 20.9754 23.3408 20.773 23.3408 20.5382V13.2603C23.3408 12.9602 23.0804 12.7271 22.7819 12.7586C19.6012 13.0955 16.6539 14.4966 14.3607 16.7899C11.7152 19.4353 10.2327 23.0386 10.2492 26.7798C10.2656 30.5051 11.724 34.0056 14.3606 36.6421C17.0122 39.293 20.5374 40.7536 24.2864 40.7536C27.5352 40.7536 30.6147 39.6565 33.1041 37.6395Z" fill="white"/>
<path fill-rule="evenodd" clip-rule="evenodd" d="M28.9279 32.6628L27.8532 31.588C27.6865 31.4213 27.4275 31.3937 27.2277 31.5185C26.3314 32.0786 25.2733 32.403 24.1407 32.403C20.9193 32.403 18.2987 29.7818 18.2987 26.561C18.2987 23.7991 20.2248 21.4797 22.804 20.8737C23.0326 20.82 23.1951 20.6177 23.1951 20.3828V18.8807C19.3459 19.3411 16.3634 22.6225 16.3741 26.5979C16.3854 30.8917 19.8333 34.3292 24.1272 34.3283C25.9403 34.3279 27.6083 33.7051 28.9279 32.6628ZM25.124 20.3791V18.8807C28.6292 19.3138 31.4092 22.087 31.853 25.589H30.3512C30.1175 25.589 29.9152 25.4281 29.8611 25.2008C29.3503 23.0598 27.658 21.3728 25.5141 20.8697C25.2858 20.8161 25.124 20.6135 25.124 20.3791ZM31.8242 27.4841C31.6571 28.9182 31.0986 30.2326 30.2576 31.3182L29.1851 30.2456C29.0191 30.0796 28.991 29.822 29.1143 29.6222C29.4427 29.0907 29.6881 28.5028 29.8326 27.8766C29.8856 27.6472 30.0884 27.4841 30.3238 27.4841H31.8242Z" fill="#FFD0C1"/>
<defs>
<filter id="filter0_f_1009_2453" x="5.87402" y="10.1307" width="38.5005" height="38.4978" filterUnits="userSpaceOnUse" color-interpolation-filters="sRGB">
<feFlood flood-opacity="0" result="BackgroundImageFix"/>
<feBlend mode="normal" in="SourceGraphic" in2="BackgroundImageFix" result="shape"/>
<feGaussianBlur stdDeviation="2.625" result="effect1_foregroundBlur_1009_2453"/>
</filter>
<linearGradient id="paint0_linear_1009_2453" x1="24.2495" y1="-1" x2="24.2495" y2="55" gradientUnits="userSpaceOnUse">
<stop stop-color="#FFB29A"/>
<stop offset="1" stop-color="#FF6435"/>
</linearGradient>
</defs>
</svg>
