<svg width="49" height="54" viewBox="0 0 49 54" fill="none" xmlns="http://www.w3.org/2000/svg">
<path d="M18.9992 2.031C22.2479 0.155357 26.2505 0.155356 29.4992 2.031L43.2479 9.96882C46.4966 11.8445 48.4979 15.3108 48.4979 19.0621V34.9377C48.4979 38.689 46.4966 42.1554 43.2479 44.031L29.4992 51.9688C26.2505 53.8445 22.2479 53.8445 18.9992 51.9688L5.25049 44.031C2.00178 42.1554 0.000488281 38.689 0.000488281 34.9377V19.0621C0.000488281 15.3108 2.00178 11.8445 5.25049 9.96882L18.9992 2.031Z" fill="url(#paint0_linear_1009_2412)"/>
<g opacity="0.6" filter="url(#filter0_f_1009_2412)">
<path fill-rule="evenodd" clip-rule="evenodd" d="M23.7385 18.1881C21.2851 18.1881 19.2891 20.1841 19.2891 22.6376C19.2891 24.3018 20.2076 25.7553 21.5641 26.5184C22.2075 26.8803 22.9492 27.0871 23.7385 27.0871C24.5279 27.0871 25.2696 26.8803 25.913 26.5184C27.2696 25.7553 28.188 24.3018 28.188 22.6376C28.188 20.1842 26.192 18.1881 23.7385 18.1881ZM25.9518 29.0587H21.8231C19.9644 29.0587 18.4521 30.6211 18.4521 32.5415V34.4338V34.4769V36.1541C18.4521 37.8611 19.9644 39.2499 21.8231 39.2499H25.9518C27.8105 39.2499 29.3228 37.8611 29.3228 36.1541V34.4769V34.4338V32.5415C29.3228 30.6211 27.8105 29.0587 25.9518 29.0587ZM31.1836 30.831C31.1836 29.9523 31.8014 29.0587 32.68 29.0587H32.8533C34.8934 29.0587 36.5531 30.7185 36.5531 32.7585V33.5046V34.1246V34.8707C36.5531 36.9108 34.8934 38.5705 32.8533 38.5705H32.68C31.8014 38.5705 31.1836 37.6769 31.1836 36.7982V36.3445V35.6046V32.0246V31.2283V30.831ZM29.583 24.3043C29.583 22.4694 31.0757 20.9767 32.9106 20.9767C34.7455 20.9767 36.2383 22.4694 36.2383 24.3043C36.2383 26.1392 34.7455 27.6319 32.9106 27.6319C32.4452 27.6319 32.002 27.5355 31.5994 27.3622C30.9032 27.0626 30.3293 26.5321 29.9741 25.8675C29.7248 25.4011 29.583 24.8691 29.583 24.3043Z" fill="#B82F05"/>
</g>
<path fill-rule="evenodd" clip-rule="evenodd" d="M20.5806 14.7499C17.8158 14.7499 15.5665 16.9992 15.5665 19.764C15.5665 21.6394 16.6016 23.2773 18.1302 24.1372C18.8553 24.545 19.6911 24.7781 20.5806 24.7781C21.4701 24.7781 22.306 24.545 23.031 24.1372C24.5597 23.2773 25.5947 21.6393 25.5947 19.764C25.5947 16.9992 23.3454 14.7499 20.5806 14.7499ZM23.0753 26.9999H18.4228C16.3281 26.9999 14.624 28.7605 14.624 30.9246V33.057V33.1056V34.9956C14.624 36.9192 16.3281 38.4843 18.4228 38.4843H23.0753C25.1699 38.4843 26.874 36.9192 26.874 34.9956V33.1056V33.057V30.9246C26.874 28.7605 25.1699 26.9999 23.0753 26.9999ZM28.9711 28.997C28.9711 28.0069 29.6673 26.9999 30.6574 26.9999H30.8527C33.1516 26.9999 35.022 28.8702 35.0219 31.1691V32.0099V32.7086V33.5494C35.022 35.8483 33.1516 37.7186 30.8527 37.7186H30.6574C29.6673 37.7186 28.9711 36.7116 28.9711 35.7215V35.2102V34.3763V30.3422V29.4448V28.997ZM27.1671 21.6422C27.1671 19.5744 28.8493 17.8923 30.917 17.8923C32.9847 17.8923 34.6669 19.5744 34.6669 21.6422C34.6669 23.7099 32.9847 25.392 30.917 25.392C30.3925 25.392 29.893 25.2834 29.4393 25.0881C28.6549 24.7504 28.0081 24.1526 27.6078 23.4037C27.3269 22.8782 27.1671 22.2786 27.1671 21.6422Z" fill="white"/>
<defs>
<filter id="filter0_f_1009_2412" x="13.2021" y="12.9381" width="28.6011" height="31.5618" filterUnits="userSpaceOnUse" color-interpolation-filters="sRGB">
<feFlood flood-opacity="0" result="BackgroundImageFix"/>
<feBlend mode="normal" in="SourceGraphic" in2="BackgroundImageFix" result="shape"/>
<feGaussianBlur stdDeviation="2.625" result="effect1_foregroundBlur_1009_2412"/>
</filter>
<linearGradient id="paint0_linear_1009_2412" x1="24.2495" y1="-1" x2="24.2495" y2="55" gradientUnits="userSpaceOnUse">
<stop stop-color="#FFB29A"/>
<stop offset="1" stop-color="#FF6435"/>
</linearGradient>
</defs>
</svg>
