<svg width="49" height="54" viewBox="0 0 49 54" fill="none" xmlns="http://www.w3.org/2000/svg">
<path d="M18.9992 2.031C22.2479 0.155357 26.2505 0.155356 29.4992 2.031L43.2479 9.96882C46.4966 11.8445 48.4979 15.3108 48.4979 19.0621V34.9377C48.4979 38.689 46.4966 42.1554 43.2479 44.031L29.4992 51.9688C26.2505 53.8445 22.2479 53.8445 18.9992 51.9688L5.25049 44.031C2.00178 42.1554 0.000488281 38.689 0.000488281 34.9377V19.0621C0.000488281 15.3108 2.00178 11.8445 5.25049 9.96882L18.9992 2.031Z" fill="url(#paint0_linear_1009_2403)"/>
<mask id="mask0_1009_2403" style="mask-type:alpha" maskUnits="userSpaceOnUse" x="0" y="0" width="49" height="54">
<path d="M18.9992 2.031C22.2479 0.155357 26.2505 0.155356 29.4992 2.031L43.2479 9.96882C46.4966 11.8445 48.4979 15.3108 48.4979 19.0621V34.9377C48.4979 38.689 46.4966 42.1554 43.2479 44.031L29.4992 51.9688C26.2505 53.8445 22.2479 53.8445 18.9992 51.9688L5.25049 44.031C2.00178 42.1554 0.000488281 38.689 0.000488281 34.9377V19.0621C0.000488281 15.3108 2.00178 11.8445 5.25049 9.96882L18.9992 2.031Z" fill="url(#paint1_linear_1009_2403)"/>
</mask>
<g mask="url(#mask0_1009_2403)">
<g opacity="0.6" filter="url(#filter0_f_1009_2403)">
<path d="M25.5615 23.4999C23.3904 23.4999 21.624 25.3628 21.624 27.6527C21.624 29.9426 23.3904 31.8055 25.5615 31.8055C27.7327 31.8055 29.499 29.9426 29.499 27.6527C29.499 25.3628 27.7327 23.4999 25.5615 23.4999Z" fill="#B82F05"/>
<path d="M30.4605 34.5186C29.3825 33.3641 27.9535 32.7284 26.4365 32.7284H24.6865C23.1696 32.7284 21.7405 33.3641 20.6625 34.5186C19.5898 35.6673 18.999 37.1837 18.999 38.7885C18.999 39.0433 19.1949 39.2499 19.4365 39.2499H31.6865C31.9281 39.2499 32.124 39.0433 32.124 38.7885C32.124 37.1837 31.5333 35.6673 30.4605 34.5186Z" fill="#B82F05"/>
<path fill-rule="evenodd" clip-rule="evenodd" d="M25.6043 13.8749C17.607 13.8749 11.124 20.3802 11.124 28.405C11.124 36.4298 17.607 42.9352 25.6043 42.9352C33.6015 42.9352 40.0846 36.4298 40.0846 28.405C40.0846 20.3802 33.6015 13.8749 25.6043 13.8749ZM44.6522 47.3751C43.8465 48.1979 42.5211 48.2095 41.7012 47.4011L35.913 41.6939C37.0142 40.8326 38.0052 39.8364 38.8621 38.7302L44.6264 44.4139C45.4463 45.2223 45.458 46.5523 44.6522 47.3751ZM25.6043 17.9204C31.3749 17.9204 36.0528 22.6146 36.0528 28.405C36.0528 34.1954 31.3748 38.8895 25.6043 38.8895C19.8337 38.8895 15.1558 34.1954 15.1558 28.405C15.1558 22.6146 19.8338 17.9204 25.6043 17.9204Z" fill="#B82F05"/>
</g>
<path d="M24.249 20.8749C21.6437 20.8749 19.524 22.9448 19.524 25.4891C19.524 28.0334 21.6437 30.1034 24.249 30.1034C26.8544 30.1034 28.974 28.0334 28.974 25.4891C28.974 22.9448 26.8544 20.8749 24.249 20.8749Z" fill="#FFE2DA"/>
<path d="M24.249 20.8749C21.6437 20.8749 19.524 22.9448 19.524 25.4891C19.524 28.0334 21.6437 30.1034 24.249 30.1034C26.8544 30.1034 28.974 28.0334 28.974 25.4891C28.974 22.9448 26.8544 20.8749 24.249 20.8749Z" fill="url(#paint2_linear_1009_2403)"/>
<path d="M30.1278 33.1179C28.8342 31.8352 27.1193 31.1288 25.299 31.1288H23.199C21.3787 31.1288 19.6638 31.8352 18.3702 33.1179C17.0829 34.3943 16.374 36.0791 16.374 37.8622C16.374 38.1453 16.6091 38.3749 16.899 38.3749H31.599C31.889 38.3749 32.124 38.1453 32.124 37.8622C32.124 36.0791 31.4151 34.3943 30.1278 33.1179Z" fill="#FFE2DA"/>
<path d="M30.1278 33.1179C28.8342 31.8352 27.1193 31.1288 25.299 31.1288H23.199C21.3787 31.1288 19.6638 31.8352 18.3702 33.1179C17.0829 34.3943 16.374 36.0791 16.374 37.8622C16.374 38.1453 16.6091 38.3749 16.899 38.3749H31.599C31.889 38.3749 32.124 38.1453 32.124 37.8622C32.124 36.0791 31.4151 34.3943 30.1278 33.1179Z" fill="url(#paint3_linear_1009_2403)"/>
<path fill-rule="evenodd" clip-rule="evenodd" d="M23.8543 12.9999C15.857 12.9999 9.37402 19.5052 9.37402 27.53C9.37402 35.5548 15.857 42.0602 23.8543 42.0602C31.8515 42.0602 38.3346 35.5548 38.3346 27.53C38.3346 19.5052 31.8515 12.9999 23.8543 12.9999ZM42.9022 46.5001C42.0965 47.3229 40.7711 47.3345 39.9512 46.5261L34.163 40.8189C35.2642 39.9576 36.2552 38.9614 37.1121 37.8552L42.8764 43.5389C43.6963 44.3473 43.708 45.6773 42.9022 46.5001ZM23.8543 17.0454C29.6249 17.0454 34.3028 21.7396 34.3028 27.53C34.3028 33.3204 29.6248 38.0145 23.8543 38.0145C18.0837 38.0145 13.4058 33.3204 13.4058 27.53C13.4058 21.7396 18.0838 17.0454 23.8543 17.0454Z" fill="white"/>
</g>
<defs>
<filter id="filter0_f_1009_2403" x="5.87402" y="8.62488" width="44.625" height="44.625" filterUnits="userSpaceOnUse" color-interpolation-filters="sRGB">
<feFlood flood-opacity="0" result="BackgroundImageFix"/>
<feBlend mode="normal" in="SourceGraphic" in2="BackgroundImageFix" result="shape"/>
<feGaussianBlur stdDeviation="2.625" result="effect1_foregroundBlur_1009_2403"/>
</filter>
<linearGradient id="paint0_linear_1009_2403" x1="24.2495" y1="-1" x2="24.2495" y2="55" gradientUnits="userSpaceOnUse">
<stop stop-color="#FFB29A"/>
<stop offset="1" stop-color="#FF6435"/>
</linearGradient>
<linearGradient id="paint1_linear_1009_2403" x1="24.2495" y1="-1" x2="24.2495" y2="55" gradientUnits="userSpaceOnUse">
<stop stop-color="#FFB29A"/>
<stop offset="1" stop-color="#FF6435"/>
</linearGradient>
<linearGradient id="paint2_linear_1009_2403" x1="24.249" y1="20.8749" x2="24.249" y2="35.0095" gradientUnits="userSpaceOnUse">
<stop stop-color="white"/>
<stop offset="1" stop-color="#FDCBBC"/>
</linearGradient>
<linearGradient id="paint3_linear_1009_2403" x1="24.249" y1="20.8749" x2="24.249" y2="35.0095" gradientUnits="userSpaceOnUse">
<stop stop-color="white"/>
<stop offset="1" stop-color="#FDCBBC"/>
</linearGradient>
</defs>
</svg>
