<svg width="49" height="54" viewBox="0 0 49 54" fill="none" xmlns="http://www.w3.org/2000/svg">
<path d="M18.9992 2.031C22.2479 0.155357 26.2505 0.155356 29.4992 2.031L43.2479 9.96882C46.4966 11.8445 48.4979 15.3108 48.4979 19.0621V34.9377C48.4979 38.689 46.4966 42.1554 43.2479 44.031L29.4992 51.9688C26.2505 53.8445 22.2479 53.8445 18.9992 51.9688L5.25049 44.031C2.00178 42.1554 0.000488281 38.689 0.000488281 34.9377V19.0621C0.000488281 15.3108 2.00178 11.8445 5.25049 9.96882L18.9992 2.031Z" fill="url(#paint0_linear_1009_2431)"/>
<g opacity="0.6" filter="url(#filter0_f_1009_2431)">
<path d="M32.3969 39.598C32.5568 39.7606 32.735 39.9041 32.928 40.0254C30.1208 41.7333 26.7618 42.2862 23.556 41.5682C23.4123 41.5387 23.2764 41.4792 23.1573 41.3935C23.0382 41.3078 22.9385 41.1979 22.8647 41.0709C22.791 40.944 22.7449 40.8028 22.7294 40.6568C22.714 40.5107 22.7295 40.3631 22.775 40.2235C22.8243 40.0582 22.9138 39.9078 23.0354 39.7857C23.1576 39.6673 23.3069 39.5807 23.4703 39.5335C23.6337 39.4862 23.8061 39.4798 23.9726 39.5146C26.5883 40.1135 29.3335 39.7002 31.6576 38.3575C31.8003 38.8248 32.054 39.2504 32.3969 39.598Z" fill="#B82F05"/>
<path d="M37.1977 22.4083C38.9606 25.2271 39.5441 28.6273 38.8222 31.8735C38.7913 32.0152 38.7313 32.149 38.6458 32.2661C38.5604 32.3833 38.4514 32.4813 38.326 32.5539C38.2005 32.6265 38.0613 32.6721 37.9172 32.6878C37.7732 32.7034 37.6274 32.6888 37.4893 32.6449C37.2367 32.576 37.0192 32.4144 36.8803 32.1923C36.7413 31.9701 36.6911 31.7037 36.7395 31.4461C37.321 28.8737 36.9277 26.1767 35.6357 23.8781C36.0258 23.7314 36.3806 23.5041 36.6771 23.211C36.895 22.975 37.071 22.7036 37.1977 22.4083Z" fill="#B82F05"/>
<path d="M29.8779 17.9573C29.8286 18.1226 29.7392 18.273 29.6175 18.3951C29.4953 18.5135 29.346 18.6001 29.1826 18.6473C29.0192 18.6946 28.8468 18.701 28.6803 18.6662C26.1106 18.0841 23.4165 18.4778 21.1203 19.7711C20.9737 19.3807 20.7466 19.0255 20.4538 18.7287C20.2276 18.4977 19.9635 18.3073 19.6729 18.1658C22.4873 16.4269 25.8693 15.8582 29.0969 16.5813C29.2443 16.61 29.3837 16.6703 29.5057 16.7581C29.6276 16.8458 29.7292 16.9589 29.8034 17.0896C29.8776 17.2203 29.9226 17.3655 29.9355 17.5153C29.9483 17.6651 29.9287 17.8159 29.8779 17.9573Z" fill="#B82F05"/>
<path d="M15.6423 25.7963C15.7605 25.9187 15.847 26.0682 15.8942 26.2317C15.9414 26.3953 15.9479 26.5679 15.9131 26.7345C15.3316 29.3069 15.7249 32.0039 17.0169 34.3025C16.6268 34.4492 16.272 34.6765 15.9755 34.9696C15.7448 35.1961 15.5546 35.4605 15.4132 35.7514C13.6761 32.934 13.1081 29.5484 13.8304 26.3175C13.8598 26.1737 13.9193 26.0376 14.0049 25.9184C14.0905 25.7991 14.2003 25.6993 14.3272 25.6255C14.454 25.5517 14.595 25.5055 14.7409 25.4901C14.8867 25.4746 15.0342 25.4901 15.1737 25.5357C15.35 25.5802 15.5115 25.67 15.6423 25.7963Z" fill="#B82F05"/>
<path d="M34.6048 41.5994C33.8148 41.5964 33.042 41.3687 32.3764 40.9426C32.1232 40.7822 31.8891 40.5933 31.6787 40.3797C31.2011 39.9169 30.8436 39.3444 30.6374 38.7119C30.367 37.8744 30.3683 36.9728 30.6411 36.1361C30.9138 35.2995 31.444 34.5706 32.1558 34.054C32.8675 33.5374 33.7243 33.2594 34.6035 33.26C35.4827 33.2606 36.3391 33.5396 37.0502 34.0571C37.7614 34.5747 38.2906 35.3042 38.5623 36.1412C38.834 36.9782 38.8341 37.8798 38.5627 38.7169C38.2913 39.554 37.7622 40.2837 37.0513 40.8015C36.3404 41.3192 35.484 41.5985 34.6048 41.5994ZM34.6048 35.3448C34.2773 35.3456 33.9546 35.4237 33.6629 35.5727C33.3712 35.7218 33.1187 35.9376 32.926 36.2027C32.7332 36.4677 32.6056 36.7746 32.5536 37.0982C32.5015 37.4219 32.5264 37.7533 32.6263 38.0656C32.7211 38.3838 32.8928 38.6738 33.1261 38.9099C33.2295 39.0167 33.3448 39.1111 33.4698 39.1914C33.7402 39.3622 34.0462 39.4684 34.3642 39.5018C34.6822 39.5352 35.0036 39.4948 35.3035 39.3838C35.6033 39.2728 35.8737 39.0942 36.0935 38.8619C36.3134 38.6295 36.4768 38.3495 36.5712 38.0437C36.6656 37.7379 36.6883 37.4145 36.6378 37.0984C36.5872 36.7824 36.4646 36.4823 36.2795 36.2213C36.0944 35.9603 35.8517 35.7455 35.5703 35.5935C35.289 35.4416 34.9764 35.3565 34.6569 35.3448H34.6048Z" fill="#B82F05"/>
<path d="M18.2243 25.15C17.5931 25.1505 16.9701 25.0074 16.4023 24.7315C15.8344 24.4557 15.3366 24.0542 14.9465 23.5575C14.5564 23.0608 14.2841 22.4818 14.1503 21.8643C14.0165 21.2468 14.0247 20.6069 14.1741 19.9931C14.3236 19.3792 14.6104 18.8073 15.013 18.3207C15.4156 17.8341 15.9235 17.4454 16.4981 17.1841C17.0728 16.9227 17.6993 16.7955 18.3303 16.8121C18.9612 16.8287 19.5802 16.9886 20.1404 17.2798C20.5279 17.4683 20.8801 17.7222 21.1817 18.0303C21.5694 18.4162 21.8742 18.8773 22.0773 19.3854C22.4036 20.145 22.4927 20.9856 22.3328 21.7968C22.173 22.608 21.7717 23.3518 21.1817 23.9304C20.7934 24.3187 20.3322 24.6264 19.8246 24.8357C19.3171 25.045 18.7732 25.1518 18.2243 25.15ZM18.2243 18.8955C17.678 18.8978 17.1544 19.1149 16.7665 19.5001C16.5728 19.6937 16.4192 19.9237 16.3144 20.1768C16.2096 20.4299 16.1557 20.7012 16.1557 20.9751C16.1557 21.2491 16.2096 21.5204 16.3144 21.7735C16.4192 22.0266 16.5728 22.2565 16.7665 22.4502C16.9599 22.644 17.1896 22.7978 17.4424 22.9027C17.6953 23.0076 17.9663 23.0616 18.24 23.0616C18.5136 23.0616 18.7847 23.0076 19.0375 22.9027C19.2903 22.7978 19.52 22.644 19.7134 22.4502C20.0021 22.159 20.1985 21.7891 20.2782 21.3867C20.3578 20.9844 20.3171 20.5674 20.1612 20.1881C20.0613 19.9301 19.9088 19.6958 19.7134 19.5001C19.5714 19.3552 19.4059 19.2354 19.224 19.1457C18.9086 18.9833 18.5582 18.901 18.2035 18.9059L18.2243 18.8955Z" fill="#B82F05"/>
<path d="M18.2245 41.3699C17.5104 41.3679 16.8089 41.1821 16.1873 40.8304C15.5656 40.4787 15.0447 39.973 14.6746 39.3617C14.3045 38.7504 14.0975 38.0542 14.0736 37.3398C14.0497 36.6254 14.2097 35.9169 14.5382 35.2822C14.7267 34.8944 14.9803 34.5418 15.2879 34.2398C15.6734 33.8517 16.1341 33.5466 16.6416 33.3433C17.4004 33.0166 18.2401 32.9274 19.0505 33.0875C19.8608 33.2475 20.6038 33.6492 21.1818 34.2398C21.765 34.8229 22.1622 35.5662 22.3232 36.3755C22.4842 37.1847 22.4017 38.0236 22.0862 38.7859C21.7707 39.5483 21.2363 40.1997 20.5507 40.6578C19.8651 41.116 19.0592 41.3602 18.2349 41.3595L18.2245 41.3699ZM18.2245 35.1154C17.6686 35.1264 17.1372 35.3459 16.7354 35.7304C16.5908 35.8728 16.4711 36.0384 16.3813 36.2204C16.1687 36.6142 16.0883 37.066 16.1521 37.509C16.2158 37.9521 16.4203 38.3628 16.7354 38.6805C16.9288 38.8743 17.1585 39.0281 17.4113 39.133C17.6641 39.2379 17.9351 39.292 18.2088 39.292C18.4825 39.292 18.7535 39.2379 19.0064 39.133C19.2592 39.0281 19.4889 38.8743 19.6823 38.6805C19.8759 38.4869 20.0296 38.2569 20.1344 38.0038C20.2392 37.7507 20.2931 37.4795 20.2931 37.2055C20.2931 36.9315 20.2392 36.6602 20.1344 36.4071C20.0296 36.154 19.8759 35.9241 19.6823 35.7304C19.3029 35.3426 18.7874 35.1183 18.2453 35.105L18.2245 35.1154Z" fill="#B82F05"/>
<path d="M34.4175 25.1604C33.7342 25.1565 33.0625 24.9843 32.4614 24.6591C31.8603 24.334 31.3484 23.8658 30.9707 23.2958C30.593 22.7259 30.3611 22.0717 30.2956 21.3909C30.23 20.7101 30.3328 20.0236 30.5948 19.3919C30.8568 18.7603 31.27 18.2028 31.798 17.7687C32.3259 17.3346 32.9525 17.0372 33.6224 16.9026C34.2923 16.7681 34.9849 16.8006 35.6393 16.9972C36.2937 17.1939 36.8897 17.5487 37.3748 18.0303C38 18.6569 38.4097 19.4664 38.5445 20.3417C38.6793 21.2169 38.5322 22.1124 38.1246 22.8984C37.9358 23.2861 37.6823 23.6387 37.3748 23.9408C36.5816 24.713 35.5238 25.153 34.4175 25.1709V25.1604ZM34.4175 18.9059C34.0068 18.9077 33.6059 19.0309 33.265 19.2601C32.9241 19.4893 32.6585 19.8142 32.5016 20.1941C32.3447 20.574 32.3034 20.9918 32.3831 21.3951C32.4627 21.7984 32.6597 22.1691 32.9492 22.4606C33.24 22.7495 33.6095 22.9462 34.0115 23.0259C34.4134 23.1057 34.8299 23.0649 35.2089 22.9088C35.4631 22.8081 35.6937 22.6554 35.8857 22.4606C36.0303 22.3183 36.15 22.1526 36.2398 21.9706C36.4524 21.5769 36.5328 21.125 36.469 20.682C36.4053 20.239 36.2007 19.8282 35.8857 19.5105C35.4995 19.1216 34.9757 18.9006 34.4279 18.8955L34.4175 18.9059Z" fill="#B82F05"/>
</g>
<path d="M29.9965 37.1979C30.1564 37.3605 30.3346 37.5039 30.5276 37.6253C27.7204 39.3331 24.3614 39.8861 21.1557 39.168C21.0119 39.1386 20.876 39.0791 20.7569 38.9934C20.6378 38.9077 20.5381 38.7977 20.4643 38.6708C20.3906 38.5438 20.3445 38.4027 20.329 38.2566C20.3136 38.1106 20.3291 37.9629 20.3747 37.8233C20.4239 37.6581 20.5134 37.5076 20.635 37.3855C20.7572 37.2672 20.9065 37.1806 21.0699 37.1333C21.2333 37.0861 21.4057 37.0796 21.5722 37.1145C24.1879 37.7134 26.9332 37.3001 29.2572 35.9574C29.3999 36.4246 29.6536 36.8503 29.9965 37.1979Z" fill="white" stroke="white" stroke-width="0.875"/>
<path d="M34.7973 20.0082C36.5602 22.827 37.1437 26.2272 36.4218 29.4733C36.3909 29.6151 36.3309 29.7488 36.2454 29.866C36.16 29.9831 36.051 30.0812 35.9256 30.1538C35.8001 30.2264 35.6609 30.272 35.5168 30.2876C35.3728 30.3033 35.227 30.2887 35.0889 30.2447C34.8363 30.1759 34.6188 30.0143 34.4799 29.7921C34.3409 29.5699 34.2907 29.3035 34.3392 29.046C34.9207 26.4735 34.5273 23.7766 33.2354 21.478C33.6254 21.3313 33.9802 21.1039 34.2767 20.8108C34.4946 20.5749 34.6707 20.3034 34.7973 20.0082Z" fill="white" stroke="white" stroke-width="0.875"/>
<path d="M27.4775 15.5572C27.4282 15.7224 27.3388 15.8729 27.2171 15.995C27.0949 16.1133 26.9456 16.1999 26.7822 16.2472C26.6188 16.2944 26.4464 16.3009 26.2799 16.266C23.7102 15.6839 21.0161 16.0777 18.7199 17.371C18.5733 16.9805 18.3462 16.6254 18.0535 16.3286C17.8272 16.0976 17.5631 15.9071 17.2725 15.7657C20.0869 14.0267 23.4689 13.4581 26.6965 14.1812C26.8439 14.2099 26.9833 14.2702 27.1053 14.3579C27.2272 14.4456 27.3288 14.5587 27.403 14.6894C27.4772 14.8202 27.5222 14.9654 27.5351 15.1151C27.5479 15.2649 27.5283 15.4157 27.4775 15.5572Z" fill="white" stroke="white" stroke-width="0.875"/>
<path d="M13.2419 23.3962C13.3601 23.5185 13.4466 23.668 13.4938 23.8316C13.541 23.9951 13.5475 24.1677 13.5127 24.3344C12.9312 26.9068 13.3245 29.6037 14.6165 31.9023C14.2264 32.0491 13.8716 32.2764 13.5751 32.5695C13.3444 32.7959 13.1542 33.0604 13.0128 33.3513C11.2757 30.5339 10.7077 27.1483 11.43 23.9174C11.4594 23.7735 11.5189 23.6375 11.6045 23.5182C11.6901 23.399 11.7999 23.2992 11.9268 23.2253C12.0536 23.1515 12.1946 23.1054 12.3405 23.0899C12.4864 23.0744 12.6339 23.09 12.7733 23.1356C12.9496 23.18 13.1111 23.2699 13.2419 23.3962Z" fill="white" stroke="white" stroke-width="0.875"/>
<path d="M32.2044 39.1992C31.4144 39.1963 30.6416 38.9685 29.976 38.5425C29.7228 38.3821 29.4887 38.1932 29.2783 37.9796C28.8007 37.5168 28.4433 36.9443 28.237 36.3117C27.9666 35.4743 27.9679 34.5727 28.2407 33.736C28.5134 32.8993 29.0436 32.1705 29.7554 31.6539C30.4672 31.1372 31.324 30.8593 32.2031 30.8599C33.0823 30.8604 33.9388 31.1395 34.6499 31.657C35.361 32.1745 35.8902 32.904 36.1619 33.7411C36.4336 34.5781 36.4337 35.4797 36.1623 36.3168C35.8909 37.1539 35.3618 37.8836 34.6509 38.4013C33.94 38.9191 33.0836 39.1984 32.2044 39.1992ZM32.2044 32.9447C31.8769 32.9455 31.5542 33.0236 31.2625 33.1726C30.9708 33.3216 30.7183 33.5375 30.5256 33.8025C30.3328 34.0676 30.2052 34.3744 30.1532 34.6981C30.1011 35.0218 30.126 35.3532 30.2259 35.6654C30.3207 35.9837 30.4924 36.2737 30.7257 36.5098C30.8291 36.6165 30.9444 36.711 31.0694 36.7912C31.3398 36.9621 31.6458 37.0683 31.9638 37.1016C32.2818 37.135 32.6032 37.0947 32.9031 36.9837C33.203 36.8727 33.4733 36.6941 33.6931 36.4617C33.913 36.2293 34.0764 35.9494 34.1708 35.6436C34.2652 35.3378 34.288 35.0143 34.2374 34.6983C34.1868 34.3823 34.0642 34.0821 33.8791 33.8212C33.694 33.5602 33.4513 33.3454 33.17 33.1934C32.8886 33.0414 32.576 32.9563 32.2565 32.9447H32.2044Z" fill="white" stroke="white" stroke-width="0.875"/>
<path d="M15.8239 22.7499C15.1928 22.7504 14.5697 22.6073 14.0019 22.3314C13.434 22.0555 12.9362 21.654 12.5461 21.1573C12.156 20.6606 11.8838 20.0816 11.7499 19.4641C11.6161 18.8467 11.6243 18.2068 11.7737 17.5929C11.9232 16.979 12.21 16.4072 12.6126 15.9205C13.0153 15.4339 13.5231 15.0453 14.0977 14.7839C14.6724 14.5226 15.2989 14.3954 15.9299 14.412C16.5608 14.4285 17.1798 14.5884 17.74 14.8796C18.1275 15.0682 18.4797 15.3221 18.7813 15.6302C19.169 16.016 19.4738 16.4772 19.6769 16.9853C20.0032 17.7448 20.0923 18.5855 19.9324 19.3967C19.7726 20.2078 19.3713 20.9516 18.7813 21.5302C18.393 21.9186 17.9318 22.2262 17.4242 22.4355C16.9167 22.6449 16.3729 22.7517 15.8239 22.7499ZM15.8239 16.4954C15.2776 16.4977 14.754 16.7148 14.3661 17.1C14.1724 17.2936 14.0188 17.5235 13.914 17.7766C13.8092 18.0297 13.7553 18.301 13.7553 18.575C13.7553 18.849 13.8092 19.1203 13.914 19.3734C14.0188 19.6265 14.1724 19.8564 14.3661 20.05C14.5595 20.2439 14.7892 20.3976 15.042 20.5025C15.2949 20.6075 15.5659 20.6615 15.8396 20.6615C16.1133 20.6615 16.3843 20.6075 16.6371 20.5025C16.8899 20.3976 17.1196 20.2439 17.313 20.05C17.6017 19.7589 17.7981 19.389 17.8778 18.9866C17.9574 18.5842 17.9168 18.1673 17.7608 17.788C17.6609 17.53 17.5084 17.2957 17.313 17.1C17.171 16.9551 17.0055 16.8353 16.8236 16.7455C16.5082 16.5832 16.1578 16.5009 15.8031 16.5058L15.8239 16.4954Z" fill="white" stroke="white" stroke-width="0.875"/>
<path d="M15.8241 38.9698C15.11 38.9677 14.4085 38.7819 13.7869 38.4302C13.1652 38.0786 12.6443 37.5728 12.2742 36.9616C11.9041 36.3503 11.6971 35.6541 11.6732 34.9397C11.6493 34.2253 11.8093 33.5167 12.1378 32.8821C12.3263 32.4942 12.5799 32.1417 12.8875 31.8396C13.273 31.4515 13.7337 31.1465 14.2412 30.9432C15 30.6165 15.8397 30.5273 16.6501 30.6873C17.4604 30.8473 18.2034 31.249 18.7814 31.8396C19.3646 32.4228 19.7619 33.1661 19.9228 33.9753C20.0838 34.7846 20.0013 35.6235 19.6858 36.3858C19.3703 37.1481 18.8359 37.7996 18.1503 38.2577C17.4647 38.7158 16.6588 38.96 15.8345 38.9594L15.8241 38.9698ZM15.8241 32.7153C15.2682 32.7262 14.7368 32.9457 14.335 33.3303C14.1904 33.4726 14.0707 33.6382 13.9809 33.8202C13.7683 34.214 13.6879 34.6658 13.7517 35.1089C13.8154 35.5519 14.0199 35.9627 14.335 36.2803C14.5284 36.4742 14.7581 36.628 15.0109 36.7329C15.2637 36.8378 15.5347 36.8918 15.8084 36.8918C16.0821 36.8918 16.3531 36.8378 16.606 36.7329C16.8588 36.628 17.0885 36.4742 17.2819 36.2803C17.4756 36.0867 17.6292 35.8568 17.734 35.6037C17.8388 35.3506 17.8927 35.0793 17.8927 34.8053C17.8927 34.5313 17.8388 34.2601 17.734 34.007C17.6292 33.7539 17.4756 33.5239 17.2819 33.3303C16.9025 32.9425 16.387 32.7181 15.8449 32.7049L15.8241 32.7153Z" fill="white" stroke="white" stroke-width="0.875"/>
<path d="M32.0171 22.7603C31.3338 22.7563 30.6621 22.5842 30.061 22.259C29.4599 21.9338 28.948 21.4656 28.5703 20.8957C28.1926 20.3257 27.9607 19.6715 27.8952 18.9907C27.8296 18.3099 27.9324 17.6234 28.1944 16.9918C28.4564 16.3601 28.8696 15.8026 29.3976 15.3685C29.9255 14.9344 30.5521 14.637 31.222 14.5025C31.8919 14.3679 32.5845 14.4004 33.2389 14.5971C33.8933 14.7937 34.4893 15.1485 34.9744 15.6302C35.5996 16.2567 36.0093 17.0663 36.1441 17.9415C36.2789 18.8168 36.1318 19.7123 35.7242 20.4983C35.5354 20.886 35.2819 21.2385 34.9744 21.5407C34.1812 22.3129 33.1234 22.7529 32.0171 22.7707V22.7603ZM32.0171 16.5058C31.6064 16.5075 31.2055 16.6307 30.8646 16.8599C30.5237 17.0891 30.2581 17.4141 30.1012 17.794C29.9443 18.1738 29.9031 18.5917 29.9827 18.9949C30.0623 19.3982 30.2593 19.7689 30.5488 20.0604C30.8396 20.3494 31.2091 20.546 31.6111 20.6258C32.013 20.7055 32.4295 20.6648 32.8085 20.5087C33.0628 20.408 33.2933 20.2553 33.4853 20.0604C33.6299 19.9181 33.7496 19.7525 33.8394 19.5705C34.052 19.1767 34.1324 18.7249 34.0686 18.2819C34.0049 17.8388 33.8004 17.4281 33.4853 17.1104C33.0991 16.7214 32.5753 16.5004 32.0275 16.4954L32.0171 16.5058Z" fill="white" stroke="white" stroke-width="0.875"/>
<defs>
<filter id="filter0_f_1009_2431" x="8.27441" y="11.025" width="36.1001" height="36.1001" filterUnits="userSpaceOnUse" color-interpolation-filters="sRGB">
<feFlood flood-opacity="0" result="BackgroundImageFix"/>
<feBlend mode="normal" in="SourceGraphic" in2="BackgroundImageFix" result="shape"/>
<feGaussianBlur stdDeviation="2.625" result="effect1_foregroundBlur_1009_2431"/>
</filter>
<linearGradient id="paint0_linear_1009_2431" x1="24.2495" y1="-1" x2="24.2495" y2="55" gradientUnits="userSpaceOnUse">
<stop stop-color="#FFB29A"/>
<stop offset="1" stop-color="#FF6435"/>
</linearGradient>
</defs>
</svg>
