<svg width="44" height="44" viewBox="0 0 44 44" fill="none" xmlns="http://www.w3.org/2000/svg">
<mask id="mask0_1_2035" style="mask-type:alpha" maskUnits="userSpaceOnUse" x="0" y="0" width="44" height="44">
<circle cx="22" cy="22" r="22" fill="#FF6435"/>
</mask>
<g mask="url(#mask0_1_2035)">
<path d="M22.4091 7C16.9803 7 12.5636 11.4948 12.5636 17.0195C12.5636 22.5443 16.9803 27.0391 22.4091 27.0391C27.8379 27.0391 32.2545 22.5443 32.2545 17.0195C32.2545 11.4948 27.8379 7 22.4091 7Z" fill="white"/>
<path d="M22.4091 7C16.9803 7 12.5636 11.4948 12.5636 17.0195C12.5636 22.5443 16.9803 27.0391 22.4091 27.0391C27.8379 27.0391 32.2545 22.5443 32.2545 17.0195C32.2545 11.4948 27.8379 7 22.4091 7Z" fill="url(#paint0_linear_1_2035)"/>
<path d="M34.6587 33.5848C31.9633 30.7995 28.39 29.2656 24.597 29.2656H20.2212C16.4283 29.2656 12.8549 30.7995 10.1594 33.5848C7.47718 36.3564 6 40.0149 6 43.8867C6 44.5015 6.48979 45 7.09394 45H37.7242C38.3284 45 38.8182 44.5015 38.8182 43.8867C38.8182 40.0149 37.341 36.3564 34.6587 33.5848Z" fill="white"/>
<path d="M34.6587 33.5848C31.9633 30.7995 28.39 29.2656 24.597 29.2656H20.2212C16.4283 29.2656 12.8549 30.7995 10.1594 33.5848C7.47718 36.3564 6 40.0149 6 43.8867C6 44.5015 6.48979 45 7.09394 45H37.7242C38.3284 45 38.8182 44.5015 38.8182 43.8867C38.8182 40.0149 37.341 36.3564 34.6587 33.5848Z" fill="url(#paint1_linear_1_2035)"/>
</g>
<defs>
<linearGradient id="paint0_linear_1_2035" x1="22.4091" y1="7" x2="22.4091" y2="37.6923" gradientUnits="userSpaceOnUse">
<stop stop-color="white"/>
<stop offset="1" stop-color="#E9CEFF"/>
</linearGradient>
<linearGradient id="paint1_linear_1_2035" x1="22.4091" y1="7" x2="22.4091" y2="37.6923" gradientUnits="userSpaceOnUse">
<stop stop-color="white"/>
<stop offset="1" stop-color="#E9CEFF"/>
</linearGradient>
</defs>
</svg>
