<svg width="44" height="44" viewBox="0 0 44 44" fill="none" xmlns="http://www.w3.org/2000/svg">
<circle cx="22" cy="22" r="22" fill="#8D4AFF"/>
<mask id="mask0_1_2050" style="mask-type:alpha" maskUnits="userSpaceOnUse" x="0" y="0" width="44" height="44">
<circle cx="22" cy="22" r="22" fill="#FF6435"/>
</mask>
<g mask="url(#mask0_1_2050)">
<ellipse cx="27.4615" cy="27.801" rx="20.4615" ry="20.065" fill="#FF6435"/>
<ellipse cx="27.4615" cy="27.801" rx="20.4615" ry="20.065" fill="url(#paint0_linear_1_2050)"/>
<ellipse cx="27.4619" cy="27.8009" rx="15.3461" ry="15.0487" fill="url(#paint1_angular_1_2050)"/>
<g filter="url(#filter0_f_1_2050)">
<path d="M24.4198 25.0594V27.8404H29.0472C30.3921 27.8404 31.3951 28.3191 31.6914 29.4361H24.4198V31.1229H31.6914C31.3951 32.2171 30.3921 32.7186 29.0472 32.7186H24.4198V35.4995H28.067L32.2157 41.2439H35.9541L31.5546 35.226C33.5834 34.6789 34.9739 33.2884 35.2018 31.1229H37.0254V29.4361H35.2018C35.0423 28.5243 34.6092 27.7492 33.8797 27.1566H37.0254V25.0594H24.4198Z" fill="#280563"/>
</g>
<path d="M24.327 30.9284C23.7723 30.9284 23.2784 30.917 22.8453 30.8942C22.4198 30.8638 21.9943 30.8258 21.5688 30.7802V28.6603C21.8803 28.6907 22.1653 28.7173 22.4236 28.7401C22.6896 28.7553 22.9631 28.7705 23.2442 28.7857C23.533 28.7933 23.8635 28.7971 24.2358 28.7971C25.8011 28.7971 26.9408 28.5425 27.6551 28.0334C28.3769 27.5244 28.7378 26.6885 28.7378 25.526C28.7378 24.751 28.5859 24.1279 28.2819 23.6568C27.9856 23.1857 27.5259 22.8476 26.9028 22.6424C26.2874 22.4297 25.4933 22.3233 24.5208 22.3233V21.2063C26.1316 21.2063 27.4537 21.3773 28.4871 21.7192C29.5205 22.0535 30.2841 22.5626 30.778 23.2465C31.2795 23.9303 31.5302 24.7965 31.5302 25.8451C31.5302 26.9393 31.2491 27.8663 30.6868 28.6261C30.1245 29.3783 29.3077 29.952 28.2363 30.3471C27.165 30.7347 25.8619 30.9284 24.327 30.9284ZM29.5927 37.3452L24.0307 30.0508L26.9712 29.5265L32.9777 37.3452H29.5927ZM21.5688 26.2212V24.3862H33.6046V26.2212H21.5688ZM21.5688 22.3233V20.4769H33.6046V22.3233H21.5688Z" fill="white"/>
</g>
<defs>
<filter id="filter0_f_1_2050" x="14.2887" y="14.9282" width="32.8679" height="36.4468" filterUnits="userSpaceOnUse" color-interpolation-filters="sRGB">
<feFlood flood-opacity="0" result="BackgroundImageFix"/>
<feBlend mode="normal" in="SourceGraphic" in2="BackgroundImageFix" result="shape"/>
<feGaussianBlur stdDeviation="5.06556" result="effect1_foregroundBlur_1_2050"/>
</filter>
<linearGradient id="paint0_linear_1_2050" x1="27.4615" y1="7.73608" x2="27.4615" y2="40.1487" gradientUnits="userSpaceOnUse">
<stop stop-color="white"/>
<stop offset="1" stop-color="#E8CBFF"/>
</linearGradient>
<radialGradient id="paint1_angular_1_2050" cx="0" cy="0" r="1" gradientUnits="userSpaceOnUse" gradientTransform="translate(27.4619 24.9069) rotate(-17.2447) scale(40.4687 41.2684)">
<stop offset="0.406246" stop-color="#9225FF"/>
<stop offset="1" stop-color="#BC67FF"/>
</radialGradient>
</defs>
</svg>
