<svg fill="none" height="18" viewBox="0 0 18 18" width="18" xmlns="http://www.w3.org/2000/svg"><g fill="#fff"><path d="m13.9091 0h-9.81819c-2.25573 0-4.09091 1.83518-4.09091 4.09091v6.54549c0 1.9751 1.40809 3.6278 3.27273 4.0082v2.5372c0 .3019.16609.5793.432.7217.12109.0646.25363.0965.38618.0965.15873 0 .31664-.0466.45409-.1375l4.70291-3.1352h4.66119c2.2557 0 4.0909-1.8352 4.0909-4.0909v-6.54549c0-2.25573-1.8352-4.09091-4.0909-4.09091zm-5.36319 13.2284-3.63682 2.4242v-1.7435c0-.4516-.36654-.8182-.81818-.8182-1.35327 0-2.45455-1.1013-2.45455-2.4545v-6.54549c0-1.35327 1.10128-2.45455 2.45455-2.45455h9.81819c1.3533 0 2.4545 1.10128 2.4545 2.45455v6.54549c0 1.3532-1.1012 2.4545-2.4545 2.4545h-4.9091c-.05727-.0008-.13909.0049-.23236.0327-.09819.0287-.17264.0712-.22173.1048z"/><path d="m13.9093 4.90912h-9.81817c-.45164 0-.81818.36654-.81818.81818s.36654.81818.81818.81818h9.81817c.4517 0 .8182-.36654.8182-.81818s-.3665-.81818-.8182-.81818z"/><path d="m12.2728 8.18182h-6.54544c-.45163 0-.81818.36655-.81818.81819 0 .45163.36655.81818.81818.81818h6.54544c.4517 0 .8182-.36655.8182-.81818 0-.45164-.3665-.81819-.8182-.81819z"/></g></svg>