<svg width="157" height="11" viewBox="0 0 157 11" fill="none" xmlns="http://www.w3.org/2000/svg">
<path d="M17.3027 3.81102C14.5634 3.88544 11.8241 3.87177 9.07558 3.85659C7.47382 3.85659 6.1179 3.55891 4.58257 3.041C3.30299 2.61119 1.80583 4.38967 0.639252 5.02604C-0.251724 5.4999 -0.194458 8.69995 0.705673 9.11458C1.68214 9.55958 3.24649 11.0844 4.26039 10.9963C4.70625 10.9508 5.05669 10.4784 5.45445 10.2552C6.14691 9.87092 6.8287 9.93016 7.53033 9.85574C10.2605 9.55958 13.009 9.44111 15.7483 9.30746C20.6773 9.08572 25.6154 8.95207 30.5443 8.77437C40.6763 8.41898 50.8183 8.0484 60.951 7.693L121.774 5.51508C133.252 5.10046 144.835 5.23411 156.285 3.73812C157.27 3.60447 157.224 0.314807 156.228 0.255575C146.115 -0.395979 135.925 0.374039 125.812 0.626155C115.67 0.878272 105.538 1.21848 95.395 1.51464C75.121 2.10696 54.8471 2.71447 34.5724 3.30679L17.3119 3.81102H17.3027Z" fill="#FFA928"/>
</svg>
