<svg width="178" height="24" viewBox="0 0 178 24" fill="none" xmlns="http://www.w3.org/2000/svg">
<path fill-rule="evenodd" clip-rule="evenodd" d="M9.0406 0.520689C10.2535 -0.173563 11.7465 -0.173563 12.9594 0.520689L20.0398 4.57531C21.2518 5.26975 22 6.5541 22 7.94441V16.0546C22 17.4446 21.2532 18.7291 20.0397 19.4237L12.9596 23.4793C11.7467 24.1735 10.2535 24.1736 9.0406 23.4794L1.9601 19.4237C0.748134 18.7292 0 17.4449 0 16.0546V7.94441C0 6.5541 0.748062 5.26982 1.96003 4.57539L9.0406 0.520689ZM9.63921 1.55498C9.63918 1.55499 9.63924 1.55496 9.63921 1.55498C10.4815 1.07292 11.5184 1.07286 12.3607 1.55492C12.3607 1.5549 12.3607 1.55494 12.3607 1.55492L19.4409 5.60941C20.282 6.09136 20.8 6.98194 20.8 7.94441V16.0546C20.8 17.0174 20.2828 17.9077 19.4411 18.3895L12.3608 22.4451C11.5185 22.9272 10.4815 22.9272 9.63921 22.4451L2.55911 18.3896C1.71798 17.9076 1.2 17.0171 1.2 16.0546V7.94441C1.2 6.98199 1.71793 6.09145 2.55898 5.60948C2.55893 5.60951 2.55902 5.60946 2.55898 5.60948L9.63921 1.55498Z" fill="#FCD3C6"/>
<path d="M13.3339 8.66667H8.66724L8.82377 6.89656C8.8685 6.3941 9.32185 6 9.85652 6H12.1436C12.6783 6 13.1326 6.3941 13.1763 6.89656L13.3329 8.66667H13.3339ZM9.71726 7.75572H12.2849L12.2158 6.97231C12.2127 6.93779 12.1812 6.91094 12.1446 6.91094H9.85754C9.82094 6.91094 9.78943 6.93779 9.78638 6.97231L9.71726 7.75572Z" fill="url(#paint0_linear_295_7808)"/>
<path d="M6.48194 16.3942C6.21159 16.3942 5.97353 16.2657 5.85989 16.0591C5.82281 15.9909 5.80367 15.9089 5.80367 15.813V14.4696C5.80367 14.2106 5.55006 14 5.23545 14C4.92084 14 4.66724 14.2106 4.66724 14.4696V15.813C4.66724 16.0423 4.71987 16.2558 4.82394 16.4466C5.11942 16.9854 5.76898 17.3333 6.48074 17.3333H11.3339V16.3942H6.48194Z" fill="url(#paint1_linear_295_7808)"/>
<path d="M17.185 8.9673C16.9043 8.37959 16.2872 8 15.6109 8H6.41409C6.15041 8 5.90492 8.04745 5.68671 8.14127C5.0673 8.40763 4.66724 8.99318 4.66724 9.63482V11.3419C4.66724 11.7495 4.92523 12.1086 5.32529 12.2563L10.3533 14.1209C10.7704 14.2751 11.2307 14.2761 11.6478 14.1209L16.2542 12.4127V15.6985C16.2542 15.9422 16.1064 16.1568 15.8689 16.2582C15.7905 16.2916 15.695 16.3089 15.5859 16.3089H10.8863V17.3333H15.5859C15.8496 17.3333 16.0951 17.2859 16.3144 17.1921C16.9338 16.9257 17.3339 16.3401 17.3339 15.6985V11.6751C17.3339 11.6676 17.3339 11.6589 17.3339 11.6514V9.65854C17.3339 9.40836 17.2839 9.17543 17.185 8.9673ZM16.2542 11.3128L11.2546 13.1665C11.0898 13.228 10.9091 13.2269 10.7454 13.1665L5.74581 11.3128V9.63482C5.74581 9.3911 5.89356 9.17651 6.13109 9.07406C6.20951 9.04063 6.30384 9.02338 6.41409 9.02338H15.6109C15.8678 9.02338 16.0939 9.16357 16.2019 9.38895C16.2371 9.46335 16.2553 9.55394 16.2553 9.65746V11.3128H16.2542Z" fill="#FF6436"/>
<path opacity="0.9" d="M37.856 17.32L39.12 16.12L38.112 15.096C38.784 14.136 39.168 12.872 39.168 11.4C39.168 7.88 37.024 5.656 33.888 5.656C30.752 5.656 28.624 7.88 28.624 11.4C28.624 14.904 30.752 17.16 33.888 17.16C35.024 17.16 36.032 16.856 36.864 16.312L37.856 17.32ZM30.784 11.4C30.784 8.936 31.968 7.48 33.888 7.48C35.808 7.48 36.992 8.936 36.992 11.4C36.992 12.248 36.848 12.968 36.592 13.56L35.056 12.008L33.792 13.208L35.472 14.904C35.024 15.192 34.496 15.336 33.888 15.336C31.968 15.336 30.784 13.848 30.784 11.4ZM44.0533 17.16C46.1333 17.16 48.1813 15.848 48.1813 12.84C48.1813 9.832 46.1333 8.52 44.0533 8.52C41.9573 8.52 39.9253 9.832 39.9253 12.84C39.9253 15.848 41.9573 17.16 44.0533 17.16ZM41.8453 12.84C41.8453 11.032 42.8373 10.232 44.0533 10.232C45.2533 10.232 46.2453 11.032 46.2453 12.84C46.2453 14.648 45.2533 15.448 44.0533 15.448C42.8373 15.448 41.8453 14.648 41.8453 12.84ZM49.1771 17H51.2251V13.128C51.2251 11.176 52.3611 10.344 53.7371 10.344C53.9451 10.344 54.1371 10.36 54.3771 10.392V8.664C54.1531 8.6 53.9291 8.584 53.7371 8.584C52.3291 8.584 51.5451 9.544 51.2731 10.664H51.2251V8.68H49.1771V17ZM57.2485 13.432L57.2645 8.68H55.2165V13.912C55.2005 16.168 56.4645 17.16 58.0965 17.16C59.8565 17.16 60.6565 16.008 60.8165 15.288H60.8805V17H62.9285L62.9445 8.68H60.8965L60.8805 13.64C60.7845 14.856 60.0005 15.464 58.9445 15.464C57.8405 15.464 57.2485 14.792 57.2485 13.432ZM64.1256 17H70.9416V15.272H66.5736L70.9416 10.408V8.68H64.2856V10.408H68.5096L64.1256 15.272V17ZM75.4909 17H80.0989C82.9949 17 84.2429 15.56 84.2429 13.736C84.2429 12.296 83.4749 11.272 81.8429 10.856C82.9149 10.504 83.4909 9.784 83.4909 8.568C83.4909 6.92 82.3869 5.8 79.9389 5.8H75.4909V17ZM77.5869 15.224V11.768H80.0029C81.4909 11.768 82.0669 12.536 82.0669 13.512C82.0669 14.472 81.4909 15.224 80.0029 15.224H77.5869ZM77.5869 10.376V7.576H79.8429C80.7549 7.576 81.3629 7.976 81.3629 8.936C81.3629 9.928 80.7549 10.376 79.8429 10.376H77.5869ZM87.2654 13.432L87.2814 8.68H85.2334V13.912C85.2174 16.168 86.4814 17.16 88.1134 17.16C89.8734 17.16 90.6734 16.008 90.8334 15.288H90.8974V17H92.9454L92.9614 8.68H90.9134L90.8974 13.64C90.8014 14.856 90.0174 15.464 88.9614 15.464C87.8574 15.464 87.2654 14.792 87.2654 13.432ZM97.4225 17.16C99.3745 17.16 101.071 16.392 101.071 14.552C101.071 13.096 99.9985 12.52 98.6865 12.216L97.1025 11.864C96.4305 11.736 96.0945 11.432 96.0945 10.952C96.0945 10.376 96.5585 10.072 97.4705 10.072C98.3665 10.072 98.9745 10.376 99.1025 11.288H100.799C100.767 9.528 99.5665 8.52 97.4545 8.52C95.4545 8.52 94.1105 9.416 94.1105 10.984C94.1105 12.104 94.7665 12.984 96.4465 13.368L97.9825 13.704C98.6225 13.832 98.9585 14.088 98.9585 14.6C98.9585 15.304 98.3345 15.608 97.4545 15.608C96.4945 15.608 95.8225 15.256 95.7105 14.376H93.8865C93.9025 16.248 95.2945 17.16 97.4225 17.16ZM101.984 17H104.032V8.68H101.984V17ZM101.84 6.36C101.84 7.016 102.384 7.512 103.008 7.512C103.616 7.512 104.16 7.016 104.16 6.36C104.16 5.704 103.616 5.208 103.008 5.208C102.384 5.208 101.84 5.704 101.84 6.36ZM111.11 12.248V17H113.158V11.768C113.158 9.512 111.894 8.52 110.262 8.52C108.502 8.52 107.702 9.672 107.542 10.392H107.478V8.68H105.43V17H107.478V12.248C107.478 10.888 108.294 10.216 109.414 10.216C110.518 10.216 111.11 10.888 111.11 12.248ZM118.275 17.16C120.131 17.16 121.587 16.28 122.035 14.392H120.211C119.971 15.192 119.363 15.592 118.323 15.592C117.011 15.592 116.227 14.92 116.099 13.368H122.099C122.131 13.192 122.147 13.032 122.147 12.744C122.147 9.704 120.387 8.52 118.243 8.52C116.067 8.52 114.163 9.752 114.163 12.824C114.163 15.928 116.115 17.16 118.275 17.16ZM116.115 12.12C116.259 10.76 117.011 10.088 118.211 10.088C119.555 10.088 120.163 10.952 120.211 12.12H116.115ZM126.189 17.16C128.141 17.16 129.837 16.392 129.837 14.552C129.837 13.096 128.765 12.52 127.453 12.216L125.869 11.864C125.197 11.736 124.861 11.432 124.861 10.952C124.861 10.376 125.325 10.072 126.237 10.072C127.133 10.072 127.741 10.376 127.869 11.288H129.565C129.533 9.528 128.333 8.52 126.221 8.52C124.221 8.52 122.877 9.416 122.877 10.984C122.877 12.104 123.533 12.984 125.213 13.368L126.749 13.704C127.389 13.832 127.725 14.088 127.725 14.6C127.725 15.304 127.101 15.608 126.221 15.608C125.261 15.608 124.589 15.256 124.477 14.376H122.653C122.669 16.248 124.061 17.16 126.189 17.16ZM133.807 17.16C135.759 17.16 137.455 16.392 137.455 14.552C137.455 13.096 136.383 12.52 135.071 12.216L133.487 11.864C132.815 11.736 132.479 11.432 132.479 10.952C132.479 10.376 132.943 10.072 133.855 10.072C134.751 10.072 135.359 10.376 135.487 11.288H137.183C137.151 9.528 135.951 8.52 133.839 8.52C131.839 8.52 130.495 9.416 130.495 10.984C130.495 12.104 131.151 12.984 132.831 13.368L134.367 13.704C135.007 13.832 135.343 14.088 135.343 14.6C135.343 15.304 134.719 15.608 133.839 15.608C132.879 15.608 132.207 15.256 132.095 14.376H130.271C130.287 16.248 131.679 17.16 133.807 17.16ZM146.056 17.16C148.616 17.16 150.504 16.072 150.504 13.768C150.504 12.024 149.448 11.048 146.952 10.552L145.512 10.264C144.392 10.024 144.008 9.48 144.008 8.856C144.008 8.088 144.536 7.416 145.96 7.416C147.24 7.416 148.04 7.96 148.04 8.984H150.2C150.2 6.824 148.584 5.656 146.008 5.656C143.448 5.656 141.8 6.792 141.8 8.856C141.8 10.744 143.176 11.592 145 11.944L146.536 12.248C147.656 12.472 148.28 12.872 148.28 13.784C148.28 14.792 147.496 15.4 146.072 15.4C144.392 15.4 143.72 14.536 143.656 13.448H141.496C141.496 15.784 143.192 17.16 146.056 17.16ZM153.698 13.432L153.714 8.68H151.666V13.912C151.65 16.168 152.914 17.16 154.546 17.16C156.306 17.16 157.106 16.008 157.266 15.288H157.33V17H159.378L159.394 8.68H157.346L157.33 13.64C157.234 14.856 156.45 15.464 155.394 15.464C154.29 15.464 153.698 14.792 153.698 13.432ZM160.799 17H162.847V8.68H160.799V17ZM160.655 6.36C160.655 7.016 161.199 7.512 161.823 7.512C162.431 7.512 162.975 7.016 162.975 6.36C162.975 5.704 162.431 5.208 161.823 5.208C161.199 5.208 160.655 5.704 160.655 6.36ZM167.669 17.112C168.101 17.112 168.501 17.064 168.853 16.968V15.432C168.549 15.464 168.405 15.464 168.213 15.464C167.349 15.464 167.125 15.064 167.125 14.344V10.28H168.757V8.68H167.125V6.552H165.077V8.68H163.685V10.28H165.077V14.664C165.077 16.424 166.101 17.112 167.669 17.112ZM173.402 17.16C175.258 17.16 176.714 16.28 177.162 14.392H175.338C175.098 15.192 174.49 15.592 173.45 15.592C172.138 15.592 171.354 14.92 171.226 13.368H177.226C177.258 13.192 177.274 13.032 177.274 12.744C177.274 9.704 175.514 8.52 173.37 8.52C171.194 8.52 169.29 9.752 169.29 12.824C169.29 15.928 171.242 17.16 173.402 17.16ZM171.242 12.12C171.386 10.76 172.138 10.088 173.338 10.088C174.682 10.088 175.29 10.952 175.338 12.12H171.242Z" fill="white"/>
<defs>
<linearGradient id="paint0_linear_295_7808" x1="10.867" y1="7.16741" x2="13.3484" y2="8.54529" gradientUnits="userSpaceOnUse">
<stop stop-color="#FF6436"/>
<stop offset="1" stop-color="#FF6436" stop-opacity="0"/>
</linearGradient>
<linearGradient id="paint1_linear_295_7808" x1="7.99994" y1="16.6603" x2="7.99994" y2="14.1372" gradientUnits="userSpaceOnUse">
<stop stop-color="#FF6436"/>
<stop offset="1" stop-color="#FF6436" stop-opacity="0"/>
</linearGradient>
</defs>
</svg>
