<svg width="78" height="85" viewBox="0 0 78 85" fill="none" xmlns="http://www.w3.org/2000/svg">
<path d="M30.6104 2.24796C35.8019 -0.749361 42.1981 -0.749361 47.3896 2.24796L69.3604 14.9328C74.5519 17.9301 77.75 23.4694 77.75 29.464V54.8337C77.75 60.8283 74.5519 66.3676 69.3604 69.3649L47.3896 82.0498C42.1981 85.0471 35.8019 85.0471 30.6104 82.0498L8.63962 69.3649C3.44811 66.3676 0.25 60.8283 0.25 54.8337V29.464C0.25 23.4694 3.44811 17.9301 8.63962 14.9328L30.6104 2.24796Z" fill="url(#paint0_linear_1130_260)"/>
<g filter="url(#filter0_d_1130_260)">
<path fill-rule="evenodd" clip-rule="evenodd" d="M33.1396 22.5732C28.7214 22.5732 25.127 26.1677 25.127 30.5859C25.127 33.5828 26.781 36.2002 29.2238 37.5743C30.3824 38.2261 31.7182 38.5986 33.1396 38.5986C34.561 38.5986 35.8968 38.2261 37.0554 37.5743C39.4982 36.2002 41.1522 33.5827 41.1522 30.5859C41.1522 26.1677 37.5578 22.5732 33.1396 22.5732ZM46.545 45.3404C46.545 43.7581 47.6575 42.1489 49.2398 42.1489H49.5518C53.2256 42.1489 56.2144 45.1377 56.2143 48.8114V50.1551V51.2716V52.6153C56.2144 56.289 53.2256 59.2778 49.5518 59.2778H49.2398C47.6575 59.2778 46.545 57.6686 46.545 56.0863V56.0863V55.2692V53.9367V47.49V46.056V45.3404V45.3404ZM37.1245 42.149H29.6896C26.3423 42.149 23.6191 44.9625 23.6191 48.4208V51.8284V51.906V54.9263C23.6191 58.0004 26.3423 60.5013 29.6896 60.5013H37.1245C40.4717 60.5013 43.1949 58.0004 43.1949 54.9263V51.906V51.8284V48.4208C43.1949 44.9625 40.4717 42.149 37.1245 42.149ZM43.6641 33.5871C43.6641 30.2828 46.3522 27.5947 49.6565 27.5947C52.9607 27.5947 55.6488 30.2828 55.6488 33.5871C55.6488 36.8914 52.9607 39.5795 49.6565 39.5795C48.8183 39.5795 48.0201 39.4059 47.2951 39.0938C46.0415 38.5542 45.0079 37.5988 44.3684 36.402C43.9194 35.5623 43.6641 34.6041 43.6641 33.5871Z" fill="white"/>
</g>
<defs>
<filter id="filter0_d_1130_260" x="23.6191" y="22.5732" width="40.5952" height="45.9281" filterUnits="userSpaceOnUse" color-interpolation-filters="sRGB">
<feFlood flood-opacity="0" result="BackgroundImageFix"/>
<feColorMatrix in="SourceAlpha" type="matrix" values="0 0 0 0 0 0 0 0 0 0 0 0 0 0 0 0 0 0 127 0" result="hardAlpha"/>
<feOffset dx="4" dy="4"/>
<feGaussianBlur stdDeviation="2"/>
<feComposite in2="hardAlpha" operator="out"/>
<feColorMatrix type="matrix" values="0 0 0 0 0.721569 0 0 0 0 0.184314 0 0 0 0 0.0196078 0 0 0 0.5 0"/>
<feBlend mode="normal" in2="BackgroundImageFix" result="effect1_dropShadow_1130_260"/>
<feBlend mode="normal" in="SourceGraphic" in2="effect1_dropShadow_1130_260" result="shape"/>
</filter>
<linearGradient id="paint0_linear_1130_260" x1="38.9989" y1="-2.59584" x2="38.9989" y2="86.8935" gradientUnits="userSpaceOnUse">
<stop stop-color="#FFB29A"/>
<stop offset="1" stop-color="#FF6435"/>
</linearGradient>
</defs>
</svg>
