<svg width="78" height="85" viewBox="0 0 78 85" fill="none" xmlns="http://www.w3.org/2000/svg">
<path d="M30.6104 2.24796C35.8019 -0.749361 42.1981 -0.749361 47.3896 2.24796L69.3604 14.9328C74.5519 17.9301 77.75 23.4694 77.75 29.464V54.8337C77.75 60.8283 74.5519 66.3676 69.3604 69.3649L47.3896 82.0498C42.1981 85.0471 35.8019 85.0471 30.6104 82.0498L8.63962 69.3649C3.44811 66.3676 0.25 60.8283 0.25 54.8337V29.464C0.25 23.4694 3.44811 17.9301 8.63962 14.9328L30.6104 2.24796Z" fill="url(#paint0_linear_1130_174)"/>
<g filter="url(#filter0_d_1130_174)">
<path fill-rule="evenodd" clip-rule="evenodd" d="M18.4887 44.5144C13.3944 36.319 15.7267 25.6258 23.6879 20.677C31.6491 15.7283 42.2702 18.3695 47.3646 26.5648C52.4589 34.7602 50.1266 45.4534 42.1654 50.4022C40.1459 51.6575 37.9552 52.4222 35.7272 52.7341C31.875 53.2732 27.9117 52.4517 24.5256 50.4413C22.1493 49.0308 20.0567 47.0368 18.4887 44.5144ZM21.8859 42.4027C17.956 36.0805 19.7116 27.8586 25.7996 24.0742C31.8876 20.2898 40.0375 22.3544 43.9674 28.6765C47.8973 34.9987 46.1417 43.2206 40.0537 47.005C38.5094 47.965 36.8323 48.5469 35.1253 48.7801C32.1739 49.1834 29.1333 48.5393 26.5315 46.982C24.7056 45.8893 23.0955 44.3486 21.8859 42.4027Z" fill="white"/>
<path fill-rule="evenodd" clip-rule="evenodd" d="M40.5583 53.4721C41.4682 53.0933 42.3586 52.637 43.2213 52.1008C44.0838 51.5646 44.8873 50.9683 45.63 50.3203C45.6797 50.3823 45.7262 50.4479 45.7691 50.517L46.2971 51.3662C46.8802 52.3043 46.5924 53.5376 45.6543 54.1207L43.9558 55.1765C43.0177 55.7597 41.7845 55.4719 41.2013 54.5338L40.6734 53.6845C40.6303 53.6152 40.592 53.5443 40.5583 53.4721Z" fill="white"/>
<path d="M49.1202 67.2732C49.7034 68.2113 50.9366 68.499 51.8747 67.9159L53.5732 66.86C54.5113 66.2769 54.7991 65.0437 54.216 64.1056L49.4646 56.462C48.8815 55.5239 47.6483 55.2361 46.7102 55.8193L45.0116 56.8751C44.0735 57.4583 43.7857 58.6915 44.3689 59.6296L49.1202 67.2732Z" fill="white"/>
</g>
<path d="M25.7995 24.0739C19.7116 27.8583 17.9559 36.0802 21.8858 42.4024C23.0954 44.3483 24.7055 45.889 26.5314 46.9817C29.1332 48.539 32.1738 49.1831 35.1252 48.7799C36.8323 48.5466 38.5093 47.9647 40.0536 47.0047C46.1416 43.2204 47.8973 34.9984 43.9673 28.6763C40.0374 22.3541 31.8875 20.2896 25.7995 24.0739Z" fill="white" fill-opacity="0.2"/>
<path d="M27.9112 27.4713C23.6964 30.0912 22.5174 35.842 25.2829 40.2909" stroke="white" stroke-width="2" stroke-linecap="round"/>
<defs>
<filter id="filter0_d_1130_174" x="15.7904" y="18.1814" width="46.7272" height="58.0361" filterUnits="userSpaceOnUse" color-interpolation-filters="sRGB">
<feFlood flood-opacity="0" result="BackgroundImageFix"/>
<feColorMatrix in="SourceAlpha" type="matrix" values="0 0 0 0 0 0 0 0 0 0 0 0 0 0 0 0 0 0 127 0" result="hardAlpha"/>
<feOffset dx="4" dy="4"/>
<feGaussianBlur stdDeviation="2"/>
<feComposite in2="hardAlpha" operator="out"/>
<feColorMatrix type="matrix" values="0 0 0 0 0.721569 0 0 0 0 0.184314 0 0 0 0 0.0196078 0 0 0 0.5 0"/>
<feBlend mode="normal" in2="BackgroundImageFix" result="effect1_dropShadow_1130_174"/>
<feBlend mode="normal" in="SourceGraphic" in2="effect1_dropShadow_1130_174" result="shape"/>
</filter>
<linearGradient id="paint0_linear_1130_174" x1="38.9989" y1="-2.59584" x2="38.9989" y2="86.8935" gradientUnits="userSpaceOnUse">
<stop stop-color="#FFB29A"/>
<stop offset="1" stop-color="#FF6435"/>
</linearGradient>
</defs>
</svg>
