<svg width="78" height="85" viewBox="0 0 78 85" fill="none" xmlns="http://www.w3.org/2000/svg">
<path d="M30.6104 2.24796C35.8019 -0.749361 42.1981 -0.749361 47.3896 2.24796L69.3604 14.9328C74.5519 17.9301 77.75 23.4694 77.75 29.464V54.8337C77.75 60.8283 74.5519 66.3676 69.3604 69.3649L47.3896 82.0498C42.1981 85.0471 35.8019 85.0471 30.6104 82.0498L8.63962 69.3649C3.44811 66.3676 0.25 60.8283 0.25 54.8337V29.464C0.25 23.4694 3.44811 17.9301 8.63962 14.9328L30.6104 2.24796Z" fill="url(#paint0_linear_1130_66)"/>
<g filter="url(#filter0_d_1130_66)">
<path d="M39.62 63.2799C37.6759 63.2917 35.9289 62.6087 34.3096 61.5319C32.1619 60.1038 30.3341 58.3208 28.6292 56.4036C25.807 53.2307 23.4465 49.7325 21.3305 46.0603C19.7484 43.3141 18.2261 40.5372 17.0076 37.6062C16.2378 35.7547 15.565 33.8688 15.329 31.8638C14.9353 28.5164 15.9976 25.7287 18.6791 23.6504C19.7683 22.8063 20.9712 22.1077 22.1224 21.3427C22.3319 21.2037 22.5393 21.0621 22.7494 20.9242C23.2887 20.5692 23.8106 20.6683 24.1635 21.2064C25.1035 22.6399 26.0408 24.0749 26.9743 25.5121C28.4115 27.7245 29.8455 29.9396 31.28 32.1536C31.3824 32.3114 31.4842 32.4693 31.544 32.6513C31.6679 33.03 31.6146 33.245 31.2903 33.4664C30.2156 34.2001 29.1436 34.9386 28.0539 35.6486C27.5787 35.9578 27.36 36.3812 27.3121 36.9188C27.2345 37.7839 27.4715 38.5914 27.7845 39.3811C28.334 40.7666 29.1167 42.0223 29.9565 43.2446C30.9897 44.7481 32.073 46.2122 33.3938 47.4824C33.9196 47.9877 34.4793 48.4499 35.1435 48.7688C35.7468 49.0581 36.2952 49.0715 36.877 48.6395C37.5665 48.1272 38.3239 47.706 39.0506 47.2432C39.2397 47.1231 39.4271 47.0003 39.6097 46.8705C40.1754 46.4675 40.6903 46.5656 41.0346 47.1694C41.4396 47.8794 41.8841 48.5641 42.3279 49.2498C44.1816 52.1124 46.0863 54.9416 47.9868 57.7735C48.2836 58.2157 48.2783 58.7016 48.1888 59.1961C48.1624 59.341 48.0687 59.4509 47.9351 59.5274C46.2916 60.4701 44.7089 61.5103 43.109 62.522C42.5095 62.9012 41.8302 63.0305 41.1509 63.1538C40.6564 63.2433 40.1554 63.2939 39.6205 63.2794L39.62 63.2799Z" fill="white"/>
<path d="M58.2499 40.1051C58.2499 41.4815 58.1507 42.8492 57.911 44.2045C57.6929 45.4392 56.4598 46.0468 55.4358 45.4279C54.8518 45.075 54.5658 44.448 54.6886 43.7143C54.9553 42.1225 55.0156 40.5221 54.9547 38.9119C54.6121 29.8448 48.4264 24.1433 42.5741 22.1578C41.9024 21.9299 41.2182 21.7505 40.5174 21.6336C39.5742 21.4758 38.9789 20.6602 39.1292 19.7493C39.2774 18.8545 40.1312 18.2679 41.0669 18.4317C44.0399 18.951 46.7166 20.1738 49.1461 21.932C52.4676 24.3357 55.0032 27.3916 56.5837 31.1953C57.7672 34.0433 58.2488 37.0314 58.2499 40.1051Z" fill="white"/>
<path d="M48.9434 39.2815C48.9375 40.5986 48.8718 41.4745 48.6692 42.3353C48.4559 43.2403 47.6188 43.7843 46.7445 43.5931C45.8487 43.397 45.3202 42.5631 45.498 41.635C45.8411 39.8417 45.7512 38.0786 45.0934 36.364C44.4492 34.6838 43.2603 33.4481 41.8215 32.4262C40.7699 31.679 39.6349 31.0875 38.4251 30.6377C37.659 30.3528 37.2486 29.6783 37.3391 28.8854C37.4226 28.156 38.02 27.5807 38.7951 27.4821C39.0133 27.4546 39.2282 27.4794 39.4319 27.5538C42.4388 28.6543 45.0498 30.3151 46.9325 32.9643C48.3649 34.9801 48.937 37.2679 48.9434 39.2815Z" fill="white"/>
</g>
<defs>
<filter id="filter0_d_1130_66" x="15.2496" y="18.4043" width="51.0003" height="52.8776" filterUnits="userSpaceOnUse" color-interpolation-filters="sRGB">
<feFlood flood-opacity="0" result="BackgroundImageFix"/>
<feColorMatrix in="SourceAlpha" type="matrix" values="0 0 0 0 0 0 0 0 0 0 0 0 0 0 0 0 0 0 127 0" result="hardAlpha"/>
<feOffset dx="4" dy="4"/>
<feGaussianBlur stdDeviation="2"/>
<feComposite in2="hardAlpha" operator="out"/>
<feColorMatrix type="matrix" values="0 0 0 0 0.721569 0 0 0 0 0.184314 0 0 0 0 0.0196078 0 0 0 0.5 0"/>
<feBlend mode="normal" in2="BackgroundImageFix" result="effect1_dropShadow_1130_66"/>
<feBlend mode="normal" in="SourceGraphic" in2="effect1_dropShadow_1130_66" result="shape"/>
</filter>
<linearGradient id="paint0_linear_1130_66" x1="38.9989" y1="-2.59584" x2="38.9989" y2="86.8935" gradientUnits="userSpaceOnUse">
<stop stop-color="#FFB29A"/>
<stop offset="1" stop-color="#FF6435"/>
</linearGradient>
</defs>
</svg>
