<svg width="78" height="85" viewBox="0 0 78 85" fill="none" xmlns="http://www.w3.org/2000/svg">
<path d="M30.6104 2.54572C35.8019 -0.451601 42.1981 -0.451601 47.3896 2.54572L69.3604 15.2305C74.5519 18.2279 77.75 23.7672 77.75 29.7618V55.1314C77.75 61.1261 74.5519 66.6654 69.3604 69.6627L47.3896 82.3475C42.1981 85.3448 35.8019 85.3448 30.6104 82.3475L8.63962 69.6627C3.44811 66.6654 0.25 61.1261 0.25 55.1314V29.7618C0.25 23.7672 3.44811 18.2279 8.63962 15.2305L30.6104 2.54572Z" fill="url(#paint0_linear_1130_45)"/>
<g filter="url(#filter0_d_1130_45)">
<path d="M36.62 70.5776C34.6759 70.5894 32.9289 69.9064 31.3096 68.8296C29.1619 67.4015 27.3341 65.6185 25.6292 63.7013C22.807 60.5284 20.4465 57.0302 18.3305 53.358C16.7484 50.6118 15.2261 47.8348 14.0076 44.9039C13.2378 43.0524 12.565 41.1665 12.329 39.1615C11.9353 35.8141 12.9976 33.0264 15.6791 30.9481C16.7683 30.104 17.9712 29.4054 19.1224 28.6404C19.3319 28.5014 19.5393 28.3598 19.7494 28.2219C20.2887 27.8669 20.8106 27.966 21.1635 28.5041C22.1035 29.9376 23.0408 31.3726 23.9743 32.8098C25.4115 35.0222 26.8455 37.2373 28.28 39.4513C28.3824 39.6091 28.4842 39.767 28.544 39.949C28.6679 40.3277 28.6146 40.5427 28.2903 40.7641C27.2156 41.4978 26.1436 42.2363 25.0539 42.9463C24.5787 43.2555 24.36 43.6789 24.3121 44.2165C24.2345 45.0816 24.4715 45.8891 24.7845 46.6788C25.334 48.0643 26.1167 49.32 26.9565 50.5423C27.9897 52.0457 29.073 53.5099 30.3938 54.7801C30.9196 55.2854 31.4793 55.7476 32.1435 56.0665C32.7468 56.3558 33.2952 56.3692 33.877 55.9372C34.5665 55.4249 35.3239 55.0037 36.0506 54.5409C36.2397 54.4208 36.4271 54.298 36.6097 54.1682C37.1754 53.7652 37.6903 53.8633 38.0346 54.4671C38.4396 55.1771 38.8841 55.8618 39.3279 56.5475C41.1816 59.4101 43.0863 62.2393 44.9868 65.0712C45.2836 65.5134 45.2783 65.9993 45.1888 66.4938C45.1624 66.6387 45.0687 66.7486 44.9351 66.8251C43.2916 67.7678 41.7089 68.808 40.109 69.8197C39.5095 70.1989 38.8302 70.3282 38.1509 70.4515C37.6564 70.541 37.1554 70.5916 36.6205 70.5771L36.62 70.5776Z" fill="white"/>
<path d="M50.7549 33.9801H43.32C39.9728 33.9801 37.2496 36.7936 37.2496 40.2519V43.7371C37.2496 44.4298 37.7931 44.9915 38.4637 44.9915H55.6113C56.2818 44.9915 56.8254 44.4299 56.8254 43.7371V40.2519C56.8254 36.7936 54.1021 33.9801 50.7549 33.9801Z" fill="white"/>
<path d="M50.7549 52.3326H43.32C39.9728 52.3326 37.2496 49.8317 37.2496 46.7577V43.6597C37.2496 43.044 37.7931 42.5448 38.4637 42.5448H55.6113C56.2818 42.5448 56.8254 43.0439 56.8254 43.6597V46.7577C56.8254 49.8317 54.1021 52.3326 50.7549 52.3326Z" fill="white"/>
<path d="M46.77 14.4044C42.3518 14.4044 38.7574 17.9989 38.7574 22.4171C38.7574 25.414 40.4115 28.0314 42.8542 29.4056C44.0128 30.0573 45.3486 30.4298 46.77 30.4298C48.1914 30.4298 49.5272 30.0573 50.6858 29.4056C53.1287 28.0314 54.7827 25.4139 54.7827 22.4171C54.7827 17.999 51.1882 14.4044 46.77 14.4044Z" fill="white"/>
</g>
<defs>
<filter id="filter0_d_1130_45" x="12.2496" y="14.4044" width="52.5758" height="64.1751" filterUnits="userSpaceOnUse" color-interpolation-filters="sRGB">
<feFlood flood-opacity="0" result="BackgroundImageFix"/>
<feColorMatrix in="SourceAlpha" type="matrix" values="0 0 0 0 0 0 0 0 0 0 0 0 0 0 0 0 0 0 127 0" result="hardAlpha"/>
<feOffset dx="4" dy="4"/>
<feGaussianBlur stdDeviation="2"/>
<feComposite in2="hardAlpha" operator="out"/>
<feColorMatrix type="matrix" values="0 0 0 0 0.721569 0 0 0 0 0.184314 0 0 0 0 0.0196078 0 0 0 0.5 0"/>
<feBlend mode="normal" in2="BackgroundImageFix" result="effect1_dropShadow_1130_45"/>
<feBlend mode="normal" in="SourceGraphic" in2="effect1_dropShadow_1130_45" result="shape"/>
</filter>
<linearGradient id="paint0_linear_1130_45" x1="38.9989" y1="-2.29808" x2="38.9989" y2="87.1912" gradientUnits="userSpaceOnUse">
<stop stop-color="#FFB29A"/>
<stop offset="1" stop-color="#FF6435"/>
</linearGradient>
</defs>
</svg>
