<svg width="78" height="85" viewBox="0 0 78 85" fill="none" xmlns="http://www.w3.org/2000/svg">
<path d="M30.6104 2.84345C35.8019 -0.153872 42.1981 -0.153872 47.3896 2.84345L69.3604 15.5283C74.5519 18.5256 77.75 24.0649 77.75 30.0595V55.4292C77.75 61.4238 74.5519 66.9631 69.3604 69.9604L47.3896 82.6452C42.1981 85.6426 35.8019 85.6426 30.6104 82.6452L8.63962 69.9604C3.44811 66.9631 0.25 61.4238 0.25 55.4292V30.0595C0.25 24.0649 3.44811 18.5256 8.63962 15.5283L30.6104 2.84345Z" fill="url(#paint0_linear_1130_325)"/>
<g filter="url(#filter0_d_1130_325)">
<path d="M34.3623 47.8635C34.9044 47.8635 35.2038 47.8696 35.5046 47.8635C40.613 47.7369 45.1578 44.1371 46.3184 39.1737C46.5811 38.0541 46.7307 37.3083 48.1907 37.3464C49.4521 37.3784 50.3028 36.117 50.231 34.8647C50.1562 33.5804 49.1666 32.6377 47.8318 32.5904C47.4012 32.5752 46.969 32.5904 46.5368 32.5828C46.3428 32.5798 46.1077 32.6393 46.0115 32.3906C45.6602 31.4785 45.1898 30.6228 44.6202 29.703C45.7243 29.703 46.688 29.7198 47.6501 29.7C49.1803 29.6679 50.2814 28.5987 50.2493 27.2045C50.2157 25.8104 49.1559 24.8433 47.6287 24.8357C45.8511 24.8281 44.0735 24.8357 42.2959 24.8327C37.9557 24.825 33.614 24.8144 29.2723 24.8098C28.8172 24.8098 28.3575 24.7854 27.9162 24.9379C26.8212 25.3162 26.1111 26.4602 26.2867 27.5676C26.4806 28.8015 27.4611 29.6557 28.7943 29.6725C30.8758 29.6984 32.9588 29.6847 35.0404 29.6817C37.0867 29.6786 38.7956 30.4275 40.1594 31.9498C40.2999 32.1069 40.5183 32.2396 40.474 32.5843C39.518 32.5843 38.562 32.5843 37.606 32.5843C34.6861 32.5843 31.7661 32.5691 28.8462 32.592C27.2763 32.6042 26.2241 33.8107 26.3966 35.3299C26.5402 36.599 27.6092 37.4501 29.1165 37.4532C33.078 37.4623 37.0394 37.4684 40.9993 37.4455C41.6331 37.4425 41.7079 37.624 41.5415 38.1914C40.7305 40.9599 38.2611 42.9214 35.3626 42.984C33.2307 43.0297 31.0972 43.0023 28.9638 43.0008C27.82 43.0008 26.9235 43.4309 26.4608 44.5124C26.0087 45.5664 26.3142 46.4892 27.0869 47.293C28.0185 48.2631 28.9409 49.2409 29.8679 50.2155C33.2215 53.7497 36.5797 57.2793 39.9257 60.8196C40.5549 61.4846 41.2712 61.9117 42.2073 61.7866C43.1633 61.6585 43.8521 61.1307 44.1972 60.2232C44.5545 59.2805 44.353 58.4157 43.6703 57.6896C41.8637 55.7662 40.0403 53.858 38.2245 51.9437C36.989 50.6411 35.7551 49.337 34.3623 47.865V47.8635Z" fill="white"/>
</g>
<defs>
<filter id="filter0_d_1130_325" x="26.25" y="24.8083" width="32" height="45" filterUnits="userSpaceOnUse" color-interpolation-filters="sRGB">
<feFlood flood-opacity="0" result="BackgroundImageFix"/>
<feColorMatrix in="SourceAlpha" type="matrix" values="0 0 0 0 0 0 0 0 0 0 0 0 0 0 0 0 0 0 127 0" result="hardAlpha"/>
<feOffset dx="4" dy="4"/>
<feGaussianBlur stdDeviation="2"/>
<feComposite in2="hardAlpha" operator="out"/>
<feColorMatrix type="matrix" values="0 0 0 0 0.721569 0 0 0 0 0.184314 0 0 0 0 0.0196078 0 0 0 0.5 0"/>
<feBlend mode="normal" in2="BackgroundImageFix" result="effect1_dropShadow_1130_325"/>
<feBlend mode="normal" in="SourceGraphic" in2="effect1_dropShadow_1130_325" result="shape"/>
</filter>
<linearGradient id="paint0_linear_1130_325" x1="38.9989" y1="-2.00035" x2="38.9989" y2="87.4889" gradientUnits="userSpaceOnUse">
<stop stop-color="#FFB29A"/>
<stop offset="1" stop-color="#FF6435"/>
</linearGradient>
</defs>
</svg>
