<svg width="78" height="85" viewBox="0 0 78 85" fill="none" xmlns="http://www.w3.org/2000/svg">
<path d="M30.6104 2.84345C35.8019 -0.153872 42.1981 -0.153872 47.3896 2.84345L69.3604 15.5283C74.5519 18.5256 77.75 24.0649 77.75 30.0595V55.4292C77.75 61.4238 74.5519 66.9631 69.3604 69.9604L47.3896 82.6452C42.1981 85.6426 35.8019 85.6426 30.6104 82.6452L8.63962 69.9604C3.44811 66.9631 0.25 61.4238 0.25 55.4292V30.0595C0.25 24.0649 3.44811 18.5256 8.63962 15.5283L30.6104 2.84345Z" fill="url(#paint0_linear_1130_300)"/>
<g filter="url(#filter0_d_1130_300)">
<path fill-rule="evenodd" clip-rule="evenodd" d="M30.8818 20.8636C31.8632 20.34 33.0537 20.4025 33.9749 21.0258L62.6938 40.4568C64.0661 41.3852 64.4259 43.2504 63.4974 44.6226L53.4536 59.4672C52.5252 60.8395 50.6601 61.1993 49.2878 60.2708L20.5689 40.8398C19.6477 40.2165 19.1469 39.1347 19.2678 38.0289L20.3698 27.9544C20.4776 26.9689 21.0653 26.1003 21.94 25.6337L30.8818 20.8636ZM29.4254 30.1103C29.4254 31.9037 27.9717 33.3575 26.1783 33.3575C24.385 33.3575 22.9312 31.9037 22.9312 30.1103C22.9312 28.317 24.385 26.8632 26.1783 26.8632C27.9717 26.8632 29.4254 28.317 29.4254 30.1103ZM34.2548 36.6885C33.7105 37.4889 32.6848 37.5461 31.7124 36.8849L29.4565 35.3509L32.6503 30.6539L34.7805 32.1024C35.7133 32.7366 36.1052 33.5546 35.5384 34.3881L35.4934 34.4543C35.2235 34.8512 34.7644 35.0711 34.2325 34.9997C34.616 35.5313 34.6327 36.1328 34.2953 36.6289L34.2548 36.6885ZM34.0433 32.8878L33.137 32.2715L32.4397 33.2969L33.346 33.9132C33.7694 34.2011 34.0647 34.1794 34.2942 33.842L34.3391 33.7758C34.5641 33.445 34.4468 33.1622 34.0433 32.8878ZM32.9446 34.8592L31.8729 34.1305L31.1397 35.2088L32.2048 35.933C32.6216 36.2164 32.9881 36.1754 33.1995 35.8645L33.24 35.8049C33.4604 35.4808 33.3746 35.1516 32.9446 34.8592ZM36.034 37.5016L34.9544 39.0893L33.8496 38.3381L37.0434 33.6411L39.1736 35.0895C40.1725 35.7688 40.5602 36.8063 39.8855 37.7987L39.8405 37.8648C39.3547 38.5793 38.6582 38.7926 37.9255 38.6039L37.8652 41.0686L36.6413 40.2364L36.7418 37.9829L36.034 37.5016ZM38.4382 35.9149L37.5319 35.2986L36.6503 36.5953L37.5566 37.2115C37.98 37.4994 38.397 37.5121 38.6894 37.0821L38.7344 37.016C39.0268 36.586 38.8616 36.2028 38.4382 35.9149ZM44.1293 38.4593L42.7019 44.3574L41.5309 43.5611L41.841 42.4079L40.0416 41.1844L39.0832 41.8968L37.9519 41.1276L42.9121 37.6316L44.1293 38.4593ZM42.1371 41.3323L42.7137 39.1897L40.9397 40.5181L42.1371 41.3323ZM46.3509 42.0982L44.1467 45.3398L43.0816 44.6155L46.2754 39.9185L47.5787 40.8047L47.2395 45.1307L49.3582 42.0147L50.4101 42.73L47.2163 47.427L45.9792 46.5858L46.3509 42.0982ZM53.6545 48.4672C52.6559 49.9358 51.1169 50.0793 49.6813 49.1031L47.8753 47.8751L51.0691 43.1781L52.8751 44.4061C54.3107 45.3822 54.7431 46.8662 53.7445 48.3348L53.6545 48.4672ZM52.1927 45.2674L51.551 44.8311L49.5897 47.7155L50.2314 48.1518C51.0451 48.7051 51.822 48.6723 52.4968 47.6799L52.5868 47.5476C53.2615 46.5553 53.0064 45.8207 52.1927 45.2674Z" fill="white"/>
<path d="M17.75 31.5105C19.9335 31.5105 21.9591 31.0995 23.4762 30.3916C24.9121 29.7215 26.25 28.5963 26.25 27.0105C26.25 25.4247 24.9121 24.2995 23.4762 23.6294C21.9591 22.9215 19.9335 22.5105 17.75 22.5105C15.5665 22.5105 13.5409 22.9215 12.0238 23.6294C10.5879 24.2995 9.25 25.4247 9.25 27.0105C9.25 28.5963 10.5879 29.7215 12.0238 30.3916C13.5409 31.0995 15.5665 31.5105 17.75 31.5105Z" stroke="white" stroke-opacity="0.7" stroke-width="2"/>
</g>
<defs>
<filter id="filter0_d_1130_300" x="8.25" y="20.5105" width="63.763" height="48.2759" filterUnits="userSpaceOnUse" color-interpolation-filters="sRGB">
<feFlood flood-opacity="0" result="BackgroundImageFix"/>
<feColorMatrix in="SourceAlpha" type="matrix" values="0 0 0 0 0 0 0 0 0 0 0 0 0 0 0 0 0 0 127 0" result="hardAlpha"/>
<feOffset dx="4" dy="4"/>
<feGaussianBlur stdDeviation="2"/>
<feComposite in2="hardAlpha" operator="out"/>
<feColorMatrix type="matrix" values="0 0 0 0 0.721569 0 0 0 0 0.184314 0 0 0 0 0.0196078 0 0 0 0.5 0"/>
<feBlend mode="normal" in2="BackgroundImageFix" result="effect1_dropShadow_1130_300"/>
<feBlend mode="normal" in="SourceGraphic" in2="effect1_dropShadow_1130_300" result="shape"/>
</filter>
<linearGradient id="paint0_linear_1130_300" x1="38.9989" y1="-2.00035" x2="38.9989" y2="87.4889" gradientUnits="userSpaceOnUse">
<stop stop-color="#FFB29A"/>
<stop offset="1" stop-color="#FF6435"/>
</linearGradient>
</defs>
</svg>
