<svg width="12" height="13" viewBox="0 0 12 13" fill="none" xmlns="http://www.w3.org/2000/svg">
<path d="M11.9 1.34543C11.9 1.24998 11.8 1.15452 11.7 1.05907C11.6 0.963614 11.5 0.86816 11.4 0.86816C11.3 0.772705 11.1 0.772705 11 0.772705H2C1.4 0.772705 1 1.15452 1 1.72725C1 2.29998 1.4 2.6818 2 2.6818H8.6L0.3 10.6045C-0.1 10.9863 -0.1 11.5591 0.3 11.9409C0.5 12.1318 0.7 12.2273 1 12.2273C1.3 12.2273 1.5 12.1318 1.7 11.9409L10 4.01816V10.3182C10 10.8909 10.4 11.2727 11 11.2727C11.6 11.2727 12 10.8909 12 10.3182V1.72725C12 1.6318 12 1.44089 11.9 1.34543Z" fill="#FF6435"/>
</svg>
