<svg width="20" height="21" viewBox="0 0 20 21" fill="none" xmlns="http://www.w3.org/2000/svg">
<g clip-path="url(#clip0_961_1109)">
<path d="M13.7123 14.7494C14.4482 16.0261 15.1759 17.2883 15.9031 18.5491C12.6831 21.0136 7.67329 21.3115 3.96464 18.4733C-0.303207 15.2047 -1.00467 9.62752 1.28027 5.61281C3.90828 0.995026 8.82615 -0.0262251 11.9926 0.722619C11.9069 0.9086 10.0105 4.84181 10.0105 4.84181C10.0105 4.84181 9.86056 4.85166 9.77575 4.8533C8.83983 4.89296 8.14275 5.11066 7.3956 5.49684C6.57588 5.92446 5.8734 6.54629 5.34956 7.30797C4.82573 8.06966 4.49648 8.94802 4.3906 9.86629C4.28013 10.7975 4.40894 11.7416 4.76486 12.6092C5.0658 13.3428 5.49149 13.9942 6.06217 14.5442C6.93763 15.3888 7.97942 15.9117 9.187 16.0849C10.3306 16.249 11.4304 16.0865 12.4609 15.5688C12.8475 15.3749 13.1763 15.1607 13.5607 14.867C13.6097 14.8352 13.6532 14.795 13.7123 14.7494Z" fill="#FF492C"/>
<path d="M13.7194 3.55254C13.5326 3.36875 13.3594 3.19918 13.187 3.02851C13.0842 2.92677 12.9851 2.82092 12.8798 2.72164C12.842 2.68582 12.7977 2.63686 12.7977 2.63686C12.7977 2.63686 12.8336 2.56083 12.8489 2.52965C13.0505 2.12514 13.3665 1.82948 13.7413 1.59427C14.1558 1.3322 14.6386 1.19886 15.1289 1.2111C15.7562 1.22341 16.3395 1.37958 16.8317 1.80022C17.195 2.11064 17.3813 2.50448 17.4141 2.97463C17.4688 3.76778 17.1405 4.37523 16.4886 4.79915C16.1056 5.04859 15.6925 5.2414 15.2783 5.46978C15.0498 5.59586 14.8545 5.70663 14.6313 5.93473C14.4348 6.16365 14.4253 6.37944 14.4253 6.37944L17.3928 6.37561V7.69689H12.8122C12.8122 7.69689 12.8122 7.60664 12.8122 7.56917C12.7947 6.91988 12.8705 6.30888 13.1679 5.71921C13.4415 5.17823 13.8666 4.7822 14.3774 4.47724C14.7708 4.24231 15.185 4.04238 15.5792 3.80853C15.8224 3.6644 15.9942 3.45298 15.9929 3.14639C15.9929 2.88328 15.8014 2.64944 15.5278 2.57641C14.8827 2.40247 14.2261 2.68007 13.8847 3.27029C13.8349 3.35644 13.784 3.44204 13.7194 3.55254Z" fill="#FF492C"/>
<path d="M19.4594 13.3449L16.9586 9.02747H12.0099L9.49292 13.3895H14.4781L16.9381 17.6865L19.4594 13.3449Z" fill="#FF492C"/>
</g>
<defs>
<clipPath id="clip0_961_1109">
<rect width="19.4595" height="20" fill="white" transform="translate(0 0.5)"/>
</clipPath>
</defs>
</svg>
