<svg width="24" height="8" viewBox="0 0 24 8" fill="none" xmlns="http://www.w3.org/2000/svg">
<path d="M5.51 5.8V4.77H4.71V0.5H3.43L0.35 4.77V5.8H3.43V7.5H4.71V5.8H5.51ZM3.43 4.77H1.48L3.43 2.05V4.77ZM6.15938 6.02V7.5H7.56938V6.02H6.15938ZM11.8738 3.77C12.4338 3.62 13.0538 3.14 13.0538 2.26C13.0538 1.26 12.1438 0.409999 10.7038 0.409999C9.25383 0.409999 8.34383 1.25 8.34383 2.72H9.54383C9.55383 1.8 10.1238 1.51 10.7138 1.51C11.3038 1.51 11.8138 1.82 11.8138 2.4C11.8138 2.81 11.6038 3.41 10.5338 3.41H10.2138V4.27H10.5338C11.6438 4.27 12.1038 4.8 12.1038 5.41C12.1038 6.21 11.3838 6.52 10.7438 6.52C10.0338 6.52 9.36383 6.12 9.32383 5.18H8.12383C8.12383 6.61 9.09383 7.62 10.7438 7.62C12.4238 7.62 13.3838 6.73 13.3838 5.47C13.3838 4.31 12.4338 3.84 11.8738 3.77ZM17.8897 0.5H16.5997L13.8797 7.49H15.1597L17.8897 0.5ZM21.2691 2.69C20.3391 2.69 19.8491 3.15 19.7391 3.29L19.9991 1.52H22.9591V0.5H19.1391L18.5991 4.31H19.7591C20.0491 3.92 20.4391 3.68 20.9991 3.68C21.4791 3.68 22.3391 4 22.3391 5.11C22.3391 6.26 21.5591 6.57 20.9491 6.57C20.2891 6.57 19.6291 6.18 19.5991 5.3H18.4391C18.4291 6.63 19.3691 7.6 20.9491 7.6C22.5591 7.6 23.6091 6.7 23.6091 5.11C23.6091 3.59 22.5591 2.69 21.2691 2.69Z" fill="black"/>
</svg>
