<svg width="63" height="12" viewBox="0 0 63 12" fill="none" xmlns="http://www.w3.org/2000/svg">
<path d="M5.5 0.5L7.28452 3.54382L10.7308 4.30041L8.38741 6.93818L8.73282 10.4496L5.5 9.036L2.26718 10.4496L2.61259 6.93818L0.269189 4.30041L3.71548 3.54382L5.5 0.5Z" fill="#FF492C"/>
<path d="M18.5 0.5L20.2845 3.54382L23.7308 4.30041L21.3874 6.93818L21.7328 10.4496L18.5 9.036L15.2672 10.4496L15.6126 6.93818L13.2692 4.30041L16.7155 3.54382L18.5 0.5Z" fill="#FF492C"/>
<path d="M31.5 0.5L33.2845 3.54382L36.7308 4.30041L34.3874 6.93818L34.7328 10.4496L31.5 9.036L28.2672 10.4496L28.6126 6.93818L26.2692 4.30041L29.7155 3.54382L31.5 0.5Z" fill="#FF492C"/>
<path d="M44.5 0.5L46.2845 3.54382L49.7308 4.30041L47.3874 6.93818L47.7328 10.4496L44.5 9.036L41.2672 10.4496L41.6126 6.93818L39.2692 4.30041L42.7155 3.54382L44.5 0.5Z" fill="#FF492C"/>
<path d="M57.5 0.5L59.2845 3.54382L62.7308 4.30041L60.3874 6.93818L60.7328 10.4496L57.5 9.036L54.2672 10.4496L54.6126 6.93818L52.2692 4.30041L55.7155 3.54382L57.5 0.5Z" fill="#B2B2B2"/>
</svg>
