<svg width="32" height="32" viewBox="0 0 32 32" fill="none" xmlns="http://www.w3.org/2000/svg">
<path d="M19.6936 20.293L17.4116 23.146C13.8773 21.0687 10.9319 18.1234 8.85463 14.589L11.7076 12.307C12.0417 12.0392 12.2778 11.6684 12.3791 11.2524C12.4804 10.8363 12.4412 10.3985 12.2676 10.007L9.66763 4.15204C9.48135 3.73188 9.15181 3.39159 8.73784 3.19193C8.32387 2.99227 7.85241 2.94624 7.40763 3.06204L2.45763 4.34604C1.99543 4.46626 1.59351 4.75208 1.32821 5.14919C1.06292 5.5463 0.952748 6.02703 1.01863 6.50004C1.88722 12.6857 4.74596 18.4204 9.16269 22.8373C13.5794 27.2542 19.314 30.1132 25.4996 30.982C25.9724 31.0468 26.4524 30.9361 26.8491 30.671C27.2458 30.4058 27.5316 30.0046 27.6526 29.543L28.9366 24.593C29.0516 24.1487 29.0052 23.6779 28.8058 23.2645C28.6064 22.8511 28.2669 22.5218 27.8476 22.335L21.9926 19.735C21.6016 19.5612 21.164 19.5216 20.7481 19.6225C20.3322 19.7235 19.9615 19.9592 19.6936 20.293Z" stroke="#212121" stroke-width="2" stroke-miterlimit="10" stroke-linecap="square"/>
<path d="M25 5V9" stroke="#212121" stroke-width="2" stroke-miterlimit="10" stroke-linecap="square"/>
<path d="M23 7H27" stroke="#212121" stroke-width="2" stroke-miterlimit="10" stroke-linecap="square"/>
<path d="M25.0002 1.00001C23.9894 0.998126 22.9946 1.25208 22.1085 1.73823C21.2223 2.22438 20.4736 2.9269 19.9321 3.78036C19.3905 4.63382 19.0738 5.61045 19.0114 6.61928C18.949 7.62811 19.143 8.63633 19.5752 9.55001L19.0002 13L22.4502 12.425C23.264 12.8095 24.1539 13.006 25.0539 12.9999C25.9539 12.9938 26.8411 12.7853 27.6496 12.3898C28.4581 11.9943 29.1673 11.422 29.7246 10.7153C30.2819 10.0085 30.6731 9.18545 30.8692 8.30701C31.0652 7.42857 31.0611 6.51728 30.8572 5.64063C30.6533 4.76398 30.2548 3.94444 29.6911 3.24272C29.1275 2.54099 28.4132 1.97506 27.6012 1.58684C26.7892 1.19862 25.9002 0.998057 25.0002 1.00001Z" stroke="#212121" stroke-width="2" stroke-miterlimit="10" stroke-linecap="square"/>
</svg>
