<svg width="30" height="31" viewBox="0 0 30 31" fill="none" xmlns="http://www.w3.org/2000/svg">
<path d="M15 21C18.3137 21 21 18.3137 21 15C21 11.6863 18.3137 9 15 9C11.6863 9 9 11.6863 9 15C9 18.3137 11.6863 21 15 21Z" stroke="#212121" stroke-width="2" stroke-miterlimit="10" stroke-linecap="square"/>
<path d="M20.6 27.835C17.8371 29.0408 14.7587 29.3226 11.8228 28.6385C8.88687 27.9544 6.25018 26.3408 4.30489 24.0379C2.35961 21.7349 1.20963 18.8655 1.02601 15.8566C0.84238 12.8476 1.63491 9.85967 3.28573 7.33725C4.93655 4.81484 7.35747 2.89266 10.1884 1.85659C13.0194 0.820524 16.1092 0.725916 18.9982 1.58684C21.8872 2.44776 24.4212 4.21822 26.2233 6.63491C28.0253 9.0516 28.9992 11.9854 29 15V17C29 18.0609 28.5786 19.0783 27.8284 19.8284C27.0783 20.5786 26.0609 21 25 21C23.9391 21 22.9217 20.5786 22.1716 19.8284C21.4214 19.0783 21 18.0609 21 17V9" stroke="#212121" stroke-width="2" stroke-miterlimit="10" stroke-linecap="square"/>
</svg>
