<svg width="32" height="32" viewBox="0 0 32 32" fill="none" xmlns="http://www.w3.org/2000/svg">
<path d="M16.0036 7.78394C11.4663 7.78394 7.79297 11.4613 7.79297 15.9946C7.79297 20.5319 11.4703 24.2053 16.0036 24.2053C20.541 24.2053 24.2143 20.5279 24.2143 15.9946C24.2143 11.4573 20.537 7.78394 16.0036 7.78394ZM16.0036 21.3239C13.0583 21.3239 10.6743 18.9386 10.6743 15.9946C10.6743 13.0506 13.0596 10.6653 16.0036 10.6653C18.9476 10.6653 21.333 13.0506 21.333 15.9946C21.3343 18.9386 18.949 21.3239 16.0036 21.3239Z" fill="#212121"/>
<path d="M22.5976 0.101492C19.6536 -0.0358412 12.3616 -0.0291746 9.41497 0.101492C6.82564 0.222825 4.54164 0.848158 2.7003 2.68949C-0.37703 5.76683 0.016303 9.91349 0.016303 15.9948C0.016303 22.2188 -0.330364 26.2695 2.7003 29.3002C5.78964 32.3882 9.9963 31.9842 16.0056 31.9842C22.171 31.9842 24.299 31.9882 26.479 31.1442C29.443 29.9935 31.6803 27.3442 31.899 22.5855C32.0376 19.6402 32.0296 12.3495 31.899 9.40283C31.635 3.78549 28.6203 0.378825 22.5976 0.101492V0.101492ZM27.2576 27.2642C25.2403 29.2815 22.4416 29.1015 15.967 29.1015C9.3003 29.1015 6.62697 29.2002 4.6763 27.2442C2.42964 25.0082 2.8363 21.4175 2.8363 15.9735C2.8363 8.60682 2.0803 3.30149 9.47364 2.92283C11.1723 2.86283 11.6723 2.84283 15.9483 2.84283L16.0083 2.88283C23.1136 2.88283 28.6883 2.13882 29.023 9.53082C29.099 11.2175 29.1163 11.7242 29.1163 15.9935C29.115 22.5828 29.2403 25.2722 27.2576 27.2642V27.2642Z" fill="#212121"/>
<path d="M24.5398 9.37884C25.5994 9.37884 26.4584 8.51982 26.4584 7.46017C26.4584 6.40052 25.5994 5.5415 24.5398 5.5415C23.4801 5.5415 22.6211 6.40052 22.6211 7.46017C22.6211 8.51982 23.4801 9.37884 24.5398 9.37884Z" fill="#212121"/>
</svg>
