<svg width="12" height="13" viewBox="0 0 12 13" fill="none" xmlns="http://www.w3.org/2000/svg">
<path d="M2 3.21261C2 2.36057 2.42143 1.54343 3.17157 0.94095C3.92172 0.33847 4.93913 0 6 0C7.06087 0 8.07828 0.33847 8.82843 0.94095C9.57857 1.54343 10 2.36057 10 3.21261V5.62206H8V3.21261C8 2.78659 7.78929 2.37802 7.41421 2.07678C7.03914 1.77554 6.53043 1.6063 6 1.6063C5.46957 1.6063 4.96086 1.77554 4.58579 2.07678C4.21071 2.37802 4 2.78659 4 3.21261V5.62206H2V3.21261ZM12 12.0473C12 12.2603 11.8946 12.4646 11.7071 12.6152C11.5196 12.7658 11.2652 12.8504 11 12.8504H1C0.734784 12.8504 0.48043 12.7658 0.292893 12.6152C0.105357 12.4646 0 12.2603 0 12.0473V7.22836C0 7.01535 0.105357 6.81107 0.292893 6.66045C0.48043 6.50983 0.734784 6.42521 1 6.42521H11C11.2652 6.42521 11.5196 6.50983 11.7071 6.66045C11.8946 6.81107 12 7.01535 12 7.22836V12.0473Z" fill="white"/>
</svg>
