<svg width="32" height="32" viewBox="0 0 32 32" fill="none" xmlns="http://www.w3.org/2000/svg">
<path d="M22.5974 0.100638C19.6534 -0.0366957 12.3614 -0.030029 9.41473 0.100638C6.82539 0.221971 4.54139 0.847304 2.70006 2.68864C-0.377275 5.76597 0.0160589 9.91264 0.0160589 15.994C0.0160589 22.218 -0.330608 26.2686 2.70006 29.2993C5.78939 32.3873 9.99606 31.9833 16.0054 31.9833C22.1707 31.9833 24.2987 31.9873 26.4787 31.1433C29.4427 29.9926 31.6801 27.3433 31.8987 22.5846C32.0374 19.6393 32.0294 12.3486 31.8987 9.40197C31.6347 3.78464 28.6201 0.377971 22.5974 0.100638V0.100638ZM27.2574 27.2633C25.2401 29.2806 22.4414 29.1006 15.9667 29.1006C9.30006 29.1006 6.62673 29.1993 4.67606 27.2433C2.42939 25.0073 2.83606 21.4166 2.83606 15.9726C2.83606 8.60597 2.08006 3.30064 9.47339 2.92197C11.1721 2.86197 11.6721 2.84197 15.9481 2.84197L16.0081 2.88197C23.1134 2.88197 28.6881 2.13797 29.0227 9.52997C29.0987 11.2166 29.1161 11.7233 29.1161 15.9926C29.1147 22.582 29.2401 25.2713 27.2574 27.2633V27.2633Z" fill="#212121"/>
<path d="M25.3331 11.0698C24.6885 11.3643 24.0017 11.5594 23.2856 11.6542C24.0223 11.1962 24.5845 10.4764 24.8488 9.60878C24.162 10.0352 23.4037 10.3365 22.5955 10.5046C21.9433 9.78139 21.0138 9.3335 19.9998 9.3335C18.0325 9.3335 16.4487 10.9965 16.4487 13.0351C16.4487 13.3285 16.4725 13.6105 16.531 13.879C13.5768 13.729 10.9627 12.2544 9.20659 10.0082C8.90001 10.5621 8.72017 11.1962 8.72017 11.8787C8.72017 13.1604 9.35392 14.2965 10.2986 14.9542C9.72767 14.9429 9.16759 14.7703 8.69309 14.4984C8.69309 14.5097 8.69309 14.5244 8.69309 14.539C8.69309 16.3374 9.92484 17.8311 11.5401 18.1752C11.2508 18.2576 10.9356 18.2971 10.6084 18.2971C10.3809 18.2971 10.1513 18.2835 9.93567 18.2339C10.3961 19.6994 11.7026 20.7769 13.2561 20.8119C12.0471 21.7968 10.512 22.3902 8.85017 22.3902C8.55876 22.3902 8.27926 22.3767 7.99976 22.3394C9.57384 23.3966 11.4393 24.0002 13.4511 24.0002C19.9901 24.0002 23.5651 18.3591 23.5651 13.4695C23.5651 13.3059 23.5597 13.148 23.5521 12.9911C24.2573 12.4699 24.8499 11.8189 25.3331 11.0698Z" fill="#212121"/>
</svg>
