<svg width="31" height="52" viewBox="0 0 31 52" fill="none" xmlns="http://www.w3.org/2000/svg">
<path d="M8.61108 44.7778V46.5001L11.5432 50.9003C11.8618 51.3782 12.4 51.6667 12.9769 51.6667H18.023C18.6 51.6667 19.1382 51.3782 19.4568 50.9003L22.3889 46.5001V44.7778H8.61108Z" fill="url(#paint0_radial_1499_42)"/>
<path d="M8.61108 35.5208H22.3889V46.4999H8.61108V35.5208Z" fill="url(#paint1_linear_1499_42)"/>
<path opacity="0.2" d="M21.0972 36.8124V46.1081L18.3804 50.1812C18.2986 50.3017 18.1651 50.3749 18.023 50.3749H12.9769C12.8305 50.3749 12.6971 50.3017 12.6196 50.1812L9.90275 46.1081V36.8124H21.0972ZM22.3889 35.5208H8.61108V46.4999L11.5432 50.9002C11.8618 51.3781 12.4 51.6666 12.9769 51.6666H18.023C18.6 51.6666 19.1382 51.3781 19.4568 50.9002L22.3889 46.4999V35.5208Z" fill="#424242"/>
<path d="M22.2988 39.6109L9.00328 42.2975C8.52536 42.3966 8.05175 42.0823 7.95272 41.6L7.90105 41.3331C7.80202 40.8552 8.11633 40.3816 8.59855 40.2825L21.8941 37.5959C22.372 37.4968 22.8456 37.8112 22.9447 38.2934L22.9963 38.5603C23.0911 39.0425 22.7811 39.5162 22.2988 39.6109Z" fill="#BBDEFB"/>
<path d="M22.2988 43.7959L9.00328 46.4826C8.52536 46.5816 8.05175 46.2673 7.95272 45.7851L7.90105 45.5182C7.80202 45.0402 8.11633 44.5666 8.59855 44.4676L21.8941 41.7809C22.372 41.6819 22.8456 41.9962 22.9447 42.4784L22.9963 42.7454C23.0911 43.2276 22.7811 43.7012 22.2988 43.7959Z" fill="#90CAF9"/>
<path d="M31 15.5C31 6.94056 24.0594 0 15.5 0C6.94056 0 0 6.94056 0 15.5C0 19.2717 1.45097 22.6386 3.58222 25.4114C5.54125 27.9603 6.62195 30.6383 6.38514 32.5801C5.8125 37.2689 8.64556 37.8889 8.64556 37.8889H22.3544C22.3544 37.8889 25.1875 37.2689 24.6149 32.5801C24.3781 30.6383 25.4587 27.9603 27.4178 25.4114C29.549 22.6386 31 19.2717 31 15.5Z" fill="url(#paint2_radial_1499_42)"/>
<mask id="mask0_1499_42" style="mask-type:luminance" maskUnits="userSpaceOnUse" x="0" y="0" width="31" height="38">
<path d="M31 15.5C31 6.94056 24.0594 0 15.5 0C6.94056 0 0 6.94056 0 15.5C0 19.2717 1.45097 22.6386 3.58222 25.4114C5.54125 27.9603 6.62195 30.6383 6.38514 32.5801C5.8125 37.2689 8.64556 37.8889 8.64556 37.8889H22.3544C22.3544 37.8889 25.1875 37.2689 24.6149 32.5801C24.3781 30.6383 25.4587 27.9603 27.4178 25.4114C29.549 22.6386 31 19.2717 31 15.5Z" fill="white"/>
</mask>
<g mask="url(#mask0_1499_42)">
<path d="M17.9886 38.7672H17.9326C17.5753 38.7371 17.3126 38.4228 17.3428 38.0697L17.5537 35.551C18.2426 30.2551 20.1457 23.9346 21.2781 20.5633C20.6408 20.2705 19.9778 19.7324 19.474 19.065C19.1382 18.6172 18.8971 18.1522 18.7593 17.6829C17.6528 17.6011 16.6969 17.2222 15.9349 16.6926C15.2158 17.3385 14.1868 17.881 12.7229 18.023C12.3569 18.0575 12.0125 18.0747 11.6896 18.0661C11.4485 18.6603 11.1212 19.3147 10.6778 20.0424C10.4151 20.4772 10.0449 20.813 9.59708 21.0369L14.4667 37.5315C14.5657 37.8717 14.3719 38.2333 14.0318 38.3324C13.6917 38.4314 13.33 38.2376 13.231 37.8975L8.33986 21.3426C8.22791 21.3469 8.10736 21.3469 7.99111 21.3383C6.59611 21.2608 5.18819 20.4428 4.71889 19.431C4.43041 18.811 4.4993 18.1694 4.90833 17.6312C5.23555 17.1964 5.72208 16.9208 6.2775 16.8433C6.84153 16.7701 7.42278 16.9208 7.86625 17.261C8.835 18.0101 9.09333 19.1985 9.14069 19.4826L9.2225 19.7625C9.35597 19.6635 9.47653 19.5386 9.57555 19.375C9.82958 18.9574 10.1181 18.4364 10.3635 17.8853C9.70472 17.7001 9.17944 17.3815 8.79625 16.9208C8.18055 16.1846 8.05569 15.1211 8.46472 14.1437C8.64555 13.7175 9.09764 13.1664 9.79083 13.0286C10.3462 12.9167 10.9146 13.1147 11.3882 13.5797C11.9824 14.1653 12.4474 15.1469 12.0986 16.7701C12.2579 16.7658 12.4258 16.7529 12.5981 16.7357C13.6529 16.6324 14.415 16.275 14.9618 15.8272C14.5915 15.4096 14.316 14.9661 14.1394 14.5312C13.7132 13.4721 13.8467 12.4387 14.5011 11.7671C15.0393 11.2117 15.5517 11.1428 15.8832 11.1815C16.5506 11.259 16.9596 11.7886 17.1447 12.0986C17.4978 12.6885 17.6269 13.7218 17.4246 14.3547C17.3169 14.6905 17.1232 15.1857 16.7787 15.7024C17.2954 16.0339 17.9197 16.2793 18.6344 16.3611C18.6603 16.1329 18.7119 15.909 18.7851 15.6851C19.3664 14.0017 20.3394 13.5711 20.869 13.4678C21.4632 13.3472 22.066 13.5108 22.3975 13.8854C22.7936 14.3289 23.0046 15.2589 22.6085 16.1028C22.32 16.7271 21.6483 17.4375 20.1156 17.6355C20.2318 17.8982 20.3782 18.1178 20.4987 18.2771C20.8819 18.7851 21.334 19.1296 21.6914 19.3233C21.8076 18.9961 21.9024 18.7335 21.9756 18.5354C22.6774 16.6883 24.0681 15.8789 25.0799 16.0382C25.6956 16.1329 26.3758 16.628 26.4404 17.7389C26.4749 18.3503 26.2725 18.9186 25.8549 19.3879C24.9206 20.4342 23.2156 20.7054 22.5525 20.7743C21.4503 24.0336 19.5128 30.3972 18.8239 35.6801L18.6129 38.1687C18.6 38.5132 18.3201 38.7672 17.9886 38.7672ZM6.56597 18.1135C6.52722 18.1135 6.48847 18.1178 6.44972 18.1221C6.23875 18.1522 6.05791 18.2512 5.94166 18.4062C5.82111 18.5655 5.80819 18.7033 5.8943 18.8842C6.1268 19.3793 6.99653 19.9476 7.95667 20.038L7.88778 19.8055C7.87916 19.7711 7.87055 19.741 7.86625 19.7065C7.86625 19.7022 7.72847 18.7851 7.07403 18.2814C6.93194 18.1737 6.75111 18.1135 6.56597 18.1135ZM24.8258 17.3169C24.3867 17.3169 23.6246 17.868 23.194 19.0004C23.151 19.1124 23.1036 19.2458 23.0476 19.4008C23.7322 19.2587 24.5029 18.9789 24.9076 18.5311C25.1014 18.3158 25.1832 18.0919 25.166 17.8207C25.1487 17.515 25.0583 17.3471 24.899 17.3255C24.8732 17.3212 24.8517 17.3169 24.8258 17.3169ZM10.0965 14.2901C10.0793 14.2901 10.0621 14.2901 10.0449 14.2944C9.88125 14.3289 9.71764 14.5011 9.65736 14.6432C9.43347 15.1728 9.48514 15.7282 9.79083 16.0899C10.0147 16.3568 10.3549 16.5505 10.8026 16.6582C11.0179 15.8143 11.0007 15.0092 10.484 14.5011C10.3376 14.359 10.2085 14.2901 10.0965 14.2901ZM21.2694 14.7293C21.2092 14.7293 21.1317 14.7379 21.0456 14.768C20.6322 14.9015 20.2663 15.3837 20.0122 16.12C19.9821 16.2018 19.9606 16.2836 19.9476 16.3654C20.714 16.2707 21.2307 16.008 21.4374 15.5947C21.6354 15.2072 21.4976 14.824 21.446 14.7551C21.4331 14.7508 21.3685 14.7293 21.2694 14.7293ZM15.7239 12.4689C15.6851 12.4689 15.5775 12.5119 15.4225 12.6712C15.0092 13.0975 15.2201 13.7778 15.3321 14.0533C15.4397 14.316 15.599 14.5829 15.8014 14.8412C15.9865 14.5312 16.1071 14.2299 16.1889 13.9758C16.2793 13.6874 16.1975 13.0458 16.0296 12.7703C15.9133 12.5765 15.7842 12.4775 15.7282 12.4732C15.7282 12.4689 15.7282 12.4689 15.7239 12.4689Z" fill="#FFD54F"/>
</g>
<mask id="mask1_1499_42" style="mask-type:luminance" maskUnits="userSpaceOnUse" x="0" y="0" width="31" height="38">
<path d="M31 15.5C31 6.94056 24.0594 0 15.5 0C6.94056 0 0 6.94056 0 15.5C0 19.2717 1.45097 22.6386 3.58222 25.4114C5.54125 27.9603 6.62195 30.6383 6.38514 32.5801C5.8125 37.2689 8.64556 37.8889 8.64556 37.8889H22.3544C22.3544 37.8889 25.1875 37.2689 24.6149 32.5801C24.3781 30.6383 25.4587 27.9603 27.4178 25.4114C29.549 22.6386 31 19.2717 31 15.5Z" fill="white"/>
</mask>
<g mask="url(#mask1_1499_42)">
<path d="M17.9886 38.7672H17.9326C17.5753 38.7371 17.3126 38.4228 17.3428 38.0697L17.5537 35.551C18.2426 30.2551 20.1457 23.9346 21.2781 20.5633C20.6408 20.2705 19.9778 19.7324 19.474 19.065C19.1382 18.6172 18.8971 18.1522 18.7593 17.6829C17.6528 17.6011 16.6969 17.2222 15.9349 16.6926C15.2158 17.3385 14.1868 17.881 12.7229 18.023C12.3569 18.0575 12.0125 18.0747 11.6896 18.0661C11.4485 18.6603 11.1212 19.3147 10.6778 20.0424C10.4151 20.4772 10.0449 20.813 9.59708 21.0369L14.4667 37.5315C14.5657 37.8717 14.3719 38.2333 14.0318 38.3324C13.6917 38.4314 13.33 38.2376 13.231 37.8975L8.33986 21.3426C8.22791 21.3469 8.10736 21.3469 7.99111 21.3383C6.59611 21.2608 5.18819 20.4428 4.71889 19.431C4.43041 18.811 4.4993 18.1694 4.90833 17.6312C5.23555 17.1964 5.72208 16.9208 6.2775 16.8433C6.84153 16.7701 7.42278 16.9208 7.86625 17.261C8.835 18.0101 9.09333 19.1985 9.14069 19.4826L9.2225 19.7625C9.35597 19.6635 9.47653 19.5386 9.57555 19.375C9.82958 18.9574 10.1181 18.4364 10.3635 17.8853C9.70472 17.7001 9.17944 17.3815 8.79625 16.9208C8.18055 16.1846 8.05569 15.1211 8.46472 14.1437C8.64555 13.7175 9.09764 13.1664 9.79083 13.0286C10.3462 12.9167 10.9146 13.1147 11.3882 13.5797C11.9824 14.1653 12.4474 15.1469 12.0986 16.7701C12.2579 16.7658 12.4258 16.7529 12.5981 16.7357C13.6529 16.6324 14.415 16.275 14.9618 15.8272C14.5915 15.4096 14.316 14.9661 14.1394 14.5312C13.7132 13.4721 13.8467 12.4387 14.5011 11.7671C15.0393 11.2117 15.5517 11.1428 15.8832 11.1815C16.5506 11.259 16.9596 11.7886 17.1447 12.0986C17.4978 12.6885 17.6269 13.7218 17.4246 14.3547C17.3169 14.6905 17.1232 15.1857 16.7787 15.7024C17.2954 16.0339 17.9197 16.2793 18.6344 16.3611C18.6603 16.1329 18.7119 15.909 18.7851 15.6851C19.3664 14.0017 20.3394 13.5711 20.869 13.4678C21.4632 13.3472 22.066 13.5108 22.3975 13.8854C22.7936 14.3289 23.0046 15.2589 22.6085 16.1028C22.32 16.7271 21.6483 17.4375 20.1156 17.6355C20.2318 17.8982 20.3782 18.1178 20.4987 18.2771C20.8819 18.7851 21.334 19.1296 21.6914 19.3233C21.8076 18.9961 21.9024 18.7335 21.9756 18.5354C22.6774 16.6883 24.0681 15.8789 25.0799 16.0382C25.6956 16.1329 26.3758 16.628 26.4404 17.7389C26.4749 18.3503 26.2725 18.9186 25.8549 19.3879C24.9206 20.4342 23.2156 20.7054 22.5525 20.7743C21.4503 24.0336 19.5128 30.3972 18.8239 35.6801L18.6129 38.1687C18.6 38.5132 18.3201 38.7672 17.9886 38.7672ZM6.56597 18.1135C6.52722 18.1135 6.48847 18.1178 6.44972 18.1221C6.23875 18.1522 6.05791 18.2512 5.94166 18.4062C5.82111 18.5655 5.80819 18.7033 5.8943 18.8842C6.1268 19.3793 6.99653 19.9476 7.95667 20.038L7.88778 19.8055C7.87916 19.7711 7.87055 19.741 7.86625 19.7065C7.86625 19.7022 7.72847 18.7851 7.07403 18.2814C6.93194 18.1737 6.75111 18.1135 6.56597 18.1135ZM24.8258 17.3169C24.3867 17.3169 23.6246 17.868 23.194 19.0004C23.151 19.1124 23.1036 19.2458 23.0476 19.4008C23.7322 19.2587 24.5029 18.9789 24.9076 18.5311C25.1014 18.3158 25.1832 18.0919 25.166 17.8207C25.1487 17.515 25.0583 17.3471 24.899 17.3255C24.8732 17.3212 24.8517 17.3169 24.8258 17.3169ZM10.0965 14.2901C10.0793 14.2901 10.0621 14.2901 10.0449 14.2944C9.88125 14.3289 9.71764 14.5011 9.65736 14.6432C9.43347 15.1728 9.48514 15.7282 9.79083 16.0899C10.0147 16.3568 10.3549 16.5505 10.8026 16.6582C11.0179 15.8143 11.0007 15.0092 10.484 14.5011C10.3376 14.359 10.2085 14.2901 10.0965 14.2901ZM21.2694 14.7293C21.2092 14.7293 21.1317 14.7379 21.0456 14.768C20.6322 14.9015 20.2663 15.3837 20.0122 16.12C19.9821 16.2018 19.9606 16.2836 19.9476 16.3654C20.714 16.2707 21.2307 16.008 21.4374 15.5947C21.6354 15.2072 21.4976 14.824 21.446 14.7551C21.4331 14.7508 21.3685 14.7293 21.2694 14.7293ZM15.7239 12.4689C15.6851 12.4689 15.5775 12.5119 15.4225 12.6712C15.0092 13.0975 15.2201 13.7778 15.3321 14.0533C15.4397 14.316 15.599 14.5829 15.8014 14.8412C15.9865 14.5312 16.1071 14.2299 16.1889 13.9758C16.2793 13.6874 16.1975 13.0458 16.0296 12.7703C15.9133 12.5765 15.7842 12.4775 15.7282 12.4732C15.7282 12.4689 15.7282 12.4689 15.7239 12.4689Z" fill="#FDD835"/>
<path opacity="0.2" d="M15.7282 11.1773C15.7842 11.1773 15.8316 11.1816 15.8832 11.1859C16.5506 11.2634 16.9596 11.793 17.1448 12.103C17.4978 12.6928 17.627 13.7262 17.4246 14.3591C17.317 14.6949 17.1232 15.1901 16.7788 15.7067C17.2955 16.0382 17.9198 16.2837 18.6345 16.3655C18.6603 16.1373 18.712 15.9134 18.7852 15.6895C19.3664 14.006 20.3395 13.5755 20.8691 13.4721C20.9982 13.4463 21.1274 13.4334 21.2566 13.4334C21.713 13.4334 22.1392 13.597 22.3975 13.8898C22.7936 14.3332 23.0046 15.2632 22.6085 16.1071C22.32 16.7314 21.6484 17.4419 20.1156 17.6399C20.2318 17.9026 20.3782 18.1221 20.4988 18.2814C20.882 18.7895 21.3341 19.1339 21.6914 19.3277C21.8077 19.0005 21.9024 18.7378 21.9756 18.5398C22.6171 16.8434 23.8442 16.021 24.8259 16.021C24.912 16.021 24.9981 16.0253 25.0799 16.0382C25.6956 16.133 26.3759 16.6281 26.4405 17.7389C26.4749 18.3503 26.2725 18.9187 25.8549 19.388C24.9206 20.4342 23.2156 20.7055 22.5525 20.7744C21.4503 24.0337 19.5128 30.3973 18.8239 35.6802L18.613 38.1688C18.5828 38.5046 18.303 38.7587 17.9714 38.7587H17.9155C17.5581 38.7285 17.2955 38.4142 17.3256 38.0612L17.5366 35.5424C18.2255 30.2466 20.1285 23.926 21.2609 20.5548C20.6236 20.262 19.9606 19.7238 19.4568 19.0564C19.121 18.6087 18.8799 18.1437 18.7421 17.6744C17.6528 17.6012 16.697 17.2223 15.9349 16.6927C15.2159 17.3385 14.1868 17.881 12.723 18.0231C12.4216 18.0532 12.1374 18.0662 11.8661 18.0662H11.6896C11.4485 18.6603 11.1213 19.3148 10.6778 20.0424C10.4152 20.4773 10.0449 20.8131 9.59712 21.037L14.4667 37.5316C14.5657 37.8717 14.372 38.2334 14.0318 38.3324C13.9716 38.3496 13.9113 38.3582 13.8467 38.3582C13.5668 38.3582 13.3085 38.1774 13.2267 37.8932L8.3399 21.3427C8.29253 21.3427 8.24517 21.347 8.19781 21.347C8.12892 21.347 8.06003 21.347 7.98684 21.3427C6.59184 21.2652 5.18392 20.4471 4.71462 19.4353C4.42615 18.8153 4.49503 18.1738 4.90406 17.6356C5.23128 17.2007 5.71781 16.9252 6.27323 16.8477C6.36795 16.8348 6.46267 16.8305 6.5574 16.8305C7.0267 16.8305 7.4917 16.9855 7.86198 17.2696C8.83073 18.0188 9.08906 19.2071 9.13642 19.4913L9.21823 19.7712C9.3517 19.6721 9.47226 19.5473 9.57128 19.3837C9.82531 18.966 10.1138 18.4451 10.3592 17.8939C9.70045 17.7088 9.17517 17.3902 8.79198 16.9295C8.17628 16.1932 8.05142 15.1298 8.46045 14.1524C8.64129 13.7262 9.09337 13.1751 9.78656 13.0373C9.8899 13.0157 9.98892 13.0071 10.0923 13.0071C10.5486 13.0071 10.9964 13.2095 11.3839 13.5884C11.9781 14.1739 12.4431 15.1556 12.0943 16.7788C12.2536 16.7745 12.4216 16.7616 12.5938 16.7444C13.6486 16.641 14.4107 16.2837 14.9575 15.8359C14.5873 15.4182 14.3117 14.9748 14.1352 14.5399C13.7089 13.4807 13.8424 12.4474 14.4968 11.7757C14.9575 11.2935 15.401 11.1773 15.7282 11.1773ZM15.8057 14.8413C15.9909 14.5313 16.1114 14.2299 16.1932 13.9759C16.2836 13.6874 16.2018 13.0459 16.0339 12.7703C15.9177 12.5766 15.7885 12.4776 15.7325 12.4732H15.7282C15.6895 12.4732 15.5818 12.5163 15.4268 12.6756C15.0135 13.1019 15.2245 13.7821 15.3364 14.0577C15.4398 14.3117 15.5991 14.583 15.8057 14.8413ZM10.8027 16.6582C11.018 15.8144 11.0007 15.0092 10.4841 14.5012C10.342 14.3591 10.2128 14.2902 10.0966 14.2902C10.0793 14.2902 10.0621 14.2902 10.0449 14.2945C9.88129 14.3289 9.71767 14.5012 9.6574 14.6432C9.43351 15.1728 9.48517 15.7282 9.79087 16.0899C10.0148 16.3569 10.3549 16.5506 10.8027 16.6582ZM19.9434 16.3655C20.7098 16.2707 21.2264 16.0081 21.4331 15.5948C21.6311 15.2073 21.4934 14.8241 21.4417 14.7552C21.4374 14.7552 21.3728 14.7337 21.2738 14.7337C21.2135 14.7337 21.136 14.7423 21.0499 14.7724C20.6366 14.9059 20.2706 15.3881 20.0166 16.1244C19.9778 16.2019 19.9563 16.2837 19.9434 16.3655ZM23.0434 19.4052C23.728 19.2631 24.4986 18.9832 24.9034 18.5355C25.0971 18.3202 25.1789 18.0963 25.1617 17.8251C25.1445 17.5194 25.0541 17.3514 24.8948 17.3299C24.8732 17.3256 24.8474 17.3256 24.8259 17.3256C24.3867 17.3256 23.6246 17.8767 23.1941 19.0091C23.151 19.1167 23.1036 19.2502 23.0434 19.4052ZM7.9567 20.0424L7.88781 19.8099C7.8792 19.7755 7.87059 19.7453 7.86629 19.7109C7.86629 19.7066 7.72851 18.7895 7.07406 18.2857C6.93198 18.1738 6.75115 18.1178 6.5617 18.1178C6.52295 18.1178 6.4842 18.1221 6.44545 18.1264C6.23448 18.1566 6.05365 18.2556 5.9374 18.4106C5.81684 18.5699 5.80392 18.7077 5.89004 18.8885C6.12254 19.3837 6.99656 19.952 7.9567 20.0424ZM15.7282 10.3162C15.2632 10.3162 14.5657 10.4626 13.8811 11.1687C12.9813 12.0944 12.7789 13.4721 13.3386 14.8542C13.4377 15.0996 13.5625 15.3451 13.7089 15.5819C13.5152 15.668 13.3042 15.7326 13.0803 15.7842C13.1018 14.3892 12.5378 13.498 11.9953 12.9641C11.4442 12.4216 10.7855 12.1331 10.0966 12.1331C9.93726 12.1331 9.77795 12.1503 9.62295 12.1805C8.60253 12.3871 7.94809 13.1535 7.67253 13.8037C7.35392 14.5614 7.28934 15.3623 7.45726 16.0942C7.16878 16.0038 6.8674 15.9607 6.5617 15.9607C6.42823 15.9607 6.29476 15.9694 6.16559 15.9866C5.38198 16.0899 4.69309 16.4903 4.22379 17.106C3.62101 17.9026 3.51767 18.8799 3.93962 19.7884C4.51226 21.0241 6.06226 21.9971 7.68976 22.1737L12.4043 38.1344C12.5938 38.7716 13.188 39.215 13.851 39.215C13.9931 39.215 14.1395 39.1935 14.2773 39.1548C14.6648 39.0428 14.9834 38.7845 15.1728 38.4314C15.3666 38.0784 15.4096 37.6694 15.2934 37.2862L10.6046 21.4073C10.9232 21.1532 11.1988 20.8389 11.4141 20.4859C11.7413 19.9434 12.0255 19.4181 12.258 18.9187C12.4345 18.9101 12.6196 18.8971 12.8048 18.8799C14.0361 18.7594 15.1082 18.3805 15.9995 17.7432C16.6625 18.1092 17.3816 18.3546 18.135 18.4752C18.303 18.8541 18.5182 19.2244 18.7895 19.5817C19.1942 20.1199 19.7023 20.5978 20.2405 20.9595C19.2674 23.9389 17.3988 30.0916 16.7013 35.4391L16.697 35.4563V35.4778L16.486 37.9966C16.4171 38.8232 17.0328 39.5552 17.8595 39.6241C17.9111 39.6284 17.9499 39.6284 17.9886 39.6284C18.7636 39.6284 19.4224 39.0213 19.4913 38.2506L19.698 35.7792C20.3955 30.4317 22.3932 24.0466 23.2156 21.5623C24.1499 21.403 25.5966 20.9939 26.5093 19.9692C27.082 19.3277 27.3618 18.5398 27.3102 17.6959C27.2155 16.0727 26.1261 15.3364 25.222 15.1944C25.0971 15.1771 24.968 15.1642 24.8388 15.1642C24.4728 15.1642 24.0767 15.246 23.6763 15.4182C23.7452 14.5744 23.4653 13.7864 23.0477 13.3171C22.6257 12.8478 21.9756 12.5766 21.2609 12.5766C21.0757 12.5766 20.8863 12.5938 20.7011 12.6326C19.9993 12.7746 18.7206 13.3171 17.993 15.3494C17.9843 15.3451 17.9714 15.3407 17.9628 15.3407C18.092 15.0652 18.1781 14.8155 18.2427 14.6217C18.5139 13.7563 18.3546 12.4603 17.881 11.6638C17.6141 11.2203 17.0156 10.4539 15.9823 10.3334C15.8961 10.3205 15.81 10.3162 15.7282 10.3162Z" fill="#FFFF8D"/>
</g>
<path opacity="0.2" d="M15.5 1.29167C23.3361 1.29167 29.7083 7.66389 29.7083 15.5C29.7083 18.6474 28.5631 21.8033 26.3931 24.6235C24.1714 27.5125 23.0563 30.4704 23.3318 32.7351C23.6935 35.6758 22.5353 36.4293 22.1478 36.5972H8.85222C8.46472 36.4293 7.30653 35.6801 7.66819 32.7351C7.94375 30.4704 6.82861 27.5125 4.60694 24.6235C2.43694 21.8033 1.29167 18.6474 1.29167 15.5C1.29167 7.66389 7.66389 1.29167 15.5 1.29167ZM15.5 0C6.94056 0 0 6.94056 0 15.5C0 19.2717 1.45097 22.6386 3.58222 25.4114C5.54125 27.9603 6.62195 30.6383 6.38514 32.5801C5.8125 37.2689 8.64556 37.8889 8.64556 37.8889H22.3544C22.3544 37.8889 25.1875 37.2689 24.6149 32.5801C24.3781 30.6383 25.4587 27.9603 27.4178 25.4114C29.549 22.6386 31 19.2717 31 15.5C31 6.94056 24.0594 0 15.5 0Z" fill="#424242"/>
<defs>
<radialGradient id="paint0_radial_1499_42" cx="0" cy="0" r="1" gradientUnits="userSpaceOnUse" gradientTransform="translate(15.5553 46.3924) rotate(90) scale(5.76772 10.2256)">
<stop stop-color="#1E88E5"/>
<stop offset="0.9869" stop-color="#0D47A1"/>
</radialGradient>
<linearGradient id="paint1_linear_1499_42" x1="15.5" y1="35.8437" x2="15.5" y2="47.0855" gradientUnits="userSpaceOnUse">
<stop stop-color="#90CAF9"/>
<stop offset="0.1981" stop-color="#88C6F9"/>
<stop offset="0.5085" stop-color="#72BCF7"/>
<stop offset="0.8905" stop-color="#4DAAF6"/>
<stop offset="0.9957" stop-color="#42A5F5"/>
</linearGradient>
<radialGradient id="paint2_radial_1499_42" cx="0" cy="0" r="1" gradientUnits="userSpaceOnUse" gradientTransform="translate(15.6615 0.484375) scale(39.2361 39.2361)">
<stop stop-color="#FFF59D"/>
<stop offset="0.1485" stop-color="#FFF599"/>
<stop offset="0.3111" stop-color="#FFF38B"/>
<stop offset="0.4772" stop-color="#FFF176"/>
<stop offset="0.7791" stop-color="#FFED51"/>
<stop offset="0.9957" stop-color="#FFEB3B"/>
</radialGradient>
</defs>
</svg>
