<svg width="24" height="24" viewBox="0 0 24 24" fill="none" xmlns="http://www.w3.org/2000/svg">
<path d="M20.75 7H3.25C2.56 7 2 6.328 2 5.5C2 4.672 2.56 4 3.25 4H20.75C21.44 4 22 4.672 22 5.5C22 6.328 21.44 7 20.75 7Z" fill="#666666"/>
<path d="M20.75 13H3.25C2.56 13 2 12.328 2 11.5C2 10.672 2.56 10 3.25 10H20.75C21.44 10 22 10.672 22 11.5C22 12.328 21.44 13 20.75 13Z" fill="#666666"/>
<path d="M20.75 19H3.25C2.56 19 2 18.328 2 17.5C2 16.672 2.56 16 3.25 16H20.75C21.44 16 22 16.672 22 17.5C22 18.328 21.44 19 20.75 19Z" fill="#666666"/>
<circle cx="17.5" cy="17.5" r="2.5" fill="white" stroke="#666666" stroke-width="2"/>
<circle cx="6.5" cy="11.5" r="2.5" fill="white" stroke="#666666" stroke-width="2"/>
<circle cx="14.5" cy="5.5" r="2.5" fill="white" stroke="#666666" stroke-width="2"/>
</svg>
