<svg width="98" height="40" viewBox="0 0 98 40" fill="none" xmlns="http://www.w3.org/2000/svg">
<rect y="-1.52588e-05" width="98" height="40" rx="20" fill="#8D4AFF"/>
<path d="M21.92 26.192C25.12 26.192 27.168 23.904 27.168 20.544V20.096C27.168 16.72 25.12 14.448 21.92 14.448C18.72 14.448 16.656 16.72 16.656 20.096V20.544C16.656 23.904 18.72 26.192 21.92 26.192ZM21.92 24.976C19.504 24.976 18.064 23.216 18.064 20.544V20.096C18.064 17.424 19.504 15.664 21.92 15.664C24.336 15.664 25.776 17.424 25.776 20.096V20.544C25.776 23.216 24.336 24.976 21.92 24.976ZM32.7211 26L35.7931 17.792H34.4651L32.0331 24.64L29.5531 17.792H28.1931L31.3131 26H32.7211ZM40.2464 26.192C42.1984 26.192 43.5104 25.184 43.9104 23.456H42.6144C42.3424 24.512 41.5424 25.104 40.2464 25.104C38.6464 25.104 37.6864 24.048 37.6544 22.144H43.9584C44.0704 19.392 42.8384 17.6 40.2304 17.6C37.7984 17.6 36.3424 19.296 36.3424 21.744V22.048C36.3424 24.48 37.7664 26.192 40.2464 26.192ZM37.6864 21.104C37.8624 19.536 38.7584 18.688 40.2304 18.688C41.6864 18.688 42.4864 19.584 42.6144 21.104H37.6864ZM46.7244 26V21.6C46.7244 19.808 47.7324 18.896 49.2204 18.896C49.3964 18.896 49.5084 18.896 49.6844 18.912V17.632C49.5244 17.6 49.3804 17.6 49.2524 17.6C48.1164 17.6 47.2044 18.24 46.7084 19.376L46.6924 17.792H45.4444V26H46.7244ZM54.8618 26L57.9338 17.792H56.6058L54.1738 24.64L51.6938 17.792H50.3338L53.4538 26H54.8618ZM60.4599 14.16H59.1159V16.464H60.4599V14.16ZM59.1319 17.792V26H60.4119V17.792H59.1319ZM65.887 26.192C67.839 26.192 69.151 25.184 69.551 23.456H68.255C67.983 24.512 67.183 25.104 65.887 25.104C64.287 25.104 63.327 24.048 63.295 22.144H69.599C69.711 19.392 68.479 17.6 65.871 17.6C63.439 17.6 61.983 19.296 61.983 21.744V22.048C61.983 24.48 63.407 26.192 65.887 26.192ZM63.327 21.104C63.503 19.536 64.399 18.688 65.871 18.688C67.327 18.688 68.127 19.584 68.255 21.104H63.327ZM73.878 26L75.782 19.552L77.718 26H79.078L81.638 17.792H80.342L78.406 24.48L76.422 17.792H75.158L73.206 24.432L71.286 17.792H69.99L72.502 26H73.878Z" fill="white"/>
</svg>
