<svg width="84" height="40" viewBox="0 0 84 40" fill="none" xmlns="http://www.w3.org/2000/svg">
<rect y="-1.52588e-05" width="84" height="40" rx="20" fill="#999999" fill-opacity="0.1"/>
<path d="M21.152 26V15.824H24.656V14.64H16.304V15.824H19.792V26H21.152ZM27.6339 26.192C28.8339 26.192 29.7299 25.584 30.2259 24.704L30.2419 26H31.4899V17.792H30.2099V22.4C30.2099 23.984 29.4099 25.072 28.0019 25.072C26.6259 25.072 26.0979 24.224 26.0979 22.848V17.792H24.8179V23.088C24.8179 25.008 25.7459 26.192 27.6339 26.192ZM36.7731 26.192C37.1251 26.192 37.6371 26.112 37.9731 26.032V24.944C37.7011 25.024 37.2531 25.104 36.9331 25.104C35.8611 25.104 35.5571 24.672 35.5571 23.76V18.816H37.9091V17.792H35.5571V15.264H34.2771V17.792H32.6291V18.816H34.2771V23.936C34.2771 25.44 35.1411 26.192 36.7731 26.192ZM42.7773 26.192C45.1613 26.192 46.6813 24.56 46.6813 22.048V21.744C46.6813 19.232 45.1613 17.6 42.7773 17.6C40.3932 17.6 38.8893 19.232 38.8893 21.744V22.048C38.8893 24.56 40.3932 26.192 42.7773 26.192ZM42.7773 25.104C41.1133 25.104 40.2013 23.968 40.2013 22.048V21.744C40.2013 19.824 41.1133 18.688 42.7773 18.688C44.4573 18.688 45.3693 19.824 45.3693 21.744V22.048C45.3693 23.968 44.4573 25.104 42.7773 25.104ZM49.5369 26V21.6C49.5369 19.808 50.5449 18.896 52.0329 18.896C52.2089 18.896 52.3209 18.896 52.4969 18.912V17.632C52.3369 17.6 52.1929 17.6 52.0649 17.6C50.9289 17.6 50.0169 18.24 49.5209 19.376L49.5049 17.792H48.2569V26H49.5369ZM55.0224 14.16H53.6784V16.464H55.0224V14.16ZM53.6944 17.792V26H54.9744V17.792H53.6944ZM59.2495 26.192C60.4015 26.192 61.4575 25.68 61.9855 24.72L62.0335 26H63.2335V20.432C63.2335 18.736 62.0975 17.6 60.0975 17.6C58.1935 17.6 56.9615 18.56 56.8175 20.192H58.0655C58.1615 19.2 58.9455 18.64 60.0815 18.64C61.1375 18.64 61.9695 19.168 61.9695 20.352V21.072L58.5135 21.584C57.2015 21.776 56.4975 22.672 56.4975 23.856C56.4975 25.232 57.5375 26.192 59.2495 26.192ZM59.3775 25.12C58.3375 25.12 57.7935 24.608 57.7935 23.824C57.7935 23.12 58.1455 22.672 58.9295 22.56L61.9695 22.112V22.96C61.9695 24.208 60.7535 25.12 59.3775 25.12ZM65.085 14.16V26H66.365V14.16H65.085Z" fill="#666666"/>
</svg>
