<svg width="80" height="85" viewBox="0 0 80 85" fill="none" xmlns="http://www.w3.org/2000/svg">
<g filter="url(#filter0_d_77_5380)">
<circle cx="40" cy="27" r="27" fill="#8D4AFF"/>
</g>
<mask id="mask0_77_5380" style="mask-type:alpha" maskUnits="userSpaceOnUse" x="13" y="0" width="54" height="54">
<circle cx="40" cy="27" r="27" fill="#FF6435"/>
</mask>
<g mask="url(#mask0_77_5380)">
<circle cx="43.5" cy="17.5" r="3.5" fill="#D9D9D9"/>
<circle cx="43.5" cy="17.5" r="3.5" fill="url(#paint0_linear_77_5380)"/>
<circle cx="43" cy="45" r="4" fill="#D9D9D9"/>
<circle cx="43" cy="45" r="4" fill="url(#paint1_linear_77_5380)"/>
<circle cx="35" cy="18" r="3" fill="#D9D9D9"/>
<circle cx="35" cy="18" r="3" fill="url(#paint2_linear_77_5380)"/>
<circle cx="43.5" cy="9.5" r="3.5" fill="#D9D9D9"/>
<circle cx="43.5" cy="9.5" r="3.5" fill="url(#paint3_linear_77_5380)"/>
<circle cx="49.5" cy="14.5" r="2.5" fill="#D9D9D9"/>
<circle cx="49.5" cy="14.5" r="2.5" fill="url(#paint4_linear_77_5380)"/>
<circle cx="36.5" cy="11.5" r="2.5" fill="#D9D9D9"/>
<circle cx="36.5" cy="11.5" r="2.5" fill="url(#paint5_linear_77_5380)"/>
<circle cx="29.5" cy="14.5" r="2.5" fill="#D9D9D9"/>
<circle cx="29.5" cy="14.5" r="2.5" fill="url(#paint6_linear_77_5380)"/>
<path d="M49.7285 18H29.2728C28.0195 18 27 19.0093 27 20.25V21.7263C27 22.6713 27.3714 23.5597 28.0468 24.227L35.616 29.715C35.9173 30.0133 36.0914 30.4286 36.0914 30.8516V41.0357C36.0914 41.4124 36.3122 41.7544 36.6589 41.9113C36.7888 41.9717 36.9278 42 37.0655 42C37.294 42 37.52 41.9203 37.6993 41.7673L41.3371 38.6803C42.1307 38.0091 42.5852 37.0294 42.5852 35.9957V30.8786C42.5852 30.4453 42.7658 30.0223 43.0814 29.7214L50.909 24.245C51.6026 23.5829 52 22.6546 52 21.7006V20.25C52.0013 19.0093 50.9818 18 49.7285 18Z" fill="black"/>
<path d="M49.7285 18H29.2728C28.0195 18 27 19.0093 27 20.25V21.7263C27 22.6713 27.3714 23.5597 28.0468 24.227L35.616 29.715C35.9173 30.0133 36.0914 30.4286 36.0914 30.8516V41.0357C36.0914 41.4124 36.3122 41.7544 36.6589 41.9113C36.7888 41.9717 36.9278 42 37.0655 42C37.294 42 37.52 41.9203 37.6993 41.7673L41.3371 38.6803C42.1307 38.0091 42.5852 37.0294 42.5852 35.9957V30.8786C42.5852 30.4453 42.7658 30.0223 43.0814 29.7214L50.909 24.245C51.6026 23.5829 52 22.6546 52 21.7006V20.25C52.0013 19.0093 50.9818 18 49.7285 18Z" fill="url(#paint7_linear_77_5380)"/>
</g>
<defs>
<filter id="filter0_d_77_5380" x="0" y="0" width="80" height="85" filterUnits="userSpaceOnUse" color-interpolation-filters="sRGB">
<feFlood flood-opacity="0" result="BackgroundImageFix"/>
<feColorMatrix in="SourceAlpha" type="matrix" values="0 0 0 0 0 0 0 0 0 0 0 0 0 0 0 0 0 0 127 0" result="hardAlpha"/>
<feMorphology radius="3" operator="erode" in="SourceAlpha" result="effect1_dropShadow_77_5380"/>
<feOffset dy="18"/>
<feGaussianBlur stdDeviation="8"/>
<feComposite in2="hardAlpha" operator="out"/>
<feColorMatrix type="matrix" values="0 0 0 0 0 0 0 0 0 0 0 0 0 0 0 0 0 0 0.1 0"/>
<feBlend mode="normal" in2="BackgroundImageFix" result="effect1_dropShadow_77_5380"/>
<feBlend mode="normal" in="SourceGraphic" in2="effect1_dropShadow_77_5380" result="shape"/>
</filter>
<linearGradient id="paint0_linear_77_5380" x1="43.5" y1="14" x2="43.5" y2="19.6538" gradientUnits="userSpaceOnUse">
<stop stop-color="white"/>
<stop offset="1" stop-color="#E9CEFF"/>
</linearGradient>
<linearGradient id="paint1_linear_77_5380" x1="43" y1="41" x2="43" y2="47.4615" gradientUnits="userSpaceOnUse">
<stop stop-color="white"/>
<stop offset="1" stop-color="#E9CEFF"/>
</linearGradient>
<linearGradient id="paint2_linear_77_5380" x1="35" y1="15" x2="35" y2="19.8462" gradientUnits="userSpaceOnUse">
<stop stop-color="white"/>
<stop offset="1" stop-color="#E9CEFF"/>
</linearGradient>
<linearGradient id="paint3_linear_77_5380" x1="43.5" y1="6" x2="43.5" y2="11.6538" gradientUnits="userSpaceOnUse">
<stop stop-color="white"/>
<stop offset="1" stop-color="#E9CEFF"/>
</linearGradient>
<linearGradient id="paint4_linear_77_5380" x1="49.5" y1="12" x2="49.5" y2="16.0385" gradientUnits="userSpaceOnUse">
<stop stop-color="white"/>
<stop offset="1" stop-color="#E9CEFF"/>
</linearGradient>
<linearGradient id="paint5_linear_77_5380" x1="36.5" y1="9" x2="36.5" y2="13.0385" gradientUnits="userSpaceOnUse">
<stop stop-color="white"/>
<stop offset="1" stop-color="#E9CEFF"/>
</linearGradient>
<linearGradient id="paint6_linear_77_5380" x1="29.5" y1="12" x2="29.5" y2="16.0385" gradientUnits="userSpaceOnUse">
<stop stop-color="white"/>
<stop offset="1" stop-color="#E9CEFF"/>
</linearGradient>
<linearGradient id="paint7_linear_77_5380" x1="39.5" y1="18" x2="39.5" y2="39.8077" gradientUnits="userSpaceOnUse">
<stop stop-color="white"/>
<stop offset="1" stop-color="#E9CEFF"/>
</linearGradient>
</defs>
</svg>
