<svg width="80" height="85" viewBox="0 0 80 85" fill="none" xmlns="http://www.w3.org/2000/svg">
<g filter="url(#filter0_d_77_5403)">
<circle cx="40" cy="27" r="27" fill="#8D4AFF"/>
</g>
<mask id="mask0_77_5403" style="mask-type:alpha" maskUnits="userSpaceOnUse" x="13" y="0" width="54" height="54">
<circle cx="40" cy="27" r="27" fill="#FF6435"/>
</mask>
<g mask="url(#mask0_77_5403)">
</g>
<path d="M30 20C31.6569 20 33 18.6569 33 17C33 15.3431 31.6569 14 30 14C28.3431 14 27 15.3431 27 17C27 18.6569 28.3431 20 30 20Z" fill="#212121"/>
<path d="M30 20C31.6569 20 33 18.6569 33 17C33 15.3431 31.6569 14 30 14C28.3431 14 27 15.3431 27 17C27 18.6569 28.3431 20 30 20Z" fill="url(#paint0_linear_77_5403)"/>
<path d="M31 36V26C31 24.521 31.464 23.15 32.25 22.018C32.167 22.013 32.084 22 32 22H28C25.794 22 24 23.794 24 26V32H26V39H33V36H31Z" fill="#212121"/>
<path d="M31 36V26C31 24.521 31.464 23.15 32.25 22.018C32.167 22.013 32.084 22 32 22H28C25.794 22 24 23.794 24 26V32H26V39H33V36H31Z" fill="url(#paint1_linear_77_5403)"/>
<path d="M50 20C51.6569 20 53 18.6569 53 17C53 15.3431 51.6569 14 50 14C48.3431 14 47 15.3431 47 17C47 18.6569 48.3431 20 50 20Z" fill="#212121"/>
<path d="M50 20C51.6569 20 53 18.6569 53 17C53 15.3431 51.6569 14 50 14C48.3431 14 47 15.3431 47 17C47 18.6569 48.3431 20 50 20Z" fill="url(#paint2_linear_77_5403)"/>
<path d="M49 36V26C49 24.521 48.536 23.15 47.75 22.018C47.833 22.013 47.916 22 48 22H52C54.206 22 56 23.794 56 26V32H54V39H47V36H49Z" fill="#212121"/>
<path d="M49 36V26C49 24.521 48.536 23.15 47.75 22.018C47.833 22.013 47.916 22 48 22H52C54.206 22 56 23.794 56 26V32H54V39H47V36H49Z" fill="url(#paint3_linear_77_5403)"/>
<path d="M42 21H38C35.243 21 33 23.243 33 26V34H36V42H44V34H47V26C47 23.243 44.757 21 42 21Z" fill="#212121"/>
<path d="M42 21H38C35.243 21 33 23.243 33 26V34H36V42H44V34H47V26C47 23.243 44.757 21 42 21Z" fill="url(#paint4_linear_77_5403)"/>
<path d="M40 19C42.2091 19 44 17.2091 44 15C44 12.7909 42.2091 11 40 11C37.7909 11 36 12.7909 36 15C36 17.2091 37.7909 19 40 19Z" fill="#212121"/>
<path d="M40 19C42.2091 19 44 17.2091 44 15C44 12.7909 42.2091 11 40 11C37.7909 11 36 12.7909 36 15C36 17.2091 37.7909 19 40 19Z" fill="url(#paint5_linear_77_5403)"/>
<defs>
<filter id="filter0_d_77_5403" x="0" y="0" width="80" height="85" filterUnits="userSpaceOnUse" color-interpolation-filters="sRGB">
<feFlood flood-opacity="0" result="BackgroundImageFix"/>
<feColorMatrix in="SourceAlpha" type="matrix" values="0 0 0 0 0 0 0 0 0 0 0 0 0 0 0 0 0 0 127 0" result="hardAlpha"/>
<feMorphology radius="3" operator="erode" in="SourceAlpha" result="effect1_dropShadow_77_5403"/>
<feOffset dy="18"/>
<feGaussianBlur stdDeviation="8"/>
<feComposite in2="hardAlpha" operator="out"/>
<feColorMatrix type="matrix" values="0 0 0 0 0 0 0 0 0 0 0 0 0 0 0 0 0 0 0.1 0"/>
<feBlend mode="normal" in2="BackgroundImageFix" result="effect1_dropShadow_77_5403"/>
<feBlend mode="normal" in="SourceGraphic" in2="effect1_dropShadow_77_5403" result="shape"/>
</filter>
<linearGradient id="paint0_linear_77_5403" x1="30" y1="14" x2="30" y2="18.8462" gradientUnits="userSpaceOnUse">
<stop stop-color="white"/>
<stop offset="1" stop-color="#E9CEFF"/>
</linearGradient>
<linearGradient id="paint1_linear_77_5403" x1="28.5" y1="22" x2="28.5" y2="35.7308" gradientUnits="userSpaceOnUse">
<stop stop-color="white"/>
<stop offset="1" stop-color="#E9CEFF"/>
</linearGradient>
<linearGradient id="paint2_linear_77_5403" x1="50" y1="14" x2="50" y2="18.8462" gradientUnits="userSpaceOnUse">
<stop stop-color="white"/>
<stop offset="1" stop-color="#E9CEFF"/>
</linearGradient>
<linearGradient id="paint3_linear_77_5403" x1="51.5" y1="22" x2="51.5" y2="35.7308" gradientUnits="userSpaceOnUse">
<stop stop-color="white"/>
<stop offset="1" stop-color="#E9CEFF"/>
</linearGradient>
<linearGradient id="paint4_linear_77_5403" x1="40" y1="21" x2="40" y2="37.9615" gradientUnits="userSpaceOnUse">
<stop stop-color="white"/>
<stop offset="1" stop-color="#E9CEFF"/>
</linearGradient>
<linearGradient id="paint5_linear_77_5403" x1="40" y1="11" x2="40" y2="17.4615" gradientUnits="userSpaceOnUse">
<stop stop-color="white"/>
<stop offset="1" stop-color="#E9CEFF"/>
</linearGradient>
</defs>
</svg>
