<svg width="80" height="85" viewBox="0 0 80 85" fill="none" xmlns="http://www.w3.org/2000/svg">
<g filter="url(#filter0_d_77_5424)">
<circle cx="40" cy="27" r="27" fill="#8D4AFF"/>
</g>
<path fill-rule="evenodd" clip-rule="evenodd" d="M57.9037 35.9237C59.2453 33.2374 60 30.2068 60 27C60 15.9543 51.0457 7 40 7C28.9543 7 20 15.9543 20 27C20 38.0457 28.9543 47 40 47C44.5033 47 48.659 45.5116 52.002 43C52.0013 43 52.0006 43 52 43C48.6863 43 46 40.3137 46 37C46 33.6863 48.6863 31 52 31C54.9463 31 57.3966 33.1236 57.9037 35.9237ZM32 19.25C32 18.5597 32.5511 18 33.2308 18H46.7692C47.449 18 48 18.5597 48 19.25C48 19.9404 47.449 20.5 46.7692 20.5H41.8463C42.3935 21.241 42.7708 22.0954 42.9526 23H46.7692C47.449 23 48 23.5597 48 24.25C48 24.9404 47.449 25.5 46.7692 25.5H42.9526C42.7131 26.6918 42.1341 27.7964 41.2746 28.6694C40.1205 29.8415 38.5552 30.5 36.9231 30.5H36.2022L41.4858 35.8662C41.9664 36.3543 41.9664 37.1458 41.4858 37.6339C41.005 38.122 40.2258 38.122 39.7451 37.6339L32.3605 30.1339C32.0085 29.7764 31.9032 29.2388 32.0937 28.7716C32.2842 28.3045 32.733 28 33.2308 28H36.9231C37.9025 28 38.8416 27.6049 39.5339 26.9016C39.927 26.5024 40.2223 26.0224 40.4042 25.5H33.2308C32.551 25.5 32 24.9404 32 24.25C32 23.5597 32.551 23 33.2308 23H40.4042C40.2224 22.4776 39.9271 21.9976 39.534 21.5984C38.8416 20.8952 37.9024 20.5 36.9231 20.5H33.2308C32.5511 20.5 32 19.9404 32 19.25Z" fill="#D9D9D9"/>
<path fill-rule="evenodd" clip-rule="evenodd" d="M57.9037 35.9237C59.2453 33.2374 60 30.2068 60 27C60 15.9543 51.0457 7 40 7C28.9543 7 20 15.9543 20 27C20 38.0457 28.9543 47 40 47C44.5033 47 48.659 45.5116 52.002 43C52.0013 43 52.0006 43 52 43C48.6863 43 46 40.3137 46 37C46 33.6863 48.6863 31 52 31C54.9463 31 57.3966 33.1236 57.9037 35.9237ZM32 19.25C32 18.5597 32.5511 18 33.2308 18H46.7692C47.449 18 48 18.5597 48 19.25C48 19.9404 47.449 20.5 46.7692 20.5H41.8463C42.3935 21.241 42.7708 22.0954 42.9526 23H46.7692C47.449 23 48 23.5597 48 24.25C48 24.9404 47.449 25.5 46.7692 25.5H42.9526C42.7131 26.6918 42.1341 27.7964 41.2746 28.6694C40.1205 29.8415 38.5552 30.5 36.9231 30.5H36.2022L41.4858 35.8662C41.9664 36.3543 41.9664 37.1458 41.4858 37.6339C41.005 38.122 40.2258 38.122 39.7451 37.6339L32.3605 30.1339C32.0085 29.7764 31.9032 29.2388 32.0937 28.7716C32.2842 28.3045 32.733 28 33.2308 28H36.9231C37.9025 28 38.8416 27.6049 39.5339 26.9016C39.927 26.5024 40.2223 26.0224 40.4042 25.5H33.2308C32.551 25.5 32 24.9404 32 24.25C32 23.5597 32.551 23 33.2308 23H40.4042C40.2224 22.4776 39.9271 21.9976 39.534 21.5984C38.8416 20.8952 37.9024 20.5 36.9231 20.5H33.2308C32.5511 20.5 32 19.9404 32 19.25Z" fill="url(#paint0_linear_77_5424)"/>
<circle cx="53" cy="37" r="7" fill="#8D4AFF"/>
<path d="M53.8716 39.5871C53.673 39.8077 53.327 39.8077 53.1284 39.5871L49.751 35.8345C49.4614 35.5127 49.6898 35 50.1227 35H56.8773C57.3102 35 57.5386 35.5127 57.249 35.8345L53.8716 39.5871Z" fill="white"/>
<path d="M53.8716 39.5871C53.673 39.8077 53.327 39.8077 53.1284 39.5871L49.751 35.8345C49.4614 35.5127 49.6898 35 50.1227 35H56.8773C57.3102 35 57.5386 35.5127 57.249 35.8345L53.8716 39.5871Z" fill="url(#paint1_linear_77_5424)"/>
<defs>
<filter id="filter0_d_77_5424" x="0" y="0" width="80" height="85" filterUnits="userSpaceOnUse" color-interpolation-filters="sRGB">
<feFlood flood-opacity="0" result="BackgroundImageFix"/>
<feColorMatrix in="SourceAlpha" type="matrix" values="0 0 0 0 0 0 0 0 0 0 0 0 0 0 0 0 0 0 127 0" result="hardAlpha"/>
<feMorphology radius="3" operator="erode" in="SourceAlpha" result="effect1_dropShadow_77_5424"/>
<feOffset dy="18"/>
<feGaussianBlur stdDeviation="8"/>
<feComposite in2="hardAlpha" operator="out"/>
<feColorMatrix type="matrix" values="0 0 0 0 0 0 0 0 0 0 0 0 0 0 0 0 0 0 0.1 0"/>
<feBlend mode="normal" in2="BackgroundImageFix" result="effect1_dropShadow_77_5424"/>
<feBlend mode="normal" in="SourceGraphic" in2="effect1_dropShadow_77_5424" result="shape"/>
</filter>
<linearGradient id="paint0_linear_77_5424" x1="40" y1="7" x2="40" y2="39.3077" gradientUnits="userSpaceOnUse">
<stop stop-color="white"/>
<stop offset="1" stop-color="#E9CEFF"/>
</linearGradient>
<linearGradient id="paint1_linear_77_5424" x1="53.5001" y1="40" x2="53.5001" y2="34.6154" gradientUnits="userSpaceOnUse">
<stop stop-color="white"/>
<stop offset="1" stop-color="#E9CEFF"/>
</linearGradient>
</defs>
</svg>
