<svg width="1024" height="1364" viewBox="0 0 1024 1364" fill="none" xmlns="http://www.w3.org/2000/svg">
<g opacity="0.3">
<path opacity="0.2" d="M-151.925 264.194L-250.88 330.088L907.342 700.321L907.34 597.406L-151.925 264.194Z" fill="#FF754B"/>
<path opacity="0.35" d="M-100.877 344.336L-181.541 398.049L897.461 742.96L897.459 655.395L-100.877 344.336Z" fill="#FF754B"/>
<path opacity="0.15" d="M-155.54 403.545L-224.68 449.585L854.321 794.495L854.322 718.293L-155.54 403.545Z" fill="#FF754B"/>
</g>
<g opacity="0.3">
<path opacity="0.2" d="M-102.776 1115.24L-194.962 1053.85L884.039 708.942L884.038 804.818L-102.776 1115.24Z" fill="#8D4AFF"/>
<path opacity="0.35" d="M-91.7112 1047.51L-172.375 993.796L906.627 648.886L906.625 736.451L-91.7112 1047.51Z" fill="#8D4AFF"/>
<path opacity="0.15" d="M-154.376 988.301L-223.516 942.261L855.485 597.35L855.486 673.552L-154.376 988.301Z" fill="#8D4AFF"/>
</g>
</svg>
