<svg width="32" height="32" viewBox="0 0 32 32" fill="none" xmlns="http://www.w3.org/2000/svg">
<path fill-rule="evenodd" clip-rule="evenodd" d="M16 32C24.8366 32 32 24.8366 32 16C32 7.16344 24.8366 0 16 0C7.16344 0 0 7.16344 0 16C0 24.8366 7.16344 32 16 32ZM17.0077 11.7214C17.7378 12.5448 18.1413 13 19 13C22.1 13 24 14.1 24 16V19.2C24 22.7 20.4 23 16 23C10.2 23 8 19.3 8 17V13C8 10.6 9.6 9 12 9C14.7733 9 15.977 10.4716 16.8742 11.5685L16.9 11.6C16.9367 11.6413 16.9726 11.6818 17.0077 11.7214ZM14.7 14.1C14.7 13.4 13.3 12.6 12.6 12.6C11.9 12.6 11.5 13.1 11.5 13.6C11.5 14.1 12.1 14.8 12.7 15C13.5 15.1 14.7 14.6 14.7 14.1ZM16 21C22 21 22 20 22 19.2H21.9V18.7C21 19 19.8 19 18 19H17.1H16C13.2 19 11.3 18.1 10 17C10 18.6 11.7 21 16 21Z" fill="white"/>
</svg>
