<svg width="32" height="32" viewBox="0 0 32 32" fill="none" xmlns="http://www.w3.org/2000/svg">
<path fill-rule="evenodd" clip-rule="evenodd" d="M32 16C32 24.8366 24.8366 32 16 32C7.16344 32 0 24.8366 0 16C0 7.16344 7.16344 0 16 0C24.8366 0 32 7.16344 32 16ZM23 8L22.6 13H21.4L21 8H20L19.6 13H18.4L18 8H17V14C17 14.5304 17.2107 15.0391 17.5858 15.4142C17.9609 15.7893 18.4696 16 19 16V22.5C19 22.8978 19.158 23.2794 19.4393 23.5607C19.7206 23.842 20.1022 24 20.5 24C20.8978 24 21.2794 23.842 21.5607 23.5607C21.842 23.2794 22 22.8978 22 22.5V16C22.5304 16 23.0391 15.7893 23.4142 15.4142C23.7893 15.0391 24 14.5304 24 14V8H23ZM9.02513 9.02513C9.6815 8.36875 10.5717 8 11.5 8C12.4283 8 13.3185 8.36875 13.9749 9.02513C14.6313 9.6815 15 10.5717 15 11.5V13.5C14.9988 14.1605 14.8102 14.807 14.4562 15.3646C14.1021 15.9222 13.5972 16.3679 13 16.65V22.5C13 22.8978 12.842 23.2794 12.5607 23.5607C12.2794 23.842 11.8978 24 11.5 24C11.1022 24 10.7206 23.842 10.4393 23.5607C10.158 23.2794 10 22.8978 10 22.5V16.65C9.4028 16.3679 8.89787 15.9222 8.54385 15.3646C8.18983 14.807 8.00125 14.1605 8 13.5V11.5C8 10.5717 8.36875 9.6815 9.02513 9.02513Z" fill="white"/>
</svg>
