<svg width="32" height="32" viewBox="0 0 32 32" fill="none" xmlns="http://www.w3.org/2000/svg">
<path fill-rule="evenodd" clip-rule="evenodd" d="M16 32C24.8366 32 32 24.8366 32 16C32 7.16344 24.8366 0 16 0C7.16344 0 0 7.16344 0 16C0 24.8366 7.16344 32 16 32ZM23.9961 10.1028C23.9768 10.2891 23.9057 10.4662 23.7907 10.614L17.0007 19.344V23H20.0007C20.2659 23 20.5203 23.1054 20.7078 23.2929C20.8953 23.4804 21.0007 23.7348 21.0007 24C21.0007 24.2652 20.8953 24.5196 20.7078 24.7071C20.5203 24.8946 20.2659 25 20.0007 25H12.0007C11.7355 25 11.4811 24.8946 11.2936 24.7071C11.1061 24.5196 11.0007 24.2652 11.0007 24C11.0007 23.7348 11.1061 23.4804 11.2936 23.2929C11.4811 23.1054 11.7355 23 12.0007 23H15.0007V19.344L8.21069 10.614C8.09571 10.4662 8.02454 10.2891 8.0053 10.1028C7.98605 9.91651 8.01949 9.72857 8.10182 9.56037C8.18415 9.39217 8.31205 9.25047 8.47097 9.1514C8.62989 9.05233 8.81343 8.99987 9.00069 9H23.0007C23.188 8.99987 23.3715 9.05233 23.5304 9.1514C23.6893 9.25047 23.8172 9.39217 23.8996 9.56037C23.9819 9.72857 24.0153 9.91651 23.9961 10.1028ZM18.6227 14L20.9567 11H11.0447L13.3787 14H18.6227Z" fill="white"/>
</svg>
