<svg width="18" height="18" viewBox="0 0 18 18" fill="none" xmlns="http://www.w3.org/2000/svg">
<path d="M17.1425 15.7302L13.8994 12.4871C14.8822 11.2004 15.4213 9.63977 15.4215 7.99292C15.4215 6.0083 14.6486 4.14233 13.245 2.73901C11.8417 1.33569 9.97595 0.562744 7.99109 0.562744C6.00647 0.562744 4.1405 1.33569 2.73718 2.73901C-0.15979 5.63623 -0.15979 10.3501 2.73718 13.2468C4.1405 14.6504 6.00647 15.4233 7.99109 15.4233C9.63794 15.4231 11.1986 14.8841 12.4853 13.9012L15.7284 17.1443C15.9235 17.3396 16.1796 17.4373 16.4354 17.4373C16.6913 17.4373 16.9474 17.3396 17.1425 17.1443C17.5331 16.7539 17.5331 16.1206 17.1425 15.7302ZM4.15125 11.8328C2.03406 9.71558 2.0343 6.27051 4.15125 4.15308C5.17688 3.12769 6.54065 2.56274 7.99109 2.56274C9.44177 2.56274 10.8053 3.12769 11.8309 4.15308C12.8566 5.17871 13.4215 6.54248 13.4215 7.99292C13.4215 9.4436 12.8566 10.8071 11.8309 11.8328C10.8053 12.8584 9.44177 13.4233 7.99109 13.4233C6.54065 13.4233 5.17688 12.8584 4.15125 11.8328Z" fill="black"/>
</svg>
