<svg width="90" height="31" viewBox="0 0 90 31" fill="none" xmlns="http://www.w3.org/2000/svg">
<path d="M27.3896 5.37892C27.7688 5.41785 28.1164 5.50058 28.4323 5.6271C28.7573 5.74389 29.0372 5.90448 29.2719 6.10886C29.5067 6.30352 29.6872 6.5371 29.8136 6.80961C29.949 7.08212 30.0167 7.38383 30.0167 7.71474C30.0167 8.16244 29.9355 8.55661 29.773 8.89725C29.6195 9.23789 29.3983 9.525 29.1094 9.75858C28.8296 9.98243 28.4865 10.1528 28.0803 10.2695C27.674 10.3863 27.2226 10.4447 26.7261 10.4447H24.3833C24.2208 10.4447 24.0357 10.4447 23.8281 10.4447C23.6295 10.4545 23.4399 10.4691 23.2593 10.4885C23.151 10.4983 23.0426 10.5031 22.9343 10.5031C22.826 10.5129 22.7222 10.5177 22.6228 10.5177L22.6093 10.4155C22.6003 10.3863 22.5958 10.362 22.5958 10.3425C22.5958 10.3133 22.5958 10.289 22.5958 10.2695C22.5958 10.1625 22.6093 10.0944 22.6364 10.0652C22.6725 10.0262 22.7131 10.0019 22.7583 9.99217C23.0742 9.9435 23.2954 9.87538 23.4218 9.78778C23.5572 9.70019 23.625 9.55907 23.625 9.36441V2.05038C23.625 1.85572 23.5663 1.71947 23.4489 1.64161C23.3315 1.55401 23.1013 1.48102 22.7583 1.42262C22.686 1.40316 22.6409 1.3691 22.6228 1.32043C22.6048 1.26204 22.5958 1.19391 22.5958 1.11605C22.5958 1.09658 22.5958 1.07712 22.5958 1.05765C22.5958 1.02845 22.6003 1.00412 22.6093 0.984659C22.6093 0.945728 22.6138 0.911664 22.6228 0.882466C22.8937 0.901931 23.1961 0.921396 23.5302 0.940862C23.8732 0.950594 24.1531 0.955461 24.3698 0.955461H26.2385C26.8163 0.955461 27.2948 1.01872 27.674 1.14525C28.0532 1.26204 28.3556 1.42749 28.5813 1.64161C28.807 1.85572 28.965 2.10391 29.0553 2.38615C29.1546 2.65866 29.2042 2.94577 29.2042 3.24748C29.2042 3.81197 29.0327 4.26454 28.6896 4.60518C28.3466 4.93609 27.9132 5.1794 27.3896 5.33512V5.37892ZM25.3312 9.21843C25.3312 9.44228 25.426 9.58826 25.6156 9.65639C25.8142 9.71479 26.0399 9.74399 26.2927 9.74399C26.9156 9.74399 27.3806 9.60286 27.6875 9.32062C27.9945 9.02864 28.148 8.56148 28.148 7.91913C28.148 7.56875 28.0893 7.26218 27.9719 6.9994C27.8636 6.73662 27.7146 6.5225 27.525 6.35705C27.3354 6.18186 27.1143 6.05047 26.8615 5.96288C26.6087 5.87528 26.3424 5.83149 26.0625 5.83149H25.3312V9.21843ZM25.5479 5.10154C25.9 5.10154 26.1934 5.05288 26.4281 4.95555C26.6629 4.85823 26.8479 4.72684 26.9834 4.56138C27.1278 4.3862 27.2271 4.19155 27.2813 3.97743C27.3445 3.76331 27.3761 3.53946 27.3761 3.30588C27.3761 3.08203 27.34 2.87278 27.2677 2.67813C27.2045 2.47374 27.1007 2.29856 26.9563 2.15257C26.8118 2.00658 26.6222 1.89466 26.3875 1.81679C26.1528 1.7292 25.8729 1.6854 25.5479 1.6854H25.3312V5.10154H25.5479Z" fill="white"/>
<path d="M39.3624 7.23298H36.5186L35.8144 9.26222C35.7873 9.31089 35.7693 9.36442 35.7602 9.42281C35.7512 9.48121 35.7467 9.525 35.7467 9.5542C35.7467 9.66126 35.7918 9.74885 35.8821 9.81698C35.9814 9.88511 36.1755 9.9435 36.4644 9.99217C36.5908 10.0116 36.654 10.1041 36.654 10.2695C36.654 10.3377 36.645 10.4204 36.6269 10.5177C36.3832 10.4983 36.1259 10.4788 35.855 10.4593C35.5842 10.4496 35.3179 10.4447 35.056 10.4447C34.8755 10.4447 34.6859 10.4496 34.4873 10.4593C34.2887 10.4691 34.0675 10.4885 33.8237 10.5177C33.8057 10.4788 33.7966 10.435 33.7966 10.3863C33.7966 10.3377 33.7966 10.2987 33.7966 10.2695C33.7966 10.0846 33.8553 9.9873 33.9727 9.97757C34.2526 9.91917 34.4512 9.85591 34.5685 9.78778C34.6949 9.71965 34.7942 9.60286 34.8665 9.43741L38.1301 1.02845C38.2023 0.863 38.3106 0.780273 38.4551 0.780273C38.5002 0.780273 38.5454 0.78514 38.5905 0.794873C38.6356 0.794873 38.6853 0.799739 38.7395 0.809472L42.0031 9.48121C42.0572 9.6272 42.1611 9.73912 42.3145 9.81698C42.468 9.88511 42.635 9.93377 42.8156 9.96297C42.951 9.99217 43.0187 10.0895 43.0187 10.2549C43.0187 10.3328 43.0097 10.4204 42.9916 10.5177C42.7027 10.4983 42.4183 10.4788 42.1385 10.4593C41.8586 10.4496 41.5968 10.4447 41.3531 10.4447C41.2267 10.4447 41.0732 10.4447 40.8926 10.4447C40.7121 10.4545 40.527 10.4642 40.3374 10.4739C40.1478 10.4837 39.9582 10.4885 39.7686 10.4885C39.5881 10.4983 39.4346 10.508 39.3082 10.5177C39.2902 10.4788 39.2811 10.435 39.2811 10.3863C39.2811 10.3377 39.2811 10.2987 39.2811 10.2695C39.2811 10.182 39.2947 10.1187 39.3218 10.0798C39.3579 10.0311 39.394 10.0019 39.4301 9.99217C39.6648 9.9435 39.8364 9.88997 39.9447 9.83158C40.0621 9.76345 40.1207 9.66612 40.1207 9.5396C40.1207 9.48121 40.1072 9.40821 40.0801 9.32062L39.3624 7.23298ZM39.1051 6.50304L37.954 3.21829L36.7759 6.50304H39.1051Z" fill="white"/>
<path d="M50.8656 6.21106H50.2833V9.26222C50.2833 9.48607 50.3691 9.64666 50.5406 9.74399C50.7212 9.83158 51.0236 9.90457 51.4479 9.96297C51.5743 9.98243 51.6375 10.0798 51.6375 10.2549C51.6375 10.3328 51.6285 10.4204 51.6104 10.5177C51.3486 10.4983 51.0191 10.4788 50.6219 10.4593C50.2337 10.4496 49.8094 10.4447 49.3489 10.4447C49.0239 10.4447 48.7079 10.4496 48.401 10.4593C48.1031 10.4788 47.8232 10.4983 47.5614 10.5177C47.5433 10.4788 47.5343 10.435 47.5343 10.3863C47.5343 10.3377 47.5343 10.2987 47.5343 10.2695C47.5343 10.1041 47.584 10.0116 47.6833 9.99217C47.8729 9.95324 48.0263 9.91917 48.1437 9.88997C48.2611 9.85104 48.3513 9.81211 48.4145 9.77318C48.4777 9.72452 48.5184 9.67099 48.5364 9.6126C48.5635 9.54447 48.577 9.46174 48.577 9.36441V2.05038C48.577 1.85572 48.5093 1.7146 48.3739 1.62701C48.2475 1.53942 47.9993 1.47129 47.6291 1.42262C47.584 1.40316 47.5479 1.37396 47.5208 1.33503C47.4937 1.2961 47.4801 1.22797 47.4801 1.13065C47.4801 1.09172 47.4801 1.04792 47.4801 0.999257C47.4801 0.950594 47.4892 0.911664 47.5072 0.882466C47.76 0.901931 48.0489 0.921396 48.3739 0.940862C48.7079 0.950594 49.0059 0.955461 49.2677 0.955461H51.3125C51.791 0.955461 52.2198 1.01872 52.599 1.14525C52.9782 1.27177 53.2987 1.45182 53.5605 1.6854C53.8313 1.91899 54.0345 2.19637 54.1699 2.51754C54.3143 2.83872 54.3865 3.19395 54.3865 3.58326C54.3865 4.09909 54.2376 4.57112 53.9397 4.99935C53.6508 5.41785 53.249 5.73416 52.7344 5.94828L54.8605 9.29142C55.023 9.54447 55.2081 9.71965 55.4157 9.81698C55.6324 9.91431 55.831 9.9873 56.0116 10.036C56.0567 10.0457 56.0928 10.07 56.1199 10.109C56.147 10.1382 56.1605 10.1966 56.1605 10.2841C56.1605 10.3231 56.1605 10.3669 56.1605 10.4155C56.1605 10.4642 56.1515 10.5129 56.1335 10.5615C56.0341 10.5518 55.8942 10.5421 55.7137 10.5323C55.5331 10.5323 55.3435 10.5275 55.1449 10.5177C54.9553 10.508 54.7612 10.4983 54.5626 10.4885C54.373 10.4885 54.215 10.4885 54.0886 10.4885C53.899 10.4885 53.7094 10.4058 53.5199 10.2403C53.3303 10.0652 53.1452 9.83645 52.9646 9.5542L50.8656 6.21106ZM50.6896 5.48111C50.9695 5.48111 51.2222 5.45192 51.4479 5.39352C51.6736 5.33512 51.8677 5.2378 52.0302 5.10154C52.1927 4.95555 52.3146 4.76577 52.3959 4.53219C52.4862 4.2986 52.5313 4.00176 52.5313 3.64165C52.5313 3.03823 52.3959 2.56134 52.125 2.21096C51.8542 1.86059 51.3757 1.6854 50.6896 1.6854H50.2833V5.48111H50.6896Z" fill="white"/>
<path d="M63.5454 1.6854V5.20373H65.4549C65.6264 5.20373 65.7438 5.13074 65.807 4.98475C65.8701 4.82903 65.9243 4.58085 65.9695 4.24021C65.9785 4.16235 66.0056 4.11368 66.0507 4.09422C66.0958 4.06502 66.1545 4.05042 66.2268 4.05042C66.2538 4.05042 66.2945 4.05529 66.3486 4.06502C66.4118 4.06502 66.457 4.06989 66.484 4.07962C66.466 4.30347 66.4479 4.56625 66.4299 4.86796C66.4209 5.15994 66.4163 5.40812 66.4163 5.6125C66.4163 5.78769 66.4209 5.99694 66.4299 6.24025C66.4389 6.47384 66.457 6.74148 66.484 7.04319C66.457 7.06266 66.4118 7.07726 66.3486 7.08699C66.2945 7.08699 66.2538 7.08699 66.2268 7.08699C66.0642 7.08699 65.9785 7.01886 65.9695 6.88261C65.9153 6.51277 65.8521 6.26459 65.7799 6.13806C65.7167 6.00181 65.6083 5.93368 65.4549 5.93368H63.5454V9.20383C63.5454 9.40821 63.6628 9.54447 63.8975 9.6126C64.1323 9.68072 64.5295 9.71479 65.0892 9.71479H65.658C65.9288 9.71479 66.1545 9.67586 66.3351 9.598C66.5247 9.52014 66.6917 9.41308 66.8361 9.27682C66.9806 9.13083 67.107 8.96538 67.2153 8.78046C67.3236 8.58581 67.432 8.37169 67.5403 8.13811C67.5674 8.06998 67.6306 8.03592 67.7299 8.03592C67.7751 8.03592 67.8292 8.05052 67.8924 8.07971C67.9556 8.10891 68.0188 8.13811 68.082 8.16731C68.0639 8.24517 68.0414 8.31816 68.0143 8.38629C67.9962 8.45442 67.9782 8.52255 67.9601 8.59067C67.915 8.69773 67.8789 8.81452 67.8518 8.94105C67.8247 9.06757 67.7976 9.16976 67.7705 9.24762C67.7525 9.34495 67.7299 9.45687 67.7028 9.5834C67.6848 9.70019 67.6622 9.81698 67.6351 9.93377C67.6171 10.0408 67.5945 10.1382 67.5674 10.2257C67.5494 10.3133 67.5358 10.3717 67.5268 10.4009C67.4907 10.4788 67.4184 10.5177 67.3101 10.5177C67.2379 10.5177 67.1341 10.5129 66.9986 10.5031C66.8632 10.4934 66.7143 10.4837 66.5518 10.4739C66.3983 10.4739 66.2403 10.4691 66.0778 10.4593C65.9153 10.4496 65.7754 10.4447 65.658 10.4447H62.584C62.3222 10.4447 62.0197 10.4496 61.6767 10.4593C61.3426 10.4788 61.0402 10.4983 60.7693 10.5177C60.7513 10.4788 60.7423 10.4301 60.7423 10.3717C60.7423 10.3036 60.7423 10.2549 60.7423 10.2257C60.7423 10.0798 60.7874 10.0019 60.8777 9.99217C61.2207 9.92404 61.4645 9.85104 61.6089 9.77318C61.7624 9.69532 61.8392 9.55907 61.8392 9.36441V2.05038C61.8392 1.95305 61.8256 1.87519 61.7985 1.81679C61.7715 1.74867 61.7173 1.69514 61.636 1.65621C61.5638 1.60754 61.4645 1.56861 61.3381 1.53942C61.2207 1.50049 61.0673 1.46156 60.8777 1.42262C60.7874 1.39343 60.7423 1.30583 60.7423 1.15984C60.7423 1.11118 60.7423 1.06739 60.7423 1.02845C60.7423 0.979792 60.7513 0.931129 60.7693 0.882466C61.1576 0.911664 61.5006 0.931129 61.7985 0.940862C62.0965 0.950594 62.3538 0.955461 62.5704 0.955461H65.3465C65.7528 0.955461 66.1004 0.940861 66.3893 0.911663C66.6872 0.882466 66.8903 0.867867 66.9986 0.867867C67.0979 0.867867 67.1702 0.911664 67.2153 0.999257C67.2424 1.07712 67.265 1.22311 67.283 1.43722C67.3011 1.64161 67.3327 1.85573 67.3778 2.07957C67.4049 2.24503 67.4365 2.40562 67.4726 2.56134C67.5087 2.71706 67.5629 2.90684 67.6351 3.13069C67.59 3.15016 67.5403 3.16962 67.4862 3.18909C67.432 3.20855 67.3778 3.21829 67.3236 3.21829C67.2243 3.21829 67.1521 3.17449 67.107 3.0869C66.9986 2.83385 66.8903 2.61973 66.782 2.44455C66.6827 2.25963 66.5653 2.11364 66.4299 2.00658C66.3035 1.88979 66.15 1.80706 65.9695 1.7584C65.7979 1.70974 65.5903 1.6854 65.3465 1.6854H63.5454Z" fill="white"/>
<path d="M6.28644 27.3933H3.44263L2.73845 29.4226C2.71137 29.4712 2.69331 29.5248 2.68429 29.5832C2.67526 29.6416 2.67074 29.6854 2.67074 29.7146C2.67074 29.8216 2.71588 29.9092 2.80616 29.9773C2.90547 30.0455 3.09957 30.1039 3.38847 30.1525C3.51486 30.172 3.57805 30.2644 3.57805 30.4299C3.57805 30.498 3.56903 30.5808 3.55097 30.6781C3.30722 30.6586 3.04992 30.6392 2.77908 30.6197C2.50824 30.61 2.24192 30.6051 1.9801 30.6051C1.79955 30.6051 1.60996 30.61 1.41134 30.6197C1.21273 30.6294 0.991542 30.6489 0.747787 30.6781C0.729731 30.6392 0.720703 30.5954 0.720703 30.5467C0.720703 30.498 0.720703 30.4591 0.720703 30.4299C0.720703 30.245 0.779385 30.1477 0.896748 30.1379C1.17662 30.0795 1.37523 30.0163 1.49259 29.9481C1.61899 29.88 1.71829 29.7632 1.79052 29.5978L5.05413 21.1888C5.12635 21.0234 5.23469 20.9406 5.37913 20.9406C5.42427 20.9406 5.46941 20.9455 5.51455 20.9552C5.55969 20.9552 5.60935 20.9601 5.66351 20.9698L8.92712 29.6416C8.98129 29.7876 9.08511 29.8995 9.23859 29.9773C9.39206 30.0455 9.55908 30.0941 9.73964 30.1233C9.87506 30.1525 9.94277 30.2499 9.94277 30.4153C9.94277 30.4932 9.93374 30.5808 9.91569 30.6781C9.62679 30.6586 9.34241 30.6392 9.06254 30.6197C8.78268 30.61 8.52087 30.6051 8.27711 30.6051C8.15072 30.6051 7.99724 30.6051 7.81668 30.6051C7.63612 30.6148 7.45105 30.6246 7.26146 30.6343C7.07188 30.644 6.88229 30.6489 6.6927 30.6489C6.51214 30.6586 6.35867 30.6683 6.23228 30.6781C6.21422 30.6392 6.20519 30.5954 6.20519 30.5467C6.20519 30.498 6.20519 30.4591 6.20519 30.4299C6.20519 30.3423 6.21873 30.279 6.24582 30.2401C6.28193 30.1915 6.31804 30.1623 6.35415 30.1525C6.58888 30.1039 6.76041 30.0503 6.86875 29.9919C6.98611 29.9238 7.04479 29.8265 7.04479 29.7C7.04479 29.6416 7.03125 29.5686 7.00417 29.481L6.28644 27.3933ZM6.02915 26.6634L4.87808 23.3786L3.69993 26.6634H6.02915Z" fill="white"/>
<path d="M21.5002 27.4225V22.2399C21.5002 22.0258 21.4325 21.875 21.2971 21.7874C21.1616 21.6998 20.9224 21.6316 20.5793 21.583C20.462 21.5538 20.4033 21.4613 20.4033 21.3056C20.4033 21.2764 20.4033 21.2375 20.4033 21.1888C20.4033 21.1401 20.4123 21.0915 20.4304 21.0428C20.6561 21.072 20.8773 21.0915 21.0939 21.1012C21.3106 21.1109 21.5634 21.1158 21.8523 21.1158C22.1412 21.1158 22.3894 21.1109 22.5971 21.1012C22.8047 21.0915 23.0124 21.072 23.22 21.0428C23.229 21.0915 23.2336 21.1401 23.2336 21.1888C23.2426 21.2375 23.2471 21.2764 23.2471 21.3056C23.2471 21.4711 23.1929 21.5635 23.0846 21.583C22.7867 21.6316 22.5835 21.6998 22.4752 21.7874C22.3669 21.875 22.3127 22.0161 22.3127 22.2107V30.7511C22.2766 30.7608 22.2134 30.7657 22.1231 30.7657C22.0419 30.7754 21.9877 30.7803 21.9606 30.7803C21.8974 30.7803 21.8297 30.7608 21.7575 30.7219C21.6853 30.6927 21.6085 30.6246 21.5273 30.5175L16.1917 23.2181V29.5248C16.1917 29.6221 16.1963 29.7048 16.2053 29.773C16.2233 29.8313 16.2595 29.8849 16.3136 29.9335C16.3768 29.9725 16.4626 30.0114 16.5709 30.0503C16.6883 30.0795 16.8418 30.1136 17.0313 30.1525C17.0765 30.1623 17.1126 30.1866 17.1397 30.2255C17.1758 30.2547 17.1938 30.3228 17.1938 30.4299C17.1938 30.498 17.1848 30.5808 17.1668 30.6781C16.9411 30.6586 16.7289 30.6392 16.5303 30.6197C16.3317 30.61 16.1015 30.6051 15.8397 30.6051C15.5778 30.6051 15.3251 30.61 15.0813 30.6197C14.8466 30.6392 14.6299 30.6586 14.4313 30.6781C14.4132 30.6392 14.4042 30.5954 14.4042 30.5467C14.4042 30.498 14.4042 30.4591 14.4042 30.4299C14.4042 30.3326 14.4177 30.2644 14.4448 30.2255C14.4809 30.1866 14.5216 30.1623 14.5667 30.1525C14.8917 30.0941 15.1084 30.0211 15.2167 29.9335C15.3251 29.8459 15.3792 29.7097 15.3792 29.5248V22.1377C15.3792 21.982 15.3296 21.8652 15.2303 21.7874C15.14 21.6998 14.9278 21.6316 14.5938 21.583C14.4855 21.5538 14.4313 21.4613 14.4313 21.3056C14.4313 21.2861 14.4313 21.2667 14.4313 21.2472C14.4313 21.218 14.4358 21.1888 14.4448 21.1596L14.4584 21.0428C14.5848 21.0526 14.7066 21.0623 14.824 21.072C14.9414 21.072 15.0587 21.0769 15.1761 21.0866C15.3747 21.0964 15.5733 21.1061 15.7719 21.1158C15.9796 21.1158 16.1466 21.1158 16.273 21.1158C16.5348 21.1158 16.7063 21.1304 16.7876 21.1596C16.8688 21.1791 16.9411 21.2229 17.0043 21.291L21.5002 27.4225Z" fill="white"/>
<path d="M32.5594 27.3933H29.7156L29.0114 29.4226C28.9843 29.4712 28.9663 29.5248 28.9573 29.5832C28.9482 29.6416 28.9437 29.6854 28.9437 29.7146C28.9437 29.8216 28.9888 29.9092 29.0791 29.9773C29.1784 30.0455 29.3725 30.1039 29.6614 30.1525C29.7878 30.172 29.851 30.2644 29.851 30.4299C29.851 30.498 29.842 30.5808 29.8239 30.6781C29.5802 30.6586 29.3229 30.6392 29.052 30.6197C28.7812 30.61 28.5149 30.6051 28.2531 30.6051C28.0725 30.6051 27.8829 30.61 27.6843 30.6197C27.4857 30.6294 27.2645 30.6489 27.0208 30.6781C27.0027 30.6392 26.9937 30.5954 26.9937 30.5467C26.9937 30.498 26.9937 30.4591 26.9937 30.4299C26.9937 30.245 27.0523 30.1477 27.1697 30.1379C27.4496 30.0795 27.6482 30.0163 27.7656 29.9481C27.8919 29.88 27.9913 29.7632 28.0635 29.5978L31.3271 21.1888C31.3993 21.0234 31.5076 20.9406 31.6521 20.9406C31.6972 20.9406 31.7424 20.9455 31.7875 20.9552C31.8327 20.9552 31.8823 20.9601 31.9365 20.9698L35.2001 29.6416C35.2543 29.7876 35.3581 29.8995 35.5116 29.9773C35.665 30.0455 35.832 30.0941 36.0126 30.1233C36.148 30.1525 36.2157 30.2499 36.2157 30.4153C36.2157 30.4932 36.2067 30.5808 36.1887 30.6781C35.8998 30.6586 35.6154 30.6392 35.3355 30.6197C35.0556 30.61 34.7938 30.6051 34.5501 30.6051C34.4237 30.6051 34.2702 30.6051 34.0896 30.6051C33.9091 30.6148 33.724 30.6246 33.5344 30.6343C33.3448 30.644 33.1553 30.6489 32.9657 30.6489C32.7851 30.6586 32.6316 30.6683 32.5052 30.6781C32.4872 30.6392 32.4782 30.5954 32.4782 30.5467C32.4782 30.498 32.4782 30.4591 32.4782 30.4299C32.4782 30.3423 32.4917 30.279 32.5188 30.2401C32.5549 30.1915 32.591 30.1623 32.6271 30.1525C32.8618 30.1039 33.0334 30.0503 33.1417 29.9919C33.2591 29.9238 33.3178 29.8265 33.3178 29.7C33.3178 29.6416 33.3042 29.5686 33.2771 29.481L32.5594 27.3933ZM32.3021 26.6634L31.151 23.3786L29.9729 26.6634H32.3021Z" fill="white"/>
<path d="M44.0037 21.8458V29.5248C44.0037 29.6221 44.0082 29.7048 44.0173 29.773C44.0353 29.8313 44.0714 29.8849 44.1256 29.9335C44.1798 29.9822 44.2565 30.026 44.3558 30.0649C44.4551 30.0941 44.5951 30.1233 44.7756 30.1525C44.911 30.1817 44.9788 30.2644 44.9788 30.4007C44.9788 30.4299 44.9742 30.4737 44.9652 30.5321C44.9652 30.5905 44.9607 30.6392 44.9517 30.6781C44.6628 30.6586 44.3513 30.6392 44.0173 30.6197C43.6923 30.61 43.4034 30.6051 43.1506 30.6051C42.8888 30.6051 42.5954 30.61 42.2704 30.6197C41.9544 30.6392 41.6519 30.6586 41.363 30.6781C41.345 30.6392 41.3315 30.5905 41.3224 30.5321C41.3224 30.4737 41.3224 30.4299 41.3224 30.4007C41.3224 30.3326 41.3315 30.279 41.3495 30.2401C41.3766 30.1915 41.4398 30.1574 41.5391 30.1379C41.8731 30.0893 42.0808 30.026 42.162 29.9481C42.2523 29.8605 42.2974 29.7194 42.2974 29.5248V21.8458H41.1058C40.853 21.8458 40.6363 21.875 40.4557 21.9334C40.2842 21.982 40.1307 22.0647 39.9953 22.1815C39.8689 22.2886 39.7516 22.4346 39.6432 22.6195C39.5439 22.7947 39.4401 23.0088 39.3318 23.2619C39.2956 23.3494 39.2279 23.3932 39.1286 23.3932C39.0745 23.3932 39.0113 23.3835 38.939 23.364C38.8668 23.3348 38.8126 23.3105 38.7765 23.291C38.8397 23.0575 38.8939 22.8531 38.939 22.6779C38.9842 22.493 39.0203 22.3129 39.0474 22.1377C39.0835 21.9139 39.1106 21.7144 39.1286 21.5392C39.1467 21.364 39.1693 21.2375 39.1963 21.1596C39.2325 21.072 39.3047 21.0282 39.413 21.0282C39.5123 21.0282 39.7064 21.0428 39.9953 21.072C40.2932 21.1012 40.6498 21.1158 41.0651 21.1158H45.236C45.6423 21.1158 45.9899 21.1012 46.2788 21.072C46.5767 21.0428 46.7798 21.0282 46.8882 21.0282C46.9875 21.0282 47.0597 21.072 47.1048 21.1596C47.1319 21.2375 47.15 21.364 47.159 21.5392C47.1771 21.7144 47.2087 21.9139 47.2538 22.1377C47.2809 22.3129 47.3125 22.493 47.3486 22.6779C47.3937 22.8531 47.4524 23.0575 47.5246 23.291C47.4795 23.3105 47.4208 23.3348 47.3486 23.364C47.2854 23.3835 47.2267 23.3932 47.1725 23.3932C47.0732 23.3932 47.001 23.3494 46.9559 23.2619C46.8475 23.0088 46.7392 22.7947 46.6309 22.6195C46.5316 22.4346 46.4142 22.2886 46.2788 22.1815C46.1524 22.0647 45.9989 21.982 45.8183 21.9334C45.6468 21.875 45.4392 21.8458 45.1954 21.8458H44.0037Z" fill="white"/>
<path d="M51.6228 25.8605C51.6228 25.1792 51.7401 24.5417 51.9749 23.948C52.2186 23.3543 52.5481 22.8336 52.9634 22.3859C53.3787 21.9382 53.8617 21.5878 54.4124 21.3348C54.9721 21.072 55.568 20.9406 56.1999 20.9406C56.85 20.9406 57.4548 21.0623 58.0146 21.3056C58.5743 21.5489 59.0573 21.8896 59.4636 22.3275C59.8788 22.7655 60.2038 23.2862 60.4386 23.8896C60.6733 24.493 60.7907 25.15 60.7907 25.8605C60.7907 26.5417 60.6688 27.1841 60.425 27.7875C60.1903 28.3812 59.8653 28.9019 59.45 29.3496C59.0347 29.7876 58.5472 30.1379 57.9875 30.4007C57.4278 30.6538 56.8319 30.7803 56.1999 30.7803C55.5499 30.7803 54.9451 30.6586 54.3853 30.4153C53.8256 30.172 53.3426 29.8313 52.9363 29.3934C52.5301 28.9554 52.2096 28.4396 51.9749 27.8459C51.7401 27.2425 51.6228 26.5807 51.6228 25.8605ZM56.4031 30.0211C56.7823 30.0211 57.1253 29.9335 57.4323 29.7584C57.7392 29.5734 58.001 29.3253 58.2177 29.0138C58.4434 28.7024 58.6149 28.3374 58.7323 27.9189C58.8587 27.5004 58.9219 27.0527 58.9219 26.5758C58.9219 25.8848 58.8587 25.2424 58.7323 24.6487C58.6149 24.0551 58.4299 23.5441 58.1771 23.1159C57.9333 22.6779 57.6218 22.3373 57.2427 22.0939C56.8725 21.8409 56.4392 21.7144 55.9426 21.7144C55.6267 21.7144 55.3197 21.7922 55.0218 21.948C54.7239 22.0939 54.4621 22.3129 54.2364 22.6049C54.0107 22.8871 53.8301 23.2327 53.6947 23.6414C53.5593 24.0502 53.4916 24.5125 53.4916 25.0283C53.4916 25.7485 53.5548 26.4152 53.6811 27.0284C53.8166 27.6415 54.0061 28.1719 54.2499 28.6196C54.5027 29.0576 54.8096 29.4031 55.1708 29.6562C55.5319 29.8995 55.9426 30.0211 56.4031 30.0211Z" fill="white"/>
<path d="M74.0763 21.3932C74.1124 21.3056 74.1711 21.2375 74.2523 21.1888C74.3336 21.1401 74.5322 21.1158 74.8482 21.1158C74.9204 21.1158 75.0242 21.1158 75.1596 21.1158C75.3041 21.1061 75.4575 21.1012 75.62 21.1012C75.7826 21.0915 75.9451 21.0818 76.1076 21.072C76.2701 21.0623 76.41 21.0526 76.5274 21.0428C76.5454 21.0915 76.5544 21.1401 76.5544 21.1888C76.5544 21.2375 76.5544 21.2764 76.5544 21.3056C76.5544 21.4613 76.5048 21.5538 76.4055 21.583C76.2249 21.6122 76.0805 21.6414 75.9721 21.6706C75.8728 21.6998 75.7961 21.7387 75.7419 21.7874C75.6878 21.8263 75.6516 21.875 75.6336 21.9334C75.6155 21.9918 75.6065 22.0599 75.6065 22.1377C75.6065 22.1572 75.611 22.3421 75.62 22.6925C75.6381 23.0429 75.6607 23.476 75.6878 23.9918C75.7148 24.5076 75.7419 25.0672 75.769 25.6707C75.7961 26.2741 75.8232 26.8483 75.8503 27.3933C75.8773 27.9286 75.8999 28.3958 75.918 28.7948C75.936 29.1939 75.9496 29.4372 75.9586 29.5248C75.9586 29.6221 75.9676 29.7048 75.9857 29.773C76.0128 29.8313 76.0534 29.8849 76.1076 29.9335C76.1708 29.9822 76.2565 30.026 76.3649 30.0649C76.4732 30.0941 76.6131 30.1233 76.7847 30.1525C76.884 30.172 76.9336 30.2644 76.9336 30.4299C76.9336 30.498 76.9246 30.5808 76.9065 30.6781C76.5906 30.6586 76.3017 30.6392 76.0398 30.6197C75.7871 30.61 75.4982 30.6051 75.1732 30.6051C74.8752 30.6051 74.5547 30.61 74.2117 30.6197C73.8777 30.6392 73.5978 30.6586 73.3721 30.6781C73.354 30.5808 73.345 30.498 73.345 30.4299C73.345 30.3228 73.3585 30.2498 73.3856 30.2109C73.4217 30.172 73.4533 30.1525 73.4804 30.1525C73.8506 30.0844 74.0898 30.0065 74.1981 29.9189C74.3065 29.8216 74.3606 29.6756 74.3606 29.481C74.3606 29.4518 74.3516 29.2961 74.3336 29.0138C74.3245 28.7316 74.311 28.3812 74.2929 27.9627C74.2839 27.5442 74.2659 27.0916 74.2388 26.605C74.2207 26.1184 74.1981 25.6609 74.1711 25.2327C74.153 24.8045 74.1349 24.4346 74.1169 24.1232C74.1079 23.8117 74.0988 23.622 74.0898 23.5538L71.3137 30.5175C71.2686 30.6051 71.2279 30.6683 71.1918 30.7073C71.1647 30.7559 71.1241 30.7803 71.07 30.7803C71.0519 30.7803 71.0248 30.7803 70.9887 30.7803C70.9526 30.7803 70.9255 30.7754 70.9075 30.7657L67.7657 22.6487C67.7567 22.7752 67.7431 23.0331 67.7251 23.4224C67.7161 23.802 67.698 24.24 67.6709 24.7363C67.6529 25.2327 67.6303 25.7583 67.6032 26.313C67.5852 26.858 67.5671 27.3641 67.549 27.8313C67.531 28.2985 67.5129 28.6926 67.4949 29.0138C67.4859 29.3253 67.4813 29.4956 67.4813 29.5248C67.4813 29.6124 67.4904 29.6902 67.5084 29.7584C67.5265 29.8167 67.5626 29.8703 67.6168 29.9189C67.6709 29.9676 67.7522 30.0114 67.8605 30.0503C67.9688 30.0795 68.1178 30.1136 68.3074 30.1525C68.4067 30.172 68.4564 30.2644 68.4564 30.4299C68.4564 30.4591 68.4518 30.498 68.4428 30.5467C68.4428 30.5856 68.4383 30.6294 68.4293 30.6781C68.1855 30.6586 67.9598 30.6392 67.7522 30.6197C67.5445 30.61 67.3369 30.6051 67.1292 30.6051C66.9487 30.6051 66.723 30.61 66.4521 30.6197C66.1813 30.6392 65.9376 30.6586 65.7209 30.6781C65.7028 30.6392 65.6938 30.5954 65.6938 30.5467C65.6938 30.498 65.6938 30.4591 65.6938 30.4299C65.6938 30.3228 65.7073 30.2547 65.7344 30.2255C65.7615 30.1866 65.7976 30.1623 65.8428 30.1525C66.1226 30.0844 66.3258 30.0065 66.4521 29.9189C66.5785 29.8313 66.6508 29.7 66.6688 29.5248C66.6688 29.4469 66.6779 29.2133 66.6959 28.824C66.714 28.425 66.7365 27.9578 66.7636 27.4225C66.7907 26.8775 66.8178 26.3033 66.8449 25.6999C66.8719 25.0867 66.8945 24.5222 66.9126 24.0064C66.9397 23.4808 66.9577 23.0429 66.9667 22.6925C66.9848 22.3421 66.9938 22.1572 66.9938 22.1377C66.9938 21.9723 66.9442 21.8555 66.8449 21.7874C66.7456 21.7095 66.5289 21.6414 66.1949 21.583C66.0955 21.5732 66.0459 21.4808 66.0459 21.3056C66.0459 21.2764 66.0459 21.2375 66.0459 21.1888C66.0459 21.1401 66.0549 21.0915 66.073 21.0428C66.1903 21.0526 66.3528 21.0623 66.5605 21.072C66.7681 21.0818 66.9803 21.0915 67.197 21.1012C67.4136 21.1012 67.6168 21.1061 67.8063 21.1158C67.9959 21.1158 68.1314 21.1158 68.2126 21.1158C68.3751 21.1158 68.5015 21.1255 68.5918 21.145C68.6821 21.1547 68.7543 21.1693 68.8084 21.1888C68.8626 21.2083 68.8987 21.2375 68.9168 21.2764C68.9439 21.3153 68.9664 21.3543 68.9845 21.3932L71.5033 27.9481L74.0763 21.3932Z" fill="white"/>
<path d="M84.6546 26.605L82.5015 22.1815C82.4022 21.9771 82.2758 21.836 82.1223 21.7582C81.9779 21.6803 81.7883 21.6219 81.5535 21.583C81.4452 21.5732 81.391 21.4759 81.391 21.291C81.391 21.2715 81.391 21.2521 81.391 21.2326C81.391 21.2034 81.3956 21.1742 81.4046 21.145L81.4181 21.0428C81.6167 21.0623 81.8695 21.0818 82.1765 21.1012C82.4924 21.1109 82.8355 21.1158 83.2057 21.1158C83.332 21.1158 83.481 21.1158 83.6525 21.1158C83.8331 21.1061 84.0137 21.1012 84.1942 21.1012C84.3748 21.0915 84.5418 21.0818 84.6953 21.072C84.8578 21.0623 84.9887 21.0526 85.088 21.0428C85.106 21.1304 85.1151 21.1937 85.1151 21.2326C85.1151 21.2618 85.1151 21.2861 85.1151 21.3056C85.1151 21.4711 85.0609 21.5635 84.9526 21.583C84.7178 21.6122 84.5553 21.656 84.4651 21.7144C84.3748 21.763 84.3296 21.8312 84.3296 21.9188C84.3296 21.9966 84.3612 22.0988 84.4244 22.2253L86.0088 25.6123L87.5662 22.4589C87.6655 22.274 87.7151 22.1183 87.7151 21.9918C87.7151 21.875 87.6655 21.7922 87.5662 21.7436C87.4669 21.6852 87.2953 21.6316 87.0516 21.583C86.9342 21.5635 86.8755 21.4711 86.8755 21.3056C86.8755 21.2667 86.8891 21.1791 86.9162 21.0428C87.1057 21.0623 87.3405 21.0818 87.6203 21.1012C87.9092 21.1109 88.162 21.1158 88.3787 21.1158C88.5863 21.1158 88.803 21.1109 89.0287 21.1012C89.2634 21.0915 89.4982 21.072 89.7329 21.0428C89.7509 21.111 89.76 21.1693 89.76 21.218C89.76 21.2569 89.76 21.2861 89.76 21.3056C89.76 21.4808 89.7058 21.5732 89.5975 21.583C89.2724 21.6316 89.0467 21.6949 88.9204 21.7728C88.794 21.8506 88.6856 21.9723 88.5953 22.1377L86.3609 26.5758V29.481C86.3609 29.588 86.3745 29.6756 86.4016 29.7438C86.4286 29.8119 86.4783 29.8703 86.5505 29.9189C86.6227 29.9676 86.7175 30.0114 86.8349 30.0503C86.9613 30.0795 87.1238 30.1087 87.3224 30.1379C87.3675 30.1477 87.4037 30.172 87.4307 30.2109C87.4669 30.2401 87.4849 30.3082 87.4849 30.4153C87.4849 30.4348 87.4804 30.4591 87.4714 30.4883C87.4714 30.5078 87.4714 30.5321 87.4714 30.5613L87.4578 30.6635C87.3134 30.6635 87.178 30.6586 87.0516 30.6489C86.9252 30.6489 86.7988 30.644 86.6724 30.6343C86.4557 30.6148 86.23 30.6051 85.9953 30.6051C85.7696 30.5954 85.58 30.5905 85.4265 30.5905C85.264 30.5905 85.0745 30.5954 84.8578 30.6051C84.6501 30.6051 84.447 30.6148 84.2484 30.6343C84.131 30.644 84.0137 30.6489 83.8963 30.6489C83.788 30.6586 83.6751 30.6635 83.5577 30.6635L83.5442 30.5613C83.5352 30.5321 83.5307 30.5078 83.5307 30.4883C83.5307 30.4591 83.5307 30.4348 83.5307 30.4153C83.5307 30.3082 83.5442 30.2401 83.5713 30.2109C83.6074 30.172 83.648 30.1477 83.6932 30.1379C83.8828 30.099 84.0407 30.0649 84.1671 30.0357C84.2935 29.9968 84.3928 29.9579 84.4651 29.9189C84.5373 29.8703 84.5869 29.8119 84.614 29.7438C84.6411 29.6756 84.6546 29.588 84.6546 29.481V26.605Z" fill="white"/>
</svg>
