<svg width="82" height="41" viewBox="0 0 82 41" fill="none" xmlns="http://www.w3.org/2000/svg">
<g clip-path="url(#clip0_573_245)">
<path d="M48.8663 39.3403C47.2048 40.6387 46.6263 40.6633 45.8571 39.4941C45.6848 39.6541 45.5186 39.8141 45.3402 39.9556C44.3248 40.7618 42.9586 40.6141 42.2325 39.5618C41.9494 39.1495 41.7956 39.1987 41.5125 39.5187C41.0817 40.0049 40.5771 40.3864 39.9248 40.5279C38.9402 40.7433 38.2633 40.0849 38.5402 39.1187C38.8048 38.1895 39.174 37.291 39.4694 36.3741C39.5802 36.0233 39.7525 35.5926 39.3648 35.3341C38.9833 35.0818 38.6509 35.4018 38.3494 35.6233C37.6786 36.1279 37.3648 36.8787 37.0386 37.611C36.8171 38.1033 36.6386 38.6203 36.4663 39.131C36.0417 40.3679 35.9433 40.4418 34.6509 40.3495C33.9863 40.3003 33.8756 40.1464 34.0663 39.5003C34.1279 39.2787 34.2079 39.0633 34.3125 38.731C33.1125 39.5433 31.9863 40.2572 30.6756 40.6141C30.0971 40.7741 29.5125 40.8172 28.9217 40.7495C26.8479 40.5156 25.8509 39.1372 26.1525 36.9649C26.5586 34.0541 29.1986 31.2603 32.0909 30.7249C32.9033 30.5772 33.7402 30.5464 34.5463 30.7679C35.4017 31.0018 35.7956 31.5679 35.6725 32.3126C35.5679 32.9649 34.7125 33.6972 34.0663 33.7095C33.7094 33.7095 33.654 33.5495 33.7894 33.2664C34.0294 32.7679 34.3125 32.2079 33.8079 31.771C33.254 31.291 32.6263 31.5926 32.0971 31.9187C30.2017 33.0941 29.0817 34.8049 28.7925 37.0203C28.6448 38.1403 29.2786 38.811 30.4171 38.8849C31.9802 38.9895 33.3279 38.4418 34.5648 37.531C34.8479 37.3218 34.9894 37.0449 35.1186 36.731C35.7648 35.1126 36.4048 33.4879 37.0879 31.8818C37.4756 30.9772 38.4233 30.5649 39.3648 30.8049C39.8448 30.9279 39.654 31.1864 39.5125 31.4387C38.9833 32.411 38.5217 33.4141 38.1094 34.5095C38.454 34.5218 38.6386 34.3187 38.854 34.2079C39.3833 33.9433 39.9248 33.8449 40.4971 33.9803C41.3217 34.171 41.6848 34.651 41.654 35.5003C41.6233 36.4172 41.174 37.2172 40.9217 38.0726C40.854 38.3003 40.6263 38.6079 40.9279 38.7679C41.2356 38.9341 41.4325 38.6203 41.6048 38.3987C41.8448 38.091 41.8879 37.7095 41.9802 37.3464C42.3494 35.8264 43.2233 34.7126 44.7309 34.1895C45.4509 33.9372 46.1771 33.9372 46.8109 34.4603C47.014 34.6264 47.1617 34.6633 47.3525 34.4603C47.5186 34.2879 47.7279 34.1772 47.9617 34.1156C48.2633 34.0418 48.6079 33.9803 48.8294 34.2264C49.0448 34.4664 48.7802 34.7064 48.6879 34.9341C48.3063 35.8756 47.8448 36.7864 47.7279 37.8079C47.6909 38.1156 47.5433 38.528 47.9617 38.6756C48.3679 38.8233 48.6386 38.491 48.8109 38.1895C49.3956 37.1864 49.7402 36.0787 50.1833 35.0141C50.2448 34.8603 50.2879 34.7003 50.3494 34.5464C50.8294 33.3649 50.8294 33.3526 49.5248 33.3772C46.8848 33.4264 44.2448 33.3279 41.6048 33.2541C41.2725 33.2479 40.9402 33.2356 40.6509 33.0387C40.4233 32.8849 40.2756 32.6695 40.3433 32.3803C40.4109 32.0787 40.6694 32.0664 40.9094 32.0726C41.6848 32.091 42.4663 32.1156 43.2417 32.1403C45.7156 32.2141 48.1894 32.2633 50.6694 32.1156C51.1371 32.0849 51.4633 31.9495 51.6786 31.4941C51.9371 30.9403 52.454 30.7741 53.0325 30.7741C53.7833 30.7741 53.8386 30.8356 53.5802 31.5187C53.4694 31.8079 53.5125 31.9249 53.8448 31.851C54.0294 31.8079 54.214 31.7833 54.3986 31.7403C54.6817 31.6787 54.9771 31.5864 55.1125 31.9618C55.2294 32.2941 55.0817 32.5649 54.8233 32.7679C54.374 33.1187 53.8263 33.2049 53.2848 33.2295C52.8048 33.2479 52.5833 33.4572 52.4109 33.8818C51.8509 35.2603 51.3648 36.6633 50.9156 38.0787C50.7002 38.7556 50.8048 38.8479 51.4817 38.7372C51.5679 38.7249 51.6848 38.7249 51.7402 38.7741C51.8386 38.8603 51.7833 38.9833 51.7402 39.1003C51.4817 39.7649 50.374 40.4172 49.654 40.3372C49.0817 40.2756 48.9525 39.8633 48.8725 39.3279L48.8663 39.3403ZM43.7648 37.7403C43.7586 38.2449 43.8325 38.6264 44.2325 38.7987C44.6325 38.971 45.0202 38.8726 45.3463 38.5895C45.9802 38.0541 46.1279 37.2787 46.3617 36.5464C46.4725 36.2018 46.5648 35.8387 46.2509 35.5679C45.9063 35.2726 45.494 35.3464 45.1248 35.531C44.1771 36.0049 43.9309 36.9095 43.7648 37.7403Z" fill="white"/>
<path d="M48.8663 39.3403C47.2048 40.6387 46.6263 40.6633 45.8571 39.4941C45.6848 39.6541 45.5186 39.8141 45.3402 39.9556C44.3248 40.7618 42.9586 40.6141 42.2325 39.5618C41.9494 39.1495 41.7956 39.1987 41.5125 39.5187C41.0817 40.0049 40.5771 40.3864 39.9248 40.5279C38.9402 40.7433 38.2633 40.0849 38.5402 39.1187C38.8048 38.1895 39.174 37.291 39.4694 36.3741C39.5802 36.0233 39.7525 35.5926 39.3648 35.3341C38.9833 35.0818 38.6509 35.4018 38.3494 35.6233C37.6786 36.1279 37.3648 36.8787 37.0386 37.611C36.8171 38.1033 36.6386 38.6203 36.4663 39.131C36.0417 40.3679 35.9433 40.4418 34.6509 40.3495C33.9863 40.3003 33.8756 40.1464 34.0663 39.5003C34.1279 39.2787 34.2079 39.0633 34.3125 38.731C33.1125 39.5433 31.9863 40.2572 30.6756 40.6141C30.0971 40.7741 29.5125 40.8172 28.9217 40.7495C26.8479 40.5156 25.8509 39.1372 26.1525 36.9649C26.5586 34.0541 29.1986 31.2603 32.0909 30.7249C32.9033 30.5772 33.7402 30.5464 34.5463 30.7679C35.4017 31.0018 35.7956 31.5679 35.6725 32.3126C35.5679 32.9649 34.7125 33.6972 34.0663 33.7095C33.7094 33.7095 33.654 33.5495 33.7894 33.2664C34.0294 32.7679 34.3125 32.2079 33.8079 31.771C33.254 31.291 32.6263 31.5926 32.0971 31.9187C30.2017 33.0941 29.0817 34.8049 28.7925 37.0203C28.6448 38.1403 29.2786 38.811 30.4171 38.8849C31.9802 38.9895 33.3279 38.4418 34.5648 37.531C34.8479 37.3218 34.9894 37.0449 35.1186 36.731C35.7648 35.1126 36.4048 33.4879 37.0879 31.8818C37.4756 30.9772 38.4233 30.5649 39.3648 30.8049C39.8448 30.9279 39.654 31.1864 39.5125 31.4387C38.9833 32.411 38.5217 33.4141 38.1094 34.5095C38.454 34.5218 38.6386 34.3187 38.854 34.2079C39.3833 33.9433 39.9248 33.8449 40.4971 33.9803C41.3217 34.171 41.6848 34.651 41.654 35.5003C41.6233 36.4172 41.174 37.2172 40.9217 38.0726C40.854 38.3003 40.6263 38.6079 40.9279 38.7679C41.2356 38.9341 41.4325 38.6203 41.6048 38.3987C41.8448 38.091 41.8879 37.7095 41.9802 37.3464C42.3494 35.8264 43.2233 34.7126 44.7309 34.1895C45.4509 33.9372 46.1771 33.9372 46.8109 34.4603C47.014 34.6264 47.1617 34.6633 47.3525 34.4603C47.5186 34.2879 47.7279 34.1772 47.9617 34.1156C48.2633 34.0418 48.6079 33.9803 48.8294 34.2264C49.0448 34.4664 48.7802 34.7064 48.6879 34.9341C48.3063 35.8756 47.8448 36.7864 47.7279 37.8079C47.6909 38.1156 47.5433 38.528 47.9617 38.6756C48.3679 38.8233 48.6386 38.491 48.8109 38.1895C49.3956 37.1864 49.7402 36.0787 50.1833 35.0141C50.2448 34.8603 50.2879 34.7003 50.3494 34.5464C50.8294 33.3649 50.8294 33.3526 49.5248 33.3772C46.8848 33.4264 44.2448 33.3279 41.6048 33.2541C41.2725 33.2479 40.9402 33.2356 40.6509 33.0387C40.4233 32.8849 40.2756 32.6695 40.3433 32.3803C40.4109 32.0787 40.6694 32.0664 40.9094 32.0726C41.6848 32.091 42.4663 32.1156 43.2417 32.1403C45.7156 32.2141 48.1894 32.2633 50.6694 32.1156C51.1371 32.0849 51.4633 31.9495 51.6786 31.4941C51.9371 30.9403 52.454 30.7741 53.0325 30.7741C53.7833 30.7741 53.8386 30.8356 53.5802 31.5187C53.4694 31.8079 53.5125 31.9249 53.8448 31.851C54.0294 31.8079 54.214 31.7833 54.3986 31.7403C54.6817 31.6787 54.9771 31.5864 55.1125 31.9618C55.2294 32.2941 55.0817 32.5649 54.8233 32.7679C54.374 33.1187 53.8263 33.2049 53.2848 33.2295C52.8048 33.2479 52.5833 33.4572 52.4109 33.8818C51.8509 35.2603 51.3648 36.6633 50.9156 38.0787C50.7002 38.7556 50.8048 38.8479 51.4817 38.7372C51.5679 38.7249 51.6848 38.7249 51.7402 38.7741C51.8386 38.8603 51.7833 38.9833 51.7402 39.1003C51.4817 39.7649 50.374 40.4172 49.654 40.3372C49.0817 40.2756 48.9525 39.8633 48.8725 39.3279L48.8663 39.3403ZM43.7648 37.7403C43.7586 38.2449 43.8325 38.6264 44.2325 38.7987C44.6325 38.971 45.0202 38.8726 45.3463 38.5895C45.9802 38.0541 46.1279 37.2787 46.3617 36.5464C46.4725 36.2018 46.5648 35.8387 46.2509 35.5679C45.9063 35.2726 45.494 35.3464 45.1248 35.531C44.1771 36.0049 43.9309 36.9095 43.7648 37.7403Z" fill="white"/>
<path d="M66.4425 34.688C66.9656 34.3249 67.4148 34.0665 67.9317 33.968C69.4025 33.6849 70.3502 34.688 69.9379 36.1157C69.7286 36.8419 69.4579 37.5434 69.2117 38.2572C69.1502 38.4357 69.0394 38.6449 69.2302 38.7742C69.4456 38.9157 69.6302 38.7372 69.7902 38.6019C70.1163 38.3188 70.1963 37.9188 70.2763 37.5249C70.5225 36.3126 71.144 35.3219 72.1717 34.6449C73.144 33.9988 74.1779 33.6665 75.2302 34.5219C75.4025 34.6634 75.5194 34.608 75.6548 34.4849C75.7779 34.3803 75.9133 34.2696 76.0548 34.2019C76.4056 34.0419 76.824 33.9188 77.1317 34.1711C77.4825 34.4603 77.0948 34.7742 76.9779 35.0449C76.5902 35.9803 76.1656 36.9096 76.0425 37.9249C76.0117 38.1896 75.9132 38.5465 76.2579 38.6757C76.6394 38.8172 76.824 38.4788 76.9409 38.208C77.3902 37.168 77.784 36.1096 78.2394 35.0757C78.6025 34.2511 79.1132 33.9926 79.9809 34.0542C80.4548 34.0849 80.7194 34.1711 80.3502 34.7249C79.6425 35.7957 79.1563 36.9711 78.9348 38.2449C78.8548 38.7126 78.824 39.1249 79.5009 38.768C79.624 38.7003 79.784 38.6265 79.8702 38.7926C79.9133 38.8726 79.8702 39.0265 79.8148 39.1188C79.3963 39.7957 78.8179 40.2511 78.0056 40.3372C77.624 40.3803 77.2486 40.2819 77.1132 39.9126C76.9163 39.3834 76.7379 39.5803 76.4425 39.8203C75.544 40.5588 75.064 40.5157 74.3932 39.6849C74.2517 39.5126 74.1963 39.5126 74.0117 39.6419C72.3686 40.8357 71.7409 40.7865 70.4425 39.3403C70.184 39.0572 70.0794 39.2911 69.944 39.4203C69.544 39.8203 69.1317 40.208 68.5902 40.4234C68.0363 40.6449 67.5194 40.6142 67.0702 40.208C66.6332 39.8203 66.7994 39.3465 66.9409 38.8911C67.2179 37.9926 67.6856 37.1557 67.8456 36.2142C67.9009 35.9003 68.0302 35.5249 67.6671 35.3157C67.3286 35.1188 67.0332 35.3588 66.7625 35.5496C66.1409 35.9926 65.8025 36.6511 65.5071 37.3157C65.1933 38.0234 64.9348 38.7619 64.6886 39.5003C64.4363 40.2511 63.1071 40.7003 62.4671 40.2265C62.2825 40.0911 62.264 39.9249 62.3256 39.728C62.4179 39.4388 62.5102 39.1496 62.6394 38.7249C61.7409 39.328 60.9409 39.8511 60.0671 40.2265C59.0763 40.6511 58.0548 40.9219 56.9717 40.6942C55.0702 40.2942 54.2086 39.0757 54.4609 37.1557C54.9225 33.6603 57.9994 30.7496 61.4948 30.5957C62.4486 30.5526 63.4456 30.6265 64.024 31.6542C64.2148 31.9988 65.1686 31.9003 65.464 31.5065C65.9563 30.848 66.6332 30.7742 67.3594 30.7926C67.7471 30.8049 68.0486 30.8972 67.7717 31.3834C67.5871 31.7034 67.7409 31.8019 68.0548 31.8142C70.0609 31.8819 72.0609 32.0111 74.0671 31.8696C75.5009 31.7649 76.9471 31.9003 78.3748 31.6972C78.8179 31.6357 78.8425 31.9188 78.6948 32.2326C78.5471 32.5526 78.2579 32.7188 77.944 32.8419C77.384 33.0634 76.8056 33.1249 76.2086 33.1249C73.5194 33.1249 70.8302 33.1249 68.1409 33.1249C66.7933 33.1249 66.7563 33.1619 66.4425 34.6757V34.688ZM59.2425 38.8849C60.1163 38.8972 60.904 38.6203 61.6917 38.2757C62.6702 37.8388 63.3717 37.2111 63.6486 36.1219C63.8394 35.3711 64.2025 34.6696 64.4486 33.9311C64.5286 33.6972 64.8486 33.3649 64.5225 33.1865C64.2394 33.0326 63.8209 33.0449 63.5132 33.2788C63.3471 33.4019 63.2302 33.5926 63.0763 33.7403C62.5225 34.2942 61.9317 34.8111 61.1256 34.9465C60.744 35.0142 60.3563 35.0019 60.104 34.6388C59.8579 34.288 60.0363 33.9557 60.2086 33.648C60.6025 32.9219 61.2794 32.5403 61.9994 32.2203C62.1409 32.1588 62.3748 32.1526 62.3502 31.9372C62.3256 31.7342 62.1286 31.6357 61.9379 31.5988C61.3779 31.4819 60.8609 31.6172 60.3871 31.9188C58.8056 32.928 57.6856 34.3249 57.2917 36.1465C56.9163 37.8696 57.1563 38.9219 59.2425 38.8849ZM74.7256 36.3003C74.7256 35.4819 74.2886 35.1926 73.5809 35.4696C72.6086 35.8572 72.3071 36.7434 72.104 37.648C72.0056 38.0972 72.0425 38.5834 72.5533 38.7926C73.0394 38.9957 73.4948 38.8296 73.8271 38.4357C74.3748 37.7896 74.6333 37.0142 74.7256 36.3003Z" fill="white"/>
<path d="M66.4425 34.688C66.9656 34.3249 67.4148 34.0665 67.9317 33.968C69.4025 33.6849 70.3502 34.688 69.9379 36.1157C69.7286 36.8419 69.4579 37.5434 69.2117 38.2572C69.1502 38.4357 69.0394 38.6449 69.2302 38.7742C69.4456 38.9157 69.6302 38.7372 69.7902 38.6019C70.1163 38.3188 70.1963 37.9188 70.2763 37.5249C70.5225 36.3126 71.144 35.3219 72.1717 34.6449C73.144 33.9988 74.1779 33.6665 75.2302 34.5219C75.4025 34.6634 75.5194 34.608 75.6548 34.4849C75.7779 34.3803 75.9133 34.2696 76.0548 34.2019C76.4056 34.0419 76.824 33.9188 77.1317 34.1711C77.4825 34.4603 77.0948 34.7742 76.9779 35.0449C76.5902 35.9803 76.1656 36.9096 76.0425 37.9249C76.0117 38.1896 75.9132 38.5465 76.2579 38.6757C76.6394 38.8172 76.824 38.4788 76.9409 38.208C77.3902 37.168 77.784 36.1096 78.2394 35.0757C78.6025 34.2511 79.1132 33.9926 79.9809 34.0542C80.4548 34.0849 80.7194 34.1711 80.3502 34.7249C79.6425 35.7957 79.1563 36.9711 78.9348 38.2449C78.8548 38.7126 78.824 39.1249 79.5009 38.768C79.624 38.7003 79.784 38.6265 79.8702 38.7926C79.9133 38.8726 79.8702 39.0265 79.8148 39.1188C79.3963 39.7957 78.8179 40.2511 78.0056 40.3372C77.624 40.3803 77.2486 40.2819 77.1132 39.9126C76.9163 39.3834 76.7379 39.5803 76.4425 39.8203C75.544 40.5588 75.064 40.5157 74.3932 39.6849C74.2517 39.5126 74.1963 39.5126 74.0117 39.6419C72.3686 40.8357 71.7409 40.7865 70.4425 39.3403C70.184 39.0572 70.0794 39.2911 69.944 39.4203C69.544 39.8203 69.1317 40.208 68.5902 40.4234C68.0363 40.6449 67.5194 40.6142 67.0702 40.208C66.6332 39.8203 66.7994 39.3465 66.9409 38.8911C67.2179 37.9926 67.6856 37.1557 67.8456 36.2142C67.9009 35.9003 68.0302 35.5249 67.6671 35.3157C67.3286 35.1188 67.0332 35.3588 66.7625 35.5496C66.1409 35.9926 65.8025 36.6511 65.5071 37.3157C65.1933 38.0234 64.9348 38.7619 64.6886 39.5003C64.4363 40.2511 63.1071 40.7003 62.4671 40.2265C62.2825 40.0911 62.264 39.9249 62.3256 39.728C62.4179 39.4388 62.5102 39.1496 62.6394 38.7249C61.7409 39.328 60.9409 39.8511 60.0671 40.2265C59.0763 40.6511 58.0548 40.9219 56.9717 40.6942C55.0702 40.2942 54.2086 39.0757 54.4609 37.1557C54.9225 33.6603 57.9994 30.7496 61.4948 30.5957C62.4486 30.5526 63.4456 30.6265 64.024 31.6542C64.2148 31.9988 65.1686 31.9003 65.464 31.5065C65.9563 30.848 66.6332 30.7742 67.3594 30.7926C67.7471 30.8049 68.0486 30.8972 67.7717 31.3834C67.5871 31.7034 67.7409 31.8019 68.0548 31.8142C70.0609 31.8819 72.0609 32.0111 74.0671 31.8696C75.5009 31.7649 76.9471 31.9003 78.3748 31.6972C78.8179 31.6357 78.8425 31.9188 78.6948 32.2326C78.5471 32.5526 78.2579 32.7188 77.944 32.8419C77.384 33.0634 76.8056 33.1249 76.2086 33.1249C73.5194 33.1249 70.8302 33.1249 68.1409 33.1249C66.7933 33.1249 66.7563 33.1619 66.4425 34.6757V34.688ZM59.2425 38.8849C60.1163 38.8972 60.904 38.6203 61.6917 38.2757C62.6702 37.8388 63.3717 37.2111 63.6486 36.1219C63.8394 35.3711 64.2025 34.6696 64.4486 33.9311C64.5286 33.6972 64.8486 33.3649 64.5225 33.1865C64.2394 33.0326 63.8209 33.0449 63.5132 33.2788C63.3471 33.4019 63.2302 33.5926 63.0763 33.7403C62.5225 34.2942 61.9317 34.8111 61.1256 34.9465C60.744 35.0142 60.3563 35.0019 60.104 34.6388C59.8579 34.288 60.0363 33.9557 60.2086 33.648C60.6025 32.9219 61.2794 32.5403 61.9994 32.2203C62.1409 32.1588 62.3748 32.1526 62.3502 31.9372C62.3256 31.7342 62.1286 31.6357 61.9379 31.5988C61.3779 31.4819 60.8609 31.6172 60.3871 31.9188C58.8056 32.928 57.6856 34.3249 57.2917 36.1465C56.9163 37.8696 57.1563 38.9219 59.2425 38.8849ZM74.7256 36.3003C74.7256 35.4819 74.2886 35.1926 73.5809 35.4696C72.6086 35.8572 72.3071 36.7434 72.104 37.648C72.0056 38.0972 72.0425 38.5834 72.5533 38.7926C73.0394 38.9957 73.4948 38.8296 73.8271 38.4357C74.3748 37.7896 74.6333 37.0142 74.7256 36.3003Z" fill="white"/>
<path d="M8.73148 38.7741C7.82686 39.2971 7.11917 39.7956 6.32533 40.1341C5.20533 40.6202 4.06686 40.9464 2.82379 40.6325C1.15609 40.2079 0.263787 38.891 0.528402 37.1864C1.08225 33.6541 3.79609 30.9894 7.32225 30.6079C8.38071 30.491 9.45763 30.571 10.1222 31.6664C10.3622 32.0602 11.2361 32.0541 11.6422 31.6664C12.0915 31.2418 12.6392 31.131 13.2053 31.1248C13.5253 31.1248 14.0299 31.0079 13.8946 31.6848C13.8269 32.0233 14.1838 31.9187 14.3622 31.9187C15.3776 31.9371 16.393 31.931 17.4084 31.9494C17.6484 31.9494 17.9869 31.8756 18.0607 32.2141C18.1222 32.5279 17.8761 32.731 17.6238 32.8787C17.3099 33.0633 16.9592 33.1125 16.6022 33.1125C15.8453 33.1248 15.0946 33.1248 14.3376 33.1248C12.9899 33.1248 12.9099 33.1864 12.5407 34.6448C13.1746 34.2325 13.7715 33.8756 14.5161 33.9125C15.7284 33.9679 16.3622 34.7064 16.0792 35.8818C15.8822 36.7064 15.5499 37.4941 15.2853 38.3002C15.2299 38.4725 15.1007 38.6694 15.3346 38.8048C15.5007 38.9033 15.6546 38.8048 15.7961 38.7125C16.1715 38.4787 16.393 38.1341 16.5469 37.7218C16.8669 36.8356 17.1869 35.9494 17.5623 35.0818C17.9253 34.2387 18.3869 33.9987 19.2976 34.0541C19.5069 34.0664 19.753 34.0356 19.8638 34.2633C19.9561 34.4664 19.7653 34.6079 19.6669 34.7618C18.9899 35.7771 18.5838 36.9033 18.3315 38.091C18.2822 38.3371 18.1715 38.6325 18.4422 38.8048C18.6946 38.971 18.9407 38.8048 19.1746 38.6879C19.9499 38.3187 20.4915 37.7833 20.7807 36.9279C21.1376 35.8571 21.6238 34.8294 22.0669 33.7894C22.233 33.3956 22.3438 33.0756 21.753 32.9648C21.433 32.9033 21.1807 32.6756 21.2238 32.3125C21.273 31.9248 21.6238 31.9556 21.8946 31.9679C22.4607 31.9925 22.9469 31.931 23.2976 31.3771C23.5069 31.0448 23.9315 30.9956 24.313 30.9587C25.1315 30.891 25.2792 31.0879 24.9346 31.8694C25.3099 32.0048 25.673 31.9125 26.0299 31.8633C26.4299 31.8018 26.6822 31.9741 26.7438 32.3618C26.8053 32.7371 26.5715 32.9464 26.2269 32.9956C25.7592 33.0633 25.2915 33.1187 24.8176 33.1125C24.3499 33.1125 24.0792 33.291 23.9007 33.7218C23.2669 35.2233 22.6453 36.7248 22.2207 38.3002C22.1715 38.4787 22.0484 38.6694 22.1961 38.8356C22.3684 39.0325 22.5407 38.8418 22.7069 38.7864C22.8361 38.7433 22.9776 38.6264 23.0884 38.7802C23.1807 38.9094 23.1007 39.051 23.0453 39.1802C22.7622 39.8202 21.673 40.4418 20.9961 40.3494C20.1961 40.2387 20.2022 39.5987 20.1653 38.971C19.833 39.0141 19.6607 39.2602 19.4453 39.4202C18.9653 39.7771 18.4669 40.0787 17.8946 40.251C16.873 40.5464 16.4976 40.3248 16.3069 39.291C16.0484 39.2725 15.9746 39.5125 15.833 39.6479C15.3961 40.0602 14.9284 40.4171 14.3315 40.5341C13.3346 40.7371 12.6823 40.0725 12.9653 39.1064C13.1992 38.3187 13.5561 37.5618 13.7899 36.7741C13.9315 36.3064 14.2699 35.6418 13.7099 35.3648C13.1376 35.0818 12.6638 35.6356 12.3253 36.091C11.593 37.0694 11.1684 38.1956 10.8176 39.3464C10.5346 40.2756 9.54994 40.7125 8.65148 40.3064C8.38686 40.1894 8.31302 39.9987 8.41148 39.7341C8.50379 39.4756 8.58994 39.2171 8.73763 38.7925L8.73148 38.7741ZM5.22994 38.8787C6.04225 38.8787 6.81148 38.6756 7.55609 38.3618C8.64533 37.9002 9.50686 37.2787 9.82071 36.0356C9.99917 35.3341 10.3622 34.6818 10.6084 33.9925C10.7007 33.7341 11.0576 33.371 10.7253 33.1864C10.3807 33.0018 9.8884 33.0018 9.53148 33.3279C9.34071 33.5002 9.19302 33.7279 9.00225 33.9002C8.46071 34.3925 7.90686 34.8848 7.13148 34.9587C6.77456 34.9894 6.41148 34.9771 6.17763 34.6387C5.93148 34.2879 6.10994 33.9618 6.28225 33.6479C6.68225 32.9279 7.34686 32.5341 8.06686 32.2079C8.22686 32.1341 8.49148 32.1279 8.44225 31.8694C8.40533 31.6664 8.18379 31.611 7.99917 31.5741C7.40225 31.451 6.87917 31.6418 6.39302 31.9556C4.79302 32.9956 3.77148 34.4602 3.3284 36.2941C2.91609 37.9987 3.59917 38.8664 5.23609 38.8664L5.22994 38.8787Z" fill="white"/>
<path d="M8.73148 38.7741C7.82686 39.2971 7.11917 39.7956 6.32533 40.1341C5.20533 40.6202 4.06686 40.9464 2.82379 40.6325C1.15609 40.2079 0.263787 38.891 0.528402 37.1864C1.08225 33.6541 3.79609 30.9894 7.32225 30.6079C8.38071 30.491 9.45763 30.571 10.1222 31.6664C10.3622 32.0602 11.2361 32.0541 11.6422 31.6664C12.0915 31.2418 12.6392 31.131 13.2053 31.1248C13.5253 31.1248 14.0299 31.0079 13.8946 31.6848C13.8269 32.0233 14.1838 31.9187 14.3622 31.9187C15.3776 31.9371 16.393 31.931 17.4084 31.9494C17.6484 31.9494 17.9869 31.8756 18.0607 32.2141C18.1222 32.5279 17.8761 32.731 17.6238 32.8787C17.3099 33.0633 16.9592 33.1125 16.6022 33.1125C15.8453 33.1248 15.0946 33.1248 14.3376 33.1248C12.9899 33.1248 12.9099 33.1864 12.5407 34.6448C13.1746 34.2325 13.7715 33.8756 14.5161 33.9125C15.7284 33.9679 16.3622 34.7064 16.0792 35.8818C15.8822 36.7064 15.5499 37.4941 15.2853 38.3002C15.2299 38.4725 15.1007 38.6694 15.3346 38.8048C15.5007 38.9033 15.6546 38.8048 15.7961 38.7125C16.1715 38.4787 16.393 38.1341 16.5469 37.7218C16.8669 36.8356 17.1869 35.9494 17.5623 35.0818C17.9253 34.2387 18.3869 33.9987 19.2976 34.0541C19.5069 34.0664 19.753 34.0356 19.8638 34.2633C19.9561 34.4664 19.7653 34.6079 19.6669 34.7618C18.9899 35.7771 18.5838 36.9033 18.3315 38.091C18.2822 38.3371 18.1715 38.6325 18.4422 38.8048C18.6946 38.971 18.9407 38.8048 19.1746 38.6879C19.9499 38.3187 20.4915 37.7833 20.7807 36.9279C21.1376 35.8571 21.6238 34.8294 22.0669 33.7894C22.233 33.3956 22.3438 33.0756 21.753 32.9648C21.433 32.9033 21.1807 32.6756 21.2238 32.3125C21.273 31.9248 21.6238 31.9556 21.8946 31.9679C22.4607 31.9925 22.9469 31.931 23.2976 31.3771C23.5069 31.0448 23.9315 30.9956 24.313 30.9587C25.1315 30.891 25.2792 31.0879 24.9346 31.8694C25.3099 32.0048 25.673 31.9125 26.0299 31.8633C26.4299 31.8018 26.6822 31.9741 26.7438 32.3618C26.8053 32.7371 26.5715 32.9464 26.2269 32.9956C25.7592 33.0633 25.2915 33.1187 24.8176 33.1125C24.3499 33.1125 24.0792 33.291 23.9007 33.7218C23.2669 35.2233 22.6453 36.7248 22.2207 38.3002C22.1715 38.4787 22.0484 38.6694 22.1961 38.8356C22.3684 39.0325 22.5407 38.8418 22.7069 38.7864C22.8361 38.7433 22.9776 38.6264 23.0884 38.7802C23.1807 38.9094 23.1007 39.051 23.0453 39.1802C22.7622 39.8202 21.673 40.4418 20.9961 40.3494C20.1961 40.2387 20.2022 39.5987 20.1653 38.971C19.833 39.0141 19.6607 39.2602 19.4453 39.4202C18.9653 39.7771 18.4669 40.0787 17.8946 40.251C16.873 40.5464 16.4976 40.3248 16.3069 39.291C16.0484 39.2725 15.9746 39.5125 15.833 39.6479C15.3961 40.0602 14.9284 40.4171 14.3315 40.5341C13.3346 40.7371 12.6823 40.0725 12.9653 39.1064C13.1992 38.3187 13.5561 37.5618 13.7899 36.7741C13.9315 36.3064 14.2699 35.6418 13.7099 35.3648C13.1376 35.0818 12.6638 35.6356 12.3253 36.091C11.593 37.0694 11.1684 38.1956 10.8176 39.3464C10.5346 40.2756 9.54994 40.7125 8.65148 40.3064C8.38686 40.1894 8.31302 39.9987 8.41148 39.7341C8.50379 39.4756 8.58994 39.2171 8.73763 38.7925L8.73148 38.7741ZM5.22994 38.8787C6.04225 38.8787 6.81148 38.6756 7.55609 38.3618C8.64533 37.9002 9.50686 37.2787 9.82071 36.0356C9.99917 35.3341 10.3622 34.6818 10.6084 33.9925C10.7007 33.7341 11.0576 33.371 10.7253 33.1864C10.3807 33.0018 9.8884 33.0018 9.53148 33.3279C9.34071 33.5002 9.19302 33.7279 9.00225 33.9002C8.46071 34.3925 7.90686 34.8848 7.13148 34.9587C6.77456 34.9894 6.41148 34.9771 6.17763 34.6387C5.93148 34.2879 6.10994 33.9618 6.28225 33.6479C6.68225 32.9279 7.34686 32.5341 8.06686 32.2079C8.22686 32.1341 8.49148 32.1279 8.44225 31.8694C8.40533 31.6664 8.18379 31.611 7.99917 31.5741C7.40225 31.451 6.87917 31.6418 6.39302 31.9556C4.79302 32.9956 3.77148 34.4602 3.3284 36.2941C2.91609 37.9987 3.59917 38.8664 5.23609 38.8664L5.22994 38.8787Z" fill="white"/>
<path d="M40.9422 0.780273C47.6192 0.780273 52.9792 6.15874 52.973 12.8541C52.973 19.5372 47.5945 24.9095 40.9176 24.9095C34.2776 24.9095 28.8315 19.4572 28.8438 12.8295C28.8499 6.18335 34.2776 0.780273 40.9422 0.780273ZM51.6499 12.8664C51.6499 6.82335 46.9792 2.1095 40.973 2.10335C34.9853 2.0972 30.1792 6.84181 30.1668 12.7864C30.1545 18.8049 34.9176 23.5864 40.9238 23.5864C46.9238 23.5864 51.6438 18.8726 51.6499 12.8603V12.8664Z" fill="white"/>
<path d="M40.9422 0.780273C47.6192 0.780273 52.9792 6.15874 52.973 12.8541C52.973 19.5372 47.5945 24.9095 40.9176 24.9095C34.2776 24.9095 28.8315 19.4572 28.8438 12.8295C28.8499 6.18335 34.2776 0.780273 40.9422 0.780273ZM51.6499 12.8664C51.6499 6.82335 46.9792 2.1095 40.973 2.10335C34.9853 2.0972 30.1792 6.84181 30.1668 12.7864C30.1545 18.8049 34.9176 23.5864 40.9238 23.5864C46.9238 23.5864 51.6438 18.8726 51.6499 12.8603V12.8664Z" fill="white"/>
<path d="M79.9987 33.248C79.7587 33.2296 79.451 33.2296 79.4141 32.8419C79.371 32.3619 80.0295 31.7649 80.6203 31.7588C80.9957 31.7588 81.2787 31.8634 81.2726 32.3065C81.2726 32.7988 80.7064 33.2296 79.9987 33.248Z" fill="white"/>
<path d="M79.9987 33.248C79.7587 33.2296 79.451 33.2296 79.4141 32.8419C79.371 32.3619 80.0295 31.7649 80.6203 31.7588C80.9957 31.7588 81.2787 31.8634 81.2726 32.3065C81.2726 32.7988 80.7064 33.2296 79.9987 33.248Z" fill="white"/>
<path d="M19.2782 33.3956C19.0321 33.371 18.7244 33.3894 18.7367 32.9648C18.7428 32.454 19.3336 31.9248 19.8998 31.931C20.2567 31.931 20.5767 32.0171 20.5705 32.4663C20.5705 32.9463 19.9551 33.3956 19.2844 33.3956H19.2782Z" fill="white"/>
<path d="M19.2782 33.3956C19.0321 33.371 18.7244 33.3894 18.7367 32.9648C18.7428 32.454 19.3336 31.9248 19.8998 31.931C20.2567 31.931 20.5767 32.0171 20.5705 32.4663C20.5705 32.9463 19.9551 33.3956 19.2844 33.3956H19.2782Z" fill="white"/>
<path d="M34.8965 11.1802C34.9149 10.0786 35.1242 9.07555 35.4811 8.09094C35.7088 7.45709 36.1396 7.19863 36.798 7.33402C36.9826 7.37094 37.1919 7.36478 37.3519 7.45094C38.3734 8.02325 38.9949 7.59863 39.6903 6.77402C40.7488 5.51248 41.2226 5.51863 42.2626 6.81094C42.9026 7.61094 43.438 7.95555 44.4596 7.49402C45.1611 7.18017 45.9857 7.08171 46.4288 8.07863C46.5888 8.43555 47.0626 8.31863 47.3949 8.39863C49.0749 8.81709 50.0411 10.454 49.5303 12.1032C49.2657 12.9648 48.6873 13.5617 47.8565 13.9125C47.4811 14.0725 47.3088 13.974 47.4196 13.5371C47.5365 13.0817 47.6842 12.6509 47.998 12.2694C48.6257 11.5063 48.4534 10.4048 47.6842 9.91248C47.4934 9.7894 47.278 9.59863 47.038 9.72171C46.7734 9.85709 46.8903 10.1463 46.9149 10.3617C47.0873 11.9063 46.8349 13.3771 46.1211 14.7432C45.1919 16.5279 43.7826 17.7771 41.7457 18.1032C39.4565 18.4663 37.7149 17.4756 36.3549 15.7032C35.3273 14.3617 34.9396 12.7986 34.8965 11.1802ZM43.0134 11.5432C43.038 10.3802 42.5149 8.91555 41.4134 7.64786C41.0319 7.21094 40.7488 7.26632 40.3919 7.67863C38.2873 10.0909 38.3119 13.974 40.4349 16.3679C40.798 16.774 41.0503 16.7494 41.4011 16.3679C42.5211 15.1371 43.0011 13.6848 43.0196 11.5371L43.0134 11.5432ZM38.7242 16.3494C38.7242 16.1771 38.7426 16.1279 38.7242 16.0909C37.5549 13.9925 37.2473 11.7956 38.0042 9.49402C38.1396 9.07555 37.9611 8.90325 37.5919 8.76786C36.7796 8.47863 36.5457 8.58325 36.3488 9.42632C36.2688 9.77094 36.1826 10.1156 36.1642 10.4663C36.0226 12.8109 36.6688 14.8232 38.7303 16.3432L38.7242 16.3494ZM43.0503 16.3063C45.3088 15.0202 46.4842 11.1248 45.3949 9.00171C45.1303 8.49094 44.7611 8.65094 44.3673 8.76171C43.9365 8.87863 43.7211 9.08786 43.8873 9.58017C44.6749 11.894 44.2749 14.0786 43.0503 16.3063Z" fill="white"/>
<path d="M34.8965 11.1802C34.9149 10.0786 35.1242 9.07555 35.4811 8.09094C35.7088 7.45709 36.1396 7.19863 36.798 7.33402C36.9826 7.37094 37.1919 7.36478 37.3519 7.45094C38.3734 8.02325 38.9949 7.59863 39.6903 6.77402C40.7488 5.51248 41.2226 5.51863 42.2626 6.81094C42.9026 7.61094 43.438 7.95555 44.4596 7.49402C45.1611 7.18017 45.9857 7.08171 46.4288 8.07863C46.5888 8.43555 47.0626 8.31863 47.3949 8.39863C49.0749 8.81709 50.0411 10.454 49.5303 12.1032C49.2657 12.9648 48.6873 13.5617 47.8565 13.9125C47.4811 14.0725 47.3088 13.974 47.4196 13.5371C47.5365 13.0817 47.6842 12.6509 47.998 12.2694C48.6257 11.5063 48.4534 10.4048 47.6842 9.91248C47.4934 9.7894 47.278 9.59863 47.038 9.72171C46.7734 9.85709 46.8903 10.1463 46.9149 10.3617C47.0873 11.9063 46.8349 13.3771 46.1211 14.7432C45.1919 16.5279 43.7826 17.7771 41.7457 18.1032C39.4565 18.4663 37.7149 17.4756 36.3549 15.7032C35.3273 14.3617 34.9396 12.7986 34.8965 11.1802ZM43.0134 11.5432C43.038 10.3802 42.5149 8.91555 41.4134 7.64786C41.0319 7.21094 40.7488 7.26632 40.3919 7.67863C38.2873 10.0909 38.3119 13.974 40.4349 16.3679C40.798 16.774 41.0503 16.7494 41.4011 16.3679C42.5211 15.1371 43.0011 13.6848 43.0196 11.5371L43.0134 11.5432ZM38.7242 16.3494C38.7242 16.1771 38.7426 16.1279 38.7242 16.0909C37.5549 13.9925 37.2473 11.7956 38.0042 9.49402C38.1396 9.07555 37.9611 8.90325 37.5919 8.76786C36.7796 8.47863 36.5457 8.58325 36.3488 9.42632C36.2688 9.77094 36.1826 10.1156 36.1642 10.4663C36.0226 12.8109 36.6688 14.8232 38.7303 16.3432L38.7242 16.3494ZM43.0503 16.3063C45.3088 15.0202 46.4842 11.1248 45.3949 9.00171C45.1303 8.49094 44.7611 8.65094 44.3673 8.76171C43.9365 8.87863 43.7211 9.08786 43.8873 9.58017C44.6749 11.894 44.2749 14.0786 43.0503 16.3063Z" fill="white"/>
<path d="M40.8476 20.5035C39.0322 20.4111 37.3399 19.8511 35.9245 18.5835C35.7461 18.4235 35.4445 18.2696 35.5922 17.9558C35.7276 17.6788 36.023 17.6111 36.3184 17.5927C36.6445 17.5742 36.8968 17.7404 37.1553 17.9188C39.5368 19.5804 42.2014 19.605 44.6261 17.9865C44.9645 17.7588 45.2907 17.5311 45.7276 17.605C45.9676 17.6481 46.2076 17.7281 46.3061 17.9619C46.4353 18.245 46.183 18.3927 46.0107 18.5342C44.5399 19.7958 42.8353 20.4419 40.8476 20.4973V20.5035Z" fill="white"/>
<path d="M40.8476 20.5035C39.0322 20.4111 37.3399 19.8511 35.9245 18.5835C35.7461 18.4235 35.4445 18.2696 35.5922 17.9558C35.7276 17.6788 36.023 17.6111 36.3184 17.5927C36.6445 17.5742 36.8968 17.7404 37.1553 17.9188C39.5368 19.5804 42.2014 19.605 44.6261 17.9865C44.9645 17.7588 45.2907 17.5311 45.7276 17.605C45.9676 17.6481 46.2076 17.7281 46.3061 17.9619C46.4353 18.245 46.183 18.3927 46.0107 18.5342C44.5399 19.7958 42.8353 20.4419 40.8476 20.4973V20.5035Z" fill="white"/>
</g>
<defs>
<clipPath id="clip0_573_245">
<rect width="80.7877" height="40" fill="white" transform="translate(0.484375 0.780273)"/>
</clipPath>
</defs>
</svg>
