<svg width="102" height="41" viewBox="0 0 102 41" fill="none" xmlns="http://www.w3.org/2000/svg">
<path d="M11.2153 8.9861C11.2153 6.94253 11.2272 4.90293 11.2074 2.85936C11.1995 1.96431 11.346 1.29897 12.4826 1.35045C14.7797 1.46134 17.0767 1.19204 19.3737 1.65936C23.4609 2.49105 25.5005 5.25144 25.2945 9.84946C25.1361 13.3425 22.348 16.2138 18.6727 16.491C16.6411 16.6415 14.5896 16.5148 12.55 16.5703C11.4767 16.598 11.1955 16.0594 11.2074 15.1089C11.2351 13.0693 11.2153 11.0257 11.2153 8.98214V8.9861ZM14.6094 8.91877C14.6094 8.91877 14.6213 8.91877 14.6252 8.91877C14.6252 10.2336 14.6252 11.5485 14.6252 12.8633C14.6252 13.5049 14.7678 14.1029 15.544 14.1188C17.3975 14.1584 19.2985 14.1901 20.5777 12.5069C21.9836 10.6534 21.9321 8.5663 21.1599 6.51877C20.447 4.62966 18.7915 4.0554 16.9183 3.85342C15.2906 3.67917 14.3836 4.10293 14.5935 5.95639C14.7044 6.93065 14.6133 7.92867 14.6133 8.91481L14.6094 8.91877Z" fill="white"/>
<path d="M16.399 32.2496C15.7376 33.7426 15.1079 35.2515 14.399 36.7209C14.0465 37.4535 14.0584 38.7169 13.0841 38.7129C11.9792 38.7129 12.0346 37.3704 11.6742 36.5941C10.902 34.9347 10.2604 33.2159 9.32572 30.9347C8.29998 33.4377 7.51978 35.4218 6.66829 37.3743C6.43067 37.9209 6.43463 38.8317 5.5277 38.7605C4.81483 38.701 4.75542 37.9248 4.52968 37.4139C3.21483 34.4159 1.93958 31.3981 0.644531 28.3763C2.06631 27.81 2.72374 28.3486 3.17918 29.5446C3.85245 31.311 4.65245 33.0258 5.61879 35.2872C6.54948 33.1248 7.25839 31.4218 8.01879 29.7426C8.29998 29.1209 8.33166 28.2298 9.2782 28.1585C10.3277 28.0753 10.2921 29.0575 10.5693 29.6476C11.3653 31.3506 12.0782 33.0892 13.0128 35.2476C13.9831 33.0496 14.7554 31.2674 15.5554 29.4931C16.3317 27.7664 16.5059 27.7624 17.9079 29.0654C18.4624 29.5803 18.7831 28.8317 19.1713 28.6258C22.3119 26.9506 25.4247 27.8614 26.6049 30.8357C27.4643 32.9941 27.1079 33.5565 24.8584 33.5644C23.3416 33.5684 21.8247 33.5723 20.3079 33.5446C19.0128 33.5209 18.8386 34.0951 19.3534 35.1486C20.1257 36.7327 21.9475 37.3941 24.1614 36.7803C24.9732 36.5545 25.7416 36.1545 26.6327 35.7941C27.1515 36.8832 26.8782 37.5327 25.7495 38.0436C20.8386 40.2733 16.4901 37.3704 16.9693 33.006C16.993 32.7803 16.8624 32.5387 16.8029 32.301C16.6683 32.2852 16.5297 32.2733 16.395 32.2575L16.399 32.2496ZM21.8683 32.1783C22.1297 32.1783 22.4069 32.2337 22.6525 32.1664C23.3336 31.9882 24.4782 32.6852 24.6327 31.5921C24.7831 30.5268 23.8723 29.8931 22.8584 29.5446C21.896 29.2159 21.0445 29.4496 20.2564 29.9723C19.6465 30.3763 18.997 30.9664 19.1831 31.707C19.397 32.5426 20.296 32.0674 20.8901 32.1664C21.2069 32.2218 21.5435 32.1743 21.8723 32.1743L21.8683 32.1783Z" fill="white"/>
<path d="M69.3059 25.7348C68.4663 28.313 70.0069 28.1506 71.6385 28.1269C72.7514 28.111 73.9871 27.6595 74.9692 28.7843C75.2742 29.1328 75.7692 28.5348 76.1534 28.3328C78.6682 27.01 82.0821 28.3764 81.69 31.7387C81.4762 33.5605 81.6742 35.4298 81.6781 37.2754C81.6781 37.8932 81.6544 38.4912 80.7712 38.4595C79.995 38.4318 79.7653 37.9803 79.7692 37.2912C79.7692 35.5764 79.7296 33.8576 79.7692 32.1427C79.8088 30.4833 79.195 29.4457 77.4088 29.4417C75.6583 29.4417 74.795 30.3249 74.7395 32.111C74.7118 32.9625 74.8663 33.8655 74.288 34.5863C74.0663 34.8635 73.6385 35.1328 73.3098 35.1288C72.7712 35.1249 72.8861 34.5704 72.8702 34.21C72.8385 33.418 72.7633 32.614 72.8702 31.8377C73.1475 29.8615 72.1415 29.4892 70.4504 29.6199C69.4999 29.6912 69.1712 30.0477 69.1989 30.9427C69.2385 32.1942 69.2108 33.4496 69.2465 34.7051C69.3019 36.7407 70.0702 37.2991 71.9989 36.7447C72.2524 36.6734 72.49 36.4714 72.7356 36.4675C73.4128 36.4635 74.0861 34.9783 74.6445 36.1942C75.0643 37.1051 74.094 37.6833 73.2385 37.9843C72.494 38.2457 71.7574 38.5783 70.989 38.713C68.8227 39.0972 67.5237 38.111 67.3653 35.9368C67.2544 34.4278 67.3375 32.9031 67.2623 31.3902C67.2306 30.7407 67.5316 29.7031 66.4187 29.7387C65.4405 29.7704 65.7692 30.7249 65.7573 31.315C65.7177 33.2952 65.6979 35.2754 65.7613 37.2556C65.8049 38.6378 64.7989 38.8516 64.1851 38.2536C63.3415 37.4259 62.9138 37.9407 62.2405 38.2378C59.191 39.5843 56.8227 38.0595 56.7474 34.709C56.7118 33.0615 56.696 31.41 56.7356 29.7585C56.7514 29.0615 56.3593 28.0397 57.7296 28.0912C58.9138 28.1348 58.6128 29.0179 58.6247 29.6793C58.6603 31.3269 58.6168 32.9783 58.6643 34.6298C58.7078 36.1981 59.5158 37.0892 61.1277 37.0932C62.8504 37.0932 64.1217 36.0793 63.789 34.4477C62.9019 30.0556 65.4009 27.7863 68.6564 25.8536C68.7078 25.8219 68.7791 25.8259 69.2979 25.7229L69.3059 25.7348Z" fill="white"/>
<path d="M37.3105 31.3349C39.7897 28.123 42.3759 27.121 45.0373 28.0557C46.2531 28.4834 45.9719 29.2398 45.8095 30.1824C44.8194 29.9567 43.9165 29.5686 42.9184 29.6319C40.8472 29.7626 39.2709 31.3151 39.2788 33.3032C39.2868 35.2042 40.7877 36.7725 42.7759 36.8834C43.4887 36.923 44.2175 36.828 44.9264 36.7131C45.4452 36.6299 45.9798 36.321 46.1343 37.1527C46.2571 37.822 46.0828 38.2022 45.3343 38.4517C42.3323 39.4537 39.9561 38.5705 37.4254 35.2953C35.4769 38.8874 32.3719 39.2438 28.8313 38.4319C27.9244 38.222 27.4531 37.8656 27.4571 36.8676C27.4887 32.5191 27.4769 28.1745 27.4729 23.826C27.4729 23.1052 27.5283 22.4913 28.4986 22.5349C29.3541 22.5745 29.3858 23.1448 29.3739 23.7745C29.366 24.1032 29.3541 24.4319 29.3699 24.7606C29.4174 25.8062 29.1283 27.0775 29.6194 27.8458C30.2848 28.8913 31.5204 27.8141 32.5184 27.8141C34.962 27.8181 36.3798 29.1923 37.3105 31.3309V31.3349ZM29.4531 32.7171C29.4531 34.0834 29.4095 34.8755 29.4689 35.6557C29.5085 36.1824 29.6828 36.7567 30.3204 36.8359C31.8967 37.026 33.5481 37.2399 34.6412 35.7111C35.7462 34.1666 35.7026 32.5111 34.6808 30.923C33.7541 29.4854 32.3283 29.3151 30.8432 29.6913C28.7957 30.2101 29.5561 31.9606 29.4571 32.7131L29.4531 32.7171Z" fill="white"/>
<path d="M39.3056 13.3032C39.9432 15.3943 39.2621 16.3764 37.2541 16.717C35.67 16.9824 34.0937 17.0853 32.5492 16.824C30.1413 16.416 28.0779 15.2636 27.5789 12.6774C27.0403 9.88534 27.0957 7.02594 29.8205 5.22396C32.1888 3.65564 34.8145 3.64376 37.3373 4.86752C39.0086 5.67544 39.9947 8.42792 39.5551 10.2061C39.3531 11.022 38.7947 10.9982 38.2046 11.0061C36.2284 11.022 34.2522 10.9863 32.2799 11.0339C30.7749 11.0695 30.4264 11.7745 31.2898 13.018C32.3591 14.5626 33.971 14.8002 35.6739 14.6418C36.9294 14.523 38.0541 13.9527 39.3096 13.3111L39.3056 13.3032ZM33.3729 9.31108C34.268 8.81603 35.9314 10.0319 36.1017 8.3091C36.2442 6.86356 35.064 6.19425 33.6026 6.20217C32.1769 6.21009 30.9571 6.81603 30.9333 8.2299C30.9096 9.98039 32.5492 8.8596 33.3729 9.31108Z" fill="white"/>
<path d="M41.7452 10.5665C41.7452 9.18428 41.6937 7.79815 41.765 6.41993C41.7967 5.77834 41.3254 4.74864 42.3472 4.60211C43.2264 4.47537 44.4304 3.97636 45.0363 5.01399C45.5511 5.88923 45.9076 5.46943 46.4264 5.20013C47.0046 4.89914 47.5868 4.56646 48.2046 4.37636C50.9373 3.52884 53.2026 4.99815 53.3571 7.83775C53.4917 10.3328 53.3492 12.8437 53.4165 15.3427C53.4521 16.713 52.5729 16.5665 51.7135 16.5744C50.8264 16.5863 49.9907 16.6496 50.0343 15.315C50.0977 13.4061 50.1135 11.4932 50.0026 9.58825C49.8838 7.4932 48.8145 6.68131 46.9016 7.07735C45.765 7.31498 45.0323 7.86547 45.0838 9.21993C45.163 11.1922 45.0323 13.1724 45.1234 15.1447C45.1868 16.515 44.4462 16.5863 43.4086 16.5942C42.3393 16.6021 41.6383 16.4595 41.7254 15.117C41.8205 13.608 41.7492 12.0912 41.7452 10.5744V10.5665Z" fill="white"/>
<path d="M89.4287 10.6179C89.4287 11.9367 89.4802 13.2595 89.4089 14.5783C89.3732 15.2278 89.8564 16.2061 88.8782 16.4556C88.0267 16.6734 86.8386 16.9863 86.2683 16.2219C85.5871 15.311 85.1871 15.6833 84.5178 16.0516C80.5614 18.2417 77.7732 16.5863 77.7772 12.0793C77.7772 10.0318 77.8485 7.98427 77.7574 5.94467C77.698 4.58625 78.4029 4.48328 79.4604 4.47932C80.5416 4.47536 81.2109 4.6219 81.1396 5.96447C81.0445 7.80606 81.1 9.65952 81.1396 11.5051C81.1752 13.0734 81.7218 14.2179 83.5752 14.1427C85.3495 14.0714 86.193 13.2714 86.0742 11.3942C85.9594 9.55259 86.1019 7.69913 86.0425 5.85358C85.995 4.41596 86.9138 4.52289 87.8762 4.4912C88.8821 4.45952 89.5118 4.63378 89.4406 5.87338C89.3534 7.45358 89.4208 9.0417 89.4208 10.6259L89.4287 10.6179Z" fill="white"/>
<path d="M75.5551 7.50906C73.9234 6.95856 72.5017 6.0952 70.8819 6.35262C70.0937 6.47936 68.9809 6.5348 68.9571 7.66747C68.9373 8.65757 69.8878 8.81599 70.6601 9.00213C71.6185 9.23183 72.5928 9.39421 73.5432 9.65955C74.9056 10.0358 75.9076 10.7803 76.0581 12.3407C76.2126 13.9328 75.7611 15.2477 74.3036 16.012C71.6858 17.3863 68.9532 17.2318 66.2442 16.3407C65.2858 16.0279 65.266 15.62 65.6106 13.517C67.2145 14.0635 68.7234 14.9665 70.4977 14.7962C71.373 14.713 72.3908 14.6457 72.5452 13.6239C72.7195 12.4635 71.6343 12.3843 70.8145 12.1704C69.67 11.8774 68.4581 11.7308 67.4007 11.2477C65.0284 10.1704 64.6918 7.22787 66.6561 5.52886C68.3749 4.03975 73.0482 3.57242 74.9611 4.73282C76.0858 5.41401 75.4284 6.46748 75.5591 7.50906H75.5551Z" fill="white"/>
<path d="M61.397 16.9466C57.7217 16.9189 56.7237 15.9644 56.6326 12.8437C56.593 11.4615 56.6326 10.0793 56.6049 8.69712C56.5891 7.84563 56.597 7.08128 55.5 6.65752C54.4782 6.26544 54.5099 4.91494 55.298 4.69712C56.7079 4.30108 56.6762 3.44959 56.5495 2.48326C56.3594 1.00603 57.1752 0.90702 58.3118 0.914941C59.4326 0.922862 60.3277 1.00999 60.0821 2.4793C59.8089 4.1387 60.5257 4.74464 62.1534 4.5387C62.8465 4.45158 63.6425 4.37237 63.6703 5.52088C63.7019 6.71296 62.9257 6.80405 62.1019 6.7288C60.391 6.56643 59.9079 7.39019 60.0623 8.95059C60.1574 9.9288 60.0703 10.9229 60.0821 11.913C60.1099 14.3486 60.3475 14.6219 62.7792 14.5941C63.3811 14.5862 63.6425 14.6813 63.6544 15.2793C63.6663 15.8773 63.7376 16.5585 62.993 16.7446C62.3039 16.9189 61.5712 16.9268 61.3891 16.9506L61.397 16.9466Z" fill="white"/>
<path d="M91.7855 35.8298C92.3004 37.0298 91.8885 37.6872 90.7439 38.1426C88.3043 39.1129 85.9004 39.2397 83.8885 37.3981C82.031 35.6991 81.6786 33.4812 82.5063 31.0654C83.2707 28.8238 85.5479 27.4773 88.1657 27.8218C90.3202 28.103 92.0706 30.0595 92.2568 32.2733C92.3479 33.3505 91.6746 33.501 90.9221 33.5208C89.2112 33.5684 87.4964 33.5367 85.7855 33.5684C85.2944 33.5763 84.6647 33.3545 84.4192 34.0199C84.2172 34.5585 84.4984 35.0416 84.7954 35.4892C85.7142 36.8753 87.54 37.3585 89.5994 36.705C90.3439 36.4713 91.0528 36.1268 91.7895 35.8298H91.7855ZM87.1756 32.1783C87.437 32.1783 87.7182 32.2377 87.9598 32.1664C88.6291 31.9723 89.7657 32.7129 89.9043 31.5644C90.0231 30.5981 89.1716 29.9803 88.2687 29.5921C87.4766 29.2515 86.7162 29.3704 85.9835 29.6911C85.1716 30.0476 84.3558 30.6575 84.4667 31.5525C84.6132 32.7169 85.7301 31.9723 86.3954 32.1704C86.637 32.2416 86.9182 32.1822 87.1796 32.1822L87.1756 32.1783Z" fill="white"/>
<path d="M48.6549 29.014C49.5896 28.606 50.1678 28.305 50.7777 28.0951C53.2332 27.2437 55.451 28.5149 55.6688 31.0575C55.847 33.1526 55.7163 35.2714 55.7441 37.3783C55.752 38.1149 55.4787 38.4674 54.7064 38.4555C53.95 38.4437 53.8589 37.9486 53.851 37.3981C53.8233 35.6833 53.8629 33.9684 53.7955 32.2575C53.7124 30.1981 52.9282 29.3308 51.3282 29.3783C49.6054 29.4338 48.7025 30.4278 48.6866 32.3248C48.6748 33.9724 48.6787 35.6199 48.6866 37.2674C48.6866 37.913 48.6312 38.4357 47.7757 38.4595C46.948 38.4793 46.7896 38.0318 46.7896 37.3506C46.7817 32.804 46.7658 28.2575 46.75 23.711C46.75 23.0773 46.8134 22.5268 47.6688 22.5149C48.651 22.4991 48.6629 23.1328 48.6589 23.8377C48.647 25.4813 48.6589 27.1209 48.6589 29.0179L48.6549 29.014Z" fill="white"/>
<path d="M96.6555 33.8852C97.7168 32.6773 98.2792 31.0614 98.9723 29.5288C99.499 28.3565 100.176 27.6832 101.673 28.2852C99.7723 32.1704 97.8832 35.9882 96.0456 39.8258C95.5347 40.8951 94.7743 41.0298 93.7762 40.7327C93.7406 40.606 93.6495 40.4436 93.6891 40.3882C95.8832 37.5803 95.1228 34.9783 93.3287 32.2892C92.5089 31.0614 91.6733 29.7624 91.2852 28.0317C95.2099 28.202 94.3901 32.3803 96.6515 33.8892L96.6555 33.8852Z" fill="white"/>
</svg>
