<svg width="78" height="31" viewBox="0 0 78 31" fill="none" xmlns="http://www.w3.org/2000/svg">
<path fill-rule="evenodd" clip-rule="evenodd" d="M75.9324 15.4797C75.1763 15.1364 74.3863 15.1355 73.5872 15.2814C73.4594 15.3045 73.3604 15.3844 73.3677 15.5308C73.3744 15.6573 73.467 15.73 73.58 15.7489C73.9391 15.809 74.272 15.9572 74.632 16.0267C75.4103 16.1772 76.1339 16.492 76.7536 16.9997C77.4045 17.5332 77.6679 18.8332 77.3485 19.569C76.7654 20.9128 75.6714 21.3921 74.3081 21.4531C74.0777 21.463 73.8469 21.4544 73.6166 21.4544C72.9123 21.4599 72.2095 21.4644 71.5486 21.1586C70.6466 20.7412 70.0499 19.9534 70.6339 18.9479C70.8304 18.6091 71.0473 18.4994 71.4136 18.6385C72.1187 18.9064 72.8274 19.1354 73.5949 19.1331C73.8501 19.1322 74.0651 19.0292 74.2918 18.9493C74.4039 18.91 74.4698 18.8237 74.4671 18.699C74.4644 18.5848 74.3876 18.5265 74.2918 18.4908C74.0086 18.3856 73.7335 18.2744 73.4232 18.2383C72.3974 18.1195 71.47 17.759 70.7871 16.9473C70.2739 16.3375 70.2337 15.234 70.54 14.5686C70.8503 13.8942 71.3716 13.4575 72.0022 13.1747C72.3721 13.0089 72.7728 12.854 73.205 12.8237C74.2033 12.7532 75.1971 12.7103 76.1285 13.1602C77.0852 13.6223 77.3341 14.5677 76.7789 15.3135C76.5644 15.6017 76.2554 15.6265 75.9324 15.4797ZM67.0077 21.4535C66.7651 21.4617 66.5221 21.4549 66.2059 21.4549C65.6214 21.4716 64.9714 21.4599 64.3589 21.1559C63.8042 20.8803 63.3705 20.5063 63.1849 19.8956C63.0738 19.5297 63.422 18.755 63.7698 18.6137C64.0318 18.5066 64.2694 18.6394 64.4998 18.7388C65.1552 19.0211 65.8404 19.1318 66.5492 19.1236C66.5975 19.1232 66.6481 19.1196 66.6928 19.1042C66.8925 19.0356 67.1612 19.0369 67.1933 18.7582C67.2285 18.4565 66.9548 18.4316 66.7592 18.3584C66.2361 18.1629 65.6729 18.1579 65.1367 17.9763C63.9099 17.5607 63.0367 16.6899 63.1433 15.2995C63.2057 14.491 63.6415 13.8419 64.3494 13.4236C65.5012 12.7424 66.7642 12.6475 68.0421 12.8738C68.7431 12.9976 69.4283 13.251 69.7978 13.9683C70.0205 14.4011 69.895 15.1974 69.5173 15.4843C69.3348 15.6229 69.1153 15.6374 68.8976 15.5249C68.1771 15.1527 67.3943 15.2092 66.6214 15.2051C66.5383 15.2046 66.4552 15.2376 66.3726 15.2584C66.247 15.29 66.1395 15.3456 66.1444 15.4978C66.1494 15.6392 66.2366 15.7273 66.3685 15.7471C66.8229 15.8149 67.2633 15.9613 67.6974 16.0855C68.6984 16.3728 69.6714 16.763 70.1335 17.8372C70.3855 18.4221 70.3354 19.8053 69.5006 20.5533C68.7747 21.2033 67.9346 21.4219 67.0077 21.4535ZM61.1676 17.8679C60.1594 17.9153 59.19 18.2356 58.1804 18.25C58.0851 18.2509 57.9699 18.25 57.9343 18.3625C57.8972 18.4809 57.9695 18.5775 58.0567 18.6466C58.5739 19.0563 59.1819 19.2266 59.8192 19.1665C60.3933 19.1123 60.9693 19.0008 61.4973 18.7288C61.7494 18.5988 61.9585 18.643 62.178 18.8603C63.0729 19.7461 62.412 20.7633 61.6301 21.1098C60.9065 21.4305 60.1562 21.4553 59.2876 21.4599C58.0725 21.5263 56.9071 21.1513 55.9576 20.2104C55.388 19.6458 55.0257 18.9737 54.8807 18.1633C54.7461 17.4126 54.7068 16.6908 54.8731 15.9337C55.0727 15.024 55.5199 14.2886 56.23 13.728C57.3077 12.8766 58.5648 12.601 59.8901 12.8879C61.3668 13.2072 62.3808 14.1142 62.856 15.5778C63.0945 16.3122 62.9337 17.0462 62.3899 17.4564C62.0389 17.7206 61.5917 17.848 61.1676 17.8679ZM59.7876 15.4427C59.5432 15.2552 59.2758 15.1202 58.9578 15.1161C58.3611 15.1084 57.7572 15.4897 57.6673 15.9224C57.6163 16.1677 57.703 16.2612 57.9315 16.1618C58.1289 16.0755 58.3313 16.0787 58.5359 16.057C58.8973 16.0182 59.2573 15.9622 59.6169 15.9089C59.7578 15.8881 59.8716 15.8266 59.8951 15.6731C59.8929 15.5755 59.854 15.4937 59.7876 15.4427ZM54.3902 18.4407C54.3902 19.0477 54.3942 19.6544 54.3893 20.2615C54.3839 20.8785 54.1747 21.1531 53.5785 21.2119C53.0007 21.2692 52.4149 21.3004 51.8394 21.169C51.3769 21.0633 51.1664 20.8216 51.1894 20.3464C51.2472 19.1458 51.1411 17.946 51.1867 16.7468C51.2016 16.3583 51.0421 16.1112 50.7196 15.9694C50.4188 15.8366 50.1189 15.8533 49.8248 16.0566C49.1251 16.5394 49.0032 17.2875 48.9399 18.0319C48.8798 18.7438 48.9246 19.4642 48.9191 20.1806C48.9146 20.8202 48.6707 21.112 48.0469 21.2195C47.4832 21.3167 46.9221 21.3916 46.3593 21.1812C46.0327 21.0592 45.857 20.8573 45.8615 20.5068C45.8742 19.513 45.9058 18.5287 46.0973 17.5404C46.2035 16.9943 46.3155 16.4432 46.503 15.9369C46.8576 14.9806 47.3477 14.0975 48.3694 13.6431C49.0998 13.3179 49.8352 13.0627 50.6401 13.1521C51.8769 13.2894 53.0509 13.5758 53.8237 14.6902C54.1973 15.2286 54.3206 15.8506 54.3712 16.4753C54.4241 17.1267 54.383 17.7852 54.383 18.4407C54.3857 18.4407 54.3879 18.4407 54.3902 18.4407ZM46.6507 10.5047C46.6141 11.3643 46.39 12.1986 46.2604 13.0423C46.1651 13.6643 46.0833 14.308 45.8968 14.9205C45.8146 15.1906 45.8024 15.4693 45.7563 15.744C45.4893 17.3376 45.2522 18.9366 44.8949 20.514C44.7982 20.939 44.5439 21.1626 44.0994 21.1595C43.6518 21.1559 43.2055 21.126 42.7773 20.9594C42.5989 20.8898 42.4024 20.8433 42.2113 20.8329C41.8716 20.8153 41.6236 20.7091 41.5496 20.3419C41.5234 20.2118 41.4253 20.1739 41.2984 20.1987C41.0373 20.2506 40.7686 20.2773 40.5147 20.3541C39.3267 20.7159 38.2779 20.4842 37.341 19.6707C36.8943 19.2831 36.5207 18.835 36.2953 18.2979C36.0275 17.6588 35.9249 16.9744 35.9421 16.2625C36.1106 14.6061 36.8139 13.2957 38.3398 12.4727C39.1022 12.0617 39.9008 12.0689 40.6656 12.269C41.3599 12.4506 41.9638 12.9005 42.5352 13.3563C42.6504 13.4484 42.7104 13.6806 42.8943 13.6034C43.075 13.5279 42.9679 13.3152 42.9733 13.1715C42.9946 12.6195 43.2471 12.1118 43.2588 11.5621C43.2742 10.8561 43.5687 10.1966 43.5791 9.48742C43.5872 8.96434 44.1085 8.54787 44.6713 8.66486C45.2124 8.77734 45.7766 8.77689 46.3056 8.98106C46.8033 9.17348 46.9614 9.50955 46.7799 10.0141C46.7225 10.1731 46.6579 10.3393 46.6507 10.5047ZM40.7957 14.9707C39.8028 14.8532 39.1722 15.7146 39.1745 16.4888C39.1768 17.3331 39.8232 18.0915 40.8133 18.119C41.6842 18.143 42.3541 17.2698 42.3635 16.4428C42.3735 15.5755 41.723 14.9711 40.7957 14.9707ZM34.3395 4.55209C33.7942 4.93378 33.3335 4.67766 32.8723 4.38722C32.7711 4.32353 32.6826 4.23906 32.5886 4.16362C32.1916 3.84291 32.1875 3.72547 32.4134 3.26789C32.7373 2.61202 33.1474 2.00448 33.4478 1.33415C33.6063 0.98046 33.9049 0.729764 34.1353 0.788938C35.0391 0.876568 35.6124 1.10332 35.9755 1.73887C36.1219 1.99544 36.1598 2.25833 36.0627 2.50406C35.7181 3.37404 35.097 4.02089 34.3395 4.55209ZM32.1044 11.3679C31.8646 11.6208 31.6112 11.778 31.2512 11.7672C30.7665 11.7527 30.2809 11.7658 29.7958 11.7631C28.8901 11.7586 28.3155 11.2034 28.3056 10.2951C28.2934 9.22724 28.3024 8.15941 28.3024 7.09158H28.3006C28.3006 6.03549 28.2997 4.97986 28.3011 3.92377C28.302 3.38805 28.4099 3.26112 28.9362 3.18839C29.2496 3.14458 29.5649 3.164 29.8798 3.17846C30.5379 3.20827 30.9331 3.71779 30.921 4.33663C30.911 4.87009 30.9232 5.40446 30.9196 5.93837C30.9128 7.05454 30.9051 8.17025 30.8902 9.28641C30.8875 9.46799 30.9503 9.56511 31.1319 9.57234C31.2774 9.57866 31.4228 9.57595 31.5682 9.57866C31.9847 9.58724 32.2919 9.84697 32.3045 10.2621C32.3163 10.6375 32.422 11.0336 32.1044 11.3679ZM25.7137 4.25397C25.0343 4.09135 24.238 3.06914 24.3103 2.37668C24.3477 2.01848 24.762 1.7068 25.313 1.71538C25.6166 1.68738 25.9255 1.89019 26.1866 2.20594C26.5159 2.60434 26.5227 2.60163 26.9387 2.25156C27.2188 2.01577 27.5047 1.83057 27.8891 2.02164C28.2085 2.18064 28.3381 2.43405 28.1899 2.76605C27.7875 3.66765 26.9197 4.54306 25.7137 4.25397ZM24.7385 10.506C24.7511 11.3137 24.4245 11.7401 23.7578 11.759C23.2727 11.773 22.7857 11.7392 22.302 11.7685C21.3227 11.8277 20.656 11.1271 20.6564 10.1198C20.6564 9.09985 20.6564 8.07991 20.656 7.0595C20.6555 6.03955 20.6542 5.01961 20.6564 3.99966C20.6573 3.43322 20.8037 3.26112 21.362 3.18839C21.6994 3.14413 22.0404 3.14322 22.3779 3.19336C22.9411 3.27648 23.2813 3.66539 23.2822 4.23409C23.2853 5.84939 23.2822 7.46423 23.284 9.07953C23.2844 9.54298 23.3201 9.57505 23.7813 9.57957C24.4873 9.58679 24.7276 9.81942 24.7385 10.506ZM22.5545 12.8097C23.6602 12.8982 24.5587 13.4728 25.2701 14.3234C25.9143 15.0935 26.2973 15.9576 26.2169 16.7161C26.2192 18.7948 25.2895 19.995 23.7379 20.7593C22.919 21.1631 22.0206 21.1952 21.1185 21.1509C19.9662 21.0935 18.9752 20.6463 18.168 19.8518C17.4913 19.186 17.0369 18.3747 17.0116 17.3832C17.0098 17.3105 17.0152 17.2369 17.0075 17.165C16.8824 16.0173 17.2871 15.0438 18.0189 14.1964C18.4593 13.686 19.0352 13.3576 19.6523 13.0825C20.595 12.662 21.5847 12.732 22.5545 12.8097ZM20.1505 16.9532C20.1744 17.8598 20.6564 18.3955 21.6334 18.4005C22.5341 18.405 23.0482 17.8272 23.0486 16.918C23.0491 16.1072 22.5753 15.4648 21.6027 15.5552C20.6523 15.4504 20.1288 16.1288 20.1505 16.9532ZM16.5942 12.3386C16.5951 13.9534 16.6688 15.5759 16.5292 17.179C16.4447 18.1552 16.0919 19.12 15.5535 19.9936C15.0923 20.7421 14.6234 21.4657 13.8863 21.9734C13.8375 22.0069 13.772 22.048 13.8104 22.1175C13.8537 22.197 13.9387 22.1772 14.0046 22.1528C14.2887 22.0475 14.5665 21.9247 14.8534 21.8303C15.3028 21.6825 15.3688 21.7214 15.5291 22.1519C15.7613 22.7752 15.7513 23.3787 15.5427 24.0255C15.3814 24.5265 15.2165 25.0161 14.9103 25.4349C14.5001 25.9959 13.9947 26.4358 13.3216 26.7073C12.4286 27.0678 11.5216 27.3939 10.6227 27.7354C9.9632 27.9861 9.29784 28.2413 8.61847 28.4513C7.9635 28.6537 7.33112 28.9288 6.68744 29.1682C6.03247 29.4112 5.37478 29.6456 4.72071 29.8905C4.02057 30.152 3.29378 30.3399 2.62029 30.6742C2.17129 30.8973 1.95267 30.7708 1.83206 30.2722C1.39888 28.4803 2.09992 27.1328 3.49208 26.0776C3.94559 25.7334 4.51745 25.597 5.04639 25.3928C5.74383 25.1232 6.44668 24.8666 7.15043 24.6132C7.53664 24.4741 7.92962 24.3535 8.3199 24.2252C8.43915 24.1859 8.58595 24.2139 8.67268 24.0919C8.64242 24.0093 8.57195 24.0088 8.5182 24.0165C7.81037 24.1199 7.14095 23.8977 6.48914 23.7039C5.89966 23.5287 5.326 23.2843 4.77944 22.9564C3.9876 22.4816 3.3001 21.9147 2.69798 21.225C2.23272 20.6924 1.86142 20.1088 1.55923 19.4678C0.997311 18.2762 0.718609 17.0295 0.764683 15.7169C0.789978 15 1.02306 14.3247 1.2331 13.6404C1.50187 12.7654 1.95221 12.0057 2.48613 11.2834C3.16775 10.3624 4.02057 9.61751 5.03962 9.11521C5.73389 8.77282 6.45842 8.44669 7.26381 8.40062C7.61388 8.38074 7.9373 8.21496 8.2946 8.18696C9.13116 8.12146 9.95191 8.24704 10.7379 8.48147C11.5311 8.71862 12.3112 9.03481 12.9959 9.52943C13.2218 9.69204 13.4138 9.68572 13.5981 9.46438C14.1577 8.7927 14.9238 8.43495 15.7333 8.23168C16.3648 8.07313 16.6728 8.09933 16.6146 8.98783C16.5414 10.1035 16.5933 11.2215 16.5942 12.3386ZM8.70023 12.3264C6.74796 12.2979 4.76724 13.9972 4.91495 16.1848C4.79931 18.2053 6.63685 19.9534 8.62073 19.9308C10.7957 19.906 12.5072 18.3824 12.4864 16.066C12.4679 13.9778 10.7582 12.3566 8.70023 12.3264ZM25.0352 10.4103C25.0027 9.68346 25.0271 8.95395 25.0267 8.22535C25.0262 7.40009 25.0239 6.57437 25.0253 5.74866C25.0267 5.08872 25.1857 4.92475 25.8311 4.91165C26.0254 4.90803 26.2192 4.90623 26.4134 4.90803C27.2468 4.91571 27.6488 5.32586 27.6497 6.16965C27.6506 6.98317 27.6502 7.79623 27.6502 8.60976H27.6515C27.6515 9.44722 27.6529 10.2851 27.6511 11.1226C27.6497 11.6064 27.5124 11.7473 27.0254 11.7645C26.8195 11.7721 26.6117 11.7536 26.4071 11.7721C25.3523 11.8665 25.0723 11.2324 25.0352 10.4103ZM28.1199 13.7154C28.6033 13.3174 29.1841 13.1011 29.7601 12.8847C30.2149 12.7135 30.6987 12.8079 31.1662 12.7835C32.1094 12.6746 32.9866 12.9068 33.7726 13.3938C34.6403 13.9313 35.3309 14.6405 35.5975 15.6844C35.7122 16.1338 35.8165 16.5774 35.8084 17.0444C35.7813 18.6408 35.0098 19.7786 33.6637 20.5732C32.4997 21.2602 31.2218 21.3058 29.9692 21.0592C28.7053 20.8103 27.6786 20.0686 27.0304 18.9244C26.7991 18.5165 26.6004 18.0585 26.6239 17.5494C26.642 17.1492 26.6049 16.7468 26.6307 16.3475C26.7025 15.234 27.2883 14.4011 28.1199 13.7154ZM31.182 18.3946C32.1198 18.3959 32.6022 17.8959 32.6027 16.913C32.6031 16.057 32.1826 15.4797 31.2227 15.5547C30.2542 15.4409 29.7176 16.2156 29.7447 16.9311C29.7818 17.9108 30.2208 18.3937 31.182 18.3946Z" fill="white"/>
</svg>
