<svg width="78" height="29" viewBox="0 0 78 29" fill="none" xmlns="http://www.w3.org/2000/svg">
<path d="M22.7718 28.4726C22.6255 28.3959 22.4656 28.4391 22.3137 28.4303C19.477 28.272 17.0328 27.211 14.9852 25.245C13.9035 24.2064 13.0751 22.9879 12.4859 21.6103C11.9758 20.4174 12.7154 19.1885 14.0082 19.0734C14.731 19.0094 15.4417 19.4764 15.7672 20.2039C16.7618 22.4258 18.4224 23.9073 20.7642 24.5845C24.4796 25.6599 28.4277 23.7874 29.9635 20.2391C30.2066 19.677 30.5768 19.2685 31.1756 19.107C31.86 18.9223 32.4725 19.0822 32.9562 19.5979C33.4383 20.112 33.5862 20.7356 33.3368 21.4016C32.9234 22.5066 32.3094 23.5004 31.5482 24.3991C29.6837 26.6017 27.3139 27.9042 24.4628 28.3359C24.0351 28.4007 23.6033 28.4383 23.1692 28.4343C23.1028 28.4343 23.0325 28.4231 22.9749 28.471H22.7718V28.4726Z" fill="white"/>
<path d="M22.7718 28.4726C22.6255 28.3959 22.4656 28.4391 22.3137 28.4303C19.477 28.272 17.0328 27.211 14.9852 25.245C13.9035 24.2064 13.0751 22.9879 12.4859 21.6103C11.9758 20.4174 12.7154 19.1885 14.0082 19.0734C14.731 19.0094 15.4417 19.4764 15.7672 20.2039C16.7618 22.4258 18.4224 23.9073 20.7642 24.5845C24.4796 25.6599 28.4277 23.7874 29.9635 20.2391C30.2066 19.677 30.5768 19.2685 31.1756 19.107C31.86 18.9223 32.4725 19.0822 32.9562 19.5979C33.4383 20.112 33.5862 20.7356 33.3368 21.4016C32.9234 22.5066 32.3094 23.5004 31.5482 24.3991C29.6837 26.6017 27.3139 27.9042 24.4628 28.3359C24.0351 28.4007 23.6033 28.4383 23.1692 28.4343C23.1028 28.4343 23.0325 28.4231 22.9749 28.471H22.7718V28.4726Z" fill="white"/>
<path d="M77.6396 6.48017C77.4972 6.54733 77.3469 6.51056 77.2006 6.50976C77.0823 6.50896 77.1207 6.40422 77.1199 6.33866C77.1167 5.84535 77.1183 5.35204 77.1183 4.85873C77.1183 4.79237 77.1183 4.72521 77.1183 4.65885C77.1055 4.65645 77.0919 4.65405 77.0791 4.65166C76.9824 5.03303 76.8848 5.4152 76.7881 5.79658C76.7401 5.98607 76.6849 6.17475 76.6457 6.36584C76.6226 6.47777 76.5754 6.53534 76.4563 6.51455C76.4435 6.51215 76.4291 6.51455 76.4155 6.51455C76.0901 6.51695 76.0917 6.51615 76.0125 6.19954C75.8822 5.67745 75.7495 5.15616 75.576 4.63886C75.576 4.96267 75.576 5.28648 75.576 5.60949C75.576 5.85255 75.568 6.0964 75.5792 6.33946C75.5864 6.48657 75.5304 6.52015 75.3929 6.51775C75.0819 6.51215 75.0819 6.51935 75.0819 6.20674C75.0819 5.65906 75.0819 5.11218 75.0819 4.56451C75.0819 4.38222 75.0875 4.19912 75.0795 4.01763C75.0747 3.9081 75.1155 3.87771 75.2194 3.88251C75.4353 3.89211 75.6943 3.82015 75.8542 3.91689C76.0061 4.00884 75.9869 4.29267 76.0445 4.49175C76.1349 4.80277 76.2124 5.11698 76.2956 5.43039C76.3091 5.48077 76.3083 5.53833 76.3707 5.57351C76.497 5.09539 76.6378 4.62287 76.7409 4.14236C76.7889 3.92169 76.8832 3.85933 77.0935 3.88011C77.2742 3.8985 77.4581 3.88411 77.6404 3.88411V6.48097L77.6396 6.48017Z" fill="white"/>
<path d="M77.6396 6.48017C77.4972 6.54733 77.3469 6.51056 77.2006 6.50976C77.0823 6.50896 77.1207 6.40422 77.1199 6.33866C77.1167 5.84535 77.1183 5.35204 77.1183 4.85873C77.1183 4.79237 77.1183 4.72521 77.1183 4.65885C77.1055 4.65645 77.0919 4.65405 77.0791 4.65166C76.9824 5.03303 76.8848 5.4152 76.7881 5.79658C76.7401 5.98607 76.6849 6.17475 76.6457 6.36584C76.6226 6.47777 76.5754 6.53534 76.4563 6.51455C76.4435 6.51215 76.4291 6.51455 76.4155 6.51455C76.0901 6.51695 76.0917 6.51615 76.0125 6.19954C75.8822 5.67745 75.7495 5.15616 75.576 4.63886C75.576 4.96267 75.576 5.28648 75.576 5.60949C75.576 5.85255 75.568 6.0964 75.5792 6.33946C75.5864 6.48657 75.5304 6.52015 75.3929 6.51775C75.0819 6.51215 75.0819 6.51935 75.0819 6.20674C75.0819 5.65906 75.0819 5.11218 75.0819 4.56451C75.0819 4.38222 75.0875 4.19912 75.0795 4.01763C75.0747 3.9081 75.1155 3.87771 75.2194 3.88251C75.4353 3.89211 75.6943 3.82015 75.8542 3.91689C76.0061 4.00884 75.9869 4.29267 76.0445 4.49175C76.1349 4.80277 76.2124 5.11698 76.2956 5.43039C76.3091 5.48077 76.3083 5.53833 76.3707 5.57351C76.497 5.09539 76.6378 4.62287 76.7409 4.14236C76.7889 3.92169 76.8832 3.85933 77.0935 3.88011C77.2742 3.8985 77.4581 3.88411 77.6404 3.88411V6.48097L77.6396 6.48017Z" fill="white"/>
<path d="M41.8131 17.4495C39.6344 17.3848 37.8803 16.5333 36.7513 14.6184C35.4545 12.4197 35.9526 9.54303 37.8787 7.86402C39.2091 6.70391 40.7666 6.25777 42.5055 6.43847C44.3524 6.63035 45.8204 7.48984 46.8142 9.06331C48.5619 11.8305 47.4146 15.5067 44.3948 16.8979C43.5769 17.2745 42.7158 17.4487 41.8131 17.4487V17.4495ZM39.4433 12C39.4481 12.231 39.4681 12.5013 39.5489 12.7611C39.8199 13.639 40.3724 14.2594 41.2814 14.4649C42.1657 14.6648 42.9621 14.4321 43.5953 13.7645C44.0046 13.3336 44.131 12.7811 44.2029 12.2071C44.378 10.8127 43.2171 9.2624 41.4997 9.48546C40.3508 9.63497 39.4441 10.7199 39.4433 11.9992V12Z" fill="white"/>
<path d="M41.8131 17.4495C39.6344 17.3848 37.8803 16.5333 36.7513 14.6184C35.4545 12.4197 35.9526 9.54303 37.8787 7.86402C39.2091 6.70391 40.7666 6.25777 42.5055 6.43847C44.3524 6.63035 45.8204 7.48984 46.8142 9.06331C48.5619 11.8305 47.4146 15.5067 44.3948 16.8979C43.5769 17.2745 42.7158 17.4487 41.8131 17.4487V17.4495ZM39.4433 12C39.4481 12.231 39.4681 12.5013 39.5489 12.7611C39.8199 13.639 40.3724 14.2594 41.2814 14.4649C42.1657 14.6648 42.9621 14.4321 43.5953 13.7645C44.0046 13.3336 44.131 12.7811 44.2029 12.2071C44.378 10.8127 43.2171 9.2624 41.4997 9.48546C40.3508 9.63497 39.4441 10.7199 39.4433 11.9992V12Z" fill="white"/>
<path d="M60.747 10.6065C60.747 11.3909 60.763 12.1752 60.7422 12.9595C60.7206 13.7695 60.5767 14.5586 60.1969 15.287C59.7548 16.1353 59.0416 16.6781 58.1573 16.9828C56.3528 17.604 54.5307 17.616 52.7245 16.9995C51.2534 16.4974 50.4555 15.4117 50.1892 13.907C50.1029 13.4201 50.0709 12.9284 50.0717 12.4343C50.0741 11.0343 50.0685 9.63511 50.0733 8.23514C50.0773 7.02785 51.2862 6.18835 52.4159 6.6025C53.1043 6.85516 53.5504 7.54115 53.5512 8.35906C53.5528 9.69108 53.5496 11.0231 53.5528 12.3551C53.5552 13.2849 54.1037 14.0085 54.9624 14.226C56.1201 14.5194 57.2467 13.6279 57.2531 12.4023C57.2594 11.0639 57.2563 9.72466 57.2531 8.38625C57.2523 7.74983 57.4809 7.22214 57.9958 6.84156C58.5419 6.4386 59.1479 6.36984 59.7572 6.66247C60.3864 6.96389 60.7374 7.48438 60.7494 8.19276C60.763 8.99709 60.7526 9.80221 60.7526 10.6065C60.7502 10.6065 60.7478 10.6065 60.7462 10.6065H60.747Z" fill="white"/>
<path d="M60.747 10.6065C60.747 11.3909 60.763 12.1752 60.7422 12.9595C60.7206 13.7695 60.5767 14.5586 60.1969 15.287C59.7548 16.1353 59.0416 16.6781 58.1573 16.9828C56.3528 17.604 54.5307 17.616 52.7245 16.9995C51.2534 16.4974 50.4555 15.4117 50.1892 13.907C50.1029 13.4201 50.0709 12.9284 50.0717 12.4343C50.0741 11.0343 50.0685 9.63511 50.0733 8.23514C50.0773 7.02785 51.2862 6.18835 52.4159 6.6025C53.1043 6.85516 53.5504 7.54115 53.5512 8.35906C53.5528 9.69108 53.5496 11.0231 53.5528 12.3551C53.5552 13.2849 54.1037 14.0085 54.9624 14.226C56.1201 14.5194 57.2467 13.6279 57.2531 12.4023C57.2594 11.0639 57.2563 9.72466 57.2531 8.38625C57.2523 7.74983 57.4809 7.22214 57.9958 6.84156C58.5419 6.4386 59.1479 6.36984 59.7572 6.66247C60.3864 6.96389 60.7374 7.48438 60.7494 8.19276C60.763 8.99709 60.7526 9.80221 60.7526 10.6065C60.7502 10.6065 60.7478 10.6065 60.7462 10.6065H60.747Z" fill="white"/>
<path d="M0.438541 8.91401C0.438541 6.84483 0.438541 4.77566 0.438541 2.70648C0.438541 1.94293 0.792731 1.37207 1.41876 0.96831C1.95284 0.623714 2.8643 0.774025 3.35681 1.25054C3.79495 1.67429 4.00283 2.18119 4.00203 2.79123C3.99723 6.41548 4.00203 10.0405 3.99483 13.6648C3.99483 13.8719 4.0468 13.919 4.24988 13.9174C5.55631 13.9078 6.86274 13.935 8.16836 13.9047C9.04065 13.8839 9.73304 14.3388 9.81219 15.4333C9.84337 15.8635 9.7978 16.2697 9.51876 16.6222C9.20295 17.0204 8.79679 17.2059 8.28509 17.2027C6.93789 17.1939 5.59149 17.1995 4.24429 17.1995C3.64224 17.1995 3.0394 17.2043 2.43736 17.1987C1.25726 17.1859 0.441739 16.364 0.44014 15.1823C0.436941 13.0923 0.43934 11.0032 0.43934 8.91321L0.438541 8.91401Z" fill="white"/>
<path d="M0.438541 8.91401C0.438541 6.84483 0.438541 4.77566 0.438541 2.70648C0.438541 1.94293 0.792731 1.37207 1.41876 0.96831C1.95284 0.623714 2.8643 0.774025 3.35681 1.25054C3.79495 1.67429 4.00283 2.18119 4.00203 2.79123C3.99723 6.41548 4.00203 10.0405 3.99483 13.6648C3.99483 13.8719 4.0468 13.919 4.24988 13.9174C5.55631 13.9078 6.86274 13.935 8.16836 13.9047C9.04065 13.8839 9.73304 14.3388 9.81219 15.4333C9.84337 15.8635 9.7978 16.2697 9.51876 16.6222C9.20295 17.0204 8.79679 17.2059 8.28509 17.2027C6.93789 17.1939 5.59149 17.1995 4.24429 17.1995C3.64224 17.1995 3.0394 17.2043 2.43736 17.1987C1.25726 17.1859 0.441739 16.364 0.44014 15.1823C0.436941 13.0923 0.43934 11.0032 0.43934 8.91321L0.438541 8.91401Z" fill="white"/>
<path d="M68.492 6.48643C69.413 6.49922 70.4364 6.64553 71.3879 7.12924C71.5574 7.21559 71.7149 7.31873 71.8628 7.43866C72.265 7.76567 72.3817 8.19182 72.2482 8.67473C72.1123 9.16404 71.7661 9.44228 71.264 9.52143C70.825 9.59019 70.4045 9.47905 69.9823 9.38391C69.5146 9.27837 69.0573 9.12646 68.5815 9.0561C68.2993 9.01453 68.0163 8.99854 67.742 9.11207C67.3063 9.29196 67.2263 9.7317 67.5725 10.0515C67.7252 10.1922 67.9107 10.273 68.1042 10.3369C68.771 10.5576 69.4426 10.7639 70.1046 10.9982C70.8738 11.27 71.583 11.6482 72.0683 12.3342C72.8774 13.4775 72.7279 14.9654 71.7197 16.0032C70.9897 16.7555 70.0823 17.1449 69.0605 17.26C67.7564 17.4072 66.4668 17.3088 65.2115 16.9043C64.6167 16.7124 64.0938 16.3942 63.6708 15.928C63.3135 15.5339 63.1943 15.0893 63.4014 14.5816C63.6077 14.0739 64.0074 13.8229 64.5311 13.7421C65.0884 13.6566 65.6001 13.8437 66.115 14.0092C66.6491 14.1811 67.1752 14.3778 67.7348 14.4545C67.9571 14.4857 68.1802 14.4953 68.3976 14.4225C68.7199 14.3154 68.8454 14.0667 68.7526 13.7397C68.6719 13.4567 68.4784 13.284 68.2194 13.1673C67.8148 12.985 67.3751 12.9282 66.9537 12.8099C66.3676 12.6452 65.792 12.4581 65.2323 12.2134C63.6157 11.5059 63.0592 9.31755 64.4936 7.85521C65.2515 7.08287 66.2029 6.71749 67.2503 6.56158C67.6189 6.50721 67.9899 6.48243 68.4928 6.48563L68.492 6.48643Z" fill="white"/>
<path d="M68.492 6.48643C69.413 6.49922 70.4364 6.64553 71.3879 7.12924C71.5574 7.21559 71.7149 7.31873 71.8628 7.43866C72.265 7.76567 72.3817 8.19182 72.2482 8.67473C72.1123 9.16404 71.7661 9.44228 71.264 9.52143C70.825 9.59019 70.4045 9.47905 69.9823 9.38391C69.5146 9.27837 69.0573 9.12646 68.5815 9.0561C68.2993 9.01453 68.0163 8.99854 67.742 9.11207C67.3063 9.29196 67.2263 9.7317 67.5725 10.0515C67.7252 10.1922 67.9107 10.273 68.1042 10.3369C68.771 10.5576 69.4426 10.7639 70.1046 10.9982C70.8738 11.27 71.583 11.6482 72.0683 12.3342C72.8774 13.4775 72.7279 14.9654 71.7197 16.0032C70.9897 16.7555 70.0823 17.1449 69.0605 17.26C67.7564 17.4072 66.4668 17.3088 65.2115 16.9043C64.6167 16.7124 64.0938 16.3942 63.6708 15.928C63.3135 15.5339 63.1943 15.0893 63.4014 14.5816C63.6077 14.0739 64.0074 13.8229 64.5311 13.7421C65.0884 13.6566 65.6001 13.8437 66.115 14.0092C66.6491 14.1811 67.1752 14.3778 67.7348 14.4545C67.9571 14.4857 68.1802 14.4953 68.3976 14.4225C68.7199 14.3154 68.8454 14.0667 68.7526 13.7397C68.6719 13.4567 68.4784 13.284 68.2194 13.1673C67.8148 12.985 67.3751 12.9282 66.9537 12.8099C66.3676 12.6452 65.792 12.4581 65.2323 12.2134C63.6157 11.5059 63.0592 9.31755 64.4936 7.85521C65.2515 7.08287 66.2029 6.71749 67.2503 6.56158C67.6189 6.50721 67.9899 6.48243 68.4928 6.48563L68.492 6.48643Z" fill="white"/>
<path d="M24.0317 17.3545C22.858 17.3681 21.7395 17.1443 20.7537 16.4798C19.4344 15.5908 18.6645 14.3139 18.4478 12.7668C18.144 10.5985 18.9267 8.82358 20.6777 7.50516C21.514 6.87513 22.5006 6.64087 23.536 6.60569C24.4283 6.57531 25.3094 6.64247 26.1489 6.97347C26.8581 7.25331 27.3346 7.72263 27.5001 8.51016C27.6648 9.2937 26.9812 10.2124 25.8978 9.99408C25.5404 9.92213 25.1886 9.82538 24.8336 9.74063C24.2228 9.59512 23.6112 9.56474 23.0171 9.7982C22.1872 10.1244 21.7347 10.7608 21.6028 11.6283C21.4149 12.8676 22.1328 13.9853 23.3026 14.2875C23.8143 14.4195 24.3244 14.3547 24.8289 14.2452C25.2966 14.1436 25.7523 13.9749 26.2424 14.0181C26.9564 14.0813 27.3761 14.4866 27.5225 15.1878C27.7008 16.0401 27.2066 16.583 26.675 16.8548C25.9978 17.201 25.2638 17.3066 24.5178 17.3521C24.3563 17.3617 24.1932 17.3537 24.0309 17.3537L24.0317 17.3545Z" fill="white"/>
<path d="M24.0317 17.3545C22.858 17.3681 21.7395 17.1443 20.7537 16.4798C19.4344 15.5908 18.6645 14.3139 18.4478 12.7668C18.144 10.5985 18.9267 8.82358 20.6777 7.50516C21.514 6.87513 22.5006 6.64087 23.536 6.60569C24.4283 6.57531 25.3094 6.64247 26.1489 6.97347C26.8581 7.25331 27.3346 7.72263 27.5001 8.51016C27.6648 9.2937 26.9812 10.2124 25.8978 9.99408C25.5404 9.92213 25.1886 9.82538 24.8336 9.74063C24.2228 9.59512 23.6112 9.56474 23.0171 9.7982C22.1872 10.1244 21.7347 10.7608 21.6028 11.6283C21.4149 12.8676 22.1328 13.9853 23.3026 14.2875C23.8143 14.4195 24.3244 14.3547 24.8289 14.2452C25.2966 14.1436 25.7523 13.9749 26.2424 14.0181C26.9564 14.0813 27.3761 14.4866 27.5225 15.1878C27.7008 16.0401 27.2066 16.583 26.675 16.8548C25.9978 17.201 25.2638 17.3066 24.5178 17.3521C24.3563 17.3617 24.1932 17.3537 24.0309 17.3537L24.0317 17.3545Z" fill="white"/>
<path d="M12.3336 11.9369C12.3336 10.7136 12.3264 9.49035 12.336 8.26708C12.3416 7.54191 12.667 6.99023 13.3275 6.67362C13.9607 6.3698 14.5811 6.44016 15.1448 6.85511C15.6357 7.2165 15.8596 7.7234 15.8604 8.32864C15.862 10.7416 15.8588 13.1538 15.862 15.5668C15.8636 16.8428 14.7034 17.6751 13.5329 17.3089C12.815 17.0843 12.3384 16.4087 12.3352 15.6067C12.3304 14.4778 12.3336 13.3497 12.3336 12.2207C12.3336 12.1264 12.3336 12.0312 12.3336 11.9369Z" fill="white"/>
<path d="M12.3336 11.9369C12.3336 10.7136 12.3264 9.49035 12.336 8.26708C12.3416 7.54191 12.667 6.99023 13.3275 6.67362C13.9607 6.3698 14.5811 6.44016 15.1448 6.85511C15.6357 7.2165 15.8596 7.7234 15.8604 8.32864C15.862 10.7416 15.8588 13.1538 15.862 15.5668C15.8636 16.8428 14.7034 17.6751 13.5329 17.3089C12.815 17.0843 12.3384 16.4087 12.3352 15.6067C12.3304 14.4778 12.3336 13.3497 12.3336 12.2207C12.3336 12.1264 12.3336 12.0312 12.3336 11.9369Z" fill="white"/>
<path d="M33.5282 11.9554C33.5282 13.185 33.5298 14.4155 33.5282 15.6452C33.5274 16.4639 32.9278 17.2059 32.153 17.3538C31.2751 17.5217 30.4724 17.1083 30.1438 16.3208C30.0431 16.0793 30.0095 15.8259 30.0087 15.5684C30.0071 13.1491 30.0055 10.7297 30.0087 8.31032C30.0103 7.38287 30.6339 6.63132 31.4806 6.51938C32.3993 6.39786 33.2204 6.92155 33.4642 7.78583C33.5082 7.94254 33.5282 8.10245 33.5282 8.26555C33.5266 9.49522 33.5282 10.7257 33.5282 11.9554Z" fill="white"/>
<path d="M33.5282 11.9554C33.5282 13.185 33.5298 14.4155 33.5282 15.6452C33.5274 16.4639 32.9278 17.2059 32.153 17.3538C31.2751 17.5217 30.4724 17.1083 30.1438 16.3208C30.0431 16.0793 30.0095 15.8259 30.0087 15.5684C30.0071 13.1491 30.0055 10.7297 30.0087 8.31032C30.0103 7.38287 30.6339 6.63132 31.4806 6.51938C32.3993 6.39786 33.2204 6.92155 33.4642 7.78583C33.5082 7.94254 33.5282 8.10245 33.5282 8.26555C33.5266 9.49522 33.5282 10.7257 33.5282 11.9554Z" fill="white"/>
<path d="M14.0902 4.4469C13.1252 4.4469 12.3456 3.67535 12.3408 2.71592C12.336 1.75089 13.1252 0.96416 14.0966 0.966558C15.0616 0.968957 15.8364 1.7381 15.8452 2.70233C15.8532 3.66336 15.0656 4.4477 14.0902 4.4469Z" fill="white"/>
<path d="M14.0902 4.4469C13.1252 4.4469 12.3456 3.67535 12.3408 2.71592C12.336 1.75089 13.1252 0.96416 14.0966 0.966558C15.0616 0.968957 15.8364 1.7381 15.8452 2.70233C15.8532 3.66336 15.0656 4.4477 14.0902 4.4469Z" fill="white"/>
<path d="M33.4963 2.72068C33.4915 3.71049 32.7264 4.45085 31.7126 4.44686C30.7596 4.44286 30.0048 3.65852 30.0088 2.6767C30.0128 1.72447 30.8019 0.961719 31.7766 0.967316C32.74 0.972113 33.5003 1.74765 33.4955 2.72148L33.4963 2.72068Z" fill="white"/>
<path d="M33.4963 2.72068C33.4915 3.71049 32.7264 4.45085 31.7126 4.44686C30.7596 4.44286 30.0048 3.65852 30.0088 2.6767C30.0128 1.72447 30.8019 0.961719 31.7766 0.967316C32.74 0.972113 33.5003 1.74765 33.4955 2.72148L33.4963 2.72068Z" fill="white"/>
<path d="M59.1683 22.6193C59.1683 22.1532 59.1723 21.6863 59.1659 21.2202C59.1643 21.0666 59.2139 21.0059 59.3762 21.0043C60.0078 20.9979 60.0078 20.9931 60.3644 21.5168C60.5355 21.7678 60.7098 22.0173 60.8777 22.2707C60.9568 22.3899 61.016 22.3955 61.0983 22.2723C61.3382 21.9125 61.5892 21.56 61.8259 21.1978C61.9178 21.0571 62.0266 20.9907 62.1945 21.0051C62.3088 21.0147 62.4247 21.0067 62.5391 21.0067C62.8109 21.0067 62.8157 21.0107 62.8157 21.2761C62.8157 22.1076 62.8165 22.9391 62.8157 23.7706C62.8157 24.3335 62.8661 24.2496 62.3256 24.2512C61.8779 24.2528 61.9162 24.3095 61.9154 23.837C61.9154 23.4988 61.9154 23.1606 61.9154 22.8232C61.9154 22.7776 61.9314 22.7161 61.8803 22.6953C61.8099 22.6665 61.7915 22.7409 61.7659 22.7816C61.5645 23.1014 61.3662 23.4237 61.1663 23.7451C61.008 24.0001 60.9696 24.0009 60.8145 23.7531C60.6146 23.4324 60.4155 23.1102 60.2149 22.7896C60.1877 22.7465 60.1669 22.6721 60.1037 22.6913C60.0438 22.7105 60.0613 22.7832 60.0613 22.836C60.0605 23.2414 60.0565 23.6475 60.0629 24.0529C60.0653 24.2008 60.0126 24.2624 59.8615 24.2544C59.6992 24.2456 59.5361 24.2448 59.3746 24.2544C59.2099 24.2648 59.1635 24.1912 59.1651 24.0385C59.1707 23.5652 59.1675 23.0918 59.1675 22.6185L59.1683 22.6193Z" fill="white"/>
<path d="M59.1683 22.6193C59.1683 22.1532 59.1723 21.6863 59.1659 21.2202C59.1643 21.0666 59.2139 21.0059 59.3762 21.0043C60.0078 20.9979 60.0078 20.9931 60.3644 21.5168C60.5355 21.7678 60.7098 22.0173 60.8777 22.2707C60.9568 22.3899 61.016 22.3955 61.0983 22.2723C61.3382 21.9125 61.5892 21.56 61.8259 21.1978C61.9178 21.0571 62.0266 20.9907 62.1945 21.0051C62.3088 21.0147 62.4247 21.0067 62.5391 21.0067C62.8109 21.0067 62.8157 21.0107 62.8157 21.2761C62.8157 22.1076 62.8165 22.9391 62.8157 23.7706C62.8157 24.3335 62.8661 24.2496 62.3256 24.2512C61.8779 24.2528 61.9162 24.3095 61.9154 23.837C61.9154 23.4988 61.9154 23.1606 61.9154 22.8232C61.9154 22.7776 61.9314 22.7161 61.8803 22.6953C61.8099 22.6665 61.7915 22.7409 61.7659 22.7816C61.5645 23.1014 61.3662 23.4237 61.1663 23.7451C61.008 24.0001 60.9696 24.0009 60.8145 23.7531C60.6146 23.4324 60.4155 23.1102 60.2149 22.7896C60.1877 22.7465 60.1669 22.6721 60.1037 22.6913C60.0438 22.7105 60.0613 22.7832 60.0613 22.836C60.0605 23.2414 60.0565 23.6475 60.0629 24.0529C60.0653 24.2008 60.0126 24.2624 59.8615 24.2544C59.6992 24.2456 59.5361 24.2448 59.3746 24.2544C59.2099 24.2648 59.1635 24.1912 59.1651 24.0385C59.1707 23.5652 59.1675 23.0918 59.1675 22.6185L59.1683 22.6193Z" fill="white"/>
<path d="M46.8487 22.5402V23.6876C46.8487 24.0644 46.6603 24.2528 46.2834 24.2528C46.0692 24.2528 45.962 24.146 45.962 23.9322C45.962 23.0272 45.9668 22.1213 45.958 21.2162C45.9564 21.0211 46.0148 20.9564 46.2123 20.9628C47.011 20.9884 46.7576 20.8437 47.2349 21.4969C47.4859 21.8399 47.7266 22.1917 47.9744 22.5371C48.0144 22.593 48.0352 22.6746 48.1272 22.6842C48.1775 22.6234 48.1527 22.553 48.1535 22.4899C48.1559 22.0645 48.1639 21.6384 48.1511 21.213C48.1447 21.0116 48.2183 20.946 48.4102 20.9644C48.5373 20.9764 48.6676 20.9764 48.7956 20.9644C48.981 20.9468 49.057 21.018 49.045 21.205C49.0346 21.3665 49.0426 21.5288 49.0426 21.6912C49.0426 22.4611 49.0386 23.2318 49.0458 24.0018C49.0474 24.1937 48.9882 24.2632 48.7884 24.2568C48.0056 24.232 48.2455 24.3656 47.793 23.7475C47.5371 23.3989 47.2908 23.044 47.0398 22.6922C46.9974 22.633 46.9519 22.577 46.9079 22.5195C46.8887 22.5267 46.8695 22.5331 46.8495 22.5402H46.8487Z" fill="white"/>
<path d="M46.8487 22.5402V23.6876C46.8487 24.0644 46.6603 24.2528 46.2834 24.2528C46.0692 24.2528 45.962 24.146 45.962 23.9322C45.962 23.0272 45.9668 22.1213 45.958 21.2162C45.9564 21.0211 46.0148 20.9564 46.2123 20.9628C47.011 20.9884 46.7576 20.8437 47.2349 21.4969C47.4859 21.8399 47.7266 22.1917 47.9744 22.5371C48.0144 22.593 48.0352 22.6746 48.1272 22.6842C48.1775 22.6234 48.1527 22.553 48.1535 22.4899C48.1559 22.0645 48.1639 21.6384 48.1511 21.213C48.1447 21.0116 48.2183 20.946 48.4102 20.9644C48.5373 20.9764 48.6676 20.9764 48.7956 20.9644C48.981 20.9468 49.057 21.018 49.045 21.205C49.0346 21.3665 49.0426 21.5288 49.0426 21.6912C49.0426 22.4611 49.0386 23.2318 49.0458 24.0018C49.0474 24.1937 48.9882 24.2632 48.7884 24.2568C48.0056 24.232 48.2455 24.3656 47.793 23.7475C47.5371 23.3989 47.2908 23.044 47.0398 22.6922C46.9974 22.633 46.9519 22.577 46.9079 22.5195C46.8887 22.5267 46.8695 22.5331 46.8495 22.5402H46.8487Z" fill="white"/>
<path d="M35.9234 22.5954C35.9234 22.122 35.9274 21.6487 35.921 21.1754C35.9186 21.0187 35.9729 20.9603 36.1328 20.9627C36.5862 20.9707 37.0395 20.9611 37.4928 20.9667C38.0373 20.9731 38.3931 21.2553 38.4699 21.7239C38.517 22.0117 38.4179 22.242 38.2012 22.4259C38.1365 22.481 38.1061 22.521 38.1988 22.5738C38.6234 22.8152 38.6386 23.2861 38.525 23.6451C38.3923 24.0649 38.0501 24.2264 37.648 24.244C37.1275 24.2672 36.6062 24.2488 36.0849 24.2528C35.9402 24.2536 35.9218 24.1696 35.9218 24.0553C35.9234 23.5684 35.9218 23.0815 35.9218 22.5946L35.9234 22.5954ZM37.181 23.4405C37.2418 23.4405 37.3018 23.4429 37.3625 23.4405C37.5144 23.4333 37.6328 23.3693 37.6304 23.2046C37.628 23.0479 37.52 22.9663 37.3657 22.9583C37.2586 22.9527 37.1506 22.9615 37.0435 22.9535C36.8628 22.9407 36.8124 23.0295 36.8132 23.1966C36.8132 23.3605 36.8564 23.458 37.0403 23.4421C37.0867 23.4381 37.1347 23.4421 37.181 23.4405ZM37.1187 22.2236C37.185 22.2236 37.2314 22.2236 37.2786 22.2236C37.4345 22.222 37.5208 22.142 37.5168 21.9877C37.5128 21.8358 37.4081 21.783 37.2714 21.779C37.2042 21.7766 37.1371 21.7782 37.0691 21.779C36.842 21.7814 36.7973 21.8342 36.8156 22.0565C36.8348 22.2851 37.0091 22.2084 37.1179 22.2252L37.1187 22.2236Z" fill="white"/>
<path d="M35.9234 22.5954C35.9234 22.122 35.9274 21.6487 35.921 21.1754C35.9186 21.0187 35.9729 20.9603 36.1328 20.9627C36.5862 20.9707 37.0395 20.9611 37.4928 20.9667C38.0373 20.9731 38.3931 21.2553 38.4699 21.7239C38.517 22.0117 38.4179 22.242 38.2012 22.4259C38.1365 22.481 38.1061 22.521 38.1988 22.5738C38.6234 22.8152 38.6386 23.2861 38.525 23.6451C38.3923 24.0649 38.0501 24.2264 37.648 24.244C37.1275 24.2672 36.6062 24.2488 36.0849 24.2528C35.9402 24.2536 35.9218 24.1696 35.9218 24.0553C35.9234 23.5684 35.9218 23.0815 35.9218 22.5946L35.9234 22.5954ZM37.181 23.4405C37.2418 23.4405 37.3018 23.4429 37.3625 23.4405C37.5144 23.4333 37.6328 23.3693 37.6304 23.2046C37.628 23.0479 37.52 22.9663 37.3657 22.9583C37.2586 22.9527 37.1506 22.9615 37.0435 22.9535C36.8628 22.9407 36.8124 23.0295 36.8132 23.1966C36.8132 23.3605 36.8564 23.458 37.0403 23.4421C37.0867 23.4381 37.1347 23.4421 37.181 23.4405ZM37.1187 22.2236C37.185 22.2236 37.2314 22.2236 37.2786 22.2236C37.4345 22.222 37.5208 22.142 37.5168 21.9877C37.5128 21.8358 37.4081 21.783 37.2714 21.779C37.2042 21.7766 37.1371 21.7782 37.0691 21.779C36.842 21.7814 36.7973 21.8342 36.8156 22.0565C36.8348 22.2851 37.0091 22.2084 37.1179 22.2252L37.1187 22.2236Z" fill="white"/>
<path d="M42.7524 22.6099C42.7524 22.1429 42.7588 21.6768 42.7492 21.2099C42.7452 21.0284 42.7948 20.9556 42.9891 20.9612C43.4216 20.974 43.855 20.9636 44.2883 20.9652C44.788 20.9668 45.1878 21.2387 45.3565 21.6896C45.5308 22.1541 45.4181 22.7202 45.0679 23.0152C44.924 23.1359 44.9112 23.2175 45.0319 23.359C45.2158 23.5749 45.3829 23.8052 45.5556 24.0306C45.5948 24.0818 45.6619 24.133 45.6227 24.2073C45.5828 24.2833 45.502 24.2465 45.4381 24.2505C45.3637 24.2561 45.2869 24.2401 45.215 24.2537C44.768 24.3376 44.4642 24.1569 44.2603 23.7652C44.1988 23.6468 44.106 23.5437 44.0253 23.4358C43.9541 23.3406 43.8558 23.2959 43.7407 23.3286C43.6175 23.3638 43.6423 23.4749 43.6415 23.5661C43.6391 23.7348 43.6391 23.9043 43.6415 24.073C43.6431 24.1993 43.5903 24.2585 43.4584 24.2537C43.2897 24.2473 43.1194 24.2457 42.9507 24.2537C42.7972 24.2617 42.75 24.1953 42.7516 24.049C42.7572 23.5693 42.754 23.0888 42.754 22.6091L42.7524 22.6099ZM44.0085 21.7776C43.9749 21.7776 43.9413 21.7776 43.9078 21.7776C43.6583 21.7792 43.6407 21.7951 43.6399 22.039C43.6391 22.5003 43.6031 22.4611 44.0868 22.4603C44.1404 22.4603 44.1956 22.4635 44.2476 22.454C44.5082 22.406 44.6177 22.1581 44.4786 21.9327C44.3659 21.7496 44.1812 21.7815 44.0077 21.7776H44.0085Z" fill="white"/>
<path d="M42.7524 22.6099C42.7524 22.1429 42.7588 21.6768 42.7492 21.2099C42.7452 21.0284 42.7948 20.9556 42.9891 20.9612C43.4216 20.974 43.855 20.9636 44.2883 20.9652C44.788 20.9668 45.1878 21.2387 45.3565 21.6896C45.5308 22.1541 45.4181 22.7202 45.0679 23.0152C44.924 23.1359 44.9112 23.2175 45.0319 23.359C45.2158 23.5749 45.3829 23.8052 45.5556 24.0306C45.5948 24.0818 45.6619 24.133 45.6227 24.2073C45.5828 24.2833 45.502 24.2465 45.4381 24.2505C45.3637 24.2561 45.2869 24.2401 45.215 24.2537C44.768 24.3376 44.4642 24.1569 44.2603 23.7652C44.1988 23.6468 44.106 23.5437 44.0253 23.4358C43.9541 23.3406 43.8558 23.2959 43.7407 23.3286C43.6175 23.3638 43.6423 23.4749 43.6415 23.5661C43.6391 23.7348 43.6391 23.9043 43.6415 24.073C43.6431 24.1993 43.5903 24.2585 43.4584 24.2537C43.2897 24.2473 43.1194 24.2457 42.9507 24.2537C42.7972 24.2617 42.75 24.1953 42.7516 24.049C42.7572 23.5693 42.754 23.0888 42.754 22.6091L42.7524 22.6099ZM44.0085 21.7776C43.9749 21.7776 43.9413 21.7776 43.9078 21.7776C43.6583 21.7792 43.6407 21.7951 43.6399 22.039C43.6391 22.5003 43.6031 22.4611 44.0868 22.4603C44.1404 22.4603 44.1956 22.4635 44.2476 22.454C44.5082 22.406 44.6177 22.1581 44.4786 21.9327C44.3659 21.7496 44.1812 21.7815 44.0077 21.7776H44.0085Z" fill="white"/>
<path d="M40.5972 24.2936C39.6617 24.2936 38.9014 23.5397 38.9014 22.6106C38.9014 21.6752 39.6649 20.9244 40.6164 20.926C41.547 20.9268 42.3026 21.6872 42.3002 22.6194C42.2978 23.5461 41.5374 24.2936 40.598 24.2936H40.5972ZM40.6044 23.4749C41.0377 23.4709 41.4151 23.056 41.4055 22.5954C41.3959 22.1333 41.0265 21.7447 40.598 21.7439C40.1758 21.7431 39.8 22.1445 39.796 22.6018C39.7912 23.064 40.1758 23.4789 40.6044 23.4749Z" fill="white"/>
<path d="M40.5972 24.2936C39.6617 24.2936 38.9014 23.5397 38.9014 22.6106C38.9014 21.6752 39.6649 20.9244 40.6164 20.926C41.547 20.9268 42.3026 21.6872 42.3002 22.6194C42.2978 23.5461 41.5374 24.2936 40.598 24.2936H40.5972ZM40.6044 23.4749C41.0377 23.4709 41.4151 23.056 41.4055 22.5954C41.3959 22.1333 41.0265 21.7447 40.598 21.7439C40.1758 21.7431 39.8 22.1445 39.796 22.6018C39.7912 23.064 40.1758 23.4789 40.6044 23.4749Z" fill="white"/>
<path d="M55.5123 24.2935C54.5728 24.2935 53.8149 23.5491 53.8077 22.6184C53.8005 21.6846 54.5664 20.925 55.5139 20.925C56.4477 20.925 57.2057 21.6806 57.2057 22.6097C57.2057 23.5387 56.4469 24.2919 55.5123 24.2927V24.2935ZM55.5019 23.4747C55.936 23.4747 56.315 23.0678 56.3118 22.6041C56.3086 22.1451 55.9408 21.7494 55.5131 21.7438C55.0821 21.7382 54.6951 22.1531 54.7023 22.6136C54.7087 23.0734 55.0813 23.4747 55.5019 23.4747Z" fill="white"/>
<path d="M55.5123 24.2935C54.5728 24.2935 53.8149 23.5491 53.8077 22.6184C53.8005 21.6846 54.5664 20.925 55.5139 20.925C56.4477 20.925 57.2057 21.6806 57.2057 22.6097C57.2057 23.5387 56.4469 24.2919 55.5123 24.2927V24.2935ZM55.5019 23.4747C55.936 23.4747 56.315 23.0678 56.3118 22.6041C56.3086 22.1451 55.9408 21.7494 55.5131 21.7438C55.0821 21.7382 54.6951 22.1531 54.7023 22.6136C54.7087 23.0734 55.0813 23.4747 55.5019 23.4747Z" fill="white"/>
<path d="M63.5403 22.6002C63.5403 22.1333 63.5459 21.6672 63.5371 21.2002C63.5339 21.0307 63.5771 20.9596 63.7634 20.962C64.4469 20.9716 65.1305 20.9708 65.8141 20.962C65.9868 20.9604 66.034 21.0243 66.0348 21.1874C66.0372 21.7767 66.042 21.7767 65.4503 21.7767C65.1793 21.7767 64.9091 21.7815 64.638 21.7751C64.4725 21.7711 64.4318 21.8534 64.431 22.0014C64.431 22.1525 64.4789 22.2276 64.6404 22.2252C64.9722 22.2196 65.304 22.2292 65.635 22.2212C65.7877 22.2172 65.8597 22.2628 65.8565 22.4259C65.8413 23.1655 65.9557 23.02 65.2705 23.0343C65.061 23.0391 64.8507 23.0391 64.6412 23.0343C64.4981 23.0311 64.431 23.0839 64.431 23.235C64.431 23.3821 64.4893 23.4437 64.6356 23.4421C65.0282 23.4389 65.4208 23.4477 65.8133 23.4381C65.986 23.4333 66.0444 23.4997 66.0324 23.6636C66.0236 23.7843 66.022 23.9074 66.0324 24.0282C66.0492 24.2128 65.9652 24.2576 65.7941 24.2552C65.1177 24.248 64.4405 24.2464 63.7641 24.2552C63.5803 24.2576 63.5331 24.1905 63.5363 24.0186C63.5451 23.5452 63.5395 23.0719 63.5395 22.5986L63.5403 22.6002Z" fill="white"/>
<path d="M63.5403 22.6002C63.5403 22.1333 63.5459 21.6672 63.5371 21.2002C63.5339 21.0307 63.5771 20.9596 63.7634 20.962C64.4469 20.9716 65.1305 20.9708 65.8141 20.962C65.9868 20.9604 66.034 21.0243 66.0348 21.1874C66.0372 21.7767 66.042 21.7767 65.4503 21.7767C65.1793 21.7767 64.9091 21.7815 64.638 21.7751C64.4725 21.7711 64.4318 21.8534 64.431 22.0014C64.431 22.1525 64.4789 22.2276 64.6404 22.2252C64.9722 22.2196 65.304 22.2292 65.635 22.2212C65.7877 22.2172 65.8597 22.2628 65.8565 22.4259C65.8413 23.1655 65.9557 23.02 65.2705 23.0343C65.061 23.0391 64.8507 23.0391 64.6412 23.0343C64.4981 23.0311 64.431 23.0839 64.431 23.235C64.431 23.3821 64.4893 23.4437 64.6356 23.4421C65.0282 23.4389 65.4208 23.4477 65.8133 23.4381C65.986 23.4333 66.0444 23.4997 66.0324 23.6636C66.0236 23.7843 66.022 23.9074 66.0324 24.0282C66.0492 24.2128 65.9652 24.2576 65.7941 24.2552C65.1177 24.248 64.4405 24.2464 63.7641 24.2552C63.5803 24.2576 63.5331 24.1905 63.5363 24.0186C63.5451 23.5452 63.5395 23.0719 63.5395 22.5986L63.5403 22.6002Z" fill="white"/>
<path d="M66.6941 24.2528C66.5861 24.2528 66.4774 24.2488 66.3695 24.2536C66.2056 24.2616 66.1808 24.1833 66.2375 24.0513C66.6541 23.0839 67.057 22.1109 67.4968 21.1539C67.6391 20.8436 67.9741 21.0627 68.2156 21.0083C68.3603 20.9764 68.4354 21.0683 68.489 21.193C68.8296 21.987 69.1726 22.7801 69.5156 23.5732C69.5796 23.7219 69.6467 23.8698 69.7083 24.0194C69.7882 24.2144 69.7658 24.2496 69.5628 24.252C69.3669 24.2536 69.1694 24.2448 68.9743 24.2552C68.8152 24.2632 68.7145 24.2048 68.6673 24.0537C68.6081 23.8642 68.481 23.7923 68.2819 23.8035C68.0525 23.8163 67.8214 23.8083 67.5919 23.8059C67.48 23.8043 67.3785 23.8387 67.3465 23.9466C67.2609 24.2344 67.0562 24.2872 66.7972 24.2536C66.7636 24.2496 66.7292 24.2536 66.6957 24.2536L66.6941 24.2528ZM67.9933 22.3643C67.8894 22.4715 67.8694 22.5802 67.8286 22.6762C67.6727 23.0399 67.6975 23.0711 68.0964 23.0351C68.1028 23.0351 68.11 23.0351 68.1164 23.0351C68.2196 23.0327 68.2491 22.98 68.2124 22.8896C68.1444 22.7217 68.0732 22.5554 67.9933 22.3651V22.3643Z" fill="white"/>
<path d="M66.6941 24.2528C66.5861 24.2528 66.4774 24.2488 66.3695 24.2536C66.2056 24.2616 66.1808 24.1833 66.2375 24.0513C66.6541 23.0839 67.057 22.1109 67.4968 21.1539C67.6391 20.8436 67.9741 21.0627 68.2156 21.0083C68.3603 20.9764 68.4354 21.0683 68.489 21.193C68.8296 21.987 69.1726 22.7801 69.5156 23.5732C69.5796 23.7219 69.6467 23.8698 69.7083 24.0194C69.7882 24.2144 69.7658 24.2496 69.5628 24.252C69.3669 24.2536 69.1694 24.2448 68.9743 24.2552C68.8152 24.2632 68.7145 24.2048 68.6673 24.0537C68.6081 23.8642 68.481 23.7923 68.2819 23.8035C68.0525 23.8163 67.8214 23.8083 67.5919 23.8059C67.48 23.8043 67.3785 23.8387 67.3465 23.9466C67.2609 24.2344 67.0562 24.2872 66.7972 24.2536C66.7636 24.2496 66.7292 24.2536 66.6957 24.2536L66.6941 24.2528ZM67.9933 22.3643C67.8894 22.4715 67.8694 22.5802 67.8286 22.6762C67.6727 23.0399 67.6975 23.0711 68.0964 23.0351C68.1028 23.0351 68.11 23.0351 68.1164 23.0351C68.2196 23.0327 68.2491 22.98 68.2124 22.8896C68.1444 22.7217 68.0732 22.5554 67.9933 22.3651V22.3643Z" fill="white"/>
<path d="M52.392 20.9658C52.7574 20.9658 53.1228 20.9698 53.4874 20.9642C53.6265 20.9618 53.6769 21.013 53.6817 21.1537C53.7016 21.7726 53.7048 21.7782 53.0932 21.775C52.8997 21.7742 52.8286 21.8413 52.8302 22.034C52.8374 22.6896 52.827 23.3444 52.8366 24C52.839 24.1887 52.7926 24.2767 52.5887 24.2559C52.4416 24.2407 52.2913 24.2455 52.1426 24.2551C51.9707 24.2663 51.9379 24.1711 51.9387 24.0296C51.9403 23.4084 51.9387 22.7864 51.9387 22.1651C51.9387 21.7782 51.9387 21.7822 51.5565 21.7774C51.0456 21.7718 51.1032 21.8629 51.0992 21.3104C51.0992 21.2697 51.1024 21.2289 51.0992 21.1889C51.0832 21.0274 51.1424 20.9578 51.3167 20.9634C51.6748 20.9746 52.033 20.9666 52.392 20.9666V20.9658Z" fill="white"/>
<path d="M52.392 20.9658C52.7574 20.9658 53.1228 20.9698 53.4874 20.9642C53.6265 20.9618 53.6769 21.013 53.6817 21.1537C53.7016 21.7726 53.7048 21.7782 53.0932 21.775C52.8997 21.7742 52.8286 21.8413 52.8302 22.034C52.8374 22.6896 52.827 23.3444 52.8366 24C52.839 24.1887 52.7926 24.2767 52.5887 24.2559C52.4416 24.2407 52.2913 24.2455 52.1426 24.2551C51.9707 24.2663 51.9379 24.1711 51.9387 24.0296C51.9403 23.4084 51.9387 22.7864 51.9387 22.1651C51.9387 21.7782 51.9387 21.7822 51.5565 21.7774C51.0456 21.7718 51.1032 21.8629 51.0992 21.3104C51.0992 21.2697 51.1024 21.2289 51.0992 21.1889C51.0832 21.0274 51.1424 20.9578 51.3167 20.9634C51.6748 20.9746 52.033 20.9666 52.392 20.9666V20.9658Z" fill="white"/>
<path d="M70.7091 20.966C71.0745 20.966 71.4399 20.97 71.8045 20.9644C71.9436 20.962 71.9932 21.0148 71.998 21.1539C72.0179 21.772 72.0211 21.7776 71.4095 21.7744C71.2152 21.7736 71.1449 21.8415 71.1473 22.0342C71.1545 22.6962 71.1457 23.3582 71.1529 24.0202C71.1553 24.1921 71.1097 24.2713 70.925 24.2553C70.7707 24.2425 70.614 24.2449 70.4589 24.2553C70.2862 24.2657 70.255 24.1697 70.255 24.029C70.2566 23.4078 70.255 22.7858 70.255 22.1645C70.255 21.7784 70.255 21.7815 69.8728 21.7776C69.3683 21.772 69.4195 21.8615 69.4155 21.3298C69.4123 20.9053 69.4171 20.9692 69.7753 20.9668C70.0863 20.9644 70.3973 20.9668 70.7083 20.9668L70.7091 20.966Z" fill="white"/>
<path d="M70.7091 20.966C71.0745 20.966 71.4399 20.97 71.8045 20.9644C71.9436 20.962 71.9932 21.0148 71.998 21.1539C72.0179 21.772 72.0211 21.7776 71.4095 21.7744C71.2152 21.7736 71.1449 21.8415 71.1473 22.0342C71.1545 22.6962 71.1457 23.3582 71.1529 24.0202C71.1553 24.1921 71.1097 24.2713 70.925 24.2553C70.7707 24.2425 70.614 24.2449 70.4589 24.2553C70.2862 24.2657 70.255 24.1697 70.255 24.029C70.2566 23.4078 70.255 22.7858 70.255 22.1645C70.255 21.7784 70.255 21.7815 69.8728 21.7776C69.3683 21.772 69.4195 21.8615 69.4155 21.3298C69.4123 20.9053 69.4171 20.9692 69.7753 20.9668C70.0863 20.9644 70.3973 20.9668 70.7083 20.9668L70.7091 20.966Z" fill="white"/>
<path d="M73.357 5.42163C73.357 5.11061 73.3522 4.8004 73.3594 4.48938C73.3618 4.36865 73.3282 4.31908 73.2003 4.32788C73.0452 4.33827 72.8893 4.32388 72.7342 4.33267C72.6151 4.33907 72.5663 4.30789 72.5695 4.17757C72.5799 3.81378 72.5471 3.88814 72.8573 3.88574C73.405 3.88094 73.9527 3.89453 74.5003 3.87934C74.7058 3.87374 74.669 3.99207 74.6714 4.10961C74.6746 4.23353 74.6954 4.36785 74.4963 4.33107C74.4835 4.32868 74.4692 4.33027 74.4556 4.33107C74.2757 4.34467 74.0302 4.25112 73.9335 4.37025C73.8423 4.48218 73.9007 4.71725 73.8999 4.89874C73.8975 5.37845 73.8943 5.85817 73.9023 6.33709C73.9047 6.481 73.8575 6.51938 73.7184 6.51858C73.3578 6.51538 73.3578 6.52178 73.3578 6.1516C73.3578 5.90854 73.3578 5.66548 73.3578 5.42243L73.357 5.42163Z" fill="white"/>
<path d="M73.357 5.42163C73.357 5.11061 73.3522 4.8004 73.3594 4.48938C73.3618 4.36865 73.3282 4.31908 73.2003 4.32788C73.0452 4.33827 72.8893 4.32388 72.7342 4.33267C72.6151 4.33907 72.5663 4.30789 72.5695 4.17757C72.5799 3.81378 72.5471 3.88814 72.8573 3.88574C73.405 3.88094 73.9527 3.89453 74.5003 3.87934C74.7058 3.87374 74.669 3.99207 74.6714 4.10961C74.6746 4.23353 74.6954 4.36785 74.4963 4.33107C74.4835 4.32868 74.4692 4.33027 74.4556 4.33107C74.2757 4.34467 74.0302 4.25112 73.9335 4.37025C73.8423 4.48218 73.9007 4.71725 73.8999 4.89874C73.8975 5.37845 73.8943 5.85817 73.9023 6.33709C73.9047 6.481 73.8575 6.51938 73.7184 6.51858C73.3578 6.51538 73.3578 6.52178 73.3578 6.1516C73.3578 5.90854 73.3578 5.66548 73.3578 5.42243L73.357 5.42163Z" fill="white"/>
</svg>
