<svg width="87" height="41" viewBox="0 0 87 41" fill="none" xmlns="http://www.w3.org/2000/svg">
<path d="M13.7775 5.64014C7.67624 5.64014 2.49219 10.0001 2.49219 16.7127C2.49219 22.7475 7.10466 27.5328 13.711 27.5328C19.8122 27.5328 24.9963 23.1729 24.9963 16.4602C25.0096 10.4387 20.3971 5.64014 13.7775 5.64014ZM13.7775 26.2434C9.80303 26.2434 6.95845 22.1759 6.95845 16.5665C6.95845 11.1964 9.65681 6.95609 13.7243 6.95609C17.6987 6.95609 20.5433 11.0236 20.5433 16.633C20.5433 21.9898 17.8449 26.2434 13.7775 26.2434ZM77.0627 13.9479V14.8651L78.2857 15.1043C78.711 15.1974 78.8306 15.5297 78.5648 16.1943L75.7601 22.9336C75.6405 23.2127 75.4809 23.2127 75.4012 22.9336L72.7959 16.1943C72.5167 15.5031 72.6762 15.1974 73.1016 15.1043L74.3112 14.8651V13.9479H63.5045V14.8651L64.7274 15.1043C65.1527 15.1974 65.3122 15.5297 65.0331 16.1943L62.3347 23.2925C62.2151 23.5716 62.0556 23.5716 61.9758 23.2925L59.2376 16.1943C58.9983 15.5031 59.118 15.1974 59.5433 15.1043L60.7529 14.8651V13.9479H53.894V14.8784L54.5719 15.0246C55.0239 15.1176 55.303 15.3569 55.4891 15.7823L60.1282 27.1872H62.2284L66.8674 15.7823C67.1067 15.1841 67.3858 14.9315 67.8644 14.9315H68.0505C68.4492 14.9315 68.7417 15.0778 68.9942 15.6626L73.846 27.5062L72.5433 30.6033C71.6926 32.6637 71.0679 33.0358 70.2703 33.0358C69.938 33.0358 69.5791 32.9827 69.2069 32.9827C68.2632 32.9827 67.6916 33.6606 67.6916 34.3784C67.6916 35.2025 68.3695 35.7741 69.4196 35.7741C70.9349 35.7741 72.4237 34.5512 73.6732 31.6534L80.2529 16.1412C80.5587 15.45 80.9441 15.1442 81.5822 15.0113L82.2468 14.8917V13.9479H77.0627ZM34.527 26.0174L29.4625 26.6555C27.801 26.8682 27.2693 26.3232 27.2693 25.4724C27.2693 24.4755 28.3593 23.678 32.1609 23.678H32.2141C34.9656 23.678 38.2223 22.0164 38.2223 18.4009C38.2223 17.2444 37.7969 16.1943 36.9993 15.3303C36.7202 14.7455 36.6006 14.0941 36.6405 13.4561C36.6405 10.7843 38.4615 9.26897 40.349 9.26897C41.1333 9.26897 41.3859 9.3886 41.3859 9.94688C41.3859 10.0931 41.346 10.226 41.346 10.3988C41.346 11.3426 42.1302 12.2199 43.2601 12.2199C44.4165 12.2199 45.1343 11.3027 45.1343 10.3058C45.1343 8.79044 43.7652 7.66059 41.2529 7.66059C37.7836 7.66059 35.1251 9.90701 35.1251 13.3365C35.1251 13.6156 35.165 13.8283 35.165 14.0277C34.2744 13.6555 33.3041 13.4694 32.3337 13.4827C29.5955 13.4827 26.3255 15.1442 26.3255 18.7598C26.3255 20.4213 27.2693 21.9765 28.9043 22.8804C26.4717 23.2127 25.0893 24.5154 25.0893 26.5491C25.0893 28.6095 26.7243 30.0982 29.7948 29.7393L34.2212 29.1943C36.4278 28.9152 37.1589 29.7127 37.1589 30.8559C37.1589 32.863 35.2846 34.4714 32.2672 34.4714C29.8746 34.4714 28.984 33.6207 28.984 32.4111L29.0239 31.8129C29.0239 31.0819 28.5719 30.5767 27.8409 30.5369C26.9901 30.5369 26.4717 31.135 26.4717 32.0123C26.4717 34.0195 28.3859 35.8007 32.2938 35.8007C36.6936 35.8007 39.485 32.9561 39.485 29.6729C39.4983 27.0808 37.4114 25.6585 34.527 26.0174ZM32.2539 14.5859C33.6762 14.5859 34.8327 16.1943 34.8327 18.6534C34.8327 20.7669 33.8623 22.6013 32.347 22.6013C30.8848 22.6013 29.7417 20.9929 29.7417 18.5338C29.7284 16.4336 30.6987 14.5859 32.2539 14.5859Z" fill="white"/>
<path d="M13.7775 5.64014C7.67624 5.64014 2.49219 10.0001 2.49219 16.7127C2.49219 22.7475 7.10466 27.5328 13.711 27.5328C19.8122 27.5328 24.9963 23.1729 24.9963 16.4602C25.0096 10.4387 20.3971 5.64014 13.7775 5.64014ZM13.7775 26.2434C9.80303 26.2434 6.95845 22.1759 6.95845 16.5665C6.95845 11.1964 9.65681 6.95609 13.7243 6.95609C17.6987 6.95609 20.5433 11.0236 20.5433 16.633C20.5433 21.9898 17.8449 26.2434 13.7775 26.2434ZM77.0627 13.9479V14.8651L78.2857 15.1043C78.711 15.1974 78.8306 15.5297 78.5648 16.1943L75.7601 22.9336C75.6405 23.2127 75.4809 23.2127 75.4012 22.9336L72.7959 16.1943C72.5167 15.5031 72.6762 15.1974 73.1016 15.1043L74.3112 14.8651V13.9479H63.5045V14.8651L64.7274 15.1043C65.1527 15.1974 65.3122 15.5297 65.0331 16.1943L62.3347 23.2925C62.2151 23.5716 62.0556 23.5716 61.9758 23.2925L59.2376 16.1943C58.9983 15.5031 59.118 15.1974 59.5433 15.1043L60.7529 14.8651V13.9479H53.894V14.8784L54.5719 15.0246C55.0239 15.1176 55.303 15.3569 55.4891 15.7823L60.1282 27.1872H62.2284L66.8674 15.7823C67.1067 15.1841 67.3858 14.9315 67.8644 14.9315H68.0505C68.4492 14.9315 68.7417 15.0778 68.9942 15.6626L73.846 27.5062L72.5433 30.6033C71.6926 32.6637 71.0679 33.0358 70.2703 33.0358C69.938 33.0358 69.5791 32.9827 69.2069 32.9827C68.2632 32.9827 67.6916 33.6606 67.6916 34.3784C67.6916 35.2025 68.3695 35.7741 69.4196 35.7741C70.9349 35.7741 72.4237 34.5512 73.6732 31.6534L80.2529 16.1412C80.5587 15.45 80.9441 15.1442 81.5822 15.0113L82.2468 14.8917V13.9479H77.0627ZM34.527 26.0174L29.4625 26.6555C27.801 26.8682 27.2693 26.3232 27.2693 25.4724C27.2693 24.4755 28.3593 23.678 32.1609 23.678H32.2141C34.9656 23.678 38.2223 22.0164 38.2223 18.4009C38.2223 17.2444 37.7969 16.1943 36.9993 15.3303C36.7202 14.7455 36.6006 14.0941 36.6405 13.4561C36.6405 10.7843 38.4615 9.26897 40.349 9.26897C41.1333 9.26897 41.3859 9.3886 41.3859 9.94688C41.3859 10.0931 41.346 10.226 41.346 10.3988C41.346 11.3426 42.1302 12.2199 43.2601 12.2199C44.4165 12.2199 45.1343 11.3027 45.1343 10.3058C45.1343 8.79044 43.7652 7.66059 41.2529 7.66059C37.7836 7.66059 35.1251 9.90701 35.1251 13.3365C35.1251 13.6156 35.165 13.8283 35.165 14.0277C34.2744 13.6555 33.3041 13.4694 32.3337 13.4827C29.5955 13.4827 26.3255 15.1442 26.3255 18.7598C26.3255 20.4213 27.2693 21.9765 28.9043 22.8804C26.4717 23.2127 25.0893 24.5154 25.0893 26.5491C25.0893 28.6095 26.7243 30.0982 29.7948 29.7393L34.2212 29.1943C36.4278 28.9152 37.1589 29.7127 37.1589 30.8559C37.1589 32.863 35.2846 34.4714 32.2672 34.4714C29.8746 34.4714 28.984 33.6207 28.984 32.4111L29.0239 31.8129C29.0239 31.0819 28.5719 30.5767 27.8409 30.5369C26.9901 30.5369 26.4717 31.135 26.4717 32.0123C26.4717 34.0195 28.3859 35.8007 32.2938 35.8007C36.6936 35.8007 39.485 32.9561 39.485 29.6729C39.4983 27.0808 37.4114 25.6585 34.527 26.0174ZM32.2539 14.5859C33.6762 14.5859 34.8327 16.1943 34.8327 18.6534C34.8327 20.7669 33.8623 22.6013 32.347 22.6013C30.8848 22.6013 29.7417 20.9929 29.7417 18.5338C29.7284 16.4336 30.6987 14.5859 32.2539 14.5859Z" fill="white"/>
<path d="M52.6961 25.6319V4.62988L47.3525 5.999V6.63704L48.8678 7.12886C49.1071 7.22191 49.2002 7.408 49.2002 7.64727V25.5522C49.2002 25.8845 48.921 26.137 48.5222 26.137L47.1664 26.1636L45.7308 26.137C45.3321 26.137 45.0529 25.8978 45.0529 25.5522V13.4428L39.7227 14.7986V15.4366L41.238 15.9285C41.4773 16.0215 41.5703 16.2076 41.5703 16.4469V25.6452C41.5703 25.9244 41.4241 26.0706 41.2114 26.0972L39.9752 26.2434V27.2137H54.5304V26.2434L53.055 26.0972C52.8556 26.0573 52.6961 25.9111 52.6961 25.6319Z" fill="white"/>
<path d="M52.6961 25.6319V4.62988L47.3525 5.999V6.63704L48.8678 7.12886C49.1071 7.22191 49.2002 7.408 49.2002 7.64727V25.5522C49.2002 25.8845 48.921 26.137 48.5222 26.137L47.1664 26.1636L45.7308 26.137C45.3321 26.137 45.0529 25.8978 45.0529 25.5522V13.4428L39.7227 14.7986V15.4366L41.238 15.9285C41.4773 16.0215 41.5703 16.2076 41.5703 16.4469V25.6452C41.5703 25.9244 41.4241 26.0706 41.2114 26.0972L39.9752 26.2434V27.2137H54.5304V26.2434L53.055 26.0972C52.8556 26.0573 52.6961 25.9111 52.6961 25.6319Z" fill="white"/>
</svg>
