<svg width="172" height="41" viewBox="0 0 172 41" fill="none" xmlns="http://www.w3.org/2000/svg">
<path d="M130.69 20.7098C130.69 19.6427 130.744 18.5712 130.673 17.5062C130.617 16.6743 130.949 16.454 131.717 16.4947C132.711 16.546 133.716 16.5588 134.708 16.4925C135.609 16.4327 136.073 16.6722 135.925 17.6602C135.891 17.8869 135.846 18.1585 136.111 18.4451C137.651 16.561 139.644 15.7932 142.04 16.1589C144.495 16.5332 145.923 18.0665 146.623 20.3655C147.059 20.3035 147.121 19.9356 147.296 19.6918C150.021 15.898 154.984 14.8415 158.973 17.256C159.719 17.7072 160.117 17.8313 159.991 16.7427C159.916 16.114 160.22 15.9515 160.797 15.9664C161.937 15.9985 163.079 16.0028 164.219 15.9664C164.845 15.9451 165.098 16.1226 165.093 16.7984C165.068 21.824 165.168 26.8518 165.053 31.8732C164.924 37.4806 161.46 40.7312 155.853 40.7825C152.976 40.8082 150.271 40.2137 147.76 38.7744C147.144 38.4215 146.888 38.0751 147.472 37.4891C147.57 37.3886 147.64 37.2603 147.722 37.1427C148.297 36.3279 148.703 35.2201 149.488 34.771C150.408 34.2449 151.09 35.558 152.005 35.8403C153.464 36.2915 154.905 36.5781 156.419 36.3108C158.594 35.9258 159.935 34.0503 159.655 31.7449C154.824 34.4652 150.605 33.7573 146.901 29.2235C146.901 30.3484 146.873 31.2231 146.911 32.0956C146.937 32.6966 146.725 32.9125 146.116 32.8976C144.833 32.8612 143.549 32.8548 142.266 32.8997C141.584 32.9232 141.428 32.6474 141.434 32.0229C141.46 29.4202 141.454 26.8197 141.439 24.2171C141.434 23.614 141.4 23.0024 141.28 22.4143C141.079 21.4391 140.547 20.7162 139.49 20.528C138.391 20.3334 137.298 20.8082 136.719 21.7385C136.229 22.5233 136.103 23.398 136.103 24.3026C136.103 26.8326 136.073 29.3646 136.12 31.8946C136.135 32.7115 135.861 32.919 135.078 32.9061C132.619 32.8612 130.16 32.889 127.7 32.889C126.617 32.889 125.989 32.4043 125.816 31.4348C120.932 34.9143 116.109 33.4643 115.085 27.9703C113.757 30.6136 111.864 32.3822 109.131 33.0665C106.377 33.7552 103.849 33.1264 101.344 31.3343C101.719 33.0516 100.733 32.9083 99.779 32.8997C97.356 32.8762 94.9309 32.8997 92.5079 32.889C90.9488 32.8805 91.1178 33.0986 91.1092 31.4391C91.0985 29.1572 91.1178 26.8775 91.1007 24.5956C91.0964 23.9562 91.0494 23.3125 90.9574 22.6794C90.8077 21.6487 90.318 20.8681 89.2187 20.6328C88.0831 20.389 87.0352 20.7975 86.4086 21.7235C85.9339 22.425 85.7521 23.2055 85.7585 24.0524C85.7735 26.6187 85.7136 29.1871 85.7885 31.7513C85.8163 32.7351 85.4869 32.9788 84.5759 32.9104C83.5836 32.8356 82.5742 32.8249 81.584 32.9126C80.5874 33.0024 80.2175 32.6431 80.3586 31.6743C80.3864 31.4776 80.3265 31.2658 80.2859 30.8531C77.7581 33.0302 74.9779 33.8621 71.8748 33.0409C68.7461 32.2132 66.7423 30.1174 65.7307 27.0657C65.6088 27.1277 65.5168 27.1469 65.5104 27.1812C64.8325 30.8018 62.0395 32.7842 58.6584 33.2761C54.9715 33.8129 51.5776 33.0772 48.5836 30.7526C47.9548 30.265 47.88 29.9143 48.5109 29.3497C49.3321 28.6161 50.0891 27.8035 50.8291 26.9823C51.3167 26.4412 51.6311 26.3257 52.2619 26.9031C53.7376 28.2547 55.5019 28.9647 57.5571 28.6333C58.9001 28.4173 59.6636 27.703 59.8368 26.5759C59.9929 25.558 59.5438 24.7753 58.297 24.1572C57.5357 23.7787 56.7123 23.5263 55.9103 23.2333C55.1084 22.9382 54.2893 22.688 53.4938 22.3758C50.7606 21.2979 49.0926 19.4245 49.0434 16.3535C48.9942 13.2398 50.504 11.0819 53.2949 9.93137C57.3731 8.25045 61.2996 8.68672 64.9865 11.1739C65.6794 11.6401 65.7136 11.9694 65.0998 12.5404C64.2914 13.2911 63.5451 14.1102 62.818 14.9421C62.386 15.4382 62.1122 15.5216 61.5626 15.0191C60.2538 13.8236 58.6606 13.3895 56.9026 13.691C55.7093 13.8963 54.8817 14.6705 54.7598 15.6307C54.6037 16.8604 55.3479 17.4784 56.3402 17.8676C57.5335 18.336 58.7504 18.7445 59.9587 19.17C62.8372 20.1816 63.776 20.9279 65.3992 23.5841C66.1199 20.1345 67.9142 17.6217 71.2076 16.4797C74.5139 15.3334 77.51 16.1161 80.3629 18.5114C80.3629 16.5738 80.3629 14.88 80.3629 13.1842C80.3629 12.2303 80.8498 11.7527 81.8235 11.7513C82.8222 11.7513 83.821 11.7941 84.8175 11.7385C85.5896 11.6936 85.7906 12.0037 85.7735 12.7286C85.7307 14.5357 85.7606 16.345 85.7606 18.5071C87.4031 16.5268 89.2722 15.8317 91.5092 16.1311C93.7782 16.4348 95.241 17.7393 96.1306 19.9271C96.4236 19.5208 96.3359 19.1658 96.3359 18.8428C96.3445 16.8112 96.3637 14.7795 96.3274 12.7479C96.3145 12.0443 96.4749 11.7 97.2662 11.7385C98.4745 11.7941 99.6892 11.7812 100.9 11.7427C101.56 11.7214 101.774 11.9801 101.759 12.6196C101.727 13.9027 101.747 15.1859 101.753 16.469C101.757 17.6196 101.764 17.6196 102.735 17.0892C108.233 14.0952 114.845 17.457 115.63 23.6632C115.714 24.3176 115.641 24.9913 115.641 25.8959C118.1 23.0152 121.295 22.8912 124.465 22.6688C124.886 22.6388 125.51 22.9126 125.686 22.3351C125.857 21.7641 125.562 21.206 125.108 20.8103C124.17 19.9934 123.043 19.91 121.881 20.1067C120.955 20.265 120.093 20.6307 119.362 21.2188C118.851 21.6315 118.515 21.5588 118.119 21.0841C117.643 20.5088 117.14 19.9485 116.593 19.4395C116.073 18.9562 116.066 18.5969 116.657 18.1841C120.004 15.8488 123.601 15.3634 127.409 16.8026C128.701 17.2902 129.51 18.3574 130.04 19.6213C130.202 20.0062 130.352 20.3933 130.51 20.7804C130.568 20.7611 130.626 20.7398 130.684 20.7205L130.69 20.7098ZM80.3671 24.5571C80.3671 22.9211 80.3458 21.283 80.3757 19.6469C80.3907 18.8877 80.2217 18.6461 79.4989 19.1059C78.7504 19.5828 77.9484 19.9806 77.1978 20.4553C76.5348 20.8745 75.9424 21.0135 75.1234 20.7312C73.5408 20.188 71.7743 20.8916 70.7842 22.2517C69.7961 23.6097 69.7277 25.3356 70.6067 26.7684C71.4728 28.182 73.1944 29.1658 74.6849 28.6375C76.1221 28.1264 77.1144 28.6247 78.1944 29.3155C78.6435 29.602 79.1246 29.8394 79.5737 30.126C80.1426 30.4895 80.3864 30.3976 80.3757 29.6769C80.3522 27.9703 80.3671 26.2616 80.3671 24.5528V24.5571ZM111.077 24.664C111.084 22.4314 109.262 20.5922 107.018 20.5644C104.781 20.5387 102.901 22.3629 102.878 24.5849C102.852 26.839 104.736 28.7423 107.003 28.753C109.214 28.7637 111.071 26.901 111.077 24.664ZM158.524 24.6042C158.509 22.3972 156.719 20.5815 154.535 20.5644C152.236 20.5451 150.346 22.3865 150.339 24.6491C150.333 26.8711 152.198 28.7487 154.409 28.7445C156.714 28.7402 158.539 26.9031 158.524 24.602V24.6042ZM122.459 29.6854C124.557 29.694 125.885 28.4279 125.915 26.4797C125.919 26.1974 125.985 25.8232 125.59 25.8167C123.921 25.7847 122.204 25.6499 120.773 26.7449C119.882 27.4271 119.993 28.6846 120.915 29.2834C121.411 29.6042 121.978 29.6662 122.459 29.6854Z" fill="white"/>
<path d="M130.69 20.7098C130.69 19.6427 130.744 18.5712 130.673 17.5062C130.617 16.6743 130.949 16.454 131.717 16.4947C132.711 16.546 133.716 16.5588 134.708 16.4925C135.609 16.4327 136.073 16.6722 135.925 17.6602C135.891 17.8869 135.846 18.1585 136.111 18.4451C137.651 16.561 139.644 15.7932 142.04 16.1589C144.495 16.5332 145.923 18.0665 146.623 20.3655C147.059 20.3035 147.121 19.9356 147.296 19.6918C150.021 15.898 154.984 14.8415 158.973 17.256C159.719 17.7072 160.117 17.8313 159.991 16.7427C159.916 16.114 160.22 15.9515 160.797 15.9664C161.937 15.9985 163.079 16.0028 164.219 15.9664C164.845 15.9451 165.098 16.1226 165.093 16.7984C165.068 21.824 165.168 26.8518 165.053 31.8732C164.924 37.4806 161.46 40.7312 155.853 40.7825C152.976 40.8082 150.271 40.2137 147.76 38.7744C147.144 38.4215 146.888 38.0751 147.472 37.4891C147.57 37.3886 147.64 37.2603 147.722 37.1427C148.297 36.3279 148.703 35.2201 149.488 34.771C150.408 34.2449 151.09 35.558 152.005 35.8403C153.464 36.2915 154.905 36.5781 156.419 36.3108C158.594 35.9258 159.935 34.0503 159.655 31.7449C154.824 34.4652 150.605 33.7573 146.901 29.2235C146.901 30.3484 146.873 31.2231 146.911 32.0956C146.937 32.6966 146.725 32.9125 146.116 32.8976C144.833 32.8612 143.549 32.8548 142.266 32.8997C141.584 32.9232 141.428 32.6474 141.434 32.0229C141.46 29.4202 141.454 26.8197 141.439 24.2171C141.434 23.614 141.4 23.0024 141.28 22.4143C141.079 21.4391 140.547 20.7162 139.49 20.528C138.391 20.3334 137.298 20.8082 136.719 21.7385C136.229 22.5233 136.103 23.398 136.103 24.3026C136.103 26.8326 136.073 29.3646 136.12 31.8946C136.135 32.7115 135.861 32.919 135.078 32.9061C132.619 32.8612 130.16 32.889 127.7 32.889C126.617 32.889 125.989 32.4043 125.816 31.4348C120.932 34.9143 116.109 33.4643 115.085 27.9703C113.757 30.6136 111.864 32.3822 109.131 33.0665C106.377 33.7552 103.849 33.1264 101.344 31.3343C101.719 33.0516 100.733 32.9083 99.779 32.8997C97.356 32.8762 94.9309 32.8997 92.5079 32.889C90.9488 32.8805 91.1178 33.0986 91.1092 31.4391C91.0985 29.1572 91.1178 26.8775 91.1007 24.5956C91.0964 23.9562 91.0494 23.3125 90.9574 22.6794C90.8077 21.6487 90.318 20.8681 89.2187 20.6328C88.0831 20.389 87.0352 20.7975 86.4086 21.7235C85.9339 22.425 85.7521 23.2055 85.7585 24.0524C85.7735 26.6187 85.7136 29.1871 85.7885 31.7513C85.8163 32.7351 85.4869 32.9788 84.5759 32.9104C83.5836 32.8356 82.5742 32.8249 81.584 32.9126C80.5874 33.0024 80.2175 32.6431 80.3586 31.6743C80.3864 31.4776 80.3265 31.2658 80.2859 30.8531C77.7581 33.0302 74.9779 33.8621 71.8748 33.0409C68.7461 32.2132 66.7423 30.1174 65.7307 27.0657C65.6088 27.1277 65.5168 27.1469 65.5104 27.1812C64.8325 30.8018 62.0395 32.7842 58.6584 33.2761C54.9715 33.8129 51.5776 33.0772 48.5836 30.7526C47.9548 30.265 47.88 29.9143 48.5109 29.3497C49.3321 28.6161 50.0891 27.8035 50.8291 26.9823C51.3167 26.4412 51.6311 26.3257 52.2619 26.9031C53.7376 28.2547 55.5019 28.9647 57.5571 28.6333C58.9001 28.4173 59.6636 27.703 59.8368 26.5759C59.9929 25.558 59.5438 24.7753 58.297 24.1572C57.5357 23.7787 56.7123 23.5263 55.9103 23.2333C55.1084 22.9382 54.2893 22.688 53.4938 22.3758C50.7606 21.2979 49.0926 19.4245 49.0434 16.3535C48.9942 13.2398 50.504 11.0819 53.2949 9.93137C57.3731 8.25045 61.2996 8.68672 64.9865 11.1739C65.6794 11.6401 65.7136 11.9694 65.0998 12.5404C64.2914 13.2911 63.5451 14.1102 62.818 14.9421C62.386 15.4382 62.1122 15.5216 61.5626 15.0191C60.2538 13.8236 58.6606 13.3895 56.9026 13.691C55.7093 13.8963 54.8817 14.6705 54.7598 15.6307C54.6037 16.8604 55.3479 17.4784 56.3402 17.8676C57.5335 18.336 58.7504 18.7445 59.9587 19.17C62.8372 20.1816 63.776 20.9279 65.3992 23.5841C66.1199 20.1345 67.9142 17.6217 71.2076 16.4797C74.5139 15.3334 77.51 16.1161 80.3629 18.5114C80.3629 16.5738 80.3629 14.88 80.3629 13.1842C80.3629 12.2303 80.8498 11.7527 81.8235 11.7513C82.8222 11.7513 83.821 11.7941 84.8175 11.7385C85.5896 11.6936 85.7906 12.0037 85.7735 12.7286C85.7307 14.5357 85.7606 16.345 85.7606 18.5071C87.4031 16.5268 89.2722 15.8317 91.5092 16.1311C93.7782 16.4348 95.241 17.7393 96.1306 19.9271C96.4236 19.5208 96.3359 19.1658 96.3359 18.8428C96.3445 16.8112 96.3637 14.7795 96.3274 12.7479C96.3145 12.0443 96.4749 11.7 97.2662 11.7385C98.4745 11.7941 99.6892 11.7812 100.9 11.7427C101.56 11.7214 101.774 11.9801 101.759 12.6196C101.727 13.9027 101.747 15.1859 101.753 16.469C101.757 17.6196 101.764 17.6196 102.735 17.0892C108.233 14.0952 114.845 17.457 115.63 23.6632C115.714 24.3176 115.641 24.9913 115.641 25.8959C118.1 23.0152 121.295 22.8912 124.465 22.6688C124.886 22.6388 125.51 22.9126 125.686 22.3351C125.857 21.7641 125.562 21.206 125.108 20.8103C124.17 19.9934 123.043 19.91 121.881 20.1067C120.955 20.265 120.093 20.6307 119.362 21.2188C118.851 21.6315 118.515 21.5588 118.119 21.0841C117.643 20.5088 117.14 19.9485 116.593 19.4395C116.073 18.9562 116.066 18.5969 116.657 18.1841C120.004 15.8488 123.601 15.3634 127.409 16.8026C128.701 17.2902 129.51 18.3574 130.04 19.6213C130.202 20.0062 130.352 20.3933 130.51 20.7804C130.568 20.7611 130.626 20.7398 130.684 20.7205L130.69 20.7098ZM80.3671 24.5571C80.3671 22.9211 80.3458 21.283 80.3757 19.6469C80.3907 18.8877 80.2217 18.6461 79.4989 19.1059C78.7504 19.5828 77.9484 19.9806 77.1978 20.4553C76.5348 20.8745 75.9424 21.0135 75.1234 20.7312C73.5408 20.188 71.7743 20.8916 70.7842 22.2517C69.7961 23.6097 69.7277 25.3356 70.6067 26.7684C71.4728 28.182 73.1944 29.1658 74.6849 28.6375C76.1221 28.1264 77.1144 28.6247 78.1944 29.3155C78.6435 29.602 79.1246 29.8394 79.5737 30.126C80.1426 30.4895 80.3864 30.3976 80.3757 29.6769C80.3522 27.9703 80.3671 26.2616 80.3671 24.5528V24.5571ZM111.077 24.664C111.084 22.4314 109.262 20.5922 107.018 20.5644C104.781 20.5387 102.901 22.3629 102.878 24.5849C102.852 26.839 104.736 28.7423 107.003 28.753C109.214 28.7637 111.071 26.901 111.077 24.664ZM158.524 24.6042C158.509 22.3972 156.719 20.5815 154.535 20.5644C152.236 20.5451 150.346 22.3865 150.339 24.6491C150.333 26.8711 152.198 28.7487 154.409 28.7445C156.714 28.7402 158.539 26.9031 158.524 24.602V24.6042ZM122.459 29.6854C124.557 29.694 125.885 28.4279 125.915 26.4797C125.919 26.1974 125.985 25.8232 125.59 25.8167C123.921 25.7847 122.204 25.6499 120.773 26.7449C119.882 27.4271 119.993 28.6846 120.915 29.2834C121.411 29.6042 121.978 29.6662 122.459 29.6854Z" fill="white"/>
<path d="M24.5118 7.49333C25.688 7.49333 26.8664 7.44628 28.0383 7.51044C28.8232 7.55321 29.0819 7.25167 29.1782 6.50103C29.392 4.84149 29.7235 3.19906 29.9609 1.54166C30.0443 0.955691 30.2988 0.778189 30.8676 0.784605C33.0768 0.810268 35.2859 0.805991 37.4951 0.786743C38.0554 0.782466 38.25 0.925751 38.1409 1.52455C37.8373 3.20548 37.6234 4.90565 37.3048 6.58443C37.1636 7.32652 37.3882 7.51899 38.096 7.50402C39.7342 7.46981 41.3745 7.52113 43.0126 7.4805C43.7504 7.46125 43.9408 7.71147 43.8082 8.42147C43.4339 10.4531 43.0811 12.4891 42.7753 14.5314C42.6726 15.2222 42.339 15.3868 41.706 15.374C40.0315 15.3441 38.3569 15.389 36.6824 15.3526C36.0088 15.3376 35.7543 15.5836 35.6516 16.2444C35.2688 18.708 34.8604 21.1674 34.3963 23.6161C34.2551 24.3646 34.4583 24.5571 35.1726 24.5421C36.8107 24.5079 38.451 24.5528 40.0892 24.5228C40.7586 24.51 40.9788 24.741 40.8634 25.4039C40.4998 27.5083 40.1512 29.6169 39.8326 31.7299C39.7599 32.2175 39.5674 32.4185 39.0841 32.4014C38.5152 32.3821 37.9421 32.3672 37.3753 32.4056C35.8527 32.5126 34.6294 32.2239 33.3762 31.0712C30.6281 28.5455 26.3574 28.9155 23.7355 31.6614C23.2222 32.2003 22.7261 32.4356 21.9861 32.4142C20.241 32.3629 18.4938 32.4313 16.7487 32.3821C15.9681 32.3607 15.6025 32.5725 15.4912 33.4022C15.2795 34.9891 14.9202 36.5566 14.6893 38.1413C14.5823 38.8706 14.3321 39.17 13.5409 39.1486C11.475 39.093 9.40698 39.1037 7.34111 39.1422C6.58192 39.1571 6.32957 38.9412 6.48141 38.1627C6.79364 36.5545 7.01391 34.9292 7.31759 33.321C7.4566 32.5896 7.20852 32.3757 6.50065 32.3885C4.82614 32.4206 3.15164 32.3821 1.47713 32.4056C0.871909 32.4142 0.653774 32.2517 0.775673 31.6015C1.17131 29.5015 1.53487 27.395 1.87276 25.2863C1.96472 24.711 2.22135 24.5143 2.78808 24.5228C4.49894 24.5464 6.20981 24.4993 7.91853 24.5442C8.64351 24.5635 8.90656 24.2855 9.01776 23.5926C9.40057 21.2016 9.81545 18.815 10.2774 16.4369C10.4485 15.5536 10.1662 15.3163 9.31289 15.3441C7.74745 15.3975 6.17773 15.3312 4.61015 15.3719C3.88089 15.3911 3.57294 15.2286 3.73333 14.4159C4.12897 12.3885 4.48183 10.3526 4.80262 8.31241C4.90955 7.62806 5.24317 7.46553 5.87833 7.47836C7.55283 7.51258 9.22734 7.45697 10.9019 7.50402C11.6332 7.52541 11.892 7.24098 11.9947 6.55449C12.2406 4.89923 12.5785 3.25894 12.8266 1.60368C12.9164 0.992047 13.1538 0.771773 13.7847 0.780328C15.9575 0.814545 18.1324 0.810268 20.3052 0.780328C20.9232 0.771773 21.1221 0.944998 21.0002 1.57802C20.6859 3.22259 20.4485 4.87999 20.1277 6.52242C19.978 7.2923 20.2196 7.5361 20.9853 7.50402C22.1593 7.45484 23.3356 7.49119 24.5118 7.49119V7.49333ZM21.3916 24.7666C22.6705 24.7666 23.9515 24.7474 25.2303 24.7752C25.7906 24.788 26.0473 24.6191 26.1435 24.0267C26.5798 21.3257 27.0524 18.6311 27.5443 15.9407C27.6555 15.3312 27.5058 15.1067 26.8664 15.1131C24.3065 15.1345 21.7466 15.1366 19.1889 15.111C18.6007 15.1045 18.3783 15.3355 18.2885 15.8873C17.8522 18.5883 17.3967 21.285 16.9284 23.9796C16.8193 24.6127 17.0545 24.7923 17.6598 24.7752C18.9023 24.7431 20.1469 24.7645 21.3916 24.7666Z" fill="white"/>
<path d="M24.5118 7.49333C25.688 7.49333 26.8664 7.44628 28.0383 7.51044C28.8232 7.55321 29.0819 7.25167 29.1782 6.50103C29.392 4.84149 29.7235 3.19906 29.9609 1.54166C30.0443 0.955691 30.2988 0.778189 30.8676 0.784605C33.0768 0.810268 35.2859 0.805991 37.4951 0.786743C38.0554 0.782466 38.25 0.925751 38.1409 1.52455C37.8373 3.20548 37.6234 4.90565 37.3048 6.58443C37.1636 7.32652 37.3882 7.51899 38.096 7.50402C39.7342 7.46981 41.3745 7.52113 43.0126 7.4805C43.7504 7.46125 43.9408 7.71147 43.8082 8.42147C43.4339 10.4531 43.0811 12.4891 42.7753 14.5314C42.6726 15.2222 42.339 15.3868 41.706 15.374C40.0315 15.3441 38.3569 15.389 36.6824 15.3526C36.0088 15.3376 35.7543 15.5836 35.6516 16.2444C35.2688 18.708 34.8604 21.1674 34.3963 23.6161C34.2551 24.3646 34.4583 24.5571 35.1726 24.5421C36.8107 24.5079 38.451 24.5528 40.0892 24.5228C40.7586 24.51 40.9788 24.741 40.8634 25.4039C40.4998 27.5083 40.1512 29.6169 39.8326 31.7299C39.7599 32.2175 39.5674 32.4185 39.0841 32.4014C38.5152 32.3821 37.9421 32.3672 37.3753 32.4056C35.8527 32.5126 34.6294 32.2239 33.3762 31.0712C30.6281 28.5455 26.3574 28.9155 23.7355 31.6614C23.2222 32.2003 22.7261 32.4356 21.9861 32.4142C20.241 32.3629 18.4938 32.4313 16.7487 32.3821C15.9681 32.3607 15.6025 32.5725 15.4912 33.4022C15.2795 34.9891 14.9202 36.5566 14.6893 38.1413C14.5823 38.8706 14.3321 39.17 13.5409 39.1486C11.475 39.093 9.40698 39.1037 7.34111 39.1422C6.58192 39.1571 6.32957 38.9412 6.48141 38.1627C6.79364 36.5545 7.01391 34.9292 7.31759 33.321C7.4566 32.5896 7.20852 32.3757 6.50065 32.3885C4.82614 32.4206 3.15164 32.3821 1.47713 32.4056C0.871909 32.4142 0.653774 32.2517 0.775673 31.6015C1.17131 29.5015 1.53487 27.395 1.87276 25.2863C1.96472 24.711 2.22135 24.5143 2.78808 24.5228C4.49894 24.5464 6.20981 24.4993 7.91853 24.5442C8.64351 24.5635 8.90656 24.2855 9.01776 23.5926C9.40057 21.2016 9.81545 18.815 10.2774 16.4369C10.4485 15.5536 10.1662 15.3163 9.31289 15.3441C7.74745 15.3975 6.17773 15.3312 4.61015 15.3719C3.88089 15.3911 3.57294 15.2286 3.73333 14.4159C4.12897 12.3885 4.48183 10.3526 4.80262 8.31241C4.90955 7.62806 5.24317 7.46553 5.87833 7.47836C7.55283 7.51258 9.22734 7.45697 10.9019 7.50402C11.6332 7.52541 11.892 7.24098 11.9947 6.55449C12.2406 4.89923 12.5785 3.25894 12.8266 1.60368C12.9164 0.992047 13.1538 0.771773 13.7847 0.780328C15.9575 0.814545 18.1324 0.810268 20.3052 0.780328C20.9232 0.771773 21.1221 0.944998 21.0002 1.57802C20.6859 3.22259 20.4485 4.87999 20.1277 6.52242C19.978 7.2923 20.2196 7.5361 20.9853 7.50402C22.1593 7.45484 23.3356 7.49119 24.5118 7.49119V7.49333ZM21.3916 24.7666C22.6705 24.7666 23.9515 24.7474 25.2303 24.7752C25.7906 24.788 26.0473 24.6191 26.1435 24.0267C26.5798 21.3257 27.0524 18.6311 27.5443 15.9407C27.6555 15.3312 27.5058 15.1067 26.8664 15.1131C24.3065 15.1345 21.7466 15.1366 19.1889 15.111C18.6007 15.1045 18.3783 15.3355 18.2885 15.8873C17.8522 18.5883 17.3967 21.285 16.9284 23.9796C16.8193 24.6127 17.0545 24.7923 17.6598 24.7752C18.9023 24.7431 20.1469 24.7645 21.3916 24.7666Z" fill="white"/>
<path d="M28.8262 40.6222C26.5294 40.5709 24.7993 38.7809 24.8335 36.4926C24.8677 34.2556 26.7326 32.4742 28.9973 32.5148C31.2557 32.5555 33.0243 34.3947 32.9858 36.6615C32.9473 38.9284 31.1145 40.6735 28.8262 40.6222Z" fill="white"/>
<path d="M28.8262 40.6222C26.5294 40.5709 24.7993 38.7809 24.8335 36.4926C24.8677 34.2556 26.7326 32.4742 28.9973 32.5148C31.2557 32.5555 33.0243 34.3947 32.9858 36.6615C32.9473 38.9284 31.1145 40.6735 28.8262 40.6222Z" fill="white"/>
<path d="M169.167 32.9083C167.865 32.9169 166.856 31.9203 166.866 30.6371C166.877 29.4182 167.886 28.4173 169.112 28.4087C170.414 28.4002 171.424 29.4032 171.407 30.6885C171.392 31.9374 170.418 32.8998 169.165 32.9083H169.167Z" fill="white"/>
<path d="M169.167 32.9083C167.865 32.9169 166.856 31.9203 166.866 30.6371C166.877 29.4182 167.886 28.4173 169.112 28.4087C170.414 28.4002 171.424 29.4032 171.407 30.6885C171.392 31.9374 170.418 32.8998 169.165 32.9083H169.167Z" fill="white"/>
</svg>
