<svg width="45" height="41" viewBox="0 0 45 41" fill="none" xmlns="http://www.w3.org/2000/svg">
<g clip-path="url(#clip0_573_256)">
<path d="M18.0279 22.5161C18.2053 22.3895 18.2106 22.2157 18.2606 22.0695C19.1581 19.4804 20.0529 16.8912 20.9451 14.2993C21.0449 14.0088 21.1278 13.7574 21.528 13.7521C21.9487 13.7458 22.0396 14.0088 22.1457 14.3154C23.0396 16.8894 23.9398 19.4625 24.8391 22.0348C24.8953 22.1961 24.9595 22.3547 25.1074 22.5081C25.3703 21.4938 25.6342 20.4786 25.8971 19.4643C26.1172 18.6122 27.0905 17.9019 27.956 17.9473C28.1173 17.9563 28.1253 18.0222 28.0959 18.1399C28.0745 18.2263 28.0486 18.311 28.0246 18.3966C27.2804 21.049 26.5352 23.7015 25.7928 26.3539C25.7108 26.6472 25.6457 26.9155 25.2358 26.919C24.8391 26.9226 24.7491 26.6766 24.6457 26.3825C23.676 23.6302 22.7 20.8806 21.7241 18.1309C21.6715 17.983 21.6608 17.8101 21.5146 17.6915C21.3551 17.8288 21.3426 18.0293 21.282 18.2014C20.3283 20.9278 19.3782 23.6551 18.4344 26.3843C18.3319 26.681 18.2392 26.9226 17.8434 26.9181C17.4343 26.9137 17.3693 26.6436 17.2864 26.3513C16.1937 22.4581 15.1001 18.5659 14.0073 14.6728C13.8291 14.0382 13.8959 13.9473 14.5697 13.9544C15.9441 13.9695 15.6928 13.7583 16.0475 15.0917C16.6687 17.4242 17.2801 19.7602 17.896 22.0945C17.9317 22.23 17.9789 22.3619 18.027 22.5152L18.0279 22.5161Z" fill="white"/>
<path d="M18.0279 22.5161C18.2053 22.3895 18.2106 22.2157 18.2606 22.0695C19.1581 19.4804 20.0529 16.8912 20.9451 14.2993C21.0449 14.0088 21.1278 13.7574 21.528 13.7521C21.9487 13.7458 22.0396 14.0088 22.1457 14.3154C23.0396 16.8894 23.9398 19.4625 24.8391 22.0348C24.8953 22.1961 24.9595 22.3547 25.1074 22.5081C25.3703 21.4938 25.6342 20.4786 25.8971 19.4643C26.1172 18.6122 27.0905 17.9019 27.956 17.9473C28.1173 17.9563 28.1253 18.0222 28.0959 18.1399C28.0745 18.2263 28.0486 18.311 28.0246 18.3966C27.2804 21.049 26.5352 23.7015 25.7928 26.3539C25.7108 26.6472 25.6457 26.9155 25.2358 26.919C24.8391 26.9226 24.7491 26.6766 24.6457 26.3825C23.676 23.6302 22.7 20.8806 21.7241 18.1309C21.6715 17.983 21.6608 17.8101 21.5146 17.6915C21.3551 17.8288 21.3426 18.0293 21.282 18.2014C20.3283 20.9278 19.3782 23.6551 18.4344 26.3843C18.3319 26.681 18.2392 26.9226 17.8434 26.9181C17.4343 26.9137 17.3693 26.6436 17.2864 26.3513C16.1937 22.4581 15.1001 18.5659 14.0073 14.6728C13.8291 14.0382 13.8959 13.9473 14.5697 13.9544C15.9441 13.9695 15.6928 13.7583 16.0475 15.0917C16.6687 17.4242 17.2801 19.7602 17.896 22.0945C17.9317 22.23 17.9789 22.3619 18.027 22.5152L18.0279 22.5161Z" fill="white"/>
<path d="M6.66465 10.5034C6.22614 10.1094 5.78317 9.7208 5.35268 9.31794C5.17264 9.14949 5.39368 8.45607 5.63344 8.40348C5.76 8.37585 5.81437 8.48727 5.88121 8.55768C6.74309 9.47392 7.60407 10.3919 8.46148 11.3117C8.54705 11.4036 8.69233 11.49 8.60944 11.6469C8.51853 11.8189 8.34918 11.7494 8.20925 11.7333C7.53277 11.654 6.85806 11.5667 6.18158 11.4855C6.09601 11.4749 6.00688 11.4838 5.88656 11.4838C6.03541 11.8679 6.30368 12.146 6.51046 12.4615C6.72972 12.7948 6.9668 13.1175 7.19319 13.4464C7.26805 13.5551 7.37501 13.6701 7.29301 13.8073C7.18695 13.9847 7.02919 13.8742 6.89639 13.8385C5.72613 13.5195 4.55498 13.2013 3.38829 12.8688C3.2537 12.8305 2.92571 12.8546 3.08079 12.5845C3.21181 12.3563 3.21894 11.8973 3.67706 12.0168C4.25996 12.1692 4.83395 12.3581 5.55322 12.5738C5.17264 12.0301 4.86604 11.5916 4.55944 11.1531C4.48279 11.0444 4.40435 10.9365 4.33127 10.8251C4.26888 10.7297 4.17173 10.6397 4.25373 10.5069C4.33305 10.3768 4.45783 10.408 4.57191 10.4222C5.23147 10.5034 5.89013 10.588 6.54968 10.6718C6.588 10.6157 6.62633 10.5595 6.66465 10.5034Z" fill="white"/>
<path d="M6.66465 10.5034C6.22614 10.1094 5.78317 9.7208 5.35268 9.31794C5.17264 9.14949 5.39368 8.45607 5.63344 8.40348C5.76 8.37585 5.81437 8.48727 5.88121 8.55768C6.74309 9.47392 7.60407 10.3919 8.46148 11.3117C8.54705 11.4036 8.69233 11.49 8.60944 11.6469C8.51853 11.8189 8.34918 11.7494 8.20925 11.7333C7.53277 11.654 6.85806 11.5667 6.18158 11.4855C6.09601 11.4749 6.00688 11.4838 5.88656 11.4838C6.03541 11.8679 6.30368 12.146 6.51046 12.4615C6.72972 12.7948 6.9668 13.1175 7.19319 13.4464C7.26805 13.5551 7.37501 13.6701 7.29301 13.8073C7.18695 13.9847 7.02919 13.8742 6.89639 13.8385C5.72613 13.5195 4.55498 13.2013 3.38829 12.8688C3.2537 12.8305 2.92571 12.8546 3.08079 12.5845C3.21181 12.3563 3.21894 11.8973 3.67706 12.0168C4.25996 12.1692 4.83395 12.3581 5.55322 12.5738C5.17264 12.0301 4.86604 11.5916 4.55944 11.1531C4.48279 11.0444 4.40435 10.9365 4.33127 10.8251C4.26888 10.7297 4.17173 10.6397 4.25373 10.5069C4.33305 10.3768 4.45783 10.408 4.57191 10.4222C5.23147 10.5034 5.89013 10.588 6.54968 10.6718C6.588 10.6157 6.62633 10.5595 6.66465 10.5034Z" fill="white"/>
<path d="M31.1269 34.2891C31.1233 33.0876 32.0859 32.1135 33.2873 32.1046C34.4915 32.0956 35.4754 33.0573 35.4853 34.2508C35.4951 35.4585 34.5013 36.4647 33.2954 36.4674C32.1055 36.4701 31.1295 35.4905 31.126 34.2882L31.1269 34.2891ZM32.1117 34.2766C32.1108 34.9335 32.626 35.4674 33.2766 35.4825C33.9282 35.4986 34.4986 34.9424 34.5057 34.2837C34.5129 33.6197 33.9638 33.0814 33.2865 33.0885C32.6287 33.0957 32.1135 33.6171 32.1117 34.2766Z" fill="white"/>
<path d="M31.1269 34.2891C31.1233 33.0876 32.0859 32.1135 33.2873 32.1046C34.4915 32.0956 35.4754 33.0573 35.4853 34.2508C35.4951 35.4585 34.5013 36.4647 33.2954 36.4674C32.1055 36.4701 31.1295 35.4905 31.126 34.2882L31.1269 34.2891ZM32.1117 34.2766C32.1108 34.9335 32.626 35.4674 33.2766 35.4825C33.9282 35.4986 34.4986 34.9424 34.5057 34.2837C34.5129 33.6197 33.9638 33.0814 33.2865 33.0885C32.6287 33.0957 32.1135 33.6171 32.1117 34.2766Z" fill="white"/>
<path d="M6.30372 30.4752C6.9098 30.1303 7.43387 29.8558 7.9321 29.5385C8.27525 29.3201 8.36794 29.5465 8.49005 29.7765C8.60413 29.9913 8.80824 30.182 8.43835 30.3861C7.38753 30.9655 6.35275 31.5733 5.30905 32.166C5.21368 32.2204 5.11564 32.3363 4.99086 32.2427C4.85984 32.1437 4.90352 32.0047 4.93917 31.8746C5.17447 31.0029 5.41155 30.1303 5.64685 29.2586C5.67715 29.1472 5.74043 29.0394 5.67002 28.8602C5.12901 29.1677 4.58354 29.4512 4.06838 29.7818C3.74752 29.9868 3.6263 29.838 3.50331 29.5777C3.39635 29.3513 3.16194 29.1561 3.56035 28.9387C4.60048 28.3709 5.61922 27.7648 6.64954 27.1784C6.7565 27.1169 6.8688 26.9859 7.00784 27.1008C7.13173 27.2033 7.07736 27.3442 7.04527 27.4734C6.80819 28.4351 6.57022 29.3959 6.30283 30.4761L6.30372 30.4752Z" fill="white"/>
<path d="M6.30372 30.4752C6.9098 30.1303 7.43387 29.8558 7.9321 29.5385C8.27525 29.3201 8.36794 29.5465 8.49005 29.7765C8.60413 29.9913 8.80824 30.182 8.43835 30.3861C7.38753 30.9655 6.35275 31.5733 5.30905 32.166C5.21368 32.2204 5.11564 32.3363 4.99086 32.2427C4.85984 32.1437 4.90352 32.0047 4.93917 31.8746C5.17447 31.0029 5.41155 30.1303 5.64685 29.2586C5.67715 29.1472 5.74043 29.0394 5.67002 28.8602C5.12901 29.1677 4.58354 29.4512 4.06838 29.7818C3.74752 29.9868 3.6263 29.838 3.50331 29.5777C3.39635 29.3513 3.16194 29.1561 3.56035 28.9387C4.60048 28.3709 5.61922 27.7648 6.64954 27.1784C6.7565 27.1169 6.8688 26.9859 7.00784 27.1008C7.13173 27.2033 7.07736 27.3442 7.04527 27.4734C6.80819 28.4351 6.57022 29.3959 6.30283 30.4761L6.30372 30.4752Z" fill="white"/>
<path d="M36.4318 30.3381C37.0869 30.7168 37.6136 31.0466 38.1635 31.3318C38.5334 31.5235 38.3578 31.7187 38.2268 31.9317C38.102 32.134 38.0495 32.4112 37.6787 32.1866C36.6653 31.5734 35.6287 30.9976 34.6029 30.4022C34.4941 30.3389 34.3257 30.3042 34.3488 30.1331C34.3729 29.9512 34.5458 29.9352 34.6857 29.8942C35.6198 29.6197 36.5548 29.3443 37.6092 29.0341C37.0138 28.6901 36.5191 28.3781 36.0004 28.1134C35.6653 27.9423 35.7223 27.7605 35.8899 27.5216C36.0325 27.3184 36.0779 27.0055 36.4701 27.2435C37.4835 27.8567 38.5192 28.4352 39.5433 29.0305C39.6502 29.0929 39.8169 29.1313 39.7786 29.3095C39.7447 29.4682 39.5896 29.4842 39.4639 29.5181C38.496 29.7819 37.5281 30.0413 36.43 30.3363L36.4318 30.3381Z" fill="white"/>
<path d="M36.4318 30.3381C37.0869 30.7168 37.6136 31.0466 38.1635 31.3318C38.5334 31.5235 38.3578 31.7187 38.2268 31.9317C38.102 32.134 38.0495 32.4112 37.6787 32.1866C36.6653 31.5734 35.6287 30.9976 34.6029 30.4022C34.4941 30.3389 34.3257 30.3042 34.3488 30.1331C34.3729 29.9512 34.5458 29.9352 34.6857 29.8942C35.6198 29.6197 36.5548 29.3443 37.6092 29.0341C37.0138 28.6901 36.5191 28.3781 36.0004 28.1134C35.6653 27.9423 35.7223 27.7605 35.8899 27.5216C36.0325 27.3184 36.0779 27.0055 36.4701 27.2435C37.4835 27.8567 38.5192 28.4352 39.5433 29.0305C39.6502 29.0929 39.8169 29.1313 39.7786 29.3095C39.7447 29.4682 39.5896 29.4842 39.4639 29.5181C38.496 29.7819 37.5281 30.0413 36.43 30.3363L36.4318 30.3381Z" fill="white"/>
<path d="M34.53 8.44885C34.9855 8.03173 35.4436 7.65382 35.8482 7.226C36.1165 6.94258 36.2537 7.12529 36.4124 7.30176C36.5612 7.46576 36.8794 7.57539 36.5693 7.89179C35.719 8.75812 34.8865 9.64228 34.0443 10.5175C33.9667 10.5986 33.8918 10.7261 33.751 10.6557C33.6289 10.5942 33.6325 10.464 33.6298 10.3428C33.612 9.48452 33.5933 8.62621 33.5728 7.76791C33.5692 7.61104 33.5558 7.45328 33.5487 7.31424C33.0906 7.74562 32.6209 8.14492 32.2064 8.59502C31.9399 8.88469 31.7964 8.74476 31.6057 8.54689C31.423 8.35705 31.1859 8.22959 31.4996 7.91586C32.3169 7.10033 33.0995 6.25005 33.9008 5.41848C33.997 5.31865 34.0701 5.13683 34.2484 5.19031C34.4516 5.25092 34.4106 5.44878 34.4168 5.60565C34.4569 6.56289 34.4926 7.51924 34.5291 8.45063L34.53 8.44885Z" fill="white"/>
<path d="M34.53 8.44885C34.9855 8.03173 35.4436 7.65382 35.8482 7.226C36.1165 6.94258 36.2537 7.12529 36.4124 7.30176C36.5612 7.46576 36.8794 7.57539 36.5693 7.89179C35.719 8.75812 34.8865 9.64228 34.0443 10.5175C33.9667 10.5986 33.8918 10.7261 33.751 10.6557C33.6289 10.5942 33.6325 10.464 33.6298 10.3428C33.612 9.48452 33.5933 8.62621 33.5728 7.76791C33.5692 7.61104 33.5558 7.45328 33.5487 7.31424C33.0906 7.74562 32.6209 8.14492 32.2064 8.59502C31.9399 8.88469 31.7964 8.74476 31.6057 8.54689C31.423 8.35705 31.1859 8.22959 31.4996 7.91586C32.3169 7.10033 33.0995 6.25005 33.9008 5.41848C33.997 5.31865 34.0701 5.13683 34.2484 5.19031C34.4516 5.25092 34.4106 5.44878 34.4168 5.60565C34.4569 6.56289 34.4926 7.51924 34.5291 8.45063L34.53 8.44885Z" fill="white"/>
<path d="M20.1063 37.7257C20.0743 38.2204 19.8149 38.6206 19.3131 38.8095C19.0261 38.9174 19.0029 39.0493 19.0992 39.3033C19.2356 39.6625 19.3389 40.0342 19.4593 40.3996C19.5422 40.6518 19.4949 40.7427 19.1954 40.7107C18.7231 40.6599 18.3897 40.5199 18.3256 39.9771C18.2872 39.658 18.1455 39.3523 18.0671 39.0368C18.0198 38.8461 17.912 38.7578 17.7257 38.7596C17.5234 38.7605 17.5582 38.9317 17.5341 39.0511C17.4717 39.3559 17.3968 39.6598 17.3647 39.9673C17.3309 40.2971 17.1678 40.3622 16.8852 40.2748C16.6428 40.1999 16.2979 40.2793 16.4004 39.798C16.6366 38.683 16.8416 37.5617 17.0323 36.4378C17.092 36.0849 17.2239 36.0073 17.5635 36.0929C18.0653 36.2195 18.584 36.2756 19.0885 36.3924C19.7062 36.5359 20.1188 37.0778 20.1072 37.7257H20.1063ZM18.0332 37.0894C17.7115 37.0938 17.7979 37.4949 17.8015 37.7204C17.8095 38.2445 18.2997 38.0056 18.568 38.0974C18.8603 38.1981 19.0885 38.0261 19.1375 37.7088C19.1919 37.3567 18.8799 37.1651 18.0341 37.0885L18.0332 37.0894Z" fill="white"/>
<path d="M20.1063 37.7257C20.0743 38.2204 19.8149 38.6206 19.3131 38.8095C19.0261 38.9174 19.0029 39.0493 19.0992 39.3033C19.2356 39.6625 19.3389 40.0342 19.4593 40.3996C19.5422 40.6518 19.4949 40.7427 19.1954 40.7107C18.7231 40.6599 18.3897 40.5199 18.3256 39.9771C18.2872 39.658 18.1455 39.3523 18.0671 39.0368C18.0198 38.8461 17.912 38.7578 17.7257 38.7596C17.5234 38.7605 17.5582 38.9317 17.5341 39.0511C17.4717 39.3559 17.3968 39.6598 17.3647 39.9673C17.3309 40.2971 17.1678 40.3622 16.8852 40.2748C16.6428 40.1999 16.2979 40.2793 16.4004 39.798C16.6366 38.683 16.8416 37.5617 17.0323 36.4378C17.092 36.0849 17.2239 36.0073 17.5635 36.0929C18.0653 36.2195 18.584 36.2756 19.0885 36.3924C19.7062 36.5359 20.1188 37.0778 20.1072 37.7257H20.1063ZM18.0332 37.0894C17.7115 37.0938 17.7979 37.4949 17.8015 37.7204C17.8095 38.2445 18.2997 38.0056 18.568 38.0974C18.8603 38.1981 19.0885 38.0261 19.1375 37.7088C19.1919 37.3567 18.8799 37.1651 18.0341 37.0885L18.0332 37.0894Z" fill="white"/>
<path d="M22.7884 2.86588C22.8856 2.94431 22.9266 2.98531 22.9747 3.01473C23.3972 3.27587 23.6093 3.63952 23.4863 4.13864C23.3677 4.61993 23.0246 4.90425 22.5549 4.98625C21.9684 5.08964 21.3722 4.99249 20.7794 4.99605C20.5941 4.99694 20.57 4.86325 20.5736 4.71975C20.6021 3.48978 20.6333 2.2607 20.66 1.03072C20.6645 0.832859 20.7696 0.774034 20.9443 0.779382C21.4328 0.795425 21.9256 0.777599 22.4096 0.836424C22.8962 0.895249 23.267 1.16263 23.4168 1.65819C23.5629 2.14394 23.3339 2.48708 22.9613 2.76517C22.9141 2.80082 22.8588 2.82488 22.7884 2.86499V2.86588ZM21.5504 3.75984C21.4809 4.05842 21.611 4.17429 21.9221 4.16003C22.2091 4.14666 22.4898 4.10209 22.4996 3.7643C22.5103 3.37302 22.1975 3.33291 21.8846 3.30083C21.4978 3.26161 21.5424 3.51117 21.5504 3.76073V3.75984ZM21.5941 2.07798C21.5745 2.32041 21.5442 2.5263 21.8775 2.51561C22.1734 2.50669 22.4292 2.45411 22.4488 2.10829C22.4684 1.77762 22.2287 1.71167 21.9506 1.6778C21.5852 1.63323 21.5691 1.84625 21.5932 2.07798H21.5941Z" fill="white"/>
<path d="M22.7884 2.86588C22.8856 2.94431 22.9266 2.98531 22.9747 3.01473C23.3972 3.27587 23.6093 3.63952 23.4863 4.13864C23.3677 4.61993 23.0246 4.90425 22.5549 4.98625C21.9684 5.08964 21.3722 4.99249 20.7794 4.99605C20.5941 4.99694 20.57 4.86325 20.5736 4.71975C20.6021 3.48978 20.6333 2.2607 20.66 1.03072C20.6645 0.832859 20.7696 0.774034 20.9443 0.779382C21.4328 0.795425 21.9256 0.777599 22.4096 0.836424C22.8962 0.895249 23.267 1.16263 23.4168 1.65819C23.5629 2.14394 23.3339 2.48708 22.9613 2.76517C22.9141 2.80082 22.8588 2.82488 22.7884 2.86499V2.86588ZM21.5504 3.75984C21.4809 4.05842 21.611 4.17429 21.9221 4.16003C22.2091 4.14666 22.4898 4.10209 22.4996 3.7643C22.5103 3.37302 22.1975 3.33291 21.8846 3.30083C21.4978 3.26161 21.5424 3.51117 21.5504 3.76073V3.75984ZM21.5941 2.07798C21.5745 2.32041 21.5442 2.5263 21.8775 2.51561C22.1734 2.50669 22.4292 2.45411 22.4488 2.10829C22.4684 1.77762 22.2287 1.71167 21.9506 1.6778C21.5852 1.63323 21.5691 1.84625 21.5932 2.07798H21.5941Z" fill="white"/>
<path d="M35.2277 12.3027C35.241 11.0905 36.2785 10.1128 37.488 10.1725C38.7269 10.234 39.6627 11.3098 39.5397 12.5442C39.5246 12.6975 39.5763 12.9854 39.2973 12.9034C39.0486 12.8312 38.6262 12.9819 38.6172 12.4711C38.603 11.6779 38.103 11.185 37.3792 11.2171C36.889 11.2385 36.537 11.4845 36.3347 11.9239C36.1216 12.3891 36.225 12.8187 36.5343 13.21C36.6199 13.3188 36.7072 13.4141 36.8668 13.3134C37.0201 13.2163 36.9372 13.1191 36.8899 13.0122C36.7241 12.6387 37.1038 12.669 37.2536 12.538C37.4158 12.3963 37.529 12.4756 37.6413 12.6441C38.283 13.612 38.2875 13.6093 37.2919 14.1735C36.5307 14.6049 36.447 14.5897 35.8623 13.915C35.4238 13.4088 35.2214 12.8954 35.2277 12.3018V12.3027Z" fill="white"/>
<path d="M35.2277 12.3027C35.241 11.0905 36.2785 10.1128 37.488 10.1725C38.7269 10.234 39.6627 11.3098 39.5397 12.5442C39.5246 12.6975 39.5763 12.9854 39.2973 12.9034C39.0486 12.8312 38.6262 12.9819 38.6172 12.4711C38.603 11.6779 38.103 11.185 37.3792 11.2171C36.889 11.2385 36.537 11.4845 36.3347 11.9239C36.1216 12.3891 36.225 12.8187 36.5343 13.21C36.6199 13.3188 36.7072 13.4141 36.8668 13.3134C37.0201 13.2163 36.9372 13.1191 36.8899 13.0122C36.7241 12.6387 37.1038 12.669 37.2536 12.538C37.4158 12.3963 37.529 12.4756 37.6413 12.6441C38.283 13.612 38.2875 13.6093 37.2919 14.1735C36.5307 14.6049 36.447 14.5897 35.8623 13.915C35.4238 13.4088 35.2214 12.8954 35.2277 12.3018V12.3027Z" fill="white"/>
<path d="M9.05748 36.126C8.51112 36.0895 7.97189 35.7686 7.66796 35.1233C7.36314 34.4762 7.43266 33.847 7.90059 33.2989C8.39971 32.7142 8.93894 32.1634 9.44073 31.5813C9.75446 31.2168 9.88637 31.5805 10.0727 31.7115C10.2803 31.8576 10.4309 32.0038 10.1698 32.2685C9.73396 32.7106 9.33199 33.1857 8.91487 33.6465C8.40238 34.2133 8.34712 34.5948 8.72592 34.9451C9.10382 35.2944 9.51114 35.2035 10.004 34.6598C10.4211 34.1999 10.857 33.7543 11.2483 33.273C11.529 32.9281 11.6886 33.1625 11.8811 33.3407C12.0593 33.5056 12.3089 33.6251 12.013 33.929C11.4871 34.4691 10.9987 35.0449 10.4871 35.6002C10.1475 35.9683 9.72059 36.1429 9.05659 36.1269L9.05748 36.126Z" fill="white"/>
<path d="M9.05748 36.126C8.51112 36.0895 7.97189 35.7686 7.66796 35.1233C7.36314 34.4762 7.43266 33.847 7.90059 33.2989C8.39971 32.7142 8.93894 32.1634 9.44073 31.5813C9.75446 31.2168 9.88637 31.5805 10.0727 31.7115C10.2803 31.8576 10.4309 32.0038 10.1698 32.2685C9.73396 32.7106 9.33199 33.1857 8.91487 33.6465C8.40238 34.2133 8.34712 34.5948 8.72592 34.9451C9.10382 35.2944 9.51114 35.2035 10.004 34.6598C10.4211 34.1999 10.857 33.7543 11.2483 33.273C11.529 32.9281 11.6886 33.1625 11.8811 33.3407C12.0593 33.5056 12.3089 33.6251 12.013 33.929C11.4871 34.4691 10.9987 35.0449 10.4871 35.6002C10.1475 35.9683 9.72059 36.1429 9.05659 36.1269L9.05748 36.126Z" fill="white"/>
<path d="M28.6562 2.20986C28.6633 2.72859 28.4307 2.9015 27.9235 2.75176C27.6258 2.66353 27.3192 2.59579 27.0322 2.48081C26.7542 2.3694 26.7042 2.52538 26.6454 2.72948C26.5839 2.94072 26.518 3.12878 26.8308 3.19652C27.0616 3.24643 27.2818 3.34982 27.5135 3.39082C27.8727 3.4541 27.9556 3.60294 27.8504 3.96837C27.7399 4.34895 27.5634 4.38905 27.2453 4.25625C27.0821 4.18852 26.8959 4.17336 26.7381 4.0976C26.3647 3.91846 26.2238 4.06106 26.1347 4.43095C26.0723 4.68853 26.1356 4.77142 26.37 4.83113C26.7426 4.92561 27.1044 5.06287 27.4779 5.15467C27.8478 5.24558 27.6909 5.47821 27.633 5.67251C27.575 5.86681 27.5857 6.14043 27.2212 6.02189C26.5456 5.80263 25.8611 5.61101 25.1784 5.41403C24.9662 5.35253 24.9012 5.25628 24.9716 5.02722C25.3227 3.88102 25.6614 2.73126 25.993 1.57972C26.0634 1.33462 26.1802 1.28471 26.4128 1.35779C27.0768 1.56635 27.7444 1.75976 28.4111 1.95852C28.5403 1.99684 28.6802 2.02269 28.657 2.20986H28.6562Z" fill="white"/>
<path d="M28.6562 2.20986C28.6633 2.72859 28.4307 2.9015 27.9235 2.75176C27.6258 2.66353 27.3192 2.59579 27.0322 2.48081C26.7542 2.3694 26.7042 2.52538 26.6454 2.72948C26.5839 2.94072 26.518 3.12878 26.8308 3.19652C27.0616 3.24643 27.2818 3.34982 27.5135 3.39082C27.8727 3.4541 27.9556 3.60294 27.8504 3.96837C27.7399 4.34895 27.5634 4.38905 27.2453 4.25625C27.0821 4.18852 26.8959 4.17336 26.7381 4.0976C26.3647 3.91846 26.2238 4.06106 26.1347 4.43095C26.0723 4.68853 26.1356 4.77142 26.37 4.83113C26.7426 4.92561 27.1044 5.06287 27.4779 5.15467C27.8478 5.24558 27.6909 5.47821 27.633 5.67251C27.575 5.86681 27.5857 6.14043 27.2212 6.02189C26.5456 5.80263 25.8611 5.61101 25.1784 5.41403C24.9662 5.35253 24.9012 5.25628 24.9716 5.02722C25.3227 3.88102 25.6614 2.73126 25.993 1.57972C26.0634 1.33462 26.1802 1.28471 26.4128 1.35779C27.0768 1.56635 27.7444 1.75976 28.4111 1.95852C28.5403 1.99684 28.6802 2.02269 28.657 2.20986H28.6562Z" fill="white"/>
<path d="M10.0726 9.81693C9.91749 9.82584 9.85956 9.73047 9.79271 9.65561C8.99234 8.76432 8.19642 7.86858 7.39159 6.98086C7.23918 6.81241 7.23561 6.69654 7.4112 6.54324C7.94597 6.0762 8.47896 5.6065 8.99501 5.11985C9.26596 4.86495 9.38094 5.09044 9.5173 5.25266C9.64743 5.40596 9.90323 5.54054 9.61178 5.78564C9.30607 6.04233 9.02888 6.33378 8.71515 6.57889C8.44687 6.78923 8.62156 6.91134 8.75525 7.07177C8.8934 7.23844 9.00838 7.34807 9.20981 7.13505C9.41213 6.92114 9.65545 6.74556 9.86401 6.53611C10.1234 6.27674 10.249 6.50135 10.3899 6.66534C10.5253 6.8231 10.7624 6.96749 10.4763 7.20368C10.2375 7.40154 10.02 7.62615 9.77845 7.82045C9.48789 8.05397 9.7633 8.16894 9.87293 8.30798C9.98434 8.44791 10.0842 8.65291 10.3177 8.42028C10.6002 8.13864 10.9211 7.89532 11.2027 7.61367C11.4523 7.36411 11.5869 7.53791 11.7304 7.71795C11.8658 7.88819 12.127 8.02366 11.8159 8.2857C11.2856 8.73491 10.7776 9.20996 10.2589 9.67254C10.1938 9.73047 10.1207 9.77949 10.0735 9.81604L10.0726 9.81693Z" fill="white"/>
<path d="M10.0726 9.81693C9.91749 9.82584 9.85956 9.73047 9.79271 9.65561C8.99234 8.76432 8.19642 7.86858 7.39159 6.98086C7.23918 6.81241 7.23561 6.69654 7.4112 6.54324C7.94597 6.0762 8.47896 5.6065 8.99501 5.11985C9.26596 4.86495 9.38094 5.09044 9.5173 5.25266C9.64743 5.40596 9.90323 5.54054 9.61178 5.78564C9.30607 6.04233 9.02888 6.33378 8.71515 6.57889C8.44687 6.78923 8.62156 6.91134 8.75525 7.07177C8.8934 7.23844 9.00838 7.34807 9.20981 7.13505C9.41213 6.92114 9.65545 6.74556 9.86401 6.53611C10.1234 6.27674 10.249 6.50135 10.3899 6.66534C10.5253 6.8231 10.7624 6.96749 10.4763 7.20368C10.2375 7.40154 10.02 7.62615 9.77845 7.82045C9.48789 8.05397 9.7633 8.16894 9.87293 8.30798C9.98434 8.44791 10.0842 8.65291 10.3177 8.42028C10.6002 8.13864 10.9211 7.89532 11.2027 7.61367C11.4523 7.36411 11.5869 7.53791 11.7304 7.71795C11.8658 7.88819 12.127 8.02366 11.8159 8.2857C11.2856 8.73491 10.7776 9.20996 10.2589 9.67254C10.1938 9.73047 10.1207 9.77949 10.0735 9.81604L10.0726 9.81693Z" fill="white"/>
<path d="M26.4248 17.6602C26.546 17.1834 26.6182 16.8046 26.7385 16.4427C27.0647 15.4623 27.6753 14.7466 28.6922 14.4302C28.8045 14.3954 28.9159 14.3544 29.0265 14.3125C29.7003 14.0603 29.7324 14.0853 29.6816 14.8286C29.5844 16.2761 29.0737 16.8795 27.653 17.2048C27.2519 17.2966 26.8615 17.4115 26.4248 17.6602Z" fill="white"/>
<path d="M26.4248 17.6602C26.546 17.1834 26.6182 16.8046 26.7385 16.4427C27.0647 15.4623 27.6753 14.7466 28.6922 14.4302C28.8045 14.3954 28.9159 14.3544 29.0265 14.3125C29.7003 14.0603 29.7324 14.0853 29.6816 14.8286C29.5844 16.2761 29.0737 16.8795 27.653 17.2048C27.2519 17.2966 26.8615 17.4115 26.4248 17.6602Z" fill="white"/>
<path d="M26.3164 40.2187C26.0677 40.2704 26.0615 40.0698 26.0222 39.9228C25.8065 39.109 25.5811 38.2971 25.3921 37.4771C25.3154 37.1447 25.2058 37.0377 24.8582 37.1482C24.3511 37.3095 24.1461 37.1242 24.1416 36.5912C24.1398 36.4281 24.2334 36.3906 24.3529 36.3603C25.1247 36.1607 25.8983 35.9628 26.6693 35.7614C27.0695 35.6571 26.9875 35.9976 27.0668 36.1874C27.1595 36.4093 27.1533 36.5644 26.8636 36.6482C26.2237 36.8327 26.229 36.8461 26.4019 37.5145C26.5686 38.158 26.7326 38.8024 26.8984 39.4459C27.0517 40.0378 26.9322 40.1964 26.3155 40.2196L26.3164 40.2187Z" fill="white"/>
<path d="M26.3164 40.2187C26.0677 40.2704 26.0615 40.0698 26.0222 39.9228C25.8065 39.109 25.5811 38.2971 25.3921 37.4771C25.3154 37.1447 25.2058 37.0377 24.8582 37.1482C24.3511 37.3095 24.1461 37.1242 24.1416 36.5912C24.1398 36.4281 24.2334 36.3906 24.3529 36.3603C25.1247 36.1607 25.8983 35.9628 26.6693 35.7614C27.0695 35.6571 26.9875 35.9976 27.0668 36.1874C27.1595 36.4093 27.1533 36.5644 26.8636 36.6482C26.2237 36.8327 26.229 36.8461 26.4019 37.5145C26.5686 38.158 26.7326 38.8024 26.8984 39.4459C27.0517 40.0378 26.9322 40.1964 26.3155 40.2196L26.3164 40.2187Z" fill="white"/>
<path d="M13.3663 34.3541C14.1685 34.7534 14.9947 35.1224 15.7692 35.5778C15.9929 35.7097 15.6739 35.986 15.6052 36.1955C15.5517 36.3604 15.4305 36.3621 15.2835 36.2998C15.0696 36.2097 14.8503 35.9673 14.6471 36.06C14.4136 36.1669 14.3753 36.4985 14.2567 36.7329C13.9367 37.3666 13.6159 38.0003 13.328 38.6492C13.1622 39.0217 12.9563 38.8738 12.729 38.7588C12.5089 38.6474 12.2451 38.5948 12.4403 38.2231C12.8262 37.4905 13.1515 36.7258 13.5446 35.9985C13.7415 35.634 13.6801 35.4691 13.3048 35.3211C12.9055 35.1643 12.8806 34.6705 13.2335 34.4147C13.2674 34.3906 13.3093 34.379 13.3663 34.3523V34.3541Z" fill="white"/>
<path d="M13.3663 34.3541C14.1685 34.7534 14.9947 35.1224 15.7692 35.5778C15.9929 35.7097 15.6739 35.986 15.6052 36.1955C15.5517 36.3604 15.4305 36.3621 15.2835 36.2998C15.0696 36.2097 14.8503 35.9673 14.6471 36.06C14.4136 36.1669 14.3753 36.4985 14.2567 36.7329C13.9367 37.3666 13.6159 38.0003 13.328 38.6492C13.1622 39.0217 12.9563 38.8738 12.729 38.7588C12.5089 38.6474 12.2451 38.5948 12.4403 38.2231C12.8262 37.4905 13.1515 36.7258 13.5446 35.9985C13.7415 35.634 13.6801 35.4691 13.3048 35.3211C12.9055 35.1643 12.8806 34.6705 13.2335 34.4147C13.2674 34.3906 13.3093 34.379 13.3663 34.3523V34.3541Z" fill="white"/>
<path d="M13.4385 7.20378C13.2638 7.2225 13.2291 7.09326 13.1765 6.99255C12.6239 5.92835 12.0838 4.85703 11.5187 3.79996C11.3092 3.4078 11.6444 3.39532 11.8324 3.27678C12.0419 3.14487 12.2273 3.03257 12.3931 3.37482C12.7727 4.16094 13.1997 4.92477 13.5847 5.70821C13.713 5.97024 13.8378 6.02729 14.0865 5.86686C14.2968 5.73138 14.5455 5.65206 14.7514 5.51034C15.0651 5.29465 15.1926 5.42478 15.3486 5.71355C15.5117 6.0157 15.4974 6.17257 15.1667 6.32319C14.6551 6.55582 14.164 6.83301 13.664 7.09059C13.5856 7.13159 13.5054 7.16991 13.4394 7.20289L13.4385 7.20378Z" fill="white"/>
<path d="M13.4385 7.20378C13.2638 7.2225 13.2291 7.09326 13.1765 6.99255C12.6239 5.92835 12.0838 4.85703 11.5187 3.79996C11.3092 3.4078 11.6444 3.39532 11.8324 3.27678C12.0419 3.14487 12.2273 3.03257 12.3931 3.37482C12.7727 4.16094 13.1997 4.92477 13.5847 5.70821C13.713 5.97024 13.8378 6.02729 14.0865 5.86686C14.2968 5.73138 14.5455 5.65206 14.7514 5.51034C15.0651 5.29465 15.1926 5.42478 15.3486 5.71355C15.5117 6.0157 15.4974 6.17257 15.1667 6.32319C14.6551 6.55582 14.164 6.83301 13.664 7.09059C13.5856 7.13159 13.5054 7.16991 13.4394 7.20289L13.4385 7.20378Z" fill="white"/>
<path d="M16.5243 1.42386C16.7631 1.37573 16.7845 1.55132 16.8237 1.71264C17.0287 2.56203 17.2444 3.40876 17.4343 4.26172C17.4931 4.52464 17.592 4.6111 17.8567 4.53088C18.1535 4.43997 18.4592 4.37847 18.7614 4.3045C19.1259 4.21537 19.0805 4.5193 19.1348 4.71003C19.1901 4.89988 19.2997 5.112 18.961 5.18509C18.3389 5.31967 17.7204 5.47208 17.1045 5.63251C16.846 5.70025 16.7703 5.5933 16.7168 5.36334C16.4681 4.29648 16.2043 3.23317 15.9467 2.16809C15.8041 1.57716 15.9048 1.44882 16.5243 1.42475V1.42386Z" fill="white"/>
<path d="M16.5243 1.42386C16.7631 1.37573 16.7845 1.55132 16.8237 1.71264C17.0287 2.56203 17.2444 3.40876 17.4343 4.26172C17.4931 4.52464 17.592 4.6111 17.8567 4.53088C18.1535 4.43997 18.4592 4.37847 18.7614 4.3045C19.1259 4.21537 19.0805 4.5193 19.1348 4.71003C19.1901 4.89988 19.2997 5.112 18.961 5.18509C18.3389 5.31967 17.7204 5.47208 17.1045 5.63251C16.846 5.70025 16.7703 5.5933 16.7168 5.36334C16.4681 4.29648 16.2043 3.23317 15.9467 2.16809C15.8041 1.57716 15.9048 1.44882 16.5243 1.42475V1.42386Z" fill="white"/>
<path d="M4.12137 21.0204C5.18734 21.0204 6.25332 21.0204 7.3193 21.0204C7.58847 21.0204 7.91111 20.9883 7.90666 21.3743C7.9022 21.721 7.60362 21.7147 7.34425 21.7147C5.16774 21.7147 2.99211 21.7147 0.815588 21.7147C0.554442 21.7147 0.266556 21.7138 0.274578 21.3556C0.2826 20.9937 0.58118 21.0213 0.835197 21.0213C1.93059 21.0213 3.02598 21.0213 4.12137 21.0213V21.0204Z" fill="white"/>
<path d="M4.12137 21.0204C5.18734 21.0204 6.25332 21.0204 7.3193 21.0204C7.58847 21.0204 7.91111 20.9883 7.90666 21.3743C7.9022 21.721 7.60362 21.7147 7.34425 21.7147C5.16774 21.7147 2.99211 21.7147 0.815588 21.7147C0.554442 21.7147 0.266556 21.7138 0.274578 21.3556C0.2826 20.9937 0.58118 21.0213 0.835197 21.0213C1.93059 21.0213 3.02598 21.0213 4.12137 21.0213V21.0204Z" fill="white"/>
<path d="M38.994 21.0205C40.0894 21.0205 41.1847 21.0205 42.281 21.0205C42.527 21.0205 42.7935 21.0152 42.8042 21.3476C42.8158 21.7104 42.535 21.7139 42.273 21.7139C40.0822 21.7139 37.8906 21.7139 35.6998 21.7139C35.4493 21.7139 35.1819 21.697 35.1712 21.3815C35.1597 21.0312 35.4404 21.017 35.7078 21.0179C36.8032 21.0205 37.8986 21.0187 38.9949 21.0187L38.994 21.0205Z" fill="white"/>
<path d="M38.994 21.0205C40.0894 21.0205 41.1847 21.0205 42.281 21.0205C42.527 21.0205 42.7935 21.0152 42.8042 21.3476C42.8158 21.7104 42.535 21.7139 42.273 21.7139C40.0822 21.7139 37.8906 21.7139 35.6998 21.7139C35.4493 21.7139 35.1819 21.697 35.1712 21.3815C35.1597 21.0312 35.4404 21.017 35.7078 21.0179C36.8032 21.0205 37.8986 21.0187 38.9949 21.0187L38.994 21.0205Z" fill="white"/>
<path d="M30.793 38.4336C30.6771 38.7009 30.3767 38.7134 30.1637 38.848C30.0086 38.9461 29.9231 38.8338 29.858 38.7018C29.3152 37.602 28.776 36.5013 28.2261 35.4041C28.0719 35.0966 28.3125 35.0387 28.4926 34.9736C28.6797 34.9059 28.899 34.5859 29.0835 34.9513C29.6432 36.0592 30.1851 37.176 30.7332 38.2892C30.7529 38.3284 30.7671 38.3703 30.793 38.4336Z" fill="white"/>
<path d="M30.793 38.4336C30.6771 38.7009 30.3767 38.7134 30.1637 38.848C30.0086 38.9461 29.9231 38.8338 29.858 38.7018C29.3152 37.602 28.776 36.5013 28.2261 35.4041C28.0719 35.0966 28.3125 35.0387 28.4926 34.9736C28.6797 34.9059 28.899 34.5859 29.0835 34.9513C29.6432 36.0592 30.1851 37.176 30.7332 38.2892C30.7529 38.3284 30.7671 38.3703 30.793 38.4336Z" fill="white"/>
<path d="M29.7636 7.24026C29.2234 7.22244 28.9685 6.78303 29.1949 6.38374C29.7324 5.43184 30.2859 4.48797 30.8001 3.5236C30.9909 3.16531 31.1638 3.22146 31.4561 3.38011C31.769 3.54945 31.8465 3.69295 31.6504 4.02361C31.0773 4.98888 30.539 5.97464 29.9828 6.95149C29.9133 7.0727 29.8759 7.23581 29.7627 7.24205L29.7636 7.24026Z" fill="white"/>
<path d="M29.7636 7.24026C29.2234 7.22244 28.9685 6.78303 29.1949 6.38374C29.7324 5.43184 30.2859 4.48797 30.8001 3.5236C30.9909 3.16531 31.1638 3.22146 31.4561 3.38011C31.769 3.54945 31.8465 3.69295 31.6504 4.02361C31.0773 4.98888 30.539 5.97464 29.9828 6.95149C29.9133 7.0727 29.8759 7.23581 29.7627 7.24205L29.7636 7.24026Z" fill="white"/>
<path d="M22.8833 38.6876C22.91 39.2642 22.9225 39.8418 22.968 40.4176C23.0018 40.8516 22.6943 40.7456 22.4671 40.767C22.2264 40.7901 21.9991 40.8258 21.9875 40.447C21.9483 39.2634 21.8913 38.0806 21.8209 36.8988C21.795 36.462 22.0998 36.5761 22.3253 36.5521C22.5651 36.5262 22.7977 36.4861 22.8013 36.8703C22.8066 37.4763 22.8566 38.0824 22.8886 38.6885C22.8869 38.6885 22.886 38.6885 22.8842 38.6885L22.8833 38.6876Z" fill="white"/>
<path d="M22.8833 38.6876C22.91 39.2642 22.9225 39.8418 22.968 40.4176C23.0018 40.8516 22.6943 40.7456 22.4671 40.767C22.2264 40.7901 21.9991 40.8258 21.9875 40.447C21.9483 39.2634 21.8913 38.0806 21.8209 36.8988C21.795 36.462 22.0998 36.5761 22.3253 36.5521C22.5651 36.5262 22.7977 36.4861 22.8013 36.8703C22.8066 37.4763 22.8566 38.0824 22.8886 38.6885C22.8869 38.6885 22.886 38.6885 22.8842 38.6885L22.8833 38.6876Z" fill="white"/>
<path d="M43.5396 6.69921C44.0663 6.73218 44.4692 7.18763 44.4389 7.71705C44.4077 8.24737 43.9523 8.65558 43.4273 8.62171C42.8979 8.58695 42.4977 8.13507 42.528 7.60475C42.5574 7.078 43.0164 6.66712 43.5396 6.7001V6.69921ZM44.233 7.67962C44.2428 7.26161 43.9077 6.91133 43.4924 6.90777C43.0824 6.9042 42.7267 7.25537 42.7276 7.66358C42.7276 8.05753 43.0556 8.39354 43.4531 8.40958C43.8738 8.42652 44.2223 8.10031 44.233 7.67962Z" fill="white"/>
<path d="M43.5396 6.69921C44.0663 6.73218 44.4692 7.18763 44.4389 7.71705C44.4077 8.24737 43.9523 8.65558 43.4273 8.62171C42.8979 8.58695 42.4977 8.13507 42.528 7.60475C42.5574 7.078 43.0164 6.66712 43.5396 6.7001V6.69921ZM44.233 7.67962C44.2428 7.26161 43.9077 6.91133 43.4924 6.90777C43.0824 6.9042 42.7267 7.25537 42.7276 7.66358C42.7276 8.05753 43.0556 8.39354 43.4531 8.40958C43.8738 8.42652 44.2223 8.10031 44.233 7.67962Z" fill="white"/>
<path d="M43.0618 7.64757C43.0583 7.14132 43.1741 7.03347 43.593 7.14488C43.7784 7.1939 43.8916 7.30977 43.8185 7.49872C43.7659 7.63598 43.7561 7.73848 43.8319 7.8695C43.8693 7.93367 44.0101 8.04508 43.8372 8.11638C43.7142 8.16719 43.6563 8.06558 43.6002 7.97378C43.4923 7.79908 43.3756 7.6137 43.3239 8.0023C43.3114 8.0941 43.2543 8.12886 43.1723 8.11995C43.0788 8.11014 43.0645 8.03438 43.0627 7.95862C43.06 7.85524 43.0627 7.75185 43.0627 7.64846L43.0618 7.64757Z" fill="white"/>
<path d="M43.0618 7.64757C43.0583 7.14132 43.1741 7.03347 43.593 7.14488C43.7784 7.1939 43.8916 7.30977 43.8185 7.49872C43.7659 7.63598 43.7561 7.73848 43.8319 7.8695C43.8693 7.93367 44.0101 8.04508 43.8372 8.11638C43.7142 8.16719 43.6563 8.06558 43.6002 7.97378C43.4923 7.79908 43.3756 7.6137 43.3239 8.0023C43.3114 8.0941 43.2543 8.12886 43.1723 8.11995C43.0788 8.11014 43.0645 8.03438 43.0627 7.95862C43.06 7.85524 43.0627 7.75185 43.0627 7.64846L43.0618 7.64757Z" fill="white"/>
</g>
<defs>
<clipPath id="clip0_573_256">
<rect width="44.1668" height="40" fill="white" transform="translate(0.272461 0.780273)"/>
</clipPath>
</defs>
</svg>
