<svg width="555" height="116" viewBox="0 0 555 116" fill="none" xmlns="http://www.w3.org/2000/svg">
<g filter="url(#filter0_bd_2124_764)">
<rect x="12" y="12" width="531" height="92" rx="12.8482" fill="url(#paint0_linear_2124_764)" fill-opacity="0.03" shape-rendering="crispEdges"/>
<rect x="18" y="18" width="519" height="80" rx="10" fill="white" fill-opacity="0.85"/>
<path d="M41.92 38.2H38.416C37.864 39.904 36.64 40.624 34.768 40.84V43.72C36.088 43.72 37.48 43.456 38.416 42.472V55H41.92V38.2ZM50.4991 37.984C47.2351 37.984 43.7071 40.24 43.7071 46.6C43.7071 52.984 47.2351 55.216 50.4991 55.216C53.8111 55.216 57.2911 52.984 57.2911 46.6C57.2911 40.24 53.8111 37.984 50.4991 37.984ZM53.7871 46.6C53.7871 49.528 53.0671 52.216 50.4991 52.216C47.9311 52.216 47.2111 49.528 47.2111 46.6C47.2111 43.696 47.9311 40.984 50.4991 40.984C53.0671 40.984 53.7871 43.696 53.7871 46.6ZM65.1306 37.984C61.8666 37.984 58.3386 40.24 58.3386 46.6C58.3386 52.984 61.8666 55.216 65.1306 55.216C68.4426 55.216 71.9226 52.984 71.9226 46.6C71.9226 40.24 68.4426 37.984 65.1306 37.984ZM68.4186 46.6C68.4186 49.528 67.6986 52.216 65.1306 52.216C62.5626 52.216 61.8426 49.528 61.8426 46.6C61.8426 43.696 62.5626 40.984 65.1306 40.984C67.6986 40.984 68.4186 43.696 68.4186 46.6ZM82.0422 55H85.8582L80.0982 47.776L85.1622 42.52H81.2022L76.8342 47.128V38.056H73.3302V55H76.8342V51.136L77.9382 50.008L82.0422 55ZM98.4115 46.72H93.9955V42.352H90.7795V46.72H86.3875V49.744H90.7795V54.136H93.9955V49.744H98.4115V46.72Z" fill="#2B2758"/>
<path d="M36.944 80V68.64H35.488V80H36.944ZM40.5655 80V75.36C40.5655 73.744 41.4775 72.768 42.8375 72.768C44.1655 72.768 44.7255 73.552 44.7255 75.024V80H46.0695V74.688C46.0695 72.8 45.1895 71.584 43.2215 71.584C41.9095 71.584 41.0455 72.24 40.5655 73.12L40.5335 71.776H39.2055V80H40.5655ZM49.9755 80V72.864H52.3115V71.776H49.9755V70.24C49.9755 69.344 50.2635 68.912 51.3355 68.912C51.6555 68.912 52.0875 68.992 52.3595 69.072V67.936C52.0235 67.856 51.5115 67.776 51.1275 67.776C49.4795 67.776 48.6155 68.528 48.6155 70.048V71.776H46.9675V72.864H48.6155V80H49.9755ZM54.8086 80V67.968H53.4486V80H54.8086ZM59.5796 80.192C60.7956 80.192 61.6756 79.568 62.1716 78.704L62.1876 80H63.5156V71.776H62.1556V76.384C62.1556 77.952 61.3716 79.024 59.9956 79.024C58.6516 79.024 58.1396 78.192 58.1396 76.816V71.776H56.7636V77.072C56.7636 79.008 57.6916 80.192 59.5796 80.192ZM68.9915 80.192C70.9275 80.192 72.2395 79.184 72.6555 77.52H71.2955C71.0075 78.48 70.2395 79.056 68.9915 79.056C67.4075 79.056 66.4635 78.016 66.4155 76.16H72.7035C72.8155 73.392 71.5675 71.584 68.9755 71.584C66.5275 71.584 65.0715 73.28 65.0715 75.744V76.032C65.0715 78.48 66.5115 80.192 68.9915 80.192ZM66.4635 75.104C66.6395 73.552 67.5035 72.72 68.9755 72.72C70.3995 72.72 71.1835 73.616 71.2955 75.104H66.4635ZM75.5561 80V75.36C75.5561 73.744 76.4681 72.768 77.8281 72.768C79.1561 72.768 79.7161 73.552 79.7161 75.024V80H81.0601V74.688C81.0601 72.8 80.1801 71.584 78.2121 71.584C76.9001 71.584 76.0361 72.24 75.5561 73.12L75.5241 71.776H74.1961V80H75.5561ZM86.3734 80.192C88.3574 80.192 89.6214 79.088 89.9574 77.344H88.5974C88.3574 78.368 87.6374 79.04 86.3734 79.04C84.7894 79.04 83.9414 77.952 83.9414 76.032V75.744C83.9414 73.84 84.7894 72.736 86.3574 72.736C87.6374 72.736 88.3094 73.36 88.5494 74.4H89.9094C89.6534 72.704 88.3894 71.584 86.3894 71.584C83.9254 71.584 82.5334 73.28 82.5334 75.744V76.032C82.5334 78.48 83.9254 80.192 86.3734 80.192ZM94.8015 80.192C96.7375 80.192 98.0495 79.184 98.4655 77.52H97.1055C96.8175 78.48 96.0495 79.056 94.8015 79.056C93.2175 79.056 92.2735 78.016 92.2255 76.16H98.5135C98.6255 73.392 97.3775 71.584 94.7855 71.584C92.3375 71.584 90.8815 73.28 90.8815 75.744V76.032C90.8815 78.48 92.3215 80.192 94.8015 80.192ZM92.2735 75.104C92.4495 73.552 93.3135 72.72 94.7855 72.72C96.2095 72.72 96.9935 73.616 97.1055 75.104H92.2735ZM101.366 80V75.632C101.366 73.872 102.358 72.96 103.846 72.96C104.022 72.96 104.15 72.96 104.326 72.976V71.632C104.166 71.6 104.006 71.6 103.894 71.6C102.742 71.6 101.83 72.24 101.35 73.376L101.334 71.776H100.006V80H101.366ZM108.094 80.192C110.03 80.192 111.358 79.2 111.358 77.648C111.358 76.208 110.286 75.584 108.35 75.264C106.75 74.992 106.27 74.656 106.27 73.904C106.27 73.136 106.942 72.672 107.966 72.672C109.006 72.672 109.71 73.168 109.854 74.112H111.182C111.022 72.496 109.822 71.584 107.966 71.584C106.19 71.584 104.942 72.544 104.942 73.968C104.942 75.44 105.918 76.032 107.822 76.368C109.454 76.656 109.998 77.024 109.998 77.776C109.998 78.656 109.246 79.104 108.11 79.104C106.894 79.104 106.142 78.608 105.95 77.488H104.638C104.814 79.248 106.11 80.192 108.094 80.192Z" fill="black" fill-opacity="0.5"/>
<path d="M136 34V82H138V34H136Z" fill="black" fill-opacity="0.15" mask="url(#path-4-inside-1_2124_764)"/>
<path d="M177.064 43.384C174.736 43.384 173.656 44.608 173.56 44.728L174.088 40.984H181.12V38.2H171.736L170.44 47.512H173.608C174.184 46.648 175.048 46.096 176.32 46.096C177.136 46.096 179.224 46.624 179.224 49.216C179.224 51.928 177.376 52.432 176.2 52.432C174.904 52.432 173.32 51.712 173.248 49.624H170.08C170.032 52.912 172.336 55.24 176.2 55.24C180.136 55.24 182.704 53.08 182.704 49.216C182.704 45.568 180.208 43.384 177.064 43.384ZM190.421 37.984C187.157 37.984 183.629 40.24 183.629 46.6C183.629 52.984 187.157 55.216 190.421 55.216C193.733 55.216 197.213 52.984 197.213 46.6C197.213 40.24 193.733 37.984 190.421 37.984ZM193.709 46.6C193.709 49.528 192.989 52.216 190.421 52.216C187.853 52.216 187.133 49.528 187.133 46.6C187.133 43.696 187.853 40.984 190.421 40.984C192.989 40.984 193.709 43.696 193.709 46.6ZM205.053 37.984C201.788 37.984 198.26 40.24 198.26 46.6C198.26 52.984 201.788 55.216 205.053 55.216C208.365 55.216 211.845 52.984 211.845 46.6C211.845 40.24 208.365 37.984 205.053 37.984ZM208.34 46.6C208.34 49.528 207.62 52.216 205.053 52.216C202.484 52.216 201.764 49.528 201.764 46.6C201.764 43.696 202.484 40.984 205.053 40.984C207.62 40.984 208.34 43.696 208.34 46.6ZM225.108 46.72H220.692V42.352H217.476V46.72H213.084V49.744H217.476V54.136H220.692V49.744H225.108V46.72Z" fill="#2B2758"/>
<path d="M175.16 80C177.352 80 178.952 78.912 178.952 76.848V76.624C178.952 75.392 178.248 74.368 177.064 73.984C177.928 73.568 178.424 72.752 178.424 71.744V71.584C178.424 69.536 177 68.64 174.792 68.64H170.408V80H175.16ZM171.848 69.888H174.696C176.104 69.888 176.952 70.304 176.952 71.632V71.776C176.952 72.88 176.248 73.536 174.776 73.536H171.848V69.888ZM171.848 74.784H175.208C176.68 74.784 177.464 75.408 177.464 76.608V76.848C177.464 78.16 176.472 78.752 175.064 78.752H171.848V74.784ZM181.847 80V75.632C181.847 73.872 182.839 72.96 184.327 72.96C184.503 72.96 184.631 72.96 184.807 72.976V71.632C184.647 71.6 184.487 71.6 184.375 71.6C183.223 71.6 182.311 72.24 181.831 73.376L181.815 71.776H180.487V80H181.847ZM187.856 80.192C189.024 80.192 190.064 79.664 190.608 78.72L190.64 80H191.92V74.416C191.92 72.736 190.768 71.584 188.752 71.584C186.816 71.584 185.6 72.544 185.424 74.096H186.752C186.88 73.232 187.632 72.688 188.736 72.688C189.776 72.688 190.592 73.2 190.592 74.352V75.04L187.168 75.552C185.84 75.744 185.12 76.64 185.12 77.84C185.12 79.216 186.16 80.192 187.856 80.192ZM188.048 79.072C187.008 79.072 186.48 78.56 186.48 77.792C186.48 77.12 186.832 76.672 187.616 76.576L190.592 76.128V76.96C190.592 78.176 189.392 79.072 188.048 79.072ZM195.215 80V75.36C195.215 73.744 196.127 72.768 197.487 72.768C198.815 72.768 199.375 73.552 199.375 75.024V80H200.719V74.688C200.719 72.8 199.839 71.584 197.871 71.584C196.559 71.584 195.695 72.24 195.215 73.12L195.183 71.776H193.855V80H195.215ZM205.728 80.192C207.184 80.192 208.144 79.392 208.544 78.544L208.592 80H209.84V67.968H208.48V73.088C208.032 72.272 207.088 71.584 205.712 71.584C203.568 71.584 202.192 73.28 202.192 75.744V76.032C202.192 78.512 203.6 80.192 205.728 80.192ZM205.984 79.04C204.448 79.04 203.584 77.904 203.584 76.032V75.744C203.584 73.856 204.464 72.736 205.984 72.736C207.632 72.736 208.544 73.84 208.544 75.744V76.032C208.544 77.92 207.648 79.04 205.984 79.04ZM214.775 80.192C216.711 80.192 218.039 79.2 218.039 77.648C218.039 76.208 216.967 75.584 215.031 75.264C213.431 74.992 212.951 74.656 212.951 73.904C212.951 73.136 213.623 72.672 214.647 72.672C215.687 72.672 216.391 73.168 216.535 74.112H217.863C217.703 72.496 216.503 71.584 214.647 71.584C212.871 71.584 211.623 72.544 211.623 73.968C211.623 75.44 212.599 76.032 214.503 76.368C216.135 76.656 216.679 77.024 216.679 77.776C216.679 78.656 215.927 79.104 214.791 79.104C213.575 79.104 212.823 78.608 212.631 77.488H211.319C211.495 79.248 212.791 80.192 214.775 80.192Z" fill="black" fill-opacity="0.5"/>
<path d="M250 34V82H252V34H250Z" fill="black" fill-opacity="0.15" mask="url(#path-8-inside-2_2124_764)"/>
<path d="M283.96 55H295.696V52.168H287.776V52.072C287.776 50.92 288.76 50.008 290.392 49.096C293.176 47.488 295.696 46.576 295.72 43.144C295.72 40.36 293.848 38.032 289.864 38.032C285.856 38.032 284.08 40.36 284.08 43.6V43.912H287.416V43.6C287.416 41.464 288.808 40.936 289.864 40.936C290.944 40.936 292.216 41.44 292.216 43.144C292.192 45.184 290.512 45.808 288.712 46.864C284.8 49.144 283.96 51.16 283.96 54.592V55ZM303.741 37.984C300.477 37.984 296.949 40.24 296.949 46.6C296.949 52.984 300.477 55.216 303.741 55.216C307.053 55.216 310.533 52.984 310.533 46.6C310.533 40.24 307.053 37.984 303.741 37.984ZM307.029 46.6C307.029 49.528 306.309 52.216 303.741 52.216C301.173 52.216 300.453 49.528 300.453 46.6C300.453 43.696 301.173 40.984 303.741 40.984C306.309 40.984 307.029 43.696 307.029 46.6ZM318.373 37.984C315.109 37.984 311.581 40.24 311.581 46.6C311.581 52.984 315.109 55.216 318.373 55.216C321.685 55.216 325.165 52.984 325.165 46.6C325.165 40.24 321.685 37.984 318.373 37.984ZM321.661 46.6C321.661 49.528 320.941 52.216 318.373 52.216C315.805 52.216 315.085 49.528 315.085 46.6C315.085 43.696 315.805 40.984 318.373 40.984C320.941 40.984 321.661 43.696 321.661 46.6ZM333.004 37.984C329.74 37.984 326.212 40.24 326.212 46.6C326.212 52.984 329.74 55.216 333.004 55.216C336.316 55.216 339.796 52.984 339.796 46.6C339.796 40.24 336.316 37.984 333.004 37.984ZM336.292 46.6C336.292 49.528 335.572 52.216 333.004 52.216C330.436 52.216 329.716 49.528 329.716 46.6C329.716 43.696 330.436 40.984 333.004 40.984C335.572 40.984 336.292 43.696 336.292 46.6ZM353.06 46.72H348.644V42.352H345.428V46.72H341.036V49.744H345.428V54.136H348.644V49.744H353.06V46.72Z" fill="#2B2758"/>
<path d="M289.032 80.192C291.704 80.192 293.32 78.48 293.72 76.4H292.232C291.928 77.76 290.872 78.912 289.032 78.912C286.744 78.912 285.336 77.104 285.336 74.528V74.096C285.336 71.52 286.712 69.728 289 69.728C290.632 69.728 291.736 70.624 292.168 72.064H293.64C293.256 69.936 291.544 68.448 289.016 68.448C285.912 68.448 283.848 70.752 283.848 74.096V74.528C283.848 77.92 285.928 80.192 289.032 80.192ZM297.086 80.192C298.254 80.192 299.294 79.664 299.838 78.72L299.87 80H301.15V74.416C301.15 72.736 299.998 71.584 297.982 71.584C296.046 71.584 294.83 72.544 294.654 74.096H295.982C296.11 73.232 296.862 72.688 297.966 72.688C299.006 72.688 299.822 73.2 299.822 74.352V75.04L296.398 75.552C295.07 75.744 294.35 76.64 294.35 77.84C294.35 79.216 295.39 80.192 297.086 80.192ZM297.278 79.072C296.238 79.072 295.71 78.56 295.71 77.792C295.71 77.12 296.062 76.672 296.846 76.576L299.822 76.128V76.96C299.822 78.176 298.622 79.072 297.278 79.072ZM304.445 80V75.408C304.445 73.744 305.261 72.752 306.605 72.752C307.805 72.752 308.333 73.52 308.333 74.944V80H309.693V75.36C309.693 73.76 310.477 72.752 311.805 72.752C313.021 72.752 313.581 73.488 313.581 74.944V80H314.941V74.672C314.941 72.752 314.045 71.584 312.205 71.584C310.973 71.584 310.061 72.176 309.485 73.216C309.085 72.176 308.253 71.584 307.005 71.584C305.725 71.584 304.877 72.272 304.429 73.088L304.413 71.776H303.085V80H304.445ZM318.247 82.72V78.672C318.695 79.472 319.623 80.192 320.999 80.192C323.143 80.192 324.535 78.512 324.535 76.032V75.744C324.535 73.28 323.143 71.584 321.015 71.584C319.559 71.584 318.599 72.384 318.183 73.232L318.151 71.776H316.871V82.72H318.247ZM320.727 79.04C319.111 79.04 318.183 77.936 318.183 76.032V75.744C318.183 73.856 319.095 72.736 320.743 72.736C322.263 72.736 323.143 73.856 323.143 75.744V76.032C323.143 77.92 322.263 79.04 320.727 79.04ZM328.318 80.192C329.486 80.192 330.526 79.664 331.07 78.72L331.102 80H332.382V74.416C332.382 72.736 331.23 71.584 329.214 71.584C327.278 71.584 326.062 72.544 325.886 74.096H327.214C327.342 73.232 328.094 72.688 329.198 72.688C330.238 72.688 331.054 73.2 331.054 74.352V75.04L327.63 75.552C326.302 75.744 325.582 76.64 325.582 77.84C325.582 79.216 326.622 80.192 328.318 80.192ZM328.51 79.072C327.47 79.072 326.942 78.56 326.942 77.792C326.942 77.12 327.294 76.672 328.078 76.576L331.054 76.128V76.96C331.054 78.176 329.854 79.072 328.51 79.072ZM335.725 70.128V67.968H334.285V70.128H335.725ZM335.677 80V71.776H334.317V80H335.677ZM341.072 82.912C343.536 82.912 344.896 81.568 344.896 79.568V71.776H343.648L343.6 73.232C343.2 72.384 342.208 71.584 340.768 71.584C338.64 71.584 337.248 73.184 337.248 75.52V75.936C337.248 78.176 338.624 79.856 340.784 79.856C342.16 79.856 343.104 79.168 343.536 78.352V79.68C343.536 81.168 342.528 81.84 341.12 81.84C339.808 81.84 339.104 81.392 338.976 80.56H337.52C337.68 81.952 338.96 82.912 341.072 82.912ZM341.04 78.72C339.52 78.72 338.64 77.6 338.64 75.936V75.52C338.64 73.792 339.504 72.736 341.04 72.736C342.704 72.736 343.6 73.776 343.6 75.52V75.936C343.6 77.6 342.688 78.72 341.04 78.72ZM348.295 80V75.36C348.295 73.744 349.207 72.768 350.567 72.768C351.895 72.768 352.455 73.552 352.455 75.024V80H353.799V74.688C353.799 72.8 352.919 71.584 350.951 71.584C349.639 71.584 348.775 72.24 348.295 73.12L348.263 71.776H346.935V80H348.295ZM358.632 80.192C360.568 80.192 361.896 79.2 361.896 77.648C361.896 76.208 360.824 75.584 358.888 75.264C357.288 74.992 356.808 74.656 356.808 73.904C356.808 73.136 357.48 72.672 358.504 72.672C359.544 72.672 360.248 73.168 360.392 74.112H361.72C361.56 72.496 360.36 71.584 358.504 71.584C356.728 71.584 355.48 72.544 355.48 73.968C355.48 75.44 356.456 76.032 358.36 76.368C359.992 76.656 360.536 77.024 360.536 77.776C360.536 78.656 359.784 79.104 358.648 79.104C357.432 79.104 356.68 78.608 356.488 77.488H355.176C355.352 79.248 356.648 80.192 358.632 80.192Z" fill="black" fill-opacity="0.5"/>
<path d="M386 34V82H388V34H386Z" fill="black" fill-opacity="0.15" mask="url(#path-12-inside-3_2124_764)"/>
<path d="M427.064 43.384C424.736 43.384 423.656 44.608 423.56 44.728L424.088 40.984H431.12V38.2H421.736L420.44 47.512H423.608C424.184 46.648 425.048 46.096 426.32 46.096C427.136 46.096 429.224 46.624 429.224 49.216C429.224 51.928 427.376 52.432 426.2 52.432C424.904 52.432 423.32 51.712 423.248 49.624H420.08C420.032 52.912 422.336 55.24 426.2 55.24C430.136 55.24 432.704 53.08 432.704 49.216C432.704 45.568 430.208 43.384 427.064 43.384ZM440.421 37.984C437.157 37.984 433.629 40.24 433.629 46.6C433.629 52.984 437.157 55.216 440.421 55.216C443.733 55.216 447.213 52.984 447.213 46.6C447.213 40.24 443.733 37.984 440.421 37.984ZM443.709 46.6C443.709 49.528 442.989 52.216 440.421 52.216C437.853 52.216 437.133 49.528 437.133 46.6C437.133 43.696 437.853 40.984 440.421 40.984C442.989 40.984 443.709 43.696 443.709 46.6ZM455.053 37.984C451.788 37.984 448.26 40.24 448.26 46.6C448.26 52.984 451.788 55.216 455.053 55.216C458.365 55.216 461.845 52.984 461.845 46.6C461.845 40.24 458.365 37.984 455.053 37.984ZM458.34 46.6C458.34 49.528 457.62 52.216 455.053 52.216C452.484 52.216 451.764 49.528 451.764 46.6C451.764 43.696 452.484 40.984 455.053 40.984C457.62 40.984 458.34 43.696 458.34 46.6ZM471.964 55H475.78L470.02 47.776L475.084 42.52H471.124L466.756 47.128V38.056H463.252V55H466.756V51.136L467.86 50.008L471.964 55ZM488.333 46.72H483.917V42.352H480.701V46.72H476.309V49.744H480.701V54.136H483.917V49.744H488.333V46.72Z" fill="#2B2758"/>
<path d="M425.032 80.192C427.704 80.192 429.32 78.48 429.72 76.4H428.232C427.928 77.76 426.872 78.912 425.032 78.912C422.744 78.912 421.336 77.104 421.336 74.528V74.096C421.336 71.52 422.712 69.728 425 69.728C426.632 69.728 427.736 70.624 428.168 72.064H429.64C429.256 69.936 427.544 68.448 425.016 68.448C421.912 68.448 419.848 70.752 419.848 74.096V74.528C419.848 77.92 421.928 80.192 425.032 80.192ZM434.49 80.192C436.89 80.192 438.41 78.544 438.41 76.032V75.744C438.41 73.232 436.89 71.584 434.49 71.584C432.09 71.584 430.554 73.232 430.554 75.744V76.032C430.554 78.544 432.09 80.192 434.49 80.192ZM434.49 79.04C432.842 79.04 431.946 77.936 431.946 76.032V75.744C431.946 73.84 432.842 72.736 434.49 72.736C436.122 72.736 437.018 73.84 437.018 75.744V76.032C437.018 77.936 436.122 79.04 434.49 79.04ZM441.32 80V67.968H439.96V80H441.32ZM444.715 80V67.968H443.355V80H444.715ZM448.974 80.192C450.142 80.192 451.182 79.664 451.726 78.72L451.758 80H453.038V74.416C453.038 72.736 451.886 71.584 449.87 71.584C447.934 71.584 446.718 72.544 446.542 74.096H447.87C447.998 73.232 448.75 72.688 449.854 72.688C450.894 72.688 451.71 73.2 451.71 74.352V75.04L448.286 75.552C446.958 75.744 446.238 76.64 446.238 77.84C446.238 79.216 447.278 80.192 448.974 80.192ZM449.166 79.072C448.126 79.072 447.598 78.56 447.598 77.792C447.598 77.12 447.95 76.672 448.734 76.576L451.71 76.128V76.96C451.71 78.176 450.51 79.072 449.166 79.072ZM459.101 80.192C461.229 80.192 462.637 78.512 462.637 76.032V75.744C462.637 73.28 461.277 71.584 459.117 71.584C457.725 71.584 456.797 72.288 456.349 73.104V67.968H454.973V80H456.253L456.285 78.576C456.701 79.408 457.677 80.192 459.101 80.192ZM458.845 79.04C457.197 79.04 456.285 77.92 456.285 76.032V75.744C456.285 73.84 457.213 72.736 458.829 72.736C460.365 72.736 461.245 73.856 461.245 75.744V76.032C461.245 77.904 460.365 79.04 458.845 79.04ZM467.668 80.192C470.068 80.192 471.588 78.544 471.588 76.032V75.744C471.588 73.232 470.068 71.584 467.668 71.584C465.268 71.584 463.732 73.232 463.732 75.744V76.032C463.732 78.544 465.268 80.192 467.668 80.192ZM467.668 79.04C466.02 79.04 465.124 77.936 465.124 76.032V75.744C465.124 73.84 466.02 72.736 467.668 72.736C469.3 72.736 470.196 73.84 470.196 75.744V76.032C470.196 77.936 469.3 79.04 467.668 79.04ZM474.498 80V75.632C474.498 73.872 475.49 72.96 476.978 72.96C477.154 72.96 477.282 72.96 477.458 72.976V71.632C477.298 71.6 477.138 71.6 477.026 71.6C475.874 71.6 474.962 72.24 474.482 73.376L474.466 71.776H473.138V80H474.498ZM480.507 80.192C481.675 80.192 482.715 79.664 483.259 78.72L483.291 80H484.571V74.416C484.571 72.736 483.419 71.584 481.403 71.584C479.467 71.584 478.251 72.544 478.075 74.096H479.403C479.531 73.232 480.283 72.688 481.387 72.688C482.427 72.688 483.243 73.2 483.243 74.352V75.04L479.819 75.552C478.491 75.744 477.771 76.64 477.771 77.84C477.771 79.216 478.811 80.192 480.507 80.192ZM480.699 79.072C479.659 79.072 479.131 78.56 479.131 77.792C479.131 77.12 479.483 76.672 480.267 76.576L483.243 76.128V76.96C483.243 78.176 482.043 79.072 480.699 79.072ZM489.502 80.192C489.886 80.192 490.398 80.112 490.734 80.032V78.896C490.462 78.976 490.03 79.056 489.71 79.056C488.638 79.056 488.35 78.624 488.35 77.728V72.864H490.686V71.776H488.35V69.248H486.99V71.776H485.342V72.864H486.99V77.92C486.99 79.44 487.854 80.192 489.502 80.192ZM493.543 70.128V67.968H492.103V70.128H493.543ZM493.495 80V71.776H492.135V80H493.495ZM499.003 80.192C501.403 80.192 502.923 78.544 502.923 76.032V75.744C502.923 73.232 501.403 71.584 499.003 71.584C496.603 71.584 495.067 73.232 495.067 75.744V76.032C495.067 78.544 496.603 80.192 499.003 80.192ZM499.003 79.04C497.355 79.04 496.459 77.936 496.459 76.032V75.744C496.459 73.84 497.355 72.736 499.003 72.736C500.635 72.736 501.531 73.84 501.531 75.744V76.032C501.531 77.936 500.635 79.04 499.003 79.04ZM505.832 80V75.36C505.832 73.744 506.744 72.768 508.104 72.768C509.432 72.768 509.992 73.552 509.992 75.024V80H511.336V74.688C511.336 72.8 510.456 71.584 508.488 71.584C507.176 71.584 506.312 72.24 505.832 73.12L505.8 71.776H504.472V80H505.832ZM516.17 80.192C518.106 80.192 519.434 79.2 519.434 77.648C519.434 76.208 518.362 75.584 516.426 75.264C514.826 74.992 514.346 74.656 514.346 73.904C514.346 73.136 515.018 72.672 516.042 72.672C517.082 72.672 517.786 73.168 517.93 74.112H519.258C519.098 72.496 517.898 71.584 516.042 71.584C514.266 71.584 513.018 72.544 513.018 73.968C513.018 75.44 513.994 76.032 515.898 76.368C517.53 76.656 518.074 77.024 518.074 77.776C518.074 78.656 517.322 79.104 516.186 79.104C514.97 79.104 514.218 78.608 514.026 77.488H512.714C512.89 79.248 514.186 80.192 516.17 80.192Z" fill="black" fill-opacity="0.5"/>
<rect x="11" y="11" width="533" height="94" rx="13.8482" stroke="url(#paint1_radial_2124_764)" stroke-width="2" shape-rendering="crispEdges"/>
<rect x="11" y="11" width="533" height="94" rx="13.8482" stroke="url(#paint2_radial_2124_764)" stroke-width="2" shape-rendering="crispEdges"/>
<rect x="11" y="11" width="533" height="94" rx="13.8482" stroke="url(#paint3_radial_2124_764)" stroke-width="2" shape-rendering="crispEdges"/>
<rect x="11" y="11" width="533" height="94" rx="13.8482" stroke="url(#paint4_radial_2124_764)" stroke-width="2" style="mix-blend-mode:overlay" shape-rendering="crispEdges"/>
</g>
<defs>
<filter id="filter0_bd_2124_764" x="-5" y="-5" width="565" height="126" filterUnits="userSpaceOnUse" color-interpolation-filters="sRGB">
<feFlood flood-opacity="0" result="BackgroundImageFix"/>
<feGaussianBlur in="BackgroundImageFix" stdDeviation="7.5"/>
<feComposite in2="SourceAlpha" operator="in" result="effect1_backgroundBlur_2124_764"/>
<feColorMatrix in="SourceAlpha" type="matrix" values="0 0 0 0 0 0 0 0 0 0 0 0 0 0 0 0 0 0 127 0" result="hardAlpha"/>
<feOffset/>
<feGaussianBlur stdDeviation="5"/>
<feComposite in2="hardAlpha" operator="out"/>
<feColorMatrix type="matrix" values="0 0 0 0 0.92 0 0 0 0 0.214059 0 0 0 0 0 0 0 0 0.56 0"/>
<feBlend mode="normal" in2="effect1_backgroundBlur_2124_764" result="effect2_dropShadow_2124_764"/>
<feBlend mode="normal" in="SourceGraphic" in2="effect2_dropShadow_2124_764" result="shape"/>
</filter>
<linearGradient id="paint0_linear_2124_764" x1="277.5" y1="13.5178" x2="277.5" y2="104" gradientUnits="userSpaceOnUse">
<stop stop-color="#FF6435"/>
<stop offset="1" stop-color="#FF6435" stop-opacity="0"/>
</linearGradient>
<radialGradient id="paint1_radial_2124_764" cx="0" cy="0" r="1" gradientUnits="userSpaceOnUse" gradientTransform="translate(277.5 12) rotate(90) scale(6.18782 35.7145)">
<stop stop-color="white"/>
<stop offset="1" stop-color="white" stop-opacity="0"/>
</radialGradient>
<radialGradient id="paint2_radial_2124_764" cx="0" cy="0" r="1" gradientUnits="userSpaceOnUse" gradientTransform="translate(47.7145 81) rotate(-4.78686) scale(40.573 8.6114)">
<stop stop-color="white"/>
<stop offset="1" stop-color="white" stop-opacity="0"/>
</radialGradient>
<radialGradient id="paint3_radial_2124_764" cx="0" cy="0" r="1" gradientUnits="userSpaceOnUse" gradientTransform="translate(461.126 73.9949) rotate(-171.953) scale(42.5349 12.036)">
<stop stop-color="white"/>
<stop offset="1" stop-color="white" stop-opacity="0"/>
</radialGradient>
<radialGradient id="paint4_radial_2124_764" cx="0" cy="0" r="1" gradientUnits="userSpaceOnUse" gradientTransform="translate(509.307 56.0152) rotate(-179.491) scale(26.2815 4.56509)">
<stop stop-color="white"/>
<stop offset="1" stop-color="white" stop-opacity="0"/>
</radialGradient>
</defs>
</svg>
