<svg width="158" height="11" viewBox="0 0 158 11" fill="none" xmlns="http://www.w3.org/2000/svg">
<path d="M17.8027 3.81102C15.0634 3.88544 12.3241 3.87177 9.57558 3.85659C7.97382 3.85659 6.6179 3.55891 5.08257 3.041C3.80299 2.61119 2.30583 4.38967 1.13925 5.02604C0.248276 5.4999 0.305542 8.69995 1.20567 9.11458C2.18214 9.55958 3.74649 11.0844 4.76039 10.9963C5.20625 10.9508 5.55669 10.4784 5.95445 10.2552C6.64691 9.87092 7.3287 9.93016 8.03033 9.85574C10.7605 9.55958 13.509 9.44111 16.2483 9.30746C21.1773 9.08572 26.1154 8.95207 31.0443 8.77437C41.1763 8.41898 51.3183 8.0484 61.451 7.693L122.274 5.51508C133.752 5.10046 145.335 5.23411 156.785 3.73812C157.77 3.60447 157.724 0.314807 156.728 0.255575C146.615 -0.395979 136.425 0.374039 126.312 0.626155C116.17 0.878272 106.038 1.21848 95.895 1.51464C75.621 2.10696 55.3471 2.71447 35.0724 3.30679L17.8119 3.81102H17.8027Z" fill="#FF6435"/>
</svg>
