<svg width="443" height="240" viewBox="0 0 443 240" fill="none" xmlns="http://www.w3.org/2000/svg">
<rect opacity="0.5" x="23" y="238" width="360" height="2" fill="#EFE9E6"/>
<rect opacity="0.5" x="23" y="204" width="360" height="2" fill="#EFE9E6"/>
<rect opacity="0.5" x="23" y="170" width="360" height="2" fill="#EFE9E6"/>
<rect opacity="0.5" x="23" y="136" width="360" height="2" fill="#EFE9E6"/>
<rect opacity="0.5" x="23" y="102" width="360" height="2" fill="#EFE9E6"/>
<rect opacity="0.5" x="23" y="68" width="360" height="2" fill="#EFE9E6"/>
<rect opacity="0.5" x="23" y="34" width="360" height="2" fill="#EFE9E6"/>
<path opacity="0.6" d="M6 232C7.90258 220.275 19.5029 208.497 35.9211 204C53.5768 199.164 79.1277 204.383 98.2566 201.61C110.737 199.8 123.925 200.411 136.766 198.537C151.69 196.358 164.293 196.851 178.046 192.39C192.194 187.801 207.676 185.902 224.036 185.902C240.324 185.902 255.541 188.976 271.549 188.976C283.518 188.976 302.768 194.315 312.691 186.671C320.703 180.499 337.419 180.299 345.105 174.378C350.516 170.21 356.814 169.652 363.944 170.451C368.745 170.989 382.865 171.631 385 169" stroke="#8B8B8B" stroke-opacity="0.4" stroke-width="8" stroke-linecap="round"/>
<path d="M6 232C7.90258 220.275 19.5029 208.497 35.9211 204C53.5768 199.164 79.1277 204.383 98.2566 201.61C110.737 199.8 123.925 200.411 136.766 198.537C151.69 196.358 164.293 196.851 178.046 192.39C192.194 187.801 207.676 185.902 224.036 185.902C240.324 185.902 255.541 188.976 271.549 188.976C283.518 188.976 302.768 194.315 312.691 186.671C320.703 180.499 337.419 180.299 345.105 174.378C350.516 170.21 356.814 169.652 363.944 170.451C368.745 170.989 382.865 171.631 385 169" stroke="#8B8B8B" stroke-width="2" stroke-linecap="round"/>
<g opacity="0.8" filter="url(#filter0_ddd_77_5353)">
<rect x="373" y="155" width="32" height="32" rx="16" fill="white"/>
</g>
<path d="M383.298 176.182C385.874 176.182 386.994 174.152 386.994 171.17V170.89C386.994 167.922 385.874 165.878 383.298 165.878C380.806 165.878 379.616 167.922 379.616 170.89V171.17C379.616 174.152 380.806 176.182 383.298 176.182ZM383.298 174.516C382.094 174.516 381.744 173.466 381.744 171.212V170.876C381.744 168.608 382.094 167.544 383.298 167.544C384.586 167.544 384.866 168.608 384.866 170.876V171.212C384.866 173.466 384.586 174.516 383.298 174.516ZM389.752 176V173.872H387.526V176H389.752ZM394.22 176.182C396.6 176.182 398.07 174.404 398.07 171.226V170.722C398.07 167.656 396.628 165.878 394.22 165.878C392.064 165.878 390.608 167.278 390.608 169.252V169.392C390.608 171.282 391.994 172.486 393.772 172.486C395.004 172.486 395.816 171.982 396.208 171.24V171.548C396.208 173.676 395.452 174.53 394.22 174.53C393.338 174.53 392.736 174.11 392.582 173.312H390.678C390.916 175.09 392.232 176.182 394.22 176.182ZM394.248 170.904C393.296 170.904 392.666 170.246 392.666 169.336V169.182C392.666 168.174 393.268 167.502 394.234 167.502C395.228 167.502 395.858 168.202 395.858 169.182V169.322C395.858 170.246 395.214 170.904 394.248 170.904Z" fill="#666666"/>
<path opacity="0.7" d="M7 223C9.79355 213.133 21.7578 213.312 27.5068 207.897C28.5581 206.907 31.6168 206.716 33.0174 205.983C34.4956 205.209 37.2401 203.091 38.7087 202.898C43.1493 202.317 46.6897 200.027 51.5367 200.027C55.3743 200.027 58.7126 199.07 62.287 199.07C66.761 199.07 71.0291 197.434 75.2957 197.155C77.2259 197.029 80.0287 195.955 81.8 195.028C83.6914 194.038 85.7612 194.019 87.4913 193.113C91.5132 191.009 96.3693 190.489 100.5 188.327C104.144 186.421 107.188 184.008 111.07 183.754C115.208 183.483 119.743 183.065 124.078 182.797C129.674 182.45 138.409 183.381 143.591 180.67C146.183 179.314 149.055 174.551 151.722 174.182C153.805 173.893 156.135 172.617 158.226 172.055C161.495 171.175 164.732 171.466 167.983 170.566C170.218 169.947 172.334 170.309 174.487 169.183C176.291 168.239 177.588 166.4 179.365 165.354C183.009 163.209 188.324 161.892 191.38 158.654C194.03 155.846 196.419 154.123 198.246 150.251C200.414 145.656 204.729 142.965 206.828 138.765C210.477 131.461 224.859 138.99 229.955 134.191C232.782 131.529 239.344 131.855 242.783 129.937C247.155 127.499 250.157 126.164 253.533 121.747C258.218 115.619 267.987 113.611 267.987 103.348C267.987 102.382 266.358 98.0868 266.542 97.817C267.636 96.206 270.568 96.2537 272.052 95.4771C274.373 94.2627 274.937 95.6898 277.111 95.6898C279.386 95.6898 281.351 94.8689 283.435 94.7326C287.729 94.4517 288.988 90.4886 291.927 87.8194C298.586 81.7708 305.092 80.6403 312.253 76.5455C317.012 73.8241 320.496 71.6261 324.268 67.186C327.785 63.0444 332.091 63.6361 336.283 61.4427C339.971 59.5125 344.595 60.4314 348.478 58.1456C351.773 56.2061 356.252 55.4866 360.042 55.4866C366.312 55.4866 369.272 56.1949 373.863 51.8705C376.353 49.5251 377.752 45.2747 381 44" stroke="#FFE9E2" stroke-width="12" stroke-linecap="round"/>
<path opacity="0.7" d="M7 223C9.79355 213.133 21.7578 213.312 27.5068 207.897C28.5581 206.907 31.6168 206.716 33.0174 205.983C34.4956 205.209 37.2401 203.091 38.7087 202.898C43.1493 202.317 46.6897 200.027 51.5367 200.027C55.3743 200.027 58.7126 199.07 62.287 199.07C66.761 199.07 71.0291 197.434 75.2957 197.155C77.2259 197.029 80.0287 195.955 81.8 195.028C83.6914 194.038 85.7612 194.019 87.4913 193.113C91.5132 191.009 96.3693 190.489 100.5 188.327C104.144 186.421 107.188 184.008 111.07 183.754C115.208 183.483 119.743 183.065 124.078 182.797C129.674 182.45 138.409 183.381 143.591 180.67C146.183 179.314 149.055 174.551 151.722 174.182C153.805 173.893 156.135 172.617 158.226 172.055C161.495 171.175 164.732 171.466 167.983 170.566C170.218 169.947 172.334 170.309 174.487 169.183C176.291 168.239 177.588 166.4 179.365 165.354C183.009 163.209 188.324 161.892 191.38 158.654C194.03 155.846 196.419 154.123 198.246 150.251C200.414 145.656 204.729 142.965 206.828 138.765C210.477 131.461 224.859 138.99 229.955 134.191C232.782 131.529 239.344 131.855 242.783 129.937C247.155 127.499 250.157 126.164 253.533 121.747C258.218 115.619 267.987 113.611 267.987 103.348C267.987 102.382 266.358 98.0868 266.542 97.817C267.636 96.206 270.568 96.2537 272.052 95.4771C274.373 94.2627 274.937 95.6898 277.111 95.6898C279.386 95.6898 281.351 94.8689 283.435 94.7326C287.729 94.4517 288.988 90.4886 291.927 87.8194C298.586 81.7708 305.092 80.6403 312.253 76.5455C317.012 73.8241 320.496 71.6261 324.268 67.186C327.785 63.0444 332.091 63.6361 336.283 61.4427C339.971 59.5125 344.595 60.4314 348.478 58.1456C351.773 56.2061 356.252 55.4866 360.042 55.4866C366.312 55.4866 369.272 56.1949 373.863 51.8705C376.353 49.5251 377.752 45.2747 381 44" stroke="#FF784F" stroke-width="4" stroke-linecap="round"/>
<g opacity="0.8" filter="url(#filter1_ddd_77_5353)">
<rect x="364" y="4" width="48" height="48" rx="24" fill="white"/>
</g>
<path d="M382.192 36.312C385.984 36.312 388.624 34.344 388.624 31.344V31.08C388.624 28.992 387.208 27.552 385.384 27.072C386.944 26.52 388.024 25.152 388.024 23.472V23.256C388.024 20.472 385.504 18.648 382.192 18.648C378.76 18.648 376.168 20.784 376.024 24.096H379.408C379.48 22.44 380.488 21.456 382.216 21.456C383.752 21.456 384.688 22.32 384.688 23.52V23.76C384.688 25.08 383.656 25.824 382.168 25.824H380.44V28.488H382.192C383.896 28.488 385 29.352 385 30.84V31.08C385 32.496 383.92 33.432 382.168 33.432C380.32 33.432 379.288 32.448 379.168 30.744H375.64C375.736 34.176 378.256 36.312 382.192 36.312ZM392.974 36L395.638 31.92L398.326 36H402.166L397.702 29.592L401.902 23.616H398.302L395.83 27.312L393.406 23.616H389.566L393.79 29.64L389.35 36H392.974Z" fill="#FF784F"/>
<defs>
<filter id="filter0_ddd_77_5353" x="347.518" y="152" width="82.963" height="83.0015" filterUnits="userSpaceOnUse" color-interpolation-filters="sRGB">
<feFlood flood-opacity="0" result="BackgroundImageFix"/>
<feColorMatrix in="SourceAlpha" type="matrix" values="0 0 0 0 0 0 0 0 0 0 0 0 0 0 0 0 0 0 127 0" result="hardAlpha"/>
<feOffset dy="1"/>
<feGaussianBlur stdDeviation="1.5"/>
<feComposite in2="hardAlpha" operator="out"/>
<feColorMatrix type="matrix" values="0 0 0 0 0 0 0 0 0 0 0 0 0 0 0 0 0 0 0.15 0"/>
<feBlend mode="normal" in2="BackgroundImageFix" result="effect1_dropShadow_77_5353"/>
<feColorMatrix in="SourceAlpha" type="matrix" values="0 0 0 0 0 0 0 0 0 0 0 0 0 0 0 0 0 0 127 0" result="hardAlpha"/>
<feMorphology radius="7" operator="erode" in="SourceAlpha" result="effect2_dropShadow_77_5353"/>
<feOffset dy="14"/>
<feGaussianBlur stdDeviation="12"/>
<feComposite in2="hardAlpha" operator="out"/>
<feColorMatrix type="matrix" values="0 0 0 0 0 0 0 0 0 0 0 0 0 0 0 0 0 0 0.1 0"/>
<feBlend mode="normal" in2="effect1_dropShadow_77_5353" result="effect2_dropShadow_77_5353"/>
<feColorMatrix in="SourceAlpha" type="matrix" values="0 0 0 0 0 0 0 0 0 0 0 0 0 0 0 0 0 0 127 0" result="hardAlpha"/>
<feOffset dy="22.52"/>
<feGaussianBlur stdDeviation="12.7408"/>
<feComposite in2="hardAlpha" operator="out"/>
<feColorMatrix type="matrix" values="0 0 0 0 0.32549 0 0 0 0 0.117647 0 0 0 0 0 0 0 0 0.12 0"/>
<feBlend mode="normal" in2="effect2_dropShadow_77_5353" result="effect3_dropShadow_77_5353"/>
<feBlend mode="normal" in="SourceGraphic" in2="effect3_dropShadow_77_5353" result="shape"/>
</filter>
<filter id="filter1_ddd_77_5353" x="333.422" y="0.400001" width="109.156" height="109.202" filterUnits="userSpaceOnUse" color-interpolation-filters="sRGB">
<feFlood flood-opacity="0" result="BackgroundImageFix"/>
<feColorMatrix in="SourceAlpha" type="matrix" values="0 0 0 0 0 0 0 0 0 0 0 0 0 0 0 0 0 0 127 0" result="hardAlpha"/>
<feOffset dy="1.2"/>
<feGaussianBlur stdDeviation="1.8"/>
<feComposite in2="hardAlpha" operator="out"/>
<feColorMatrix type="matrix" values="0 0 0 0 0 0 0 0 0 0 0 0 0 0 0 0 0 0 0.15 0"/>
<feBlend mode="normal" in2="BackgroundImageFix" result="effect1_dropShadow_77_5353"/>
<feColorMatrix in="SourceAlpha" type="matrix" values="0 0 0 0 0 0 0 0 0 0 0 0 0 0 0 0 0 0 127 0" result="hardAlpha"/>
<feMorphology radius="8.4" operator="erode" in="SourceAlpha" result="effect2_dropShadow_77_5353"/>
<feOffset dy="16.8"/>
<feGaussianBlur stdDeviation="14.4"/>
<feComposite in2="hardAlpha" operator="out"/>
<feColorMatrix type="matrix" values="0 0 0 0 0 0 0 0 0 0 0 0 0 0 0 0 0 0 0.1 0"/>
<feBlend mode="normal" in2="effect1_dropShadow_77_5353" result="effect2_dropShadow_77_5353"/>
<feColorMatrix in="SourceAlpha" type="matrix" values="0 0 0 0 0 0 0 0 0 0 0 0 0 0 0 0 0 0 127 0" result="hardAlpha"/>
<feOffset dy="27.024"/>
<feGaussianBlur stdDeviation="15.2889"/>
<feComposite in2="hardAlpha" operator="out"/>
<feColorMatrix type="matrix" values="0 0 0 0 0.32549 0 0 0 0 0.117647 0 0 0 0 0 0 0 0 0.12 0"/>
<feBlend mode="normal" in2="effect2_dropShadow_77_5353" result="effect3_dropShadow_77_5353"/>
<feBlend mode="normal" in="SourceGraphic" in2="effect3_dropShadow_77_5353" result="shape"/>
</filter>
</defs>
</svg>
