<svg width="176" height="43" viewBox="0 0 176 43" fill="none" xmlns="http://www.w3.org/2000/svg">
<path fill-rule="evenodd" clip-rule="evenodd" d="M0 17.3638V25.3624C0 29.9817 2.45163 34.2482 6.42971 36.5588L13.3191 40.5581C17.2972 42.8668 22.2005 42.8668 26.1785 40.5581L33.0679 36.5588C37.046 34.2501 39.4977 29.9817 39.4977 25.3624V17.3638C39.4977 12.7444 37.046 8.478 33.0679 6.16735L26.1785 2.16805C22.2005 -0.140654 17.2972 -0.140654 13.3191 2.16805L6.42971 6.16735C2.45163 8.47605 0 12.7444 0 17.3638Z" fill="#E2614B"/>
<g filter="url(#filter0_d_573_160)">
<path d="M6.04688 21.5464C6.05463 21.9812 6.09342 22.42 6.15937 22.8607C6.64039 26.0137 8.54894 28.5915 11.1247 30.0266C12.9654 31.0542 15.1455 31.4969 17.3876 31.1537C17.5311 31.1322 17.6747 31.1069 17.8163 31.0776C18.4912 30.9431 19.1371 30.7422 19.75 30.4809C20.1806 30.2977 20.5918 30.0851 20.9855 29.8472C21.5849 29.4845 22.1377 29.0614 22.64 28.5856C23.3867 27.8798 24.021 27.0608 24.5175 26.1619C23.5691 26.6903 22.5178 27.0666 21.389 27.2577C21.3385 27.2655 21.2881 27.2733 21.2377 27.2811C20.1729 27.4449 19.1197 27.4313 18.113 27.2597C17.2868 27.1193 16.4896 26.8755 15.739 26.5382C15.4791 26.4212 15.223 26.2925 14.9748 26.1541C13.0817 25.0972 11.5475 23.4261 10.6786 21.3612C10.4187 20.7469 10.2189 20.0957 10.0851 19.4171C10.0579 19.2747 10.0327 19.1305 10.0094 18.9862C9.66614 16.732 10.1084 14.5403 11.1286 12.6899C12.5581 10.1004 15.1202 8.18164 18.2585 7.69806C18.6968 7.62981 19.1332 7.59276 19.5658 7.58496C19.1449 7.59081 18.7201 7.61616 18.2953 7.66296C18.0897 7.68441 17.8841 7.71171 17.6766 7.7429C17.5971 7.7546 17.5176 7.76825 17.438 7.7819C14.5364 8.27913 11.9995 9.66553 10.0618 11.6174C8.15326 13.5381 6.82271 16.0106 6.29708 18.7249C6.24665 18.9803 6.20398 19.2396 6.16907 19.499C6.12446 19.8324 6.09149 20.1678 6.07015 20.5071C6.05851 20.7099 6.05075 20.9146 6.04688 21.1213C6.04688 21.1545 6.04688 21.1876 6.04688 21.2208C6.04688 21.2637 6.04688 21.3066 6.04688 21.3495C6.04688 21.4158 6.04688 21.4801 6.04688 21.5445V21.5464Z" fill="url(#paint0_radial_573_160)"/>
<path d="M19.5657 7.58594C19.1332 7.59374 18.6968 7.63273 18.2584 7.69903C15.1221 8.18261 12.558 10.1013 11.1305 12.6908C10.1083 14.5413 9.66802 16.733 10.0094 18.9871C10.0307 19.1314 10.0559 19.2757 10.085 19.4181C10.2189 20.0966 10.4186 20.746 10.6785 21.3621C10.8609 21.795 11.0723 22.2084 11.3089 22.6042C11.6697 23.2068 12.0906 23.7625 12.5638 24.2675C13.2659 25.0182 14.0806 25.6559 14.9747 26.155C14.4491 25.2015 14.0748 24.1447 13.8847 23.0098C13.8769 22.9591 13.8692 22.9084 13.8614 22.8577C13.6985 21.7872 13.7121 20.7284 13.8827 19.7164C14.0224 18.8857 14.2648 18.0843 14.6004 17.3297C14.7168 17.0684 14.8448 16.811 14.9825 16.5614C16.0337 14.6583 17.696 13.1159 19.75 12.2424C20.3609 11.9811 21.0088 11.7802 21.6837 11.6457C21.8253 11.6184 21.9689 11.593 22.1124 11.5696C24.3545 11.2245 26.5346 11.6691 28.3753 12.6947C30.9511 14.1318 32.8596 16.7077 33.3406 19.8626C33.4085 20.3033 33.4454 20.7421 33.4531 21.1769C33.4473 20.7538 33.4221 20.3267 33.3755 19.8997C33.3542 19.693 33.3271 19.4863 33.296 19.2777C33.2844 19.1977 33.2708 19.1178 33.2572 19.0378C32.7626 16.1207 31.3836 13.5702 29.4421 11.6223C27.5316 9.70355 25.0722 8.36591 22.3723 7.83748C22.1182 7.78678 21.8602 7.74388 21.6023 7.70878C21.2706 7.66393 20.937 7.63079 20.5995 7.60934C20.3978 7.59764 20.1941 7.58984 19.9885 7.58594C19.9556 7.58594 19.9226 7.58594 19.8896 7.58594C19.847 7.58594 19.8043 7.58594 19.7616 7.58594C19.6957 7.58594 19.6317 7.58594 19.5677 7.58594L19.5657 7.58594Z" fill="url(#paint1_radial_573_160)"/>
<path d="M33.4512 21.1777C33.4434 20.7429 33.4046 20.3042 33.3387 19.8635C32.8577 16.7104 30.9491 14.1326 28.3733 12.6975C26.5327 11.6699 24.3526 11.2273 22.1104 11.5704C21.9669 11.5919 21.8234 11.6172 21.6818 11.6465C21.0068 11.781 20.3609 11.9819 19.748 12.2432C19.3174 12.4265 18.9062 12.639 18.5125 12.8769C17.9132 13.2396 17.3604 13.6627 16.858 14.1385C16.1113 14.8444 15.4771 15.6633 14.9805 16.5623C15.929 16.0338 16.9802 15.6575 18.1091 15.4664C18.1595 15.4586 18.2099 15.4508 18.2604 15.443C19.3252 15.2792 20.3784 15.2928 21.385 15.4644C22.2113 15.6048 23.0085 15.8486 23.7591 16.1859C24.019 16.3029 24.275 16.4316 24.5233 16.57C26.4163 17.6269 27.9505 19.298 28.8195 21.363C29.0794 21.9772 29.2791 22.6285 29.413 23.307C29.4401 23.4494 29.4653 23.5937 29.4886 23.738C29.8319 25.9921 29.3897 28.1838 28.3695 30.0343C26.94 32.6238 24.3778 34.5425 21.2396 35.0261C20.8012 35.0943 20.3648 35.1314 19.9323 35.1392C20.3532 35.1333 20.7779 35.108 21.2027 35.0612C21.4083 35.0397 21.6139 35.0124 21.8214 34.9812C21.901 34.9695 21.9805 34.9559 22.06 34.9422C24.9616 34.445 27.4986 33.0586 29.4362 31.1067C31.3448 29.186 32.6753 26.7135 33.201 23.9993C33.2514 23.7438 33.2941 23.4845 33.329 23.2251C33.3736 22.8917 33.4066 22.5563 33.4279 22.217C33.4395 22.0142 33.4473 21.8095 33.4512 21.6028C33.4512 21.5697 33.4512 21.5365 33.4512 21.5034C33.4512 21.4605 33.4512 21.4176 33.4512 21.3747C33.4512 21.3084 33.4512 21.244 33.4512 21.1797L33.4512 21.1777Z" fill="url(#paint2_radial_573_160)"/>
<path d="M19.9323 35.1382C20.3649 35.1304 20.8013 35.0914 21.2396 35.0251C24.3759 34.5415 26.94 32.6228 28.3676 30.0333C29.3897 28.1828 29.83 25.9911 29.4887 23.737C29.4673 23.5927 29.4421 23.4484 29.413 23.3061C29.2792 22.6275 29.0794 21.9782 28.8195 21.362C28.6372 20.9291 28.4258 20.5157 28.1891 20.1199C27.8284 19.5174 27.4075 18.9616 26.9342 18.4566C26.2321 17.7059 25.4175 17.0683 24.5233 16.5691C25.049 17.5226 25.4233 18.5794 25.6134 19.7143C25.6211 19.765 25.6289 19.8157 25.6366 19.8664C25.7996 20.9369 25.786 21.9957 25.6153 23.0077C25.4757 23.8384 25.2332 24.6398 24.8977 25.3944C24.7813 25.6557 24.6533 25.9131 24.5156 26.1627C23.4643 28.0658 21.8021 29.6082 19.7481 30.4818C19.1371 30.7431 18.4893 30.9439 17.8143 31.0784C17.6727 31.1057 17.5292 31.1311 17.3857 31.1545C15.1435 31.4996 12.9634 31.055 11.1227 30.0294C8.54698 28.5923 6.63844 26.0164 6.15742 22.8615C6.08953 22.4208 6.05268 21.9821 6.04492 21.5472C6.05074 21.9704 6.07596 22.3974 6.12251 22.8244C6.14384 23.0311 6.171 23.2378 6.20203 23.4464C6.21367 23.5264 6.22724 23.6063 6.24082 23.6863C6.73541 26.6034 8.11446 29.1539 10.056 31.1018C11.9665 33.0206 14.4259 34.3582 17.1258 34.8866C17.3798 34.9373 17.6378 34.9802 17.8958 35.0153C18.2274 35.0602 18.561 35.0933 18.8985 35.1148C19.1003 35.1265 19.3039 35.1343 19.5095 35.1382C19.5425 35.1382 19.5754 35.1382 19.6084 35.1382C19.6511 35.1382 19.6938 35.1382 19.7364 35.1382C19.8024 35.1382 19.8664 35.1382 19.9304 35.1382L19.9323 35.1382Z" fill="url(#paint3_radial_573_160)"/>
</g>
<path d="M76.3813 17.7933C75.9292 17.6843 75.5264 17.6299 75.1732 17.6299C74.8199 17.6299 74.5255 17.6725 74.2547 17.7554C73.9838 17.8382 73.7413 17.9495 73.5293 18.0845C73.3173 18.2194 73.136 18.3757 72.9806 18.5462C72.8275 18.7166 72.6932 18.899 72.5731 19.0884L72.3776 18.0419C72.3588 17.9377 72.2646 17.8619 72.1586 17.8619H71.518C71.3108 17.8619 71.1153 17.959 70.9905 18.1247L70.2675 19.0789C70.1803 19.1949 70.1309 19.337 70.1309 19.4838V26.4566C70.1309 26.5797 70.2298 26.6791 70.3522 26.6791H72.3494C72.4742 26.6791 72.5708 26.5797 72.5708 26.4566V22.0053C72.5708 21.6975 72.6414 21.4111 72.7827 21.1435C72.924 20.876 73.1124 20.6487 73.348 20.4593C73.5835 20.2698 73.8637 20.1207 74.1887 20.0141C74.5137 19.9076 74.8623 19.8531 75.2415 19.8531C75.3474 19.8531 75.4652 19.8626 75.5947 19.8792C75.7243 19.8981 75.842 19.9171 75.948 19.9407C75.9975 19.9549 76.0422 19.9644 76.0893 19.9762C76.2188 20.0094 76.3484 19.9194 76.3625 19.7821L76.5462 18.0348C76.558 17.9258 76.4873 17.8217 76.379 17.7956L76.3813 17.7933Z" fill="white"/>
<path d="M68.5306 20.4684C68.2903 19.9072 67.963 19.4124 67.5485 18.9933C67.1363 18.5742 66.6535 18.2404 66.0977 17.9989C65.5419 17.7574 64.9555 17.6343 64.329 17.6343C63.7026 17.6343 63.0973 17.7574 62.5439 17.9989C61.9881 18.2404 61.5076 18.5742 61.0931 18.9933C60.681 19.4124 60.3536 19.9072 60.111 20.4684C59.9273 20.8946 59.8143 21.3468 59.7695 21.818C59.8166 21.3539 59.9297 20.9088 60.111 20.4873C60.3536 19.9262 60.6786 19.4313 61.0931 19.0123C61.5053 18.5932 61.9881 18.2593 62.5439 18.0178C63.0997 17.7763 63.6932 17.6532 64.329 17.6532C64.9649 17.6532 65.5419 17.7763 66.0977 18.0178C66.6535 18.2593 67.1363 18.5932 67.5485 19.0123C67.9606 19.4313 68.288 19.9262 68.5306 20.4873C68.7143 20.9088 68.825 21.3539 68.8721 21.818C68.8273 21.3468 68.7143 20.8969 68.5306 20.4684ZM65.8245 24.0933C65.6291 24.2993 65.4077 24.465 65.1533 24.581C65.1156 24.6 65.078 24.6142 65.0403 24.6308C65.045 24.6355 65.0497 24.6402 65.0521 24.645C65.085 24.6308 65.1204 24.6165 65.1533 24.6C65.4077 24.4816 65.6314 24.3182 65.8245 24.1122C66.02 23.9062 66.1707 23.6576 66.2838 23.3664C66.3827 23.106 66.4392 22.8219 66.4486 22.5117C66.4345 22.8171 66.3827 23.0941 66.2838 23.3498C66.1707 23.6411 66.0177 23.8897 65.8245 24.0957V24.0933ZM62.8194 24.0933C62.6239 23.8873 62.4732 23.6387 62.3602 23.3475C62.2612 23.0918 62.2071 22.8148 62.1953 22.5093C62.2071 22.8195 62.2612 23.1036 62.3602 23.364C62.4732 23.6553 62.6263 23.9039 62.8194 24.1099C63.0149 24.3159 63.241 24.4816 63.5 24.5976C63.533 24.6142 63.5636 24.626 63.5966 24.6402C63.5966 24.6355 63.6037 24.6308 63.6084 24.626C63.573 24.6094 63.5354 24.5952 63.5 24.5787C63.241 24.4603 63.0149 24.2969 62.8194 24.0909V24.0933Z" fill="white"/>
<path d="M94.2643 24.7325V25.0924C94.2643 25.2392 94.2148 25.3836 94.1253 25.502L93.2775 26.6006L93.2139 26.6953H87.239C87.239 26.6953 87.2272 26.6953 87.2201 26.6953C87.1071 26.6858 87.0176 26.5911 87.0176 26.4751V25.412C87.0176 25.0971 87.0835 24.787 87.2131 24.5028C87.2884 24.3347 87.3826 24.1761 87.498 24.0293L90.6256 20.0682H87.5757C87.4533 20.0682 87.3544 19.9711 87.3544 19.8456V19.275C87.3803 19.2229 87.4132 19.1756 87.4486 19.1282L88.4118 17.8828H93.9393C94.0617 17.8828 94.1607 17.9823 94.1607 18.1054V18.7399C94.1607 19.2419 93.9934 19.7272 93.6826 20.1203L91.3486 23.0775L90.2182 24.5123H94.0453C94.1677 24.5123 94.2666 24.6117 94.2666 24.7349L94.2643 24.7325Z" fill="white"/>
<path d="M51.9376 17.4214C53.883 17.4214 55.4656 19.1379 55.4656 21.2475C55.4656 23.3571 53.883 25.0737 51.9376 25.0737C49.9923 25.0737 48.4097 23.3571 48.4097 21.2475C48.4097 19.1379 49.9923 17.4214 51.9376 17.4214ZM51.9376 14.7554C48.5251 14.7554 45.7578 17.6629 45.7578 21.2475C45.7578 24.8322 48.5251 27.7397 51.9376 27.7397C55.3502 27.7397 58.1175 24.8322 58.1175 21.2475C58.1175 17.6629 55.3502 14.7554 51.9376 14.7554Z" fill="white"/>
<path d="M58.7092 26.0965V26.8897C58.7092 26.9584 58.688 27.0223 58.6456 27.0768L57.9673 27.9694C57.9085 27.9599 57.8496 27.9528 57.7931 27.941C55.9372 27.6 54.8232 26.267 53.9801 25.256C53.6268 24.8346 53.2053 24.3279 52.9132 24.174C52.8143 24.1219 52.7578 24.0177 52.7578 23.9064V23.0635C52.7578 22.867 52.8214 22.6753 52.9415 22.5214L53.2288 22.1473C53.3066 22.0478 53.4361 21.9981 53.5562 22.0407C54.4252 22.339 55.0588 23.0967 55.6734 23.8354C56.4624 24.7825 57.2113 25.6775 58.4336 25.7958C58.5914 25.8101 58.7092 25.9474 58.7092 26.106V26.0965Z" fill="white"/>
<path d="M66.2877 21.3849C66.1747 21.0771 66.0216 20.8071 65.8285 20.5751C65.633 20.3431 65.4116 20.1608 65.1572 20.0234C64.9029 19.8861 64.6297 19.8198 64.3353 19.8198C64.0409 19.8198 63.763 19.8885 63.5039 20.0234C63.2449 20.1584 63.0188 20.3431 62.8233 20.5751C62.6278 20.8071 62.4771 21.0747 62.3641 21.3849C62.2652 21.6595 62.2086 21.9531 62.1992 22.268C62.2133 21.9602 62.2675 21.6737 62.3641 21.4038C62.4771 21.096 62.6302 20.8261 62.8233 20.5941C63.0188 20.362 63.2449 20.1797 63.5039 20.0424C63.763 19.9074 64.0409 19.8388 64.3353 19.8388C64.6297 19.8388 64.9052 19.9074 65.1572 20.0424C65.4116 20.1773 65.6353 20.362 65.8285 20.5941C66.0239 20.8261 66.1747 21.0936 66.2877 21.4038C66.3866 21.6737 66.4408 21.9626 66.4526 22.268C66.4408 21.9555 66.3866 21.6619 66.2877 21.3849Z" fill="white"/>
<path d="M68.8718 21.8181C68.8247 21.354 68.714 20.9089 68.5303 20.4874C68.2901 19.9263 67.9627 19.4314 67.5482 19.0124C67.1361 18.5933 66.6533 18.2594 66.0975 18.0179C65.5416 17.7764 64.9552 17.6533 64.3288 17.6533C63.7023 17.6533 63.097 17.7764 62.5436 18.0179C61.9878 18.2594 61.5073 18.5933 61.0928 19.0124C60.6807 19.4314 60.3557 19.9263 60.1107 20.4874C59.9294 20.9089 59.8164 21.354 59.7692 21.8181C59.7528 21.9743 59.748 22.1306 59.748 22.2916C59.748 22.4526 59.7551 22.5994 59.7692 22.7462C59.814 23.2174 59.927 23.6672 60.1107 24.0958C60.3533 24.6569 60.6783 25.1517 61.0928 25.5708C61.505 25.9899 61.9878 26.3237 62.5436 26.5652C63.0994 26.8067 63.6929 26.9299 64.3288 26.9299C64.9646 26.9299 65.5416 26.8067 66.0975 26.5652C66.6533 26.3237 67.1361 25.9899 67.5482 25.5708C67.9604 25.1517 68.2877 24.6569 68.5303 24.0958C68.7163 23.6696 68.8294 23.2174 68.8718 22.7462C68.8883 22.597 68.893 22.4431 68.893 22.2916C68.893 22.1401 68.8859 21.9743 68.8718 21.8181ZM64.3335 24.78C64.0768 24.78 63.8318 24.7327 63.5987 24.6451C63.5657 24.6309 63.5351 24.619 63.5021 24.6024C63.243 24.4841 63.017 24.3207 62.8215 24.1147C62.626 23.9087 62.4753 23.6601 62.3622 23.3689C62.2633 23.1084 62.2068 22.8243 62.1974 22.5142C62.1974 22.4763 62.1974 22.4384 62.1974 22.4005C62.1974 22.3555 62.1974 22.3105 62.1974 22.2703C62.2092 21.9578 62.2633 21.6642 62.3622 21.3871C62.4753 21.0793 62.6284 20.8094 62.8215 20.5774C63.017 20.3454 63.243 20.1631 63.5021 20.0257C63.7612 19.8884 64.0391 19.8221 64.3335 19.8221C64.6279 19.8221 64.9011 19.8908 65.1554 20.0257C65.4098 20.1607 65.6335 20.3454 65.8266 20.5774C66.0221 20.8094 66.1728 21.077 66.2859 21.3871C66.3848 21.6618 66.4413 21.9554 66.4507 22.2703C66.4507 22.3129 66.4507 22.3579 66.4507 22.4005C66.4507 22.4384 66.4507 22.4763 66.4507 22.5142C66.4389 22.8243 66.3848 23.1084 66.2859 23.3689C66.1728 23.6601 66.0197 23.9087 65.8266 24.1147C65.6311 24.3207 65.4098 24.4864 65.1554 24.6024C65.1224 24.619 65.0871 24.6332 65.0541 24.6474C64.8304 24.7374 64.5878 24.78 64.3335 24.78Z" fill="white"/>
<path d="M85.4435 18.1029V26.475C85.4435 26.5981 85.3446 26.6975 85.2221 26.6975H83.4888C83.4063 26.6975 83.3333 26.6525 83.2957 26.5791L83.0036 26.0204C82.721 26.2216 82.4007 26.385 82.0404 26.5081C81.68 26.6336 81.2962 26.6951 80.8817 26.6951C80.5637 26.6951 80.201 26.6478 79.7936 26.5531C79.3862 26.4607 79.007 26.2832 78.6537 26.0204C78.3005 25.7599 78.0013 25.3977 77.7611 24.936C77.5209 24.4743 77.3984 23.8752 77.3984 23.1413V19.3672C77.3984 19.218 77.4479 19.076 77.5374 18.9576L78.1709 18.1384C78.2957 17.975 78.4889 17.8803 78.6938 17.8803H79.617C79.7394 17.8803 79.8383 17.9797 79.8383 18.1029V23.0395C79.8383 23.3094 79.8831 23.5414 79.9702 23.7308C80.0597 23.9202 80.1775 24.0718 80.3259 24.183C80.4742 24.2943 80.6438 24.3796 80.8346 24.4293C81.023 24.4837 81.2184 24.5098 81.421 24.5098C81.5764 24.5098 81.7436 24.4837 81.9273 24.4293C82.111 24.3772 82.283 24.292 82.4455 24.1736C82.6056 24.0528 82.7398 23.9013 82.8458 23.7119C82.9518 23.5225 83.006 23.2975 83.006 23.0395V19.3932C83.006 19.2441 83.0554 19.0996 83.1449 18.9836L83.7997 18.136C83.9245 17.9726 84.1176 17.8779 84.3225 17.8779H85.2221C85.3446 17.8779 85.4435 17.9774 85.4435 18.1005V18.1029Z" fill="white"/>
<path d="M98.7363 16.2138H102.528C104.45 16.2138 106.056 17.8096 106.056 19.6706C106.056 21.5316 104.452 23.1274 102.528 23.1274H100.147V27.3821H98.7363V16.2114V16.2138ZM102.528 21.8867C103.675 21.8867 104.645 20.9113 104.645 19.6706C104.645 18.4299 103.675 17.4545 102.528 17.4545H100.147V21.8867H102.528Z" fill="white"/>
<path d="M112.229 26.499C112.052 26.6932 111.859 26.8542 111.628 26.9962C111.223 27.2614 110.642 27.4745 109.848 27.4745C108.261 27.4745 107.203 26.4114 107.203 25.0808C107.203 23.5726 108.261 22.5095 112.229 22.5095V22.0667C112.229 21.2688 111.541 20.5585 110.554 20.5585C109.568 20.5585 109.16 21.0013 108.967 21.7116H107.556C107.75 20.381 108.79 19.3179 110.554 19.3179C112.318 19.3179 113.553 20.5775 113.553 22.0667V27.3869H112.582L112.229 26.5014V26.499ZM112.229 23.7502C109.054 23.7502 108.524 24.2829 108.524 25.1684C108.524 25.7177 109.054 26.2315 109.848 26.2315C111.259 26.2315 112.229 25.256 112.229 24.3705V23.7502Z" fill="white"/>
<path d="M116.409 16.3037C116.904 16.3037 117.255 16.6589 117.255 17.1537C117.255 17.6486 116.901 17.9871 116.409 17.9871C115.917 17.9871 115.58 17.632 115.58 17.1537C115.58 16.6754 115.933 16.3037 116.409 16.3037ZM115.757 19.4077H117.08V27.3868H115.757V19.4077Z" fill="white"/>
<path d="M124.927 26.4987C124.751 26.6929 124.558 26.8539 124.327 26.9959C123.922 27.2611 123.34 27.4742 122.546 27.4742C120.5 27.4742 118.842 25.7908 118.842 23.3971C118.842 21.0033 120.5 19.3199 122.546 19.3199C123.34 19.3199 123.922 19.5851 124.327 19.8526C124.555 20.0113 124.751 20.1889 124.927 20.3854V16.2183H126.251V27.389H125.281L124.927 26.5034V26.4987ZM125.104 23.3947C125.104 21.6923 123.957 20.5582 122.636 20.5582C121.315 20.5582 120.168 21.6923 120.168 23.3947C120.168 25.097 121.315 26.2312 122.636 26.2312C123.957 26.2312 125.104 25.097 125.104 23.3947Z" fill="white"/>
<path d="M141.859 23.6624C141.242 25.7909 139.565 27.4743 137.097 27.4743C134.363 27.4743 131.895 24.993 131.895 21.8014C131.895 18.6097 134.363 16.1284 137.097 16.1284C139.478 16.1284 141.153 17.8142 141.772 19.9404H140.272C139.902 18.5221 138.79 17.3691 137.097 17.3691C135.156 17.3691 133.305 19.2301 133.305 21.8014C133.305 24.3727 135.156 26.2337 137.097 26.2337C138.877 26.2337 139.989 25.0806 140.359 23.6624H141.859Z" fill="white"/>
<path d="M143.002 23.395C143.002 21.0013 144.66 19.3179 146.707 19.3179C148.753 19.3179 150.411 21.0013 150.411 23.395C150.411 25.7887 148.753 27.4721 146.707 27.4721C144.66 27.4721 143.002 25.7887 143.002 23.395ZM149.088 23.395C149.088 21.6926 147.924 20.5585 146.707 20.5585C145.489 20.5585 144.326 21.6926 144.326 23.395C144.326 25.0974 145.472 26.2315 146.707 26.2315C147.941 26.2315 149.088 25.0974 149.088 23.395Z" fill="white"/>
<path d="M152.262 16.2139H153.585V27.3846H152.262V16.2139Z" fill="white"/>
<path d="M156.053 16.2139H157.376V27.3846H156.053V16.2139Z" fill="white"/>
<path d="M164.432 26.4985C164.255 26.6927 164.062 26.8537 163.832 26.9958C163.426 27.2609 162.845 27.474 162.051 27.474C160.464 27.474 159.406 26.4109 159.406 25.0803C159.406 23.5721 160.464 22.509 164.432 22.509V22.0663C164.432 21.2683 163.744 20.558 162.758 20.558C161.771 20.558 161.363 21.0008 161.17 21.7111H159.76C159.953 20.3805 160.994 19.3174 162.758 19.3174C164.522 19.3174 165.756 20.577 165.756 22.0663V27.3864H164.785L164.432 26.5009V26.4985ZM164.432 23.7497C161.257 23.7497 160.727 24.2824 160.727 25.1679C160.727 25.7172 161.257 26.231 162.051 26.231C163.462 26.231 164.432 25.2555 164.432 24.37V23.7497Z" fill="white"/>
<path d="M168.047 16.2137H169.37V20.3808C169.528 20.1867 169.74 20.0091 169.971 19.8481C170.376 19.5829 170.958 19.3154 171.751 19.3154C173.798 19.3154 175.456 20.9988 175.456 23.3925C175.456 25.7862 173.798 27.4696 171.751 27.4696C170.958 27.4696 170.376 27.2566 169.971 26.9914C169.743 26.8493 169.531 26.6907 169.37 26.4942L169.017 27.3797H168.047V16.209V16.2137ZM174.133 23.3949C174.133 21.6925 172.986 20.5584 171.664 20.5584C170.343 20.5584 169.196 21.6925 169.196 23.3949C169.196 25.0972 170.343 26.2313 171.664 26.2313C172.986 26.2313 174.133 25.0972 174.133 23.3949Z" fill="white"/>
<defs>
<filter id="filter0_d_573_160" x="4.04492" y="7.58496" width="31.4082" height="32.5542" filterUnits="userSpaceOnUse" color-interpolation-filters="sRGB">
<feFlood flood-opacity="0" result="BackgroundImageFix"/>
<feColorMatrix in="SourceAlpha" type="matrix" values="0 0 0 0 0 0 0 0 0 0 0 0 0 0 0 0 0 0 127 0" result="hardAlpha"/>
<feOffset dy="3"/>
<feGaussianBlur stdDeviation="1"/>
<feComposite in2="hardAlpha" operator="out"/>
<feColorMatrix type="matrix" values="0 0 0 0 0 0 0 0 0 0 0 0 0 0 0 0 0 0 1 0"/>
<feBlend mode="overlay" in2="BackgroundImageFix" result="effect1_dropShadow_573_160"/>
<feBlend mode="normal" in="SourceGraphic" in2="effect1_dropShadow_573_160" result="shape"/>
</filter>
<radialGradient id="paint0_radial_573_160" cx="0" cy="0" r="1" gradientUnits="userSpaceOnUse" gradientTransform="translate(10.087 11.6486) rotate(55.8266) scale(22.2723 17.4288)">
<stop stop-color="#FBE8E5"/>
<stop offset="0.0941611" stop-color="#FBE8E5"/>
<stop offset="0.477328" stop-color="white"/>
<stop offset="0.879094" stop-color="#F7D5CF"/>
<stop offset="1" stop-color="#E2614B"/>
</radialGradient>
<radialGradient id="paint1_radial_573_160" cx="0" cy="0" r="1" gradientUnits="userSpaceOnUse" gradientTransform="translate(29.4111 11.6476) rotate(145.543) scale(22.2292 17.4626)">
<stop stop-color="#FBE8E5"/>
<stop offset="0.0941611" stop-color="#FBE8E5"/>
<stop offset="0.477328" stop-color="white"/>
<stop offset="0.879094" stop-color="#F7D5CF"/>
<stop offset="1" stop-color="#E2614B"/>
</radialGradient>
<radialGradient id="paint2_radial_573_160" cx="0" cy="0" r="1" gradientUnits="userSpaceOnUse" gradientTransform="translate(29.411 31.0756) rotate(-124.173) scale(22.2723 17.4288)">
<stop stop-color="#FBE8E5"/>
<stop offset="0.0941611" stop-color="#FBE8E5"/>
<stop offset="0.477328" stop-color="white"/>
<stop offset="0.879094" stop-color="#F7D5CF"/>
<stop offset="1" stop-color="#E2614B"/>
</radialGradient>
<radialGradient id="paint3_radial_573_160" cx="0" cy="0" r="1" gradientUnits="userSpaceOnUse" gradientTransform="translate(10.087 31.0765) rotate(-34.4571) scale(22.2292 17.4626)">
<stop stop-color="#FBE8E5"/>
<stop offset="0.0941611" stop-color="#FBE8E5"/>
<stop offset="0.477328" stop-color="white"/>
<stop offset="0.879094" stop-color="#F7D5CF"/>
<stop offset="1" stop-color="#E2614B"/>
</radialGradient>
</defs>
</svg>
