<svg width="219" height="49" viewBox="0 0 219 49" fill="none" xmlns="http://www.w3.org/2000/svg">
<path fill-rule="evenodd" clip-rule="evenodd" d="M18.0812 1.54138C20.507 0.152874 23.493 0.152874 25.9188 1.54138L40.0797 9.65063C42.5036 11.0395 44 13.6082 44 16.3888V32.6092C44 35.3892 42.5065 37.9583 40.0795 39.3475L25.9191 47.4585C23.4933 48.847 20.507 48.8472 18.0812 47.4587L3.92021 39.3473C1.49627 37.9584 0 35.3898 0 32.6092V16.3888C0 13.6082 1.49612 11.0396 3.92006 9.65077L18.0812 1.54138Z" fill="#E3614B"/>
<g filter="url(#filter0_d_31_35)">
<path d="M26.6679 17.8333H17.3346L17.6477 14.2931C17.7371 13.2882 18.6438 12.5 19.7132 12.5H24.2873C25.3567 12.5 26.2654 13.2882 26.3528 14.2931L26.6659 17.8333H26.6679ZM19.4346 16.0114H24.5699L24.4317 14.4446C24.4256 14.3756 24.3625 14.3219 24.2894 14.3219H19.7152C19.642 14.3219 19.579 14.3756 19.5729 14.4446L19.4346 16.0114Z" fill="white"/>
<path d="M12.964 33.2885C12.4233 33.2885 11.9472 33.0314 11.7199 32.6182C11.6457 32.4818 11.6075 32.3177 11.6075 32.1259V29.4391C11.6075 28.9211 11.1003 28.5 10.471 28.5C9.8418 28.5 9.33459 28.9211 9.33459 29.4391V32.1259C9.33459 32.5846 9.43986 33.0117 9.64801 33.3932C10.239 34.4707 11.5381 35.1667 12.9616 35.1667H22.6679V33.2885H12.964Z" fill="white"/>
<path d="M34.3702 18.4346C33.8087 17.2592 32.5744 16.5 31.222 16.5H12.8283C12.3009 16.5 11.81 16.5949 11.3735 16.7825C10.1347 17.3153 9.33459 18.4864 9.33459 19.7696V23.1838C9.33459 23.999 9.85058 24.7172 10.6507 25.0127L20.7067 28.7417C21.541 29.0501 22.4616 29.0523 23.2958 28.7417L32.5085 25.3254V31.897C32.5085 32.3845 32.213 32.8137 31.7379 33.0164C31.5811 33.0832 31.3902 33.1178 31.1719 33.1178H21.7728V35.1667H31.1719C31.6993 35.1667 32.1903 35.0718 32.629 34.8841C33.8678 34.3514 34.6679 33.1803 34.6679 31.897V23.8502C34.6679 23.8351 34.6679 23.8179 34.6679 23.8028V19.8171C34.6679 19.3167 34.5679 18.8509 34.3702 18.4346ZM32.5085 23.1255L22.5093 26.833C22.1797 26.9559 21.8183 26.9538 21.491 26.833L11.4917 23.1255V19.7696C11.4917 19.2822 11.7872 18.853 12.2623 18.6481C12.4191 18.5813 12.6078 18.5468 12.8283 18.5468H31.222C31.7357 18.5468 32.188 18.8271 32.404 19.2779C32.4744 19.4267 32.5108 19.6079 32.5108 19.8149V23.1255H32.5085Z" fill="white"/>
</g>
<path opacity="0.9" d="M64.04 25.5C64.04 20.96 61.42 18.32 57.4 18.32C53.38 18.32 50.74 20.96 50.74 25.5C50.74 30 53.38 32.68 57.4 32.68C58.7 32.68 59.84 32.4 60.8 31.88L61.88 32.96L63.7 31.24L62.7 30.22C63.56 29.02 64.04 27.44 64.04 25.5ZM57.4 30.04C55.18 30.04 53.94 28.3 53.94 25.5C53.94 22.68 55.18 20.96 57.4 20.96C59.6 20.96 60.84 22.68 60.84 25.5C60.84 26.44 60.7 27.26 60.44 27.94L58.62 26.1L56.8 27.82L58.74 29.78C58.34 29.96 57.9 30.04 57.4 30.04ZM69.9094 22C67.7094 22 64.7494 23.46 64.7494 27.34C64.7494 31.18 67.7094 32.64 69.9094 32.64C72.1094 32.64 75.0694 31.18 75.0694 27.34C75.0694 23.46 72.1094 22 69.9094 22ZM72.2694 27.34C72.2694 29.38 71.1494 30.28 69.9094 30.28C68.6694 30.28 67.5494 29.38 67.5494 27.34C67.5494 25.2 68.6694 24.36 69.9094 24.36C71.1494 24.36 72.2694 25.2 72.2694 27.34ZM82.2756 22C80.4956 22 79.4756 23 79.1756 24.4V22.1H76.2556V32.5H79.1756V26.96C79.4156 25.52 80.3556 24.62 82.4956 24.62C82.6356 24.62 82.7756 24.62 83.1756 24.64V22.08C82.7756 22 82.4956 22 82.2756 22ZM91.1941 22.1V28.26C91.0941 28.92 90.4141 30.22 88.9541 30.22C87.8941 30.22 87.0741 29.66 87.0741 28.22V22.1H84.1541V28.38C84.1541 31.54 85.7341 32.64 87.8541 32.64C89.7941 32.64 90.8941 31.18 91.1941 30.46V32.5H94.1141V22.1H91.1941ZM99.0277 30.06L104.148 24.54V22.1H95.7477V24.54H100.648L95.5477 30.06V32.5H104.148V30.06H99.0277ZM116.135 18.5H110.515V32.5H113.575V28.22H116.135C119.855 28.22 121.515 26.22 121.515 23.36C121.515 20.48 119.855 18.5 116.135 18.5ZM116.095 25.58H113.575V21.14H116.095C117.535 21.14 118.275 21.98 118.275 23.36C118.275 24.72 117.535 25.58 116.095 25.58ZM131.148 29.8V26.36C131.148 23.3 129.888 22 126.608 22C123.848 22 122.368 23.12 122.168 25.3H124.928C125.068 24.38 125.768 24.14 126.588 24.14C127.308 24.14 128.228 24.3 128.228 25.66V25.68C127.648 26.02 126.568 26.12 125.428 26.34C123.528 26.68 121.588 27.08 121.588 29.44C121.588 31.74 123.308 32.64 125.128 32.64C127.568 32.64 128.388 31.1 128.548 30.84V30.92C128.548 32.04 129.568 32.58 130.848 32.58C131.268 32.58 131.548 32.56 131.908 32.4V30.74C131.428 30.7 131.148 30.42 131.148 29.8ZM128.228 29.22C128.028 29.58 127.308 30.56 125.928 30.56C124.928 30.56 124.508 29.96 124.508 29.32C124.508 28.66 124.888 28.28 125.868 28.04C126.808 27.84 127.488 27.76 128.228 27.38V29.22ZM132.879 18.32V20.54H135.799V18.32H132.879ZM132.879 22.1V32.5H135.799V22.1H132.879ZM141.559 22C139.659 22 136.979 23.48 136.979 27.3C136.979 31.2 139.679 32.64 141.619 32.64C143.619 32.64 144.399 31.16 144.399 30.92V32.5H147.319V18.38H144.399V23.42C144.059 22.82 143.019 22 141.559 22ZM142.199 30.28C140.859 30.28 139.799 29.38 139.799 27.3C139.799 25.24 140.859 24.36 142.199 24.36C143.479 24.36 144.519 25.3 144.519 27.3C144.519 29.32 143.479 30.28 142.199 30.28ZM160.145 30.04C158.005 30.04 156.825 28.28 156.825 25.5C156.825 22.7 158.005 20.96 160.145 20.96C161.645 20.96 162.325 21.6 162.845 22.96H165.865C165.525 19.84 162.985 18.32 160.085 18.32C156.245 18.32 153.625 20.86 153.625 25.5C153.625 30.14 156.245 32.68 160.085 32.68C163.005 32.68 165.565 31.16 165.905 28.02H162.865C162.365 29.4 161.665 30.04 160.145 30.04ZM171.271 22C169.071 22 166.111 23.46 166.111 27.34C166.111 31.18 169.071 32.64 171.271 32.64C173.471 32.64 176.431 31.18 176.431 27.34C176.431 23.46 173.471 22 171.271 22ZM173.631 27.34C173.631 29.38 172.511 30.28 171.271 30.28C170.031 30.28 168.911 29.38 168.911 27.34C168.911 25.2 170.031 24.36 171.271 24.36C172.511 24.36 173.631 25.2 173.631 27.34ZM177.617 18.38V32.5H180.537V18.38H177.617ZM182.217 18.38V32.5H185.137V18.38H182.217ZM195.877 29.8V26.36C195.877 23.3 194.617 22 191.337 22C188.577 22 187.097 23.12 186.897 25.3H189.657C189.797 24.38 190.497 24.14 191.317 24.14C192.037 24.14 192.957 24.3 192.957 25.66V25.68C192.377 26.02 191.297 26.12 190.157 26.34C188.257 26.68 186.317 27.08 186.317 29.44C186.317 31.74 188.037 32.64 189.857 32.64C192.297 32.64 193.117 31.1 193.277 30.84V30.92C193.277 32.04 194.297 32.58 195.577 32.58C195.997 32.58 196.277 32.56 196.637 32.4V30.74C196.157 30.7 195.877 30.42 195.877 29.8ZM192.957 29.22C192.757 29.58 192.037 30.56 190.657 30.56C189.657 30.56 189.237 29.96 189.237 29.32C189.237 28.66 189.617 28.28 190.597 28.04C191.537 27.84 192.217 27.76 192.957 27.38V29.22ZM203.369 22C201.909 22 200.869 22.82 200.529 23.42V18.38H197.609V32.5H200.529V30.92C200.529 31.16 201.309 32.64 203.309 32.64C205.249 32.64 207.949 31.2 207.949 27.3C207.949 23.48 205.269 22 203.369 22ZM202.729 30.28C201.449 30.28 200.409 29.32 200.409 27.3C200.409 25.3 201.449 24.36 202.729 24.36C204.069 24.36 205.129 25.24 205.129 27.3C205.129 29.38 204.069 30.28 202.729 30.28ZM214.903 25.32H217.523C217.183 23.34 215.863 22 213.103 22C210.443 22 208.863 23.16 208.863 25.1C208.863 26.52 209.683 27.56 212.043 28.08L213.723 28.44C214.503 28.6 214.823 28.84 214.823 29.38C214.823 30.02 214.303 30.48 213.143 30.48C212.063 30.48 211.423 30.06 211.203 29.18H208.523C208.823 31.48 210.463 32.64 213.123 32.64C215.763 32.64 217.743 31.62 217.743 29.42C217.743 27.26 216.403 27 214.543 26.58L212.683 26.16C211.963 26 211.583 25.7 211.583 25.18C211.583 24.52 212.203 24.16 213.123 24.16C214.083 24.16 214.663 24.46 214.903 25.32Z" fill="#333C66"/>
<defs>
<filter id="filter0_d_31_35" x="7.33459" y="12.5" width="29.3333" height="26.6665" filterUnits="userSpaceOnUse" color-interpolation-filters="sRGB">
<feFlood flood-opacity="0" result="BackgroundImageFix"/>
<feColorMatrix in="SourceAlpha" type="matrix" values="0 0 0 0 0 0 0 0 0 0 0 0 0 0 0 0 0 0 127 0" result="hardAlpha"/>
<feOffset dy="2"/>
<feGaussianBlur stdDeviation="1"/>
<feComposite in2="hardAlpha" operator="out"/>
<feColorMatrix type="matrix" values="0 0 0 0 0 0 0 0 0 0 0 0 0 0 0 0 0 0 0.3 0"/>
<feBlend mode="normal" in2="BackgroundImageFix" result="effect1_dropShadow_31_35"/>
<feBlend mode="normal" in="SourceGraphic" in2="effect1_dropShadow_31_35" result="shape"/>
</filter>
</defs>
</svg>
