<svg width="459" height="298" viewBox="0 0 459 298" fill="none" xmlns="http://www.w3.org/2000/svg">
<g filter="url(#filter0_bd_2025_1565)">
<rect x="32" y="28" width="394.484" height="237.738" rx="15.3836" fill="white" fill-opacity="0.03" shape-rendering="crispEdges"/>
<g filter="url(#filter1_dd_2025_1565)">
<rect x="41.5781" y="37.5787" width="375.326" height="218.581" rx="12.2169" fill="white" shape-rendering="crispEdges"/>
<path d="M73.0016 76.9967C71.2916 76.9967 70.2866 75.6467 70.2866 73.3517C70.2866 71.0417 71.2916 69.7067 73.0016 69.7067C74.2316 69.7067 74.8316 70.2317 75.2216 71.2517H77.2166C76.9316 69.0767 75.1016 67.9667 72.9566 67.9667C70.1516 67.9667 68.1866 69.8417 68.1866 73.3517C68.1866 76.8617 70.1516 78.7367 72.9566 78.7367C75.1166 78.7367 76.9616 77.6267 77.2466 75.4217H75.2516C74.8616 76.4717 74.2466 76.9967 73.0016 76.9967ZM85.1493 76.7717V73.9067C85.1493 71.6567 84.1893 70.7267 81.8343 70.7267C79.8393 70.7267 78.7143 71.5367 78.5793 73.0967H80.3793C80.4993 72.3917 81.0393 72.1367 81.8193 72.1367C82.5393 72.1367 83.2293 72.3467 83.2293 73.4567V73.4867C82.7643 73.7567 81.8493 73.8617 80.9643 74.0117C79.4343 74.2817 78.1293 74.6717 78.1293 76.3217C78.1293 78.0017 79.3593 78.7067 80.7393 78.7067C82.5993 78.7067 83.2893 77.5067 83.4243 77.2667V77.4617C83.4243 78.2867 84.0993 78.6617 84.9993 78.6617C85.2843 78.6617 85.4793 78.6467 85.7043 78.5417V77.4317C85.3443 77.4167 85.1493 77.2067 85.1493 76.7717ZM83.2293 76.1417C83.0493 76.4417 82.4493 77.3267 81.2493 77.3267C80.4243 77.3267 80.0493 76.8317 80.0493 76.2617C80.0493 75.6617 80.3643 75.3467 81.2493 75.1517C82.0443 74.9867 82.7043 74.8967 83.2293 74.6417V76.1417ZM96.3486 70.7267C95.0286 70.7267 94.0386 71.6717 93.7086 72.4667C93.3186 71.2067 92.3586 70.7267 91.2486 70.7267C89.7636 70.7267 88.9686 71.8667 88.7886 72.4217V70.8017H86.8686V78.6017H88.7886V73.9517C88.8486 73.3367 89.3886 72.3167 90.5436 72.3167C91.3536 72.3167 91.9836 72.7967 91.9836 74.0717V78.6017H93.9036V73.9067C93.9036 73.3967 94.4736 72.3167 95.6736 72.3167C96.4836 72.3167 97.0986 72.7967 97.0986 74.0717V78.6017H99.0186V74.0267C99.0186 71.6117 97.8186 70.7267 96.3486 70.7267ZM104.808 70.7267C103.683 70.7267 102.858 71.3267 102.543 71.9117V70.8017H100.623V81.4517H102.543V77.4467C102.633 77.8067 103.308 78.7067 104.763 78.7067C106.233 78.7067 108.243 77.5817 108.243 74.7017C108.243 71.8667 106.248 70.7267 104.808 70.7267ZM104.373 77.1467C103.323 77.1467 102.453 76.3667 102.453 74.7017C102.453 73.0367 103.323 72.2867 104.373 72.2867C105.423 72.2867 106.383 72.9917 106.383 74.7017C106.383 76.4267 105.423 77.1467 104.373 77.1467ZM116.131 76.7717V73.9067C116.131 71.6567 115.171 70.7267 112.816 70.7267C110.821 70.7267 109.696 71.5367 109.561 73.0967H111.361C111.481 72.3917 112.021 72.1367 112.801 72.1367C113.521 72.1367 114.211 72.3467 114.211 73.4567V73.4867C113.746 73.7567 112.831 73.8617 111.946 74.0117C110.416 74.2817 109.111 74.6717 109.111 76.3217C109.111 78.0017 110.341 78.7067 111.721 78.7067C113.581 78.7067 114.271 77.5067 114.406 77.2667V77.4617C114.406 78.2867 115.081 78.6617 115.981 78.6617C116.266 78.6617 116.461 78.6467 116.686 78.5417V77.4317C116.326 77.4167 116.131 77.2067 116.131 76.7717ZM114.211 76.1417C114.031 76.4417 113.431 77.3267 112.231 77.3267C111.406 77.3267 111.031 76.8317 111.031 76.2617C111.031 75.6617 111.346 75.3467 112.231 75.1517C113.026 74.9867 113.686 74.8967 114.211 74.6417V76.1417ZM117.777 67.9667V69.4817H119.697V67.9667H117.777ZM117.777 70.8017V78.6017H119.697V70.8017H117.777ZM126.572 70.7567V71.9267C126.257 71.3267 125.432 70.7267 124.307 70.7267C122.867 70.7267 120.932 71.8667 120.932 74.7017C120.932 77.5667 122.867 78.6917 124.352 78.6917C125.807 78.6917 126.467 77.6867 126.572 77.3117V78.4367C126.572 79.7867 125.912 80.3267 124.532 80.3267C123.452 80.3267 122.867 79.8917 122.522 79.4867L121.322 80.2367C121.847 81.2417 123.107 81.9017 124.727 81.9017C126.227 81.9017 128.492 81.3317 128.492 78.4367V70.7567H126.572ZM124.757 77.1317C123.707 77.1317 122.837 76.3817 122.837 74.7017C122.837 73.0217 123.707 72.2867 124.757 72.2867C125.807 72.2867 126.662 73.0367 126.662 74.7017C126.662 76.3667 125.807 77.1317 124.757 77.1317ZM134.611 70.7267C133.096 70.7267 132.241 71.8667 132.031 72.4217V70.8017H130.111V78.6017H132.031V73.9367C132.121 73.3667 132.706 72.3167 133.906 72.3167C134.806 72.3167 135.466 72.7667 135.466 73.9967V78.6017H137.386V73.8917C137.386 71.5367 136.186 70.7267 134.611 70.7267ZM147.201 70.7267C146.076 70.7267 145.251 71.3267 144.936 71.9267V68.0117H143.016V78.6017H144.936V77.3117C145.026 77.6867 145.701 78.7067 147.156 78.7067C148.671 78.7067 150.636 77.5817 150.636 74.7017C150.636 71.8667 148.671 70.7267 147.201 70.7267ZM146.796 77.1467C145.746 77.1467 144.846 76.3667 144.846 74.7017C144.846 73.0367 145.746 72.2867 146.796 72.2867C147.876 72.2867 148.776 73.0067 148.776 74.7017C148.776 76.4117 147.876 77.1467 146.796 77.1467ZM156.213 70.7267C154.848 70.7267 154.038 71.5067 153.798 72.5417V70.8017H151.878V78.6017H153.798V74.3267C153.993 73.1867 154.758 72.4517 156.363 72.4517C156.453 72.4517 156.573 72.4517 156.843 72.4667V70.7717C156.573 70.7267 156.378 70.7267 156.213 70.7267ZM158.016 67.9667V69.4817H159.936V67.9667H158.016ZM158.016 70.8017V78.6017H159.936V70.8017H158.016ZM168.611 74.9267C168.611 71.8817 166.886 70.7267 164.966 70.7267C163.136 70.7267 161.171 71.8817 161.171 74.7317C161.171 77.5667 163.136 78.7067 164.951 78.7067C166.751 78.7067 167.891 78.0017 168.386 76.5017H166.691C166.406 77.0117 165.911 77.2667 165.056 77.2667C163.886 77.2667 163.166 76.6967 163.016 75.3167H168.596C168.611 75.1817 168.611 75.0617 168.611 74.9267ZM163.016 74.1167C163.181 72.8117 163.901 72.1667 164.966 72.1667C166.091 72.1667 166.751 72.9017 166.781 74.1167H163.016ZM173.156 69.3467C173.426 69.3467 173.696 69.3917 173.861 69.4367V68.0267C173.636 67.9367 173.126 67.8617 172.706 67.8617C171.656 67.8617 170.291 68.0417 170.291 70.3517V70.8017H169.181V72.3167H170.291V78.6017H172.211V72.3167H173.801V70.8017H172.211V70.3967C172.211 69.6467 172.436 69.3467 173.156 69.3467Z" fill="#333C66"/>
<rect x="67.6016" y="93.8216" width="323.28" height="87.4054" rx="5.98667" fill="#F4F4F7"/>
<path d="M81.521 108.587V106.651H84.6234V105.527H81.521V103.715H85.144V102.507H80.1364V109.795H85.2481V108.587H81.521ZM89.2478 104.329C88.1963 104.329 87.6029 105.121 87.4572 105.506V104.381H86.1246V109.795H87.4572V106.557C87.5196 106.162 87.9257 105.433 88.7585 105.433C89.3832 105.433 89.8412 105.745 89.8412 106.599V109.795H91.1738V106.526C91.1738 104.892 90.3409 104.329 89.2478 104.329ZM94.5472 108.816C94.11 108.816 93.9746 108.608 93.9746 108.285V105.433H95.0573V104.381H93.9746V103.028H92.642V104.381H91.7675V105.433H92.642V108.431C92.642 109.608 93.3083 109.857 94.1724 109.857C94.5472 109.857 94.8804 109.795 95.1094 109.712V108.743C94.8804 108.796 94.7034 108.816 94.5472 108.816ZM100.778 107.244C100.778 105.131 99.5807 104.329 98.2481 104.329C96.978 104.329 95.6142 105.131 95.6142 107.109C95.6142 109.077 96.978 109.868 98.2377 109.868C99.487 109.868 100.278 109.379 100.622 108.337H99.4454C99.2476 108.691 98.904 108.868 98.3106 108.868C97.4986 108.868 96.9989 108.473 96.8947 107.515H100.768C100.778 107.421 100.778 107.338 100.778 107.244ZM96.8947 106.682C97.0093 105.776 97.509 105.329 98.2481 105.329C99.0289 105.329 99.487 105.839 99.5078 106.682H96.8947ZM104.638 104.329C103.69 104.329 103.128 104.871 102.961 105.589V104.381H101.629V109.795H102.961V106.828C103.097 106.037 103.628 105.527 104.742 105.527C104.804 105.527 104.887 105.527 105.075 105.537V104.361C104.887 104.329 104.752 104.329 104.638 104.329ZM112.362 104.381L110.946 108.14L109.593 104.381H108.219L110.197 109.285C110.301 109.576 110.332 109.712 110.238 109.941C110.04 110.378 109.738 110.784 108.812 110.68V111.815C110.165 111.96 110.832 111.45 111.467 109.889L113.715 104.381H112.362ZM116.477 104.329C115.321 104.329 113.843 105.11 113.843 107.099C113.843 109.077 115.321 109.868 116.477 109.868C117.633 109.868 119.121 109.077 119.121 107.099C119.121 105.11 117.633 104.329 116.477 104.329ZM117.83 107.099C117.83 108.275 117.185 108.785 116.477 108.785C115.769 108.785 115.124 108.275 115.124 107.099C115.124 105.912 115.769 105.412 116.477 105.412C117.185 105.412 117.83 105.912 117.83 107.099ZM123.644 104.381V107.63C123.572 108.025 123.165 108.764 122.333 108.764C121.718 108.764 121.26 108.442 121.26 107.588V104.381H119.928V107.661C119.928 109.295 120.75 109.868 121.854 109.868C122.895 109.868 123.499 109.056 123.644 108.681V109.795H124.977V104.381H123.644ZM129.099 104.329C128.151 104.329 127.589 104.871 127.423 105.589V104.381H126.09V109.795H127.423V106.828C127.558 106.037 128.089 105.527 129.203 105.527C129.265 105.527 129.349 105.527 129.536 105.537V104.361C129.349 104.329 129.213 104.329 129.099 104.329ZM135.418 108.785C134.626 108.785 134.064 108.223 134.064 107.099C134.064 105.995 134.616 105.412 135.407 105.412C136.074 105.412 136.365 105.724 136.5 106.203H137.718C137.427 104.715 136.375 104.329 135.397 104.329C134.158 104.329 132.784 105.1 132.784 107.099C132.784 109.118 134.168 109.868 135.407 109.868C136.365 109.868 137.489 109.472 137.771 107.942H136.563C136.407 108.452 136.094 108.785 135.418 108.785ZM143.207 108.525V106.536C143.207 104.975 142.541 104.329 140.906 104.329C139.522 104.329 138.741 104.892 138.647 105.974H139.896C139.98 105.485 140.355 105.308 140.896 105.308C141.396 105.308 141.874 105.454 141.874 106.224V106.245C141.552 106.432 140.917 106.505 140.302 106.609C139.241 106.797 138.335 107.067 138.335 108.213C138.335 109.379 139.189 109.868 140.146 109.868C141.437 109.868 141.916 109.035 142.01 108.868V109.004C142.01 109.576 142.478 109.837 143.103 109.837C143.301 109.837 143.436 109.826 143.592 109.753V108.983C143.342 108.973 143.207 108.827 143.207 108.525ZM141.874 108.088C141.75 108.296 141.333 108.91 140.5 108.91C139.928 108.91 139.667 108.567 139.667 108.171C139.667 107.754 139.886 107.536 140.5 107.401C141.052 107.286 141.51 107.224 141.874 107.047V108.088ZM150.98 104.329C150.064 104.329 149.377 104.985 149.148 105.537C148.877 104.662 148.211 104.329 147.44 104.329C146.41 104.329 145.858 105.121 145.733 105.506V104.381H144.4V109.795H145.733V106.568C145.775 106.141 146.149 105.433 146.951 105.433C147.513 105.433 147.95 105.766 147.95 106.651V109.795H149.283V106.536C149.283 106.182 149.679 105.433 150.511 105.433C151.074 105.433 151.5 105.766 151.5 106.651V109.795H152.833V106.62C152.833 104.944 152 104.329 150.98 104.329ZM156.851 104.329C156.071 104.329 155.498 104.746 155.279 105.152V104.381H153.947V111.773H155.279V108.993C155.342 109.243 155.81 109.868 156.82 109.868C157.84 109.868 159.236 109.087 159.236 107.088C159.236 105.121 157.851 104.329 156.851 104.329ZM156.55 108.785C155.821 108.785 155.217 108.244 155.217 107.088C155.217 105.933 155.821 105.412 156.55 105.412C157.278 105.412 157.945 105.901 157.945 107.088C157.945 108.285 157.278 108.785 156.55 108.785ZM164.71 108.525V106.536C164.71 104.975 164.043 104.329 162.409 104.329C161.024 104.329 160.243 104.892 160.15 105.974H161.399C161.482 105.485 161.857 105.308 162.398 105.308C162.898 105.308 163.377 105.454 163.377 106.224V106.245C163.054 106.432 162.419 106.505 161.805 106.609C160.743 106.797 159.837 107.067 159.837 108.213C159.837 109.379 160.691 109.868 161.649 109.868C162.94 109.868 163.419 109.035 163.512 108.868V109.004C163.512 109.576 163.981 109.837 164.606 109.837C164.803 109.837 164.939 109.826 165.095 109.753V108.983C164.845 108.973 164.71 108.827 164.71 108.525ZM163.377 108.088C163.252 108.296 162.836 108.91 162.003 108.91C161.43 108.91 161.17 108.567 161.17 108.171C161.17 107.754 161.389 107.536 162.003 107.401C162.555 107.286 163.013 107.224 163.377 107.047V108.088ZM165.852 102.414V103.465H167.185V102.414H165.852ZM165.852 104.381V109.795H167.185V104.381H165.852ZM171.956 104.35V105.162C171.738 104.746 171.165 104.329 170.384 104.329C169.385 104.329 168.042 105.121 168.042 107.088C168.042 109.077 169.385 109.857 170.416 109.857C171.425 109.857 171.884 109.16 171.956 108.9V109.68C171.956 110.617 171.498 110.992 170.541 110.992C169.791 110.992 169.385 110.69 169.146 110.409L168.313 110.93C168.677 111.627 169.552 112.085 170.676 112.085C171.717 112.085 173.289 111.69 173.289 109.68V104.35H171.956ZM170.697 108.775C169.968 108.775 169.364 108.254 169.364 107.088C169.364 105.922 169.968 105.412 170.697 105.412C171.425 105.412 172.019 105.933 172.019 107.088C172.019 108.244 171.425 108.775 170.697 108.775ZM177.536 104.329C176.484 104.329 175.891 105.121 175.745 105.506V104.381H174.412V109.795H175.745V106.557C175.808 106.162 176.214 105.433 177.046 105.433C177.671 105.433 178.129 105.745 178.129 106.599V109.795H179.462V106.526C179.462 104.892 178.629 104.329 177.536 104.329ZM186.274 104.329C185.493 104.329 184.921 104.746 184.702 105.162V102.445H183.369V109.795H184.702V108.9C184.764 109.16 185.233 109.868 186.243 109.868C187.294 109.868 188.658 109.087 188.658 107.088C188.658 105.121 187.294 104.329 186.274 104.329ZM185.993 108.785C185.264 108.785 184.639 108.244 184.639 107.088C184.639 105.933 185.264 105.412 185.993 105.412C186.742 105.412 187.367 105.912 187.367 107.088C187.367 108.275 186.742 108.785 185.993 108.785ZM192.529 104.329C191.582 104.329 191.019 104.871 190.853 105.589V104.381H189.52V109.795H190.853V106.828C190.988 106.037 191.519 105.527 192.633 105.527C192.696 105.527 192.779 105.527 192.966 105.537V104.361C192.779 104.329 192.643 104.329 192.529 104.329ZM193.78 102.414V103.465H195.113V102.414H193.78ZM193.78 104.381V109.795H195.113V104.381H193.78ZM201.134 107.244C201.134 105.131 199.936 104.329 198.604 104.329C197.334 104.329 195.97 105.131 195.97 107.109C195.97 109.077 197.334 109.868 198.594 109.868C199.843 109.868 200.634 109.379 200.978 108.337H199.801C199.603 108.691 199.26 108.868 198.666 108.868C197.854 108.868 197.355 108.473 197.251 107.515H201.123C201.134 107.421 201.134 107.338 201.134 107.244ZM197.251 106.682C197.365 105.776 197.865 105.329 198.604 105.329C199.385 105.329 199.843 105.839 199.864 106.682H197.251ZM204.288 103.372C204.475 103.372 204.663 103.403 204.777 103.434V102.455C204.621 102.393 204.267 102.341 203.976 102.341C203.247 102.341 202.299 102.466 202.299 104.069V104.381H201.529V105.433H202.299V109.795H203.632V105.433H204.736V104.381H203.632V104.1C203.632 103.58 203.788 103.372 204.288 103.372ZM211.462 104.329C210.411 104.329 209.817 105.121 209.671 105.506V102.445H208.339V109.795H209.671V106.557C209.734 106.162 210.14 105.433 210.973 105.433C211.597 105.433 212.055 105.745 212.055 106.599V109.795H213.388V106.526C213.388 104.892 212.555 104.329 211.462 104.329ZM219.403 107.244C219.403 105.131 218.206 104.329 216.874 104.329C215.603 104.329 214.24 105.131 214.24 107.109C214.24 109.077 215.603 109.868 216.863 109.868C218.112 109.868 218.904 109.379 219.247 108.337H218.071C217.873 108.691 217.529 108.868 216.936 108.868C216.124 108.868 215.624 108.473 215.52 107.515H219.393C219.403 107.421 219.403 107.338 219.403 107.244ZM215.52 106.682C215.635 105.776 216.134 105.329 216.874 105.329C217.654 105.329 218.112 105.839 218.133 106.682H215.52ZM223.263 104.329C222.316 104.329 221.753 104.871 221.587 105.589V104.381H220.254V109.795H221.587V106.828C221.722 106.037 222.253 105.527 223.367 105.527C223.43 105.527 223.513 105.527 223.7 105.537V104.361C223.513 104.329 223.377 104.329 223.263 104.329ZM229.214 107.244C229.214 105.131 228.017 104.329 226.684 104.329C225.414 104.329 224.051 105.131 224.051 107.109C224.051 109.077 225.414 109.868 226.674 109.868C227.923 109.868 228.715 109.379 229.058 108.337H227.882C227.684 108.691 227.34 108.868 226.747 108.868C225.935 108.868 225.435 108.473 225.331 107.515H229.204C229.214 107.421 229.214 107.338 229.214 107.244ZM225.331 106.682C225.446 105.776 225.945 105.329 226.684 105.329C227.465 105.329 227.923 105.839 227.944 106.682H225.331ZM229.871 108.254V109.795H231.339V108.254H229.871ZM232.382 108.254V109.795H233.85V108.254H232.382ZM234.893 108.254V109.795H236.361V108.254H234.893Z" fill="black" fill-opacity="0.3"/>
<rect x="67.1016" y="93.3216" width="324.28" height="88.4054" rx="6.48667" stroke="black" stroke-opacity="0.1" stroke-miterlimit="1.16083"/>
<g opacity="0.2">
<path d="M71.453 206.928C72.5517 206.928 73.4712 207.032 74.2114 207.24C74.9632 207.437 75.5241 207.767 75.8942 208.229C76.2759 208.68 76.4667 209.293 76.4667 210.068C76.4667 210.531 76.3916 210.953 76.2412 211.335C76.0908 211.716 75.8711 212.029 75.582 212.272C75.3044 212.514 74.9632 212.671 74.5584 212.74V212.827C74.9747 212.908 75.3506 213.052 75.686 213.26C76.0215 213.469 76.2875 213.769 76.4841 214.163C76.6807 214.556 76.779 215.076 76.779 215.724C76.779 216.476 76.594 217.123 76.2239 217.667C75.8653 218.199 75.3449 218.61 74.6625 218.899C73.9801 219.176 73.1705 219.315 72.2337 219.315H67.6016V206.928H71.453ZM71.7479 211.838C72.5112 211.838 73.0375 211.716 73.3266 211.474C73.6273 211.231 73.7777 210.878 73.7777 210.415C73.7777 209.941 73.6042 209.6 73.2572 209.392C72.9103 209.184 72.3609 209.079 71.6091 209.079H70.2212V211.838H71.7479ZM70.2212 213.92V217.147H71.9387C72.7252 217.147 73.2746 216.996 73.5869 216.695C73.8991 216.383 74.0553 215.973 74.0553 215.464C74.0553 215.151 73.9859 214.88 73.8471 214.648C73.7199 214.417 73.4943 214.238 73.1705 214.111C72.8466 213.983 72.4071 213.92 71.852 213.92H70.2212Z" fill="black"/>
<path d="M93.2594 219.315H87.6211V217.823L89.1304 217.129V209.114L87.6211 208.42V206.928H93.2594V208.42L91.7501 209.114V217.129L93.2594 217.823V219.315Z" fill="black"/>
<circle cx="105.73" cy="206.846" r="1.62644" fill="black"/>
<path d="M110.609 206.846H121.994" stroke="black" stroke-width="2.16858" stroke-linecap="round"/>
<circle cx="105.73" cy="212.267" r="1.62644" fill="black"/>
<path d="M110.609 212.267H121.994" stroke="black" stroke-width="2.16858" stroke-linecap="round"/>
<circle cx="105.73" cy="217.689" r="1.62644" fill="black"/>
<path d="M110.609 217.689H121.994" stroke="black" stroke-width="2.16858" stroke-linecap="round"/>
<path d="M134.156 209.374V208.839C134.533 208.789 134.803 208.629 134.966 208.359H135.456V210.994H134.796V209.129C134.663 209.232 134.45 209.314 134.156 209.374Z" fill="black"/>
<path d="M139.088 209.647H150.473" stroke="black" stroke-width="2.16858" stroke-linecap="round"/>
<path d="M134.026 213.336L133.376 213.231C133.496 212.764 133.819 212.531 134.346 212.531C134.619 212.531 134.836 212.606 134.996 212.756C135.159 212.903 135.241 213.098 135.241 213.341C135.241 213.514 135.194 213.668 135.101 213.801C135.008 213.931 134.828 214.101 134.561 214.311C134.371 214.461 134.256 214.573 134.216 214.646H135.296V215.191H133.336C133.336 214.971 133.401 214.759 133.531 214.556C133.664 214.353 133.831 214.171 134.031 214.011C134.234 213.851 134.373 213.723 134.446 213.626C134.523 213.529 134.561 213.431 134.561 213.331C134.561 213.254 134.536 213.193 134.486 213.146C134.439 213.099 134.379 213.076 134.306 213.076C134.159 213.076 134.066 213.163 134.026 213.336Z" fill="black"/>
<path d="M139.088 213.731H150.473" stroke="black" stroke-width="2.16858" stroke-linecap="round"/>
<path d="M133.706 217.545H133.771C133.858 217.545 133.929 217.518 133.986 217.465C134.043 217.408 134.071 217.335 134.071 217.245C134.071 217.178 134.051 217.118 134.011 217.065C133.971 217.008 133.913 216.98 133.836 216.98C133.706 216.98 133.614 217.043 133.561 217.17L132.941 217.07C133.088 216.66 133.394 216.455 133.861 216.455C134.088 216.455 134.288 216.517 134.461 216.64C134.634 216.76 134.721 216.935 134.721 217.165C134.721 217.415 134.598 217.598 134.351 217.715C134.504 217.765 134.626 217.853 134.716 217.98C134.806 218.103 134.851 218.243 134.851 218.4C134.851 218.627 134.758 218.813 134.571 218.96C134.388 219.103 134.148 219.175 133.851 219.175C133.594 219.175 133.371 219.112 133.181 218.985C132.994 218.855 132.879 218.685 132.836 218.475L133.456 218.36C133.473 218.457 133.516 218.537 133.586 218.6C133.659 218.663 133.748 218.695 133.851 218.695C133.948 218.695 134.028 218.665 134.091 218.605C134.158 218.545 134.191 218.465 134.191 218.365C134.191 218.248 134.154 218.157 134.081 218.09C134.008 218.02 133.898 217.985 133.751 217.985L133.656 217.99L133.706 217.545Z" fill="black"/>
<path d="M138.836 217.815H150.221" stroke="black" stroke-width="2.16858" stroke-linecap="round"/>
</g>
<rect x="283.412" y="194.398" width="107.47" height="35.739" rx="17.8695" fill="#FF6435"/>
<path d="M310.068 212.05L308.702 211.789C307.843 211.62 307.583 211.178 307.583 210.67C307.583 210.15 308.025 209.486 309.131 209.486C310.185 209.486 310.745 209.942 310.862 210.735H312.657C312.488 208.992 311.161 208.042 309.131 208.042C307.075 208.042 305.8 209.096 305.8 210.618C305.8 212.232 306.906 212.882 308.429 213.169L309.665 213.403C310.589 213.585 311.096 213.884 311.096 214.665C311.096 215.368 310.432 215.94 309.274 215.94C308.025 215.94 307.544 215.224 307.401 214.379H305.605C305.735 216.265 307.062 217.384 309.261 217.384C311.343 217.384 312.905 216.421 312.905 214.678C312.905 213.156 312.033 212.453 310.068 212.05ZM318.001 210.436C316.687 210.436 315.945 211.425 315.763 211.907V208.081H314.098V217.267H315.763V213.221C315.841 212.726 316.349 211.815 317.39 211.815C318.17 211.815 318.743 212.206 318.743 213.273V217.267H320.408V213.182C320.408 211.139 319.367 210.436 318.001 210.436ZM327.562 215.68V213.195C327.562 211.243 326.729 210.436 324.686 210.436C322.956 210.436 321.98 211.139 321.863 212.492H323.424C323.528 211.88 323.997 211.659 324.673 211.659C325.298 211.659 325.896 211.841 325.896 212.804V212.83C325.493 213.065 324.699 213.156 323.932 213.286C322.605 213.52 321.473 213.858 321.473 215.289C321.473 216.747 322.539 217.358 323.737 217.358C325.35 217.358 325.948 216.317 326.066 216.109V216.278C326.066 216.994 326.651 217.319 327.432 217.319C327.679 217.319 327.848 217.306 328.043 217.215V216.252C327.731 216.239 327.562 216.057 327.562 215.68ZM325.896 215.133C325.74 215.394 325.22 216.161 324.179 216.161C323.463 216.161 323.138 215.732 323.138 215.237C323.138 214.717 323.411 214.444 324.179 214.275C324.869 214.131 325.441 214.053 325.896 213.832V215.133ZM332.814 210.436C331.63 210.436 330.927 211.113 330.719 212.011V210.501H329.053V217.267H330.719V213.559C330.888 212.57 331.551 211.933 332.944 211.933C333.022 211.933 333.126 211.933 333.36 211.946V210.475C333.126 210.436 332.957 210.436 332.814 210.436ZM340.252 214.079C340.252 211.438 338.755 210.436 337.09 210.436C335.502 210.436 333.798 211.438 333.798 213.91C333.798 216.369 335.502 217.358 337.077 217.358C338.638 217.358 339.627 216.747 340.056 215.446H338.586C338.339 215.888 337.91 216.109 337.168 216.109C336.153 216.109 335.528 215.615 335.398 214.418H340.239C340.252 214.301 340.252 214.197 340.252 214.079ZM335.398 213.377C335.541 212.245 336.166 211.685 337.09 211.685C338.066 211.685 338.638 212.323 338.664 213.377H335.398Z" fill="white"/>
<path d="M356.215 216.085L363.85 208.449" stroke="white" stroke-width="1.22169" stroke-linecap="round" stroke-linejoin="round"/>
<path d="M356.215 208.449H363.85V216.085" stroke="white" stroke-width="1.22169" stroke-linecap="round" stroke-linejoin="round"/>
</g>
<rect x="31.4013" y="27.4013" width="395.681" height="238.936" rx="15.9823" stroke="url(#paint0_radial_2025_1565)" stroke-opacity="0.39" stroke-width="1.19733" shape-rendering="crispEdges"/>
<rect x="31.4013" y="27.4013" width="395.681" height="238.936" rx="15.9823" stroke="url(#paint1_radial_2025_1565)" stroke-width="1.19733" shape-rendering="crispEdges"/>
<rect x="31.4013" y="27.4013" width="395.681" height="238.936" rx="15.9823" stroke="url(#paint2_radial_2025_1565)" stroke-width="1.19733" shape-rendering="crispEdges"/>
<rect x="31.4013" y="27.4013" width="395.681" height="238.936" rx="15.9823" stroke="url(#paint3_radial_2025_1565)" stroke-opacity="0.5" stroke-width="1.19733" style="mix-blend-mode:overlay" shape-rendering="crispEdges"/>
</g>
<defs>
<filter id="filter0_bd_2025_1565" x="12.8427" y="8.84266" width="432.799" height="276.053" filterUnits="userSpaceOnUse" color-interpolation-filters="sRGB">
<feFlood flood-opacity="0" result="BackgroundImageFix"/>
<feGaussianBlur in="BackgroundImageFix" stdDeviation="8.98001"/>
<feComposite in2="SourceAlpha" operator="in" result="effect1_backgroundBlur_2025_1565"/>
<feColorMatrix in="SourceAlpha" type="matrix" values="0 0 0 0 0 0 0 0 0 0 0 0 0 0 0 0 0 0 127 0" result="hardAlpha"/>
<feOffset/>
<feGaussianBlur stdDeviation="5.98667"/>
<feComposite in2="hardAlpha" operator="out"/>
<feColorMatrix type="matrix" values="0 0 0 0 0.92 0 0 0 0 0.214059 0 0 0 0 0 0 0 0 0.15 0"/>
<feBlend mode="normal" in2="effect1_backgroundBlur_2025_1565" result="effect2_dropShadow_2025_1565"/>
<feBlend mode="normal" in="SourceGraphic" in2="effect2_dropShadow_2025_1565" result="shape"/>
</filter>
<filter id="filter1_dd_2025_1565" x="0.0408287" y="-3.95862" width="458.401" height="301.656" filterUnits="userSpaceOnUse" color-interpolation-filters="sRGB">
<feFlood flood-opacity="0" result="BackgroundImageFix"/>
<feColorMatrix in="SourceAlpha" type="matrix" values="0 0 0 0 0 0 0 0 0 0 0 0 0 0 0 0 0 0 127 0" result="hardAlpha"/>
<feOffset/>
<feGaussianBlur stdDeviation="20.7686"/>
<feComposite in2="hardAlpha" operator="out"/>
<feColorMatrix type="matrix" values="0 0 0 0 1 0 0 0 0 0.392157 0 0 0 0 0.207843 0 0 0 1 0"/>
<feBlend mode="overlay" in2="BackgroundImageFix" result="effect1_dropShadow_2025_1565"/>
<feColorMatrix in="SourceAlpha" type="matrix" values="0 0 0 0 0 0 0 0 0 0 0 0 0 0 0 0 0 0 127 0" result="hardAlpha"/>
<feOffset/>
<feGaussianBlur stdDeviation="20.7686"/>
<feComposite in2="hardAlpha" operator="out"/>
<feColorMatrix type="matrix" values="0 0 0 0 0.5 0 0 0 0 0.196078 0 0 0 0 0.103922 0 0 0 1 0"/>
<feBlend mode="overlay" in2="effect1_dropShadow_2025_1565" result="effect2_dropShadow_2025_1565"/>
<feBlend mode="normal" in="SourceGraphic" in2="effect2_dropShadow_2025_1565" result="shape"/>
</filter>
<radialGradient id="paint0_radial_2025_1565" cx="0" cy="0" r="1" gradientUnits="userSpaceOnUse" gradientTransform="translate(95.7963 28) rotate(42.342) scale(88.6875 127.942)">
<stop stop-color="white"/>
<stop offset="1" stop-color="white" stop-opacity="0"/>
</radialGradient>
<radialGradient id="paint1_radial_2025_1565" cx="0" cy="0" r="1" gradientUnits="userSpaceOnUse" gradientTransform="translate(54.5 230.445) rotate(-22.8593) scale(92.7874 63.7043)">
<stop stop-color="white" stop-opacity="0.4"/>
<stop offset="1" stop-color="white" stop-opacity="0"/>
</radialGradient>
<radialGradient id="paint2_radial_2025_1565" cx="0" cy="0" r="1" gradientUnits="userSpaceOnUse" gradientTransform="translate(392.129 265.926) rotate(-146.033) scale(49.2789 41.1648)">
<stop stop-color="white" stop-opacity="0.5"/>
<stop offset="1" stop-color="white" stop-opacity="0"/>
</radialGradient>
<radialGradient id="paint3_radial_2025_1565" cx="0" cy="0" r="1" gradientUnits="userSpaceOnUse" gradientTransform="translate(426.484 87.7359) rotate(156.851) scale(193.508 122.447)">
<stop stop-color="white"/>
<stop offset="1" stop-color="white" stop-opacity="0"/>
</radialGradient>
</defs>
</svg>
