<svg width="681" height="689" viewBox="0 0 681 689" fill="none" xmlns="http://www.w3.org/2000/svg">
<path d="M349.424 105.379C343.902 102.191 337.098 102.191 331.576 105.379L137.877 217.211C132.355 220.399 128.953 226.291 128.953 232.668V456.332C128.953 462.709 132.355 468.601 137.877 471.789L331.576 583.621C337.098 586.809 343.902 586.809 349.424 583.621L543.123 471.789C548.645 468.601 552.047 462.709 552.047 456.332V232.668C552.047 226.291 548.645 220.399 543.123 217.211L349.424 105.379Z" stroke="#FF6435" stroke-width="10"/>
<path d="M348.97 68.2986C343.734 65.2534 337.266 65.2534 332.03 68.2986L107.154 199.077C101.967 202.093 98.776 207.641 98.776 213.641V475.359C98.776 481.359 101.967 486.907 107.154 489.923L332.03 620.701C337.266 623.747 343.734 623.747 348.97 620.701L573.846 489.923C579.033 486.907 582.224 481.359 582.224 475.359V213.641C582.224 207.641 579.033 202.093 573.846 199.077L348.97 68.2986Z" stroke="#FF6435" stroke-opacity="0.8" stroke-width="8"/>
<path d="M348.463 36.1574C343.54 33.2966 337.46 33.2966 332.537 36.1574L79.0827 183.441C74.201 186.278 71.1972 191.498 71.1972 197.144V491.856C71.1972 497.502 74.201 502.722 79.0827 505.559L332.537 652.843C337.46 655.703 343.54 655.703 348.463 652.843L601.917 505.559C606.799 502.722 609.803 497.502 609.803 491.856V197.144C609.803 191.498 606.799 186.278 601.917 183.441L348.463 36.1574Z" stroke="#FF6435" stroke-opacity="0.6" stroke-width="6"/>
<path d="M347.94 4.99725C343.338 2.33228 337.662 2.33229 333.06 4.99726L51.0261 168.308C46.4413 170.962 43.6183 175.859 43.6183 181.157V507.843C43.6183 513.141 46.4413 518.038 51.0261 520.692L333.06 684.003C337.662 686.668 343.338 686.668 347.94 684.003L629.974 520.692C634.559 518.038 637.382 513.141 637.382 507.843V181.157C637.382 175.859 634.559 170.962 629.974 168.308L347.94 4.99725Z" stroke="#FF6435" stroke-opacity="0.4" stroke-width="4"/>
</svg>
