<svg width="210" height="127" viewBox="0 0 210 127" fill="none" xmlns="http://www.w3.org/2000/svg">
<g clip-path="url(#clip0_2387_564)">
<g filter="url(#filter0_d_2387_564)">
<rect x="6.85352" y="6.85352" width="196.084" height="113.293" rx="17.4297" fill="white"/>
</g>
<path d="M26.1024 21.1196L25.024 20.9017C24.207 20.7383 23.891 20.3353 23.891 19.8015C23.891 19.2459 24.3268 18.625 25.4161 18.625C26.4401 18.625 26.9303 19.1152 27.0393 19.7906H28.2267C28.0742 18.4616 27.072 17.6664 25.4161 17.6664C23.695 17.6664 22.7145 18.5596 22.7145 19.7688C22.7145 21.0107 23.5533 21.5771 24.8279 21.8277L25.8955 22.0347C26.7016 22.1981 27.2354 22.4922 27.2354 23.2656C27.2354 23.9737 26.6362 24.5184 25.5142 24.5184C24.3268 24.5184 23.8693 23.8539 23.7385 23.0805H22.5511C22.671 24.5402 23.6841 25.4879 25.5033 25.4879C27.2463 25.4879 28.4337 24.66 28.4337 23.2656C28.4337 21.9802 27.6384 21.4246 26.1024 21.1196ZM32.3128 19.6708C31.1472 19.6708 30.4936 20.5749 30.3628 20.9889V17.699H29.2626V25.3899H30.3628V21.9366C30.4609 21.4573 30.9511 20.5967 31.9315 20.5967C32.705 20.5967 33.2278 20.9562 33.2278 22.0129V25.3899H34.3281V21.9693C34.3281 20.2481 33.4566 19.6708 32.3128 19.6708ZM39.9944 24.257V21.8931C39.9944 20.2917 39.2754 19.6708 37.6849 19.6708C36.3123 19.6708 35.5062 20.2154 35.3973 21.2721H36.4431C36.5302 20.7492 36.9442 20.4987 37.674 20.4987C38.4039 20.4987 38.8941 20.7274 38.8941 21.6316V21.6861C38.5237 21.8931 37.7394 21.9802 37.0858 22.0891C35.8548 22.2852 35.0596 22.6665 35.0596 23.7668C35.0596 24.9215 35.8984 25.4661 36.9333 25.4661C38.295 25.4661 38.8723 24.562 38.9922 24.3114V24.5947C38.9922 25.1938 39.3952 25.4335 39.9835 25.4335C40.1469 25.4335 40.2667 25.4226 40.4083 25.3572V24.7036C40.1142 24.7036 39.9944 24.5729 39.9944 24.257ZM38.8941 23.5925C38.7525 23.8539 38.2405 24.66 37.2056 24.66C36.5193 24.66 36.1598 24.2679 36.1598 23.7232C36.1598 23.2003 36.4322 22.9171 37.2383 22.7645C37.9137 22.6447 38.5455 22.5467 38.8941 22.3724V23.5925ZM44.0452 19.6708C42.9885 19.6708 42.3567 20.3026 42.1824 21.0651V19.7252H41.0821V25.3899H42.1824V22.1763C42.3458 21.2503 42.9558 20.6621 44.1214 20.6621C44.1977 20.6621 44.2957 20.6621 44.47 20.673V19.7034C44.2957 19.6708 44.165 19.6708 44.0452 19.6708ZM49.9282 22.6556C49.9282 20.5423 48.719 19.6708 47.3464 19.6708C46.0065 19.6708 44.6557 20.5423 44.6557 22.5794C44.6557 24.5838 45.9847 25.4661 47.3464 25.4661C48.5556 25.4661 49.3291 25.0195 49.743 24.0064H48.7517C48.4685 24.4422 48.0763 24.6273 47.4118 24.6273C46.4531 24.6273 45.8213 24.1262 45.7124 22.9388H49.9173C49.9282 22.8408 49.9282 22.7536 49.9282 22.6556ZM45.7124 22.2199C45.8213 21.0651 46.4749 20.5096 47.3464 20.5096C48.2615 20.5096 48.8497 21.1196 48.8715 22.2199H45.7124ZM57.4056 19.7252L55.7498 24.0718L54.1375 19.7252H53.0046L55.118 24.9977C55.2269 25.2592 55.2269 25.3899 55.118 25.6731C54.8892 26.2287 54.5079 26.6318 53.6147 26.5228V27.4706C54.8456 27.6122 55.5319 27.122 56.1202 25.6622L58.5277 19.7252H57.4056ZM61.1715 19.6708C59.9405 19.6708 58.4808 20.5314 58.4808 22.5685C58.4808 24.6056 59.9405 25.4661 61.1715 25.4661C62.3915 25.4661 63.8513 24.6056 63.8513 22.5685C63.8513 20.5314 62.3915 19.6708 61.1715 19.6708ZM62.7946 22.5685C62.7946 23.9519 62.0103 24.562 61.1715 24.562C60.3327 24.562 59.5374 23.9519 59.5374 22.5685C59.5374 21.185 60.3327 20.5749 61.1715 20.5749C62.0103 20.5749 62.7946 21.185 62.7946 22.5685ZM68.4885 19.7252V23.1894C68.3905 23.6687 67.9003 24.5402 66.9199 24.5402C66.1464 24.5402 65.6235 24.1698 65.6235 23.1131V19.7252H64.5233V23.1567C64.5233 24.8779 65.3948 25.4661 66.5386 25.4661C67.7042 25.4661 68.3578 24.5511 68.4885 24.1371V25.3899H69.5888V19.7252H68.4885ZM73.5569 19.6708C72.5003 19.6708 71.8684 20.3026 71.6941 21.0651V19.7252H70.5939V25.3899H71.6941V22.1763C71.8576 21.2503 72.4676 20.6621 73.6332 20.6621C73.7095 20.6621 73.8075 20.6621 73.9818 20.673V19.7034C73.8075 19.6708 73.6768 19.6708 73.5569 19.6708ZM79.715 24.562C78.8109 24.562 78.0701 23.9302 78.0701 22.5685C78.0701 21.2285 78.8 20.5749 79.7042 20.5749C80.4558 20.5749 80.8589 20.9126 81.055 21.5118H82.0681C81.7521 20.0956 80.7173 19.6708 79.6933 19.6708C78.3969 19.6708 77.0134 20.5096 77.0134 22.5685C77.0134 24.6382 78.4078 25.4661 79.7042 25.4661C80.7281 25.4661 81.8066 25.0413 82.1116 23.5816H81.1094C80.9024 24.2134 80.4885 24.562 79.715 24.562ZM87.4431 24.257V21.8931C87.4431 20.2917 86.7241 19.6708 85.1337 19.6708C83.7611 19.6708 82.9549 20.2154 82.846 21.2721H83.8918C83.9789 20.7492 84.3929 20.4987 85.1228 20.4987C85.8526 20.4987 86.3428 20.7274 86.3428 21.6316V21.6861C85.9725 21.8931 85.1881 21.9802 84.5345 22.0891C83.3035 22.2852 82.5083 22.6665 82.5083 23.7668C82.5083 24.9215 83.3471 25.4661 84.382 25.4661C85.7437 25.4661 86.3211 24.562 86.4409 24.3114V24.5947C86.4409 25.1938 86.8439 25.4335 87.4322 25.4335C87.5956 25.4335 87.7154 25.4226 87.8571 25.3572V24.7036C87.5629 24.7036 87.4431 24.5729 87.4431 24.257ZM86.3428 23.5925C86.2012 23.8539 85.6892 24.66 84.6543 24.66C83.968 24.66 83.6086 24.2679 83.6086 23.7232C83.6086 23.2003 83.8809 22.9171 84.687 22.7645C85.3624 22.6447 85.9943 22.5467 86.3428 22.3724V23.5925ZM95.2849 19.6708C94.2609 19.6708 93.531 20.4006 93.3022 20.9998C93.0299 20.0303 92.3218 19.6708 91.4939 19.6708C90.3719 19.6708 89.7509 20.5749 89.6311 20.9889V19.7252H88.5308V25.3899H89.6311V21.9475C89.7073 21.4464 90.1758 20.5967 91.1235 20.5967C91.8207 20.5967 92.3218 20.978 92.3218 22.0565V25.3899H93.4221V21.9693C93.4221 21.4791 93.9449 20.5967 94.9254 20.5967C95.6226 20.5967 96.1237 20.978 96.1237 22.0565V25.3899H97.2239V22.0238C97.2239 20.2808 96.3524 19.6708 95.2849 19.6708ZM101.104 19.6708C100.276 19.6708 99.6116 20.1065 99.3174 20.673V19.7252H98.2172V27.4597H99.3174V24.3877C99.5026 24.8779 100.08 25.4661 101.082 25.4661C102.237 25.4661 103.609 24.6164 103.609 22.5576C103.609 20.5314 102.237 19.6708 101.104 19.6708ZM100.886 24.562C100.026 24.562 99.263 23.9193 99.263 22.5576C99.263 21.185 100.026 20.5749 100.886 20.5749C101.747 20.5749 102.542 21.1632 102.542 22.5576C102.542 23.9628 101.747 24.562 100.886 24.562ZM109.002 24.257V21.8931C109.002 20.2917 108.283 19.6708 106.693 19.6708C105.32 19.6708 104.514 20.2154 104.405 21.2721H105.451C105.538 20.7492 105.952 20.4987 106.682 20.4987C107.412 20.4987 107.902 20.7274 107.902 21.6316V21.6861C107.532 21.8931 106.747 21.9802 106.094 22.0891C104.863 22.2852 104.067 22.6665 104.067 23.7668C104.067 24.9215 104.906 25.4661 105.941 25.4661C107.303 25.4661 107.88 24.562 108 24.3114V24.5947C108 25.1938 108.403 25.4335 108.991 25.4335C109.155 25.4335 109.274 25.4226 109.416 25.3572V24.7036C109.122 24.7036 109.002 24.5729 109.002 24.257ZM107.902 23.5925C107.76 23.8539 107.248 24.66 106.213 24.66C105.527 24.66 105.168 24.2679 105.168 23.7232C105.168 23.2003 105.44 22.9171 106.246 22.7645C106.921 22.6447 107.553 22.5467 107.902 22.3724V23.5925ZM110.037 17.6664V18.6032H111.137V17.6664H110.037ZM110.037 19.7252V25.3899H111.137V19.7252H110.037ZM116.136 19.7034V20.673C115.842 20.1065 115.177 19.6708 114.338 19.6708C113.216 19.6708 111.866 20.5314 111.866 22.5576C111.866 24.6056 113.216 25.4553 114.36 25.4553C115.373 25.4553 115.94 24.8234 116.136 24.3332V25.3136C116.136 26.4466 115.526 26.8714 114.469 26.8714C113.674 26.8714 113.162 26.5773 112.868 26.196L112.182 26.6427C112.563 27.3398 113.456 27.7865 114.567 27.7865C115.7 27.7865 117.236 27.3398 117.236 25.3136V19.7034H116.136ZM114.578 24.5511C113.718 24.5511 112.955 23.941 112.955 22.5576C112.955 21.1741 113.718 20.5749 114.578 20.5749C115.439 20.5749 116.19 21.185 116.19 22.5576C116.19 23.9193 115.439 24.5511 114.578 24.5511ZM121.289 19.6708C120.124 19.6708 119.47 20.5749 119.339 20.9889V19.7252H118.239V25.3899H119.339V21.9366C119.438 21.4573 119.928 20.5967 120.908 20.5967C121.682 20.5967 122.204 20.9562 122.204 22.0129V25.3899H123.305V21.9693C123.305 20.2481 122.433 19.6708 121.289 19.6708ZM129.935 19.6708C129.107 19.6708 128.442 20.1065 128.148 20.673V17.699H127.048V25.3899H128.148V24.3332C128.334 24.8234 128.911 25.4661 129.913 25.4661C131.09 25.4661 132.44 24.6164 132.44 22.5576C132.44 20.5314 131.079 19.6708 129.935 19.6708ZM129.728 24.562C128.867 24.562 128.094 23.9193 128.094 22.5576C128.094 21.185 128.867 20.5749 129.728 20.5749C130.61 20.5749 131.373 21.1741 131.373 22.5576C131.373 23.9519 130.61 24.562 129.728 24.562ZM136.134 19.6708C135.077 19.6708 134.445 20.3026 134.271 21.0651V19.7252H133.171V25.3899H134.271V22.1763C134.434 21.2503 135.044 20.6621 136.21 20.6621C136.286 20.6621 136.384 20.6621 136.559 20.673V19.7034C136.384 19.6708 136.254 19.6708 136.134 19.6708ZM137.229 17.6664V18.6032H138.33V17.6664H137.229ZM137.229 19.7252V25.3899H138.33V19.7252H137.229ZM144.331 22.6556C144.331 20.5423 143.122 19.6708 141.749 19.6708C140.409 19.6708 139.058 20.5423 139.058 22.5794C139.058 24.5838 140.387 25.4661 141.749 25.4661C142.958 25.4661 143.732 25.0195 144.146 24.0064H143.154C142.871 24.4422 142.479 24.6273 141.814 24.6273C140.856 24.6273 140.224 24.1262 140.115 22.9388H144.32C144.331 22.8408 144.331 22.7536 144.331 22.6556ZM140.115 22.2199C140.224 21.0651 140.878 20.5096 141.749 20.5096C142.664 20.5096 143.252 21.1196 143.274 22.2199H140.115ZM147.187 18.4507C147.404 18.4507 147.633 18.4943 147.786 18.5269V17.7099C147.59 17.6446 147.241 17.5901 146.947 17.5901C146.217 17.5901 145.346 17.7644 145.346 19.2459V19.7252H144.55V20.5967H145.346V25.3899H146.446V20.5967H147.731V19.7252H146.446V19.2677C146.446 18.6795 146.653 18.4507 147.187 18.4507Z" fill="black"/>
<rect x="11.2129" y="35.1768" width="187.369" height="80.6124" rx="15.251" fill="#F9F9F9"/>
<rect width="138.348" height="4.35743" rx="2.17871" transform="matrix(1 0 0 -1 22.1055 62.4106)" fill="#D9D9D9"/>
<rect width="103.489" height="4.35743" rx="2.17871" transform="matrix(1 0 0 -1 22.1055 71.1255)" fill="#D9D9D9"/>
<rect width="120.919" height="4.35743" rx="2.17871" transform="matrix(1 0 0 -1 22.1055 79.8403)" fill="#D9D9D9"/>
<rect width="25.0552" height="4.35743" rx="2.17871" transform="matrix(1 0 0 -1 22.1055 51.5171)" fill="#A0A0A0"/>
<rect opacity="0.9" x="174.614" y="90.7339" width="17.4297" height="17.4297" rx="8.71486" fill="#FF6435"/>
<g clip-path="url(#clip1_2387_564)">
<path d="M186.801 95.977C186.653 95.8289 186.431 95.7782 186.233 95.8496L178.608 98.573C178.402 98.6459 178.26 98.8349 178.247 99.0523C178.234 99.2701 178.352 99.4744 178.547 99.5724L181.045 100.821L184.237 98.5408L181.957 101.734L183.205 104.232C183.298 104.416 183.487 104.532 183.693 104.532C183.704 104.532 183.715 104.532 183.726 104.531C183.944 104.518 184.133 104.377 184.206 104.171L186.93 96.5451C187 96.3474 186.95 96.1257 186.801 95.977Z" fill="white"/>
</g>
</g>
<rect x="0.63416" y="0.63416" width="208.523" height="125.732" rx="19.6496" stroke="url(#paint0_radial_2387_564)" stroke-opacity="0.39" stroke-width="0.731679"/>
<rect x="0.63416" y="0.63416" width="208.523" height="125.732" rx="19.6496" stroke="url(#paint1_radial_2387_564)" stroke-width="0.731679"/>
<rect x="0.63416" y="0.63416" width="208.523" height="125.732" rx="19.6496" stroke="url(#paint2_radial_2387_564)" stroke-width="0.731679"/>
<rect x="0.63416" y="0.63416" width="208.523" height="125.732" rx="19.6496" stroke="url(#paint3_radial_2387_564)" stroke-opacity="0.5" stroke-width="0.731679" style="mix-blend-mode:overlay"/>
<defs>
<filter id="filter0_d_2387_564" x="-11.6656" y="3.58545" width="233.122" height="150.331" filterUnits="userSpaceOnUse" color-interpolation-filters="sRGB">
<feFlood flood-opacity="0" result="BackgroundImageFix"/>
<feColorMatrix in="SourceAlpha" type="matrix" values="0 0 0 0 0 0 0 0 0 0 0 0 0 0 0 0 0 0 127 0" result="hardAlpha"/>
<feMorphology radius="7.6255" operator="erode" in="SourceAlpha" result="effect1_dropShadow_2387_564"/>
<feOffset dy="15.251"/>
<feGaussianBlur stdDeviation="13.0723"/>
<feComposite in2="hardAlpha" operator="out"/>
<feColorMatrix type="matrix" values="0 0 0 0 0 0 0 0 0 0 0 0 0 0 0 0 0 0 0.1 0"/>
<feBlend mode="normal" in2="BackgroundImageFix" result="effect1_dropShadow_2387_564"/>
<feBlend mode="normal" in="SourceGraphic" in2="effect1_dropShadow_2387_564" result="shape"/>
</filter>
<radialGradient id="paint0_radial_2387_564" cx="0" cy="0" r="1" gradientUnits="userSpaceOnUse" gradientTransform="translate(34.6042 1.00001) rotate(42.2903) scale(46.677 67.3259)">
<stop stop-color="white"/>
<stop offset="1" stop-color="white" stop-opacity="0"/>
</radialGradient>
<radialGradient id="paint1_radial_2387_564" cx="0" cy="0" r="1" gradientUnits="userSpaceOnUse" gradientTransform="translate(18.2398 107.766) rotate(-55.7491) scale(57.5865 41.0161)">
<stop stop-color="white"/>
<stop offset="1" stop-color="white" stop-opacity="0"/>
</radialGradient>
<radialGradient id="paint2_radial_2387_564" cx="0" cy="0" r="1" gradientUnits="userSpaceOnUse" gradientTransform="translate(190.695 126.098) rotate(-146.081) scale(25.9426 21.6562)">
<stop stop-color="white" stop-opacity="0.5"/>
<stop offset="1" stop-color="white" stop-opacity="0"/>
</radialGradient>
<radialGradient id="paint3_radial_2387_564" cx="0" cy="0" r="1" gradientUnits="userSpaceOnUse" gradientTransform="translate(208.791 32.4084) rotate(156.888) scale(101.9 64.3993)">
<stop stop-color="white"/>
<stop offset="1" stop-color="white" stop-opacity="0"/>
</radialGradient>
<clipPath id="clip0_2387_564">
<rect x="1" y="1" width="207.791" height="125" rx="19.2837" fill="white"/>
</clipPath>
<clipPath id="clip1_2387_564">
<rect width="8.71486" height="8.71486" fill="white" transform="translate(178.245 95.8174)"/>
</clipPath>
</defs>
</svg>
