<svg width="74" height="30" viewBox="0 0 74 30" fill="none" xmlns="http://www.w3.org/2000/svg">
<path d="M31.4511 11.5191C30.9498 11.8895 30.4525 12.2626 29.9493 12.6289C27.7513 14.2257 25.5509 15.8199 23.3529 17.4167C22.8822 17.7586 22.4114 18.1005 21.9542 18.4572C21.8837 18.5129 21.8254 18.6689 21.8525 18.7516C22.0954 19.5291 22.3619 20.2996 22.6109 21.0744C22.9121 22.0078 23.1997 22.9459 23.5002 23.8787C23.8034 24.812 24.1175 25.7414 24.4221 26.6734C24.7639 27.72 25.1018 28.7681 25.4381 29.8142C25.4511 29.8542 25.4396 29.8996 25.4396 29.9946C25.1764 29.8101 24.9443 29.6513 24.7171 29.4878C22.8706 28.1515 21.0248 26.8172 19.1797 25.4795C18.1099 24.7035 17.0389 23.9315 15.9779 23.1426C15.7757 22.9927 15.6483 23.0063 15.4536 23.1487C13.6715 24.4539 11.8807 25.7502 10.0912 27.0465C8.78066 27.9949 7.4694 28.9391 6.15617 29.8847C6.11407 29.9146 6.06656 29.9369 5.95671 30C6.04214 29.7097 6.10183 29.4818 6.17443 29.2565C6.43285 28.4452 6.6703 27.6258 6.96876 26.828C7.08544 26.5194 7.3256 26.2488 7.54061 25.9848C9.64752 23.4065 11.9743 21.039 14.4509 18.8174C16.1094 17.3284 17.8216 15.9019 19.6179 14.5798C19.6789 14.5344 19.7149 14.4543 19.793 14.3519C19.3466 14.455 18.9199 14.5221 18.5149 14.6571C17.2932 15.0594 16.0674 15.4549 14.8667 15.9135C13.1614 16.566 11.5442 17.4086 9.97854 18.3474C9.60139 18.5726 9.60814 18.5753 9.23847 18.3039C7.17901 16.7946 5.11954 15.288 3.06008 13.7793C2.09752 13.0746 1.13489 12.3704 0.172329 11.665C0.10853 11.6181 0.0508926 11.5625 0 11.4458H0.427381C4.17048 11.4444 7.91431 11.4431 11.6575 11.4486C11.8711 11.45 11.9905 11.4079 12.0604 11.1827C12.5202 9.7364 12.9904 8.29424 13.4639 6.8507C13.8316 5.72461 14.2087 4.60262 14.5764 3.47793C14.9298 2.40478 15.2764 1.33025 15.6264 0.257103C15.6482 0.191324 15.6794 0.130898 15.737 0C15.9385 0.617311 16.1148 1.16606 16.296 1.71414C16.5592 2.51185 16.8271 3.30824 17.089 4.10734C17.4397 5.18048 17.7863 6.25502 18.1356 7.32817C18.4565 8.31514 18.7821 9.3008 19.1036 10.2857C19.1972 10.5754 19.2969 10.8637 19.3729 11.1581C19.4264 11.371 19.5221 11.4504 19.7555 11.4498C23.555 11.4423 27.3537 11.4444 31.1525 11.4457C31.2475 11.4458 31.3439 11.454 31.4511 11.5191Z" fill="#FF8C00"/>
<path d="M44.8104 14.3002C45.1088 14.0465 45.2716 13.7547 45.3524 13.4122C45.4576 12.9638 45.33 12.5928 44.9569 12.3317C44.7548 12.1892 44.5255 12.0616 44.2888 11.9966C43.8065 11.863 43.3154 11.736 42.8188 11.6777C41.7646 11.5543 40.7173 11.6174 39.7079 11.983C38.4665 12.4334 37.6091 13.2583 37.2719 14.5525C37.1749 14.9242 37.1233 15.315 37.1125 15.699C37.0724 17.1392 37.6375 18.2658 38.9223 18.9849C39.2704 19.179 39.6312 19.3553 39.9995 19.5087C40.6317 19.7711 41.2802 19.9963 41.911 20.263C42.2245 20.3953 42.527 20.5641 42.8119 20.75C43.7046 21.3334 43.5608 22.8366 42.5785 23.2722C42.2394 23.4228 41.8879 23.5083 41.5217 23.5408C40.7165 23.6113 39.9221 23.5347 39.1379 23.3577C38.5953 23.2356 38.058 23.0863 37.4868 22.9405C37.2317 23.6005 36.9753 24.2626 36.7122 24.9416C36.8526 25.0007 36.9544 25.0501 37.0609 25.0854C38.5627 25.584 40.1039 25.8119 41.6858 25.7102C42.4877 25.6593 43.2731 25.5067 44.0092 25.1669C45.0552 24.6839 45.7566 23.9032 46.0504 22.7832C46.1141 22.5424 46.15 22.2927 46.1805 22.0444C46.3603 20.5663 45.8888 19.3772 44.604 18.555C44.4881 18.4803 44.3762 18.399 44.2541 18.3393C43.6775 18.0626 43.1037 17.7817 42.5196 17.5239C42.0183 17.3028 41.4973 17.1265 40.9994 16.8999C40.7003 16.7639 40.4011 16.6018 40.1501 16.3935C39.4678 15.8278 39.5328 14.7364 40.2675 14.2384C40.4527 14.1129 40.6711 14.0234 40.8868 13.9583C41.4539 13.7839 42.0386 13.8083 42.6213 13.8586C43.3635 13.9216 44.0886 14.0742 44.8104 14.3002Z" fill="#FF8C00"/>
<path d="M50.6021 15.113V12.3413C49.7325 12.4912 48.9048 12.6343 48.0549 12.7809C48.0285 13.6166 48.0027 14.4198 47.9756 15.2582H46.6026C46.4805 15.8673 46.3658 16.4425 46.2417 17.0653H47.9857V17.4716C47.9857 18.9294 47.9843 20.3872 47.9864 21.8449C47.9871 22.3001 47.9783 22.7567 48.004 23.2112C48.0827 24.5781 48.8804 25.4457 50.2344 25.6648C51.0824 25.8018 51.9208 25.7299 52.7538 25.5528C53.2327 25.4518 53.7049 25.3283 54.1784 25.1181C54.0094 24.5401 53.8446 23.9764 53.6723 23.3828C53.464 23.4248 53.2768 23.4608 53.0903 23.5015C52.6073 23.6073 52.1182 23.6473 51.6257 23.6033C51.0525 23.5518 50.7574 23.2845 50.6509 22.7215C50.6197 22.5552 50.6116 22.3823 50.6116 22.212C50.6089 20.5955 50.6095 18.9783 50.6108 17.3612C50.6108 17.273 50.6251 17.1862 50.636 17.06H53.6316C53.7496 16.3993 53.8595 15.7766 53.9776 15.1132H50.6021V15.113Z" fill="#FF8C00"/>
<path d="M69.1279 16.2418C68.8904 15.4657 68.3559 15.1367 67.6463 15.0289C67.1769 14.9577 66.7075 14.9617 66.253 15.098C66.0175 15.1686 65.7795 15.2785 65.5854 15.4277C65.1852 15.7343 65.1161 16.2166 65.3642 16.684C65.5542 16.6711 65.7482 16.6386 65.9389 16.6488C66.4157 16.6746 66.662 16.9296 66.6938 17.4072C66.702 17.532 66.6992 17.6582 66.6992 17.783C66.7 20.1871 66.7 22.5904 66.7 24.9938V25.4321C67.6069 25.4274 68.4671 25.4457 69.3442 25.4199V18.0238C69.8184 17.6765 70.3461 17.4825 70.9037 17.4153C71.4525 17.3489 72.0122 17.361 72.5881 17.3387C72.8276 16.6216 73.0752 15.8829 73.3322 15.1158C71.7259 14.7792 70.3408 15.0933 69.1279 16.2418Z" fill="#FF8C00"/>
<path d="M65.0197 24.0162C64.7898 24.0162 64.5849 24.0291 64.3821 24.0136C63.9956 23.9844 63.7756 23.7862 63.7065 23.407C63.678 23.2517 63.6725 23.0903 63.6719 22.9315C63.6698 20.5736 63.6705 18.2156 63.6705 15.8577V15.3761C63.0172 15.254 62.3932 15.119 61.7623 15.0247C60.6933 14.8646 59.6208 14.8354 58.5551 15.0587C56.5431 15.4806 55.2366 16.6555 54.7197 18.6566C54.4416 19.7304 54.426 20.8191 54.5664 21.9127C54.6533 22.5835 54.8269 23.23 55.1485 23.831C55.6627 24.7915 56.4502 25.4102 57.5227 25.6307C58.7843 25.8898 59.977 25.6842 61.0813 25.012C61.1762 24.9543 61.2699 24.8974 61.377 24.8329C61.6714 25.3322 62.1272 25.5642 62.6558 25.6231C63.0723 25.67 63.5003 25.6598 63.9194 25.6272C64.2505 25.6022 64.564 25.476 64.8251 25.2541C65.2232 24.9158 65.2924 24.3852 65.0197 24.0162ZM61.0338 23.1812C60.4993 23.4749 59.9213 23.5841 59.3203 23.5596C58.3042 23.5184 57.7031 23.072 57.4061 22.1012C57.0845 21.0477 57.0404 19.9685 57.2989 18.8967C57.5906 17.6838 58.4602 17.0055 59.7178 16.9674C60.0028 16.9593 60.289 16.9735 60.5739 16.9926C60.7191 17.002 60.8616 17.0455 61.0338 17.0788V23.1812Z" fill="#FF8C00"/>
</svg>
