<svg width="13" height="12" viewBox="0 0 13 12" fill="none" xmlns="http://www.w3.org/2000/svg">
<path d="M12.4939 0.572727C12.4939 0.477273 12.3939 0.381818 12.2939 0.286364C12.1939 0.190909 12.0939 0.0954545 11.9939 0.0954545C11.8939 -9.24549e-08 11.6939 0 11.5939 0H2.59387C1.99387 0 1.59387 0.381818 1.59387 0.954545C1.59387 1.52727 1.99387 1.90909 2.59387 1.90909H9.19387L0.893872 9.83182C0.493872 10.2136 0.493872 10.7864 0.893872 11.1682C1.09387 11.3591 1.29387 11.4545 1.59387 11.4545C1.89387 11.4545 2.09387 11.3591 2.29387 11.1682L10.5939 3.24545V9.54545C10.5939 10.1182 10.9939 10.5 11.5939 10.5C12.1939 10.5 12.5939 10.1182 12.5939 9.54545V0.954545C12.5939 0.859091 12.5939 0.668182 12.4939 0.572727Z" fill="#FF6435"/>
</svg>
