<svg width="12" height="12" viewBox="0 0 12 12" fill="none" xmlns="http://www.w3.org/2000/svg">
<g clip-path="url(#clip0_969_7805)">
<path d="M9.5 10.5H11.5V8.33851C11.4999 8.2386 11.4699 8.14099 11.4139 8.05829C11.3578 7.97559 11.2783 7.91157 11.1855 7.87451L9.3145 7.12451C9.22188 7.0875 9.14244 7.02364 9.08639 6.94114C9.03035 6.85863 9.00026 6.76125 9 6.66151V6.22251C9.30325 6.04848 9.55533 5.79766 9.73087 5.49529C9.90641 5.19291 9.99924 4.84964 10 4.50001V3.50001C10.0001 3.1489 9.90772 2.80395 9.73222 2.49985C9.55672 2.19575 9.30425 1.94321 9.00019 1.76762C8.69614 1.59203 8.35122 1.49958 8.00011 1.49956C7.649 1.49954 7.30407 1.59195 7 1.76751" stroke="#FF6435" stroke-width="1.3" stroke-miterlimit="10" stroke-linecap="square"/>
<path d="M7.1855 8.3745L5.3145 7.6245C5.22188 7.5875 5.14244 7.52364 5.08639 7.44113C5.03035 7.35862 5.00026 7.26124 5 7.1615V6.936C6.635 6.7175 7 6 7 6C7 6 6 5 6 4C6 3.46957 5.78929 2.96086 5.41421 2.58579C5.03914 2.21071 4.53043 2 4 2C3.46957 2 2.96086 2.21071 2.58579 2.58579C2.21071 2.96086 2 3.46957 2 4C2 5 1 6 1 6C1 6 1.365 6.7175 3 6.936V7.1615C2.99994 7.26141 2.96994 7.35901 2.91389 7.44172C2.85783 7.52442 2.77828 7.58843 2.6855 7.6255L0.8145 8.3755C0.721877 8.4125 0.642438 8.47636 0.586394 8.55887C0.53035 8.64138 0.500263 8.73876 0.5 8.8385V10.5H7.5V8.8385C7.49994 8.73859 7.46994 8.64099 7.41389 8.55828C7.35783 8.47558 7.27828 8.41157 7.1855 8.3745Z" stroke="#FF6435" stroke-width="1.3" stroke-miterlimit="10" stroke-linecap="square"/>
</g>
<defs>
<clipPath id="clip0_969_7805">
<rect width="12" height="12" fill="white"/>
</clipPath>
</defs>
</svg>
