<svg width="24" height="24" viewBox="0 0 24 24" fill="none" xmlns="http://www.w3.org/2000/svg">
<g clip-path="url(#clip0_712_4649)">
<path d="M15.885 11.487L12 8.25L8.115 11.487C8.06025 11.5326 7.99364 11.5617 7.92297 11.5708C7.8523 11.5799 7.78049 11.5687 7.71596 11.5385C7.65143 11.5082 7.59685 11.4603 7.5586 11.4001C7.52035 11.34 7.50003 11.2703 7.5 11.199V0H16.5V11.199C16.5 11.2703 16.4796 11.34 16.4414 11.4001C16.4031 11.4603 16.3486 11.5082 16.284 11.5385C16.2195 11.5687 16.1477 11.5799 16.077 11.5708C16.0064 11.5617 15.9398 11.5326 15.885 11.487Z" fill="#999999"/>
<path d="M21 24H3C2.20435 24 1.44129 23.6839 0.87868 23.1213C0.316071 22.5587 0 21.7956 0 21V3C0 2.20435 0.316071 1.44129 0.87868 0.87868C1.44129 0.316071 2.20435 0 3 0L6 0V3H3V21H21V3H18V0H21C21.7956 0 22.5587 0.316071 23.1213 0.87868C23.6839 1.44129 24 2.20435 24 3V21C24 21.7956 23.6839 22.5587 23.1213 23.1213C22.5587 23.6839 21.7956 24 21 24Z" fill="#999999"/>
</g>
<defs>
<clipPath id="clip0_712_4649">
<rect width="24" height="24" fill="white"/>
</clipPath>
</defs>
</svg>
