<svg width="15" height="14" viewBox="0 0 15 14" fill="none" xmlns="http://www.w3.org/2000/svg">
<path d="M14.0943 0.668182C14.0943 0.556818 13.9776 0.445455 13.8609 0.334091C13.7443 0.222727 13.6276 0.111364 13.5109 0.111364C13.3943 -1.07864e-07 13.1609 0 13.0443 0H2.54427C1.84427 0 1.3776 0.445455 1.3776 1.11364C1.3776 1.78182 1.84427 2.22727 2.54427 2.22727H10.2443L0.560937 11.4705C0.0942708 11.9159 0.0942708 12.5841 0.560937 13.0295C0.794271 13.2523 1.0276 13.3636 1.3776 13.3636C1.7276 13.3636 1.96094 13.2523 2.19427 13.0295L11.8776 3.78636V11.1364C11.8776 11.8045 12.3443 12.25 13.0443 12.25C13.7443 12.25 14.2109 11.8045 14.2109 11.1364V1.11364C14.2109 1.00227 14.2109 0.779545 14.0943 0.668182Z" fill="white"/>
</svg>
