<svg width="32" height="32" viewBox="0 0 32 32" fill="none" xmlns="http://www.w3.org/2000/svg">
<path d="M5.33073 9.33333C3.8574 9.33333 2.66406 8.14 2.66406 6.66667C2.66406 5.19333 3.8574 4 5.33073 4C6.80406 4 7.9974 5.19333 7.9974 6.66667C7.9974 8.14 6.80406 9.33333 5.33073 9.33333Z" stroke="#999999" stroke-width="2.5" stroke-miterlimit="10" stroke-linecap="square"/>
<path d="M7.9987 27.9999H3.9987V22.6666H1.33203V15.9999C1.33203 14.5266 2.52536 13.3333 3.9987 13.3333H5.33203" stroke="#999999" stroke-width="2.5" stroke-miterlimit="10" stroke-linecap="square"/>
<path d="M26.6667 9.33333C28.14 9.33333 29.3333 8.14 29.3333 6.66667C29.3333 5.19333 28.14 4 26.6667 4C25.1933 4 24 5.19333 24 6.66667C24 8.14 25.1933 9.33333 26.6667 9.33333Z" stroke="#999999" stroke-width="2.5" stroke-miterlimit="10" stroke-linecap="square"/>
<path d="M24 27.9999H28V22.6666H30.6667V15.9999C30.6667 14.5266 29.4733 13.3333 28 13.3333H26.6667" stroke="#999999" stroke-width="2.5" stroke-miterlimit="10" stroke-linecap="square"/>
<path d="M16 9.33325C13.7907 9.33325 12 7.54259 12 5.33325C12 3.12392 13.7907 1.33325 16 1.33325C18.2093 1.33325 20 3.12392 20 5.33325C20 7.54259 18.2093 9.33325 16 9.33325Z" stroke="#999999" stroke-width="2.5" stroke-miterlimit="10" stroke-linecap="square"/>
<path d="M19.9987 30.6666H11.9987V22.6666H9.33203V15.9999C9.33203 14.5266 10.5254 13.3333 11.9987 13.3333H19.9987C21.472 13.3333 22.6654 14.5266 22.6654 15.9999V23.9999H19.9987V30.6666Z" stroke="#999999" stroke-width="2.5" stroke-miterlimit="10" stroke-linecap="square"/>
</svg>
