<svg width="564" height="492" viewBox="0 0 564 492" fill="none" xmlns="http://www.w3.org/2000/svg">
<rect y="32" width="564" height="164" rx="16" fill="#F9F9F9"/>
<g clip-path="url(#clip0_969_8276)">
<path d="M22.0025 4.86508C19.1667 4.86508 16.8709 7.16342 16.8709 9.99675C16.8709 12.8326 19.1692 15.1284 22.0025 15.1284C24.8384 15.1284 27.1342 12.8301 27.1342 9.99675C27.1342 7.16092 24.8359 4.86508 22.0025 4.86508ZM22.0025 13.3276C20.1617 13.3276 18.6717 11.8367 18.6717 9.99675C18.6717 8.15675 20.1625 6.66592 22.0025 6.66592C23.8425 6.66592 25.3334 8.15675 25.3334 9.99675C25.3342 11.8367 23.8434 13.3276 22.0025 13.3276Z" fill="#FB50B7"/>
<path d="M26.1233 0.063402C24.2833 -0.0224313 19.7258 -0.0182646 17.8841 0.063402C16.2658 0.139235 14.8383 0.530069 13.6875 1.6809C11.7641 3.60424 12.01 6.1959 12.01 9.99674C12.01 13.8867 11.7933 16.4184 13.6875 18.3126C15.6183 20.2426 18.2475 19.9901 22.0033 19.9901C25.8566 19.9901 27.1866 19.9926 28.5491 19.4651C30.4016 18.7459 31.8 17.0901 31.9366 14.1159C32.0233 12.2751 32.0183 7.7184 31.9366 5.87674C31.7716 2.3659 29.8875 0.236735 26.1233 0.063402ZM29.0358 17.0401C27.775 18.3009 26.0258 18.1884 21.9791 18.1884C17.8125 18.1884 16.1416 18.2501 14.9225 17.0276C13.5183 15.6301 13.7725 13.3859 13.7725 9.9834C13.7725 5.37923 13.3 2.0634 17.9208 1.82674C18.9825 1.78924 19.295 1.77674 21.9675 1.77674L22.005 1.80174C26.4458 1.80174 29.93 1.33674 30.1391 5.95674C30.1866 7.0109 30.1975 7.32757 30.1975 9.9959C30.1966 14.1142 30.275 15.7951 29.0358 17.0401Z" fill="#FB50B7"/>
<path d="M27.3396 5.8618C28.0019 5.8618 28.5387 5.32492 28.5387 4.66264C28.5387 4.00036 28.0019 3.46347 27.3396 3.46347C26.6773 3.46347 26.1404 4.00036 26.1404 4.66264C26.1404 5.32492 26.6773 5.8618 27.3396 5.8618Z" fill="#FB50B7"/>
</g>
<path d="M43.5 17V11.6H46.98C49.84 11.6 51.84 10.12 51.84 7.36V7.04C51.84 4.28 49.84 2.8 46.98 2.8H41.2V17H43.5ZM43.5 4.76H46.8C48.4 4.76 49.46 5.48 49.46 7.04V7.36C49.46 8.92 48.4 9.64 46.8 9.64H43.5V4.76ZM57.1378 17.26C60.2378 17.26 62.2378 15.14 62.2378 12V11.7C62.2378 8.56 60.2378 6.46 57.1378 6.46C54.0578 6.46 52.0578 8.56 52.0578 11.7V12C52.0578 15.14 54.0578 17.26 57.1378 17.26ZM57.1378 15.48C55.2778 15.48 54.2978 14.22 54.2978 12V11.7C54.2978 9.48 55.2778 8.24 57.1378 8.24C59.0178 8.24 59.9978 9.48 59.9978 11.7V12C59.9978 14.22 59.0178 15.48 57.1378 15.48ZM67.4059 17.26C69.9859 17.26 71.6859 15.94 71.6859 13.98C71.6859 12.18 70.4259 11.32 67.8259 10.9C65.9459 10.6 65.3659 10.22 65.3659 9.42C65.3659 8.58 66.1059 8.08 67.2459 8.08C68.4259 8.08 69.2259 8.64 69.3859 9.68H71.4859C71.2859 7.64 69.7459 6.46 67.2659 6.46C64.9059 6.46 63.2459 7.7 63.2459 9.54C63.2459 11.38 64.4659 12.18 66.9659 12.6C68.9259 12.96 69.5059 13.36 69.5059 14.18C69.5059 15.1 68.6659 15.6 67.4259 15.6C66.0659 15.6 65.1859 15.02 65.0059 13.8H62.8859C63.0859 16 64.7459 17.26 67.4059 17.26ZM77.232 17.26C77.752 17.26 78.452 17.16 78.912 17.02V15.26C78.612 15.36 78.092 15.46 77.652 15.46C76.432 15.46 76.052 15 76.052 13.98V8.36H78.852V6.7H76.052V3.48H73.852V6.7H71.852V8.36H73.852V14.22C73.852 16.22 74.972 17.26 77.232 17.26ZM84.0864 17.26C86.6664 17.26 88.3664 15.94 88.3664 13.98C88.3664 12.18 87.1064 11.32 84.5064 10.9C82.6264 10.6 82.0464 10.22 82.0464 9.42C82.0464 8.58 82.7864 8.08 83.9264 8.08C85.1064 8.08 85.9064 8.64 86.0664 9.68H88.1664C87.9664 7.64 86.4264 6.46 83.9464 6.46C81.5864 6.46 79.9264 7.7 79.9264 9.54C79.9264 11.38 81.1464 12.18 83.6464 12.6C85.6064 12.96 86.1864 13.36 86.1864 14.18C86.1864 15.1 85.3464 15.6 84.1064 15.6C82.7464 15.6 81.8664 15.02 81.6864 13.8H79.5664C79.7664 16 81.4264 17.26 84.0864 17.26Z" fill="black"/>
<path d="M233.668 73.3334H240.335V67.4668C240.335 66.9741 240.063 66.5221 239.629 66.2901L236.957 64.8568" stroke="#999999" stroke-width="1.8" stroke-miterlimit="10"/>
<path d="M233.719 64.8613L232.152 65.6967" stroke="#999999" stroke-width="1.8" stroke-miterlimit="10"/>
<path d="M235.336 65.3334C233.679 65.3334 232.336 63.9901 232.336 62.3334V61.6667C232.336 60.0101 233.679 58.6667 235.336 58.6667C236.993 58.6667 238.336 60.0101 238.336 61.6667V62.3334C238.336 63.9901 236.993 65.3334 235.336 65.3334Z" stroke="#999999" stroke-width="1.8" stroke-miterlimit="10" stroke-linecap="square"/>
<path d="M228.063 69.4634L226.405 70.2987C225.953 70.5241 225.668 70.9861 225.668 71.4907V73.3334H233.668V71.4907C233.668 70.9854 233.383 70.5241 232.931 70.2981L231.273 69.4627" stroke="#999999" stroke-width="1.8" stroke-miterlimit="10"/>
<path d="M229.667 70C228.194 70 227 68.806 227 67.3333V66.6667C227 65.194 228.194 64 229.667 64C231.139 64 232.333 65.194 232.333 66.6667V67.3333C232.333 68.806 231.139 70 229.667 70Z" stroke="#999999" stroke-width="1.8" stroke-miterlimit="10" stroke-linecap="square"/>
<path d="M251.464 71V66.772H255.888V65.414H251.464V62.418H256.35V61.06H249.84V71H251.464ZM260.094 71.182C262.264 71.182 263.664 69.698 263.664 67.5V67.29C263.664 65.092 262.264 63.622 260.094 63.622C257.938 63.622 256.538 65.092 256.538 67.29V67.5C256.538 69.698 257.938 71.182 260.094 71.182ZM260.094 69.936C258.792 69.936 258.106 69.054 258.106 67.5V67.29C258.106 65.736 258.792 64.868 260.094 64.868C261.41 64.868 262.096 65.736 262.096 67.29V67.5C262.096 69.054 261.41 69.936 260.094 69.936ZM264.646 60.64V71H266.186V60.64H264.646ZM267.455 60.64V71H268.995V60.64H267.455ZM273.528 71.182C275.698 71.182 277.098 69.698 277.098 67.5V67.29C277.098 65.092 275.698 63.622 273.528 63.622C271.372 63.622 269.972 65.092 269.972 67.29V67.5C269.972 69.698 271.372 71.182 273.528 71.182ZM273.528 69.936C272.226 69.936 271.54 69.054 271.54 67.5V67.29C271.54 65.736 272.226 64.868 273.528 64.868C274.844 64.868 275.53 65.736 275.53 67.29V67.5C275.53 69.054 274.844 69.936 273.528 69.936ZM280.888 71L282.4 65.638L283.926 71H285.55L287.734 63.79H286.208L284.696 69.32L283.17 63.79H281.644L280.146 69.278L278.648 63.79H277.094L279.264 71H280.888ZM291.343 71.182C293.149 71.182 294.353 70.258 294.703 68.746H293.163C292.953 69.474 292.351 69.95 291.343 69.95C290.125 69.95 289.425 69.18 289.355 67.738H294.745C294.857 65.274 293.709 63.622 291.343 63.622C289.131 63.622 287.773 65.106 287.773 67.29V67.5C287.773 69.684 289.103 71.182 291.343 71.182ZM289.383 66.632C289.551 65.456 290.209 64.84 291.329 64.84C292.463 64.84 293.051 65.512 293.163 66.632H289.383ZM297.256 71V67.332C297.256 65.904 298.04 65.162 299.342 65.162C299.51 65.162 299.678 65.176 299.818 65.19V63.692C299.692 63.664 299.538 63.65 299.426 63.65C298.39 63.65 297.634 64.266 297.242 65.19L297.2 63.79H295.716V71H297.256ZM303.172 71.182C304.978 71.182 306.168 70.258 306.168 68.886C306.168 67.626 305.286 67.024 303.466 66.73C302.15 66.52 301.744 66.254 301.744 65.694C301.744 65.106 302.262 64.756 303.06 64.756C303.886 64.756 304.446 65.148 304.558 65.876H306.028C305.888 64.448 304.81 63.622 303.074 63.622C301.422 63.622 300.26 64.49 300.26 65.778C300.26 67.066 301.114 67.626 302.864 67.92C304.236 68.172 304.642 68.452 304.642 69.026C304.642 69.67 304.054 70.02 303.186 70.02C302.234 70.02 301.618 69.614 301.492 68.76H300.008C300.148 70.3 301.31 71.182 303.172 71.182Z" fill="#333333"/>
<g clip-path="url(#clip1_969_8276)">
<path d="M317 60C315.813 60 314.653 60.3519 313.667 61.0112C312.68 61.6705 311.911 62.6075 311.457 63.7039C311.003 64.8003 310.884 66.0067 311.115 67.1705C311.347 68.3344 311.918 69.4035 312.757 70.2426C313.596 71.0818 314.666 71.6532 315.829 71.8847C316.993 72.1162 318.2 71.9974 319.296 71.5433C320.392 71.0892 321.33 70.3201 321.989 69.3334C322.648 68.3467 323 67.1867 323 66C322.995 64.4102 322.362 62.8868 321.237 61.7626C320.113 60.6384 318.59 60.0047 317 60ZM317 70.5C316.11 70.5 315.24 70.2361 314.5 69.7416C313.76 69.2471 313.183 68.5443 312.843 67.7221C312.502 66.8998 312.413 65.995 312.586 65.1221C312.76 64.2492 313.189 63.4474 313.818 62.818C314.447 62.1887 315.249 61.7601 316.122 61.5865C316.995 61.4128 317.9 61.5019 318.722 61.8425C319.544 62.1831 320.247 62.7599 320.742 63.4999C321.236 64.24 321.5 65.11 321.5 66C321.496 67.1924 321.021 68.3349 320.178 69.178C319.335 70.0212 318.192 70.4964 317 70.5Z" fill="#999999"/>
<path d="M317.375 65.25H316.625C316.418 65.25 316.25 65.4179 316.25 65.625V68.625C316.25 68.8321 316.418 69 316.625 69H317.375C317.582 69 317.75 68.8321 317.75 68.625V65.625C317.75 65.4179 317.582 65.25 317.375 65.25Z" fill="#999999"/>
<path d="M317 64.5C317.414 64.5 317.75 64.1642 317.75 63.75C317.75 63.3358 317.414 63 317 63C316.586 63 316.25 63.3358 316.25 63.75C316.25 64.1642 316.586 64.5 317 64.5Z" fill="#999999"/>
</g>
<path d="M256.464 98.312C260.088 98.312 262.656 95.96 262.656 92.576V92.312C262.656 89.048 260.256 86.888 257.136 86.888C255.792 86.888 254.568 87.344 253.704 88.112L254.496 83.288H261.888V80.96H252.456L250.944 90.536L253.296 90.704C253.92 89.768 255.096 89.048 256.512 89.048C258.552 89.048 259.92 90.344 259.92 92.36V92.696C259.92 94.688 258.504 96.008 256.512 96.008C254.736 96.008 253.296 95.024 253.104 93.128H250.32C250.56 96.32 252.984 98.312 256.464 98.312ZM271.044 98.312C274.572 98.312 277.092 95.912 277.092 92.576V92.312C277.092 89.072 274.644 87.008 271.62 87.008C269.58 87.008 268.02 87.944 267.228 89.312V88.856C267.228 84.536 268.668 82.952 271.068 82.952C272.772 82.952 273.9 83.864 274.212 85.448H276.972C276.54 82.496 274.308 80.648 271.068 80.648C267.036 80.648 264.588 83.744 264.588 89.072V89.936C264.588 95.336 267.084 98.312 271.044 98.312ZM271.044 96.056C269.076 96.056 267.732 94.64 267.732 92.696V92.384C267.732 90.536 269.076 89.216 271.044 89.216C272.988 89.216 274.26 90.488 274.26 92.36V92.696C274.26 94.712 272.964 96.056 271.044 96.056ZM281.979 98V95.12H279.123V98H281.979ZM288.354 98C289.266 92.696 291.522 87.68 295.218 82.904V80.96H283.098V83.288H292.17C288.618 87.992 286.314 92.864 285.33 98H288.354ZM299.062 98V91.16C299.062 88.832 300.166 87.536 301.942 87.536C303.574 87.536 304.294 88.568 304.294 90.584V98H306.934V91.136C306.934 88.856 307.966 87.536 309.742 87.536C311.374 87.536 312.118 88.52 312.118 90.56V98H314.758V90.032C314.758 87.176 313.462 85.352 310.63 85.352C308.806 85.352 307.414 86.24 306.55 87.752C305.974 86.192 304.702 85.352 302.854 85.352C300.91 85.352 299.662 86.384 299.038 87.56L298.966 85.64H296.422V98H299.062Z" fill="black"/>
<g clip-path="url(#clip2_969_8276)">
<path d="M39 72H29V74H39V72Z" fill="#999999"/>
<path d="M41 70H27C26.4 70 26 69.6 26 69V59C26 58.4 26.4 58 27 58H41C41.6 58 42 58.4 42 59V69C42 69.6 41.6 70 41 70ZM28 68H40V60H28V68Z" fill="#999999"/>
<path d="M32 67L36 64L32 61V67Z" fill="#999999"/>
</g>
<path d="M59.59 71L55.768 61.06H53.99L50.168 71H51.82L52.716 68.578H56.986L57.868 71H59.59ZM54.858 62.796L56.482 67.22H53.22L54.858 62.796ZM63.1294 71L65.7894 63.79H64.2074L62.3034 69.432L60.3714 63.79H58.7474L61.4214 71H63.1294ZM69.2607 73.562C71.5427 73.562 72.7887 72.4 72.7887 70.538V63.79H71.3607L71.3187 64.98C70.9547 64.294 70.1287 63.622 68.8967 63.622C67.0067 63.622 65.8167 65.106 65.8167 67.108V67.388C65.8167 69.376 67.0207 70.888 68.9387 70.888C70.0587 70.888 70.8707 70.314 71.2487 69.614V70.678C71.2487 71.812 70.5347 72.4 69.3447 72.4C68.3087 72.4 67.7627 72.05 67.6787 71.42H65.9987C66.1527 72.68 67.2727 73.562 69.2607 73.562ZM69.3167 69.656C68.0847 69.656 67.3847 68.76 67.3847 67.388V67.108C67.3847 65.708 68.0707 64.84 69.3167 64.84C70.6047 64.84 71.3047 65.708 71.3047 67.108V67.388C71.3047 68.76 70.5907 69.656 69.3167 69.656ZM76.1361 71V69.32H74.4701V71H76.1361ZM84.9584 71L88.4584 61.06H86.7784L84.1044 69.166L81.4024 61.06H79.6664L83.1804 71H84.9584ZM90.8536 60.64H89.2436V62.74H90.8536V60.64ZM89.2716 63.79V71H90.8116V63.79H89.2716ZM95.3578 71.182C97.1638 71.182 98.3678 70.258 98.7178 68.746H97.1778C96.9678 69.474 96.3658 69.95 95.3578 69.95C94.1398 69.95 93.4398 69.18 93.3698 67.738H98.7598C98.8718 65.274 97.7238 63.622 95.3578 63.622C93.1458 63.622 91.7878 65.106 91.7878 67.29V67.5C91.7878 69.684 93.1178 71.182 95.3578 71.182ZM93.3978 66.632C93.5658 65.456 94.2238 64.84 95.3438 64.84C96.4778 64.84 97.0658 65.512 97.1778 66.632H93.3978ZM102.54 71L104.052 65.638L105.578 71H107.202L109.386 63.79H107.86L106.348 69.32L104.822 63.79H103.296L101.798 69.278L100.3 63.79H98.7464L100.916 71H102.54ZM112.546 71.182C114.352 71.182 115.542 70.258 115.542 68.886C115.542 67.626 114.66 67.024 112.84 66.73C111.524 66.52 111.118 66.254 111.118 65.694C111.118 65.106 111.636 64.756 112.434 64.756C113.26 64.756 113.82 65.148 113.932 65.876H115.402C115.262 64.448 114.184 63.622 112.448 63.622C110.796 63.622 109.634 64.49 109.634 65.778C109.634 67.066 110.488 67.626 112.238 67.92C113.61 68.172 114.016 68.452 114.016 69.026C114.016 69.67 113.428 70.02 112.56 70.02C111.608 70.02 110.992 69.614 110.866 68.76H109.382C109.522 70.3 110.684 71.182 112.546 71.182Z" fill="#333333"/>
<path d="M57.104 98V80.96H55.064C54.104 82.448 52.616 83.408 50.936 83.768V86.264C52.232 86 53.432 85.472 54.368 84.68V98H57.104ZM63.1745 98V95.12H60.3185V98H63.1745ZM71.2241 98.312C74.7521 98.312 77.2721 95.912 77.2721 92.576V92.312C77.2721 89.072 74.8241 87.008 71.8001 87.008C69.7601 87.008 68.2001 87.944 67.4081 89.312V88.856C67.4081 84.536 68.8481 82.952 71.2481 82.952C72.9521 82.952 74.0801 83.864 74.3921 85.448H77.1521C76.7201 82.496 74.4881 80.648 71.2481 80.648C67.2161 80.648 64.7681 83.744 64.7681 89.072V89.936C64.7681 95.336 67.2641 98.312 71.2241 98.312ZM71.2241 96.056C69.2561 96.056 67.9121 94.64 67.9121 92.696V92.384C67.9121 90.536 69.2561 89.216 71.2241 89.216C73.1681 89.216 74.4401 90.488 74.4401 92.36V92.696C74.4401 94.712 73.1441 96.056 71.2241 96.056ZM82.3897 98V91.16C82.3897 88.832 83.4937 87.536 85.2697 87.536C86.9017 87.536 87.6217 88.568 87.6217 90.584V98H90.2617V91.136C90.2617 88.856 91.2937 87.536 93.0697 87.536C94.7017 87.536 95.4457 88.52 95.4457 90.56V98H98.0857V90.032C98.0857 87.176 96.7897 85.352 93.9577 85.352C92.1337 85.352 90.7417 86.24 89.8777 87.752C89.3017 86.192 88.0297 85.352 86.1817 85.352C84.2377 85.352 82.9897 86.384 82.3657 87.56L82.2937 85.64H79.7497V98H82.3897Z" fill="black"/>
<path d="M411.4 73.778C410.6 73.0514 404 67.3423 404 62.9825C404 60.1799 406.2 58 408.8 58C410 58 411.1 58.519 412 59.2456C412.9 58.4152 414 58 415.2 58C417.9 58 420 60.2837 420 62.9825C420 67.3423 413.4 73.0514 412.6 73.6742C412.3 74.0894 411.7 74.0894 411.4 73.778ZM408.8 60.0761C407.3 60.0761 406 61.4255 406 62.9825C406 65.2662 409.5 69.2107 412 71.4944C414.1 69.5221 418 65.4738 418 62.9825C418 61.3217 416.7 60.0761 415.2 60.0761C414.3 60.0761 413.4 60.5951 412.9 61.4255C412.5 62.0483 411.6 62.0483 411.2 61.4255C410.6 60.5951 409.8 60.0761 408.8 60.0761Z" fill="#999999"/>
<path d="M411.766 68.3149C411.343 67.9461 411.288 67.2913 411.643 66.8524L413.573 64.4682C413.929 64.0293 414.559 63.9725 414.982 64.3413C415.405 64.7101 415.46 65.3649 415.104 65.8038L413.175 68.1879C412.819 68.6269 412.188 68.6837 411.766 68.3149Z" fill="#999999"/>
<path d="M437.59 71L433.768 61.06H431.99L428.168 71H429.82L430.716 68.578H434.986L435.868 71H437.59ZM432.858 62.796L434.482 67.22H431.22L432.858 62.796ZM441.129 71L443.789 63.79H442.207L440.303 69.432L438.371 63.79H436.747L439.421 71H441.129ZM447.261 73.562C449.543 73.562 450.789 72.4 450.789 70.538V63.79H449.361L449.319 64.98C448.955 64.294 448.129 63.622 446.897 63.622C445.007 63.622 443.817 65.106 443.817 67.108V67.388C443.817 69.376 445.021 70.888 446.939 70.888C448.059 70.888 448.871 70.314 449.249 69.614V70.678C449.249 71.812 448.535 72.4 447.345 72.4C446.309 72.4 445.763 72.05 445.679 71.42H443.999C444.153 72.68 445.273 73.562 447.261 73.562ZM447.317 69.656C446.085 69.656 445.385 68.76 445.385 67.388V67.108C445.385 65.708 446.071 64.84 447.317 64.84C448.605 64.84 449.305 65.708 449.305 67.108V67.388C449.305 68.76 448.591 69.656 447.317 69.656ZM454.136 71V69.32H452.47V71H454.136ZM464.134 71V69.642H459.976V61.06H458.338V71H464.134ZM466.502 60.64H464.892V62.74H466.502V60.64ZM464.92 63.79V71H466.46V63.79H464.92ZM469.97 67.626L472.28 71H474.044L471.076 66.674L473.946 63.79H472.084L469.256 66.674V60.64H467.716V71H469.256V68.34L469.97 67.626ZM477.466 71.182C479.272 71.182 480.476 70.258 480.826 68.746H479.286C479.076 69.474 478.474 69.95 477.466 69.95C476.248 69.95 475.548 69.18 475.478 67.738H480.868C480.98 65.274 479.832 63.622 477.466 63.622C475.254 63.622 473.896 65.106 473.896 67.29V67.5C473.896 69.684 475.226 71.182 477.466 71.182ZM475.506 66.632C475.674 65.456 476.332 64.84 477.452 64.84C478.586 64.84 479.174 65.512 479.286 66.632H475.506ZM484.476 71.182C486.282 71.182 487.472 70.258 487.472 68.886C487.472 67.626 486.59 67.024 484.77 66.73C483.454 66.52 483.048 66.254 483.048 65.694C483.048 65.106 483.566 64.756 484.364 64.756C485.19 64.756 485.75 65.148 485.862 65.876H487.332C487.192 64.448 486.114 63.622 484.378 63.622C482.726 63.622 481.564 64.49 481.564 65.778C481.564 67.066 482.418 67.626 484.168 67.92C485.54 68.172 485.946 68.452 485.946 69.026C485.946 69.67 485.358 70.02 484.49 70.02C483.538 70.02 482.922 69.614 482.796 68.76H481.312C481.452 70.3 482.614 71.182 484.476 71.182Z" fill="#333333"/>
<path d="M434.12 98C435.032 92.696 437.288 87.68 440.984 82.904V80.96H428.864V83.288H437.936C434.384 87.992 432.08 92.864 431.096 98H434.12ZM448.212 98.312C451.884 98.312 454.452 96.392 454.452 93.392V93.152C454.452 91.04 452.964 89.576 451.164 89.072C452.724 88.496 453.828 87.152 453.828 85.4V85.16C453.828 82.496 451.38 80.648 448.212 80.648C444.996 80.648 442.572 82.496 442.572 85.16V85.4C442.572 87.152 443.652 88.496 445.212 89.072C443.388 89.576 441.948 91.04 441.948 93.152V93.392C441.948 96.392 444.54 98.312 448.212 98.312ZM448.212 87.992C446.532 87.992 445.236 87.08 445.236 85.544V85.328C445.236 83.792 446.532 82.856 448.212 82.856C449.892 82.856 451.164 83.792 451.164 85.328V85.544C451.164 87.08 449.868 87.992 448.212 87.992ZM448.212 96.032C446.244 96.032 444.78 94.976 444.78 93.248V93.032C444.78 91.304 446.268 90.248 448.212 90.248C450.132 90.248 451.62 91.304 451.62 93.032V93.248C451.62 94.976 450.156 96.032 448.212 96.032ZM467.922 98V95.672H459.162C459.186 93.752 459.714 92.816 462.978 91.4C466.914 89.72 467.802 87.944 467.802 85.64V85.496C467.802 82.808 465.594 80.648 462.258 80.648C458.778 80.648 456.594 82.784 456.402 86H459.186C459.258 84.056 460.386 82.928 462.306 82.928C464.034 82.928 465.042 84.08 465.042 85.568V85.64C465.042 87.392 464.466 88.208 461.61 89.384C457.002 91.256 456.258 93.272 456.258 96.08V98H467.922ZM473.448 98V95.12H470.592V98H473.448ZM485.282 98V93.92H487.706V91.688H485.282V80.96H482.522L474.842 91.712V93.92H482.642V98H485.282ZM482.642 84.368V91.712H477.458L482.642 84.368ZM494.004 92.216L497.964 98H500.988L495.9 90.584L500.82 85.64H497.628L492.78 90.584V80.24H490.14V98H492.78V93.44L494.004 92.216Z" fill="black"/>
<path d="M41 130H27C26.4 130 26 130.4 26 131V142C26 142.6 26.4 143 27 143H30.6L33.3 145.7C33.5 145.9 33.7 146 34 146C34.3 146 34.5 145.9 34.7 145.7L37.4 143H41C41.6 143 42 142.6 42 142V131C42 130.4 41.6 130 41 130ZM40 141H37C36.7 141 36.5 141.1 36.3 141.3L34 143.6L31.7 141.3C31.5 141.1 31.3 141 31 141H28V132H40V141Z" fill="#999999"/>
<path d="M37 135C37 134.448 36.5523 134 36 134H32C31.4477 134 31 134.448 31 135C31 135.552 31.4477 136 32 136H36C36.5523 136 37 135.552 37 135Z" fill="#999999"/>
<path d="M37 138C37 137.448 36.5523 137 36 137H32C31.4477 137 31 137.448 31 138C31 138.552 31.4477 139 32 139H36C36.5523 139 37 138.552 37 138Z" fill="#999999"/>
<path d="M59.59 143L55.768 133.06H53.99L50.168 143H51.82L52.716 140.578H56.986L57.868 143H59.59ZM54.858 134.796L56.482 139.22H53.22L54.858 134.796ZM63.1294 143L65.7894 135.79H64.2074L62.3034 141.432L60.3714 135.79H58.7474L61.4214 143H63.1294ZM69.2607 145.562C71.5427 145.562 72.7887 144.4 72.7887 142.538V135.79H71.3607L71.3187 136.98C70.9547 136.294 70.1287 135.622 68.8967 135.622C67.0067 135.622 65.8167 137.106 65.8167 139.108V139.388C65.8167 141.376 67.0207 142.888 68.9387 142.888C70.0587 142.888 70.8707 142.314 71.2487 141.614V142.678C71.2487 143.812 70.5347 144.4 69.3447 144.4C68.3087 144.4 67.7627 144.05 67.6787 143.42H65.9987C66.1527 144.68 67.2727 145.562 69.2607 145.562ZM69.3167 141.656C68.0847 141.656 67.3847 140.76 67.3847 139.388V139.108C67.3847 137.708 68.0707 136.84 69.3167 136.84C70.6047 136.84 71.3047 137.708 71.3047 139.108V139.388C71.3047 140.76 70.5907 141.656 69.3167 141.656ZM76.1361 143V141.32H74.4701V143H76.1361ZM84.6644 143.182C87.1424 143.182 88.7244 141.516 88.8784 139.248H87.2124C87.1424 140.76 86.1764 141.768 84.6644 141.768C82.8164 141.768 81.6964 140.312 81.6964 138.198V137.862C81.6964 135.748 82.8024 134.278 84.6644 134.278C86.0784 134.278 87.0304 135.174 87.2264 136.672H88.8784C88.6824 134.39 87.0724 132.878 84.6784 132.878C81.8644 132.878 80.0164 134.936 80.0164 137.862V138.198C80.0164 141.152 81.8504 143.182 84.6644 143.182ZM93.0535 143.182C95.2235 143.182 96.6235 141.698 96.6235 139.5V139.29C96.6235 137.092 95.2235 135.622 93.0535 135.622C90.8975 135.622 89.4975 137.092 89.4975 139.29V139.5C89.4975 141.698 90.8975 143.182 93.0535 143.182ZM93.0535 141.936C91.7515 141.936 91.0655 141.054 91.0655 139.5V139.29C91.0655 137.736 91.7515 136.868 93.0535 136.868C94.3695 136.868 95.0555 137.736 95.0555 139.29V139.5C95.0555 141.054 94.3695 141.936 93.0535 141.936ZM99.1449 143V139.01C99.1449 137.652 99.7889 136.896 100.825 136.896C101.777 136.896 102.197 137.498 102.197 138.674V143H103.737V138.996C103.737 137.666 104.339 136.896 105.375 136.896C106.327 136.896 106.761 137.47 106.761 138.66V143H108.301V138.352C108.301 136.686 107.545 135.622 105.893 135.622C104.829 135.622 104.017 136.14 103.513 137.022C103.177 136.112 102.435 135.622 101.357 135.622C100.223 135.622 99.4949 136.224 99.1309 136.91L99.0889 135.79H97.6049V143H99.1449ZM111.06 143V139.01C111.06 137.652 111.704 136.896 112.74 136.896C113.692 136.896 114.112 137.498 114.112 138.674V143H115.652V138.996C115.652 137.666 116.254 136.896 117.29 136.896C118.242 136.896 118.676 137.47 118.676 138.66V143H120.216V138.352C120.216 136.686 119.46 135.622 117.808 135.622C116.744 135.622 115.932 136.14 115.428 137.022C115.092 136.112 114.35 135.622 113.272 135.622C112.138 135.622 111.41 136.224 111.046 136.91L111.004 135.79H109.52V143H111.06ZM124.726 143.182C126.532 143.182 127.736 142.258 128.086 140.746H126.546C126.336 141.474 125.734 141.95 124.726 141.95C123.508 141.95 122.808 141.18 122.738 139.738H128.128C128.24 137.274 127.092 135.622 124.726 135.622C122.514 135.622 121.156 137.106 121.156 139.29V139.5C121.156 141.684 122.486 143.182 124.726 143.182ZM122.766 138.632C122.934 137.456 123.592 136.84 124.712 136.84C125.846 136.84 126.434 137.512 126.546 138.632H122.766ZM130.639 143V138.968C130.639 137.68 131.353 136.896 132.417 136.896C133.467 136.896 133.901 137.554 133.901 138.73V143H135.427V138.352C135.427 136.714 134.685 135.622 132.935 135.622C131.773 135.622 131.017 136.224 130.639 136.938L130.583 135.79H129.099V143H130.639ZM139.639 143.182C140.003 143.182 140.493 143.112 140.815 143.014V141.782C140.605 141.852 140.241 141.922 139.933 141.922C139.079 141.922 138.813 141.6 138.813 140.886V136.952H140.773V135.79H138.813V133.536H137.273V135.79H135.873V136.952H137.273V141.054C137.273 142.454 138.057 143.182 139.639 143.182ZM144.437 143.182C146.243 143.182 147.433 142.258 147.433 140.886C147.433 139.626 146.551 139.024 144.731 138.73C143.415 138.52 143.009 138.254 143.009 137.694C143.009 137.106 143.527 136.756 144.325 136.756C145.151 136.756 145.711 137.148 145.823 137.876H147.293C147.153 136.448 146.075 135.622 144.339 135.622C142.687 135.622 141.525 136.49 141.525 137.778C141.525 139.066 142.379 139.626 144.129 139.92C145.501 140.172 145.907 140.452 145.907 141.026C145.907 141.67 145.319 142.02 144.451 142.02C143.499 142.02 142.883 141.614 142.757 140.76H141.273C141.413 142.3 142.575 143.182 144.437 143.182Z" fill="#333333"/>
<path d="M57.416 170.312C61.016 170.312 63.632 168.296 63.632 165.344V165.08C63.632 162.968 62.216 161.552 60.344 161.072C61.952 160.544 63.056 159.2 63.056 157.472V157.208C63.056 154.472 60.632 152.648 57.44 152.648C54.056 152.648 51.584 154.784 51.44 158H54.128C54.248 156.056 55.472 154.928 57.488 154.928C59.192 154.928 60.416 155.936 60.416 157.352V157.688C60.416 159.248 59.12 160.088 57.464 160.088H55.736V162.272H57.512C59.432 162.272 60.824 163.184 60.824 164.888V165.224C60.824 166.904 59.384 167.96 57.44 167.96C55.304 167.96 54.008 166.88 53.84 164.888H51.056C51.2 168.248 53.624 170.312 57.416 170.312ZM68.9401 170V167.12H66.0841V170H68.9401ZM76.8401 170.312C80.8721 170.312 83.3201 167.216 83.3201 161.888V161C83.3201 155.6 80.8241 152.648 76.8641 152.648C73.3121 152.648 70.8161 155.048 70.8161 158.384V158.648C70.8161 161.888 73.2641 163.952 76.2881 163.952C78.3281 163.952 79.9121 163.016 80.6801 161.648V162.104C80.6801 166.424 79.2401 168.008 76.8401 168.008C75.1121 168.008 73.9601 167.072 73.6961 165.512H70.9601C71.3681 168.464 73.6001 170.312 76.8401 170.312ZM76.8641 161.744C74.9441 161.744 73.6481 160.472 73.6481 158.6V158.264C73.6481 156.224 74.9441 154.904 76.8641 154.904C78.8321 154.904 80.1761 156.32 80.1761 158.264V158.576C80.1761 160.424 78.8321 161.744 76.8641 161.744ZM89.6137 164.216L93.5737 170H96.5977L91.5097 162.584L96.4297 157.64H93.2377L88.3897 162.584V152.24H85.7497V170H88.3897V165.44L89.6137 164.216Z" fill="black"/>
<g clip-path="url(#clip3_969_8276)">
<path d="M233 146C228.589 146 225 142.411 225 138C225 133.589 228.589 130 233 130C237.411 130 241 133.589 241 138C241 142.411 237.411 146 233 146ZM233 132C229.691 132 227 134.691 227 138C227 141.309 229.691 144 233 144C236.309 144 239 141.309 239 138C239 134.691 236.309 132 233 132Z" fill="#999999"/>
<path d="M233 142C230.794 142 229 140.206 229 138C229 135.794 230.794 134 233 134C235.206 134 237 135.794 237 138C237 140.206 235.206 142 233 142ZM233 136C231.897 136 231 136.897 231 138C231 139.103 231.897 140 233 140C234.103 140 235 139.103 235 138C235 136.897 234.103 136 233 136Z" fill="#999999"/>
</g>
<path d="M256.77 143V141.642H251.464V138.604H256.252V137.246H251.464V134.418H256.686V133.06H249.84V143H256.77ZM259.384 143V138.968C259.384 137.68 260.098 136.896 261.162 136.896C262.212 136.896 262.646 137.554 262.646 138.73V143H264.172V138.352C264.172 136.714 263.43 135.622 261.68 135.622C260.518 135.622 259.762 136.224 259.384 136.938L259.328 135.79H257.844V143H259.384ZM268.548 145.562C270.83 145.562 272.076 144.4 272.076 142.538V135.79H270.648L270.606 136.98C270.242 136.294 269.416 135.622 268.184 135.622C266.294 135.622 265.104 137.106 265.104 139.108V139.388C265.104 141.376 266.308 142.888 268.226 142.888C269.346 142.888 270.158 142.314 270.536 141.614V142.678C270.536 143.812 269.822 144.4 268.632 144.4C267.596 144.4 267.05 144.05 266.966 143.42H265.286C265.44 144.68 266.56 145.562 268.548 145.562ZM268.604 141.656C267.372 141.656 266.672 140.76 266.672 139.388V139.108C266.672 137.708 267.358 136.84 268.604 136.84C269.892 136.84 270.592 137.708 270.592 139.108V139.388C270.592 140.76 269.878 141.656 268.604 141.656ZM275.434 143.182C276.47 143.182 277.352 142.692 277.8 141.88L277.856 143H279.27V138.1C279.27 136.602 278.22 135.622 276.358 135.622C274.594 135.622 273.418 136.476 273.292 137.96H274.762C274.832 137.232 275.434 136.826 276.33 136.826C277.24 136.826 277.786 137.246 277.786 138.044V138.562L274.944 138.982C273.712 139.15 273.012 139.906 273.012 141.054C273.012 142.286 273.95 143.182 275.434 143.182ZM275.784 141.964C274.972 141.964 274.51 141.586 274.51 140.984C274.51 140.424 274.818 140.116 275.476 140.018L277.786 139.696V140.354C277.786 141.292 276.862 141.964 275.784 141.964ZM283.656 145.562C285.938 145.562 287.184 144.4 287.184 142.538V135.79H285.756L285.714 136.98C285.35 136.294 284.524 135.622 283.292 135.622C281.402 135.622 280.212 137.106 280.212 139.108V139.388C280.212 141.376 281.416 142.888 283.334 142.888C284.454 142.888 285.266 142.314 285.644 141.614V142.678C285.644 143.812 284.93 144.4 283.74 144.4C282.704 144.4 282.158 144.05 282.074 143.42H280.394C280.548 144.68 281.668 145.562 283.656 145.562ZM283.712 141.656C282.48 141.656 281.78 140.76 281.78 139.388V139.108C281.78 137.708 282.466 136.84 283.712 136.84C285 136.84 285.7 137.708 285.7 139.108V139.388C285.7 140.76 284.986 141.656 283.712 141.656ZM291.732 143.182C293.538 143.182 294.742 142.258 295.092 140.746H293.552C293.342 141.474 292.74 141.95 291.732 141.95C290.514 141.95 289.814 141.18 289.744 139.738H295.134C295.246 137.274 294.098 135.622 291.732 135.622C289.52 135.622 288.162 137.106 288.162 139.29V139.5C288.162 141.684 289.492 143.182 291.732 143.182ZM289.772 138.632C289.94 137.456 290.598 136.84 291.718 136.84C292.852 136.84 293.44 137.512 293.552 138.632H289.772ZM297.646 143V139.01C297.646 137.652 298.29 136.896 299.326 136.896C300.278 136.896 300.698 137.498 300.698 138.674V143H302.238V138.996C302.238 137.666 302.84 136.896 303.876 136.896C304.828 136.896 305.262 137.47 305.262 138.66V143H306.802V138.352C306.802 136.686 306.046 135.622 304.394 135.622C303.33 135.622 302.518 136.14 302.014 137.022C301.678 136.112 300.936 135.622 299.858 135.622C298.724 135.622 297.996 136.224 297.632 136.91L297.59 135.79H296.106V143H297.646ZM311.311 143.182C313.117 143.182 314.321 142.258 314.671 140.746H313.131C312.921 141.474 312.319 141.95 311.311 141.95C310.093 141.95 309.393 141.18 309.323 139.738H314.713C314.825 137.274 313.677 135.622 311.311 135.622C309.099 135.622 307.741 137.106 307.741 139.29V139.5C307.741 141.684 309.071 143.182 311.311 143.182ZM309.351 138.632C309.519 137.456 310.177 136.84 311.297 136.84C312.431 136.84 313.019 137.512 313.131 138.632H309.351ZM317.224 143V138.968C317.224 137.68 317.938 136.896 319.002 136.896C320.052 136.896 320.486 137.554 320.486 138.73V143H322.012V138.352C322.012 136.714 321.27 135.622 319.52 135.622C318.358 135.622 317.602 136.224 317.224 136.938L317.168 135.79H315.684V143H317.224ZM326.224 143.182C326.588 143.182 327.078 143.112 327.4 143.014V141.782C327.19 141.852 326.826 141.922 326.518 141.922C325.664 141.922 325.398 141.6 325.398 140.886V136.952H327.358V135.79H325.398V133.536H323.858V135.79H322.458V136.952H323.858V141.054C323.858 142.454 324.642 143.182 326.224 143.182Z" fill="#333333"/>
<g clip-path="url(#clip4_969_8276)">
<path d="M338 132C336.813 132 335.653 132.352 334.667 133.011C333.68 133.67 332.911 134.608 332.457 135.704C332.003 136.8 331.884 138.007 332.115 139.171C332.347 140.334 332.918 141.404 333.757 142.243C334.596 143.082 335.666 143.653 336.829 143.885C337.993 144.116 339.2 143.997 340.296 143.543C341.392 143.089 342.33 142.32 342.989 141.333C343.648 140.347 344 139.187 344 138C343.995 136.41 343.362 134.887 342.237 133.763C341.113 132.638 339.59 132.005 338 132ZM338 142.5C337.11 142.5 336.24 142.236 335.5 141.742C334.76 141.247 334.183 140.544 333.843 139.722C333.502 138.9 333.413 137.995 333.586 137.122C333.76 136.249 334.189 135.447 334.818 134.818C335.447 134.189 336.249 133.76 337.122 133.586C337.995 133.413 338.9 133.502 339.722 133.843C340.544 134.183 341.247 134.76 341.742 135.5C342.236 136.24 342.5 137.11 342.5 138C342.496 139.192 342.021 140.335 341.178 141.178C340.335 142.021 339.192 142.496 338 142.5Z" fill="#999999"/>
<path d="M338.375 137.25H337.625C337.418 137.25 337.25 137.418 337.25 137.625V140.625C337.25 140.832 337.418 141 337.625 141H338.375C338.582 141 338.75 140.832 338.75 140.625V137.625C338.75 137.418 338.582 137.25 338.375 137.25Z" fill="#999999"/>
<path d="M338 136.5C338.414 136.5 338.75 136.164 338.75 135.75C338.75 135.336 338.414 135 338 135C337.586 135 337.25 135.336 337.25 135.75C337.25 136.164 337.586 136.5 338 136.5Z" fill="#999999"/>
</g>
<path d="M256.104 170V152.96H254.064C253.104 154.448 251.616 155.408 249.936 155.768V158.264C251.232 158 252.432 157.472 253.368 156.68V170H256.104ZM262.175 170V167.12H259.319V170H262.175ZM270.502 170.312C274.102 170.312 276.718 168.296 276.718 165.344V165.08C276.718 162.968 275.302 161.552 273.43 161.072C275.038 160.544 276.142 159.2 276.142 157.472V157.208C276.142 154.472 273.718 152.648 270.526 152.648C267.142 152.648 264.67 154.784 264.526 158H267.214C267.334 156.056 268.558 154.928 270.574 154.928C272.278 154.928 273.502 155.936 273.502 157.352V157.688C273.502 159.248 272.206 160.088 270.55 160.088H268.822V162.272H270.598C272.518 162.272 273.91 163.184 273.91 164.888V165.224C273.91 166.904 272.47 167.96 270.526 167.96C268.39 167.96 267.094 166.88 266.926 164.888H264.142C264.286 168.248 266.71 170.312 270.502 170.312ZM284.793 170.312C288.825 170.312 291.273 167.216 291.273 161.888V161C291.273 155.6 288.777 152.648 284.817 152.648C281.265 152.648 278.769 155.048 278.769 158.384V158.648C278.769 161.888 281.217 163.952 284.241 163.952C286.281 163.952 287.865 163.016 288.633 161.648V162.104C288.633 166.424 287.193 168.008 284.793 168.008C283.065 168.008 281.913 167.072 281.649 165.512H278.913C279.321 168.464 281.553 170.312 284.793 170.312ZM284.817 161.744C282.897 161.744 281.601 160.472 281.601 158.6V158.264C281.601 156.224 282.897 154.904 284.817 154.904C286.785 154.904 288.129 156.32 288.129 158.264V158.576C288.129 160.424 286.785 161.744 284.817 161.744ZM296.567 160.64C298.391 160.64 300.647 159.392 300.647 156.656C300.647 153.848 298.391 152.648 296.567 152.648C294.719 152.648 292.487 153.848 292.487 156.656C292.487 159.392 294.719 160.64 296.567 160.64ZM296.903 170L309.431 152.96H306.791L294.239 170H296.903ZM296.567 158.624C295.487 158.624 294.623 157.88 294.623 156.656C294.623 155.36 295.487 154.664 296.567 154.664C297.623 154.664 298.487 155.36 298.487 156.656C298.487 157.88 297.623 158.624 296.567 158.624ZM307.199 170.312C309.047 170.312 311.303 169.064 311.303 166.328C311.303 163.52 309.047 162.32 307.199 162.32C305.375 162.32 303.143 163.52 303.143 166.328C303.143 169.064 305.375 170.312 307.199 170.312ZM307.199 168.296C306.143 168.296 305.279 167.552 305.279 166.328C305.279 165.008 306.143 164.336 307.199 164.336C308.279 164.336 309.143 165.008 309.143 166.328C309.143 167.552 308.279 168.296 307.199 168.296Z" fill="black"/>
<rect y="252" width="564" height="92" rx="16" fill="#F9F9F9"/>
<g clip-path="url(#clip5_969_8276)">
<path d="M26.1233 220.063C24.2833 219.977 19.7258 219.981 17.8841 220.063C16.2658 220.139 14.8383 220.53 13.6875 221.68C11.7641 223.604 12.01 226.195 12.01 229.996C12.01 233.886 11.7933 236.418 13.6875 238.312C15.6183 240.242 18.2475 239.99 22.0033 239.99C25.8566 239.99 27.1866 239.992 28.5491 239.465C30.4016 238.745 31.8 237.09 31.9366 234.115C32.0233 232.275 32.0183 227.718 31.9366 225.876C31.7716 222.365 29.8875 220.236 26.1233 220.063ZM29.0358 237.04C27.775 238.3 26.0258 238.188 21.9791 238.188C17.8125 238.188 16.1416 238.25 14.9225 237.027C13.5183 235.63 13.7725 233.385 13.7725 229.983C13.7725 225.379 13.3 222.063 17.9208 221.826C18.9825 221.789 19.295 221.776 21.9675 221.776L22.005 221.801C26.4458 221.801 29.93 221.336 30.1391 225.956C30.1866 227.01 30.1975 227.327 30.1975 229.995C30.1966 234.114 30.275 235.795 29.0358 237.04Z" fill="#FB50B7"/>
<path d="M19.9998 235.117C19.9998 235.506 20.4238 235.746 20.757 235.546L24.2852 233.429C24.6089 233.235 24.6089 232.766 24.2852 232.571L20.757 230.454C20.4238 230.255 19.9998 230.495 19.9998 230.883V235.117Z" fill="#FB50B7"/>
<rect x="13" y="226" width="18" height="2" fill="#FB50B7"/>
<rect x="16.3438" y="220.696" width="7" height="1.57742" transform="rotate(58.1719 16.3438 220.696)" fill="#FB50B7"/>
<rect x="20.3438" y="220.696" width="7" height="1.57742" transform="rotate(58.1719 20.3438 220.696)" fill="#FB50B7"/>
<rect x="24.3438" y="220.696" width="7" height="1.57742" transform="rotate(58.1719 24.3438 220.696)" fill="#FB50B7"/>
</g>
<path d="M43.5 237V231.6H46.24L49.68 237H52.34L48.7 231.42C50.74 230.98 52.04 229.6 52.04 227.36V227.04C52.04 224.28 50.04 222.8 47.18 222.8H41.2V237H43.5ZM43.5 224.76H47C48.6 224.76 49.66 225.48 49.66 227.04V227.36C49.66 228.92 48.6 229.64 47 229.64H43.5V224.76ZM57.7047 237.26C60.2847 237.26 62.0047 235.94 62.5047 233.78H60.3047C60.0047 234.82 59.1447 235.5 57.7047 235.5C55.9647 235.5 54.9647 234.4 54.8647 232.34H62.5647C62.7247 228.82 61.0847 226.46 57.7047 226.46C54.5447 226.46 52.6047 228.58 52.6047 231.7V232C52.6047 235.12 54.5047 237.26 57.7047 237.26ZM54.9047 230.76C55.1447 229.08 56.0847 228.2 57.6847 228.2C59.3047 228.2 60.1447 229.16 60.3047 230.76H54.9047ZM68.6523 237.26C71.2323 237.26 72.9523 235.94 73.4523 233.78H71.2523C70.9523 234.82 70.0923 235.5 68.6523 235.5C66.9123 235.5 65.9123 234.4 65.8123 232.34H73.5123C73.6723 228.82 72.0323 226.46 68.6523 226.46C65.4923 226.46 63.5523 228.58 63.5523 231.7V232C63.5523 235.12 65.4523 237.26 68.6523 237.26ZM65.8523 230.76C66.0923 229.08 67.0323 228.2 68.6323 228.2C70.2523 228.2 71.0923 229.16 71.2523 230.76H65.8523ZM74.9 222.2V237H77.1V222.2H74.9ZM82.9145 237.26C85.4945 237.26 87.1945 235.94 87.1945 233.98C87.1945 232.18 85.9345 231.32 83.3345 230.9C81.4545 230.6 80.8745 230.22 80.8745 229.42C80.8745 228.58 81.6145 228.08 82.7545 228.08C83.9345 228.08 84.7345 228.64 84.8945 229.68H86.9945C86.7945 227.64 85.2545 226.46 82.7745 226.46C80.4145 226.46 78.7545 227.7 78.7545 229.54C78.7545 231.38 79.9745 232.18 82.4745 232.6C84.4345 232.96 85.0145 233.36 85.0145 234.18C85.0145 235.1 84.1745 235.6 82.9345 235.6C81.5745 235.6 80.6945 235.02 80.5145 233.8H78.3945C78.5945 236 80.2545 237.26 82.9145 237.26Z" fill="black"/>
<g clip-path="url(#clip6_969_8276)">
<path d="M39 292H29V294H39V292Z" fill="#999999"/>
<path d="M41 290H27C26.4 290 26 289.6 26 289V279C26 278.4 26.4 278 27 278H41C41.6 278 42 278.4 42 279V289C42 289.6 41.6 290 41 290ZM28 288H40V280H28V288Z" fill="#999999"/>
<path d="M32 287L36 284L32 281V287Z" fill="#999999"/>
</g>
<path d="M59.59 291L55.768 281.06H53.99L50.168 291H51.82L52.716 288.578H56.986L57.868 291H59.59ZM54.858 282.796L56.482 287.22H53.22L54.858 282.796ZM63.1294 291L65.7894 283.79H64.2074L62.3034 289.432L60.3714 283.79H58.7474L61.4214 291H63.1294ZM69.2607 293.562C71.5427 293.562 72.7887 292.4 72.7887 290.538V283.79H71.3607L71.3187 284.98C70.9547 284.294 70.1287 283.622 68.8967 283.622C67.0067 283.622 65.8167 285.106 65.8167 287.108V287.388C65.8167 289.376 67.0207 290.888 68.9387 290.888C70.0587 290.888 70.8707 290.314 71.2487 289.614V290.678C71.2487 291.812 70.5347 292.4 69.3447 292.4C68.3087 292.4 67.7627 292.05 67.6787 291.42H65.9987C66.1527 292.68 67.2727 293.562 69.2607 293.562ZM69.3167 289.656C68.0847 289.656 67.3847 288.76 67.3847 287.388V287.108C67.3847 285.708 68.0707 284.84 69.3167 284.84C70.6047 284.84 71.3047 285.708 71.3047 287.108V287.388C71.3047 288.76 70.5907 289.656 69.3167 289.656ZM76.1361 291V289.32H74.4701V291H76.1361ZM84.9584 291L88.4584 281.06H86.7784L84.1044 289.166L81.4024 281.06H79.6664L83.1804 291H84.9584ZM90.8536 280.64H89.2436V282.74H90.8536V280.64ZM89.2716 283.79V291H90.8116V283.79H89.2716ZM95.3578 291.182C97.1638 291.182 98.3678 290.258 98.7178 288.746H97.1778C96.9678 289.474 96.3658 289.95 95.3578 289.95C94.1398 289.95 93.4398 289.18 93.3698 287.738H98.7598C98.8718 285.274 97.7238 283.622 95.3578 283.622C93.1458 283.622 91.7878 285.106 91.7878 287.29V287.5C91.7878 289.684 93.1178 291.182 95.3578 291.182ZM93.3978 286.632C93.5658 285.456 94.2238 284.84 95.3438 284.84C96.4778 284.84 97.0658 285.512 97.1778 286.632H93.3978ZM102.54 291L104.052 285.638L105.578 291H107.202L109.386 283.79H107.86L106.348 289.32L104.822 283.79H103.296L101.798 289.278L100.3 283.79H98.7464L100.916 291H102.54ZM112.546 291.182C114.352 291.182 115.542 290.258 115.542 288.886C115.542 287.626 114.66 287.024 112.84 286.73C111.524 286.52 111.118 286.254 111.118 285.694C111.118 285.106 111.636 284.756 112.434 284.756C113.26 284.756 113.82 285.148 113.932 285.876H115.402C115.262 284.448 114.184 283.622 112.448 283.622C110.796 283.622 109.634 284.49 109.634 285.778C109.634 287.066 110.488 287.626 112.238 287.92C113.61 288.172 114.016 288.452 114.016 289.026C114.016 289.67 113.428 290.02 112.56 290.02C111.608 290.02 110.992 289.614 110.866 288.76H109.382C109.522 290.3 110.684 291.182 112.546 291.182Z" fill="#333333"/>
<path d="M57.104 318V300.96H55.064C54.104 302.448 52.616 303.408 50.936 303.768V306.264C52.232 306 53.432 305.472 54.368 304.68V318H57.104ZM63.1745 318V315.12H60.3185V318H63.1745ZM71.2241 318.312C74.7521 318.312 77.2721 315.912 77.2721 312.576V312.312C77.2721 309.072 74.8241 307.008 71.8001 307.008C69.7601 307.008 68.2001 307.944 67.4081 309.312V308.856C67.4081 304.536 68.8481 302.952 71.2481 302.952C72.9521 302.952 74.0801 303.864 74.3921 305.448H77.1521C76.7201 302.496 74.4881 300.648 71.2481 300.648C67.2161 300.648 64.7681 303.744 64.7681 309.072V309.936C64.7681 315.336 67.2641 318.312 71.2241 318.312ZM71.2241 316.056C69.2561 316.056 67.9121 314.64 67.9121 312.696V312.384C67.9121 310.536 69.2561 309.216 71.2241 309.216C73.1681 309.216 74.4401 310.488 74.4401 312.36V312.696C74.4401 314.712 73.1441 316.056 71.2241 316.056ZM82.3897 318V311.16C82.3897 308.832 83.4937 307.536 85.2697 307.536C86.9017 307.536 87.6217 308.568 87.6217 310.584V318H90.2617V311.136C90.2617 308.856 91.2937 307.536 93.0697 307.536C94.7017 307.536 95.4457 308.52 95.4457 310.56V318H98.0857V310.032C98.0857 307.176 96.7897 305.352 93.9577 305.352C92.1337 305.352 90.7417 306.24 89.8777 307.752C89.3017 306.192 88.0297 305.352 86.1817 305.352C84.2377 305.352 82.9897 306.384 82.3657 307.56L82.2937 305.64H79.7497V318H82.3897Z" fill="black"/>
<path d="M232.4 293.778C231.6 293.051 225 287.342 225 282.983C225 280.18 227.2 278 229.8 278C231 278 232.1 278.519 233 279.246C233.9 278.415 235 278 236.2 278C238.9 278 241 280.284 241 282.983C241 287.342 234.4 293.051 233.6 293.674C233.3 294.089 232.7 294.089 232.4 293.778ZM229.8 280.076C228.3 280.076 227 281.425 227 282.983C227 285.266 230.5 289.211 233 291.494C235.1 289.522 239 285.474 239 282.983C239 281.322 237.7 280.076 236.2 280.076C235.3 280.076 234.4 280.595 233.9 281.425C233.5 282.048 232.6 282.048 232.2 281.425C231.6 280.595 230.8 280.076 229.8 280.076Z" fill="#999999"/>
<path d="M232.766 288.315C232.343 287.946 232.288 287.291 232.643 286.852L234.573 284.468C234.929 284.029 235.559 283.972 235.982 284.341C236.405 284.71 236.46 285.365 236.104 285.804L234.175 288.188C233.819 288.627 233.188 288.684 232.766 288.315Z" fill="#999999"/>
<path d="M258.59 291L254.768 281.06H252.99L249.168 291H250.82L251.716 288.578H255.986L256.868 291H258.59ZM253.858 282.796L255.482 287.22H252.22L253.858 282.796ZM262.129 291L264.789 283.79H263.207L261.303 289.432L259.371 283.79H257.747L260.421 291H262.129ZM268.261 293.562C270.543 293.562 271.789 292.4 271.789 290.538V283.79H270.361L270.319 284.98C269.955 284.294 269.129 283.622 267.897 283.622C266.007 283.622 264.817 285.106 264.817 287.108V287.388C264.817 289.376 266.021 290.888 267.939 290.888C269.059 290.888 269.871 290.314 270.249 289.614V290.678C270.249 291.812 269.535 292.4 268.345 292.4C267.309 292.4 266.763 292.05 266.679 291.42H264.999C265.153 292.68 266.273 293.562 268.261 293.562ZM268.317 289.656C267.085 289.656 266.385 288.76 266.385 287.388V287.108C266.385 285.708 267.071 284.84 268.317 284.84C269.605 284.84 270.305 285.708 270.305 287.108V287.388C270.305 288.76 269.591 289.656 268.317 289.656ZM275.136 291V289.32H273.47V291H275.136ZM285.134 291V289.642H280.976V281.06H279.338V291H285.134ZM287.502 280.64H285.892V282.74H287.502V280.64ZM285.92 283.79V291H287.46V283.79H285.92ZM290.97 287.626L293.28 291H295.044L292.076 286.674L294.946 283.79H293.084L290.256 286.674V280.64H288.716V291H290.256V288.34L290.97 287.626ZM298.466 291.182C300.272 291.182 301.476 290.258 301.826 288.746H300.286C300.076 289.474 299.474 289.95 298.466 289.95C297.248 289.95 296.548 289.18 296.478 287.738H301.868C301.98 285.274 300.832 283.622 298.466 283.622C296.254 283.622 294.896 285.106 294.896 287.29V287.5C294.896 289.684 296.226 291.182 298.466 291.182ZM296.506 286.632C296.674 285.456 297.332 284.84 298.452 284.84C299.586 284.84 300.174 285.512 300.286 286.632H296.506ZM305.476 291.182C307.282 291.182 308.472 290.258 308.472 288.886C308.472 287.626 307.59 287.024 305.77 286.73C304.454 286.52 304.048 286.254 304.048 285.694C304.048 285.106 304.566 284.756 305.364 284.756C306.19 284.756 306.75 285.148 306.862 285.876H308.332C308.192 284.448 307.114 283.622 305.378 283.622C303.726 283.622 302.564 284.49 302.564 285.778C302.564 287.066 303.418 287.626 305.168 287.92C306.54 288.172 306.946 288.452 306.946 289.026C306.946 289.67 306.358 290.02 305.49 290.02C304.538 290.02 303.922 289.614 303.796 288.76H302.312C302.452 290.3 303.614 291.182 305.476 291.182Z" fill="#333333"/>
<path d="M255.12 318C256.032 312.696 258.288 307.68 261.984 302.904V300.96H249.864V303.288H258.936C255.384 307.992 253.08 312.864 252.096 318H255.12ZM269.212 318.312C272.884 318.312 275.452 316.392 275.452 313.392V313.152C275.452 311.04 273.964 309.576 272.164 309.072C273.724 308.496 274.828 307.152 274.828 305.4V305.16C274.828 302.496 272.38 300.648 269.212 300.648C265.996 300.648 263.572 302.496 263.572 305.16V305.4C263.572 307.152 264.652 308.496 266.212 309.072C264.388 309.576 262.948 311.04 262.948 313.152V313.392C262.948 316.392 265.54 318.312 269.212 318.312ZM269.212 307.992C267.532 307.992 266.236 307.08 266.236 305.544V305.328C266.236 303.792 267.532 302.856 269.212 302.856C270.892 302.856 272.164 303.792 272.164 305.328V305.544C272.164 307.08 270.868 307.992 269.212 307.992ZM269.212 316.032C267.244 316.032 265.78 314.976 265.78 313.248V313.032C265.78 311.304 267.268 310.248 269.212 310.248C271.132 310.248 272.62 311.304 272.62 313.032V313.248C272.62 314.976 271.156 316.032 269.212 316.032ZM288.922 318V315.672H280.162C280.186 313.752 280.714 312.816 283.978 311.4C287.914 309.72 288.802 307.944 288.802 305.64V305.496C288.802 302.808 286.594 300.648 283.258 300.648C279.778 300.648 277.594 302.784 277.402 306H280.186C280.258 304.056 281.386 302.928 283.306 302.928C285.034 302.928 286.042 304.08 286.042 305.568V305.64C286.042 307.392 285.466 308.208 282.61 309.384C278.002 311.256 277.258 313.272 277.258 316.08V318H288.922ZM294.448 318V315.12H291.592V318H294.448ZM306.282 318V313.92H308.706V311.688H306.282V300.96H303.522L295.842 311.712V313.92H303.642V318H306.282ZM303.642 304.368V311.712H298.458L303.642 304.368ZM315.004 312.216L318.964 318H321.988L316.9 310.584L321.82 305.64H318.628L313.78 310.584V300.24H311.14V318H313.78V313.44L315.004 312.216Z" fill="black"/>
<path d="M419 278H405C404.4 278 404 278.4 404 279V290C404 290.6 404.4 291 405 291H408.6L411.3 293.7C411.5 293.9 411.7 294 412 294C412.3 294 412.5 293.9 412.7 293.7L415.4 291H419C419.6 291 420 290.6 420 290V279C420 278.4 419.6 278 419 278ZM418 289H415C414.7 289 414.5 289.1 414.3 289.3L412 291.6L409.7 289.3C409.5 289.1 409.3 289 409 289H406V280H418V289Z" fill="#999999"/>
<path d="M415 283C415 282.448 414.552 282 414 282H410C409.448 282 409 282.448 409 283C409 283.552 409.448 284 410 284H414C414.552 284 415 283.552 415 283Z" fill="#999999"/>
<path d="M415 286C415 285.448 414.552 285 414 285H410C409.448 285 409 285.448 409 286C409 286.552 409.448 287 410 287H414C414.552 287 415 286.552 415 286Z" fill="#999999"/>
<path d="M437.59 291L433.768 281.06H431.99L428.168 291H429.82L430.716 288.578H434.986L435.868 291H437.59ZM432.858 282.796L434.482 287.22H431.22L432.858 282.796ZM441.129 291L443.789 283.79H442.207L440.303 289.432L438.371 283.79H436.747L439.421 291H441.129ZM447.261 293.562C449.543 293.562 450.789 292.4 450.789 290.538V283.79H449.361L449.319 284.98C448.955 284.294 448.129 283.622 446.897 283.622C445.007 283.622 443.817 285.106 443.817 287.108V287.388C443.817 289.376 445.021 290.888 446.939 290.888C448.059 290.888 448.871 290.314 449.249 289.614V290.678C449.249 291.812 448.535 292.4 447.345 292.4C446.309 292.4 445.763 292.05 445.679 291.42H443.999C444.153 292.68 445.273 293.562 447.261 293.562ZM447.317 289.656C446.085 289.656 445.385 288.76 445.385 287.388V287.108C445.385 285.708 446.071 284.84 447.317 284.84C448.605 284.84 449.305 285.708 449.305 287.108V287.388C449.305 288.76 448.591 289.656 447.317 289.656ZM454.136 291V289.32H452.47V291H454.136ZM462.664 291.182C465.142 291.182 466.724 289.516 466.878 287.248H465.212C465.142 288.76 464.176 289.768 462.664 289.768C460.816 289.768 459.696 288.312 459.696 286.198V285.862C459.696 283.748 460.802 282.278 462.664 282.278C464.078 282.278 465.03 283.174 465.226 284.672H466.878C466.682 282.39 465.072 280.878 462.678 280.878C459.864 280.878 458.016 282.936 458.016 285.862V286.198C458.016 289.152 459.85 291.182 462.664 291.182ZM471.053 291.182C473.224 291.182 474.624 289.698 474.624 287.5V287.29C474.624 285.092 473.224 283.622 471.053 283.622C468.897 283.622 467.497 285.092 467.497 287.29V287.5C467.497 289.698 468.897 291.182 471.053 291.182ZM471.053 289.936C469.751 289.936 469.065 289.054 469.065 287.5V287.29C469.065 285.736 469.751 284.868 471.053 284.868C472.369 284.868 473.055 285.736 473.055 287.29V287.5C473.055 289.054 472.369 289.936 471.053 289.936ZM477.145 291V287.01C477.145 285.652 477.789 284.896 478.825 284.896C479.777 284.896 480.197 285.498 480.197 286.674V291H481.737V286.996C481.737 285.666 482.339 284.896 483.375 284.896C484.327 284.896 484.761 285.47 484.761 286.66V291H486.301V286.352C486.301 284.686 485.545 283.622 483.893 283.622C482.829 283.622 482.017 284.14 481.513 285.022C481.177 284.112 480.435 283.622 479.357 283.622C478.223 283.622 477.495 284.224 477.131 284.91L477.089 283.79H475.605V291H477.145ZM489.06 291V287.01C489.06 285.652 489.704 284.896 490.74 284.896C491.692 284.896 492.112 285.498 492.112 286.674V291H493.652V286.996C493.652 285.666 494.254 284.896 495.29 284.896C496.242 284.896 496.676 285.47 496.676 286.66V291H498.216V286.352C498.216 284.686 497.46 283.622 495.808 283.622C494.744 283.622 493.932 284.14 493.428 285.022C493.092 284.112 492.35 283.622 491.272 283.622C490.138 283.622 489.41 284.224 489.046 284.91L489.004 283.79H487.52V291H489.06ZM502.726 291.182C504.532 291.182 505.736 290.258 506.086 288.746H504.546C504.336 289.474 503.734 289.95 502.726 289.95C501.508 289.95 500.808 289.18 500.738 287.738H506.128C506.24 285.274 505.092 283.622 502.726 283.622C500.514 283.622 499.156 285.106 499.156 287.29V287.5C499.156 289.684 500.486 291.182 502.726 291.182ZM500.766 286.632C500.934 285.456 501.592 284.84 502.712 284.84C503.846 284.84 504.434 285.512 504.546 286.632H500.766ZM508.639 291V286.968C508.639 285.68 509.353 284.896 510.417 284.896C511.467 284.896 511.901 285.554 511.901 286.73V291H513.427V286.352C513.427 284.714 512.685 283.622 510.935 283.622C509.773 283.622 509.017 284.224 508.639 284.938L508.583 283.79H507.099V291H508.639ZM517.639 291.182C518.003 291.182 518.493 291.112 518.815 291.014V289.782C518.605 289.852 518.241 289.922 517.933 289.922C517.079 289.922 516.813 289.6 516.813 288.886V284.952H518.773V283.79H516.813V281.536H515.273V283.79H513.873V284.952H515.273V289.054C515.273 290.454 516.057 291.182 517.639 291.182ZM522.437 291.182C524.243 291.182 525.433 290.258 525.433 288.886C525.433 287.626 524.551 287.024 522.731 286.73C521.415 286.52 521.009 286.254 521.009 285.694C521.009 285.106 521.527 284.756 522.325 284.756C523.151 284.756 523.711 285.148 523.823 285.876H525.293C525.153 284.448 524.075 283.622 522.339 283.622C520.687 283.622 519.525 284.49 519.525 285.778C519.525 287.066 520.379 287.626 522.129 287.92C523.501 288.172 523.907 288.452 523.907 289.026C523.907 289.67 523.319 290.02 522.451 290.02C521.499 290.02 520.883 289.614 520.757 288.76H519.273C519.413 290.3 520.575 291.182 522.437 291.182Z" fill="#333333"/>
<path d="M435.416 318.312C439.016 318.312 441.632 316.296 441.632 313.344V313.08C441.632 310.968 440.216 309.552 438.344 309.072C439.952 308.544 441.056 307.2 441.056 305.472V305.208C441.056 302.472 438.632 300.648 435.44 300.648C432.056 300.648 429.584 302.784 429.44 306H432.128C432.248 304.056 433.472 302.928 435.488 302.928C437.192 302.928 438.416 303.936 438.416 305.352V305.688C438.416 307.248 437.12 308.088 435.464 308.088H433.736V310.272H435.512C437.432 310.272 438.824 311.184 438.824 312.888V313.224C438.824 314.904 437.384 315.96 435.44 315.96C433.304 315.96 432.008 314.88 431.84 312.888H429.056C429.2 316.248 431.624 318.312 435.416 318.312ZM446.94 318V315.12H444.084V318H446.94ZM454.84 318.312C458.872 318.312 461.32 315.216 461.32 309.888V309C461.32 303.6 458.824 300.648 454.864 300.648C451.312 300.648 448.816 303.048 448.816 306.384V306.648C448.816 309.888 451.264 311.952 454.288 311.952C456.328 311.952 457.912 311.016 458.68 309.648V310.104C458.68 314.424 457.24 316.008 454.84 316.008C453.112 316.008 451.96 315.072 451.696 313.512H448.96C449.368 316.464 451.6 318.312 454.84 318.312ZM454.864 309.744C452.944 309.744 451.648 308.472 451.648 306.6V306.264C451.648 304.224 452.944 302.904 454.864 302.904C456.832 302.904 458.176 304.32 458.176 306.264V306.576C458.176 308.424 456.832 309.744 454.864 309.744ZM467.614 312.216L471.574 318H474.598L469.51 310.584L474.43 305.64H471.238L466.39 310.584V300.24H463.75V318H466.39V313.44L467.614 312.216Z" fill="black"/>
<rect y="400" width="564" height="92" rx="16" fill="#F9F9F9"/>
<g clip-path="url(#clip7_969_8276)">
<path d="M26.1233 368.063C24.2833 367.977 19.7258 367.981 17.8841 368.063C16.2658 368.139 14.8383 368.53 13.6875 369.68C11.7641 371.604 12.01 374.195 12.01 377.996C12.01 381.886 11.7933 384.418 13.6875 386.312C15.6183 388.242 18.2475 387.99 22.0033 387.99C25.8566 387.99 27.1866 387.992 28.5491 387.465C30.4016 386.745 31.8 385.09 31.9366 382.115C32.0233 380.275 32.0183 375.718 31.9366 373.876C31.7716 370.365 29.8875 368.236 26.1233 368.063ZM29.0358 385.04C27.775 386.3 26.0258 386.188 21.9791 386.188C17.8125 386.188 16.1416 386.25 14.9225 385.027C13.5183 383.63 13.7725 381.385 13.7725 377.983C13.7725 373.379 13.3 370.063 17.9208 369.826C18.9825 369.789 19.295 369.776 21.9675 369.776L22.005 369.801C26.4458 369.801 29.93 369.336 30.1391 373.956C30.1866 375.01 30.1975 375.327 30.1975 377.995C30.1966 382.114 30.275 383.795 29.0358 385.04Z" fill="#FB50B7"/>
<path d="M20.0528 381.281C20.0297 381.295 20.0139 381.297 20.0026 381.297C19.9884 381.298 19.9701 381.294 19.9513 381.283C19.9325 381.273 19.9196 381.259 19.9121 381.247C19.9062 381.238 19.8998 381.223 19.8998 381.196V374.804C19.8998 374.777 19.9062 374.763 19.9121 374.753C19.9196 374.741 19.9325 374.727 19.9513 374.717C19.9701 374.706 19.9884 374.703 20.0026 374.703C20.0139 374.703 20.0297 374.705 20.0528 374.72L25.166 377.915C25.2287 377.954 25.2286 378.046 25.166 378.085L20.0528 381.281Z" stroke="#FB50B7" stroke-width="1.8"/>
</g>
<path d="M47.8 385L52.8 370.8H50.4L46.58 382.38L42.72 370.8H40.24L45.26 385H47.8ZM56.2217 370.2H53.9217V373.2H56.2217V370.2ZM53.9617 374.7V385H56.1617V374.7H53.9617ZM61.9963 385.26C63.7563 385.26 64.9163 384.26 65.4163 383.28L65.4763 385H67.5163V370.2H65.3163V376.2C64.7163 375.24 63.5963 374.46 61.9563 374.46C59.2363 374.46 57.5563 376.64 57.5563 379.7V380C57.5563 383.08 59.2963 385.26 61.9963 385.26ZM62.5563 383.48C60.7763 383.48 59.7963 382.2 59.7963 380V379.7C59.7963 377.48 60.7963 376.2 62.5563 376.2C64.3763 376.2 65.3963 377.48 65.3963 379.7V380C65.3963 382.22 64.3963 383.48 62.5563 383.48ZM74.0141 385.26C76.5941 385.26 78.3141 383.94 78.8141 381.78H76.6141C76.3141 382.82 75.4541 383.5 74.0141 383.5C72.2741 383.5 71.2741 382.4 71.1741 380.34H78.8741C79.0341 376.82 77.3941 374.46 74.0141 374.46C70.8541 374.46 68.9141 376.58 68.9141 379.7V380C68.9141 383.12 70.8141 385.26 74.0141 385.26ZM71.2141 378.76C71.4541 377.08 72.3941 376.2 73.9941 376.2C75.6141 376.2 76.4541 377.16 76.6141 378.76H71.2141ZM84.9417 385.26C88.0417 385.26 90.0417 383.14 90.0417 380V379.7C90.0417 376.56 88.0417 374.46 84.9417 374.46C81.8617 374.46 79.8617 376.56 79.8617 379.7V380C79.8617 383.14 81.8617 385.26 84.9417 385.26ZM84.9417 383.48C83.0817 383.48 82.1017 382.22 82.1017 380V379.7C82.1017 377.48 83.0817 376.24 84.9417 376.24C86.8217 376.24 87.8017 377.48 87.8017 379.7V380C87.8017 382.22 86.8217 383.48 84.9417 383.48ZM95.2098 385.26C97.7898 385.26 99.4898 383.94 99.4898 381.98C99.4898 380.18 98.2298 379.32 95.6298 378.9C93.7498 378.6 93.1698 378.22 93.1698 377.42C93.1698 376.58 93.9098 376.08 95.0498 376.08C96.2298 376.08 97.0298 376.64 97.1898 377.68H99.2898C99.0898 375.64 97.5498 374.46 95.0698 374.46C92.7098 374.46 91.0498 375.7 91.0498 377.54C91.0498 379.38 92.2698 380.18 94.7698 380.6C96.7298 380.96 97.3098 381.36 97.3098 382.18C97.3098 383.1 96.4698 383.6 95.2298 383.6C93.8698 383.6 92.9898 383.02 92.8098 381.8H90.6898C90.8898 384 92.5498 385.26 95.2098 385.26Z" fill="black"/>
<g clip-path="url(#clip8_969_8276)">
<path d="M39 440H29V442H39V440Z" fill="#999999"/>
<path d="M41 438H27C26.4 438 26 437.6 26 437V427C26 426.4 26.4 426 27 426H41C41.6 426 42 426.4 42 427V437C42 437.6 41.6 438 41 438ZM28 436H40V428H28V436Z" fill="#999999"/>
<path d="M32 435L36 432L32 429V435Z" fill="#999999"/>
</g>
<path d="M59.59 439L55.768 429.06H53.99L50.168 439H51.82L52.716 436.578H56.986L57.868 439H59.59ZM54.858 430.796L56.482 435.22H53.22L54.858 430.796ZM63.1294 439L65.7894 431.79H64.2074L62.3034 437.432L60.3714 431.79H58.7474L61.4214 439H63.1294ZM69.2607 441.562C71.5427 441.562 72.7887 440.4 72.7887 438.538V431.79H71.3607L71.3187 432.98C70.9547 432.294 70.1287 431.622 68.8967 431.622C67.0067 431.622 65.8167 433.106 65.8167 435.108V435.388C65.8167 437.376 67.0207 438.888 68.9387 438.888C70.0587 438.888 70.8707 438.314 71.2487 437.614V438.678C71.2487 439.812 70.5347 440.4 69.3447 440.4C68.3087 440.4 67.7627 440.05 67.6787 439.42H65.9987C66.1527 440.68 67.2727 441.562 69.2607 441.562ZM69.3167 437.656C68.0847 437.656 67.3847 436.76 67.3847 435.388V435.108C67.3847 433.708 68.0707 432.84 69.3167 432.84C70.6047 432.84 71.3047 433.708 71.3047 435.108V435.388C71.3047 436.76 70.5907 437.656 69.3167 437.656ZM76.1361 439V437.32H74.4701V439H76.1361ZM84.9584 439L88.4584 429.06H86.7784L84.1044 437.166L81.4024 429.06H79.6664L83.1804 439H84.9584ZM90.8536 428.64H89.2436V430.74H90.8536V428.64ZM89.2716 431.79V439H90.8116V431.79H89.2716ZM95.3578 439.182C97.1638 439.182 98.3678 438.258 98.7178 436.746H97.1778C96.9678 437.474 96.3658 437.95 95.3578 437.95C94.1398 437.95 93.4398 437.18 93.3698 435.738H98.7598C98.8718 433.274 97.7238 431.622 95.3578 431.622C93.1458 431.622 91.7878 433.106 91.7878 435.29V435.5C91.7878 437.684 93.1178 439.182 95.3578 439.182ZM93.3978 434.632C93.5658 433.456 94.2238 432.84 95.3438 432.84C96.4778 432.84 97.0658 433.512 97.1778 434.632H93.3978ZM102.54 439L104.052 433.638L105.578 439H107.202L109.386 431.79H107.86L106.348 437.32L104.822 431.79H103.296L101.798 437.278L100.3 431.79H98.7464L100.916 439H102.54ZM112.546 439.182C114.352 439.182 115.542 438.258 115.542 436.886C115.542 435.626 114.66 435.024 112.84 434.73C111.524 434.52 111.118 434.254 111.118 433.694C111.118 433.106 111.636 432.756 112.434 432.756C113.26 432.756 113.82 433.148 113.932 433.876H115.402C115.262 432.448 114.184 431.622 112.448 431.622C110.796 431.622 109.634 432.49 109.634 433.778C109.634 435.066 110.488 435.626 112.238 435.92C113.61 436.172 114.016 436.452 114.016 437.026C114.016 437.67 113.428 438.02 112.56 438.02C111.608 438.02 110.992 437.614 110.866 436.76H109.382C109.522 438.3 110.684 439.182 112.546 439.182Z" fill="#333333"/>
<path d="M57.104 466V448.96H55.064C54.104 450.448 52.616 451.408 50.936 451.768V454.264C52.232 454 53.432 453.472 54.368 452.68V466H57.104ZM63.1745 466V463.12H60.3185V466H63.1745ZM71.2241 466.312C74.7521 466.312 77.2721 463.912 77.2721 460.576V460.312C77.2721 457.072 74.8241 455.008 71.8001 455.008C69.7601 455.008 68.2001 455.944 67.4081 457.312V456.856C67.4081 452.536 68.8481 450.952 71.2481 450.952C72.9521 450.952 74.0801 451.864 74.3921 453.448H77.1521C76.7201 450.496 74.4881 448.648 71.2481 448.648C67.2161 448.648 64.7681 451.744 64.7681 457.072V457.936C64.7681 463.336 67.2641 466.312 71.2241 466.312ZM71.2241 464.056C69.2561 464.056 67.9121 462.64 67.9121 460.696V460.384C67.9121 458.536 69.2561 457.216 71.2241 457.216C73.1681 457.216 74.4401 458.488 74.4401 460.36V460.696C74.4401 462.712 73.1441 464.056 71.2241 464.056ZM82.3897 466V459.16C82.3897 456.832 83.4937 455.536 85.2697 455.536C86.9017 455.536 87.6217 456.568 87.6217 458.584V466H90.2617V459.136C90.2617 456.856 91.2937 455.536 93.0697 455.536C94.7017 455.536 95.4457 456.52 95.4457 458.56V466H98.0857V458.032C98.0857 455.176 96.7897 453.352 93.9577 453.352C92.1337 453.352 90.7417 454.24 89.8777 455.752C89.3017 454.192 88.0297 453.352 86.1817 453.352C84.2377 453.352 82.9897 454.384 82.3657 455.56L82.2937 453.64H79.7497V466H82.3897Z" fill="black"/>
<path d="M232.4 441.778C231.6 441.051 225 435.342 225 430.983C225 428.18 227.2 426 229.8 426C231 426 232.1 426.519 233 427.246C233.9 426.415 235 426 236.2 426C238.9 426 241 428.284 241 430.983C241 435.342 234.4 441.051 233.6 441.674C233.3 442.089 232.7 442.089 232.4 441.778ZM229.8 428.076C228.3 428.076 227 429.425 227 430.983C227 433.266 230.5 437.211 233 439.494C235.1 437.522 239 433.474 239 430.983C239 429.322 237.7 428.076 236.2 428.076C235.3 428.076 234.4 428.595 233.9 429.425C233.5 430.048 232.6 430.048 232.2 429.425C231.6 428.595 230.8 428.076 229.8 428.076Z" fill="#999999"/>
<path d="M232.766 436.315C232.343 435.946 232.288 435.291 232.643 434.852L234.573 432.468C234.929 432.029 235.559 431.972 235.982 432.341C236.405 432.71 236.46 433.365 236.104 433.804L234.175 436.188C233.819 436.627 233.188 436.684 232.766 436.315Z" fill="#999999"/>
<path d="M258.59 439L254.768 429.06H252.99L249.168 439H250.82L251.716 436.578H255.986L256.868 439H258.59ZM253.858 430.796L255.482 435.22H252.22L253.858 430.796ZM262.129 439L264.789 431.79H263.207L261.303 437.432L259.371 431.79H257.747L260.421 439H262.129ZM268.261 441.562C270.543 441.562 271.789 440.4 271.789 438.538V431.79H270.361L270.319 432.98C269.955 432.294 269.129 431.622 267.897 431.622C266.007 431.622 264.817 433.106 264.817 435.108V435.388C264.817 437.376 266.021 438.888 267.939 438.888C269.059 438.888 269.871 438.314 270.249 437.614V438.678C270.249 439.812 269.535 440.4 268.345 440.4C267.309 440.4 266.763 440.05 266.679 439.42H264.999C265.153 440.68 266.273 441.562 268.261 441.562ZM268.317 437.656C267.085 437.656 266.385 436.76 266.385 435.388V435.108C266.385 433.708 267.071 432.84 268.317 432.84C269.605 432.84 270.305 433.708 270.305 435.108V435.388C270.305 436.76 269.591 437.656 268.317 437.656ZM275.136 439V437.32H273.47V439H275.136ZM285.134 439V437.642H280.976V429.06H279.338V439H285.134ZM287.502 428.64H285.892V430.74H287.502V428.64ZM285.92 431.79V439H287.46V431.79H285.92ZM290.97 435.626L293.28 439H295.044L292.076 434.674L294.946 431.79H293.084L290.256 434.674V428.64H288.716V439H290.256V436.34L290.97 435.626ZM298.466 439.182C300.272 439.182 301.476 438.258 301.826 436.746H300.286C300.076 437.474 299.474 437.95 298.466 437.95C297.248 437.95 296.548 437.18 296.478 435.738H301.868C301.98 433.274 300.832 431.622 298.466 431.622C296.254 431.622 294.896 433.106 294.896 435.29V435.5C294.896 437.684 296.226 439.182 298.466 439.182ZM296.506 434.632C296.674 433.456 297.332 432.84 298.452 432.84C299.586 432.84 300.174 433.512 300.286 434.632H296.506ZM305.476 439.182C307.282 439.182 308.472 438.258 308.472 436.886C308.472 435.626 307.59 435.024 305.77 434.73C304.454 434.52 304.048 434.254 304.048 433.694C304.048 433.106 304.566 432.756 305.364 432.756C306.19 432.756 306.75 433.148 306.862 433.876H308.332C308.192 432.448 307.114 431.622 305.378 431.622C303.726 431.622 302.564 432.49 302.564 433.778C302.564 435.066 303.418 435.626 305.168 435.92C306.54 436.172 306.946 436.452 306.946 437.026C306.946 437.67 306.358 438.02 305.49 438.02C304.538 438.02 303.922 437.614 303.796 436.76H302.312C302.452 438.3 303.614 439.182 305.476 439.182Z" fill="#333333"/>
<path d="M255.12 466C256.032 460.696 258.288 455.68 261.984 450.904V448.96H249.864V451.288H258.936C255.384 455.992 253.08 460.864 252.096 466H255.12ZM269.212 466.312C272.884 466.312 275.452 464.392 275.452 461.392V461.152C275.452 459.04 273.964 457.576 272.164 457.072C273.724 456.496 274.828 455.152 274.828 453.4V453.16C274.828 450.496 272.38 448.648 269.212 448.648C265.996 448.648 263.572 450.496 263.572 453.16V453.4C263.572 455.152 264.652 456.496 266.212 457.072C264.388 457.576 262.948 459.04 262.948 461.152V461.392C262.948 464.392 265.54 466.312 269.212 466.312ZM269.212 455.992C267.532 455.992 266.236 455.08 266.236 453.544V453.328C266.236 451.792 267.532 450.856 269.212 450.856C270.892 450.856 272.164 451.792 272.164 453.328V453.544C272.164 455.08 270.868 455.992 269.212 455.992ZM269.212 464.032C267.244 464.032 265.78 462.976 265.78 461.248V461.032C265.78 459.304 267.268 458.248 269.212 458.248C271.132 458.248 272.62 459.304 272.62 461.032V461.248C272.62 462.976 271.156 464.032 269.212 464.032ZM288.922 466V463.672H280.162C280.186 461.752 280.714 460.816 283.978 459.4C287.914 457.72 288.802 455.944 288.802 453.64V453.496C288.802 450.808 286.594 448.648 283.258 448.648C279.778 448.648 277.594 450.784 277.402 454H280.186C280.258 452.056 281.386 450.928 283.306 450.928C285.034 450.928 286.042 452.08 286.042 453.568V453.64C286.042 455.392 285.466 456.208 282.61 457.384C278.002 459.256 277.258 461.272 277.258 464.08V466H288.922ZM294.448 466V463.12H291.592V466H294.448ZM306.282 466V461.92H308.706V459.688H306.282V448.96H303.522L295.842 459.712V461.92H303.642V466H306.282ZM303.642 452.368V459.712H298.458L303.642 452.368ZM315.004 460.216L318.964 466H321.988L316.9 458.584L321.82 453.64H318.628L313.78 458.584V448.24H311.14V466H313.78V461.44L315.004 460.216Z" fill="black"/>
<path d="M419 426H405C404.4 426 404 426.4 404 427V438C404 438.6 404.4 439 405 439H408.6L411.3 441.7C411.5 441.9 411.7 442 412 442C412.3 442 412.5 441.9 412.7 441.7L415.4 439H419C419.6 439 420 438.6 420 438V427C420 426.4 419.6 426 419 426ZM418 437H415C414.7 437 414.5 437.1 414.3 437.3L412 439.6L409.7 437.3C409.5 437.1 409.3 437 409 437H406V428H418V437Z" fill="#999999"/>
<path d="M415 431C415 430.448 414.552 430 414 430H410C409.448 430 409 430.448 409 431C409 431.552 409.448 432 410 432H414C414.552 432 415 431.552 415 431Z" fill="#999999"/>
<path d="M415 434C415 433.448 414.552 433 414 433H410C409.448 433 409 433.448 409 434C409 434.552 409.448 435 410 435H414C414.552 435 415 434.552 415 434Z" fill="#999999"/>
<path d="M437.59 439L433.768 429.06H431.99L428.168 439H429.82L430.716 436.578H434.986L435.868 439H437.59ZM432.858 430.796L434.482 435.22H431.22L432.858 430.796ZM441.129 439L443.789 431.79H442.207L440.303 437.432L438.371 431.79H436.747L439.421 439H441.129ZM447.261 441.562C449.543 441.562 450.789 440.4 450.789 438.538V431.79H449.361L449.319 432.98C448.955 432.294 448.129 431.622 446.897 431.622C445.007 431.622 443.817 433.106 443.817 435.108V435.388C443.817 437.376 445.021 438.888 446.939 438.888C448.059 438.888 448.871 438.314 449.249 437.614V438.678C449.249 439.812 448.535 440.4 447.345 440.4C446.309 440.4 445.763 440.05 445.679 439.42H443.999C444.153 440.68 445.273 441.562 447.261 441.562ZM447.317 437.656C446.085 437.656 445.385 436.76 445.385 435.388V435.108C445.385 433.708 446.071 432.84 447.317 432.84C448.605 432.84 449.305 433.708 449.305 435.108V435.388C449.305 436.76 448.591 437.656 447.317 437.656ZM454.136 439V437.32H452.47V439H454.136ZM462.664 439.182C465.142 439.182 466.724 437.516 466.878 435.248H465.212C465.142 436.76 464.176 437.768 462.664 437.768C460.816 437.768 459.696 436.312 459.696 434.198V433.862C459.696 431.748 460.802 430.278 462.664 430.278C464.078 430.278 465.03 431.174 465.226 432.672H466.878C466.682 430.39 465.072 428.878 462.678 428.878C459.864 428.878 458.016 430.936 458.016 433.862V434.198C458.016 437.152 459.85 439.182 462.664 439.182ZM471.053 439.182C473.224 439.182 474.624 437.698 474.624 435.5V435.29C474.624 433.092 473.224 431.622 471.053 431.622C468.897 431.622 467.497 433.092 467.497 435.29V435.5C467.497 437.698 468.897 439.182 471.053 439.182ZM471.053 437.936C469.751 437.936 469.065 437.054 469.065 435.5V435.29C469.065 433.736 469.751 432.868 471.053 432.868C472.369 432.868 473.055 433.736 473.055 435.29V435.5C473.055 437.054 472.369 437.936 471.053 437.936ZM477.145 439V435.01C477.145 433.652 477.789 432.896 478.825 432.896C479.777 432.896 480.197 433.498 480.197 434.674V439H481.737V434.996C481.737 433.666 482.339 432.896 483.375 432.896C484.327 432.896 484.761 433.47 484.761 434.66V439H486.301V434.352C486.301 432.686 485.545 431.622 483.893 431.622C482.829 431.622 482.017 432.14 481.513 433.022C481.177 432.112 480.435 431.622 479.357 431.622C478.223 431.622 477.495 432.224 477.131 432.91L477.089 431.79H475.605V439H477.145ZM489.06 439V435.01C489.06 433.652 489.704 432.896 490.74 432.896C491.692 432.896 492.112 433.498 492.112 434.674V439H493.652V434.996C493.652 433.666 494.254 432.896 495.29 432.896C496.242 432.896 496.676 433.47 496.676 434.66V439H498.216V434.352C498.216 432.686 497.46 431.622 495.808 431.622C494.744 431.622 493.932 432.14 493.428 433.022C493.092 432.112 492.35 431.622 491.272 431.622C490.138 431.622 489.41 432.224 489.046 432.91L489.004 431.79H487.52V439H489.06ZM502.726 439.182C504.532 439.182 505.736 438.258 506.086 436.746H504.546C504.336 437.474 503.734 437.95 502.726 437.95C501.508 437.95 500.808 437.18 500.738 435.738H506.128C506.24 433.274 505.092 431.622 502.726 431.622C500.514 431.622 499.156 433.106 499.156 435.29V435.5C499.156 437.684 500.486 439.182 502.726 439.182ZM500.766 434.632C500.934 433.456 501.592 432.84 502.712 432.84C503.846 432.84 504.434 433.512 504.546 434.632H500.766ZM508.639 439V434.968C508.639 433.68 509.353 432.896 510.417 432.896C511.467 432.896 511.901 433.554 511.901 434.73V439H513.427V434.352C513.427 432.714 512.685 431.622 510.935 431.622C509.773 431.622 509.017 432.224 508.639 432.938L508.583 431.79H507.099V439H508.639ZM517.639 439.182C518.003 439.182 518.493 439.112 518.815 439.014V437.782C518.605 437.852 518.241 437.922 517.933 437.922C517.079 437.922 516.813 437.6 516.813 436.886V432.952H518.773V431.79H516.813V429.536H515.273V431.79H513.873V432.952H515.273V437.054C515.273 438.454 516.057 439.182 517.639 439.182ZM522.437 439.182C524.243 439.182 525.433 438.258 525.433 436.886C525.433 435.626 524.551 435.024 522.731 434.73C521.415 434.52 521.009 434.254 521.009 433.694C521.009 433.106 521.527 432.756 522.325 432.756C523.151 432.756 523.711 433.148 523.823 433.876H525.293C525.153 432.448 524.075 431.622 522.339 431.622C520.687 431.622 519.525 432.49 519.525 433.778C519.525 435.066 520.379 435.626 522.129 435.92C523.501 436.172 523.907 436.452 523.907 437.026C523.907 437.67 523.319 438.02 522.451 438.02C521.499 438.02 520.883 437.614 520.757 436.76H519.273C519.413 438.3 520.575 439.182 522.437 439.182Z" fill="#333333"/>
<path d="M435.416 466.312C439.016 466.312 441.632 464.296 441.632 461.344V461.08C441.632 458.968 440.216 457.552 438.344 457.072C439.952 456.544 441.056 455.2 441.056 453.472V453.208C441.056 450.472 438.632 448.648 435.44 448.648C432.056 448.648 429.584 450.784 429.44 454H432.128C432.248 452.056 433.472 450.928 435.488 450.928C437.192 450.928 438.416 451.936 438.416 453.352V453.688C438.416 455.248 437.12 456.088 435.464 456.088H433.736V458.272H435.512C437.432 458.272 438.824 459.184 438.824 460.888V461.224C438.824 462.904 437.384 463.96 435.44 463.96C433.304 463.96 432.008 462.88 431.84 460.888H429.056C429.2 464.248 431.624 466.312 435.416 466.312ZM446.94 466V463.12H444.084V466H446.94ZM454.84 466.312C458.872 466.312 461.32 463.216 461.32 457.888V457C461.32 451.6 458.824 448.648 454.864 448.648C451.312 448.648 448.816 451.048 448.816 454.384V454.648C448.816 457.888 451.264 459.952 454.288 459.952C456.328 459.952 457.912 459.016 458.68 457.648V458.104C458.68 462.424 457.24 464.008 454.84 464.008C453.112 464.008 451.96 463.072 451.696 461.512H448.96C449.368 464.464 451.6 466.312 454.84 466.312ZM454.864 457.744C452.944 457.744 451.648 456.472 451.648 454.6V454.264C451.648 452.224 452.944 450.904 454.864 450.904C456.832 450.904 458.176 452.32 458.176 454.264V454.576C458.176 456.424 456.832 457.744 454.864 457.744ZM467.614 460.216L471.574 466H474.598L469.51 458.584L474.43 453.64H471.238L466.39 458.584V448.24H463.75V466H466.39V461.44L467.614 460.216Z" fill="black"/>
<defs>
<clipPath id="clip0_969_8276">
<rect width="20" height="20" fill="white" transform="translate(12)"/>
</clipPath>
<clipPath id="clip1_969_8276">
<rect width="12" height="12" fill="white" transform="translate(311 60)"/>
</clipPath>
<clipPath id="clip2_969_8276">
<rect width="16" height="16" fill="white" transform="translate(26 58)"/>
</clipPath>
<clipPath id="clip3_969_8276">
<rect width="16" height="16" fill="white" transform="translate(225 130)"/>
</clipPath>
<clipPath id="clip4_969_8276">
<rect width="12" height="12" fill="white" transform="translate(332 132)"/>
</clipPath>
<clipPath id="clip5_969_8276">
<rect width="20" height="20" fill="white" transform="translate(12 220)"/>
</clipPath>
<clipPath id="clip6_969_8276">
<rect width="16" height="16" fill="white" transform="translate(26 278)"/>
</clipPath>
<clipPath id="clip7_969_8276">
<rect width="20" height="20" fill="white" transform="translate(12 368)"/>
</clipPath>
<clipPath id="clip8_969_8276">
<rect width="16" height="16" fill="white" transform="translate(26 426)"/>
</clipPath>
</defs>
</svg>
