<svg width="12" height="12" viewBox="0 0 12 12" fill="none" xmlns="http://www.w3.org/2000/svg">
<path d="M5.54994 11.8335C4.94994 11.2886 -6.10352e-05 7.00669 -6.10352e-05 3.7369C-6.10352e-05 1.63489 1.64994 0 3.59994 0C4.49994 0 5.32494 0.389261 5.99994 0.934225C6.67494 0.311408 7.49994 0 8.39994 0C10.4249 0 11.9999 1.71275 11.9999 3.7369C11.9999 7.00669 7.04994 11.2886 6.44994 11.7557C6.22494 12.0671 5.77494 12.0671 5.54994 11.8335ZM3.59994 1.55704C2.47494 1.55704 1.49994 2.56912 1.49994 3.7369C1.49994 5.44965 4.12494 8.40803 5.99994 10.1208C7.57494 8.64158 10.4999 5.60535 10.4999 3.7369C10.4999 2.49127 9.52494 1.55704 8.39994 1.55704C7.72494 1.55704 7.04994 1.9463 6.67494 2.56912C6.37494 3.03623 5.69994 3.03623 5.39994 2.56912C4.94994 1.9463 4.34994 1.55704 3.59994 1.55704Z" fill="#999999"/>
<path d="M5.82414 7.73617C5.50702 7.45957 5.46595 6.96848 5.73242 6.6393L7.17987 4.85118C7.44633 4.52199 7.91943 4.47937 8.23655 4.75597C8.55368 5.03257 8.59474 5.52365 8.32828 5.85284L6.88083 7.64096C6.61436 7.97014 6.14127 8.01277 5.82414 7.73617Z" fill="#999999"/>
</svg>
