<svg width="20" height="20" viewBox="0 0 20 20" fill="none" xmlns="http://www.w3.org/2000/svg">
<path d="M18.52 0.190674H1.475C0.66 0.190674 0 0.797733 0 1.54714V17.653C0.0042879 18.0177 0.162154 18.3658 0.438936 18.621C0.715719 18.8763 1.08879 19.0177 1.47625 19.0142H18.52C19.3363 19.0142 20 18.4036 20 17.6577V1.54714C20 0.797733 19.3363 0.190674 18.52 0.190674ZM5.9325 16.2319H2.96625V7.24597H5.935V16.2319H5.9325ZM4.45 6.02009C4.22032 6.02622 3.99167 5.98898 3.77753 5.91057C3.5634 5.83215 3.36813 5.71416 3.20325 5.56354C3.03838 5.41292 2.90723 5.23274 2.81757 5.03363C2.72791 4.83452 2.68154 4.62052 2.68121 4.40427C2.68087 4.18801 2.72658 3.97389 2.81563 3.77453C2.90467 3.57518 3.03526 3.39464 3.19967 3.24357C3.36408 3.0925 3.55898 2.97397 3.77287 2.89497C3.98676 2.81597 4.2153 2.77811 4.445 2.78362C4.89301 2.79436 5.31887 2.96925 5.63194 3.27106C5.94501 3.57287 6.12055 3.97777 6.1212 4.39956C6.12185 4.82135 5.94756 5.22673 5.63543 5.5294C5.3233 5.83206 4.89797 6.00812 4.45 6.02009ZM17.0438 16.2295H14.0787V11.8624C14.0787 10.8224 14.06 9.48009 12.5363 9.48009C10.9938 9.48009 10.7588 10.6166 10.7588 11.7895V16.2295H7.79625V7.24714H10.64V8.47538H10.68C11.0737 7.7695 12.0425 7.02244 13.4837 7.02244C16.4888 7.02244 17.0425 8.88362 17.0425 11.3024V16.2319L17.0438 16.2295Z" fill="#666666"/>
</svg>
