<svg width="12" height="12" viewBox="0 0 12 12" fill="none" xmlns="http://www.w3.org/2000/svg">
<g clip-path="url(#clip0_969_7833)">
<path d="M10.8225 4.9995C11.238 5.366 11.5 5.9025 11.5 6.5V8.5C11.5 9.6045 10.6045 10.5 9.5 10.5H5C3.8955 10.5 3 9.6045 3 8.5V6.5C3 5.3955 3.8955 4.5 5 4.5H7" stroke="#999999" stroke-width="1.3" stroke-miterlimit="10" stroke-linecap="square"/>
<path d="M1.1775 7.0005C0.762 6.634 0.5 6.0975 0.5 5.5V3.5C0.5 2.3955 1.3955 1.5 2.5 1.5H7C8.1045 1.5 9 2.3955 9 3.5V5.5C9 6.6045 8.1045 7.5 7 7.5H5" stroke="#999999" stroke-width="1.3" stroke-miterlimit="10" stroke-linecap="square"/>
</g>
<defs>
<clipPath id="clip0_969_7833">
<rect width="12" height="12" fill="white"/>
</clipPath>
</defs>
</svg>
