<svg width="24" height="24" viewBox="0 0 24 24" fill="none" xmlns="http://www.w3.org/2000/svg">
<path d="M22.5 5H1.5C0.672 5 0 4.328 0 3.5C0 2.672 0.672 2 1.5 2H22.5C23.328 2 24 2.672 24 3.5C24 4.328 23.328 5 22.5 5Z" fill="#999999"/>
<path d="M22.5 11H1.5C0.672 11 0 10.328 0 9.5C0 8.672 0.672 8 1.5 8H22.5C23.328 8 24 8.672 24 9.5C24 10.328 23.328 11 22.5 11Z" fill="#999999"/>
<path d="M9.5 17H1.5C0.672 17 0 16.328 0 15.5C0 14.672 0.672 14 1.5 14H9.5C10.328 14 11 14.672 11 15.5C11 16.328 10.328 17 9.5 17Z" fill="#999999"/>
<path d="M9.5 23H1.5C0.672 23 0 22.328 0 21.5C0 20.672 0.672 20 1.5 20H9.5C10.328 20 11 20.672 11 21.5C11 22.328 10.328 23 9.5 23Z" fill="#999999"/>
<path d="M19 14C16.2383 14 14 16.2383 14 19C14 21.7617 16.2383 24 19 24C21.7617 24 24 21.7617 24 19C24 16.2383 21.7617 14 19 14ZM21.9167 19.8333H19.8333V21.9167C19.8333 22.1467 19.6467 22.3333 19.4167 22.3333H18.5833C18.3533 22.3333 18.1667 22.1467 18.1667 21.9167V19.8333H16.0833C15.8533 19.8333 15.6667 19.6467 15.6667 19.4167V18.5833C15.6667 18.3533 15.8533 18.1667 16.0833 18.1667H18.1667V16.0833C18.1667 15.8533 18.3533 15.6667 18.5833 15.6667H19.4167C19.6467 15.6667 19.8333 15.8533 19.8333 16.0833V18.1667H21.9167C22.1467 18.1667 22.3333 18.3533 22.3333 18.5833V19.4167C22.3333 19.6467 22.1467 19.8333 21.9167 19.8333Z" fill="#999999"/>
</svg>
