<svg width="12" height="12" viewBox="0 0 12 12" fill="none" xmlns="http://www.w3.org/2000/svg">
<path d="M11.2499 0H0.749939C0.299939 0 -6.10352e-05 0.3 -6.10352e-05 0.75V9C-6.10352e-05 9.45 0.299939 9.75 0.749939 9.75H3.44994L5.47494 11.775C5.62494 11.925 5.77494 12 5.99994 12C6.22494 12 6.37494 11.925 6.52494 11.775L8.54994 9.75H11.2499C11.6999 9.75 11.9999 9.45 11.9999 9V0.75C11.9999 0.3 11.6999 0 11.2499 0ZM10.4999 8.25H8.24994C8.02494 8.25 7.87494 8.325 7.72494 8.475L5.99994 10.2L4.27494 8.475C4.12494 8.325 3.97494 8.25 3.74994 8.25H1.49994V1.5H10.4999V8.25Z" fill="#999999"/>
<path d="M8.24994 3.75C8.24994 3.33579 7.91415 3 7.49994 3H4.49994C4.08573 3 3.74994 3.33579 3.74994 3.75C3.74994 4.16421 4.08573 4.5 4.49994 4.5H7.49994C7.91415 4.5 8.24994 4.16421 8.24994 3.75Z" fill="#999999"/>
<path d="M8.24994 6C8.24994 5.58579 7.91415 5.25 7.49994 5.25H4.49994C4.08573 5.25 3.74994 5.58579 3.74994 6C3.74994 6.41421 4.08573 6.75 4.49994 6.75H7.49994C7.91415 6.75 8.24994 6.41421 8.24994 6Z" fill="#999999"/>
</svg>
