<svg width="206" height="14" viewBox="0 0 206 14" fill="none" xmlns="http://www.w3.org/2000/svg">
<path d="M6.986 11H8.428V1.2H6.986V5.568H2.24V1.2H0.784V11H2.24V6.772H6.986V11ZM12.9108 11.14C14.7308 11.14 16.4668 9.964 16.4668 7.36C16.4668 4.756 14.7308 3.58 12.9108 3.58C11.1048 3.58 9.36884 4.756 9.36884 7.36C9.36884 9.964 11.1048 11.14 12.9108 11.14ZM10.7128 7.36C10.7128 5.568 11.7348 4.77 12.9108 4.77C14.0868 4.77 15.1228 5.568 15.1228 7.36C15.1228 9.152 14.0868 9.95 12.9108 9.95C11.7348 9.95 10.7128 9.152 10.7128 7.36ZM26.8455 6.786V11H28.2595V6.464C28.2595 4.406 27.1955 3.58 25.7815 3.58C24.2555 3.58 23.5415 4.644 23.3735 5.232C23.0235 4.07 22.1415 3.58 21.1195 3.58C19.6775 3.58 18.9775 4.63 18.8655 5.176H18.8235V3.72H17.4095V11H18.8235V6.786C18.8235 5.484 19.5375 4.77 20.5595 4.77C21.6095 4.77 22.1275 5.484 22.1275 6.786V11H23.5415V6.786C23.5415 5.484 24.2555 4.77 25.2775 4.77C26.3415 4.77 26.8455 5.484 26.8455 6.786ZM32.7216 11.14C34.2056 11.14 35.4516 10.482 35.8856 8.858H34.6256C34.3176 9.712 33.6316 10.034 32.7356 10.034C31.4336 10.034 30.6636 9.334 30.5516 7.808H35.9416C35.9696 7.654 35.9836 7.514 35.9836 7.262C35.9836 4.714 34.5416 3.58 32.6656 3.58C30.7896 3.58 29.1936 4.7 29.1936 7.374C29.1936 9.992 30.7616 11.14 32.7216 11.14ZM30.5656 6.744C30.6916 5.358 31.4896 4.686 32.6516 4.686C33.8976 4.686 34.6116 5.47 34.6396 6.744H30.5656ZM42.519 9.208L44.703 7.388V6.282L42.519 4.434V5.75L43.793 6.814L42.519 7.892V9.208ZM51.5843 11H53.0403V6.73H57.0303V5.526H53.0403V2.474H57.8843V1.2H51.5843V11ZM58.8102 11H60.2242V3.72H58.8102V11ZM58.6702 1.62C58.6702 2.096 59.0622 2.46 59.5102 2.46C59.9582 2.46 60.3502 2.096 60.3502 1.62C60.3502 1.158 59.9582 0.78 59.5102 0.78C59.0622 0.78 58.6702 1.158 58.6702 1.62ZM66.5786 6.786V11H67.9926V6.464C67.9926 4.406 66.8446 3.58 65.4166 3.58C63.7926 3.58 63.0926 4.63 62.9666 5.176H62.9246V3.72H61.5106V11H62.9246V6.786C62.9246 5.484 63.7226 4.77 64.8706 4.77C66.0186 4.77 66.5786 5.484 66.5786 6.786ZM72.1814 11.14C73.2594 11.14 74.1834 10.65 74.6174 9.852V11H76.0314V1.2H74.6174V4.868C74.1834 4.07 73.2594 3.58 72.1814 3.58C70.5574 3.58 68.9334 4.714 68.9334 7.36C68.9334 9.992 70.5574 11.14 72.1814 11.14ZM70.2774 7.36C70.2774 5.582 71.3414 4.77 72.4754 4.77C73.5954 4.77 74.6874 5.582 74.6874 7.36C74.6874 9.138 73.5954 9.95 72.4754 9.95C71.3414 9.95 70.2774 9.138 70.2774 7.36ZM83.4684 11.14C84.7704 11.14 86.4084 10.58 86.6464 8.382H85.3584C85.1624 9.516 84.3784 9.936 83.4544 9.936C82.1244 9.936 81.2424 9.012 81.2424 7.374C81.2424 5.736 82.1244 4.784 83.4544 4.784C84.3644 4.784 85.1624 5.19 85.3584 6.31H86.6464C86.3804 4.14 84.7704 3.58 83.4684 3.58C81.6344 3.58 79.9124 4.742 79.9124 7.374C79.9124 10.006 81.6344 11.14 83.4684 11.14ZM87.5703 11H88.9843V7.36C88.9843 5.736 89.9083 4.854 91.2663 4.854C91.4483 4.854 91.6163 4.868 91.7983 4.896V3.706C91.6303 3.65 91.4343 3.636 91.2523 3.636C89.9223 3.636 89.2363 4.546 89.0263 5.4H88.9843V3.72H87.5703V11ZM95.5679 11.14C97.0519 11.14 98.2979 10.482 98.7319 8.858H97.4719C97.1639 9.712 96.4779 10.034 95.5819 10.034C94.2799 10.034 93.5099 9.334 93.3979 7.808H98.7879C98.8159 7.654 98.8299 7.514 98.8299 7.262C98.8299 4.714 97.3879 3.58 95.5119 3.58C93.6359 3.58 92.0399 4.7 92.0399 7.374C92.0399 9.992 93.6079 11.14 95.5679 11.14ZM93.4119 6.744C93.5379 5.358 94.3359 4.686 95.4979 4.686C96.7439 4.686 97.4579 5.47 97.4859 6.744H93.4119ZM101.852 11.14C103.644 11.14 104.33 10.104 104.47 9.824H104.526V11H105.856V6.114C105.856 4.35 104.904 3.58 102.846 3.58C100.844 3.58 99.8222 4.308 99.8222 5.764V6.058H101.18V5.89C101.18 4.966 101.768 4.658 102.818 4.658C103.84 4.658 104.442 4.966 104.442 6.128V6.324C104.442 6.548 104.218 6.674 103.546 6.758L101.74 6.968C100.438 7.122 99.4162 7.696 99.4162 9.096C99.4162 10.538 100.494 11.14 101.852 11.14ZM100.83 9.026C100.83 8.452 101.166 8.13 102.076 8.018L103.448 7.836C104.162 7.752 104.344 7.654 104.442 7.5V8.298C104.442 9.082 103.742 10.034 102.202 10.034C101.32 10.034 100.83 9.712 100.83 9.026ZM109.668 11.098C110.004 11.098 110.312 11.056 110.578 10.986V9.922C110.354 9.95 110.228 9.95 110.06 9.95C109.276 9.95 109.038 9.628 109.038 8.914V4.84H110.48V3.72H109.038V1.886H107.624V3.72H106.434V4.84H107.624V9.152C107.624 10.58 108.45 11.098 109.668 11.098ZM114.566 11.14C116.386 11.14 118.122 9.964 118.122 7.36C118.122 4.756 116.386 3.58 114.566 3.58C112.76 3.58 111.024 4.756 111.024 7.36C111.024 9.964 112.76 11.14 114.566 11.14ZM112.368 7.36C112.368 5.568 113.39 4.77 114.566 4.77C115.742 4.77 116.778 5.568 116.778 7.36C116.778 9.152 115.742 9.95 114.566 9.95C113.39 9.95 112.368 9.152 112.368 7.36ZM119.065 11H120.479V7.36C120.479 5.736 121.403 4.854 122.761 4.854C122.943 4.854 123.111 4.868 123.293 4.896V3.706C123.125 3.65 122.929 3.636 122.747 3.636C121.417 3.636 120.731 4.546 120.521 5.4H120.479V3.72H119.065V11ZM126.557 11.14C128.153 11.14 129.609 10.524 129.609 8.914C129.609 7.668 128.727 7.192 127.551 6.912L126.179 6.604C125.423 6.436 125.101 6.128 125.101 5.624C125.101 4.994 125.619 4.672 126.571 4.672C127.481 4.672 128.097 4.966 128.223 5.862H129.413C129.343 4.364 128.293 3.58 126.557 3.58C124.863 3.58 123.729 4.322 123.729 5.652C123.729 6.632 124.345 7.332 125.717 7.654L127.075 7.962C127.761 8.116 128.167 8.354 128.167 8.942C128.167 9.726 127.467 10.048 126.571 10.048C125.675 10.048 124.905 9.726 124.793 8.83H123.519C123.561 10.412 124.807 11.14 126.557 11.14Z" fill="white"/>
<path d="M136.383 9.208L138.567 7.388V6.282L136.383 4.434V5.75L137.657 6.814L136.383 7.892V9.208ZM145.448 11H146.904V1.2H145.448V11ZM153.244 6.786V11H154.658V6.464C154.658 4.406 153.51 3.58 152.082 3.58C150.458 3.58 149.758 4.63 149.632 5.176H149.59V3.72H148.176V11H149.59V6.786C149.59 5.484 150.388 4.77 151.536 4.77C152.684 4.77 153.244 5.484 153.244 6.786ZM158.567 11.14C160.163 11.14 161.619 10.524 161.619 8.914C161.619 7.668 160.737 7.192 159.561 6.912L158.189 6.604C157.433 6.436 157.111 6.128 157.111 5.624C157.111 4.994 157.629 4.672 158.581 4.672C159.491 4.672 160.107 4.966 160.233 5.862H161.423C161.353 4.364 160.303 3.58 158.567 3.58C156.873 3.58 155.739 4.322 155.739 5.652C155.739 6.632 156.355 7.332 157.727 7.654L159.085 7.962C159.771 8.116 160.177 8.354 160.177 8.942C160.177 9.726 159.477 10.048 158.581 10.048C157.685 10.048 156.915 9.726 156.803 8.83H155.529C155.571 10.412 156.817 11.14 158.567 11.14ZM165.235 11.098C165.571 11.098 165.879 11.056 166.145 10.986V9.922C165.921 9.95 165.795 9.95 165.627 9.95C164.843 9.95 164.605 9.628 164.605 8.914V4.84H166.047V3.72H164.605V1.886H163.191V3.72H162.001V4.84H163.191V9.152C163.191 10.58 164.017 11.098 165.235 11.098ZM169.028 11.14C170.82 11.14 171.506 10.104 171.646 9.824H171.702V11H173.032V6.114C173.032 4.35 172.08 3.58 170.022 3.58C168.02 3.58 166.998 4.308 166.998 5.764V6.058H168.356V5.89C168.356 4.966 168.944 4.658 169.994 4.658C171.016 4.658 171.618 4.966 171.618 6.128V6.324C171.618 6.548 171.394 6.674 170.722 6.758L168.916 6.968C167.614 7.122 166.592 7.696 166.592 9.096C166.592 10.538 167.67 11.14 169.028 11.14ZM168.006 9.026C168.006 8.452 168.342 8.13 169.252 8.018L170.624 7.836C171.338 7.752 171.52 7.654 171.618 7.5V8.298C171.618 9.082 170.918 10.034 169.378 10.034C168.496 10.034 168.006 9.712 168.006 9.026ZM177.33 13.926C178.856 13.926 180.9 13.352 180.9 10.846V3.72H179.486V4.784H179.458C179.01 4.028 178.072 3.58 177.05 3.58C175.468 3.58 173.886 4.63 173.886 7.206C173.886 9.782 175.454 10.832 177.05 10.832C178.072 10.832 179.01 10.384 179.458 9.628H179.486V10.846C179.486 12.246 178.506 12.82 177.302 12.82C176.28 12.82 175.384 12.4 175.342 11.574H174.096C174.11 13.422 175.888 13.926 177.33 13.926ZM175.216 7.206C175.216 5.54 176.252 4.77 177.386 4.77C178.506 4.77 179.556 5.54 179.556 7.206C179.556 8.872 178.506 9.656 177.386 9.656C176.252 9.656 175.216 8.872 175.216 7.206ZM182.186 11H183.6V7.36C183.6 5.736 184.524 4.854 185.882 4.854C186.064 4.854 186.232 4.868 186.414 4.896V3.706C186.246 3.65 186.05 3.636 185.868 3.636C184.538 3.636 183.852 4.546 183.642 5.4H183.6V3.72H182.186V11ZM188.942 11.14C190.734 11.14 191.42 10.104 191.56 9.824H191.616V11H192.946V6.114C192.946 4.35 191.994 3.58 189.936 3.58C187.934 3.58 186.912 4.308 186.912 5.764V6.058H188.27V5.89C188.27 4.966 188.858 4.658 189.908 4.658C190.93 4.658 191.532 4.966 191.532 6.128V6.324C191.532 6.548 191.308 6.674 190.636 6.758L188.83 6.968C187.528 7.122 186.506 7.696 186.506 9.096C186.506 10.538 187.584 11.14 188.942 11.14ZM187.92 9.026C187.92 8.452 188.256 8.13 189.166 8.018L190.538 7.836C191.252 7.752 191.434 7.654 191.532 7.5V8.298C191.532 9.082 190.832 10.034 189.292 10.034C188.41 10.034 187.92 9.712 187.92 9.026ZM203.723 6.786V11H205.137V6.464C205.137 4.406 204.073 3.58 202.659 3.58C201.133 3.58 200.419 4.644 200.251 5.232C199.901 4.07 199.019 3.58 197.997 3.58C196.555 3.58 195.855 4.63 195.743 5.176H195.701V3.72H194.287V11H195.701V6.786C195.701 5.484 196.415 4.77 197.437 4.77C198.487 4.77 199.005 5.484 199.005 6.786V11H200.419V6.786C200.419 5.484 201.133 4.77 202.155 4.77C203.219 4.77 203.723 5.484 203.723 6.786Z" fill="white"/>
</svg>
