<svg width="12" height="12" viewBox="0 0 12 12" fill="none" xmlns="http://www.w3.org/2000/svg">
<path d="M1.5 1H1C0.723858 1 0.5 1.22386 0.5 1.5V10.5C0.5 10.7761 0.723858 11 1 11H1.5C1.77614 11 2 10.7761 2 10.5V1.5C2 1.22386 1.77614 1 1.5 1Z" fill="#999999"/>
<path d="M4 3.5H3.5C3.22386 3.5 3 3.72386 3 4V10.5C3 10.7761 3.22386 11 3.5 11H4C4.27614 11 4.5 10.7761 4.5 10.5V4C4.5 3.72386 4.27614 3.5 4 3.5Z" fill="#999999"/>
<path d="M9 3.5H8.5C8.22386 3.5 8 3.72386 8 4V10.5C8 10.7761 8.22386 11 8.5 11H9C9.27614 11 9.5 10.7761 9.5 10.5V4C9.5 3.72386 9.27614 3.5 9 3.5Z" fill="#999999"/>
<path d="M6.5 6H6C5.72386 6 5.5 6.22386 5.5 6.5V10.5C5.5 10.7761 5.72386 11 6 11H6.5C6.77614 11 7 10.7761 7 10.5V6.5C7 6.22386 6.77614 6 6.5 6Z" fill="#999999"/>
<path d="M11.5 6H11C10.7239 6 10.5 6.22386 10.5 6.5V10.5C10.5 10.7761 10.7239 11 11 11H11.5C11.7761 11 12 10.7761 12 10.5V6.5C12 6.22386 11.7761 6 11.5 6Z" fill="#999999"/>
</svg>
