<svg width="20" height="20" viewBox="0 0 20 20" fill="none" xmlns="http://www.w3.org/2000/svg">
<g clip-path="url(#clip0_969_8280)">
<path d="M10.0025 4.86508C7.16671 4.86508 4.87087 7.16342 4.87087 9.99675C4.87087 12.8326 7.16921 15.1284 10.0025 15.1284C12.8384 15.1284 15.1342 12.8301 15.1342 9.99675C15.1342 7.16092 12.8359 4.86508 10.0025 4.86508ZM10.0025 13.3276C8.16171 13.3276 6.67171 11.8367 6.67171 9.99675C6.67171 8.15675 8.16254 6.66592 10.0025 6.66592C11.8425 6.66592 13.3334 8.15675 13.3334 9.99675C13.3342 11.8367 11.8434 13.3276 10.0025 13.3276Z" fill="#FB50B7"/>
<path d="M14.1233 0.063402C12.2833 -0.0224313 7.7258 -0.0182646 5.88414 0.063402C4.2658 0.139235 2.8383 0.530069 1.68747 1.6809C-0.235865 3.60424 0.00996813 6.1959 0.00996813 9.99674C0.00996813 13.8867 -0.206699 16.4184 1.68747 18.3126C3.6183 20.2426 6.24747 19.9901 10.0033 19.9901C13.8566 19.9901 15.1866 19.9926 16.5491 19.4651C18.4016 18.7459 19.8 17.0901 19.9366 14.1159C20.0233 12.2751 20.0183 7.7184 19.9366 5.87674C19.7716 2.3659 17.8875 0.236735 14.1233 0.063402ZM17.0358 17.0401C15.775 18.3009 14.0258 18.1884 9.97914 18.1884C5.81247 18.1884 4.14163 18.2501 2.92247 17.0276C1.5183 15.6301 1.77247 13.3859 1.77247 9.9834C1.77247 5.37923 1.29997 2.0634 5.9208 1.82674C6.98247 1.78924 7.29497 1.77674 9.96747 1.77674L10.005 1.80174C14.4458 1.80174 17.93 1.33674 18.1391 5.95674C18.1866 7.0109 18.1975 7.32757 18.1975 9.9959C18.1966 14.1142 18.275 15.7951 17.0358 17.0401Z" fill="#FB50B7"/>
<path d="M15.3396 5.8618C16.0019 5.8618 16.5387 5.32492 16.5387 4.66264C16.5387 4.00036 16.0019 3.46347 15.3396 3.46347C14.6773 3.46347 14.1404 4.00036 14.1404 4.66264C14.1404 5.32492 14.6773 5.8618 15.3396 5.8618Z" fill="#FB50B7"/>
</g>
<defs>
<clipPath id="clip0_969_8280">
<rect width="20" height="20" fill="white"/>
</clipPath>
</defs>
</svg>
