<svg width="29" height="32" viewBox="0 0 29 32" fill="none" xmlns="http://www.w3.org/2000/svg">
<path fill-rule="evenodd" clip-rule="evenodd" d="M14.1296 2.62817L2.5493 9.31409V22.6859L14.1296 29.3718L25.71 22.6859V9.31409L14.1296 2.62817ZM15.1494 0.273233C14.5184 -0.0910775 13.7409 -0.0910777 13.1099 0.273233L1.01972 7.25351C0.388715 7.61782 0 8.2911 0 9.01972V22.9803C0 23.7089 0.388714 24.3822 1.01972 24.7465L13.1099 31.7268C13.7409 32.0911 14.5184 32.0911 15.1494 31.7268L27.2396 24.7465C27.8706 24.3822 28.2593 23.7089 28.2593 22.9803V9.01972C28.2593 8.2911 27.8706 7.61782 27.2396 7.25351L15.1494 0.273233Z" fill="#999999"/>
<rect x="13" y="14" width="3" height="12" rx="1.5" fill="#999999"/>
</svg>
