<svg width="20" height="20" viewBox="0 0 20 20" fill="none" xmlns="http://www.w3.org/2000/svg">
<g clip-path="url(#clip0_761_5697)">
<path d="M14.1233 0.0628222C12.2833 -0.0230111 7.72581 -0.0188444 5.88414 0.0628222C4.26581 0.138656 2.83831 0.529489 1.68748 1.68032C-0.235858 3.60366 0.00997576 6.19532 0.00997576 9.99616C0.00997576 13.8862 -0.206691 16.4178 1.68748 18.312C3.61831 20.242 6.24748 19.9895 10.0033 19.9895C13.8566 19.9895 15.1866 19.992 16.5491 19.4645C18.4016 18.7453 19.8 17.0895 19.9366 14.1153C20.0233 12.2745 20.0183 7.71782 19.9366 5.87616C19.7716 2.36532 17.8875 0.236156 14.1233 0.0628222ZM17.0358 17.0395C15.775 18.3003 14.0258 18.1878 9.97914 18.1878C5.81248 18.1878 4.14164 18.2495 2.92248 17.027C1.51831 15.6295 1.77248 13.3853 1.77248 9.98282C1.77248 5.37865 1.29998 2.06282 5.92081 1.82616C6.98248 1.78866 7.29498 1.77616 9.96748 1.77616L10.005 1.80116C14.4458 1.80116 17.93 1.33616 18.1391 5.95616C18.1866 7.01032 18.1975 7.32699 18.1975 9.99532C18.1966 14.1137 18.275 15.7945 17.0358 17.0395Z" fill="#FB50B7"/>
<path d="M7.99979 15.1169C7.99979 15.5056 8.42377 15.7456 8.75703 15.5457L12.2852 13.4287C12.6089 13.2345 12.6089 12.7655 12.2852 12.5713L8.75703 10.4543C8.42377 10.2544 7.99979 10.4944 7.99979 10.8831V15.1169Z" fill="#FB50B7"/>
<rect x="1" y="6" width="18" height="2" fill="#FB50B7"/>
<rect x="4.34375" y="0.695557" width="7" height="1.57742" transform="rotate(58.1719 4.34375 0.695557)" fill="#FB50B7"/>
<rect x="8.34375" y="0.695557" width="7" height="1.57742" transform="rotate(58.1719 8.34375 0.695557)" fill="#FB50B7"/>
<rect x="12.3438" y="0.695557" width="7" height="1.57742" transform="rotate(58.1719 12.3438 0.695557)" fill="#FB50B7"/>
</g>
<defs>
<clipPath id="clip0_761_5697">
<rect width="20" height="20" fill="white"/>
</clipPath>
</defs>
</svg>
