<svg width="17" height="18" viewBox="0 0 17 18" fill="none" xmlns="http://www.w3.org/2000/svg">
<path opacity="0.3" d="M16.578 15.7302L13.3349 12.4871C14.3178 11.2004 14.8568 9.63977 14.8571 7.99292C14.8571 6.0083 14.0841 4.14233 12.6805 2.73901C11.2772 1.33569 9.4115 0.562744 7.42664 0.562744C5.44202 0.562744 3.57605 1.33569 2.17273 2.73901C-0.724243 5.63623 -0.724243 10.3501 2.17273 13.2468C3.57605 14.6504 5.44202 15.4233 7.42664 15.4233C9.07349 15.4231 10.6342 14.8841 11.9208 13.9012L15.1639 17.1443C15.359 17.3396 15.6151 17.4373 15.871 17.4373C16.1268 17.4373 16.3829 17.3396 16.578 17.1443C16.9686 16.7539 16.9686 16.1206 16.578 15.7302ZM3.58679 11.8328C1.4696 9.71558 1.46985 6.27051 3.58679 4.15308C4.61243 3.12769 5.9762 2.56274 7.42664 2.56274C8.87732 2.56274 10.2408 3.12769 11.2665 4.15308C12.2921 5.17871 12.8571 6.54248 12.8571 7.99292C12.8571 9.4436 12.2921 10.8071 11.2665 11.8328C10.2408 12.8584 8.87732 13.4233 7.42664 13.4233C5.9762 13.4233 4.61243 12.8584 3.58679 11.8328Z" fill="black"/>
</svg>
