<svg width="16" height="16" viewBox="0 0 16 16" fill="none" xmlns="http://www.w3.org/2000/svg">
<path d="M8 16C3.58887 16 0 12.4111 0 8C0 3.58887 3.58887 0 8 0C12.4111 0 16 3.58887 16 8C16 12.4111 12.4111 16 8 16ZM8 2C4.69141 2 2 4.69141 2 8C2 11.3086 4.69141 14 8 14C11.3086 14 14 11.3086 14 8C14 4.69141 11.3086 2 8 2Z" fill="#999999"/>
<path d="M8 12C5.79443 12 4 10.2056 4 8C4 5.79443 5.79443 4 8 4C10.2056 4 12 5.79443 12 8C12 10.2056 10.2056 12 8 12ZM8 6C6.89697 6 6 6.89697 6 8C6 9.10303 6.89697 10 8 10C9.10303 10 10 9.10303 10 8C10 6.89697 9.10303 6 8 6Z" fill="#999999"/>
</svg>
