<svg width="18" height="18" viewBox="0 0 18 18" fill="none" xmlns="http://www.w3.org/2000/svg">
<path d="M9.66797 16.3334H16.3346V10.4667C16.3346 9.97402 16.0633 9.52202 15.6286 9.29002L12.9573 7.85669" stroke="#999999" stroke-width="1.8" stroke-miterlimit="10"/>
<path d="M9.71901 7.86133L8.15234 8.69666" stroke="#999999" stroke-width="1.8" stroke-miterlimit="10"/>
<path d="M11.3359 8.33341C9.67927 8.33341 8.33594 6.99008 8.33594 5.33341V4.66675C8.33594 3.01008 9.67927 1.66675 11.3359 1.66675C12.9926 1.66675 14.3359 3.01008 14.3359 4.66675V5.33341C14.3359 6.99008 12.9926 8.33341 11.3359 8.33341Z" stroke="#999999" stroke-width="1.8" stroke-miterlimit="10" stroke-linecap="square"/>
<path d="M4.06264 12.4633L2.40464 13.2986C1.9533 13.524 1.66797 13.986 1.66797 14.4906V16.3333H9.66797V14.4906C9.66797 13.9853 9.38264 13.524 8.93064 13.298L7.27264 12.4626" stroke="#999999" stroke-width="1.8" stroke-miterlimit="10"/>
<path d="M5.66667 13C4.194 13 3 11.806 3 10.3333V9.66667C3 8.194 4.194 7 5.66667 7C7.13933 7 8.33333 8.194 8.33333 9.66667V10.3333C8.33333 11.806 7.13933 13 5.66667 13Z" stroke="#999999" stroke-width="1.8" stroke-miterlimit="10" stroke-linecap="square"/>
</svg>
