<svg width="20" height="20" viewBox="0 0 20 20" fill="none" xmlns="http://www.w3.org/2000/svg">
<path d="M2.4987 1.66675H1.66536C1.20513 1.66675 0.832031 2.03984 0.832031 2.50008V17.5001C0.832031 17.9603 1.20513 18.3334 1.66536 18.3334H2.4987C2.95894 18.3334 3.33203 17.9603 3.33203 17.5001V2.50008C3.33203 2.03984 2.95894 1.66675 2.4987 1.66675Z" fill="black"/>
<path d="M6.66667 5.8335H5.83333C5.3731 5.8335 5 6.20659 5 6.66683V17.5002C5 17.9604 5.3731 18.3335 5.83333 18.3335H6.66667C7.1269 18.3335 7.5 17.9604 7.5 17.5002V6.66683C7.5 6.20659 7.1269 5.8335 6.66667 5.8335Z" fill="black"/>
<path d="M14.9987 5.8335H14.1654C13.7051 5.8335 13.332 6.20659 13.332 6.66683V17.5002C13.332 17.9604 13.7051 18.3335 14.1654 18.3335H14.9987C15.4589 18.3335 15.832 17.9604 15.832 17.5002V6.66683C15.832 6.20659 15.4589 5.8335 14.9987 5.8335Z" fill="black"/>
<path d="M10.8307 10H9.9974C9.53716 10 9.16406 10.3731 9.16406 10.8333V17.5C9.16406 17.9602 9.53716 18.3333 9.9974 18.3333H10.8307C11.291 18.3333 11.6641 17.9602 11.6641 17.5V10.8333C11.6641 10.3731 11.291 10 10.8307 10Z" fill="black"/>
<path d="M19.1667 10H18.3333C17.8731 10 17.5 10.3731 17.5 10.8333V17.5C17.5 17.9602 17.8731 18.3333 18.3333 18.3333H19.1667C19.6269 18.3333 20 17.9602 20 17.5V10.8333C20 10.3731 19.6269 10 19.1667 10Z" fill="black"/>
</svg>
