<svg width="20" height="16" viewBox="0 0 20 16" fill="none" xmlns="http://www.w3.org/2000/svg">
<path d="M18.75 11.75H1.25C0.918479 11.75 0.600537 11.8817 0.366117 12.1161C0.131696 12.3505 0 12.6685 0 13C0 13.663 0.263392 14.2989 0.732233 14.7678C1.20107 15.2366 1.83696 15.5 2.5 15.5H17.5C18.163 15.5 18.7989 15.2366 19.2678 14.7678C19.7366 14.2989 20 13.663 20 13C20 12.6685 19.8683 12.3505 19.6339 12.1161C19.3995 11.8817 19.0815 11.75 18.75 11.75Z" fill="black"/>
<path d="M17.5 0.5H2.5C1.83696 0.5 1.20107 0.763392 0.732233 1.23223C0.263392 1.70107 0 2.33696 0 3C0 3.33152 0.131696 3.64946 0.366117 3.88388C0.600537 4.1183 0.918479 4.25 1.25 4.25H18.75C19.0815 4.25 19.3995 4.1183 19.6339 3.88388C19.8683 3.64946 20 3.33152 20 3C20 2.33696 19.7366 1.70107 19.2678 1.23223C18.7989 0.763392 18.163 0.5 17.5 0.5Z" fill="black"/>
<path d="M18.75 6.75H1.25C0.918479 6.75 0.600537 6.8817 0.366117 7.11612C0.131696 7.35054 0 7.66848 0 8C0 8.33152 0.131696 8.64946 0.366117 8.88388C0.600537 9.1183 0.918479 9.25 1.25 9.25H18.75C19.0815 9.25 19.3995 9.1183 19.6339 8.88388C19.8683 8.64946 20 8.33152 20 8C20 7.66848 19.8683 7.35054 19.6339 7.11612C19.3995 6.8817 19.0815 6.75 18.75 6.75Z" fill="black"/>
</svg>
