<svg width="20" height="17" viewBox="0 0 20 17" fill="none" xmlns="http://www.w3.org/2000/svg">
<path d="M6.29125 16.2505C13.8375 16.2505 17.9662 10.3646 17.9662 5.26225C17.9662 5.09755 17.9613 4.92813 17.9538 4.76343C18.7568 4.21659 19.4497 3.53932 20 2.76343C19.2522 3.07675 18.4581 3.28144 17.645 3.37049C18.5009 2.88751 19.1417 2.12888 19.4487 1.23519C18.6436 1.6841 17.7631 2.00078 16.845 2.17166C16.2261 1.5527 15.4078 1.1429 14.5165 1.00561C13.6253 0.868332 12.7109 1.01122 11.9146 1.41219C11.1183 1.81315 10.4846 2.44985 10.1114 3.22383C9.7382 3.99782 9.64633 4.86596 9.85 5.69402C8.21902 5.61713 6.62341 5.21848 5.16664 4.52392C3.70987 3.82936 2.42446 2.8544 1.39375 1.66225C0.870029 2.51223 0.709839 3.51801 0.94574 4.47516C1.18164 5.43231 1.79593 6.26901 2.66375 6.81519C2.01239 6.79581 1.37527 6.63088 0.805 6.33402V6.38107C0.80401 7.27338 1.13151 8.13844 1.73179 8.8291C2.33207 9.51976 3.16805 9.99335 4.0975 10.1693C3.49384 10.3239 2.86059 10.3465 2.24625 10.2352C2.50863 11.0022 3.01879 11.673 3.70559 12.154C4.39238 12.6351 5.22156 12.9024 6.0775 12.9187C5.22589 13.5481 4.25069 14.013 3.20779 14.287C2.16489 14.561 1.0748 14.6385 0 14.5152C1.87713 15.649 4.06083 16.2513 6.29125 16.2505Z" fill="#666666"/>
</svg>
