<svg width="32" height="32" viewBox="0 0 32 32" fill="none" xmlns="http://www.w3.org/2000/svg">
<g clip-path="url(#clip0_969_8555)">
<path d="M15.9987 17.3334C17.4715 17.3334 18.6654 16.1395 18.6654 14.6667C18.6654 13.194 17.4715 12 15.9987 12C14.5259 12 13.332 13.194 13.332 14.6667C13.332 16.1395 14.5259 17.3334 15.9987 17.3334Z" stroke="#999999" stroke-width="2.5" stroke-miterlimit="10" stroke-linecap="round"/>
<path d="M25.332 27.3134C27.6619 25.3913 29.3416 22.7969 30.1415 19.8844C30.9415 16.9719 30.8229 13.8835 29.8017 11.041C28.7805 8.19852 26.9067 5.74061 24.4362 4.00305C21.9657 2.26548 19.019 1.33301 15.9987 1.33301C12.9784 1.33301 10.0317 2.26548 7.56116 4.00305C5.09067 5.74061 3.21685 8.19852 2.1957 11.041C1.17455 13.8835 1.05586 16.9719 1.85586 19.8844C2.65585 22.7969 4.3355 25.3913 6.66537 27.3134" stroke="#999999" stroke-width="2.5" stroke-miterlimit="10" stroke-linecap="round"/>
<path d="M14.6667 21.3335H17.3333C18.0406 21.3335 18.7189 21.6144 19.219 22.1145C19.719 22.6146 20 23.2929 20 24.0002V30.6668H12V24.0002C12 23.2929 12.281 22.6146 12.781 22.1145C13.2811 21.6144 13.9594 21.3335 14.6667 21.3335Z" stroke="#999999" stroke-width="2.5" stroke-miterlimit="10" stroke-linecap="round"/>
<path d="M24.3441 20.1574C25.0561 18.7345 25.3925 17.1531 25.3214 15.5635C25.2503 13.9739 24.7739 12.4289 23.9376 11.0752C23.1013 9.72156 21.9328 8.60417 20.543 7.82922C19.1533 7.05426 17.5886 6.64746 15.9974 6.64746C14.4062 6.64746 12.8415 7.05426 11.4518 7.82922C10.062 8.60417 8.89353 9.72156 8.05721 11.0752C7.2209 12.4289 6.74454 13.9739 6.6734 15.5635C6.60225 17.1531 6.93868 18.7345 7.65073 20.1574" stroke="#999999" stroke-width="2.5" stroke-miterlimit="10" stroke-linecap="round"/>
</g>
<defs>
<clipPath id="clip0_969_8555">
<rect width="32" height="32" fill="white"/>
</clipPath>
</defs>
</svg>
