<svg width="109" height="24" viewBox="0 0 109 24" fill="none" xmlns="http://www.w3.org/2000/svg">
<rect width="109" height="24" rx="12" fill="#EDE2FF"/>
<path d="M13 6C9.7 6 7 8.7 7 12C7 15.3 9.7 18 13 18C16.3 18 19 15.3 19 12C19 8.7 16.3 6 13 6ZM12.25 14.55L9.7 12L10.75 10.95L12.25 12.45L15.25 9.45L16.3 10.5L12.25 14.55Z" fill="#8D4AFF"/>
<path d="M27.56 16.13C28.5 16.13 29.29 15.7 29.65 15.08L29.77 16H30.87V12.06H27.63V13.22H29.62C29.6 14.14 29 14.89 27.79 14.89C26.57 14.89 25.86 13.96 25.86 12.56V12.34C25.86 10.95 26.53 10 27.75 10C28.61 10 29.16 10.47 29.34 11.24H30.84C30.63 9.8 29.5 8.77 27.77 8.77C25.69 8.77 24.32 10.25 24.32 12.34V12.56C24.32 14.64 25.61 16.13 27.56 16.13ZM37.8245 16V14.79H34.1145V12.98H37.4245V11.78H34.1145V10.11H37.7545V8.9H32.6545V16H37.8245ZM42.6108 16V10.11H44.6208V8.9H39.1208V10.11H41.1408V16H42.6108ZM52.4152 16L54.8752 8.9H53.3552L51.6352 14.37L49.9052 8.9H48.3352L50.7852 16H52.4152ZM61.4834 16V14.79H57.7734V12.98H61.0834V11.78H57.7734V10.11H61.4134V8.9H56.3134V16H61.4834ZM64.6377 16V13.48H65.8477L67.4577 16H69.1177L67.3477 13.33C68.2677 13.04 68.8677 12.34 68.8677 11.25V11.13C68.8677 9.68 67.7777 8.9 66.2977 8.9H63.1877V16H64.6377ZM64.6377 10.12H66.1477C66.8477 10.12 67.3477 10.42 67.3477 11.13V11.25C67.3477 11.95 66.8477 12.26 66.1477 12.26H64.6377V10.12ZM72.0806 16V8.9H70.6006V16H72.0806ZM75.4859 16V13.14H78.5459V11.94H75.4859V10.11H78.8859V8.9H74.0259V16H75.4859ZM82.0595 16V8.9H80.5795V16H82.0595ZM89.1748 16V14.79H85.4648V12.98H88.7748V11.78H85.4648V10.11H89.1048V8.9H84.0048V16H89.1748ZM93.5091 16C95.6391 16 97.1091 14.77 97.1091 12.56V12.34C97.1091 10.12 95.6391 8.9 93.5091 8.9H90.8791V16H93.5091ZM92.3391 10.12H93.4091C94.7391 10.12 95.5791 10.76 95.5791 12.34V12.56C95.5791 14.14 94.7391 14.78 93.4091 14.78H92.3391V10.12Z" fill="#8D4AFF"/>
</svg>
