<svg width="85" height="24" viewBox="0 0 85 24" fill="none" xmlns="http://www.w3.org/2000/svg">
<rect width="85" height="24" rx="12" fill="#8D4AFF"/>
<path d="M13 6C9.7 6 7 8.7 7 12C7 15.3 9.7 18 13 18C16.3 18 19 15.3 19 12C19 8.7 16.3 6 13 6ZM12.25 14.55L9.7 12L10.75 10.95L12.25 12.45L15.25 9.45L16.3 10.5L12.25 14.55Z" fill="white"/>
<path d="M28.18 16L30.64 8.9H29.12L27.4 14.37L25.67 8.9H24.1L26.55 16H28.18ZM37.2483 16V14.79H33.5383V12.98H36.8483V11.78H33.5383V10.11H37.1783V8.9H32.0783V16H37.2483ZM40.4025 16V13.48H41.6125L43.2225 16H44.8825L43.1125 13.33C44.0325 13.04 44.6325 12.34 44.6325 11.25V11.13C44.6325 9.68 43.5425 8.9 42.0625 8.9H38.9525V16H40.4025ZM40.4025 10.12H41.9125C42.6125 10.12 43.1125 10.42 43.1125 11.13V11.25C43.1125 11.95 42.6125 12.26 41.9125 12.26H40.4025V10.12ZM47.8455 16V8.9H46.3655V16H47.8455ZM51.2508 16V13.14H54.3108V11.94H51.2508V10.11H54.6508V8.9H49.7908V16H51.2508ZM57.8244 16V8.9H56.3444V16H57.8244ZM64.9397 16V14.79H61.2297V12.98H64.5397V11.78H61.2297V10.11H64.8697V8.9H59.7697V16H64.9397ZM69.2739 16C71.4039 16 72.8739 14.77 72.8739 12.56V12.34C72.8739 10.12 71.4039 8.9 69.2739 8.9H66.6439V16H69.2739ZM68.1039 10.12H69.1739C70.5039 10.12 71.3439 10.76 71.3439 12.34V12.56C71.3439 14.14 70.5039 14.78 69.1739 14.78H68.1039V10.12Z" fill="white"/>
</svg>
