<svg width="20" height="20" viewBox="0 0 20 20" fill="none" xmlns="http://www.w3.org/2000/svg">
<g clip-path="url(#clip0_761_5731)">
<path d="M14.1233 0.0628222C12.2833 -0.0230111 7.72581 -0.0188444 5.88414 0.0628222C4.26581 0.138656 2.83831 0.529489 1.68748 1.68032C-0.235858 3.60366 0.00997576 6.19532 0.00997576 9.99616C0.00997576 13.8862 -0.206691 16.4178 1.68748 18.312C3.61831 20.242 6.24748 19.9895 10.0033 19.9895C13.8566 19.9895 15.1866 19.992 16.5491 19.4645C18.4016 18.7453 19.8 17.0895 19.9366 14.1153C20.0233 12.2745 20.0183 7.71782 19.9366 5.87616C19.7716 2.36532 17.8875 0.236156 14.1233 0.0628222ZM17.0358 17.0395C15.775 18.3003 14.0258 18.1878 9.97914 18.1878C5.81248 18.1878 4.14164 18.2495 2.92248 17.027C1.51831 15.6295 1.77248 13.3853 1.77248 9.98282C1.77248 5.37865 1.29998 2.06282 5.92081 1.82616C6.98248 1.78866 7.29498 1.77616 9.96748 1.77616L10.005 1.80116C14.4458 1.80116 17.93 1.33616 18.1391 5.95616C18.1866 7.01032 18.1975 7.32699 18.1975 9.99532C18.1966 14.1137 18.275 15.7945 17.0358 17.0395Z" fill="#FB50B7"/>
<path d="M8.05279 13.2806C8.02969 13.295 8.01391 13.2973 8.00265 13.2973C7.98839 13.2975 7.97009 13.2936 7.95131 13.2832C7.93253 13.2728 7.91958 13.2593 7.91212 13.2472C7.90622 13.2376 7.89979 13.223 7.89979 13.1958V6.80425C7.89979 6.77701 7.90622 6.76243 7.91212 6.75283C7.91958 6.74068 7.93253 6.72719 7.95131 6.71678C7.97009 6.70638 7.98839 6.70254 8.00265 6.70265C8.01391 6.70274 8.02969 6.70501 8.05279 6.71945L13.166 9.9152C13.2287 9.95437 13.2287 10.0456 13.166 10.0848L8.05279 13.2806Z" stroke="#FB50B7" stroke-width="1.8"/>
</g>
<defs>
<clipPath id="clip0_761_5731">
<rect width="20" height="20" fill="white"/>
</clipPath>
</defs>
</svg>
